<svg height="145.000000mm" version="1.1" viewBox="0 0 145.000000 145.000000" width="145.000000mm" xmlns="http://www.w3.org/2000/svg">
  <defs>
    <clipPath clipPathUnits="userSpaceOnUse" id="tattoo-band-layer-clip">
      <circle cx="72.500000" cy="72.500000" r="63.800000"/>
    </clipPath>
  </defs>
  <path clip-path="url(#tattoo-band-layer-clip)" d="M 11.527256 53.717974 L 11.686002 53.337640 L 11.905478 52.823153 L 12.128802 52.310769 L 12.355953 51.800512 L 12.586911 51.292405 L 12.821655 50.786469 L 13.060165 50.282729 L 13.302421 49.781205 L 13.548401 49.281921 L 13.798086 48.784898 L 14.051454 48.290159 L 14.308484 47.797724 L 14.569156 47.307615 L 14.833450 46.819854 L 15.101344 46.334462 L 15.372817 45.851459 L 15.647849 45.370867 L 15.926419 44.892706 L 16.208506 44.416997 L 16.494089 43.943760 L 16.783147 43.473014 L 17.075659 43.004781 L 17.371605 42.539080 L 17.670963 42.075930 L 17.973711 41.615352 L 18.279830 41.157364 L 18.589299 40.701986 L 18.902095 40.249237 L 19.218198 39.799136 L 19.537587 39.351701 L 19.860241 38.906952 L 20.186138 38.464906 L 20.515258 38.025583 L 20.847579 37.589001 L 21.183080 37.155177 L 21.521741 36.724129 L 21.863539 36.295877 L 22.208453 35.870436 L 22.556463 35.447826 L 22.907547 35.028063 L 23.261683 34.611165 L 23.618851 34.197148 L 23.979030 33.786031 L 24.342197 33.377830 L 24.708331 32.972562 L 25.077412 32.570244 L 25.449418 32.170892 L 25.824327 31.774524 L 26.202118 31.381155 L 26.582770 30.990802 L 26.966261 30.603481 L 27.352570 30.219208 L 27.741675 29.837999 L 28.133556 29.459870 L 28.528189 29.084838 L 28.925555 28.712917 L 29.325631 28.344123 L 29.728396 27.978472 L 30.133828 27.615979 L 30.541906 27.256660 L 30.952608 26.900530 L 31.365912 26.547603 L 31.781797 26.197896 L 32.200242 25.851422 L 32.621224 25.508198 L 33.044721 25.168237 L 33.470713 24.831554 L 33.899177 24.498164 L 34.330091 24.168082 L 34.763434 23.841322 L 35.199184 23.517897 L 35.637318 23.197824 L 36.077816 22.881115 L 36.520655 22.567785 L 36.965813 22.257848 L 37.413268 21.951318 L 37.862998 21.648209 L 38.314981 21.348534 L 38.769196 21.052308 L 39.225619 20.759543 L 39.684228 20.470255 L 40.145003 20.184455 L 40.607919 19.902159 L 41.072955 19.623378 L 41.540089 19.348126 L 42.009299 19.076417 L 42.480561 18.808264 L 42.953853 18.543679 L 43.429154 18.282677 L 43.906440 18.025269 L 44.385689 17.771469 L 44.866878 17.521290 L 45.349984 17.274744 L 45.834985 17.031844 L 46.321858 16.792603 L 46.810581 16.557033 L 47.301129 16.325146 L 47.793481 16.096956 L 48.287613 15.872475 L 48.783503 15.651715 L 49.281126 15.434687 L 49.780461 15.221406 L 50.281483 15.011881 L 50.784170 14.806127 L 51.288497 14.604154 L 51.794443 14.405974 L 52.301982 14.211600 L 52.811092 14.021043 L 53.321749 13.834315 L 53.833929 13.651428 L 54.347609 13.472394 L 54.862764 13.297223 L 55.379371 13.125927 L 55.897405 12.958519 L 56.416843 12.795008 L 56.937660 12.635408 L 57.459833 12.479728 L 57.983336 12.327980 L 58.508146 12.180175 L 59.034237 12.036324 L 59.561586 11.896439 L 60.090168 11.760529 L 60.619957 11.628607 L 61.150930 11.500682 L 61.683061 11.376766 L 62.216325 11.256868 L 62.750696 11.141001 L 63.286151 11.029174 L 63.822663 10.921397 L 64.360207 10.817682 L 64.898757 10.718038 L 65.438289 10.622475 L 65.978775 10.531005 L 66.520191 10.443636 L 67.062510 10.360379 L 67.605706 10.281244 L 68.149754 10.206240 L 68.694626 10.135378 L 69.240297 10.068667 L 69.786740 10.006117 L 70.333928 9.947737 L 70.881835 9.893537 L 71.430434 9.843527 L 71.979698 9.797714 L 72.529599 9.756109 L 73.080111 9.718722 L 73.631207 9.685559 L 74.182858 9.656632 L 74.735037 9.631948 L 75.287717 9.611517 L 75.840869 9.595346 L 76.394466 9.583445 L 76.948480 9.575822 L 77.502882 9.572486 L 78.057644 9.573444 L 78.612738 9.578704 L 79.168134 9.588276 L 79.723805 9.602167 L 80.279720 9.620384 L 80.835852 9.642936 L 81.392170 9.669829 L 81.948646 9.701072 L 82.505251 9.736672 L 83.061953 9.776636 L 83.618724 9.820972 L 84.175534 9.869685 L 84.732353 9.922784 L 85.142307 9.965113" fill="none" id="tattoo-path-72b20bef6035bdbd" stroke="#000000" stroke-linecap="round" stroke-linejoin="round" stroke-width="4.800000"/>
  <path clip-path="url(#tattoo-band-layer-clip)" d="M 94.169461 132.507287 L 94.091647 132.079043 L 93.991830 131.533738 L 93.892075 130.992704 L 93.792383 130.455872 L 93.692760 129.923174 L 93.593207 129.394543 L 93.493729 128.869915 L 93.394328 128.349227 L 93.295006 127.832414 L 93.195766 127.319417 L 93.096610 126.810174 L 92.997540 126.304628 L 92.898559 125.802718 L 92.799667 125.304390 L 92.700867 124.809586 L 92.602161 124.318252 L 92.503548 123.830335 L 92.405031 123.345781 L 92.306611 122.864538 L 92.208288 122.386555 L 92.110064 121.911783 L 92.011938 121.440172 L 91.913913 120.971674 L 91.815987 120.506241 L 91.718163 120.043826 L 91.620439 119.584385 L 91.522816 119.127871 L 91.425294 118.674241 L 91.327874 118.223451 L 91.230554 117.775458 L 91.133336 117.330220 L 91.036218 116.887696 L 90.939201 116.447845 L 90.842284 116.010627 L 90.745466 115.576003 L 90.648747 115.143935 L 90.552127 114.714383 L 90.455605 114.287311 L 90.359180 113.862682 L 90.262851 113.440459 L 90.166617 113.020607 L 90.070479 112.603092 L 89.974434 112.187877 L 89.878481 111.774929 L 89.782621 111.364216 L 89.686851 110.955703 L 89.591170 110.549358 L 89.495578 110.145150 L 89.400072 109.743047 L 89.304653 109.343017 L 89.209318 108.945031 L 89.114067 108.549059 L 89.018897 108.155070 L 88.923807 107.763035 L 88.828797 107.372926 L 88.733864 106.984714 L 88.639007 106.598372 L 88.544224 106.213871 L 88.449514 105.831185 L 88.354876 105.450287 L 88.260307 105.071150 L 88.165806 104.693749 L 88.071371 104.318058 L 87.977001 103.944051 L 87.882693 103.571703 L 87.788447 103.200991 L 87.694260 102.831889 L 87.600130 102.464373 L 87.506056 102.098421 L 87.412036 101.734008 L 87.318068 101.371111 L 87.224149 101.009709 L 87.130279 100.649778 L 87.036455 100.291296 L 86.942674 99.934241 L 86.848936 99.578592 L 86.755238 99.224328 L 86.661579 98.871426 L 86.567955 98.519868 L 86.474365 98.169631 L 86.380808 97.820696 L 86.287280 97.473043 L 86.193780 97.126651 L 86.100305 96.781502 L 86.006855 96.437575 L 85.913425 96.094853 L 85.820015 95.753315 L 85.726621 95.412943 L 85.633243 95.073719 L 85.539877 94.735624 L 85.446521 94.398640 L 85.353174 94.062750 L 85.259832 93.727936 L 85.166494 93.394179 L 85.073157 93.061464 L 84.979819 92.729772 L 84.886477 92.399088 L 84.793130 92.069393 L 84.699775 91.740672 L 84.606410 91.412908 L 84.513032 91.086084 L 84.419638 90.760186 L 84.326227 90.435196 L 84.232796 90.111099 L 84.139343 89.787879 L 84.045864 89.465521 L 83.952359 89.144010 L 83.858823 88.823329 L 83.765256 88.503465 L 83.671653 88.184403 L 83.578013 87.866126 L 83.484333 87.548622 L 83.390611 87.231875 L 83.296844 86.915870 L 83.203029 86.600594 L 83.109165 86.286033 L 83.015247 85.972171 L 82.921274 85.658997 L 82.827243 85.346494 L 82.733152 85.034650 L 82.638997 84.723452 L 82.544776 84.412885 L 82.450487 84.102937 L 82.356126 83.793593 L 82.261691 83.484841 L 82.167179 83.176667 L 82.072587 82.869059 L 81.977913 82.562004 L 81.883154 82.255488 L 81.788307 81.949499 L 81.693369 81.644024 L 81.598337 81.339051 L 81.503209 81.034567 L 81.407981 80.730559 L 81.312651 80.427016 L 81.217215 80.123924 L 81.121672 79.821272 L 81.026017 79.519048 L 80.930248 79.217239 L 80.834362 78.915833 L 80.738356 78.614818 L 80.642226 78.314183 L 80.545970 78.013915 L 80.449585 77.714003 L 80.353067 77.414435 L 80.256414 77.115198 L 80.159622 76.816283 L 80.062689 76.517676 L 79.965610 76.219367 L 79.868383 75.921343 L 79.771004 75.623594 L 79.673470 75.326108 L 79.575779 75.028873 L 79.477926 74.731878 L 79.379908 74.435112 L 79.281722 74.138564 L 79.183365 73.842222 L 79.084833 73.546075 L 78.986123 73.250112 L 78.887230 72.954321 L 78.788153 72.658692 L 78.688886 72.363214 L 78.589428 72.067875 L 78.489773 71.772664 L 78.389919 71.477570 L 78.289862 71.182582 L 78.189597 70.887690 L 78.089123 70.592881 L 77.988433 70.298146 L 77.887526 70.003473 L 77.786397 69.708851 L 77.685043 69.414269 L 77.583458 69.119717 L 77.481641 68.825183 L 77.379585 68.530656 L 77.277289 68.236125 L 77.174747 67.941580 L 77.071956 67.647009 L 76.968911 67.352402 L 76.865608 67.057747 L 76.762044 66.763034 L 76.658214 66.468252 L 76.554113 66.173389 L 76.449738 65.878435 L 76.345085 65.583378 L 76.240147 65.288208 L 76.134923 64.992913 L 76.029406 64.697483 L 75.923593 64.401906 L 75.817478 64.106171 L 75.711058 63.810268 L 75.604328 63.514185 L 75.497282 63.217910 L 75.389917 62.921433 L 75.282227 62.624742 L 75.174208 62.327827 L 75.065854 62.030675 L 74.957161 61.733276 L 74.848124 61.435617 L 74.738738 61.137689 L 74.628998 60.839478 L 74.518897 60.540975 L 74.408433 60.242166 L 74.297598 59.943042 L 74.186387 59.643589 L 74.074796 59.343797 L 73.962819 59.043653 L 73.850450 58.743146 L 73.737684 58.442264 L 73.624515 58.140995 L 73.510937 57.839327 L 73.396944 57.537248 L 73.282531 57.234746 L 73.167692 56.931810 L 73.052421 56.628426 L 72.936711 56.324582 L 72.820557 56.020267 L 72.703953 55.715467 L 72.586891 55.410170 L 72.469366 55.104365 L 72.351371 54.798037 L 72.232900 54.491174 L 72.113945 54.183764 L 71.994501 53.875794 L 71.874561 53.567250 L 71.754118 53.258119 L 71.633164 52.948389 L 71.511693 52.638047 L 71.389697 52.327078 L 71.267170 52.015469 L 71.144103 51.703207 L 71.020490 51.390278 L 70.896323 51.076669 L 70.771595 50.762365 L 70.646297 50.447353 L 70.520421 50.131618 L 70.393961 49.815147 L 70.266907 49.497924 L 70.139252 49.179936 L 70.010988 48.861168 L 69.882105 48.541605 L 69.752595 48.221232 L 69.622450 47.900035 L 69.491661 47.577998 L 69.360220 47.255107 L 69.228116 46.931345 L 69.095341 46.606697 L 68.961886 46.281148 L 68.827741 45.954681 L 68.692896 45.627281 L 68.557343 45.298932 L 68.421071 44.969617 L 68.284069 44.639320 L 68.146329 44.308024 L 68.007839 43.975713 L 67.868590 43.642369 L 67.728570 43.307975 L 67.587769 42.972514 L 67.446176 42.635969 L 67.303780 42.298321 L 67.160570 41.959553 L 67.016533 41.619647 L 66.871659 41.278584 L 66.725935 40.936346 L 66.579351 40.592914 L 66.431892 40.248270 L 66.283548 39.902393 L 66.134305 39.555266 L 65.984150 39.206867 L 65.833071 38.857177 L 65.681055 38.506177 L 65.528088 38.153846 L 65.374156 37.800162 L 65.219245 37.445106 L 65.063342 37.088657 L 64.906431 36.730792 L 64.748499 36.371491 L 64.589531 36.010732 L 64.429511 35.648491 L 64.268424 35.284748 L 64.106254 34.919479 L 63.942986 34.552660 L 63.778604 34.184270 L 63.613090 33.814283 L 63.446429 33.442677 L 63.278603 33.069426 L 63.109594 32.694507 L 62.939386 32.317894 L 62.767960 31.939562 L 62.595298 31.559485 L 62.421382 31.177637 L 62.246192 30.793992 L 62.069709 30.408523 L 61.891913 30.021203 L 61.712785 29.632005 L 61.532304 29.240900 L 61.350449 28.847861 L 61.167200 28.452858 L 60.982534 28.055862 L 60.796430 27.656844 L 60.608865 27.255774 L 60.419817 26.852621 L 60.229262 26.447354 L 60.037177 26.039942 L 59.843537 25.630353 L 59.648318 25.218555 L 59.451494 24.804515 L 59.253041 24.388199 L 59.052932 23.969574 L 58.851140 23.548605 L 58.647639 23.125256 L 58.442400 22.699494 L 58.235396 22.271281 L 58.026597 21.840580 L 57.815975 21.407356 L 57.603498 20.971569 L 57.389137 20.533181 L 57.172861 20.092153 L 56.954637 19.648445 L 56.734432 19.202017 L 56.512214 18.752828 L 56.287948 18.300835 L 56.061601 17.845997 L 55.833135 17.388271 L 55.602516 16.927611 L 55.369706 16.463974 L 55.134668 15.997313 L 54.897362 15.527584 L 54.657750 15.054738 L 54.415791 14.578727 L 54.171444 14.099504 L 53.924666 13.617017 L 53.675416 13.131218 L 53.423647 12.642053 L 53.169317 12.149472 L 52.969128 11.762985" fill="none" id="tattoo-path-5015bf218a4c39dd" stroke="#000000" stroke-linecap="round" stroke-linejoin="round" stroke-width="4.200000"/>
  <path clip-path="url(#tattoo-band-layer-clip)" d="M 46.481164 130.753413 L 46.672537 130.514528 L 47.018950 130.080355 L 47.361929 129.648752 L 47.701533 129.219684 L 48.037819 128.793116 L 48.370844 128.369015 L 48.700661 127.947347 L 49.027326 127.528079 L 49.350890 127.111177 L 49.671406 126.696611 L 49.988924 126.284347 L 50.303494 125.874355 L 50.615163 125.466603 L 50.923980 125.061062 L 51.229991 124.657701 L 51.533241 124.256489 L 51.833776 123.857399 L 52.131638 123.460401 L 52.426872 123.065466 L 52.719518 122.672566 L 53.009618 122.281674 L 53.297213 121.892762 L 53.582342 121.505803 L 53.865043 121.120770 L 54.145356 120.737637 L 54.423317 120.356377 L 54.698962 119.976966 L 54.972329 119.599378 L 55.243451 119.223588 L 55.512364 118.849570 L 55.779101 118.477302 L 56.043696 118.106757 L 56.306182 117.737914 L 56.566589 117.370747 L 56.824950 117.005235 L 57.081296 116.641354 L 57.335657 116.279081 L 57.588063 115.918395 L 57.838542 115.559272 L 58.087124 115.201692 L 58.333836 114.845632 L 58.578707 114.491072 L 58.821763 114.137990 L 59.063031 113.786365 L 59.302538 113.436178 L 59.540308 113.087407 L 59.776368 112.740032 L 60.010742 112.394035 L 60.243454 112.049394 L 60.474529 111.706091 L 60.703989 111.364107 L 60.931859 111.023422 L 61.158161 110.684018 L 61.382917 110.345877 L 61.606150 110.008979 L 61.827880 109.673308 L 62.048130 109.338844 L 62.266920 109.005571 L 62.484270 108.673470 L 62.700202 108.342525 L 62.914734 108.012717 L 63.127886 107.684031 L 63.339678 107.356449 L 63.550129 107.029955 L 63.759257 106.704532 L 63.967080 106.380164 L 64.173616 106.056835 L 64.378884 105.734529 L 64.582901 105.413229 L 64.785683 105.092921 L 64.987249 104.773589 L 65.187613 104.455217 L 65.386794 104.137790 L 65.584807 103.821294 L 65.781667 103.505712 L 65.977391 103.191032 L 66.171994 102.877237 L 66.365490 102.564313 L 66.557896 102.252246 L 66.749226 101.941022 L 66.939494 101.630626 L 67.128714 101.321044 L 67.316901 101.012264 L 67.504068 100.704270 L 67.690229 100.397049 L 67.875397 100.090587 L 68.059587 99.784872 L 68.242810 99.479890 L 68.425080 99.175627 L 68.606409 98.872071 L 68.786810 98.569208 L 68.966295 98.267026 L 69.144877 97.965512 L 69.322567 97.664653 L 69.499377 97.364436 L 69.675318 97.064849 L 69.850403 96.765880 L 70.024643 96.467515 L 70.198048 96.169744 L 70.370630 95.872553 L 70.542399 95.575931 L 70.713367 95.279865 L 70.883543 94.984344 L 71.052939 94.689356 L 71.221565 94.394889 L 71.389430 94.100931 L 71.556545 93.807470 L 71.722920 93.514496 L 71.888564 93.221996 L 72.053487 92.929959 L 72.217698 92.638374 L 72.381208 92.347230 L 72.544024 92.056514 L 72.706157 91.766216 L 72.867615 91.476326 L 73.028408 91.186831 L 73.188543 90.897720 L 73.348030 90.608983 L 73.506877 90.320610 L 73.665093 90.032588 L 73.822686 89.744907 L 73.979665 89.457556 L 74.136037 89.170525 L 74.291810 88.883803 L 74.446993 88.597379 L 74.601594 88.311243 L 74.755619 88.025383 L 74.909078 87.739790 L 75.061977 87.454453 L 75.214323 87.169362 L 75.366126 86.884506 L 75.517390 86.599874 L 75.668125 86.315456 L 75.818337 86.031243 L 75.968033 85.747223 L 76.117220 85.463387 L 76.265905 85.179723 L 76.414095 84.896222 L 76.561797 84.612874 L 76.709017 84.329668 L 76.855762 84.046595 L 77.002038 83.763643 L 77.147852 83.480803 L 77.293211 83.198065 L 77.438120 82.915418 L 77.582586 82.632853 L 77.726615 82.350359 L 77.870214 82.067926 L 78.013388 81.785544 L 78.156143 81.503204 L 78.298485 81.220894 L 78.440420 80.938605 L 78.581954 80.656327 L 78.723093 80.374049 L 78.863842 80.091762 L 79.004207 79.809456 L 79.144193 79.527119 L 79.283806 79.244744 L 79.423052 78.962318 L 79.561936 78.679832 L 79.700463 78.397277 L 79.838639 78.114641 L 79.976468 77.831915 L 80.113956 77.549088 L 80.251108 77.266151 L 80.387930 76.983092 L 80.524426 76.699903 L 80.660601 76.416573 L 80.796460 76.133090 L 80.932008 75.849446 L 81.067251 75.565630 L 81.202192 75.281632 L 81.336836 74.997440 L 81.471189 74.713046 L 81.605255 74.428437 L 81.739038 74.143605 L 81.872544 73.858538 L 82.005776 73.573226 L 82.138740 73.287659 L 82.271439 73.001825 L 82.403878 72.715715 L 82.536062 72.429317 L 82.667994 72.142621 L 82.799680 71.855617 L 82.931123 71.568292 L 83.062328 71.280637 L 83.193299 70.992641 L 83.324040 70.704292 L 83.454555 70.415580 L 83.584848 70.126494 L 83.714924 69.837022 L 83.844785 69.547153 L 83.974438 69.256877 L 84.103884 68.966182 L 84.233129 68.675056 L 84.362175 68.383488 L 84.491028 68.091467 L 84.619690 67.798981 L 84.748166 67.506019 L 84.876459 67.212568 L 85.004573 66.918618 L 85.132512 66.624156 L 85.260279 66.329171 L 85.387878 66.033650 L 85.515313 65.737581 L 85.642587 65.440953 L 85.769703 65.143752 L 85.896666 64.845968 L 86.023478 64.547586 L 86.150143 64.248596 L 86.276665 63.948983 L 86.403047 63.648737 L 86.529292 63.347843 L 86.655404 63.046289 L 86.781385 62.744061 L 86.907240 62.441148 L 87.032971 62.137536 L 87.158582 61.833210 L 87.284076 61.528159 L 87.409456 61.222368 L 87.534725 60.915824 L 87.659886 60.608513 L 87.784942 60.300421 L 87.909897 59.991534 L 88.034753 59.681838 L 88.159513 59.371319 L 88.284181 59.059962 L 88.408759 58.747753 L 88.533250 58.434678 L 88.657657 58.120720 L 88.781983 57.805866 L 88.906231 57.490100 L 89.030403 57.173407 L 89.154503 56.855772 L 89.278532 56.537179 L 89.402494 56.217613 L 89.526392 55.897057 L 89.650228 55.575495 L 89.774004 55.252911 L 89.897723 54.929290 L 90.021389 54.604613 L 90.145002 54.278866 L 90.268566 53.952030 L 90.392084 53.624088 L 90.515557 53.295024 L 90.638988 52.964819 L 90.762380 52.633457 L 90.885734 52.300918 L 91.009054 51.967186 L 91.132341 51.632241 L 91.255597 51.296066 L 91.378825 50.958641 L 91.502027 50.619948 L 91.625205 50.279967 L 91.748361 49.938679 L 91.871497 49.596064 L 91.994615 49.252103 L 92.117717 48.906775 L 92.240805 48.560059 L 92.363882 48.211936 L 92.486948 47.862384 L 92.610005 47.511382 L 92.733056 47.158908 L 92.856101 46.804942 L 92.979144 46.449460 L 93.102185 46.092441 L 93.225225 45.733862 L 93.348267 45.373700 L 93.471312 45.011931 L 93.594361 44.648533 L 93.717415 44.283482 L 93.840477 43.916752 L 93.963547 43.548321 L 94.086626 43.178163 L 94.209715 42.806252 L 94.332817 42.432564 L 94.455931 42.057072 L 94.579058 41.679750 L 94.702200 41.300572 L 94.825358 40.919510 L 94.948531 40.536537 L 95.071721 40.151626 L 95.194929 39.764747 L 95.318154 39.375873 L 95.441398 38.984975 L 95.564661 38.592022 L 95.687942 38.196985 L 95.811243 37.799834 L 95.934563 37.400538 L 96.057903 36.999065 L 96.181262 36.595384 L 96.304640 36.189462 L 96.428037 35.781267 L 96.551453 35.370765 L 96.674887 34.957923 L 96.798339 34.542706 L 96.921808 34.125079 L 97.045292 33.705007 L 97.168792 33.282454 L 97.292307 32.857383 L 97.415834 32.429757 L 97.539373 31.999539 L 97.662922 31.566689 L 97.786481 31.131170 L 97.910046 30.692940 L 98.033617 30.251960 L 98.157191 29.808189 L 98.280766 29.361585 L 98.404339 28.912106 L 98.527909 28.459708 L 98.651473 28.004348 L 98.775027 27.545981 L 98.898569 27.084562 L 99.022096 26.620044 L 99.145603 26.152380 L 99.269088 25.681523 L 99.392546 25.207424 L 99.515974 24.730033 L 99.639367 24.249300 L 99.762720 23.765174 L 99.886030 23.277603 L 100.009290 22.786532 L 100.132495 22.291909 L 100.255640 21.793678 L 100.378719 21.291782 L 100.501726 20.786165 L 100.624653 20.276769 L 100.747496 19.763534 L 100.870245 19.246399 L 100.992895 18.725303 L 101.115436 18.200184 L 101.237862 17.670977 L 101.360162 17.137617 L 101.482329 16.600038 L 101.604353 16.058172 L 101.671008 15.759430" fill="none" id="tattoo-path-7d0970fc901a0742" stroke="#000000" stroke-linecap="round" stroke-linejoin="round" stroke-width="3.600000"/>
  <path clip-path="url(#tattoo-band-layer-clip)" d="M 130.696780 98.645264 L 130.521402 98.783108 L 130.080288 99.124888 L 129.638422 99.462383 L 129.195835 99.795623 L 128.752558 100.124634 L 128.308621 100.449446 L 127.864054 100.770086 L 127.418885 101.086582 L 126.973143 101.398962 L 126.526854 101.707253 L 126.080046 102.011484 L 125.632746 102.311681 L 125.184979 102.607872 L 124.736771 102.900084 L 124.288145 103.188344 L 123.839127 103.472678 L 123.389739 103.753113 L 122.940004 104.029676 L 122.489946 104.302392 L 122.039586 104.571289 L 121.588946 104.836391 L 121.138047 105.097725 L 120.686908 105.355316 L 120.235551 105.609190 L 119.783994 105.859371 L 119.332257 106.105885 L 118.880359 106.348756 L 118.428317 106.588010 L 117.976150 106.823670 L 117.523874 107.055761 L 117.071507 107.284307 L 116.619066 107.509331 L 116.166565 107.730857 L 115.714022 107.948909 L 115.261451 108.163510 L 114.808868 108.374682 L 114.356286 108.582449 L 113.903721 108.786833 L 113.451185 108.987856 L 112.998694 109.185541 L 112.546259 109.379909 L 112.093893 109.570982 L 111.641610 109.758782 L 111.189421 109.943330 L 110.737338 110.124647 L 110.285373 110.302754 L 109.833536 110.477671 L 109.381840 110.649419 L 108.930295 110.818018 L 108.478910 110.983487 L 108.027697 111.145848 L 107.576665 111.305119 L 107.125823 111.461320 L 106.675181 111.614469 L 106.224749 111.764586 L 105.774534 111.911689 L 105.324545 112.055797 L 104.874791 112.196928 L 104.425280 112.335100 L 103.976020 112.470331 L 103.527017 112.602638 L 103.078281 112.732038 L 102.629818 112.858550 L 102.181634 112.982189 L 101.733737 113.102973 L 101.286134 113.220918 L 100.838830 113.336040 L 100.391833 113.448356 L 99.945147 113.557881 L 99.498779 113.664631 L 99.052735 113.768621 L 98.607020 113.869867 L 98.161639 113.968384 L 97.716598 114.064186 L 97.271901 114.157289 L 96.827553 114.247705 L 96.383560 114.335451 L 95.939925 114.420539 L 95.496653 114.502984 L 95.053748 114.582799 L 94.611215 114.659997 L 94.169057 114.734592 L 93.727278 114.806597 L 93.285882 114.876024 L 92.844872 114.942886 L 92.404253 115.007195 L 91.964026 115.068964 L 91.524197 115.128204 L 91.084767 115.184928 L 90.645739 115.239146 L 90.207118 115.290871 L 89.768905 115.340114 L 89.331103 115.386884 L 88.893714 115.431195 L 88.456742 115.473055 L 88.020189 115.512475 L 87.584057 115.549466 L 87.148348 115.584037 L 86.713065 115.616199 L 86.278209 115.645962 L 85.843783 115.673334 L 85.409789 115.698324 L 84.976228 115.720943 L 84.543102 115.741199 L 84.110414 115.759101 L 83.678164 115.774657 L 83.246354 115.787876 L 82.814986 115.798765 L 82.384062 115.807334 L 81.953582 115.813589 L 81.523549 115.817539 L 81.093963 115.819191 L 80.664826 115.818552 L 80.236140 115.815629 L 79.807904 115.810430 L 79.380121 115.802961 L 78.952792 115.793228 L 78.525917 115.781239 L 78.099498 115.766999 L 77.673535 115.750515 L 77.248031 115.731793 L 76.822985 115.710837 L 76.398399 115.687654 L 75.974273 115.662250 L 75.550609 115.634629 L 75.127407 115.604797 L 74.704668 115.572758 L 74.282394 115.538517 L 73.860584 115.502079 L 73.439239 115.463448 L 73.018361 115.422629 L 72.597950 115.379626 L 72.178008 115.334441 L 71.758534 115.287081 L 71.339529 115.237547 L 70.920995 115.185843 L 70.502931 115.131973 L 70.085340 115.075939 L 69.668221 115.017746 L 69.251575 114.957395 L 68.835404 114.894888 L 68.419707 114.830230 L 68.004486 114.763421 L 67.589742 114.694465 L 67.175475 114.623363 L 66.761686 114.550116 L 66.348376 114.474728 L 65.935546 114.397198 L 65.523197 114.317530 L 65.111329 114.235723 L 64.699945 114.151779 L 64.289044 114.065699 L 63.878627 113.977484 L 63.468696 113.887134 L 63.059253 113.794650 L 62.650296 113.700032 L 62.241829 113.603281 L 61.833852 113.504395 L 61.426367 113.403377 L 61.019373 113.300223 L 60.612874 113.194936 L 60.206870 113.087513 L 59.801363 112.977955 L 59.396353 112.866260 L 58.991843 112.752428 L 58.587834 112.636457 L 58.184327 112.518345 L 57.781325 112.398092 L 57.378828 112.275696 L 56.976839 112.151155 L 56.575359 112.024467 L 56.174390 111.895630 L 55.773935 111.764642 L 55.373994 111.631501 L 54.974571 111.496204 L 54.575667 111.358748 L 54.177284 111.219132 L 53.779425 111.077351 L 53.382093 110.933402 L 52.985288 110.787284 L 52.589015 110.638991 L 52.193274 110.488521 L 51.798070 110.335871 L 51.403405 110.181036 L 51.009282 110.024012 L 50.615703 109.864795 L 50.222671 109.703382 L 49.830191 109.539768 L 49.438264 109.373947 L 49.046894 109.205917 L 48.656084 109.035671 L 48.265839 108.863206 L 47.876160 108.688516 L 47.487053 108.511595 L 47.098521 108.332439 L 46.710568 108.151042 L 46.323197 107.967398 L 45.936414 107.781502 L 45.550221 107.593348 L 45.164624 107.402929 L 44.779627 107.210240 L 44.395235 107.015275 L 44.011451 106.818026 L 43.628282 106.618487 L 43.245732 106.416653 L 42.863806 106.212514 L 42.482509 106.006066 L 42.101847 105.797300 L 41.721826 105.586210 L 41.342450 105.372787 L 40.963726 105.157025 L 40.585659 104.938915 L 40.208257 104.718451 L 39.831524 104.495624 L 39.455467 104.270425 L 39.080094 104.042847 L 38.705410 103.812882 L 38.331423 103.580521 L 37.958140 103.345755 L 37.585567 103.108575 L 37.213713 102.868974 L 36.842584 102.626941 L 36.472189 102.382468 L 36.102536 102.135545 L 35.733632 101.886163 L 35.365487 101.634313 L 34.998107 101.379984 L 34.631503 101.123168 L 34.265683 100.863853 L 33.900656 100.602031 L 33.536432 100.337691 L 33.173020 100.070823 L 32.810429 99.801416 L 32.448670 99.529460 L 32.087753 99.254945 L 31.727688 98.977858 L 31.368487 98.698191 L 31.010159 98.415931 L 30.652715 98.131067 L 30.296168 97.843589 L 29.940529 97.553485 L 29.585809 97.260744 L 29.232021 96.965353 L 28.879177 96.667302 L 28.527289 96.366578 L 28.176371 96.063169 L 27.826435 95.757065 L 27.477495 95.448251 L 27.129565 95.136718 L 26.782658 94.822451 L 26.436789 94.505438 L 26.091972 94.185668 L 25.748223 93.863127 L 25.405555 93.537802 L 25.063986 93.209682 L 24.723529 92.878753 L 24.384202 92.545001 L 24.046021 92.208415 L 23.709003 91.868981 L 23.373163 91.526685 L 23.038521 91.181514 L 22.705094 90.833455 L 22.372899 90.482495 L 22.041955 90.128619 L 21.712280 89.771815 L 21.383895 89.412068 L 21.056818 89.049365 L 20.731069 88.683692 L 20.406669 88.315035 L 20.083637 87.943380 L 19.761996 87.568714 L 19.441766 87.191022 L 19.122969 86.810290 L 18.805628 86.426504 L 18.489765 86.039650 L 18.175402 85.649714 L 17.862565 85.256681 L 17.551276 84.860538 L 17.241559 84.461270 L 16.933440 84.058862 L 16.626944 83.653302 L 16.322096 83.244573 L 16.018923 82.832663 L 15.717451 82.417557 L 15.417707 81.999240 L 15.119719 81.577698 L 14.823515 81.152918 L 14.529123 80.724884 L 14.236573 80.293584 L 13.945894 79.859001 L 13.657117 79.421124 L 13.370271 78.979937 L 13.085387 78.535427 L 12.802499 78.087579 L 12.521637 77.636381 L 12.242835 77.181817 L 11.966126 76.723875 L 11.691544 76.262541 L 11.419123 75.797802 L 11.148898 75.329644 L 10.880905 74.858054 L 10.615181 74.383019 L 10.351762 73.904526 L 10.090685 73.422562 L 9.831989 72.937115 L 9.575712 72.448172 L 9.321893 71.955722 L 9.070573 71.459751 L 8.821793 70.960247 L 8.723735 70.759891" fill="none" id="tattoo-path-4d49ffa5e6e0f850" stroke="#000000" stroke-linecap="round" stroke-linejoin="round" stroke-width="3.100000"/>
  <path clip-path="url(#tattoo-band-layer-clip)" d="M 10.693352 88.323344 L 11.055681 88.150620 L 11.556712 87.912705 L 12.054308 87.677335 L 12.548518 87.444465 L 13.039396 87.214050 L 13.526991 86.986047 L 14.011352 86.760414 L 14.492527 86.537110 L 14.970566 86.316094 L 15.445513 86.097327 L 15.917416 85.880771 L 16.386320 85.666386 L 16.852268 85.454137 L 17.315306 85.243987 L 17.775476 85.035901 L 18.232821 84.829845 L 18.687381 84.625783 L 19.139199 84.423683 L 19.588314 84.223513 L 20.034767 84.025240 L 20.478596 83.828834 L 20.919839 83.634264 L 21.358535 83.441500 L 21.794721 83.250513 L 22.228434 83.061273 L 22.659709 82.873754 L 23.088582 82.687927 L 23.515088 82.503765 L 23.939262 82.321242 L 24.361137 82.140332 L 24.780748 81.961010 L 25.198125 81.783251 L 25.613304 81.607029 L 26.026314 81.432322 L 26.437188 81.259106 L 26.845957 81.087358 L 27.252650 80.917055 L 27.657300 80.748175 L 28.059934 80.580696 L 28.460582 80.414597 L 28.859273 80.249857 L 29.256036 80.086456 L 29.650898 79.924374 L 30.043888 79.763590 L 30.435031 79.604085 L 30.824357 79.445841 L 31.211889 79.288838 L 31.597656 79.133058 L 31.981682 78.978484 L 32.363994 78.825097 L 32.744615 78.672881 L 33.123572 78.521817 L 33.500888 78.371890 L 33.876587 78.223083 L 34.250694 78.075380 L 34.623231 77.928764 L 34.994223 77.783221 L 35.363691 77.638735 L 35.731659 77.495292 L 36.098149 77.352875 L 36.463183 77.211471 L 36.826782 77.071065 L 37.188969 76.931644 L 37.549764 76.793193 L 37.909188 76.655700 L 38.267262 76.519150 L 38.624007 76.383531 L 38.979443 76.248829 L 39.333590 76.115032 L 39.686467 75.982128 L 40.038094 75.850105 L 40.388491 75.718950 L 40.737677 75.588651 L 41.085670 75.459196 L 41.432489 75.330576 L 41.778153 75.202777 L 42.122680 75.075789 L 42.466088 74.949601 L 42.808395 74.824203 L 43.149619 74.699583 L 43.489776 74.575731 L 43.828885 74.452637 L 44.166963 74.330292 L 44.504026 74.208684 L 44.840091 74.087805 L 45.175176 73.967645 L 45.509295 73.848193 L 45.842467 73.729442 L 46.174706 73.611381 L 46.506030 73.494002 L 46.836453 73.377296 L 47.165991 73.261253 L 47.494661 73.145867 L 47.822477 73.031127 L 48.149454 72.917025 L 48.475608 72.803554 L 48.800954 72.690705 L 49.125507 72.578470 L 49.449281 72.466842 L 49.772291 72.355812 L 50.094552 72.245373 L 50.416077 72.135517 L 50.736882 72.026237 L 51.056979 71.917525 L 51.376385 71.809375 L 51.695111 71.701780 L 52.013172 71.594731 L 52.330582 71.488223 L 52.647355 71.382248 L 52.963503 71.276800 L 53.279041 71.171872 L 53.593981 71.067458 L 53.908337 70.963551 L 54.222123 70.860145 L 54.535350 70.757233 L 54.848032 70.654810 L 55.160182 70.552869 L 55.471813 70.451404 L 55.782937 70.350410 L 56.093567 70.249881 L 56.403716 70.149810 L 56.713396 70.050192 L 57.022620 69.951022 L 57.331400 69.852293 L 57.639747 69.754002 L 57.947676 69.656141 L 58.255196 69.558706 L 58.562322 69.461692 L 58.869064 69.365093 L 59.175436 69.268905 L 59.481447 69.173122 L 59.787112 69.077739 L 60.092441 68.982751 L 60.397446 68.888154 L 60.702139 68.793943 L 61.006532 68.700113 L 61.310636 68.606659 L 61.614462 68.513577 L 61.918024 68.420862 L 62.221331 68.328511 L 62.524396 68.236517 L 62.827229 68.144878 L 63.129843 68.053588 L 63.432249 67.962643 L 63.734457 67.872040 L 64.036480 67.781774 L 64.338329 67.691841 L 64.640015 67.602237 L 64.941549 67.512958 L 65.242942 67.424000 L 65.544206 67.335359 L 65.845352 67.247031 L 66.146391 67.159013 L 66.447334 67.071300 L 66.748192 66.983890 L 67.048977 66.896778 L 67.349699 66.809960 L 67.650371 66.723434 L 67.951001 66.637195 L 68.251603 66.551241 L 68.552187 66.465567 L 68.852764 66.380171 L 69.153345 66.295049 L 69.453942 66.210197 L 69.754565 66.125613 L 70.055225 66.041292 L 70.355934 65.957233 L 70.656703 65.873432 L 70.957542 65.789885 L 71.258464 65.706590 L 71.559478 65.623544 L 71.860597 65.540743 L 72.161832 65.458185 L 72.463193 65.375866 L 72.764692 65.293784 L 73.066340 65.211937 L 73.368148 65.130320 L 73.670129 65.048932 L 73.972292 64.967769 L 74.274649 64.886829 L 74.577212 64.806109 L 74.879992 64.725607 L 75.183001 64.645320 L 75.486249 64.565245 L 75.789749 64.485379 L 76.093512 64.405722 L 76.397549 64.326268 L 76.701873 64.247018 L 77.006494 64.167967 L 77.311425 64.089113 L 77.616676 64.010455 L 77.922261 63.931990 L 78.228191 63.853715 L 78.534478 63.775628 L 78.841133 63.697727 L 79.148169 63.620011 L 79.455598 63.542476 L 79.763432 63.465120 L 80.071682 63.387942 L 80.380362 63.310939 L 80.689484 63.234109 L 80.999060 63.157450 L 81.309102 63.080961 L 81.619623 63.004639 L 81.930635 62.928482 L 82.242152 62.852489 L 82.554186 62.776657 L 82.866749 62.700985 L 83.179855 62.625471 L 83.493517 62.550113 L 83.807748 62.474909 L 84.122560 62.399857 L 84.437968 62.324957 L 84.753984 62.250206 L 85.070622 62.175602 L 85.387896 62.101144 L 85.705819 62.026831 L 86.024404 61.952660 L 86.343667 61.878630 L 86.663620 61.804740 L 86.984278 61.730989 L 87.305654 61.657374 L 87.627764 61.583895 L 87.950622 61.510550 L 88.274241 61.437337 L 88.598638 61.364256 L 88.923825 61.291305 L 89.249820 61.218483 L 89.576636 61.145788 L 89.904289 61.073220 L 90.232793 61.000777 L 90.562166 60.928458 L 90.892421 60.856262 L 91.223575 60.784188 L 91.555644 60.712235 L 91.888643 60.640402 L 92.222590 60.568688 L 92.557499 60.497092 L 92.893389 60.425613 L 93.230275 60.354251 L 93.568175 60.283003 L 93.907105 60.211871 L 94.247083 60.140852 L 94.588125 60.069947 L 94.930251 59.999154 L 95.273476 59.928473 L 95.617821 59.857903 L 95.963301 59.787444 L 96.309937 59.717095 L 96.657746 59.646856 L 97.006747 59.576726 L 97.356960 59.506705 L 97.708403 59.436792 L 98.061095 59.366987 L 98.415058 59.297291 L 98.770309 59.227702 L 99.126871 59.158221 L 99.484762 59.088847 L 99.844003 59.019580 L 100.204616 58.950421 L 100.566622 58.881369 L 100.930041 58.812425 L 101.294896 58.743587 L 101.661208 58.674858 L 102.029000 58.606236 L 102.398294 58.537723 L 102.769113 58.469318 L 103.141480 58.401022 L 103.515418 58.332835 L 103.890951 58.264758 L 104.268103 58.196792 L 104.646898 58.128937 L 105.027362 58.061193 L 105.409518 57.993562 L 105.793392 57.926045 L 106.179011 57.858642 L 106.566399 57.791354 L 106.955583 57.724183 L 107.346591 57.657129 L 107.739449 57.590193 L 108.134184 57.523378 L 108.530825 57.456684 L 108.929400 57.390113 L 109.329937 57.323667 L 109.732467 57.257346 L 110.137017 57.191153 L 110.543619 57.125089 L 110.952303 57.059157 L 111.363099 56.993359 L 111.776040 56.927696 L 112.191156 56.862171 L 112.608481 56.796785 L 113.028047 56.731543 L 113.449887 56.666445 L 113.874036 56.601495 L 114.300528 56.536696 L 114.729397 56.472049 L 115.160679 56.407560 L 115.594410 56.343229 L 116.030628 56.279062 L 116.469368 56.215060 L 116.910669 56.151229 L 117.354570 56.087571 L 117.801109 56.024090 L 118.250326 55.960791 L 118.702262 55.897677 L 119.156957 55.834754 L 119.614453 55.772024 L 120.074794 55.709494 L 120.538021 55.647168 L 121.004178 55.585050 L 121.473312 55.523147 L 121.945466 55.461464 L 122.420687 55.400005 L 122.899022 55.338778 L 123.380520 55.277789 L 123.865228 55.217042 L 124.353196 55.156546 L 124.844475 55.096307 L 125.339115 55.036331 L 125.837170 54.976627 L 126.338693 54.917201 L 126.843737 54.858062 L 127.352358 54.799217 L 127.864611 54.740675 L 128.380556 54.682445 L 128.900248 54.624535 L 129.423749 54.566955 L 129.951118 54.509714 L 130.482418 54.452823 L 131.017710 54.396292 L 131.557060 54.340131 L 132.100532 54.284352 L 132.648193 54.228965 L 133.200110 54.173984 L 133.599585 54.134797" fill="none" id="tattoo-path-d5681a94f3c89aff" stroke="#000000" stroke-linecap="round" stroke-linejoin="round" stroke-width="2.500000"/>
  <path clip-path="url(#tattoo-band-layer-clip)" d="M 104.093161 127.928442 L 103.995762 127.844102 L 103.575757 127.478492 L 103.159759 127.114476 L 102.747703 126.752040 L 102.339525 126.391168 L 101.935162 126.031842 L 101.534552 125.674049 L 101.137635 125.317771 L 100.744353 124.962993 L 100.354645 124.609700 L 99.968457 124.257875 L 99.585732 123.907503 L 99.206415 123.558569 L 98.830453 123.211057 L 98.457794 122.864951 L 98.088385 122.520237 L 97.722176 122.176899 L 97.359117 121.834921 L 96.999161 121.494289 L 96.642259 121.154987 L 96.288364 120.817001 L 95.937430 120.480315 L 95.589413 120.144915 L 95.244267 119.810786 L 94.901950 119.477913 L 94.562419 119.146281 L 94.225633 118.815876 L 93.891549 118.486684 L 93.560128 118.158690 L 93.231330 117.831879 L 92.905116 117.506239 L 92.581449 117.181754 L 92.260290 116.858410 L 91.941603 116.536194 L 91.625351 116.215091 L 91.311499 115.895089 L 91.000013 115.576173 L 90.690857 115.258329 L 90.383999 114.941544 L 90.079405 114.625806 L 89.777042 114.311099 L 89.476879 113.997412 L 89.178884 113.684731 L 88.883027 113.373042 L 88.589276 113.062334 L 88.297603 112.752592 L 88.007977 112.443805 L 87.720371 112.135959 L 87.434755 111.829042 L 87.151102 111.523041 L 86.869384 111.217944 L 86.589575 110.913738 L 86.311647 110.610411 L 86.035575 110.307951 L 85.761334 110.006346 L 85.488897 109.705583 L 85.218240 109.405650 L 84.949340 109.106536 L 84.682170 108.808229 L 84.416709 108.510716 L 84.152932 108.213987 L 83.890818 107.918030 L 83.630342 107.622832 L 83.371484 107.328383 L 83.114220 107.034671 L 82.858531 106.741685 L 82.604394 106.449413 L 82.351789 106.157845 L 82.100695 105.866969 L 81.851092 105.576774 L 81.602961 105.287249 L 81.356281 104.998383 L 81.111033 104.710166 L 80.867199 104.422586 L 80.624759 104.135633 L 80.383695 103.849296 L 80.143989 103.563564 L 79.905623 103.278427 L 79.668580 102.993874 L 79.432842 102.709896 L 79.198392 102.426481 L 78.965213 102.143619 L 78.733288 101.861299 L 78.502602 101.579513 L 78.273138 101.298249 L 78.044879 101.017497 L 77.817811 100.737248 L 77.591918 100.457490 L 77.367185 100.178215 L 77.143597 99.899412 L 76.921138 99.621072 L 76.699794 99.343184 L 76.479551 99.065739 L 76.260395 98.788727 L 76.042312 98.512139 L 75.825287 98.235964 L 75.609308 97.960193 L 75.394360 97.684816 L 75.180430 97.409824 L 74.967506 97.135208 L 74.755575 96.860957 L 74.544623 96.587063 L 74.334638 96.313516 L 74.125608 96.040306 L 73.917521 95.767425 L 73.710364 95.494863 L 73.504125 95.222610 L 73.298794 94.950658 L 73.094357 94.678997 L 72.890804 94.407618 L 72.688124 94.136512 L 72.486304 93.865669 L 72.285335 93.595081 L 72.085205 93.324739 L 71.885904 93.054633 L 71.687420 92.784754 L 71.489744 92.515094 L 71.292865 92.245643 L 71.096773 91.976392 L 70.901457 91.707333 L 70.706909 91.438456 L 70.513117 91.169752 L 70.320072 90.901213 L 70.127765 90.632829 L 69.936186 90.364592 L 69.745326 90.096493 L 69.555175 89.828523 L 69.365725 89.560672 L 69.176965 89.292933 L 68.988888 89.025296 L 68.801484 88.757753 L 68.614745 88.490294 L 68.428661 88.222911 L 68.243226 87.955594 L 68.058429 87.688336 L 67.874263 87.421127 L 67.690719 87.153958 L 67.507789 86.886821 L 67.325466 86.619706 L 67.143741 86.352606 L 66.962606 86.085510 L 66.782054 85.818411 L 66.602077 85.551299 L 66.422667 85.284165 L 66.243816 85.017001 L 66.065518 84.749797 L 65.887765 84.482546 L 65.710549 84.215237 L 65.533863 83.947862 L 65.357701 83.680413 L 65.182054 83.412879 L 65.006917 83.145253 L 64.832282 82.877525 L 64.658142 82.609686 L 64.484491 82.341728 L 64.311322 82.073640 L 64.138628 81.805415 L 63.966403 81.537042 L 63.794640 81.268514 L 63.623332 80.999821 L 63.452475 80.730953 L 63.282060 80.461902 L 63.112082 80.192658 L 62.942535 79.923212 L 62.773413 79.653555 L 62.604709 79.383678 L 62.436417 79.113571 L 62.268533 78.843225 L 62.101049 78.572630 L 61.933960 78.301777 L 61.767261 78.030657 L 61.600945 77.759260 L 61.435007 77.487577 L 61.269442 77.215598 L 61.104243 76.943313 L 60.939406 76.670712 L 60.774924 76.397787 L 60.610794 76.124527 L 60.447008 75.850922 L 60.283563 75.576963 L 60.120453 75.302639 L 59.957672 75.027941 L 59.795215 74.752859 L 59.633079 74.477383 L 59.471256 74.201501 L 59.309744 73.925205 L 59.148536 73.648485 L 58.987627 73.371328 L 58.827014 73.093727 L 58.666691 72.815669 L 58.506653 72.537144 L 58.346896 72.258143 L 58.187415 71.978654 L 58.028206 71.698666 L 57.869263 71.418169 L 57.710584 71.137152 L 57.552162 70.855604 L 57.393994 70.573514 L 57.236075 70.290871 L 57.078401 70.007664 L 56.920967 69.723881 L 56.763770 69.439512 L 56.606805 69.154544 L 56.450068 68.868967 L 56.293556 68.582768 L 56.137262 68.295937 L 55.981185 68.008461 L 55.825320 67.720328 L 55.669662 67.431527 L 55.514208 67.142046 L 55.358954 66.851871 L 55.203897 66.560992 L 55.049032 66.269396 L 54.894355 65.977069 L 54.739864 65.684001 L 54.585554 65.390177 L 54.431421 65.095585 L 54.277463 64.800213 L 54.123675 64.504046 L 53.970054 64.207073 L 53.816596 63.909279 L 53.663299 63.610652 L 53.510158 63.311178 L 53.357171 63.010842 L 53.204334 62.709632 L 53.051643 62.407534 L 52.899096 62.104533 L 52.746690 61.800614 L 52.594421 61.495765 L 52.442286 61.189970 L 52.290282 60.883214 L 52.138406 60.575483 L 51.986655 60.266762 L 51.835026 59.957036 L 51.683517 59.646289 L 51.532124 59.334506 L 51.380845 59.021672 L 51.229677 58.707770 L 51.078617 58.392784 L 50.927662 58.076700 L 50.776810 57.759499 L 50.626059 57.441166 L 50.475406 57.121685 L 50.324848 56.801037 L 50.174383 56.479207 L 50.024008 56.156176 L 49.873722 55.831928 L 49.723522 55.506444 L 49.573405 55.179707 L 49.423371 54.851700 L 49.273416 54.522402 L 49.123538 54.191797 L 48.973736 53.859864 L 48.824007 53.526586 L 48.674350 53.191943 L 48.524762 52.855915 L 48.375243 52.518483 L 48.225790 52.179627 L 48.076402 51.839326 L 47.927077 51.497561 L 47.777814 51.154310 L 47.628611 50.809552 L 47.479467 50.463267 L 47.330380 50.115433 L 47.181349 49.766027 L 47.032374 49.415028 L 46.883453 49.062413 L 46.734585 48.708160 L 46.585768 48.352246 L 46.437003 47.994646 L 46.288289 47.635339 L 46.139624 47.274299 L 45.991009 46.911502 L 45.842442 46.546924 L 45.693923 46.180540 L 45.545453 45.812325 L 45.397030 45.442252 L 45.248654 45.070296 L 45.100326 44.696430 L 44.952046 44.320627 L 44.803813 43.942861 L 44.655629 43.563104 L 44.507493 43.181327 L 44.359406 42.797503 L 44.211368 42.411602 L 44.063381 42.023595 L 43.915445 41.633454 L 43.767562 41.241146 L 43.619731 40.846643 L 43.471955 40.449913 L 43.324236 40.050924 L 43.176574 39.649645 L 43.028971 39.246043 L 42.881429 38.840085 L 42.733951 38.431737 L 42.586538 38.020966 L 42.439193 37.607738 L 42.291918 37.192016 L 42.144715 36.773766 L 41.997589 36.352951 L 41.850542 35.929534 L 41.703576 35.503479 L 41.556697 35.074747 L 41.409906 34.643300 L 41.263209 34.209098 L 41.116609 33.772102 L 40.970111 33.332271 L 40.823719 32.889564 L 40.677437 32.443939 L 40.531272 31.995354 L 40.385229 31.543766 L 40.239312 31.089130 L 40.093528 30.631402 L 39.947883 30.170537 L 39.802383 29.706488 L 39.657035 29.239208 L 39.511847 28.768649 L 39.366825 28.294764 L 39.221978 27.817502 L 39.077312 27.336812 L 38.932838 26.852645 L 38.788563 26.364948 L 38.644497 25.873667 L 38.500648 25.378749 L 38.357028 24.880138 L 38.213647 24.377780 L 38.070515 23.871617 L 37.927644 23.361591 L 37.785045 22.847643 L 37.642730 22.329714 L 37.500713 21.807741 L 37.359007 21.281663 L 37.217625 20.751417 L 37.076581 20.216938 L 36.935891 19.678160 L 36.903663 19.553416" fill="none" id="tattoo-path-63f66ea6ea1f0e9f" stroke="#000000" stroke-linecap="round" stroke-linejoin="round" stroke-width="2.200000"/>
  <path clip-path="url(#tattoo-band-layer-clip)" d="M 79.420530 135.923547 L 79.446410 135.886417 L 79.763094 135.427068 L 80.075578 134.968808 L 80.383921 134.511642 L 80.688177 134.055574 L 80.988402 133.600609 L 81.284651 133.146750 L 81.576976 132.693998 L 81.865430 132.242358 L 82.150065 131.791830 L 82.430930 131.342417 L 82.708077 130.894118 L 82.981554 130.446935 L 83.251410 130.000869 L 83.517691 129.555918 L 83.780445 129.112082 L 84.039717 128.669361 L 84.295554 128.227753 L 84.547998 127.787257 L 84.797094 127.347870 L 85.042884 126.909592 L 85.285412 126.472419 L 85.524718 126.036349 L 85.760843 125.601378 L 85.993828 125.167504 L 86.223712 124.734723 L 86.450534 124.303032 L 86.674332 123.872426 L 86.895143 123.442902 L 87.113006 123.014454 L 87.327955 122.587079 L 87.540027 122.160772 L 87.749257 121.735528 L 87.955679 121.311341 L 88.159328 120.888207 L 88.360236 120.466120 L 88.558437 120.045074 L 88.753964 119.625065 L 88.946847 119.206085 L 89.137118 118.788129 L 89.324807 118.371190 L 89.509946 117.955263 L 89.692563 117.540341 L 89.872688 117.126418 L 90.050350 116.713487 L 90.225576 116.301541 L 90.398395 115.890573 L 90.568834 115.480577 L 90.736920 115.071545 L 90.902678 114.663471 L 91.066136 114.256347 L 91.227318 113.850166 L 91.386249 113.444920 L 91.542955 113.040603 L 91.697459 112.637207 L 91.849785 112.234723 L 91.999957 111.833146 L 92.147998 111.432466 L 92.293930 111.032677 L 92.437775 110.633771 L 92.579556 110.235739 L 92.719294 109.838574 L 92.857010 109.442269 L 92.992724 109.046814 L 93.126458 108.652202 L 93.258230 108.258426 L 93.388062 107.865477 L 93.515972 107.473347 L 93.641979 107.082027 L 93.766102 106.691511 L 93.888359 106.301789 L 94.008768 105.912853 L 94.127348 105.524696 L 94.244115 105.137309 L 94.359087 104.750684 L 94.472280 104.364812 L 94.583711 103.979686 L 94.693397 103.595296 L 94.801352 103.211635 L 94.907593 102.828695 L 95.012135 102.446467 L 95.114993 102.064942 L 95.216182 101.684113 L 95.315717 101.303971 L 95.413611 100.924507 L 95.509879 100.545714 L 95.604535 100.167583 L 95.697591 99.790106 L 95.789062 99.413273 L 95.878960 99.037078 L 95.967298 98.661511 L 96.054089 98.286565 L 96.139344 97.912230 L 96.223076 97.538498 L 96.305297 97.165362 L 96.386018 96.792812 L 96.465251 96.420841 L 96.543006 96.049439 L 96.619294 95.678600 L 96.694127 95.308313 L 96.767515 94.938572 L 96.839467 94.569367 L 96.909995 94.200691 L 96.979107 93.832534 L 97.046814 93.464889 L 97.113125 93.097748 L 97.178049 92.731102 L 97.241595 92.364942 L 97.303772 91.999261 L 97.364588 91.634050 L 97.424053 91.269301 L 97.482174 90.905006 L 97.538959 90.541156 L 97.594417 90.177744 L 97.648555 89.814760 L 97.701380 89.452198 L 97.752900 89.090047 L 97.803122 88.728301 L 97.852053 88.366952 L 97.899700 88.005990 L 97.946069 87.645408 L 97.991167 87.285198 L 98.035000 86.925351 L 98.077575 86.565859 L 98.118897 86.206715 L 98.158972 85.847910 L 98.197805 85.489435 L 98.235403 85.131284 L 98.271770 84.773447 L 98.306912 84.415917 L 98.340833 84.058685 L 98.373539 83.701744 L 98.405034 83.345085 L 98.435323 82.988701 L 98.464410 82.632582 L 98.492298 82.276723 L 98.518993 81.921113 L 98.544499 81.565746 L 98.568818 81.210612 L 98.591954 80.855705 L 98.613912 80.501017 L 98.634694 80.146538 L 98.654303 79.792262 L 98.672743 79.438180 L 98.690016 79.084284 L 98.706125 78.730566 L 98.721073 78.377019 L 98.734862 78.023634 L 98.747495 77.670404 L 98.758972 77.317320 L 98.769298 76.964375 L 98.778473 76.611561 L 98.786499 76.258869 L 98.793378 75.906292 L 98.799111 75.553822 L 98.803699 75.201451 L 98.807144 74.849171 L 98.809447 74.496975 L 98.810609 74.144854 L 98.810630 73.792800 L 98.809511 73.440806 L 98.807252 73.088863 L 98.803855 72.736965 L 98.799318 72.385102 L 98.793642 72.033268 L 98.786827 71.681453 L 98.778874 71.329651 L 98.769780 70.977854 L 98.759547 70.626053 L 98.748173 70.274241 L 98.735657 69.922410 L 98.722000 69.570552 L 98.707199 69.218659 L 98.691253 68.866723 L 98.674162 68.514737 L 98.655923 68.162693 L 98.636535 67.810582 L 98.615997 67.458397 L 98.594307 67.106131 L 98.571461 66.753774 L 98.547460 66.401320 L 98.522299 66.048761 L 98.495977 65.696088 L 98.468491 65.343294 L 98.439838 64.990371 L 98.410016 64.637311 L 98.379022 64.284107 L 98.346851 63.930750 L 98.313502 63.577232 L 98.278970 63.223546 L 98.243252 62.869684 L 98.206345 62.515637 L 98.168243 62.161399 L 98.128944 61.806961 L 98.088444 61.452315 L 98.046737 61.097453 L 98.003819 60.742368 L 97.959686 60.387052 L 97.914332 60.031497 L 97.867754 59.675694 L 97.819946 59.319636 L 97.770901 58.963315 L 97.720616 58.606724 L 97.669085 58.249853 L 97.616301 57.892696 L 97.562259 57.535245 L 97.506953 57.177491 L 97.450376 56.819426 L 97.392522 56.461043 L 97.333385 56.102334 L 97.272958 55.743291 L 97.211233 55.383905 L 97.148204 55.024170 L 97.083864 54.664076 L 97.018205 54.303617 L 96.951219 53.942783 L 96.882898 53.581568 L 96.813236 53.219963 L 96.742222 52.857960 L 96.669850 52.495551 L 96.596110 52.132729 L 96.520994 51.769485 L 96.444493 51.405811 L 96.366598 51.041700 L 96.287299 50.677143 L 96.206587 50.312133 L 96.124452 49.946661 L 96.040884 49.580720 L 95.955874 49.214301 L 95.869410 48.847397 L 95.781483 48.480000 L 95.692081 48.112102 L 95.601194 47.743694 L 95.508810 47.374769 L 95.414918 47.005319 L 95.319506 46.635335 L 95.222563 46.264811 L 95.124076 45.893738 L 95.024033 45.522107 L 94.922422 45.149912 L 94.819229 44.777144 L 94.714442 44.403796 L 94.608047 44.029859 L 94.500031 43.655325 L 94.390380 43.280187 L 94.279080 42.904437 L 94.166117 42.528067 L 94.051476 42.151069 L 93.935142 41.773435 L 93.817100 41.395158 L 93.697336 41.016229 L 93.575832 40.636642 L 93.452574 40.256387 L 93.327545 39.875458 L 93.200728 39.493847 L 93.072107 39.111545 L 92.941665 38.728546 L 92.809384 38.344842 L 92.675247 37.960425 L 92.539236 37.575288 L 92.401331 37.189423 L 92.261516 36.802822 L 92.119770 36.415478 L 91.976074 36.027384 L 91.830409 35.638533 L 91.682755 35.248916 L 91.533091 34.858527 L 91.381397 34.467358 L 91.227652 34.075403 L 91.071834 33.682654 L 90.913922 33.289104 L 90.753893 32.894746 L 90.591726 32.499573 L 90.427396 32.103578 L 90.260881 31.706755 L 90.092158 31.309096 L 89.921202 30.910595 L 89.747988 30.511245 L 89.572492 30.111040 L 89.394688 29.709974 L 89.214552 29.308040 L 89.032055 28.905231 L 88.847173 28.501542 L 88.659878 28.096967 L 88.470141 27.691499 L 88.277937 27.285133 L 88.083235 26.877863 L 87.886007 26.469684 L 87.686223 26.060589 L 87.483854 25.650575 L 87.278870 25.239635 L 87.071239 24.827764 L 86.860929 24.414959 L 86.647910 24.001212 L 86.432148 23.586522 L 86.213611 23.170882 L 85.992264 22.754288 L 85.768074 22.336738 L 85.541005 21.918225 L 85.311024 21.498748 L 85.078093 21.078303 L 84.842177 20.656886 L 84.603237 20.234494 L 84.361238 19.811124 L 84.116139 19.386775 L 83.867902 18.961443 L 83.616489 18.535126 L 83.361857 18.107824 L 83.103967 17.679534 L 82.842776 17.250255 L 82.578244 16.819986 L 82.310325 16.388726 L 82.038977 15.956476 L 81.764156 15.523236 L 81.485816 15.089005 L 81.203911 14.653785 L 80.918394 14.217576 L 80.629219 13.780381 L 80.336336 13.342201 L 80.039697 12.903038 L 79.739253 12.462896 L 79.434952 12.021778 L 79.126742 11.579686 L 78.814573 11.136627 L 78.498390 10.692603 L 78.178139 10.247621 L 77.853766 9.801686 L 77.525214 9.354805 L 77.192428 8.906984 L 77.165246 8.870797" fill="none" id="tattoo-path-245a48ca9e1d7cad" stroke="#000000" stroke-linecap="round" stroke-linejoin="round" stroke-width="1.900000"/>
  <path clip-path="url(#tattoo-band-layer-clip)" d="M 9.020311 66.114932 L 9.322197 65.832237 L 9.730492 65.454394 L 10.138910 65.080864 L 10.547427 64.711601 L 10.956022 64.346560 L 11.364674 63.985695 L 11.773361 63.628962 L 12.182063 63.276318 L 12.590762 62.927718 L 12.999438 62.583121 L 13.408073 62.242484 L 13.816651 61.905764 L 14.225154 61.572921 L 14.633567 61.243915 L 15.041873 60.918703 L 15.450059 60.597248 L 15.858109 60.279509 L 16.266010 59.965447 L 16.673748 59.655025 L 17.081311 59.348204 L 17.488687 59.044947 L 17.895863 58.745218 L 18.302829 58.448979 L 18.709573 58.156194 L 19.116085 57.866830 L 19.522356 57.580849 L 19.928376 57.298218 L 20.334136 57.018902 L 20.739626 56.742868 L 21.144840 56.470083 L 21.549768 56.200514 L 21.954404 55.934128 L 22.358741 55.670893 L 22.762771 55.410778 L 23.166488 55.153753 L 23.569887 54.899786 L 23.972961 54.648846 L 24.375705 54.400905 L 24.778113 54.155933 L 25.180182 53.913901 L 25.581907 53.674779 L 25.983283 53.438541 L 26.384306 53.205158 L 26.784973 52.974602 L 27.185281 52.746847 L 27.585226 52.521866 L 27.984805 52.299633 L 28.384016 52.080121 L 28.782856 51.863306 L 29.181323 51.649162 L 29.579416 51.437663 L 29.977132 51.228787 L 30.374470 51.022508 L 30.771428 50.818803 L 31.168007 50.617648 L 31.564204 50.419020 L 31.960019 50.222897 L 32.355451 50.029256 L 32.750500 49.838074 L 33.145167 49.649331 L 33.539450 49.463005 L 33.933350 49.279075 L 34.326868 49.097519 L 34.720004 48.918318 L 35.112759 48.741450 L 35.505132 48.566898 L 35.897127 48.394639 L 36.288742 48.224657 L 36.679980 48.056930 L 37.070842 47.891442 L 37.461330 47.728173 L 37.851445 47.567105 L 38.241188 47.408221 L 38.630562 47.251503 L 39.019569 47.096933 L 39.408211 46.944495 L 39.796489 46.794172 L 40.184407 46.645947 L 40.571966 46.499805 L 40.959169 46.355729 L 41.346019 46.213704 L 41.732518 46.073714 L 42.118670 45.935745 L 42.504477 45.799780 L 42.889941 45.665807 L 43.275067 45.533809 L 43.659857 45.403774 L 44.044315 45.275687 L 44.428443 45.149534 L 44.812245 45.025302 L 45.195725 44.902979 L 45.578886 44.782550 L 45.961731 44.664003 L 46.344265 44.547326 L 46.726490 44.432507 L 47.108412 44.319533 L 47.490033 44.208392 L 47.871358 44.099073 L 48.252390 43.991565 L 48.633133 43.885856 L 49.013592 43.781935 L 49.393771 43.679792 L 49.773674 43.579416 L 50.153305 43.480796 L 50.532668 43.383923 L 50.911768 43.288787 L 51.290609 43.195378 L 51.669195 43.103686 L 52.047532 43.013702 L 52.425623 42.925417 L 52.803472 42.838822 L 53.181086 42.753908 L 53.558467 42.670667 L 53.935622 42.589090 L 54.312554 42.509170 L 54.689268 42.430897 L 55.065770 42.354265 L 55.442063 42.279266 L 55.818152 42.205892 L 56.194044 42.134137 L 56.569741 42.063992 L 56.945251 41.995452 L 57.320576 41.928509 L 57.695722 41.863157 L 58.070695 41.799390 L 58.445499 41.737201 L 58.820140 41.676585 L 59.194621 41.617535 L 59.568950 41.560047 L 59.943130 41.504114 L 60.317166 41.449731 L 60.691065 41.396893 L 61.064831 41.345595 L 61.438469 41.295833 L 61.811984 41.247601 L 62.185382 41.200896 L 62.558669 41.155713 L 62.931848 41.112047 L 63.304926 41.069895 L 63.677908 41.029253 L 64.050799 40.990117 L 64.423605 40.952485 L 64.796331 40.916352 L 65.168982 40.881715 L 65.541563 40.848571 L 65.914081 40.816918 L 66.286539 40.786753 L 66.658945 40.758073 L 67.031303 40.730876 L 67.403619 40.705160 L 67.775897 40.680923 L 68.148144 40.658162 L 68.520365 40.636876 L 68.892566 40.617064 L 69.264751 40.598723 L 69.636927 40.581854 L 70.009099 40.566454 L 70.381272 40.552522 L 70.753452 40.540059 L 71.125644 40.529062 L 71.497855 40.519533 L 71.870088 40.511469 L 72.242350 40.504872 L 72.614647 40.499741 L 72.986984 40.496076 L 73.359366 40.493878 L 73.731799 40.493147 L 74.104289 40.493883 L 74.476840 40.496088 L 74.849459 40.499762 L 75.222151 40.504906 L 75.594922 40.511521 L 75.967776 40.519610 L 76.340720 40.529172 L 76.713760 40.540211 L 77.086900 40.552728 L 77.460146 40.566725 L 77.833503 40.582203 L 78.206978 40.599166 L 78.580576 40.617616 L 78.954301 40.637556 L 79.328160 40.658987 L 79.702159 40.681914 L 80.076301 40.706339 L 80.450594 40.732266 L 80.825043 40.759698 L 81.199652 40.788638 L 81.574428 40.819091 L 81.949375 40.851060 L 82.324500 40.884549 L 82.699807 40.919564 L 83.075303 40.956107 L 83.450991 40.994184 L 83.826879 41.033800 L 84.202971 41.074958 L 84.579272 41.117666 L 84.955788 41.161927 L 85.332525 41.207747 L 85.709487 41.255132 L 86.086679 41.304088 L 86.464108 41.354620 L 86.841777 41.406735 L 87.219694 41.460439 L 87.597862 41.515739 L 87.976286 41.572641 L 88.354973 41.631152 L 88.733927 41.691279 L 89.113154 41.753029 L 89.492657 41.816410 L 89.872443 41.881429 L 90.252517 41.948095 L 90.632883 42.016415 L 91.013547 42.086397 L 91.394513 42.158049 L 91.775786 42.231381 L 92.157372 42.306401 L 92.539274 42.383117 L 92.921499 42.461540 L 93.304050 42.541678 L 93.686933 42.623541 L 94.070152 42.707138 L 94.453712 42.792480 L 94.837617 42.879577 L 95.221873 42.968439 L 95.606483 43.059077 L 95.991452 43.151502 L 96.376785 43.245723 L 96.762485 43.341754 L 97.148558 43.439605 L 97.535008 43.539288 L 97.921839 43.640815 L 98.309054 43.744198 L 98.696659 43.849449 L 99.084657 43.956581 L 99.473053 44.065606 L 99.861849 44.176539 L 100.251051 44.289391 L 100.640662 44.404177 L 101.030686 44.520910 L 101.421126 44.639605 L 101.811987 44.760275 L 102.203270 44.882936 L 102.594981 45.007601 L 102.987123 45.134287 L 103.379698 45.263007 L 103.772710 45.393779 L 104.166162 45.526617 L 104.560058 45.661537 L 104.954399 45.798557 L 105.349189 45.937692 L 105.744431 46.078960 L 106.140128 46.222378 L 106.536281 46.367963 L 106.932894 46.515732 L 107.329968 46.665705 L 107.727506 46.817898 L 108.125510 46.972332 L 108.523981 47.129025 L 108.922923 47.287995 L 109.322336 47.449263 L 109.722222 47.612848 L 110.122582 47.778771 L 110.523418 47.947052 L 110.924731 48.117711 L 111.326522 48.290771 L 111.728792 48.466251 L 112.131541 48.644175 L 112.534770 48.824563 L 112.938479 49.007439 L 113.342669 49.192826 L 113.747340 49.380746 L 114.152491 49.571222 L 114.558121 49.764279 L 114.964232 49.959941 L 115.370821 50.158233 L 115.777887 50.359178 L 116.185430 50.562804 L 116.593449 50.769134 L 117.001941 50.978195 L 117.410904 51.190014 L 117.820337 51.404617 L 118.230238 51.622032 L 118.640603 51.842286 L 119.051430 52.065406 L 119.462715 52.291422 L 119.874456 52.520362 L 120.286649 52.752256 L 120.699290 52.987132 L 121.112374 53.225022 L 121.525897 53.465954 L 121.939854 53.709961 L 122.354240 53.957074 L 122.769050 54.207323 L 123.184277 54.460742 L 123.599915 54.717363 L 124.015959 54.977220 L 124.432400 55.240345 L 124.849231 55.506772 L 125.266446 55.776537 L 125.684035 56.049674 L 126.101990 56.326219 L 126.520303 56.606206 L 126.938963 56.889674 L 127.357962 57.176658 L 127.777288 57.467196 L 128.196931 57.761325 L 128.616880 58.059085 L 129.037122 58.360513 L 129.457647 58.665650 L 129.878440 58.974535 L 130.299488 59.287208 L 130.720778 59.603711 L 131.142295 59.924084 L 131.564025 60.248370 L 131.985950 60.576612 L 132.408055 60.908851 L 132.830324 61.245132 L 133.252738 61.585499 L 133.675279 61.929996 L 134.097929 62.278669 L 134.520667 62.631563 L 134.943473 62.988724 L 135.366326 63.350200 L 135.679108 63.620791" fill="none" id="tattoo-path-daf156f6cbef6a57" stroke="#000000" stroke-linecap="round" stroke-linejoin="round" stroke-width="1.600000"/>
  <path clip-path="url(#tattoo-band-layer-clip)" d="M 55.238786 133.920603 L 55.226510 133.894916 L 54.988497 133.390184 L 54.754455 132.887201 L 54.524329 132.385962 L 54.298062 131.886462 L 54.075599 131.388696 L 53.856886 130.892660 L 53.641870 130.398347 L 53.430500 129.905751 L 53.222723 129.414866 L 53.018490 128.925686 L 52.817752 128.438203 L 52.620459 127.952411 L 52.426565 127.468301 L 52.236021 126.985867 L 52.048783 126.505100 L 51.864806 126.025993 L 51.684044 125.548536 L 51.506454 125.072721 L 51.331994 124.598541 L 51.160621 124.125985 L 50.992294 123.655044 L 50.826973 123.185710 L 50.664617 122.717973 L 50.505188 122.251823 L 50.348647 121.787251 L 50.194957 121.324247 L 50.044080 120.862801 L 49.895979 120.402903 L 49.750620 119.944543 L 49.607966 119.487710 L 49.467984 119.032394 L 49.330640 118.578586 L 49.195899 118.126273 L 49.063730 117.675446 L 48.934101 117.226094 L 48.806980 116.778206 L 48.682335 116.331772 L 48.560137 115.886780 L 48.440355 115.443220 L 48.322961 115.001080 L 48.207926 114.560351 L 48.095220 114.121020 L 47.984817 113.683077 L 47.876689 113.246510 L 47.770809 112.811308 L 47.667152 112.377461 L 47.565691 111.944958 L 47.466400 111.513786 L 47.369255 111.083934 L 47.274232 110.655393 L 47.181307 110.228149 L 47.090455 109.802193 L 47.001654 109.377513 L 46.914882 108.954097 L 46.830115 108.531935 L 46.747331 108.111015 L 46.666511 107.691326 L 46.587631 107.272856 L 46.510672 106.855596 L 46.435614 106.439533 L 46.362435 106.024656 L 46.291118 105.610954 L 46.221642 105.198416 L 46.153989 104.787031 L 46.088139 104.376788 L 46.024076 103.967676 L 45.961781 103.559683 L 45.901237 103.152799 L 45.842426 102.747012 L 45.785332 102.342313 L 45.729939 101.938688 L 45.676229 101.536129 L 45.624188 101.134624 L 45.573800 100.734162 L 45.525048 100.334732 L 45.477919 99.936323 L 45.432398 99.538925 L 45.388471 99.142527 L 45.346122 98.747119 L 45.305339 98.352689 L 45.266108 97.959227 L 45.228416 97.566722 L 45.192249 97.175164 L 45.157595 96.784543 L 45.124442 96.394847 L 45.092776 96.006067 L 45.062587 95.618192 L 45.033862 95.231211 L 45.006591 94.845115 L 44.980761 94.459893 L 44.956362 94.075535 L 44.933382 93.692030 L 44.911813 93.309369 L 44.891642 92.927541 L 44.872860 92.546536 L 44.855458 92.166344 L 44.839425 91.786956 L 44.824753 91.408360 L 44.811431 91.030548 L 44.799452 90.653509 L 44.788805 90.277234 L 44.779484 89.901713 L 44.771478 89.526935 L 44.764781 89.152891 L 44.759384 88.779572 L 44.755279 88.406968 L 44.752459 88.035069 L 44.750917 87.663865 L 44.750644 87.293348 L 44.751635 86.923507 L 44.753883 86.554334 L 44.757380 86.185818 L 44.762121 85.817950 L 44.768098 85.450722 L 44.775307 85.084123 L 44.783740 84.718144 L 44.793393 84.352777 L 44.804260 83.988012 L 44.816335 83.623840 L 44.829613 83.260251 L 44.844090 82.897237 L 44.859759 82.534789 L 44.876617 82.172897 L 44.894659 81.811553 L 44.913880 81.450748 L 44.934277 81.090472 L 44.955845 80.730718 L 44.978580 80.371475 L 45.002478 80.012736 L 45.027537 79.654491 L 45.053752 79.296733 L 45.081120 78.939451 L 45.109638 78.582638 L 45.139303 78.226285 L 45.170112 77.870383 L 45.202062 77.514924 L 45.235151 77.159899 L 45.269377 76.805300 L 45.304737 76.451118 L 45.341229 76.097345 L 45.378851 75.743973 L 45.417602 75.390992 L 45.457479 75.038396 L 45.498481 74.686175 L 45.540607 74.334321 L 45.583855 73.982825 L 45.628225 73.631681 L 45.673714 73.280879 L 45.720324 72.930412 L 45.768052 72.580271 L 45.816899 72.230448 L 45.866863 71.880935 L 45.917945 71.531724 L 45.970144 71.182808 L 46.023461 70.834177 L 46.077895 70.485825 L 46.133447 70.137743 L 46.190117 69.789923 L 46.247906 69.442357 L 46.306815 69.095039 L 46.366843 68.747959 L 46.427993 68.401109 L 46.490265 68.054484 L 46.553661 67.708073 L 46.618181 67.361870 L 46.683828 67.015868 L 46.750602 66.670058 L 46.818507 66.324432 L 46.887543 65.978984 L 46.957713 65.633705 L 47.029018 65.288588 L 47.101462 64.943625 L 47.175046 64.598810 L 47.249774 64.254133 L 47.325647 63.909589 L 47.402669 63.565169 L 47.480843 63.220866 L 47.560171 62.876673 L 47.640658 62.532582 L 47.722306 62.188586 L 47.805120 61.844677 L 47.889102 61.500849 L 47.974257 61.157093 L 48.060588 60.813403 L 48.148100 60.469772 L 48.236797 60.126191 L 48.326684 59.782655 L 48.417764 59.439155 L 48.510043 59.095686 L 48.603526 58.752238 L 48.698217 58.408806 L 48.794121 58.065382 L 48.891244 57.721960 L 48.989592 57.378531 L 49.089169 57.035090 L 49.189982 56.691629 L 49.292037 56.348141 L 49.395338 56.004619 L 49.499894 55.661057 L 49.605710 55.317446 L 49.712792 54.973782 L 49.821147 54.630056 L 49.930782 54.286261 L 50.041704 53.942392 L 50.153921 53.598440 L 50.267439 53.254400 L 50.382265 52.910265 L 50.498408 52.566027 L 50.615876 52.221681 L 50.734676 51.877219 L 50.854816 51.532635 L 50.976305 51.187923 L 51.099151 50.843075 L 51.223363 50.498085 L 51.348949 50.152946 L 51.475920 49.807653 L 51.604283 49.462198 L 51.734048 49.116575 L 51.865226 48.770778 L 51.997825 48.424800 L 52.131855 48.078635 L 52.267327 47.732277 L 52.404251 47.385719 L 52.542638 47.038954 L 52.682497 46.691978 L 52.823841 46.344783 L 52.966680 45.997363 L 53.111025 45.649713 L 53.256889 45.301825 L 53.404282 44.953695 L 53.553216 44.605315 L 53.703705 44.256681 L 53.855759 43.907786 L 54.009392 43.558623 L 54.164617 43.209188 L 54.321446 42.859475 L 54.479893 42.509477 L 54.639971 42.159189 L 54.801694 41.808605 L 54.965076 41.457720 L 55.130131 41.106528 L 55.296873 40.755024 L 55.465318 40.403201 L 55.635479 40.051055 L 55.807372 39.698580 L 55.981013 39.345771 L 56.156418 38.992622 L 56.333601 38.639129 L 56.512579 38.285285 L 56.693370 37.931087 L 56.875989 37.576529 L 57.060453 37.221607 L 57.246780 36.866314 L 57.434987 36.510647 L 57.625092 36.154601 L 57.817113 35.798170 L 58.011069 35.441351 L 58.206979 35.084139 L 58.404860 34.726530 L 58.604734 34.368519 L 58.806619 34.010102 L 59.010534 33.651275 L 59.216502 33.292033 L 59.424541 32.932373 L 59.634674 32.572292 L 59.846921 32.211784 L 60.061303 31.850847 L 60.277843 31.489477 L 60.496564 31.127671 L 60.717487 30.765425 L 60.940635 30.402736 L 61.166032 30.039601 L 61.393702 29.676017 L 61.623669 29.311982 L 61.855957 28.947492 L 62.090591 28.582546 L 62.327596 28.217140 L 62.566998 27.851273 L 62.808823 27.484943 L 63.053097 27.118147 L 63.299847 26.750884 L 63.549101 26.383152 L 63.800886 26.014950 L 64.055230 25.646277 L 64.312162 25.277132 L 64.571710 24.907513 L 64.833905 24.537421 L 65.098775 24.166855 L 65.366353 23.795814 L 65.636667 23.424299 L 65.909750 23.052311 L 66.185633 22.679848 L 66.464350 22.306913 L 66.745931 21.933506 L 67.030411 21.559628 L 67.317824 21.185281 L 67.608204 20.810467 L 67.901585 20.435188 L 68.198004 20.059445 L 68.497495 19.683243 L 68.800096 19.306583 L 69.105844 18.929469 L 69.414776 18.551905 L 69.726930 18.173894 L 70.042345 17.795442 L 70.361061 17.416552 L 70.683117 17.037230 L 71.008554 16.657481 L 71.337414 16.277310 L 71.669737 15.896726 L 72.005567 15.515733 L 72.344947 15.134339 L 72.687920 14.752552 L 73.034531 14.370379 L 73.384824 13.987830 L 73.738847 13.604913 L 74.096644 13.221638 L 74.458264 12.838015 L 74.823753 12.454055 L 75.193162 12.069768 L 75.566538 11.685167 L 75.943933 11.300264 L 76.325396 10.915071 L 76.710980 10.529603 L 77.100737 10.143874 L 77.494720 9.757899 L 77.892982 9.371694 L 78.295579 8.985274 L 78.316220 8.965666" fill="none" id="tattoo-path-83f85641a2507f01" stroke="#000000" stroke-linecap="round" stroke-linejoin="round" stroke-width="1.200000"/>
  <path clip-path="url(#tattoo-band-layer-clip)" d="M 35.072688 124.168523 L 35.385163 123.741462 L 35.712024 123.294704 L 36.036355 122.851370 L 36.358197 122.411404 L 36.677591 121.974751 L 36.994577 121.541358 L 37.309193 121.111172 L 37.621478 120.684141 L 37.931470 120.260214 L 38.239205 119.839343 L 38.544720 119.421477 L 38.848050 119.006570 L 39.149229 118.594573 L 39.448293 118.185443 L 39.745274 117.779132 L 40.040205 117.375597 L 40.333119 116.974794 L 40.624048 116.576680 L 40.913021 116.181214 L 41.200070 115.788354 L 41.485226 115.398060 L 41.768516 115.010291 L 42.049970 114.625010 L 42.329618 114.242176 L 42.607485 113.861754 L 42.883601 113.483705 L 43.157991 113.107994 L 43.430683 112.734584 L 43.701701 112.363440 L 43.971073 111.994529 L 44.238823 111.627815 L 44.504975 111.263265 L 44.769555 110.900847 L 45.032585 110.540528 L 45.294090 110.182276 L 45.554092 109.826061 L 45.812614 109.471851 L 46.069679 109.119616 L 46.325309 108.769326 L 46.579525 108.420953 L 46.832348 108.074466 L 47.083800 107.729839 L 47.333900 107.387042 L 47.582670 107.046049 L 47.830130 106.706832 L 48.076299 106.369365 L 48.321196 106.033621 L 48.564840 105.699574 L 48.807251 105.367200 L 49.048447 105.036473 L 49.288445 104.707368 L 49.527265 104.379860 L 49.764924 104.053927 L 50.001438 103.729544 L 50.236826 103.406689 L 50.471104 103.085337 L 50.704289 102.765466 L 50.936397 102.447055 L 51.167445 102.130081 L 51.397449 101.814522 L 51.626423 101.500357 L 51.854385 101.187565 L 52.081349 100.876125 L 52.307330 100.566017 L 52.532344 100.257220 L 52.756404 99.949715 L 52.979526 99.643480 L 53.201724 99.338499 L 53.423011 99.034750 L 53.643403 98.732215 L 53.862912 98.430875 L 54.081553 98.130712 L 54.299338 97.831707 L 54.516281 97.533844 L 54.732396 97.237102 L 54.947694 96.941467 L 55.162189 96.646918 L 55.375893 96.353441 L 55.588819 96.061017 L 55.800979 95.769630 L 56.012385 95.479264 L 56.223050 95.189902 L 56.432985 94.901527 L 56.642201 94.614125 L 56.850712 94.327679 L 57.058527 94.042173 L 57.265658 93.757593 L 57.472117 93.473922 L 57.677915 93.191146 L 57.883062 92.909250 L 58.087569 92.628219 L 58.291448 92.348038 L 58.494709 92.068693 L 58.697361 91.790170 L 58.899417 91.512454 L 59.100886 91.235531 L 59.301777 90.959388 L 59.502102 90.684011 L 59.701871 90.409385 L 59.901092 90.135499 L 60.099777 89.862337 L 60.297934 89.589888 L 60.495573 89.318137 L 60.692705 89.047072 L 60.889337 88.776681 L 61.085480 88.506949 L 61.281143 88.237866 L 61.476335 87.969417 L 61.671065 87.701591 L 61.865342 87.434375 L 62.059176 87.167757 L 62.252574 86.901725 L 62.445546 86.636268 L 62.638101 86.371372 L 62.830247 86.107026 L 63.021992 85.843219 L 63.213346 85.579938 L 63.404317 85.317173 L 63.594913 85.054912 L 63.785142 84.793142 L 63.975013 84.531854 L 64.164535 84.271035 L 64.353714 84.010675 L 64.542560 83.750763 L 64.731080 83.491287 L 64.919282 83.232236 L 65.107174 82.973600 L 65.294765 82.715368 L 65.482062 82.457529 L 65.669073 82.200072 L 65.855805 81.942987 L 66.042266 81.686263 L 66.228465 81.429889 L 66.414408 81.173856 L 66.600103 80.918153 L 66.785558 80.662769 L 66.970781 80.407694 L 67.155778 80.152917 L 67.340557 79.898430 L 67.525126 79.644221 L 67.709492 79.390280 L 67.893662 79.136598 L 68.077644 78.883163 L 68.261445 78.629967 L 68.445072 78.377000 L 68.628532 78.124250 L 68.811833 77.871709 L 68.994982 77.619367 L 69.177986 77.367213 L 69.360851 77.115238 L 69.543586 76.863433 L 69.726197 76.611787 L 69.908692 76.360290 L 70.091077 76.108934 L 70.273359 75.857708 L 70.455546 75.606602 L 70.637644 75.355608 L 70.819661 75.104715 L 71.001603 74.853914 L 71.183478 74.603195 L 71.365291 74.352548 L 71.547052 74.101965 L 71.728765 73.851435 L 71.910439 73.600949 L 72.092080 73.350497 L 72.273694 73.100070 L 72.455290 72.849659 L 72.636874 72.599253 L 72.818452 72.348843 L 73.000032 72.098420 L 73.181621 71.847975 L 73.363225 71.597496 L 73.544852 71.346976 L 73.726508 71.096405 L 73.908200 70.845772 L 74.089936 70.595069 L 74.271722 70.344286 L 74.453565 70.093412 L 74.635472 69.842440 L 74.817450 69.591358 L 74.999506 69.340158 L 75.181646 69.088829 L 75.363879 68.837362 L 75.546211 68.585748 L 75.728649 68.333977 L 75.911200 68.082038 L 76.093872 67.829922 L 76.276670 67.577619 L 76.459603 67.325120 L 76.642677 67.072415 L 76.825900 66.819493 L 77.009278 66.566345 L 77.192820 66.312961 L 77.376531 66.059331 L 77.560420 65.805445 L 77.744494 65.551292 L 77.928760 65.296863 L 78.113225 65.042148 L 78.297896 64.787135 L 78.482782 64.531816 L 78.667889 64.276180 L 78.853225 64.020216 L 79.038798 63.763914 L 79.224614 63.507263 L 79.410682 63.250254 L 79.597009 62.992875 L 79.783603 62.735116 L 79.970471 62.476966 L 80.157622 62.218414 L 80.345062 61.959451 L 80.532801 61.700064 L 80.720845 61.440242 L 80.909202 61.179976 L 81.097882 60.919253 L 81.286890 60.658063 L 81.476237 60.396395 L 81.665930 60.134236 L 81.855976 59.871576 L 82.046385 59.608403 L 82.237164 59.344706 L 82.428323 59.080473 L 82.619868 58.815692 L 82.811810 58.550352 L 83.004156 58.284440 L 83.196915 58.017945 L 83.390096 57.750854 L 83.583707 57.483155 L 83.777758 57.214837 L 83.972257 56.945886 L 84.167214 56.676289 L 84.362636 56.406036 L 84.558534 56.135111 L 84.754917 55.863504 L 84.951794 55.591200 L 85.149174 55.318188 L 85.347068 55.044452 L 85.545483 54.769981 L 85.744431 54.494761 L 85.943920 54.218777 L 86.143961 53.942018 L 86.344564 53.664467 L 86.545739 53.386112 L 86.747495 53.106939 L 86.949843 52.826932 L 87.152794 52.546079 L 87.356358 52.264363 L 87.560545 51.981771 L 87.765366 51.698286 L 87.970832 51.413896 L 88.176953 51.128583 L 88.383742 50.842333 L 88.591209 50.555130 L 88.799365 50.266959 L 89.008221 49.977802 L 89.217790 49.687646 L 89.428082 49.396472 L 89.639111 49.104264 L 89.850887 48.811006 L 90.063422 48.516682 L 90.276730 48.221272 L 90.490822 47.924762 L 90.705711 47.627132 L 90.921409 47.328365 L 91.137930 47.028444 L 91.355286 46.727350 L 91.573491 46.425064 L 91.792557 46.121568 L 92.012499 45.816843 L 92.233330 45.510870 L 92.455064 45.203630 L 92.677715 44.895102 L 92.901297 44.585267 L 93.125825 44.274105 L 93.351313 43.961595 L 93.577776 43.647716 L 93.805229 43.332448 L 94.033688 43.015769 L 94.263167 42.697657 L 94.493683 42.378091 L 94.725251 42.057048 L 94.957887 41.734506 L 95.191608 41.410441 L 95.426430 41.084831 L 95.662371 40.757652 L 95.899446 40.428881 L 96.137674 40.098491 L 96.377072 39.766460 L 96.617658 39.432763 L 96.859449 39.097373 L 97.102465 38.760265 L 97.346724 38.421412 L 97.592245 38.080789 L 97.839046 37.738369 L 98.087149 37.394123 L 98.336571 37.048024 L 98.587335 36.700044 L 98.839459 36.350154 L 99.092965 35.998324 L 99.347874 35.644526 L 99.604208 35.288729 L 99.861987 34.930901 L 100.121235 34.571014 L 100.381974 34.209033 L 100.644227 33.844928 L 100.908017 33.478665 L 101.173368 33.110212 L 101.440304 32.739533 L 101.708849 32.366596 L 101.979028 31.991364 L 102.250867 31.613803 L 102.524392 31.233875 L 102.799628 30.851545 L 103.076603 30.466774 L 103.355343 30.079524 L 103.635876 29.689756 L 103.918231 29.297431 L 104.202436 28.902508 L 104.488520 28.504947 L 104.776512 28.104705 L 105.066444 27.701739 L 105.358346 27.296007 L 105.652249 26.887465 L 105.948185 26.476066 L 106.246187 26.061766 L 106.546288 25.644517 L 106.848522 25.224272 L 107.152923 24.800983 L 107.459527 24.374599 L 107.768368 23.945071 L 108.079485 23.512346 L 108.392912 23.076374 L 108.708690 22.637099 L 109.026856 22.194467 L 109.347450 21.748423 L 109.670512 21.298910 L 109.979324 20.869192" fill="none" id="tattoo-path-ab51d46c91c94fa8" stroke="#000000" stroke-linecap="round" stroke-linejoin="round" stroke-width="1.000000"/>
  <path clip-path="url(#tattoo-band-layer-clip)" d="M 99.670886 130.225063 L 99.415458 129.812677 L 99.124194 129.341490 L 98.835572 128.873651 L 98.549547 128.409105 L 98.266075 127.947802 L 97.985112 127.489691 L 97.706615 127.034722 L 97.430543 126.582847 L 97.156855 126.134019 L 96.885511 125.688189 L 96.616472 125.245312 L 96.349699 124.805343 L 96.085156 124.368237 L 95.822804 123.933950 L 95.562609 123.502440 L 95.304535 123.073664 L 95.048547 122.647580 L 94.794611 122.224148 L 94.542694 121.803328 L 94.292764 121.385080 L 94.044788 120.969366 L 93.798736 120.556147 L 93.554577 120.145386 L 93.312279 119.737046 L 93.071815 119.331090 L 92.833154 118.927484 L 92.596269 118.526192 L 92.361132 118.127178 L 92.127715 117.730411 L 91.895991 117.335855 L 91.665934 116.943478 L 91.437518 116.553248 L 91.210718 116.165133 L 90.985509 115.779101 L 90.761866 115.395122 L 90.539765 115.013164 L 90.319183 114.633199 L 90.100096 114.255196 L 89.882482 113.879126 L 89.666319 113.504961 L 89.451583 113.132673 L 89.238255 112.762233 L 89.026311 112.393615 L 88.815733 112.026792 L 88.606499 111.661736 L 88.398588 111.298421 L 88.191982 110.936823 L 87.986661 110.576914 L 87.782605 110.218671 L 87.579796 109.862068 L 87.378216 109.507081 L 87.177845 109.153686 L 86.978667 108.801859 L 86.780663 108.451577 L 86.583817 108.102816 L 86.388110 107.755554 L 86.193528 107.409769 L 86.000052 107.065437 L 85.807666 106.722537 L 85.616356 106.381049 L 85.426104 106.040949 L 85.236896 105.702217 L 85.048716 105.364833 L 84.861550 105.028775 L 84.675382 104.694024 L 84.490198 104.360560 L 84.305983 104.028362 L 84.122724 103.697411 L 83.940406 103.367688 L 83.759016 103.039174 L 83.578541 102.711850 L 83.398967 102.385697 L 83.220280 102.060697 L 83.042469 101.736832 L 82.865520 101.414084 L 82.689420 101.092434 L 82.514158 100.771866 L 82.339721 100.452362 L 82.166098 100.133905 L 81.993275 99.816478 L 81.821243 99.500064 L 81.649988 99.184646 L 81.479500 98.870208 L 81.309768 98.556734 L 81.140780 98.244207 L 80.972525 97.932612 L 80.804994 97.621933 L 80.638174 97.312154 L 80.472056 97.003260 L 80.306630 96.695236 L 80.141884 96.388066 L 79.977810 96.081735 L 79.814396 95.776228 L 79.651634 95.471532 L 79.489513 95.167630 L 79.328024 94.864509 L 79.167158 94.562154 L 79.006905 94.260552 L 78.847255 93.959688 L 78.688200 93.659548 L 78.529731 93.360118 L 78.371839 93.061384 L 78.214515 92.763334 L 78.057750 92.465953 L 77.901535 92.169229 L 77.745863 91.873147 L 77.590725 91.577695 L 77.436112 91.282859 L 77.282016 90.988628 L 77.128430 90.694987 L 76.975345 90.401924 L 76.822752 90.109427 L 76.670645 89.817482 L 76.519016 89.526078 L 76.367856 89.235202 L 76.217159 88.944841 L 76.066916 88.654984 L 75.917121 88.365618 L 75.767765 88.076731 L 75.618842 87.788311 L 75.470344 87.500346 L 75.322265 87.212824 L 75.174596 86.925734 L 75.027331 86.639064 L 74.880464 86.352801 L 74.733986 86.066935 L 74.587892 85.781455 L 74.442175 85.496347 L 74.296827 85.211602 L 74.151842 84.927207 L 74.007215 84.643152 L 73.862937 84.359424 L 73.719003 84.076014 L 73.575406 83.792909 L 73.432140 83.510099 L 73.289199 83.227572 L 73.146576 82.945318 L 73.004265 82.663325 L 72.862260 82.381583 L 72.720555 82.100081 L 72.579144 81.818807 L 72.438020 81.537751 L 72.297179 81.256902 L 72.156613 80.976250 L 72.016317 80.695783 L 71.876286 80.415491 L 71.736512 80.135363 L 71.596992 79.855389 L 71.457718 79.575558 L 71.318686 79.295859 L 71.179889 79.016281 L 71.041322 78.736815 L 70.902980 78.457448 L 70.764856 78.178172 L 70.626946 77.898976 L 70.489244 77.619848 L 70.351744 77.340778 L 70.214442 77.061756 L 70.077331 76.782772 L 69.940406 76.503814 L 69.803663 76.224873 L 69.667095 75.945937 L 69.530697 75.666997 L 69.394465 75.388042 L 69.258393 75.109061 L 69.122476 74.830044 L 68.986708 74.550980 L 68.851085 74.271859 L 68.715601 73.992671 L 68.580252 73.713404 L 68.445031 73.434048 L 68.309935 73.154593 L 68.174958 72.875028 L 68.040096 72.595343 L 67.905342 72.315527 L 67.770692 72.035569 L 67.636142 71.755458 L 67.501685 71.475185 L 67.367318 71.194737 L 67.233035 70.914106 L 67.098832 70.633279 L 66.964703 70.352246 L 66.830643 70.070997 L 66.696648 69.789519 L 66.562713 69.507804 L 66.428833 69.225839 L 66.295003 68.943613 L 66.161219 68.661116 L 66.027475 68.378337 L 65.893766 68.095265 L 65.760088 67.811887 L 65.626436 67.528195 L 65.492805 67.244175 L 65.359191 66.959816 L 65.225588 66.675109 L 65.091992 66.390040 L 64.958398 66.104599 L 64.824800 65.818774 L 64.691196 65.532554 L 64.557578 65.245927 L 64.423943 64.958881 L 64.290287 64.671405 L 64.156603 64.383486 L 64.022888 64.095114 L 63.889136 63.806275 L 63.755343 63.516959 L 63.621504 63.227152 L 63.487613 62.936843 L 63.353667 62.646020 L 63.219661 62.354669 L 63.085589 62.062780 L 62.951446 61.770338 L 62.817229 61.477332 L 62.682931 61.183749 L 62.548549 60.889577 L 62.414076 60.594801 L 62.279509 60.299410 L 62.144843 60.003390 L 62.010072 59.706728 L 61.875191 59.409411 L 61.740197 59.111426 L 61.605082 58.812758 L 61.469844 58.513395 L 61.334476 58.213322 L 61.198974 57.912526 L 61.063332 57.610993 L 60.927546 57.308708 L 60.791610 57.005658 L 60.655520 56.701829 L 60.519271 56.397204 L 60.382856 56.091772 L 60.246272 55.785515 L 60.109512 55.478420 L 59.972572 55.170471 L 59.835447 54.861654 L 59.698131 54.551952 L 59.560619 54.241351 L 59.422905 53.929835 L 59.284985 53.617388 L 59.146853 53.303994 L 59.008504 52.989637 L 58.869932 52.674300 L 58.731132 52.357968 L 58.592098 52.040623 L 58.452825 51.722249 L 58.313307 51.402828 L 58.173539 51.082344 L 58.033516 50.760779 L 57.893230 50.438116 L 57.752678 50.114336 L 57.611853 49.789422 L 57.470750 49.463355 L 57.329362 49.136117 L 57.187684 48.807690 L 57.045710 48.478053 L 56.903434 48.147190 L 56.760850 47.815079 L 56.617953 47.481702 L 56.474735 47.147038 L 56.331192 46.811068 L 56.187317 46.473771 L 56.043103 46.135126 L 55.898545 45.795114 L 55.753637 45.453712 L 55.608372 45.110899 L 55.462743 44.766654 L 55.316745 44.420954 L 55.170370 44.073778 L 55.023613 43.725102 L 54.876466 43.374905 L 54.728924 43.023162 L 54.580979 42.669850 L 54.432625 42.314946 L 54.283854 41.958425 L 54.134661 41.600263 L 53.985038 41.240435 L 53.834978 40.878915 L 53.684474 40.515679 L 53.533519 40.150700 L 53.382106 39.783951 L 53.230227 39.415407 L 53.077876 39.045040 L 52.925045 38.672823 L 52.771726 38.298727 L 52.617912 37.922725 L 52.463595 37.544787 L 52.308768 37.164885 L 52.153423 36.782989 L 51.997552 36.399068 L 51.841147 36.013093 L 51.684200 35.625031 L 51.526704 35.234852 L 51.368649 34.842524 L 51.210028 34.448013 L 51.050833 34.051287 L 50.891054 33.652313 L 50.730684 33.251055 L 50.569714 32.847480 L 50.408136 32.441552 L 50.245940 32.033235 L 50.083117 31.622493 L 49.919659 31.209289 L 49.755557 30.793584 L 49.590802 30.375341 L 49.425383 29.954520 L 49.259293 29.531082 L 49.092521 29.104987 L 48.925057 28.676193 L 48.756893 28.244659 L 48.588019 27.810341 L 48.418423 27.373198 L 48.248098 26.933184 L 48.077031 26.490255 L 47.905214 26.044366 L 47.732636 25.595469 L 47.559286 25.143518 L 47.385153 24.688464 L 47.210228 24.230258 L 47.034499 23.768850 L 46.857955 23.304190 L 46.680585 22.836224 L 46.502378 22.364902 L 46.323322 21.890168 L 46.143407 21.411968 L 45.962619 20.930245 L 45.780949 20.444944 L 45.598383 19.956005 L 45.414910 19.463369 L 45.230517 18.966976 L 45.045193 18.466764 L 44.858924 17.962671 L 44.671698 17.454632 L 44.483502 16.942582 L 44.294324 16.426454 L 44.104150 15.906180 L 43.938023 15.450430" fill="none" id="tattoo-path-f643d60cf3ed2d8a" stroke="#000000" stroke-linecap="round" stroke-linejoin="round" stroke-width="0.800000"/>
  <circle cx="72.500000" cy="72.500000" fill="none" id="tattoo-boundary-da45c61d325de3be" r="64.900000" stroke="#000000" stroke-width="2.200000"/>
</svg>
