<svg height="145.000000mm" version="1.1" viewBox="0 0 145.000000 145.000000" width="145.000000mm" xmlns="http://www.w3.org/2000/svg">
  <defs>
    <clipPath clipPathUnits="userSpaceOnUse" id="tattoo-band-layer-clip">
      <circle cx="72.500000" cy="72.500000" r="63.800000"/>
    </clipPath>
  </defs>
  <path clip-path="url(#tattoo-band-layer-clip)" d="M 95.566698 131.984178 L 95.611792 131.799228 L 95.741273 131.257649 L 95.867535 130.718948 L 95.990631 130.183097 L 96.110614 129.650069 L 96.227538 129.119839 L 96.341452 128.592380 L 96.452407 128.067666 L 96.560452 127.545671 L 96.665633 127.026368 L 96.767998 126.509733 L 96.867593 125.995738 L 96.964462 125.484359 L 97.058649 124.975570 L 97.150198 124.469345 L 97.239149 123.965660 L 97.325545 123.464489 L 97.409425 122.965808 L 97.490828 122.469591 L 97.569795 121.975814 L 97.646361 121.484452 L 97.720564 120.995482 L 97.792441 120.508878 L 97.862027 120.024617 L 97.929356 119.542676 L 97.994463 119.063029 L 98.057381 118.585654 L 98.118141 118.110528 L 98.176777 117.637627 L 98.233320 117.166928 L 98.287799 116.698408 L 98.340246 116.232045 L 98.390689 115.767816 L 98.439157 115.305699 L 98.485677 114.845671 L 98.530279 114.387710 L 98.572988 113.931796 L 98.613831 113.477905 L 98.652834 113.026017 L 98.690022 112.576109 L 98.725419 112.128162 L 98.759051 111.682154 L 98.790941 111.238063 L 98.821111 110.795870 L 98.849586 110.355554 L 98.876386 109.917095 L 98.901535 109.480472 L 98.925052 109.045665 L 98.946960 108.612655 L 98.967279 108.181422 L 98.986029 107.751946 L 99.003228 107.324208 L 99.018898 106.898189 L 99.033055 106.473869 L 99.045719 106.051231 L 99.056909 105.630255 L 99.066640 105.210922 L 99.074931 104.793215 L 99.081799 104.377115 L 99.087260 103.962603 L 99.091330 103.549662 L 99.094025 103.138275 L 99.095361 102.728423 L 99.095352 102.320089 L 99.094014 101.913256 L 99.091361 101.507906 L 99.087407 101.104022 L 99.082166 100.701588 L 99.075652 100.300587 L 99.067878 99.901001 L 99.058857 99.502816 L 99.048601 99.106013 L 99.037123 98.710577 L 99.024436 98.316493 L 99.010551 97.923743 L 98.995479 97.532312 L 98.979232 97.142184 L 98.961821 96.753345 L 98.943256 96.365778 L 98.923549 95.979467 L 98.902710 95.594399 L 98.880749 95.210558 L 98.857675 94.827928 L 98.833498 94.446496 L 98.808227 94.066246 L 98.781873 93.687164 L 98.754443 93.309235 L 98.725946 92.932445 L 98.696390 92.556780 L 98.665785 92.182226 L 98.634138 91.808768 L 98.601457 91.436393 L 98.567750 91.065087 L 98.533023 90.694837 L 98.497285 90.325628 L 98.460542 89.957447 L 98.422801 89.590282 L 98.384069 89.224117 L 98.344353 88.858942 L 98.303658 88.494742 L 98.261991 88.131504 L 98.219358 87.769216 L 98.175764 87.407864 L 98.131216 87.047437 L 98.085718 86.687922 L 98.039276 86.329305 L 97.991895 85.971576 L 97.943580 85.614720 L 97.894336 85.258727 L 97.844167 84.903584 L 97.793078 84.549279 L 97.741073 84.195801 L 97.688156 83.843136 L 97.634331 83.491274 L 97.579602 83.140202 L 97.523973 82.789910 L 97.467447 82.440385 L 97.410028 82.091616 L 97.351719 81.743592 L 97.292523 81.396301 L 97.232443 81.049733 L 97.171482 80.703875 L 97.109643 80.358718 L 97.046927 80.014249 L 96.983339 79.670459 L 96.918878 79.327335 L 96.853549 78.984868 L 96.787353 78.643046 L 96.720292 78.301859 L 96.652368 77.961296 L 96.583582 77.621347 L 96.513935 77.282002 L 96.443430 76.943249 L 96.372067 76.605079 L 96.299848 76.267481 L 96.226773 75.930445 L 96.152844 75.593961 L 96.078061 75.258018 L 96.002425 74.922607 L 95.925936 74.587718 L 95.848594 74.253341 L 95.770401 73.919465 L 95.691356 73.586082 L 95.611459 73.253180 L 95.530710 72.920752 L 95.449109 72.588786 L 95.366656 72.257273 L 95.283350 71.926204 L 95.199190 71.595569 L 95.114176 71.265359 L 95.028307 70.935564 L 94.941583 70.606175 L 94.854002 70.277182 L 94.765562 69.948577 L 94.676264 69.620349 L 94.586105 69.292491 L 94.495084 68.964992 L 94.403199 68.637843 L 94.310449 68.311036 L 94.216832 67.984561 L 94.122346 67.658410 L 94.026989 67.332573 L 93.930758 67.007042 L 93.833652 66.681807 L 93.735668 66.356860 L 93.636803 66.032192 L 93.537055 65.707795 L 93.436422 65.383659 L 93.334899 65.059775 L 93.232486 64.736136 L 93.129177 64.412732 L 93.024970 64.089555 L 92.919863 63.766597 L 92.813850 63.443848 L 92.706929 63.121300 L 92.599097 62.798946 L 92.490349 62.476775 L 92.380681 62.154781 L 92.270089 61.832954 L 92.158570 61.511286 L 92.046119 61.189769 L 91.932732 60.868395 L 91.818404 60.547155 L 91.703130 60.226041 L 91.586906 59.905045 L 91.469727 59.584158 L 91.351587 59.263373 L 91.232483 58.942681 L 91.112408 58.622074 L 90.991357 58.301544 L 90.869325 57.981083 L 90.746306 57.660683 L 90.622294 57.340335 L 90.497284 57.020033 L 90.371269 56.699767 L 90.244243 56.379530 L 90.116201 56.059314 L 89.987134 55.739111 L 89.857038 55.418913 L 89.725905 55.098713 L 89.593729 54.778501 L 89.460502 54.458271 L 89.326218 54.138014 L 89.190868 53.817723 L 89.054447 53.497390 L 88.916945 53.177008 L 88.778356 52.856567 L 88.638672 52.536061 L 88.497885 52.215483 L 88.355986 51.894823 L 88.212968 51.574075 L 88.068821 51.253231 L 87.923538 50.932282 L 87.777109 50.611223 L 87.629526 50.290044 L 87.480779 49.968739 L 87.330860 49.647299 L 87.179758 49.325717 L 87.027465 49.003986 L 86.873971 48.682098 L 86.719265 48.360045 L 86.563338 48.037820 L 86.406179 47.715416 L 86.247778 47.392824 L 86.088125 47.070038 L 85.927208 46.747050 L 85.765016 46.423853 L 85.601539 46.100439 L 85.436765 45.776800 L 85.270683 45.452930 L 85.103280 45.128821 L 84.934546 44.804466 L 84.764466 44.479857 L 84.593031 44.154987 L 84.420226 43.829849 L 84.246039 43.504435 L 84.070457 43.178739 L 83.893468 42.852753 L 83.715057 42.526469 L 83.535210 42.199881 L 83.353915 41.872982 L 83.171157 41.545764 L 82.986922 41.218220 L 82.801195 40.890343 L 82.613962 40.562126 L 82.425207 40.233562 L 82.234916 39.904644 L 82.043072 39.575365 L 81.849661 39.245718 L 81.654665 38.915696 L 81.458069 38.585293 L 81.259857 38.254500 L 81.060011 37.923312 L 80.858515 37.591722 L 80.655351 37.259722 L 80.450502 36.927306 L 80.243949 36.594468 L 80.035675 36.261201 L 79.825662 35.927497 L 79.613889 35.593351 L 79.400339 35.258756 L 79.184992 34.923706 L 78.967828 34.588193 L 78.748827 34.252212 L 78.527969 33.915756 L 78.305234 33.578819 L 78.080600 33.241395 L 77.854046 32.903477 L 77.625551 32.565059 L 77.395092 32.226136 L 77.162647 31.886701 L 76.928193 31.546748 L 76.691708 31.206271 L 76.453168 30.865265 L 76.212548 30.523724 L 75.969826 30.181641 L 75.724976 29.839012 L 75.477973 29.495832 L 75.228791 29.152093 L 74.977406 28.807792 L 74.723791 28.462923 L 74.467918 28.117481 L 74.209762 27.771460 L 73.949294 27.424856 L 73.686487 27.077664 L 73.421311 26.729880 L 73.153739 26.381497 L 72.883741 26.032513 L 72.611287 25.682923 L 72.336346 25.332722 L 72.058888 24.981906 L 71.778882 24.630472 L 71.496295 24.278414 L 71.211095 23.925731 L 70.923250 23.572418 L 70.632725 23.218472 L 70.339488 22.863890 L 70.043503 22.508668 L 69.744735 22.152804 L 69.443148 21.796295 L 69.138707 21.439138 L 68.831374 21.081332 L 68.521111 20.722875 L 68.207882 20.363764 L 67.891646 20.003997 L 67.572364 19.643574 L 67.249997 19.282494 L 66.924504 18.920755 L 66.595843 18.558357 L 66.263971 18.195299 L 65.928848 17.831581 L 65.590427 17.467205 L 65.248667 17.102169 L 64.903521 16.736475 L 64.554943 16.370125 L 64.202888 16.003119 L 63.847307 15.635459 L 63.488153 15.267148 L 63.125377 14.898189 L 62.758929 14.528584 L 62.388758 14.158336 L 62.014814 13.787450 L 61.637043 13.415930 L 61.255392 13.043780 L 60.869808 12.671005 L 60.480235 12.297612 L 60.086618 11.923606 L 59.688899 11.548995 L 59.287020 11.173784 L 58.880924 10.797983 L 58.470549 10.421599 L 58.329678 10.293554" fill="none" id="tattoo-path-d1b58348c18ff7c7" stroke="#000000" stroke-linecap="round" stroke-linejoin="round" stroke-width="4.800000"/>
  <path clip-path="url(#tattoo-band-layer-clip)" d="M 43.926829 129.543965 L 44.043620 129.142533 L 44.199274 128.610318 L 44.354488 128.082354 L 44.509264 127.558572 L 44.663603 127.038905 L 44.817507 126.523285 L 44.970980 126.011648 L 45.124024 125.503931 L 45.276642 125.000070 L 45.428836 124.500005 L 45.580608 124.003675 L 45.731963 123.511022 L 45.882903 123.021987 L 46.033431 122.536514 L 46.183550 122.054547 L 46.333263 121.576031 L 46.482574 121.100913 L 46.631486 120.629140 L 46.780003 120.160659 L 46.928127 119.695421 L 47.075863 119.233375 L 47.223213 118.774473 L 47.370182 118.318665 L 47.516773 117.865906 L 47.662990 117.416148 L 47.808836 116.969345 L 47.954316 116.525454 L 48.099432 116.084430 L 48.244189 115.646229 L 48.388590 115.210809 L 48.532640 114.778128 L 48.676342 114.348145 L 48.819700 113.920820 L 48.962718 113.496112 L 49.105401 113.073983 L 49.247751 112.654395 L 49.389773 112.237309 L 49.531470 111.822688 L 49.672848 111.410496 L 49.813909 111.000696 L 49.954659 110.593254 L 50.095100 110.188134 L 50.235237 109.785302 L 50.375074 109.384724 L 50.514615 108.986368 L 50.653864 108.590199 L 50.792825 108.196187 L 50.931502 107.804300 L 51.069899 107.414506 L 51.208021 107.026774 L 51.345871 106.641075 L 51.483454 106.257378 L 51.620773 105.875654 L 51.757832 105.495874 L 51.894637 105.118010 L 52.031190 104.742034 L 52.167495 104.367918 L 52.303558 103.995634 L 52.439382 103.625156 L 52.574971 103.256457 L 52.710328 102.889512 L 52.845459 102.524294 L 52.980368 102.160778 L 53.115057 101.798939 L 53.249532 101.438753 L 53.383797 101.080194 L 53.517855 100.723240 L 53.651710 100.367866 L 53.785367 100.014049 L 53.918830 99.661766 L 54.052102 99.310994 L 54.185188 98.961712 L 54.318092 98.613895 L 54.450818 98.267524 L 54.583370 97.922576 L 54.715751 97.579030 L 54.847966 97.236864 L 54.980020 96.896059 L 55.111915 96.556594 L 55.243656 96.218448 L 55.375247 95.881601 L 55.506692 95.546035 L 55.637995 95.211728 L 55.769160 94.878663 L 55.900191 94.546819 L 56.031092 94.216178 L 56.161867 93.886722 L 56.292520 93.558432 L 56.423054 93.231291 L 56.553475 92.905279 L 56.683786 92.580379 L 56.813991 92.256574 L 56.944093 91.933847 L 57.074098 91.612180 L 57.204008 91.291556 L 57.333828 90.971958 L 57.463562 90.653370 L 57.593214 90.335776 L 57.722787 90.019159 L 57.852287 89.703503 L 57.981716 89.388792 L 58.111079 89.075010 L 58.240380 88.762143 L 58.369622 88.450173 L 58.498810 88.139087 L 58.627948 87.828869 L 58.757040 87.519503 L 58.886089 87.210976 L 59.015100 86.903272 L 59.144077 86.596376 L 59.273023 86.290275 L 59.401943 85.984954 L 59.530841 85.680399 L 59.659721 85.376596 L 59.788586 85.073530 L 59.917441 84.771189 L 60.046290 84.469558 L 60.175137 84.168623 L 60.303986 83.868372 L 60.432841 83.568791 L 60.561706 83.269867 L 60.690585 82.971586 L 60.819482 82.673936 L 60.948402 82.376903 L 61.077347 82.080475 L 61.206324 81.784639 L 61.335335 81.489383 L 61.464384 81.194693 L 61.593477 80.900557 L 61.722617 80.606964 L 61.851807 80.313900 L 61.981053 80.021354 L 62.110359 79.729312 L 62.239728 79.437764 L 62.369165 79.146698 L 62.498674 78.856100 L 62.628260 78.565961 L 62.757926 78.276267 L 62.887677 77.987006 L 63.017517 77.698169 L 63.147451 77.409742 L 63.277483 77.121715 L 63.407616 76.834075 L 63.537856 76.546812 L 63.668207 76.259914 L 63.798672 75.973371 L 63.929258 75.687169 L 64.059967 75.401300 L 64.190805 75.115751 L 64.321776 74.830511 L 64.452884 74.545570 L 64.584134 74.260916 L 64.715531 73.976538 L 64.847078 73.692426 L 64.978781 73.408569 L 65.110644 73.124955 L 65.242672 72.841575 L 65.374869 72.558417 L 65.507240 72.275471 L 65.639790 71.992726 L 65.772524 71.710171 L 65.905445 71.427796 L 66.038560 71.145590 L 66.171873 70.863543 L 66.305388 70.581643 L 66.439111 70.299882 L 66.573047 70.018247 L 66.707200 69.736729 L 66.841575 69.455316 L 66.976177 69.174000 L 67.111012 68.892769 L 67.246085 68.611612 L 67.381400 68.330520 L 67.516963 68.049482 L 67.652779 67.768487 L 67.788853 67.487526 L 67.925190 67.206587 L 68.061796 66.925661 L 68.198676 66.644737 L 68.335836 66.363805 L 68.473281 66.082854 L 68.611015 65.801874 L 68.749046 65.520854 L 68.887378 65.239785 L 69.026017 64.958656 L 69.164968 64.677456 L 69.304238 64.396175 L 69.443832 64.114803 L 69.583756 63.833329 L 69.724016 63.551742 L 69.864617 63.270033 L 70.005566 62.988191 L 70.146868 62.706205 L 70.288530 62.424065 L 70.430557 62.141760 L 70.572957 61.859279 L 70.715734 61.576613 L 70.858896 61.293750 L 71.002449 61.010680 L 71.146399 60.727392 L 71.290752 60.443876 L 71.435516 60.160120 L 71.580696 59.876115 L 71.726300 59.591848 L 71.872334 59.307310 L 72.018805 59.022489 L 72.165720 58.737374 L 72.313085 58.451955 L 72.460908 58.166221 L 72.609196 57.880160 L 72.757957 57.593761 L 72.907196 57.307014 L 73.056922 57.019906 L 73.207142 56.732427 L 73.357864 56.444566 L 73.509094 56.156310 L 73.660842 55.867649 L 73.813113 55.578571 L 73.965917 55.289065 L 74.119262 54.999119 L 74.273154 54.708720 L 74.427603 54.417859 L 74.582616 54.126521 L 74.738202 53.834697 L 74.894370 53.542373 L 75.051126 53.249539 L 75.208482 52.956180 L 75.366444 52.662287 L 75.525022 52.367845 L 75.684225 52.072843 L 75.844061 51.777268 L 76.004540 51.481108 L 76.165672 51.184351 L 76.327465 50.886982 L 76.489929 50.588991 L 76.653074 50.290363 L 76.816909 49.991085 L 76.981444 49.691146 L 77.146689 49.390530 L 77.312655 49.089226 L 77.479352 48.787219 L 77.646789 48.484496 L 77.814978 48.181044 L 77.983930 47.876848 L 78.153654 47.571894 L 78.324163 47.266170 L 78.495466 46.959660 L 78.667576 46.652350 L 78.840505 46.344226 L 79.014262 46.035274 L 79.188861 45.725478 L 79.364313 45.414824 L 79.540631 45.103297 L 79.717826 44.790882 L 79.895911 44.477563 L 80.074899 44.163326 L 80.254802 43.848154 L 80.435634 43.532033 L 80.617407 43.214945 L 80.800136 42.896876 L 80.983833 42.577808 L 81.168513 42.257726 L 81.354190 41.936613 L 81.540877 41.614453 L 81.728590 41.291227 L 81.917342 40.966921 L 82.107149 40.641515 L 82.298026 40.314993 L 82.489988 39.987337 L 82.683051 39.658529 L 82.877231 39.328552 L 83.072544 38.997386 L 83.269006 38.665013 L 83.466633 38.331416 L 83.665444 37.996574 L 83.865454 37.660469 L 84.066681 37.323081 L 84.269143 36.984391 L 84.472859 36.644379 L 84.677846 36.303024 L 84.884122 35.960308 L 85.091708 35.616208 L 85.300622 35.270704 L 85.510883 34.923775 L 85.722513 34.575400 L 85.935530 34.225556 L 86.149956 33.874223 L 86.365811 33.521378 L 86.583117 33.166998 L 86.801895 32.811060 L 87.022168 32.453542 L 87.243959 32.094420 L 87.467289 31.733670 L 87.692182 31.371268 L 87.918662 31.007190 L 88.146754 30.641412 L 88.376481 30.273907 L 88.607868 29.904651 L 88.840941 29.533618 L 89.075727 29.160782 L 89.312251 28.786116 L 89.550540 28.409594 L 89.790622 28.031187 L 90.032524 27.650869 L 90.276275 27.268612 L 90.521905 26.884386 L 90.769442 26.498164 L 91.018916 26.109915 L 91.270359 25.719611 L 91.523802 25.327220 L 91.779276 24.932712 L 92.036814 24.536056 L 92.296449 24.137221 L 92.558216 23.736174 L 92.822147 23.332883 L 93.088279 22.927314 L 93.356648 22.519435 L 93.627290 22.109210 L 93.900242 21.696606 L 94.175542 21.281587 L 94.453230 20.864117 L 94.733345 20.444161 L 95.015928 20.021680 L 95.301020 19.596638 L 95.588662 19.168997 L 95.878899 18.738717 L 96.171774 18.305760 L 96.467332 17.870084 L 96.765620 17.431651 L 97.066683 16.990417 L 97.370570 16.546342 L 97.677331 16.099382 L 97.987014 15.649494 L 98.299671 15.196633 L 98.615355 14.740755 L 98.853851 14.397379" fill="none" id="tattoo-path-6e45abbc22f60e86" stroke="#000000" stroke-linecap="round" stroke-linejoin="round" stroke-width="4.200000"/>
  <path clip-path="url(#tattoo-band-layer-clip)" d="M 8.771622 75.522215 L 9.121433 75.093553 L 9.475167 74.665206 L 9.829544 74.241112 L 10.184536 73.821228 L 10.540116 73.405510 L 10.896257 72.993917 L 11.252935 72.586407 L 11.610123 72.182937 L 11.967798 71.783468 L 12.325936 71.387957 L 12.684516 70.996365 L 13.043514 70.608652 L 13.402909 70.224778 L 13.762682 69.844706 L 14.122811 69.468395 L 14.483278 69.095809 L 14.844063 68.726909 L 15.205149 68.361658 L 15.566519 68.000020 L 15.928154 67.641959 L 16.290039 67.287437 L 16.652159 66.936421 L 17.014496 66.588874 L 17.377037 66.244762 L 17.739768 65.904051 L 18.102674 65.566708 L 18.465743 65.232698 L 18.828960 64.901988 L 19.192315 64.574547 L 19.555795 64.250341 L 19.919388 63.929340 L 20.283083 63.611511 L 20.646871 63.296824 L 21.010739 62.985247 L 21.374679 62.676752 L 21.738681 62.371307 L 22.102736 62.068884 L 22.466835 61.769453 L 22.830969 61.472985 L 23.195131 61.179453 L 23.559313 60.888827 L 23.923508 60.601081 L 24.287708 60.316188 L 24.651907 60.034120 L 25.016098 59.754850 L 25.380275 59.478353 L 25.744432 59.204603 L 26.108565 58.933574 L 26.472666 58.665240 L 26.836732 58.399578 L 27.200758 58.136562 L 27.564739 57.876169 L 27.928671 57.618374 L 28.292550 57.363153 L 28.656373 57.110485 L 29.020135 56.860345 L 29.383833 56.612712 L 29.747465 56.367563 L 30.111027 56.124875 L 30.474518 55.884628 L 30.837934 55.646799 L 31.201273 55.411369 L 31.564533 55.178315 L 31.927713 54.947619 L 32.290811 54.719258 L 32.653825 54.493214 L 33.016754 54.269467 L 33.379598 54.047998 L 33.742354 53.828787 L 34.105022 53.611815 L 34.467602 53.397065 L 34.830094 53.184518 L 35.192496 52.974156 L 35.554809 52.765961 L 35.917033 52.559916 L 36.279168 52.356004 L 36.641214 52.154207 L 37.003172 51.954509 L 37.365042 51.756895 L 37.726825 51.561346 L 38.088521 51.367848 L 38.450133 51.176385 L 38.811660 50.986941 L 39.173104 50.799502 L 39.534466 50.614051 L 39.895748 50.430576 L 40.256952 50.249060 L 40.618078 50.069490 L 40.979129 49.891851 L 41.340106 49.716131 L 41.701011 49.542315 L 42.061847 49.370390 L 42.422616 49.200342 L 42.783319 49.032160 L 43.143960 48.865830 L 43.504540 48.701339 L 43.865062 48.538676 L 44.225529 48.377828 L 44.585943 48.218783 L 44.946307 48.061530 L 45.306624 47.906058 L 45.666897 47.752355 L 46.027129 47.600409 L 46.387323 47.450211 L 46.747482 47.301749 L 47.107609 47.155013 L 47.467708 47.009994 L 47.827782 46.866679 L 48.187834 46.725061 L 48.547868 46.585129 L 48.907887 46.446873 L 49.267895 46.310284 L 49.627896 46.175354 L 49.987894 46.042073 L 50.347892 45.910433 L 50.707893 45.780424 L 51.067903 45.652039 L 51.427925 45.525269 L 51.787963 45.400106 L 52.148021 45.276543 L 52.508103 45.154571 L 52.868214 45.034183 L 53.228357 44.915372 L 53.588538 44.798131 L 53.948759 44.682452 L 54.309026 44.568329 L 54.669344 44.455755 L 55.029716 44.344723 L 55.390147 44.235228 L 55.750641 44.127263 L 56.111204 44.020822 L 56.471840 43.915899 L 56.832553 43.812488 L 57.193349 43.710585 L 57.554232 43.610183 L 57.915207 43.511278 L 58.276279 43.413864 L 58.637452 43.317937 L 58.998732 43.223492 L 59.360123 43.130524 L 59.721632 43.039028 L 60.083261 42.949002 L 60.445018 42.860440 L 60.806906 42.773339 L 61.168931 42.687695 L 61.531099 42.603504 L 61.893413 42.520763 L 62.255881 42.439468 L 62.618506 42.359617 L 62.981294 42.281206 L 63.344251 42.204232 L 63.707382 42.128694 L 64.070691 42.054588 L 64.434186 41.981911 L 64.797871 41.910663 L 65.161751 41.840840 L 65.525833 41.772440 L 65.890121 41.705463 L 66.254621 41.639905 L 66.619340 41.575767 L 66.984281 41.513046 L 67.349452 41.451741 L 67.714858 41.391852 L 68.080504 41.333377 L 68.446396 41.276315 L 68.812541 41.220667 L 69.178943 41.166431 L 69.545608 41.113608 L 69.912543 41.062198 L 70.279753 41.012199 L 70.647244 40.963614 L 71.015022 40.916441 L 71.383092 40.870682 L 71.751462 40.826336 L 72.120136 40.783406 L 72.489121 40.741892 L 72.858422 40.701794 L 73.228046 40.663115 L 73.597999 40.625856 L 73.968286 40.590018 L 74.338915 40.555603 L 74.709890 40.522613 L 75.081218 40.491050 L 75.452905 40.460917 L 75.824958 40.432215 L 76.197382 40.404947 L 76.570184 40.379117 L 76.943369 40.354726 L 77.316944 40.331777 L 77.690916 40.310275 L 78.065289 40.290223 L 78.440072 40.271623 L 78.815269 40.254479 L 79.190888 40.238796 L 79.566934 40.224578 L 79.943414 40.211828 L 80.320334 40.200552 L 80.697701 40.190752 L 81.075520 40.182435 L 81.453798 40.175606 L 81.832542 40.170268 L 82.211758 40.166428 L 82.591452 40.164091 L 82.971630 40.163262 L 83.352300 40.163947 L 83.733466 40.166153 L 84.115137 40.169884 L 84.497318 40.175149 L 84.880015 40.181952 L 85.263236 40.190301 L 85.646985 40.200203 L 86.031271 40.211665 L 86.416099 40.224694 L 86.801476 40.239297 L 87.187408 40.255482 L 87.573902 40.273257 L 87.960963 40.292630 L 88.348599 40.313609 L 88.736817 40.336203 L 89.125621 40.360421 L 89.515019 40.386270 L 89.905017 40.413761 L 90.295622 40.442903 L 90.686840 40.473704 L 91.078677 40.506175 L 91.471140 40.540326 L 91.864236 40.576167 L 92.257969 40.613708 L 92.652348 40.652960 L 93.047378 40.693933 L 93.443065 40.736639 L 93.839416 40.781089 L 94.236438 40.827294 L 94.634135 40.875267 L 95.032516 40.925019 L 95.431585 40.976562 L 95.831349 41.029909 L 96.231815 41.085073 L 96.632988 41.142066 L 97.034875 41.200902 L 97.437481 41.261594 L 97.840813 41.324157 L 98.244877 41.388603 L 98.649679 41.454948 L 99.055224 41.523206 L 99.461519 41.593391 L 99.868570 41.665519 L 100.276381 41.739605 L 100.684960 41.815665 L 101.094312 41.893714 L 101.504443 41.973770 L 101.915357 42.055847 L 102.327062 42.139964 L 102.739562 42.226138 L 103.152862 42.314385 L 103.566969 42.404723 L 103.981888 42.497171 L 104.397623 42.591746 L 104.814180 42.688469 L 105.231565 42.787356 L 105.649781 42.888428 L 106.068835 42.991705 L 106.488731 43.097206 L 106.909473 43.204951 L 107.331068 43.314962 L 107.753518 43.427259 L 108.176829 43.541864 L 108.601005 43.658798 L 109.026050 43.778083 L 109.451969 43.899743 L 109.878766 44.023799 L 110.306444 44.150275 L 110.735007 44.279195 L 111.164460 44.410581 L 111.594805 44.544460 L 112.026047 44.680855 L 112.458188 44.819792 L 112.891231 44.961296 L 113.325180 45.105393 L 113.760037 45.252110 L 114.195805 45.401473 L 114.632487 45.553509 L 115.070085 45.708247 L 115.508600 45.865714 L 115.948035 46.025939 L 116.388392 46.188951 L 116.829672 46.354779 L 117.271877 46.523453 L 117.715007 46.695004 L 118.159063 46.869462 L 118.604047 47.046859 L 119.049958 47.227227 L 119.496796 47.410598 L 119.944563 47.597004 L 120.393256 47.786479 L 120.842876 47.979058 L 121.293421 48.174773 L 121.744891 48.373661 L 122.197284 48.575756 L 122.650598 48.781094 L 123.104831 48.989712 L 123.559980 49.201647 L 124.016043 49.416937 L 124.473016 49.635619 L 124.930896 49.857733 L 125.389679 50.083317 L 125.849360 50.312412 L 126.309935 50.545057 L 126.771399 50.781295 L 127.233745 51.021166 L 127.696969 51.264713 L 128.161063 51.511979 L 128.626021 51.763008 L 129.091835 52.017842 L 129.558497 52.276528 L 130.025999 52.539111 L 130.494332 52.805636 L 130.963485 53.076151 L 131.433450 53.350702 L 131.904215 53.629338 L 132.375770 53.912108 L 132.848101 54.199061 L 133.321197 54.490246 L 133.790683 54.782996" fill="none" id="tattoo-path-3847c11cff3446d3" stroke="#000000" stroke-linecap="round" stroke-linejoin="round" stroke-width="3.600000"/>
  <path clip-path="url(#tattoo-band-layer-clip)" d="M 131.694680 96.299786 L 131.441400 96.378977 L 130.909383 96.542427 L 130.379763 96.702289 L 129.852525 96.858620 L 129.327654 97.011474 L 128.805132 97.160905 L 128.284945 97.306964 L 127.767077 97.449704 L 127.251511 97.589175 L 126.738231 97.725426 L 126.227221 97.858507 L 125.718464 97.988464 L 125.211944 98.115344 L 124.707643 98.239194 L 124.205546 98.360058 L 123.705635 98.477980 L 123.207894 98.593003 L 122.712306 98.705170 L 122.218854 98.814522 L 121.727521 98.921100 L 121.238290 99.024944 L 120.751144 99.126093 L 120.266066 99.224586 L 119.783040 99.320459 L 119.302048 99.413751 L 118.823073 99.504496 L 118.346098 99.592732 L 117.871107 99.678492 L 117.398083 99.761811 L 116.927008 99.842722 L 116.457867 99.921258 L 115.990641 99.997451 L 115.525315 100.071333 L 115.061871 100.142934 L 114.600293 100.212286 L 114.140564 100.279418 L 113.682668 100.344358 L 113.226588 100.407137 L 112.772308 100.467781 L 112.319811 100.526318 L 111.869082 100.582776 L 111.420102 100.637180 L 110.972857 100.689557 L 110.527331 100.739932 L 110.083506 100.788329 L 109.641368 100.834775 L 109.200900 100.879291 L 108.762086 100.921903 L 108.324911 100.962632 L 107.889358 101.001502 L 107.455413 101.038534 L 107.023059 101.073751 L 106.592282 101.107173 L 106.163065 101.138821 L 105.735393 101.168716 L 105.309252 101.196879 L 104.884626 101.223327 L 104.461499 101.248081 L 104.039858 101.271160 L 103.619686 101.292581 L 103.200970 101.312363 L 102.783694 101.330525 L 102.367845 101.347082 L 101.953406 101.362052 L 101.540364 101.375453 L 101.128704 101.387299 L 100.718413 101.397607 L 100.309475 101.406393 L 99.901878 101.413672 L 99.495605 101.419459 L 99.090645 101.423769 L 98.686982 101.426616 L 98.284604 101.428014 L 97.883496 101.427978 L 97.483644 101.426520 L 97.085036 101.423653 L 96.687658 101.419391 L 96.291496 101.413747 L 95.896537 101.406732 L 95.502768 101.398359 L 95.110176 101.388639 L 94.718748 101.377585 L 94.328470 101.365207 L 93.939331 101.351517 L 93.551317 101.336525 L 93.164415 101.320242 L 92.778614 101.302678 L 92.393900 101.283843 L 92.010261 101.263748 L 91.627685 101.242401 L 91.246159 101.219813 L 90.865671 101.195992 L 90.486209 101.170947 L 90.107761 101.144687 L 89.730316 101.117221 L 89.353860 101.088556 L 88.978383 101.058702 L 88.603872 101.027665 L 88.230316 100.995453 L 87.857704 100.962075 L 87.486023 100.927536 L 87.115263 100.891845 L 86.745411 100.855008 L 86.376458 100.817032 L 86.008391 100.777923 L 85.641199 100.737687 L 85.274872 100.696332 L 84.909398 100.653862 L 84.544766 100.610283 L 84.180965 100.565602 L 83.817986 100.519823 L 83.455816 100.472952 L 83.094446 100.424994 L 82.733864 100.375953 L 82.374060 100.325835 L 82.015024 100.274644 L 81.656745 100.222384 L 81.299213 100.169060 L 80.942418 100.114676 L 80.586349 100.059235 L 80.230997 100.002742 L 79.876350 99.945200 L 79.522400 99.886613 L 79.169136 99.826983 L 78.816548 99.766314 L 78.464627 99.704609 L 78.113362 99.641871 L 77.762744 99.578103 L 77.412764 99.513307 L 77.063411 99.447485 L 76.714676 99.380640 L 76.366550 99.312774 L 76.019022 99.243888 L 75.672085 99.173986 L 75.325728 99.103067 L 74.979941 99.031135 L 74.634717 98.958190 L 74.290045 98.884234 L 73.945917 98.809268 L 73.602323 98.733292 L 73.259254 98.656309 L 72.916702 98.578317 L 72.574658 98.499319 L 72.233112 98.419315 L 71.892055 98.338304 L 71.551480 98.256287 L 71.211377 98.173265 L 70.871737 98.089237 L 70.532552 98.004202 L 70.193813 97.918162 L 69.855513 97.831114 L 69.517641 97.743060 L 69.180190 97.653997 L 68.843151 97.563925 L 68.506517 97.472844 L 68.170277 97.380751 L 67.834426 97.287647 L 67.498953 97.193529 L 67.163851 97.098396 L 66.829111 97.002246 L 66.494727 96.905079 L 66.160688 96.806891 L 65.826989 96.707681 L 65.493619 96.607448 L 65.160572 96.506187 L 64.827839 96.403898 L 64.495414 96.300578 L 64.163286 96.196224 L 63.831450 96.090834 L 63.499897 95.984404 L 63.168620 95.876931 L 62.837610 95.768413 L 62.506860 95.658847 L 62.176363 95.548228 L 61.846111 95.436553 L 61.516096 95.323820 L 61.186311 95.210023 L 60.856748 95.095159 L 60.527400 94.979224 L 60.198260 94.862214 L 59.869319 94.744125 L 59.540572 94.624952 L 59.212010 94.504690 L 58.883626 94.383336 L 58.555413 94.260883 L 58.227364 94.137328 L 57.899471 94.012665 L 57.571728 93.886888 L 57.244127 93.759993 L 56.916662 93.631974 L 56.589325 93.502825 L 56.262109 93.372541 L 55.935007 93.241115 L 55.608013 93.108542 L 55.281119 92.974816 L 54.954319 92.839929 L 54.627606 92.703876 L 54.300972 92.566650 L 53.974412 92.428243 L 53.647919 92.288650 L 53.321485 92.147863 L 52.995104 92.005875 L 52.668770 91.862679 L 52.342476 91.718266 L 52.016215 91.572630 L 51.689981 91.425762 L 51.363767 91.277655 L 51.037567 91.128299 L 50.711375 90.977688 L 50.385184 90.825813 L 50.058987 90.672664 L 49.732780 90.518233 L 49.406554 90.362511 L 49.080304 90.205489 L 48.754024 90.047158 L 48.427707 89.887509 L 48.101348 89.726530 L 47.774941 89.564214 L 47.448478 89.400549 L 47.121955 89.235526 L 46.795366 89.069133 L 46.468703 88.901362 L 46.141963 88.732201 L 45.815138 88.561638 L 45.488223 88.389664 L 45.161212 88.216266 L 44.834100 88.041434 L 44.506880 87.865155 L 44.179547 87.687418 L 43.852096 87.508210 L 43.524522 87.327520 L 43.196817 87.145335 L 42.868978 86.961642 L 42.540999 86.776429 L 42.212874 86.589681 L 41.884598 86.401387 L 41.556167 86.211532 L 41.227574 86.020103 L 40.898814 85.827085 L 40.569884 85.632465 L 40.240777 85.436228 L 39.911488 85.238360 L 39.582014 85.038845 L 39.252349 84.837669 L 38.922487 84.634815 L 38.592426 84.430270 L 38.262159 84.224016 L 37.931683 84.016037 L 37.600993 83.806317 L 37.270084 83.594841 L 36.938953 83.381589 L 36.607594 83.166547 L 36.276005 82.949695 L 35.944180 82.731017 L 35.612116 82.510495 L 35.279809 82.288110 L 34.947254 82.063843 L 34.614449 81.837677 L 34.281390 81.609591 L 33.948072 81.379567 L 33.614494 81.147585 L 33.280650 80.913625 L 32.946539 80.677666 L 32.612156 80.439688 L 32.277499 80.199670 L 31.942565 79.957590 L 31.607351 79.713428 L 31.271855 79.467161 L 30.936073 79.218767 L 30.600004 78.968224 L 30.263645 78.715508 L 29.926993 78.460596 L 29.590048 78.203464 L 29.252807 77.944090 L 28.915267 77.682447 L 28.577429 77.418512 L 28.239290 77.152259 L 27.900848 76.883663 L 27.562104 76.612698 L 27.223055 76.339338 L 26.883701 76.063556 L 26.544042 75.785324 L 26.204077 75.504616 L 25.863806 75.221403 L 25.523228 74.935658 L 25.182345 74.647351 L 24.841156 74.356453 L 24.499662 74.062934 L 24.157863 73.766765 L 23.815762 73.467915 L 23.473359 73.166352 L 23.130655 72.862046 L 22.787653 72.554963 L 22.444355 72.245073 L 22.100762 71.932341 L 21.756877 71.616735 L 21.412704 71.298220 L 21.068245 70.976762 L 20.723504 70.652326 L 20.378485 70.324876 L 20.033191 69.994376 L 19.687627 69.660790 L 19.341798 69.324080 L 18.995709 68.984209 L 18.649366 68.641138 L 18.302773 68.294828 L 17.955938 67.945240 L 17.608866 67.592334 L 17.261566 67.236070 L 16.914044 66.876405 L 16.566308 66.513297 L 16.218366 66.146705 L 15.870228 65.776585 L 15.521902 65.402893 L 15.173399 65.025585 L 14.824728 64.644615 L 14.475899 64.259938 L 14.126926 63.871507 L 13.777818 63.479274 L 13.428589 63.083192 L 13.079251 62.683212 L 12.729819 62.279285 L 12.380306 61.871360 L 12.030727 61.459386 L 11.681098 61.043313 L 11.331434 60.623086 L 10.981753 60.198654 L 10.632072 59.769963 L 10.282410 59.336956 L 10.116714 59.129672" fill="none" id="tattoo-path-527aaffcef844172" stroke="#000000" stroke-linecap="round" stroke-linejoin="round" stroke-width="3.100000"/>
  <path clip-path="url(#tattoo-band-layer-clip)" d="M 25.857847 116.031018 L 26.259914 115.995886 L 26.813225 115.944847 L 27.362920 115.891483 L 27.909036 115.835838 L 28.451610 115.777957 L 28.990678 115.717880 L 29.526277 115.655651 L 30.058443 115.591310 L 30.587212 115.524897 L 31.112619 115.456450 L 31.634699 115.386008 L 32.153486 115.313606 L 32.669016 115.239282 L 33.181323 115.163070 L 33.690440 115.085004 L 34.196400 115.005120 L 34.699238 114.923448 L 35.198985 114.840021 L 35.695675 114.754870 L 36.189340 114.668025 L 36.680012 114.579517 L 37.167721 114.489375 L 37.652501 114.397625 L 38.134381 114.304297 L 38.613392 114.209417 L 39.089565 114.113012 L 39.562930 114.015106 L 40.033516 113.915726 L 40.501354 113.814895 L 40.966472 113.712637 L 41.428899 113.608976 L 41.888664 113.503934 L 42.345795 113.397534 L 42.800320 113.289796 L 43.252267 113.180743 L 43.701663 113.070394 L 44.148536 112.958770 L 44.592912 112.845890 L 45.034817 112.731774 L 45.474279 112.616439 L 45.911322 112.499904 L 46.345973 112.382186 L 46.778258 112.263303 L 47.208201 112.143272 L 47.635827 112.022109 L 48.061162 111.899829 L 48.484228 111.776449 L 48.905052 111.651983 L 49.323656 111.526446 L 49.740063 111.399853 L 50.154298 111.272217 L 50.566384 111.143553 L 50.976343 111.013873 L 51.384198 110.883190 L 51.789971 110.751517 L 52.193685 110.618866 L 52.595361 110.485249 L 52.995021 110.350677 L 53.392687 110.215162 L 53.788379 110.078715 L 54.182119 109.941346 L 54.573927 109.803066 L 54.963824 109.663884 L 55.351830 109.523811 L 55.737965 109.382856 L 56.122249 109.241027 L 56.504702 109.098335 L 56.885342 108.954788 L 57.264191 108.810393 L 57.641265 108.665160 L 58.016584 108.519096 L 58.390167 108.372209 L 58.762033 108.224506 L 59.132198 108.075994 L 59.500682 107.926681 L 59.867501 107.776573 L 60.232675 107.625676 L 60.596219 107.473997 L 60.958152 107.321542 L 61.318490 107.168316 L 61.677251 107.014326 L 62.034450 106.859577 L 62.390105 106.704073 L 62.744231 106.547821 L 63.096845 106.390824 L 63.447964 106.233089 L 63.797602 106.074618 L 64.145775 105.915416 L 64.492499 105.755488 L 64.837789 105.594837 L 65.181660 105.433467 L 65.524128 105.271381 L 65.865206 105.108584 L 66.204911 104.945078 L 66.543255 104.780866 L 66.880254 104.615951 L 67.215922 104.450336 L 67.550273 104.284024 L 67.883320 104.117017 L 68.215078 103.949317 L 68.545559 103.780926 L 68.874779 103.611847 L 69.202749 103.442081 L 69.529483 103.271630 L 69.854994 103.100495 L 70.179295 102.928678 L 70.502399 102.756180 L 70.824318 102.583003 L 71.145065 102.409146 L 71.464652 102.234612 L 71.783092 102.059401 L 72.100396 101.883513 L 72.416576 101.706948 L 72.731645 101.529708 L 73.045615 101.351793 L 73.358495 101.173202 L 73.670300 100.993935 L 73.981038 100.813993 L 74.290722 100.633375 L 74.599364 100.452080 L 74.906973 100.270109 L 75.213561 100.087460 L 75.519139 99.904133 L 75.823717 99.720126 L 76.127305 99.535440 L 76.429915 99.350072 L 76.731557 99.164022 L 77.032240 98.977289 L 77.331976 98.789870 L 77.630773 98.601764 L 77.928642 98.412970 L 78.225593 98.223486 L 78.521635 98.033310 L 78.816778 97.842441 L 79.111031 97.650875 L 79.404404 97.458611 L 79.696907 97.265646 L 79.988548 97.071978 L 80.279336 96.877606 L 80.569280 96.682525 L 80.858390 96.486733 L 81.146674 96.290228 L 81.434141 96.093007 L 81.720799 95.895066 L 82.006657 95.696402 L 82.291724 95.497013 L 82.576007 95.296895 L 82.859516 95.096044 L 83.142257 94.894457 L 83.424240 94.692130 L 83.705472 94.489060 L 83.985961 94.285243 L 84.265715 94.080675 L 84.544742 93.875352 L 84.823049 93.669269 L 85.100644 93.462423 L 85.377535 93.254809 L 85.653728 93.046423 L 85.929231 92.837260 L 86.204051 92.627315 L 86.478196 92.416584 L 86.751672 92.205063 L 87.024487 91.992745 L 87.296647 91.779627 L 87.568159 91.565703 L 87.839029 91.350967 L 88.109265 91.135414 L 88.378874 90.919040 L 88.647860 90.701838 L 88.916232 90.483803 L 89.183995 90.264928 L 89.451155 90.045209 L 89.717719 89.824640 L 89.983693 89.603213 L 90.249083 89.380923 L 90.513894 89.157764 L 90.778133 88.933729 L 91.041805 88.708813 L 91.304916 88.483007 L 91.567472 88.256306 L 91.829478 88.028703 L 92.090940 87.800191 L 92.351862 87.570762 L 92.612252 87.340411 L 92.872112 87.109129 L 93.131450 86.876909 L 93.390269 86.643743 L 93.648576 86.409625 L 93.906374 86.174546 L 94.163668 85.938499 L 94.420464 85.701476 L 94.676766 85.463468 L 94.932579 85.224467 L 95.187907 84.984466 L 95.442755 84.743456 L 95.697127 84.501428 L 95.951027 84.258374 L 96.204460 84.014284 L 96.457429 83.769151 L 96.709940 83.522964 L 96.961995 83.275716 L 97.213598 83.027396 L 97.464754 82.777996 L 97.715467 82.527505 L 97.965739 82.275915 L 98.215574 82.023214 L 98.464977 81.769395 L 98.713949 81.514445 L 98.962495 81.258356 L 99.210618 81.001117 L 99.458321 80.742717 L 99.705607 80.483146 L 99.952479 80.222393 L 100.198939 79.960448 L 100.444991 79.697298 L 100.690638 79.432934 L 100.935881 79.167344 L 101.180723 78.900515 L 101.425168 78.632438 L 101.669216 78.363099 L 101.912871 78.092488 L 102.156134 77.820591 L 102.399007 77.547398 L 102.641493 77.272894 L 102.883593 76.997068 L 103.125309 76.719908 L 103.366642 76.441399 L 103.607595 76.161530 L 103.848168 75.880286 L 104.088362 75.597656 L 104.328180 75.313624 L 104.567621 75.028177 L 104.806687 74.741302 L 105.045379 74.452984 L 105.283698 74.163209 L 105.521643 73.871963 L 105.759216 73.579231 L 105.996418 73.284997 L 106.233247 72.989248 L 106.469705 72.691968 L 106.705791 72.393141 L 106.941505 72.092752 L 107.176847 71.790786 L 107.411816 71.487225 L 107.646413 71.182054 L 107.880635 70.875257 L 108.114483 70.566817 L 108.347956 70.256716 L 108.581051 69.944939 L 108.813769 69.631467 L 109.046107 69.316284 L 109.278065 68.999371 L 109.509639 68.680711 L 109.740829 68.360285 L 109.971632 68.038076 L 110.202046 67.714063 L 110.432069 67.388229 L 110.661698 67.060555 L 110.890930 66.731021 L 111.119762 66.399607 L 111.348191 66.066293 L 111.576214 65.731060 L 111.803828 65.393888 L 112.031028 65.054754 L 112.257810 64.713639 L 112.484171 64.370522 L 112.710106 64.025381 L 112.935610 63.678194 L 113.160679 63.328939 L 113.385307 62.977594 L 113.609490 62.624136 L 113.833222 62.268544 L 114.056497 61.910792 L 114.279309 61.550859 L 114.501652 61.188720 L 114.723519 60.824351 L 114.944904 60.457728 L 115.165800 60.088826 L 115.386198 59.717621 L 115.606093 59.344086 L 115.825475 58.968197 L 116.044336 58.589927 L 116.262669 58.209250 L 116.480463 57.826139 L 116.697711 57.440568 L 116.914402 57.052509 L 117.130528 56.661935 L 117.346076 56.268817 L 117.561038 55.873127 L 117.775402 55.474836 L 117.989158 55.073916 L 118.202292 54.670336 L 118.414794 54.264067 L 118.626652 53.855079 L 118.837851 53.443340 L 119.048379 53.028821 L 119.258223 52.611489 L 119.467368 52.191312 L 119.675800 51.768259 L 119.883504 51.342297 L 120.090464 50.913393 L 120.296664 50.481513 L 120.502088 50.046623 L 120.706719 49.608689 L 120.910540 49.167677 L 121.113532 48.723550 L 121.315677 48.276274 L 121.516956 47.825813 L 121.717349 47.372129 L 121.916836 46.915185 L 122.115395 46.454945 L 122.313006 45.991371 L 122.509647 45.524423 L 122.705293 45.054063 L 122.899923 44.580252 L 123.093512 44.102950 L 123.286034 43.622116 L 123.477465 43.137709 L 123.667777 42.649689 L 123.856945 42.158013 L 124.044939 41.662639 L 124.231732 41.163524 L 124.417293 40.660625 L 124.601593 40.153898 L 124.784599 39.643298 L 124.966281 39.128780 L 125.146605 38.610299 L 125.325536 38.087810 L 125.503041 37.561264 L 125.630124 37.178194" fill="none" id="tattoo-path-41fcc03cbaa54c13" stroke="#000000" stroke-linecap="round" stroke-linejoin="round" stroke-width="2.500000"/>
  <path clip-path="url(#tattoo-band-layer-clip)" d="M 102.350459 128.886081 L 102.223929 128.764759 L 101.823205 128.378635 L 101.426362 127.994378 L 101.033336 127.611969 L 100.644064 127.231385 L 100.258483 126.852607 L 99.876535 126.475613 L 99.498158 126.100384 L 99.123297 125.726898 L 98.751892 125.355136 L 98.383890 124.985078 L 98.019235 124.616703 L 97.657875 124.249992 L 97.299755 123.884925 L 96.944826 123.521484 L 96.593036 123.159647 L 96.244336 122.799398 L 95.898679 122.440716 L 95.556015 122.083582 L 95.216300 121.727979 L 94.879486 121.373887 L 94.545529 121.021288 L 94.214386 120.670164 L 93.886013 120.320497 L 93.560367 119.972269 L 93.237407 119.625462 L 92.917093 119.280058 L 92.599385 118.936041 L 92.284242 118.593392 L 91.971627 118.252095 L 91.661502 117.912133 L 91.353829 117.573489 L 91.048572 117.236145 L 90.745696 116.900086 L 90.445165 116.565295 L 90.146944 116.231756 L 89.851000 115.899452 L 89.557300 115.568367 L 89.265810 115.238486 L 88.976499 114.909793 L 88.689335 114.582273 L 88.404286 114.255909 L 88.121323 113.930686 L 87.840416 113.606589 L 87.561535 113.283604 L 87.284651 112.961714 L 87.009735 112.640906 L 86.736760 112.321165 L 86.465699 112.002475 L 86.196524 111.684822 L 85.929209 111.368193 L 85.663727 111.052573 L 85.400053 110.737947 L 85.138162 110.424302 L 84.878028 110.111623 L 84.619628 109.799898 L 84.362938 109.489112 L 84.107933 109.179252 L 83.854591 108.870304 L 83.602889 108.562255 L 83.352804 108.255092 L 83.104313 107.948801 L 82.857396 107.643370 L 82.612031 107.338786 L 82.368197 107.035035 L 82.125873 106.732105 L 81.885038 106.429984 L 81.645672 106.128658 L 81.407757 105.828116 L 81.171271 105.528345 L 80.936196 105.229332 L 80.702513 104.931066 L 80.470204 104.633534 L 80.239250 104.336725 L 80.009633 104.040626 L 79.781335 103.745226 L 79.554339 103.450512 L 79.328628 103.156474 L 79.104184 102.863099 L 78.880991 102.570376 L 78.659032 102.278293 L 78.438291 101.986840 L 78.218753 101.696004 L 78.000400 101.405775 L 77.783219 101.116141 L 77.567193 100.827091 L 77.352307 100.538615 L 77.138547 100.250701 L 76.925898 99.963338 L 76.714345 99.676516 L 76.503874 99.390223 L 76.294471 99.104449 L 76.086122 98.819184 L 75.878814 98.534416 L 75.672533 98.250136 L 75.467266 97.966332 L 75.263000 97.682994 L 75.059721 97.400112 L 74.857417 97.117676 L 74.656076 96.835674 L 74.455685 96.554098 L 74.256232 96.272937 L 74.057704 95.992180 L 73.860090 95.711817 L 73.663379 95.431839 L 73.467557 95.152236 L 73.272615 94.872997 L 73.078541 94.594113 L 72.885324 94.315573 L 72.692952 94.037368 L 72.501414 93.759488 L 72.310701 93.481924 L 72.120802 93.204665 L 71.931705 92.927701 L 71.743402 92.651024 L 71.555880 92.374623 L 71.369132 92.098489 L 71.183146 91.822613 L 70.997913 91.546984 L 70.813422 91.271593 L 70.629666 90.996431 L 70.446634 90.721488 L 70.264316 90.446754 L 70.082704 90.172221 L 69.901789 89.897879 L 69.721561 89.623718 L 69.542012 89.349729 L 69.363132 89.075903 L 69.184914 88.802231 L 69.007349 88.528702 L 68.830427 88.255308 L 68.654142 87.982039 L 68.478484 87.708887 L 68.303445 87.435841 L 68.129018 87.162892 L 67.955194 86.890032 L 67.781966 86.617251 L 67.609325 86.344540 L 67.437264 86.071889 L 67.265775 85.799290 L 67.094851 85.526732 L 66.924485 85.254207 L 66.754668 84.981706 L 66.585394 84.709218 L 66.416656 84.436736 L 66.248446 84.164250 L 66.080757 83.891750 L 65.913583 83.619227 L 65.746916 83.346672 L 65.580750 83.074076 L 65.415077 82.801430 L 65.249892 82.528723 L 65.085187 82.255948 L 64.920957 81.983093 L 64.757194 81.710151 L 64.593892 81.437112 L 64.431045 81.163966 L 64.268647 80.890704 L 64.106692 80.617317 L 63.945172 80.343795 L 63.784083 80.070129 L 63.623419 79.796310 L 63.463172 79.522327 L 63.303338 79.248171 L 63.143911 78.973833 L 62.984884 78.699304 L 62.826253 78.424573 L 62.668011 78.149631 L 62.510154 77.874469 L 62.352674 77.599076 L 62.195568 77.323443 L 62.038829 77.047561 L 61.882453 76.771418 L 61.726433 76.495007 L 61.570765 76.218316 L 61.415443 75.941336 L 61.260462 75.664057 L 61.105818 75.386469 L 60.951505 75.108561 L 60.797517 74.830324 L 60.643851 74.551748 L 60.490501 74.272823 L 60.337463 73.993537 L 60.184731 73.713882 L 60.032301 73.433846 L 59.880168 73.153419 L 59.728327 72.872592 L 59.576774 72.591352 L 59.425505 72.309690 L 59.274514 72.027596 L 59.123797 71.745057 L 58.973350 71.462065 L 58.823168 71.178607 L 58.673247 70.894673 L 58.523583 70.610252 L 58.374171 70.325333 L 58.225008 70.039905 L 58.076088 69.753957 L 57.927408 69.467478 L 57.778964 69.180455 L 57.630751 68.892878 L 57.482766 68.604736 L 57.335004 68.316016 L 57.187462 68.026708 L 57.040136 67.736799 L 56.893021 67.446277 L 56.746115 67.155131 L 56.599413 66.863349 L 56.452911 66.570918 L 56.306606 66.277826 L 56.160494 65.984062 L 56.014572 65.689612 L 55.868836 65.394464 L 55.723281 65.098606 L 55.577906 64.802025 L 55.432706 64.504708 L 55.287677 64.206641 L 55.142817 63.907813 L 54.998123 63.608210 L 54.853590 63.307818 L 54.709215 63.006624 L 54.564996 62.704616 L 54.420928 62.401778 L 54.277010 62.098097 L 54.133237 61.793560 L 53.989607 61.488152 L 53.846116 61.181859 L 53.702762 60.874667 L 53.559542 60.566561 L 53.416452 60.257527 L 53.273490 59.947550 L 53.130653 59.636615 L 52.987937 59.324706 L 52.845342 59.011810 L 52.702862 58.697910 L 52.560497 58.382991 L 52.418243 58.067038 L 52.276097 57.750033 L 52.134058 57.431962 L 51.992122 57.112808 L 51.850288 56.792555 L 51.708552 56.471185 L 51.566912 56.148683 L 51.425367 55.825032 L 51.283913 55.500214 L 51.142548 55.174211 L 51.001271 54.847007 L 50.860079 54.518584 L 50.718970 54.188923 L 50.577942 53.858007 L 50.436993 53.525817 L 50.296121 53.192334 L 50.155324 52.857540 L 50.014600 52.521416 L 49.873948 52.183942 L 49.733366 51.845099 L 49.592852 51.504867 L 49.452405 51.163226 L 49.312023 50.820156 L 49.171704 50.475636 L 49.031448 50.129646 L 48.891252 49.782164 L 48.751116 49.433169 L 48.611038 49.082639 L 48.471017 48.730554 L 48.331052 48.376889 L 48.191143 48.021624 L 48.051287 47.664735 L 47.911484 47.306198 L 47.771734 46.945992 L 47.632036 46.584092 L 47.492388 46.220473 L 47.352791 45.855113 L 47.213244 45.487985 L 47.073747 45.119065 L 46.934299 44.748328 L 46.794900 44.375748 L 46.655550 44.001298 L 46.516249 43.624952 L 46.376997 43.246684 L 46.237794 42.866466 L 46.098641 42.484271 L 45.959537 42.100070 L 45.820484 41.713834 L 45.681482 41.325536 L 45.542532 40.935146 L 45.403634 40.542634 L 45.264790 40.147970 L 45.126001 39.751123 L 44.987267 39.352063 L 44.848590 38.950757 L 44.709973 38.547173 L 44.571415 38.141280 L 44.432920 37.733044 L 44.294489 37.322431 L 44.156123 36.909408 L 44.017826 36.493939 L 43.879600 36.075991 L 43.741448 35.655526 L 43.603371 35.232509 L 43.465373 34.806902 L 43.327457 34.378670 L 43.189627 33.947772 L 43.051886 33.514171 L 42.914237 33.077828 L 42.776685 32.638702 L 42.639234 32.196754 L 42.501887 31.751940 L 42.364650 31.304221 L 42.227527 30.853552 L 42.090524 30.399892 L 41.953646 29.943194 L 41.816898 29.483416 L 41.680286 29.020511 L 41.543816 28.554433 L 41.407496 28.085134 L 41.271330 27.612567 L 41.135327 27.136683 L 40.999494 26.657432 L 40.863838 26.174764 L 40.728368 25.688627 L 40.593091 25.198969 L 40.458017 24.705736 L 40.323155 24.208875 L 40.188513 23.708331 L 40.054103 23.204046 L 39.919934 22.695965 L 39.786017 22.184028 L 39.652363 21.668177 L 39.518983 21.148351 L 39.385891 20.624489 L 39.253098 20.096528 L 39.120617 19.564405 L 38.988463 19.028054 L 38.856649 18.487409 L 38.815545 18.317000" fill="none" id="tattoo-path-afc6eded81088d63" stroke="#000000" stroke-linecap="round" stroke-linejoin="round" stroke-width="2.200000"/>
  <path clip-path="url(#tattoo-band-layer-clip)" d="M 130.215253 99.691720 L 129.756482 99.446041 L 129.268316 99.184873 L 128.783797 98.925904 L 128.302866 98.669098 L 127.825465 98.414417 L 127.351538 98.161827 L 126.881030 97.911292 L 126.413885 97.662779 L 125.950051 97.416253 L 125.489475 97.171682 L 125.032105 96.929035 L 124.577891 96.688278 L 124.126785 96.449382 L 123.678736 96.212317 L 123.233697 95.977052 L 122.791621 95.743558 L 122.352463 95.511808 L 121.916176 95.281772 L 121.482717 95.053424 L 121.052043 94.826737 L 120.624109 94.601685 L 120.198874 94.378240 L 119.776296 94.156379 L 119.356336 93.936075 L 118.938952 93.717305 L 118.524105 93.500045 L 118.111758 93.284271 L 117.701872 93.069959 L 117.294409 92.857088 L 116.889333 92.645634 L 116.486608 92.435576 L 116.086198 92.226893 L 115.688068 92.019562 L 115.292184 91.813564 L 114.898512 91.608878 L 114.507019 91.405483 L 114.117672 91.203361 L 113.730439 91.002492 L 113.345288 90.802856 L 112.962188 90.604435 L 112.581108 90.407210 L 112.202018 90.211165 L 111.824888 90.016279 L 111.449689 89.822537 L 111.076391 89.629921 L 110.704967 89.438414 L 110.335389 89.247999 L 109.967628 89.058661 L 109.601657 88.870382 L 109.237450 88.683147 L 108.874980 88.496940 L 108.514222 88.311747 L 108.155149 88.127551 L 107.797736 87.944338 L 107.441959 87.762094 L 107.087792 87.580803 L 106.735212 87.400453 L 106.384194 87.221027 L 106.034715 87.042514 L 105.686752 86.864899 L 105.340281 86.688169 L 104.995281 86.512311 L 104.651728 86.337312 L 104.309601 86.163159 L 103.968878 85.989839 L 103.629537 85.817340 L 103.291557 85.645650 L 102.954918 85.474756 L 102.619599 85.304647 L 102.285579 85.135311 L 101.952838 84.966737 L 101.621356 84.798913 L 101.291114 84.631827 L 100.962092 84.465469 L 100.634271 84.299828 L 100.307633 84.134893 L 99.982158 83.970653 L 99.657827 83.807098 L 99.334624 83.644217 L 99.012529 83.482000 L 98.691524 83.320438 L 98.371593 83.159519 L 98.052718 82.999235 L 97.734881 82.839575 L 97.418065 82.680529 L 97.102253 82.522090 L 96.787429 82.364246 L 96.473577 82.206989 L 96.160679 82.050309 L 95.848720 81.894198 L 95.537684 81.738647 L 95.227555 81.583646 L 94.918316 81.429188 L 94.609954 81.275263 L 94.302451 81.121863 L 93.995794 80.968979 L 93.689967 80.816604 L 93.384954 80.664728 L 93.080742 80.513345 L 92.777316 80.362445 L 92.474660 80.212021 L 92.172762 80.062064 L 91.871605 79.912568 L 91.571177 79.763525 L 91.271464 79.614926 L 90.972451 79.466764 L 90.674124 79.319032 L 90.376471 79.171723 L 90.079477 79.024828 L 89.783129 78.878342 L 89.487414 78.732255 L 89.192318 78.586563 L 88.897829 78.441256 L 88.603933 78.296329 L 88.310617 78.151775 L 88.017869 78.007586 L 87.725677 77.863756 L 87.434026 77.720278 L 87.142905 77.577146 L 86.852301 77.434352 L 86.562203 77.291891 L 86.272596 77.149755 L 85.983470 77.007939 L 85.694813 76.866435 L 85.406611 76.725238 L 85.118854 76.584342 L 84.831528 76.443739 L 84.544623 76.303424 L 84.258127 76.163391 L 83.972027 76.023634 L 83.686313 75.884146 L 83.400972 75.744921 L 83.115993 75.605954 L 82.831364 75.467239 L 82.547075 75.328769 L 82.263113 75.190539 L 81.979468 75.052543 L 81.696127 74.914776 L 81.413081 74.777231 L 81.130317 74.639902 L 80.847825 74.502785 L 80.565592 74.365873 L 80.283610 74.229161 L 80.001865 74.092643 L 79.720348 73.956314 L 79.439047 73.820169 L 79.157952 73.684201 L 78.877051 73.548405 L 78.596334 73.412776 L 78.315789 73.277309 L 78.035407 73.141997 L 77.755175 73.006837 L 77.475085 72.871821 L 77.195124 72.736946 L 76.915282 72.602206 L 76.635548 72.467594 L 76.355912 72.333108 L 76.076364 72.198740 L 75.796891 72.064486 L 75.517484 71.930340 L 75.238132 71.796298 L 74.958825 71.662354 L 74.679551 71.528504 L 74.400301 71.394741 L 74.121063 71.261061 L 73.841827 71.127459 L 73.562582 70.993929 L 73.283319 70.860467 L 73.004025 70.727067 L 72.724691 70.593725 L 72.445306 70.460436 L 72.165859 70.327193 L 71.886340 70.193993 L 71.606738 70.060830 L 71.327042 69.927699 L 71.047242 69.794595 L 70.767326 69.661514 L 70.487285 69.528449 L 70.207108 69.395397 L 69.926783 69.262352 L 69.646301 69.129309 L 69.365649 68.996263 L 69.084818 68.863209 L 68.803796 68.730142 L 68.522573 68.597057 L 68.241138 68.463949 L 67.959480 68.330813 L 67.677587 68.197644 L 67.395450 68.064437 L 67.113056 67.931187 L 66.830394 67.797889 L 66.547454 67.664538 L 66.264225 67.531128 L 65.980695 67.397655 L 65.696852 67.264114 L 65.412686 67.130499 L 65.128186 66.996806 L 64.843339 66.863029 L 64.558134 66.729163 L 64.272560 66.595204 L 63.986606 66.461145 L 63.700259 66.326982 L 63.413507 66.192710 L 63.126340 66.058323 L 62.838745 65.923816 L 62.550711 65.789184 L 62.262224 65.654422 L 61.973274 65.519525 L 61.683848 65.384486 L 61.393935 65.249302 L 61.103521 65.113965 L 60.812594 64.978473 L 60.521142 64.842817 L 60.229153 64.706995 L 59.936613 64.570999 L 59.643510 64.434824 L 59.349832 64.298466 L 59.055565 64.161918 L 58.760697 64.025175 L 58.465214 63.888232 L 58.169103 63.751082 L 57.872351 63.613720 L 57.574945 63.476141 L 57.276870 63.338338 L 56.978114 63.200307 L 56.678663 63.062041 L 56.378502 62.923534 L 56.077619 62.784781 L 55.775998 62.645776 L 55.473625 62.506512 L 55.170487 62.366984 L 54.866569 62.227186 L 54.561856 62.087112 L 54.256333 61.946755 L 53.949986 61.806110 L 53.642799 61.665170 L 53.334758 61.523930 L 53.025846 61.382382 L 52.716050 61.240520 L 52.405352 61.098339 L 52.093737 60.955831 L 51.781190 60.812990 L 51.467694 60.669810 L 51.153232 60.526284 L 50.837789 60.382405 L 50.521348 60.238167 L 50.203891 60.093563 L 49.885403 59.948585 L 49.565865 59.803228 L 49.245261 59.657483 L 48.923572 59.511345 L 48.600781 59.364806 L 48.276870 59.217858 L 47.951821 59.070495 L 47.625615 58.922709 L 47.298235 58.774493 L 46.969660 58.625840 L 46.639871 58.476741 L 46.308850 58.327190 L 45.976578 58.177178 L 45.643033 58.026698 L 45.308196 57.875741 L 44.972047 57.724301 L 44.634565 57.572368 L 44.295730 57.419936 L 43.955520 57.266995 L 43.613914 57.113537 L 43.270890 56.959554 L 42.926426 56.805038 L 42.580501 56.649979 L 42.233091 56.494369 L 41.884174 56.338200 L 41.533726 56.181463 L 41.181724 56.024147 L 40.828145 55.866245 L 40.472963 55.707747 L 40.116156 55.548644 L 39.757697 55.388926 L 39.397562 55.228584 L 39.035725 55.067608 L 38.672160 54.905989 L 38.306841 54.743715 L 37.939741 54.580778 L 37.570834 54.417167 L 37.200091 54.252872 L 36.827485 54.087881 L 36.452987 53.922186 L 36.076569 53.755774 L 35.698201 53.588636 L 35.317854 53.420759 L 34.935498 53.252133 L 34.551102 53.082746 L 34.164636 52.912588 L 33.776067 52.741645 L 33.385363 52.569907 L 32.992492 52.397362 L 32.597421 52.223996 L 32.200117 52.049799 L 31.800544 51.874757 L 31.398669 51.698857 L 30.994455 51.522087 L 30.587868 51.344434 L 30.178870 51.165885 L 29.767424 50.986425 L 29.353494 50.806041 L 28.937039 50.624720 L 28.518021 50.442447 L 28.096401 50.259208 L 27.672138 50.074988 L 27.245190 49.889773 L 26.815516 49.703548 L 26.383074 49.516297 L 25.947819 49.328004 L 25.509708 49.138655 L 25.068696 48.948233 L 24.624737 48.756722 L 24.177784 48.564106 L 23.727790 48.370367 L 23.274707 48.175489 L 22.818485 47.979454 L 22.359074 47.782244 L 21.896423 47.583843 L 21.430479 47.384231 L 20.961191 47.183390 L 20.488503 46.981301 L 20.012361 46.777946 L 19.532708 46.573304 L 19.049487 46.367356 L 18.562640 46.160081 L 18.072106 45.951459 L 17.577826 45.741470 L 17.079737 45.530091 L 16.577776 45.317302 L 16.071878 45.103079 L 15.561978 44.887402 L 15.082598 44.684861" fill="none" id="tattoo-path-0294d257baea0bc3" stroke="#000000" stroke-linecap="round" stroke-linejoin="round" stroke-width="1.900000"/>
  <path clip-path="url(#tattoo-band-layer-clip)" d="M 12.247338 93.477528 L 12.721698 93.276896 L 13.231755 93.061471 L 13.738005 92.847956 L 14.240508 92.636317 L 14.739325 92.426523 L 15.234515 92.218542 L 15.726136 92.012344 L 16.214244 91.807898 L 16.698895 91.605174 L 17.180144 91.404145 L 17.658045 91.204782 L 18.132649 91.007057 L 18.604010 90.810943 L 19.072177 90.616413 L 19.537200 90.423442 L 19.999128 90.232004 L 20.458010 90.042073 L 20.913892 89.853627 L 21.366821 89.666639 L 21.816842 89.481088 L 22.264001 89.296949 L 22.708340 89.114201 L 23.149904 88.932821 L 23.588734 88.752787 L 24.024872 88.574077 L 24.458360 88.396672 L 24.889238 88.220550 L 25.317544 88.045691 L 25.743319 87.872075 L 26.166601 87.699684 L 26.587427 87.528497 L 27.005834 87.358496 L 27.421859 87.189663 L 27.835538 87.021980 L 28.246905 86.855428 L 28.655997 86.689992 L 29.062846 86.525652 L 29.467486 86.362393 L 29.869952 86.200199 L 30.270274 86.039052 L 30.668486 85.878937 L 31.064618 85.719839 L 31.458703 85.561741 L 31.850770 85.404630 L 32.240850 85.248489 L 32.628972 85.093305 L 33.015166 84.939062 L 33.399461 84.785748 L 33.781885 84.633347 L 34.162465 84.481847 L 34.541231 84.331233 L 34.918208 84.181493 L 35.293423 84.032614 L 35.666903 83.884583 L 36.038675 83.737386 L 36.408763 83.591013 L 36.777193 83.445450 L 37.143990 83.300686 L 37.509179 83.156709 L 37.872784 83.013507 L 38.234828 82.871068 L 38.595336 82.729382 L 38.954331 82.588438 L 39.311835 82.448224 L 39.667872 82.308729 L 40.022464 82.169944 L 40.375633 82.031857 L 40.727401 81.894459 L 41.077790 81.757739 L 41.426820 81.621686 L 41.774513 81.486293 L 42.120890 81.351548 L 42.465971 81.217442 L 42.809776 81.083965 L 43.152325 80.951109 L 43.493639 80.818864 L 43.833736 80.687222 L 44.172636 80.556172 L 44.510358 80.425707 L 44.846921 80.295818 L 45.182344 80.166495 L 45.516644 80.037732 L 45.849841 79.909519 L 46.181952 79.781848 L 46.512995 79.654712 L 46.842988 79.528101 L 47.171948 79.402009 L 47.499892 79.276427 L 47.826837 79.151348 L 48.152801 79.026764 L 48.477800 78.902668 L 48.801851 78.779052 L 49.124969 78.655908 L 49.447172 78.533231 L 49.768475 78.411012 L 50.088894 78.289244 L 50.408445 78.167921 L 50.727143 78.047036 L 51.045004 77.926582 L 51.362043 77.806551 L 51.678276 77.686938 L 51.993717 77.567736 L 52.308381 77.448939 L 52.622283 77.330539 L 52.935438 77.212531 L 53.247860 77.094909 L 53.559564 76.977665 L 53.870563 76.860795 L 54.180872 76.744292 L 54.490505 76.628149 L 54.799475 76.512361 L 55.107798 76.396923 L 55.415485 76.281828 L 55.722552 76.167070 L 56.029010 76.052644 L 56.334875 75.938545 L 56.640159 75.824765 L 56.944875 75.711301 L 57.249036 75.598147 L 57.552656 75.485296 L 57.855747 75.372744 L 58.158322 75.260486 L 58.460394 75.148515 L 58.761976 75.036828 L 59.063080 74.925418 L 59.363719 74.814281 L 59.663905 74.703411 L 59.963650 74.592803 L 60.262967 74.482453 L 60.561869 74.372356 L 60.860367 74.262506 L 61.158473 74.152898 L 61.456200 74.043528 L 61.753559 73.934391 L 62.050563 73.825483 L 62.347223 73.716797 L 62.643551 73.608331 L 62.939559 73.500078 L 63.235259 73.392035 L 63.530662 73.284197 L 63.825780 73.176559 L 64.120624 73.069117 L 64.415207 72.961867 L 64.709539 72.854803 L 65.003633 72.747921 L 65.297499 72.641217 L 65.591149 72.534687 L 65.884594 72.428326 L 66.177846 72.322130 L 66.470916 72.216094 L 66.763815 72.110215 L 67.056554 72.004488 L 67.349145 71.898908 L 67.641599 71.793472 L 67.933927 71.688176 L 68.226141 71.583015 L 68.518251 71.477985 L 68.810268 71.373081 L 69.102204 71.268301 L 69.394070 71.163639 L 69.685876 71.059092 L 69.977635 70.954656 L 70.269356 70.850326 L 70.561052 70.746099 L 70.852733 70.641971 L 71.144410 70.537937 L 71.436094 70.433993 L 71.727797 70.330137 L 72.019529 70.226363 L 72.311302 70.122667 L 72.603126 70.019047 L 72.895013 69.915498 L 73.186974 69.812015 L 73.479019 69.708596 L 73.771161 69.605236 L 74.063410 69.501932 L 74.355777 69.398679 L 74.648273 69.295473 L 74.940910 69.192312 L 75.233700 69.089191 L 75.526652 68.986105 L 75.819778 68.883052 L 76.113090 68.780028 L 76.406600 68.677028 L 76.700317 68.574049 L 76.994254 68.471087 L 77.288423 68.368139 L 77.582834 68.265199 L 77.877499 68.162266 L 78.172429 68.059334 L 78.467637 67.956401 L 78.763133 67.853461 L 79.058930 67.750512 L 79.355039 67.647550 L 79.651472 67.544570 L 79.948240 67.441570 L 80.245356 67.338545 L 80.542831 67.235491 L 80.840678 67.132404 L 81.138908 67.029282 L 81.437533 66.926119 L 81.736566 66.822912 L 82.036019 66.719658 L 82.335903 66.616352 L 82.636232 66.512991 L 82.937018 66.409570 L 83.238274 66.306086 L 83.540011 66.202535 L 83.842242 66.098913 L 84.144981 65.995216 L 84.448239 65.891441 L 84.752031 65.787583 L 85.056368 65.683638 L 85.361264 65.579603 L 85.666732 65.475473 L 85.972785 65.371245 L 86.279437 65.266914 L 86.586701 65.162477 L 86.894590 65.057930 L 87.203118 64.953268 L 87.512299 64.848487 L 87.822147 64.743584 L 88.132676 64.638555 L 88.443899 64.533394 L 88.755831 64.428099 L 89.068486 64.322664 L 89.381879 64.217087 L 89.696023 64.111362 L 90.010935 64.005485 L 90.326628 63.899453 L 90.643118 63.793261 L 90.960419 63.686905 L 91.278547 63.580380 L 91.597517 63.473682 L 91.917345 63.366807 L 92.238046 63.259750 L 92.559636 63.152507 L 92.882132 63.045074 L 93.205548 62.937446 L 93.529901 62.829619 L 93.855209 62.721587 L 94.181486 62.613348 L 94.508751 62.504895 L 94.837021 62.396225 L 95.166311 62.287332 L 95.496640 62.178213 L 95.828025 62.068862 L 96.160484 61.959275 L 96.494034 61.849446 L 96.828694 61.739372 L 97.164483 61.629047 L 97.501417 61.518466 L 97.839518 61.407624 L 98.178802 61.296517 L 98.519290 61.185140 L 98.861000 61.073486 L 99.203953 60.961552 L 99.548168 60.849332 L 99.893665 60.736820 L 100.240465 60.624013 L 100.588589 60.510903 L 100.938056 60.397487 L 101.288889 60.283758 L 101.641108 60.169711 L 101.994736 60.055342 L 102.349794 59.940643 L 102.706305 59.825610 L 103.064290 59.710236 L 103.423773 59.594517 L 103.784777 59.478447 L 104.147326 59.362019 L 104.511442 59.245227 L 104.877151 59.128067 L 105.244477 59.010531 L 105.613443 58.892615 L 105.984077 58.774310 L 106.356402 58.655612 L 106.730444 58.536515 L 107.106231 58.417011 L 107.483788 58.297095 L 107.863143 58.176759 L 108.244322 58.055998 L 108.627353 57.934805 L 109.012265 57.813173 L 109.399086 57.691095 L 109.787846 57.568565 L 110.178573 57.445575 L 110.571297 57.322119 L 110.966049 57.198189 L 111.362860 57.073779 L 111.761760 56.948880 L 112.162782 56.823487 L 112.565958 56.697590 L 112.971320 56.571183 L 113.378903 56.444259 L 113.788739 56.316808 L 114.200863 56.188824 L 114.615311 56.060299 L 115.032117 55.931224 L 115.451318 55.801592 L 115.872950 55.671394 L 116.297050 55.540622 L 116.723657 55.409268 L 117.152810 55.277322 L 117.584546 55.144777 L 118.018907 55.011623 L 118.455933 54.877852 L 118.895665 54.743454 L 119.338144 54.608420 L 119.783415 54.472742 L 120.231520 54.336410 L 120.682503 54.199413 L 121.136409 54.061744 L 121.593285 53.923391 L 122.053177 53.784345 L 122.516133 53.644595 L 122.982200 53.504132 L 123.451428 53.362946 L 123.923868 53.221025 L 124.399570 53.078359 L 124.878586 52.934937 L 125.360970 52.790749 L 125.846775 52.645782 L 126.336057 52.500026 L 126.828871 52.353470 L 127.325275 52.206101 L 127.825328 52.057909 L 128.329087 51.908880 L 128.836615 51.759003 L 129.347973 51.608265 L 129.863224 51.456654 L 130.382432 51.304157 L 130.905662 51.150761 L 131.432982 50.996453 L 131.964460 50.841220 L 132.458922 50.697072" fill="none" id="tattoo-path-6825eb436840dc47" stroke="#000000" stroke-linecap="round" stroke-linejoin="round" stroke-width="1.600000"/>
  <path clip-path="url(#tattoo-band-layer-clip)" d="M 55.793768 134.073873 L 55.459786 133.645437 L 55.120700 133.204786 L 54.785926 132.764078 L 54.455422 132.323334 L 54.129145 131.882579 L 53.807056 131.441834 L 53.489112 131.001120 L 53.175273 130.560459 L 52.865500 130.119870 L 52.559754 129.679373 L 52.257994 129.238987 L 51.960182 128.798730 L 51.666281 128.358620 L 51.376252 127.918673 L 51.090057 127.478905 L 50.807661 127.039333 L 50.529025 126.599973 L 50.254115 126.160838 L 49.982894 125.721942 L 49.715327 125.283301 L 49.451379 124.844926 L 49.191016 124.406831 L 48.934203 123.969028 L 48.680907 123.531528 L 48.431095 123.094343 L 48.184734 122.657484 L 47.941791 122.220962 L 47.702233 121.784785 L 47.466031 121.348965 L 47.233151 120.913510 L 47.003564 120.478429 L 46.777239 120.043730 L 46.554145 119.609422 L 46.334253 119.175513 L 46.117534 118.742009 L 45.903959 118.308919 L 45.693498 117.876248 L 45.486124 117.444003 L 45.281809 117.012190 L 45.080526 116.580815 L 44.882246 116.149883 L 44.686944 115.719400 L 44.494593 115.289370 L 44.305168 114.859798 L 44.118641 114.430689 L 43.934989 114.002047 L 43.754185 113.573874 L 43.576205 113.146176 L 43.401026 112.718955 L 43.228622 112.292215 L 43.058971 111.865957 L 42.892048 111.440186 L 42.727832 111.014904 L 42.566299 110.590111 L 42.407426 110.165812 L 42.251193 109.742007 L 42.097577 109.318698 L 41.946556 108.895887 L 41.798110 108.473575 L 41.652218 108.051762 L 41.508860 107.630450 L 41.368015 107.209640 L 41.229663 106.789332 L 41.093785 106.369526 L 40.960362 105.950223 L 40.829374 105.531423 L 40.700803 105.113126 L 40.574630 104.695331 L 40.450838 104.278039 L 40.329408 103.861248 L 40.210323 103.444958 L 40.093566 103.029169 L 39.979119 102.613879 L 39.866967 102.199087 L 39.757091 101.784794 L 39.649477 101.370996 L 39.544108 100.957693 L 39.440969 100.544884 L 39.340044 100.132567 L 39.241317 99.720740 L 39.144775 99.309402 L 39.050402 98.898550 L 38.958184 98.488183 L 38.868107 98.078299 L 38.780157 97.668896 L 38.694320 97.259971 L 38.610582 96.851522 L 38.528932 96.443547 L 38.449354 96.036044 L 38.371838 95.629010 L 38.296370 95.222442 L 38.222938 94.816338 L 38.151530 94.410695 L 38.082135 94.005511 L 38.014740 93.600782 L 37.949334 93.196505 L 37.885907 92.792678 L 37.824446 92.389298 L 37.764943 91.986361 L 37.707385 91.583865 L 37.651763 91.181806 L 37.598066 90.780181 L 37.546286 90.378987 L 37.496411 89.978221 L 37.448434 89.577879 L 37.402343 89.177957 L 37.358132 88.778453 L 37.315789 88.379363 L 37.275308 87.980684 L 37.236680 87.582411 L 37.199895 87.184541 L 37.164947 86.787071 L 37.131827 86.389997 L 37.100529 85.993316 L 37.071043 85.597023 L 37.043363 85.201116 L 37.017483 84.805589 L 36.993394 84.410440 L 36.971091 84.015665 L 36.950567 83.621259 L 36.931815 83.227220 L 36.914830 82.833543 L 36.899605 82.440224 L 36.886134 82.047260 L 36.874413 81.654646 L 36.864435 81.262379 L 36.856196 80.870454 L 36.849690 80.478868 L 36.844912 80.087617 L 36.841857 79.696697 L 36.840522 79.306104 L 36.840902 78.915834 L 36.842992 78.525883 L 36.846789 78.136247 L 36.852288 77.746921 L 36.859486 77.357903 L 36.868380 76.969188 L 36.878966 76.580772 L 36.891240 76.192650 L 36.905201 75.804820 L 36.920844 75.417277 L 36.938168 75.030016 L 36.957170 74.643035 L 36.977847 74.256329 L 37.000198 73.869894 L 37.024220 73.483726 L 37.049911 73.097821 L 37.077270 72.712175 L 37.106295 72.326785 L 37.136985 71.941645 L 37.169339 71.556753 L 37.203355 71.172105 L 37.239033 70.787696 L 37.276372 70.403522 L 37.315372 70.019581 L 37.356031 69.635867 L 37.398350 69.252377 L 37.442329 68.869108 L 37.487968 68.486054 L 37.535266 68.103214 L 37.584225 67.720582 L 37.634845 67.338155 L 37.687127 66.955929 L 37.741071 66.573901 L 37.796678 66.192067 L 37.853951 65.810423 L 37.912889 65.428966 L 37.973495 65.047692 L 38.035770 64.666597 L 38.099717 64.285678 L 38.165336 63.904931 L 38.232631 63.524353 L 38.301603 63.143940 L 38.372255 62.763688 L 38.444590 62.383596 L 38.518610 62.003658 L 38.594319 61.623872 L 38.671719 61.244234 L 38.750813 60.864742 L 38.831606 60.485391 L 38.914101 60.106179 L 38.998301 59.727102 L 39.084210 59.348157 L 39.171832 58.969342 L 39.261173 58.590653 L 39.352235 58.212087 L 39.445024 57.833642 L 39.539545 57.455314 L 39.635801 57.077100 L 39.733799 56.698998 L 39.833544 56.321005 L 39.935040 55.943118 L 40.038294 55.565334 L 40.143311 55.187652 L 40.250097 54.810067 L 40.358658 54.432579 L 40.469000 54.055184 L 40.581130 53.677880 L 40.695055 53.300665 L 40.810780 52.923536 L 40.928314 52.546491 L 41.047662 52.169528 L 41.168833 51.792645 L 41.291834 51.415841 L 41.416672 51.039112 L 41.543355 50.662457 L 41.671891 50.285875 L 41.802288 49.909363 L 41.934555 49.532921 L 42.068700 49.156545 L 42.204732 48.780236 L 42.342659 48.403991 L 42.482491 48.027809 L 42.624237 47.651689 L 42.767907 47.275630 L 42.913509 46.899630 L 43.061053 46.523689 L 43.210551 46.147805 L 43.362011 45.771979 L 43.515444 45.396209 L 43.670862 45.020494 L 43.828273 44.644834 L 43.987690 44.269229 L 44.149124 43.893678 L 44.312585 43.518181 L 44.478086 43.142739 L 44.645638 42.767350 L 44.815253 42.392016 L 44.986944 42.016736 L 45.160722 41.641510 L 45.336599 41.266340 L 45.514590 40.891226 L 45.694707 40.516168 L 45.876962 40.141168 L 46.061370 39.766226 L 46.247943 39.391344 L 46.436696 39.016523 L 46.627643 38.641763 L 46.820798 38.267068 L 47.016175 37.892438 L 47.213789 37.517876 L 47.413655 37.143383 L 47.615788 36.768961 L 47.820204 36.394614 L 48.026917 36.020343 L 48.235943 35.646151 L 48.447300 35.272040 L 48.661002 34.898015 L 48.877067 34.524078 L 49.095511 34.150232 L 49.316350 33.776481 L 49.539603 33.402829 L 49.765287 33.029280 L 49.993418 32.655838 L 50.224016 32.282507 L 50.457098 31.909291 L 50.692683 31.536197 L 50.930788 31.163228 L 51.171434 30.790390 L 51.414639 30.417688 L 51.660423 30.045128 L 51.908804 29.672717 L 52.159804 29.300459 L 52.413442 28.928362 L 52.669738 28.556433 L 52.928714 28.184677 L 53.190389 27.813103 L 53.454786 27.441718 L 53.721926 27.070530 L 53.991829 26.699547 L 54.264519 26.328776 L 54.540018 25.958228 L 54.818347 25.587910 L 55.099530 25.217832 L 55.383590 24.848004 L 55.670549 24.478435 L 55.960432 24.109136 L 56.253263 23.740118 L 56.549065 23.371391 L 56.847863 23.002966 L 57.149681 22.634855 L 57.454545 22.267071 L 57.762479 21.899626 L 58.073509 21.532532 L 58.387662 21.165802 L 58.704962 20.799451 L 59.025436 20.433493 L 59.349112 20.067940 L 59.676015 19.702810 L 60.006173 19.338116 L 60.339614 18.973876 L 60.676364 18.610104 L 61.016453 18.246817 L 61.359909 17.884034 L 61.706759 17.521771 L 62.057033 17.160046 L 62.410761 16.798879 L 62.767971 16.438289 L 63.128693 16.078295 L 63.492958 15.718917 L 63.860795 15.360177 L 64.232235 15.002096 L 64.607309 14.644696 L 64.986048 14.288000 L 65.368483 13.932030 L 65.754646 13.576811 L 66.144569 13.222367 L 66.538285 12.868724 L 66.935825 12.515907 L 67.337222 12.163942 L 67.742509 11.812857 L 68.151720 11.462680 L 68.564888 11.113439 L 68.982047 10.765164 L 69.403230 10.417885 L 69.828472 10.071633 L 70.257808 9.726438 L 70.691271 9.382335 L 71.128897 9.039355 L 71.558556 8.706946" fill="none" id="tattoo-path-551725cb991066fd" stroke="#000000" stroke-linecap="round" stroke-linejoin="round" stroke-width="1.200000"/>
  <path clip-path="url(#tattoo-band-layer-clip)" d="M 82.567805 135.500629 L 83.036098 135.212086 L 83.508507 134.916265 L 83.977379 134.617925 L 84.442721 134.317101 L 84.904540 134.013833 L 85.362843 133.708156 L 85.817637 133.400108 L 86.268929 133.089724 L 86.716727 132.777039 L 87.161038 132.462089 L 87.601871 132.144908 L 88.039232 131.825530 L 88.473132 131.503988 L 88.903577 131.180316 L 89.330577 130.854546 L 89.754139 130.526710 L 90.174274 130.196840 L 90.590989 129.864968 L 91.004294 129.531123 L 91.414198 129.195336 L 91.820711 128.857638 L 92.223841 128.518057 L 92.623598 128.176624 L 93.019991 127.833365 L 93.413031 127.488310 L 93.802727 127.141486 L 94.189088 126.792921 L 94.572125 126.442642 L 94.951848 126.090675 L 95.328266 125.737047 L 95.701389 125.381783 L 96.071227 125.024909 L 96.437791 124.666450 L 96.801091 124.306430 L 97.161136 123.944874 L 97.517938 123.581806 L 97.871505 123.217249 L 98.221848 122.851226 L 98.568978 122.483761 L 98.912905 122.114876 L 99.253638 121.744593 L 99.591189 121.372933 L 99.925566 120.999919 L 100.256782 120.625572 L 100.584844 120.249912 L 100.909765 119.872959 L 101.231553 119.494735 L 101.550220 119.115259 L 101.865775 118.734550 L 102.178228 118.352628 L 102.487589 117.969512 L 102.793868 117.585220 L 103.097076 117.199771 L 103.397222 116.813183 L 103.694315 116.425473 L 103.988366 116.036660 L 104.279385 115.646760 L 104.567382 115.255790 L 104.852365 114.863767 L 105.134344 114.470708 L 105.413330 114.076629 L 105.689331 113.681545 L 105.962357 113.285472 L 106.232417 112.888427 L 106.499521 112.490423 L 106.763677 112.091475 L 107.024896 111.691599 L 107.283185 111.290809 L 107.538555 110.889120 L 107.791013 110.486544 L 108.040569 110.083096 L 108.287231 109.678790 L 108.531008 109.273638 L 108.771909 108.867655 L 109.009942 108.460852 L 109.245115 108.053243 L 109.477438 107.644839 L 109.706917 107.235654 L 109.933561 106.825700 L 110.157379 106.414987 L 110.378378 106.003529 L 110.596565 105.591337 L 110.811950 105.178421 L 111.024538 104.764793 L 111.234339 104.350465 L 111.441358 103.935446 L 111.645605 103.519748 L 111.847085 103.103381 L 112.045806 102.686356 L 112.241775 102.268682 L 112.434999 101.850369 L 112.625484 101.431428 L 112.813239 101.011868 L 112.998268 100.591699 L 113.180578 100.170929 L 113.360176 99.749569 L 113.537069 99.327628 L 113.711261 98.905113 L 113.882760 98.482035 L 114.051571 98.058401 L 114.217700 97.634221 L 114.381153 97.209503 L 114.541935 96.784255 L 114.700051 96.358486 L 114.855507 95.932203 L 115.008309 95.505414 L 115.158461 95.078128 L 115.305968 94.650351 L 115.450835 94.222092 L 115.593067 93.793359 L 115.732669 93.364158 L 115.869645 92.934497 L 116.003998 92.504383 L 116.135735 92.073823 L 116.264858 91.642825 L 116.391372 91.211394 L 116.515280 90.779539 L 116.636587 90.347266 L 116.755296 89.914581 L 116.871410 89.481491 L 116.984933 89.048003 L 117.095868 88.614122 L 117.204218 88.179857 L 117.309986 87.745211 L 117.413176 87.310193 L 117.513789 86.874808 L 117.611829 86.439062 L 117.707297 86.002961 L 117.800197 85.566511 L 117.890530 85.129719 L 117.978299 84.692589 L 118.063506 84.255128 L 118.146151 83.817341 L 118.226238 83.379235 L 118.303768 82.940814 L 118.378742 82.502085 L 118.451161 82.063052 L 118.521026 81.623722 L 118.588340 81.184100 L 118.653102 80.744192 L 118.715313 80.304002 L 118.774975 79.863536 L 118.832087 79.422800 L 118.886650 78.981799 L 118.938664 78.540538 L 118.988130 78.099022 L 119.035047 77.657257 L 119.079415 77.215248 L 119.121234 76.773000 L 119.160503 76.330519 L 119.197223 75.887809 L 119.231392 75.444875 L 119.263009 75.001724 L 119.292074 74.558359 L 119.318585 74.114787 L 119.342542 73.671012 L 119.363942 73.227040 L 119.382785 72.782875 L 119.399068 72.338523 L 119.412791 71.893990 L 119.423950 71.449279 L 119.432545 71.004397 L 119.438573 70.559348 L 119.442031 70.114139 L 119.442917 69.668773 L 119.441229 69.223257 L 119.436964 68.777596 L 119.430119 68.331794 L 119.420691 67.885858 L 119.408677 67.439793 L 119.394073 66.993603 L 119.376877 66.547295 L 119.357084 66.100875 L 119.334692 65.654346 L 119.309695 65.207716 L 119.282091 64.760990 L 119.251875 64.314172 L 119.219043 63.867270 L 119.183591 63.420289 L 119.145513 62.973234 L 119.104806 62.526111 L 119.061465 62.078927 L 119.015485 61.631687 L 118.966860 61.184397 L 118.915585 60.737064 L 118.861656 60.289693 L 118.805066 59.842291 L 118.745811 59.394864 L 118.683884 58.947419 L 118.619279 58.499961 L 118.551990 58.052498 L 118.482012 57.605036 L 118.409338 57.157582 L 118.333961 56.710142 L 118.255876 56.262724 L 118.175074 55.815334 L 118.091550 55.367979 L 118.005297 54.920667 L 117.916306 54.473406 L 117.824572 54.026201 L 117.730086 53.579061 L 117.632842 53.131994 L 117.532830 52.685006 L 117.430045 52.238107 L 117.324477 51.791303 L 117.216119 51.344604 L 117.104962 50.898016 L 116.990998 50.451549 L 116.874218 50.005210 L 116.754615 49.559009 L 116.632179 49.112954 L 116.506901 48.667054 L 116.378773 48.221318 L 116.247784 47.775755 L 116.113927 47.330375 L 115.977191 46.885186 L 115.837567 46.440198 L 115.695045 45.995422 L 115.549616 45.550867 L 115.401269 45.106543 L 115.249995 44.662461 L 115.095783 44.218630 L 114.938623 43.775062 L 114.778504 43.331767 L 114.615416 42.888757 L 114.449349 42.446042 L 114.280291 42.003633 L 114.108232 41.561543 L 113.933160 41.119782 L 113.755065 40.678364 L 113.573934 40.237300 L 113.389757 39.796602 L 113.202522 39.356283 L 113.012218 38.916356 L 112.818832 38.476834 L 112.622353 38.037729 L 112.422769 37.599056 L 112.220067 37.160829 L 112.014236 36.723060 L 111.805263 36.285764 L 111.593135 35.848957 L 111.377841 35.412651 L 111.159367 34.976863 L 110.937701 34.541607 L 110.712830 34.106899 L 110.484741 33.672755 L 110.253422 33.239190 L 110.018857 32.806221 L 109.781036 32.373865 L 109.539944 31.942137 L 109.295568 31.511056 L 109.047894 31.080639 L 108.796909 30.650903 L 108.542600 30.221866 L 108.284952 29.793547 L 108.023952 29.365965 L 107.759585 28.939138 L 107.491839 28.513085 L 107.220698 28.087827 L 106.946150 27.663383 L 106.668179 27.239773 L 106.386771 26.817019 L 106.101913 26.395140 L 105.813590 25.974159 L 105.521788 25.554096 L 105.226492 25.134975 L 104.927688 24.716818 L 104.625361 24.299646 L 104.319497 23.883485 L 104.010082 23.468356 L 103.697100 23.054284 L 103.380538 22.641294 L 103.060380 22.229410 L 102.736613 21.818657 L 102.409221 21.409061 L 102.078190 21.000647 L 101.743506 20.593443 L 101.405153 20.187476 L 101.063117 19.782771 L 100.717385 19.379358 L 100.367940 18.977264 L 100.014769 18.576518 L 99.657857 18.177149 L 99.297190 17.779186 L 98.932754 17.382661 L 98.564533 16.987602 L 98.192515 16.594041 L 97.816684 16.202010 L 97.437027 15.811540 L 97.053530 15.422664 L 96.666178 15.035416 L 96.274959 14.649827 L 95.879857 14.265933 L 95.480860 13.883768 L 95.077955 13.503367 L 94.671127 13.124765 L 94.260364 12.747999 L 93.852323 12.379136" fill="none" id="tattoo-path-b57745298f219a60" stroke="#000000" stroke-linecap="round" stroke-linejoin="round" stroke-width="1.000000"/>
  <path clip-path="url(#tattoo-band-layer-clip)" d="M 100.118436 130.012277 L 99.896506 129.532571 L 99.664017 129.030191 L 99.433260 128.531700 L 99.204208 128.037035 L 98.976832 127.546132 L 98.751107 127.058932 L 98.527005 126.575373 L 98.304501 126.095397 L 98.083569 125.618946 L 97.864185 125.145964 L 97.646324 124.676394 L 97.429961 124.210183 L 97.215075 123.747277 L 97.001640 123.287624 L 96.789635 122.831171 L 96.579038 122.377869 L 96.369826 121.927668 L 96.161978 121.480520 L 95.955473 121.036376 L 95.750290 120.595189 L 95.546408 120.156914 L 95.343809 119.721506 L 95.142471 119.288919 L 94.942376 118.859110 L 94.743505 118.432037 L 94.545839 118.007657 L 94.349359 117.585929 L 94.154048 117.166812 L 93.959888 116.750266 L 93.766861 116.336252 L 93.574950 115.924731 L 93.384139 115.515665 L 93.194411 115.109018 L 93.005749 114.704751 L 92.818137 114.302829 L 92.631559 113.903217 L 92.446001 113.505880 L 92.261446 113.110783 L 92.077880 112.717893 L 91.895287 112.327175 L 91.713654 111.938598 L 91.532965 111.552130 L 91.353207 111.167738 L 91.174365 110.785391 L 90.996426 110.405059 L 90.819376 110.026711 L 90.643202 109.650318 L 90.467892 109.275850 L 90.293431 108.903279 L 90.119807 108.532575 L 89.947007 108.163712 L 89.775020 107.796661 L 89.603833 107.431394 L 89.433434 107.067887 L 89.263811 106.706111 L 89.094952 106.346041 L 88.926846 105.987652 L 88.759482 105.630917 L 88.592848 105.275813 L 88.426933 104.922314 L 88.261727 104.570396 L 88.097217 104.220036 L 87.933395 103.871209 L 87.770250 103.523893 L 87.607770 103.178065 L 87.445946 102.833702 L 87.284768 102.490781 L 87.124226 102.149281 L 86.964309 101.809180 L 86.805009 101.470457 L 86.646316 101.133090 L 86.488220 100.797058 L 86.330712 100.462341 L 86.173783 100.128919 L 86.017423 99.796771 L 85.861624 99.465877 L 85.706376 99.136219 L 85.551671 98.807775 L 85.397501 98.480529 L 85.243856 98.154459 L 85.090728 97.829548 L 84.938109 97.505778 L 84.785990 97.183129 L 84.634363 96.861585 L 84.483220 96.541126 L 84.332553 96.221736 L 84.182354 95.903398 L 84.032616 95.586093 L 83.883330 95.269804 L 83.734488 94.954516 L 83.586084 94.640211 L 83.438109 94.326872 L 83.290556 94.014484 L 83.143418 93.703031 L 82.996687 93.392495 L 82.850356 93.082862 L 82.704419 92.774116 L 82.558867 92.466241 L 82.413694 92.159222 L 82.268892 91.853043 L 82.124456 91.547691 L 81.980377 91.243149 L 81.836650 90.939403 L 81.693267 90.636438 L 81.550222 90.334240 L 81.407509 90.032795 L 81.265120 89.732087 L 81.123049 89.432104 L 80.981290 89.132831 L 80.839836 88.834254 L 80.698681 88.536360 L 80.557819 88.239135 L 80.417243 87.942565 L 80.276948 87.646636 L 80.136926 87.351337 L 79.997173 87.056653 L 79.857681 86.762571 L 79.718445 86.469078 L 79.579459 86.176162 L 79.440717 85.883809 L 79.302213 85.592007 L 79.163941 85.300743 L 79.025895 85.010005 L 78.888070 84.719780 L 78.750460 84.430056 L 78.613058 84.140820 L 78.475860 83.852061 L 78.338860 83.563766 L 78.202051 83.275923 L 78.065429 82.988520 L 77.928988 82.701545 L 77.792723 82.414986 L 77.656627 82.128832 L 77.520695 81.843071 L 77.384923 81.557691 L 77.249304 81.272681 L 77.113833 80.988028 L 76.978504 80.703722 L 76.843313 80.419751 L 76.708254 80.136103 L 76.573321 79.852768 L 76.438510 79.569734 L 76.303815 79.286990 L 76.169230 79.004524 L 76.034751 78.722326 L 75.900372 78.440384 L 75.766089 78.158688 L 75.631895 77.877226 L 75.497786 77.595987 L 75.363756 77.314960 L 75.229801 77.034135 L 75.095914 76.753500 L 74.962092 76.473045 L 74.828329 76.192758 L 74.694619 75.912630 L 74.560959 75.632648 L 74.427341 75.352804 L 74.293762 75.073084 L 74.160217 74.793480 L 74.026699 74.513980 L 73.893205 74.234573 L 73.759729 73.955250 L 73.626266 73.675998 L 73.492811 73.396808 L 73.359358 73.117669 L 73.225904 72.838570 L 73.092442 72.559501 L 72.958968 72.280451 L 72.825476 72.001409 L 72.691962 71.722365 L 72.558420 71.443307 L 72.424845 71.164227 L 72.291232 70.885112 L 72.157577 70.605953 L 72.023873 70.326738 L 71.890117 70.047457 L 71.756302 69.768099 L 71.622423 69.488654 L 71.488476 69.209111 L 71.354456 68.929459 L 71.220356 68.649687 L 71.086172 68.369786 L 70.951900 68.089743 L 70.817532 67.809548 L 70.683065 67.529191 L 70.548493 67.248661 L 70.413811 66.967946 L 70.279014 66.687037 L 70.144096 66.405921 L 70.009052 66.124588 L 69.873877 65.843027 L 69.738564 65.561228 L 69.603110 65.279178 L 69.467509 64.996867 L 69.331755 64.714284 L 69.195842 64.431418 L 69.059766 64.148257 L 68.923520 63.864790 L 68.787100 63.581006 L 68.650500 63.296894 L 68.513714 63.012442 L 68.376736 62.727638 L 68.239562 62.442471 L 68.102184 62.156930 L 67.964599 61.871003 L 67.826799 61.584678 L 67.688780 61.297944 L 67.550535 61.010788 L 67.412058 60.723199 L 67.273344 60.435165 L 67.134387 60.146674 L 66.995181 59.857713 L 66.855719 59.568271 L 66.715997 59.278335 L 66.576007 58.987893 L 66.435744 58.696932 L 66.295201 58.405441 L 66.154373 58.113405 L 66.013253 57.820814 L 65.871834 57.527654 L 65.730111 57.233912 L 65.588077 56.939575 L 65.445726 56.644630 L 65.303051 56.349064 L 65.160045 56.052864 L 65.016702 55.756016 L 64.873015 55.458508 L 64.728978 55.160324 L 64.584584 54.861453 L 64.439826 54.561879 L 64.294696 54.261589 L 64.149189 53.960569 L 64.003297 53.658805 L 63.857012 53.356282 L 63.710329 53.052986 L 63.563239 52.748903 L 63.415735 52.444017 L 63.267809 52.138315 L 63.119456 51.831780 L 62.970665 51.524398 L 62.821432 51.216154 L 62.671746 50.907032 L 62.521601 50.597016 L 62.370990 50.286091 L 62.219903 49.974242 L 62.068333 49.661451 L 61.916272 49.347703 L 61.763711 49.032981 L 61.610643 48.717268 L 61.457058 48.400549 L 61.302950 48.082806 L 61.148307 47.764021 L 60.993123 47.444178 L 60.837389 47.123259 L 60.681095 46.801247 L 60.524232 46.478122 L 60.366792 46.153869 L 60.208764 45.828466 L 60.050141 45.501898 L 59.890912 45.174144 L 59.731068 44.845185 L 59.570599 44.515003 L 59.409495 44.183577 L 59.247747 43.850889 L 59.085343 43.516917 L 58.922275 43.181643 L 58.758532 42.845045 L 58.594103 42.507103 L 58.428978 42.167795 L 58.263146 41.827101 L 58.096595 41.484999 L 57.929316 41.141466 L 57.761296 40.796482 L 57.592525 40.450023 L 57.422991 40.102066 L 57.252682 39.752589 L 57.081587 39.401568 L 56.909693 39.048980 L 56.736988 38.694800 L 56.563459 38.339004 L 56.389096 37.981568 L 56.213883 37.622466 L 56.037810 37.261673 L 55.860862 36.899162 L 55.683026 36.534909 L 55.504288 36.168886 L 55.324636 35.801066 L 55.144055 35.431422 L 54.962531 35.059927 L 54.780049 34.686551 L 54.596595 34.311267 L 54.412154 33.934045 L 54.226712 33.554856 L 54.040252 33.173669 L 53.852759 32.790455 L 53.664218 32.405183 L 53.474613 32.017820 L 53.283926 31.628336 L 53.092142 31.236697 L 52.899243 30.842870 L 52.705213 30.446824 L 52.510035 30.048522 L 52.313689 29.647931 L 52.116159 29.245015 L 51.917426 28.839738 L 51.717471 28.432066 L 51.516276 28.021959 L 51.313821 27.609381 L 51.110086 27.194293 L 50.905051 26.776657 L 50.698697 26.356433 L 50.491002 25.933581 L 50.281946 25.508059 L 50.071507 25.079826 L 49.859662 24.648840 L 49.646390 24.215057 L 49.431669 23.778433 L 49.215474 23.338924 L 48.997783 22.896484 L 48.778572 22.451066 L 48.557816 22.002624 L 48.335490 21.551109 L 48.111569 21.096472 L 47.886027 20.638662 L 47.658838 20.177630 L 47.429975 19.713324 L 47.199411 19.245689 L 46.967117 18.774673 L 46.733066 18.300221 L 46.497228 17.822276 L 46.259573 17.340782 L 46.020072 16.855680 L 45.778694 16.366911 L 45.535407 15.874414 L 45.290179 15.378127 L 45.055978 14.904291" fill="none" id="tattoo-path-98ebcc0882e1c28b" stroke="#000000" stroke-linecap="round" stroke-linejoin="round" stroke-width="0.800000"/>
  <circle cx="72.500000" cy="72.500000" fill="none" id="tattoo-boundary-da45c61d325de3be" r="64.900000" stroke="#000000" stroke-width="2.200000"/>
</svg>
