<svg height="145.000000mm" version="1.1" viewBox="0 0 145.000000 145.000000" width="145.000000mm" xmlns="http://www.w3.org/2000/svg">
  <defs>
    <clipPath clipPathUnits="userSpaceOnUse" id="tattoo-band-layer-clip">
      <circle cx="72.500000" cy="72.500000" r="63.800000"/>
    </clipPath>
  </defs>
  <path clip-path="url(#tattoo-band-layer-clip)" d="M 17.601776 105.005769 L 17.991116 104.712267 L 18.433724 104.379212 L 18.873232 104.049084 L 19.309688 103.721833 L 19.743139 103.397409 L 20.173632 103.075766 L 20.601212 102.756857 L 21.025924 102.440635 L 21.447813 102.127056 L 21.866921 101.816077 L 22.283292 101.507653 L 22.696967 101.201743 L 23.107987 100.898306 L 23.516392 100.597301 L 23.922223 100.298688 L 24.325518 100.002429 L 24.726316 99.708485 L 25.124653 99.416820 L 25.520568 99.127396 L 25.914097 98.840178 L 26.305276 98.555130 L 26.694139 98.272219 L 27.080722 97.991409 L 27.465058 97.712668 L 27.847182 97.435963 L 28.227125 97.161262 L 28.604922 96.888534 L 28.980603 96.617748 L 29.354200 96.348873 L 29.725744 96.081881 L 30.095265 95.816741 L 30.462795 95.553425 L 30.828361 95.291906 L 31.191993 95.032155 L 31.553720 94.774145 L 31.913570 94.517850 L 32.271571 94.263244 L 32.627750 94.010300 L 32.982135 93.758994 L 33.334750 93.509301 L 33.685624 93.261196 L 34.034782 93.014656 L 34.382248 92.769657 L 34.728048 92.526175 L 35.072208 92.284189 L 35.414750 92.043674 L 35.755699 91.804611 L 36.095080 91.566976 L 36.432914 91.330749 L 36.769225 91.095909 L 37.104037 90.862435 L 37.437370 90.630306 L 37.769248 90.399504 L 38.099691 90.170008 L 38.428722 89.941798 L 38.756362 89.714857 L 39.082631 89.489165 L 39.407551 89.264703 L 39.731142 89.041455 L 40.053423 88.819401 L 40.374414 88.598525 L 40.694136 88.378808 L 41.012608 88.160235 L 41.329848 87.942787 L 41.645876 87.726450 L 41.960711 87.511205 L 42.274369 87.297038 L 42.586871 87.083933 L 42.898234 86.871873 L 43.208475 86.660844 L 43.517613 86.450830 L 43.825664 86.241817 L 44.132646 86.033790 L 44.438576 85.826734 L 44.743470 85.620635 L 45.047345 85.415479 L 45.350217 85.211252 L 45.652104 85.007941 L 45.953020 84.805531 L 46.252981 84.604010 L 46.552004 84.403364 L 46.850103 84.203581 L 47.147295 84.004647 L 47.443594 83.806550 L 47.739015 83.609277 L 48.033574 83.412817 L 48.327285 83.217157 L 48.620162 83.022285 L 48.912221 82.828189 L 49.203475 82.634857 L 49.493938 82.442278 L 49.783625 82.250441 L 50.072550 82.059334 L 50.360726 81.868947 L 50.648167 81.679267 L 50.934887 81.490285 L 51.220898 81.301990 L 51.506215 81.114370 L 51.790850 80.927416 L 52.074816 80.741117 L 52.358127 80.555463 L 52.640796 80.370444 L 52.922834 80.186050 L 53.204255 80.002271 L 53.485071 79.819096 L 53.765295 79.636517 L 54.044939 79.454525 L 54.324015 79.273108 L 54.602535 79.092259 L 54.880512 78.911967 L 55.157957 78.732224 L 55.434883 78.553021 L 55.711301 78.374348 L 55.987223 78.196197 L 56.262660 78.018559 L 56.537625 77.841425 L 56.812128 77.664786 L 57.086181 77.488635 L 57.359796 77.312962 L 57.632983 77.137760 L 57.905755 76.963019 L 58.178121 76.788732 L 58.450094 76.614891 L 58.721684 76.441487 L 58.992903 76.268512 L 59.263760 76.095959 L 59.534268 75.923820 L 59.804437 75.752086 L 60.074277 75.580751 L 60.343799 75.409806 L 60.613015 75.239244 L 60.881934 75.069058 L 61.150568 74.899239 L 61.418926 74.729781 L 61.687019 74.560676 L 61.954859 74.391916 L 62.222454 74.223495 L 62.489815 74.055406 L 62.756954 73.887641 L 63.023879 73.720193 L 63.290602 73.553055 L 63.557133 73.386220 L 63.823481 73.219681 L 64.089658 73.053431 L 64.355672 72.887464 L 64.621535 72.721773 L 64.887256 72.556350 L 65.152846 72.391189 L 65.418314 72.226284 L 65.683671 72.061627 L 65.948927 71.897213 L 66.214091 71.733034 L 66.479174 71.569084 L 66.744186 71.405357 L 67.009136 71.241846 L 67.274035 71.078545 L 67.538893 70.915447 L 67.803719 70.752545 L 68.068524 70.589835 L 68.333317 70.427308 L 68.598109 70.264960 L 68.862909 70.102783 L 69.127728 69.940771 L 69.392575 69.778919 L 69.657460 69.617220 L 69.922393 69.455668 L 70.187385 69.294257 L 70.452444 69.132980 L 70.717582 68.971833 L 70.982809 68.810807 L 71.248133 68.649898 L 71.513566 68.489100 L 71.779117 68.328406 L 72.044796 68.167810 L 72.310614 68.007307 L 72.576581 67.846890 L 72.842706 67.686554 L 73.109000 67.526292 L 73.375473 67.366099 L 73.642136 67.205969 L 73.908998 67.045895 L 74.176069 66.885872 L 74.443361 66.725895 L 74.710883 66.565956 L 74.978646 66.406050 L 75.246660 66.246172 L 75.514936 66.086315 L 75.783484 65.926474 L 76.052314 65.766642 L 76.321438 65.606815 L 76.590866 65.446985 L 76.860608 65.287147 L 77.130675 65.127296 L 77.401078 64.967425 L 77.671828 64.807528 L 77.942935 64.647600 L 78.214411 64.487635 L 78.486267 64.327626 L 78.758513 64.167569 L 79.031161 64.007457 L 79.304221 63.847283 L 79.577706 63.687044 L 79.851626 63.526731 L 80.125993 63.366340 L 80.400817 63.205864 L 80.676112 63.045298 L 80.951887 62.884636 L 81.228155 62.723871 L 81.504928 62.562998 L 81.782218 62.402010 L 82.060035 62.240902 L 82.338393 62.079668 L 82.617303 61.918301 L 82.896778 61.756796 L 83.176829 61.595146 L 83.457470 61.433345 L 83.738712 61.271387 L 84.020568 61.109266 L 84.303051 60.946976 L 84.586173 60.784511 L 84.869947 60.621864 L 85.154387 60.459029 L 85.439505 60.296000 L 85.725314 60.132771 L 86.011828 59.969335 L 86.299060 59.805685 L 86.587024 59.641817 L 86.875733 59.477722 L 87.165201 59.313394 L 87.455443 59.148828 L 87.746471 58.984016 L 88.038301 58.818953 L 88.330946 58.653631 L 88.624421 58.488043 L 88.918741 58.322184 L 89.213920 58.156046 L 89.509973 57.989622 L 89.806915 57.822907 L 90.104762 57.655892 L 90.403529 57.488572 L 90.703231 57.320938 L 91.003885 57.152985 L 91.305505 56.984705 L 91.608108 56.816091 L 91.911710 56.647137 L 92.216328 56.477834 L 92.521978 56.308175 L 92.828677 56.138154 L 93.136442 55.967763 L 93.445290 55.796995 L 93.755239 55.625842 L 94.066305 55.454296 L 94.378508 55.282350 L 94.691864 55.109997 L 95.006392 54.937229 L 95.322110 54.764038 L 95.639038 54.590416 L 95.957193 54.416355 L 96.276596 54.241848 L 96.597265 54.066886 L 96.919220 53.891461 L 97.242481 53.715565 L 97.567069 53.539191 L 97.893003 53.362328 L 98.220304 53.184970 L 98.548994 53.007108 L 98.879092 52.828732 L 99.210622 52.649836 L 99.543605 52.470409 L 99.878062 52.290443 L 100.214016 52.109929 L 100.551491 51.928858 L 100.890508 51.747221 L 101.231092 51.565009 L 101.573266 51.382212 L 101.917054 51.198822 L 102.262480 51.014829 L 102.609570 50.830223 L 102.958348 50.644994 L 103.308840 50.459134 L 103.661071 50.272631 L 104.015069 50.085476 L 104.370858 49.897660 L 104.728468 49.709171 L 105.087924 49.519999 L 105.449255 49.330135 L 105.812489 49.139566 L 106.177656 48.948284 L 106.544783 48.756277 L 106.913900 48.563533 L 107.285039 48.370043 L 107.658229 48.175795 L 108.033501 47.980777 L 108.410887 47.784978 L 108.790420 47.588387 L 109.172131 47.390991 L 109.556054 47.192779 L 109.942222 46.993740 L 110.330670 46.793860 L 110.721433 46.593127 L 111.114546 46.391529 L 111.510044 46.189054 L 111.907966 45.985688 L 112.308347 45.781419 L 112.711226 45.576233 L 113.116641 45.370117 L 113.524632 45.163058 L 113.935239 44.955042 L 114.348501 44.746055 L 114.764461 44.536083 L 115.183160 44.325113 L 115.604642 44.113128 L 116.028949 43.900116 L 116.456127 43.686061 L 116.886220 43.470948 L 117.319275 43.254762 L 117.755338 43.037488 L 118.194457 42.819110 L 118.636681 42.599612 L 119.082060 42.378978 L 119.530643 42.157191 L 119.982483 41.934237 L 120.437632 41.710096 L 120.896143 41.484753 L 121.358070 41.258191 L 121.823470 41.030391 L 122.292399 40.801337 L 122.764915 40.571009 L 123.241076 40.339391 L 123.720943 40.106463 L 124.204578 39.872206 L 124.692041 39.636602 L 125.183398 39.399630 L 125.678714 39.161273 L 126.178054 38.921508 L 126.617769 38.710844" fill="none" id="tattoo-path-00dbf26d69206673" stroke="#000000" stroke-linecap="round" stroke-linejoin="round" stroke-width="4.800000"/>
  <path clip-path="url(#tattoo-band-layer-clip)" d="M 100.975770 129.592649 L 100.946397 129.093311 L 100.912148 128.540097 L 100.876464 127.990906 L 100.839378 127.445683 L 100.800919 126.904371 L 100.761119 126.366915 L 100.720007 125.833260 L 100.677611 125.303354 L 100.633958 124.777144 L 100.589077 124.254579 L 100.542993 123.735607 L 100.495732 123.220178 L 100.447318 122.708244 L 100.397775 122.199755 L 100.347128 121.694664 L 100.295398 121.192924 L 100.242608 120.694488 L 100.188779 120.199312 L 100.133933 119.707349 L 100.078089 119.218557 L 100.021268 118.732891 L 99.963489 118.250308 L 99.904770 117.770767 L 99.845129 117.294226 L 99.784585 116.820643 L 99.723155 116.349978 L 99.660855 115.882193 L 99.597701 115.417246 L 99.533710 114.955101 L 99.468897 114.495719 L 99.403276 114.039062 L 99.336863 113.585093 L 99.269670 113.133777 L 99.201713 112.685077 L 99.133005 112.238958 L 99.063558 111.795385 L 98.993384 111.354324 L 98.922498 110.915741 L 98.850909 110.479602 L 98.778630 110.045876 L 98.705672 109.614529 L 98.632046 109.185529 L 98.557762 108.758845 L 98.482832 108.334447 L 98.407264 107.912302 L 98.331069 107.492381 L 98.254255 107.074655 L 98.176833 106.659093 L 98.098811 106.245668 L 98.020197 105.834349 L 97.941001 105.425110 L 97.861229 105.017921 L 97.780891 104.612757 L 97.699993 104.209589 L 97.618543 103.808391 L 97.536549 103.409137 L 97.454016 103.011800 L 97.370953 102.616355 L 97.287365 102.222776 L 97.203259 101.831039 L 97.118640 101.441118 L 97.033516 101.052990 L 96.947890 100.666630 L 96.861770 100.282014 L 96.775161 99.899120 L 96.688067 99.517923 L 96.600493 99.138401 L 96.512445 98.760531 L 96.423927 98.384292 L 96.334943 98.009660 L 96.245499 97.636615 L 96.155597 97.265134 L 96.065242 96.895196 L 95.974438 96.526781 L 95.883189 96.159867 L 95.791498 95.794434 L 95.699368 95.430462 L 95.606804 95.067931 L 95.513807 94.706821 L 95.420381 94.347112 L 95.326529 93.988786 L 95.232254 93.631822 L 95.137558 93.276202 L 95.042443 92.921908 L 94.946913 92.568921 L 94.850969 92.217222 L 94.754613 91.866794 L 94.657848 91.517618 L 94.560675 91.169677 L 94.463097 90.822954 L 94.365114 90.477431 L 94.266728 90.133091 L 94.167941 89.789917 L 94.068755 89.447893 L 93.969170 89.107002 L 93.869187 88.767226 L 93.768808 88.428552 L 93.668034 88.090961 L 93.566865 87.754438 L 93.465302 87.418968 L 93.363346 87.084535 L 93.260997 86.751123 L 93.158256 86.418717 L 93.055124 86.087302 L 92.951600 85.756863 L 92.847685 85.427386 L 92.743379 85.098855 L 92.638681 84.771256 L 92.533593 84.444574 L 92.428113 84.118795 L 92.322242 83.793906 L 92.215979 83.469891 L 92.109324 83.146738 L 92.002276 82.824431 L 91.894836 82.502959 L 91.787001 82.182306 L 91.678772 81.862460 L 91.570148 81.543407 L 91.461127 81.225135 L 91.351710 80.907629 L 91.241894 80.590878 L 91.131680 80.274867 L 91.021065 79.959585 L 90.910049 79.645019 L 90.798629 79.331155 L 90.686806 79.017983 L 90.574578 78.705489 L 90.461942 78.393660 L 90.348897 78.082486 L 90.235442 77.771953 L 90.121575 77.462050 L 90.007295 77.152764 L 89.892598 76.844085 L 89.777484 76.536000 L 89.661950 76.228497 L 89.545995 75.921565 L 89.429615 75.615192 L 89.312810 75.309368 L 89.195576 75.004079 L 89.077911 74.699317 L 88.959813 74.395068 L 88.841280 74.091322 L 88.722308 73.788068 L 88.602896 73.485295 L 88.483040 73.182992 L 88.362737 72.881147 L 88.241986 72.579751 L 88.120783 72.278792 L 87.999124 71.978260 L 87.877008 71.678144 L 87.754431 71.378434 L 87.631389 71.079118 L 87.507880 70.780187 L 87.383900 70.481630 L 87.259445 70.183436 L 87.134513 69.885596 L 87.009100 69.588099 L 86.883202 69.290935 L 86.756816 68.994093 L 86.629937 68.697564 L 86.502562 68.401337 L 86.374688 68.105403 L 86.246309 67.809751 L 86.117423 67.514371 L 85.988025 67.219254 L 85.858111 66.924389 L 85.727676 66.629767 L 85.596717 66.335378 L 85.465229 66.041212 L 85.333207 65.747259 L 85.200647 65.453510 L 85.067544 65.159954 L 84.933894 64.866583 L 84.799692 64.573386 L 84.664933 64.280354 L 84.529612 63.987478 L 84.393724 63.694747 L 84.257264 63.402152 L 84.120226 63.109684 L 83.982606 62.817333 L 83.844399 62.525090 L 83.705598 62.232945 L 83.566198 61.940889 L 83.426194 61.648912 L 83.285580 61.357005 L 83.144350 61.065158 L 83.002498 60.773363 L 82.860019 60.481609 L 82.716906 60.189888 L 82.573154 59.898190 L 82.428755 59.606505 L 82.283704 59.314824 L 82.137995 59.023139 L 81.991620 58.731439 L 81.844574 58.439715 L 81.696849 58.147959 L 81.548438 57.856160 L 81.399336 57.564309 L 81.249534 57.272398 L 81.099026 56.980416 L 80.947805 56.688354 L 80.795862 56.396204 L 80.643192 56.103955 L 80.489786 55.811599 L 80.335636 55.519126 L 80.180735 55.226527 L 80.025075 54.933792 L 79.868649 54.640912 L 79.711447 54.347877 L 79.553462 54.054679 L 79.394685 53.761308 L 79.235108 53.467755 L 79.074723 53.174009 L 78.913520 52.880063 L 78.751491 52.585905 L 78.588627 52.291528 L 78.424919 51.996920 L 78.260357 51.702074 L 78.094933 51.406979 L 77.928636 51.111625 L 77.761458 50.816004 L 77.593387 50.520106 L 77.424415 50.223920 L 77.254532 49.927438 L 77.083726 49.630650 L 76.911988 49.333547 L 76.739308 49.036117 L 76.565674 48.738353 L 76.391076 48.440243 L 76.215503 48.141779 L 76.038943 47.842950 L 75.861386 47.543747 L 75.682819 47.244159 L 75.503232 46.944177 L 75.322612 46.643791 L 75.140947 46.342991 L 74.958226 46.041767 L 74.774435 45.740109 L 74.589562 45.438007 L 74.403596 45.135450 L 74.216521 44.832429 L 74.028326 44.528933 L 73.838997 44.224953 L 73.648521 43.920477 L 73.456884 43.615495 L 73.264071 43.309998 L 73.070069 43.003974 L 72.874864 42.697414 L 72.678440 42.390307 L 72.480783 42.082641 L 72.281878 41.774408 L 72.081710 41.465595 L 71.880263 41.156192 L 71.677520 40.846189 L 71.473468 40.535575 L 71.268088 40.224339 L 71.061364 39.912470 L 70.853280 39.599957 L 70.643819 39.286788 L 70.432963 38.972954 L 70.220695 38.658443 L 70.006997 38.343243 L 69.791850 38.027344 L 69.575236 37.710734 L 69.357137 37.393401 L 69.137534 37.075336 L 68.916406 36.756525 L 68.693735 36.436957 L 68.469500 36.116621 L 68.243681 35.795505 L 68.016257 35.473598 L 67.787208 35.150887 L 67.556512 34.827362 L 67.324147 34.503009 L 67.090091 34.177816 L 66.854322 33.851773 L 66.616818 33.524867 L 66.377554 33.197085 L 66.136507 32.868415 L 65.893654 32.538845 L 65.648970 32.208363 L 65.402429 31.876957 L 65.154008 31.544613 L 64.903680 31.211319 L 64.651419 30.877062 L 64.397199 30.541830 L 64.140993 30.205610 L 63.882772 29.868389 L 63.622510 29.530155 L 63.360178 29.190893 L 63.095747 28.850591 L 62.829187 28.509237 L 62.560469 28.166816 L 62.289562 27.823315 L 62.016435 27.478722 L 61.741056 27.133023 L 61.463394 26.786203 L 61.183416 26.438250 L 60.901087 26.089151 L 60.616375 25.738891 L 60.329245 25.387456 L 60.039662 25.034833 L 59.747590 24.681009 L 59.452992 24.325968 L 59.155832 23.969698 L 58.856071 23.612183 L 58.553671 23.253411 L 58.248593 22.893366 L 57.940797 22.532035 L 57.630242 22.169403 L 57.316887 21.805456 L 57.000689 21.440179 L 56.681606 21.073559 L 56.359593 20.705581 L 56.034607 20.336230 L 55.706600 19.965492 L 55.375527 19.593352 L 55.041341 19.219796 L 54.703993 18.844808 L 54.363435 18.468375 L 54.019615 18.090482 L 53.672483 17.711114 L 53.321987 17.330256 L 52.968073 16.947894 L 52.610687 16.564013 L 52.249775 16.178598 L 51.885279 15.791635 L 51.517142 15.403108 L 51.145306 15.013005 L 50.769710 14.621309 L 50.390294 14.228006 L 50.006995 13.833082 L 49.619749 13.436522 L 49.269182 13.079725" fill="none" id="tattoo-path-a36b5f488087da81" stroke="#000000" stroke-linecap="round" stroke-linejoin="round" stroke-width="4.200000"/>
  <path clip-path="url(#tattoo-band-layer-clip)" d="M 118.224639 116.993791 L 118.026668 116.892333 L 117.532351 116.637563 L 117.042266 116.383558 L 116.556346 116.130314 L 116.074524 115.877826 L 115.596734 115.626091 L 115.122914 115.375104 L 114.653000 115.124861 L 114.186930 114.875356 L 113.724646 114.626586 L 113.266086 114.378545 L 112.811194 114.131228 L 112.359912 113.884630 L 111.912184 113.638746 L 111.467956 113.393570 L 111.027174 113.149097 L 110.589784 112.905321 L 110.155735 112.662236 L 109.724977 112.419838 L 109.297459 112.178119 L 108.873131 111.937074 L 108.451946 111.696697 L 108.033857 111.456982 L 107.618817 111.217923 L 107.206780 110.979513 L 106.797701 110.741747 L 106.391537 110.504618 L 105.988243 110.268119 L 105.587778 110.032245 L 105.190100 109.796989 L 104.795167 109.562345 L 104.402940 109.328306 L 104.013378 109.094865 L 103.626442 108.862016 L 103.242095 108.629753 L 102.860298 108.398069 L 102.481014 108.166957 L 102.104207 107.936411 L 101.729842 107.706424 L 101.357882 107.476989 L 100.988293 107.248100 L 100.621041 107.019751 L 100.256093 106.791933 L 99.893416 106.564642 L 99.532976 106.337869 L 99.174742 106.111609 L 98.818683 105.885854 L 98.464767 105.660598 L 98.112965 105.435834 L 97.763246 105.211556 L 97.415581 104.987756 L 97.069941 104.764429 L 96.726296 104.541567 L 96.384620 104.319163 L 96.044883 104.097212 L 95.707060 103.875705 L 95.371123 103.654637 L 95.037046 103.434001 L 94.704802 103.213790 L 94.374365 102.993998 L 94.045712 102.774617 L 93.718816 102.555641 L 93.393653 102.337064 L 93.070199 102.118878 L 92.748430 101.901078 L 92.428322 101.683656 L 92.109853 101.466606 L 91.792999 101.249921 L 91.477738 101.033595 L 91.164048 100.817621 L 90.851907 100.601993 L 90.541294 100.386703 L 90.232186 100.171746 L 89.924564 99.957114 L 89.618406 99.742802 L 89.313693 99.528802 L 89.010403 99.315108 L 88.708517 99.101714 L 88.408016 98.888613 L 88.108880 98.675799 L 87.811090 98.463264 L 87.514627 98.251003 L 87.219473 98.039010 L 86.925610 97.827277 L 86.633019 97.615798 L 86.341683 97.404567 L 86.051583 97.193577 L 85.762703 96.982821 L 85.475025 96.772295 L 85.188533 96.561990 L 84.903209 96.351901 L 84.619037 96.142021 L 84.336002 95.932343 L 84.054085 95.722862 L 83.773273 95.513571 L 83.493548 95.304463 L 83.214896 95.095533 L 82.937301 94.886773 L 82.660747 94.678178 L 82.385221 94.469740 L 82.110706 94.261455 L 81.837189 94.053314 L 81.564654 93.845313 L 81.293088 93.637444 L 81.022477 93.429701 L 80.752805 93.222078 L 80.484061 93.014568 L 80.216229 92.807166 L 79.949296 92.599864 L 79.683249 92.392657 L 79.418075 92.185538 L 79.153760 91.978500 L 78.890292 91.771538 L 78.627657 91.564644 L 78.365843 91.357813 L 78.104838 91.151039 L 77.844629 90.944314 L 77.585203 90.737632 L 77.326549 90.530988 L 77.068655 90.324374 L 76.811507 90.117784 L 76.555096 89.911212 L 76.299408 89.704651 L 76.044433 89.498096 L 75.790158 89.291539 L 75.536573 89.084974 L 75.283666 88.878394 L 75.031427 88.671794 L 74.779843 88.465166 L 74.528904 88.258505 L 74.278599 88.051803 L 74.028918 87.845054 L 73.779849 87.638252 L 73.531382 87.431390 L 73.283507 87.224461 L 73.036213 87.017460 L 72.789490 86.810378 L 72.543327 86.603211 L 72.297715 86.395950 L 72.052644 86.188590 L 71.808103 85.981124 L 71.564082 85.773545 L 71.320572 85.565846 L 71.077563 85.358020 L 70.835046 85.150062 L 70.593010 84.941964 L 70.351446 84.733719 L 70.110345 84.525320 L 69.869697 84.316761 L 69.629493 84.108035 L 69.389724 83.899135 L 69.150380 83.690053 L 68.911452 83.480783 L 68.672932 83.271319 L 68.434810 83.061652 L 68.197078 82.851776 L 67.959725 82.641684 L 67.722745 82.431368 L 67.486126 82.220822 L 67.249862 82.010039 L 67.013944 81.799010 L 66.778361 81.587729 L 66.543107 81.376188 L 66.308173 81.164381 L 66.073549 80.952300 L 65.839228 80.739936 L 65.605202 80.527284 L 65.371461 80.314335 L 65.137997 80.101082 L 64.904803 79.887517 L 64.671869 79.673633 L 64.439189 79.459422 L 64.206753 79.244875 L 63.974553 79.029987 L 63.742582 78.814747 L 63.510831 78.599150 L 63.279293 78.383186 L 63.047959 78.166847 L 62.816821 77.950127 L 62.585871 77.733016 L 62.355102 77.515507 L 62.124506 77.297590 L 61.894074 77.079259 L 61.663799 76.860504 L 61.433674 76.641317 L 61.203690 76.421691 L 60.973839 76.201615 L 60.744114 75.981082 L 60.514508 75.760083 L 60.285012 75.538609 L 60.055619 75.316651 L 59.826321 75.094201 L 59.597111 74.871250 L 59.367981 74.647788 L 59.138923 74.423807 L 58.909929 74.199297 L 58.680993 73.974249 L 58.452107 73.748654 L 58.223263 73.522502 L 57.994453 73.295784 L 57.765671 73.068490 L 57.536907 72.840610 L 57.308156 72.612136 L 57.079410 72.383056 L 56.850661 72.153362 L 56.621901 71.923042 L 56.393123 71.692088 L 56.164320 71.460488 L 55.935484 71.228232 L 55.706607 70.995310 L 55.477683 70.761712 L 55.248704 70.527426 L 55.019662 70.292442 L 54.790550 70.056750 L 54.561360 69.820337 L 54.332085 69.583194 L 54.102717 69.345308 L 53.873250 69.106669 L 53.643675 68.867265 L 53.413985 68.627085 L 53.184172 68.386117 L 52.954229 68.144349 L 52.724149 67.901769 L 52.493924 67.658365 L 52.263547 67.414125 L 52.033009 67.169037 L 51.802304 66.923088 L 51.571424 66.676265 L 51.340361 66.428557 L 51.109108 66.179949 L 50.877657 65.930428 L 50.646001 65.679983 L 50.414131 65.428598 L 50.182041 65.176262 L 49.949722 64.922959 L 49.717168 64.668677 L 49.484369 64.413400 L 49.251320 64.157116 L 49.018011 63.899809 L 48.784435 63.641466 L 48.550585 63.382070 L 48.316452 63.121608 L 48.082029 62.860065 L 47.847308 62.597424 L 47.612282 62.333672 L 47.376941 62.068791 L 47.141279 61.802766 L 46.905287 61.535581 L 46.668957 61.267219 L 46.432282 60.997665 L 46.195254 60.726901 L 45.957864 60.454911 L 45.720104 60.181677 L 45.481967 59.907182 L 45.243443 59.631408 L 45.004526 59.354337 L 44.765206 59.075951 L 44.525476 58.796232 L 44.285328 58.515162 L 44.044752 58.232720 L 43.803742 57.948889 L 43.562287 57.663649 L 43.320381 57.376979 L 43.078014 57.088860 L 42.835178 56.799272 L 42.591865 56.508194 L 42.348067 56.215605 L 42.103773 55.921484 L 41.858977 55.625810 L 41.613669 55.328560 L 41.367840 55.029713 L 41.121483 54.729247 L 40.874587 54.427137 L 40.627145 54.123362 L 40.379148 53.817898 L 40.130586 53.510720 L 39.881450 53.201805 L 39.631733 52.891128 L 39.381424 52.578664 L 39.130515 52.264388 L 38.878996 51.948274 L 38.626859 51.630296 L 38.374094 51.310427 L 38.120692 50.988641 L 37.866645 50.664909 L 37.611941 50.339205 L 37.356573 50.011499 L 37.100530 49.681763 L 36.843804 49.349968 L 36.586385 49.016084 L 36.328263 48.680081 L 36.069428 48.341927 L 35.809872 48.001593 L 35.549585 47.659046 L 35.288556 47.314255 L 35.026777 46.967185 L 34.764236 46.617804 L 34.500926 46.266078 L 34.236835 45.911972 L 33.971953 45.555452 L 33.706272 45.196481 L 33.439781 44.835024 L 33.172469 44.471043 L 32.904327 44.104501 L 32.635345 43.735359 L 32.365513 43.363579 L 32.094820 42.989121 L 31.823257 42.611945 L 31.550812 42.232009 L 31.277477 41.849272 L 31.003240 41.463692 L 30.728092 41.075224 L 30.452022 40.683825 L 30.175019 40.289451 L 29.897074 39.892054 L 29.618175 39.491589 L 29.338314 39.088009 L 29.057478 38.681264 L 28.775658 38.271305 L 28.492844 37.858083 L 28.209025 37.441547 L 27.924190 37.021643 L 27.638329 36.598320 L 27.351432 36.171522 L 27.063489 35.741195 L 26.774488 35.307283 L 26.484420 34.869728 L 26.193274 34.428471 L 25.901040 33.983454 L 25.607708 33.534615 L 25.313268 33.081892 L 25.017708 32.625222 L 24.721020 32.164541 L 24.423193 31.699782 L 24.124217 31.230879 L 24.005053 31.043034" fill="none" id="tattoo-path-a0ac074a1e6a92c3" stroke="#000000" stroke-linecap="round" stroke-linejoin="round" stroke-width="3.600000"/>
  <path clip-path="url(#tattoo-band-layer-clip)" d="M 46.361472 130.699806 L 46.466290 130.621586 L 46.911463 130.286735 L 47.352359 129.952485 L 47.789042 129.618841 L 48.221572 129.285808 L 48.650012 128.953390 L 49.074422 128.621591 L 49.494860 128.290413 L 49.911385 127.959861 L 50.324052 127.629936 L 50.732919 127.300641 L 51.138040 126.971976 L 51.539469 126.643944 L 51.937258 126.316545 L 52.331461 125.989780 L 52.722128 125.663650 L 53.109309 125.338154 L 53.493054 125.013291 L 53.873412 124.689063 L 54.250429 124.365467 L 54.624154 124.042503 L 54.994631 123.720169 L 55.361907 123.398464 L 55.726025 123.077385 L 56.087030 122.756932 L 56.444965 122.437101 L 56.799872 122.117890 L 57.151792 121.799297 L 57.500766 121.481319 L 57.846835 121.163952 L 58.190038 120.847193 L 58.530414 120.531040 L 58.868000 120.215488 L 59.202836 119.900534 L 59.534957 119.586174 L 59.864400 119.272404 L 60.191200 118.959220 L 60.515393 118.646618 L 60.837014 118.334593 L 61.156096 118.023141 L 61.472672 117.712257 L 61.786777 117.401936 L 62.098441 117.092175 L 62.407697 116.782967 L 62.714576 116.474308 L 63.019109 116.166192 L 63.321327 115.858615 L 63.621259 115.551571 L 63.918934 115.245054 L 64.214381 114.939060 L 64.507630 114.633583 L 64.798707 114.328617 L 65.087640 114.024156 L 65.374457 113.720194 L 65.659183 113.416727 L 65.941846 113.113748 L 66.222471 112.811250 L 66.501084 112.509229 L 66.777709 112.207677 L 67.052372 111.906590 L 67.325096 111.605960 L 67.595905 111.305782 L 67.864823 111.006049 L 68.131874 110.706755 L 68.397079 110.407893 L 68.660461 110.109458 L 68.922043 109.811443 L 69.181845 109.513841 L 69.439891 109.216645 L 69.696200 108.919851 L 69.950793 108.623450 L 70.203692 108.327436 L 70.454915 108.031803 L 70.704483 107.736543 L 70.952416 107.441651 L 71.198732 107.147120 L 71.443451 106.852942 L 71.686592 106.559112 L 71.928172 106.265621 L 72.168210 105.972464 L 72.406724 105.679634 L 72.643732 105.387123 L 72.879249 105.094925 L 73.113295 104.803033 L 73.345886 104.511441 L 73.577037 104.220140 L 73.806766 103.929124 L 74.035089 103.638387 L 74.262021 103.347921 L 74.487578 103.057719 L 74.711776 102.767774 L 74.934630 102.478079 L 75.156154 102.188627 L 75.376363 101.899411 L 75.595272 101.610424 L 75.812896 101.321659 L 76.029247 101.033108 L 76.244341 100.744765 L 76.458191 100.456622 L 76.670810 100.168672 L 76.882212 99.880908 L 77.092409 99.593323 L 77.301415 99.305909 L 77.509243 99.018659 L 77.715904 98.731567 L 77.921412 98.444624 L 78.125779 98.157824 L 78.329015 97.871159 L 78.531135 97.584621 L 78.732148 97.298205 L 78.932067 97.011901 L 79.130903 96.725704 L 79.328667 96.439605 L 79.525369 96.153596 L 79.721022 95.867672 L 79.915636 95.581824 L 80.109220 95.296045 L 80.301787 95.010327 L 80.493345 94.724663 L 80.683905 94.439045 L 80.873476 94.153467 L 81.062070 93.867919 L 81.249695 93.582396 L 81.436360 93.296889 L 81.622076 93.011390 L 81.806852 92.725893 L 81.990696 92.440389 L 82.173617 92.154872 L 82.355626 91.869332 L 82.536729 91.583763 L 82.716936 91.298157 L 82.896255 91.012505 L 83.074695 90.726802 L 83.252264 90.441038 L 83.428969 90.155205 L 83.604820 89.869297 L 83.779823 89.583305 L 83.953987 89.297221 L 84.127319 89.011038 L 84.299826 88.724747 L 84.471517 88.438341 L 84.642398 88.151811 L 84.812476 87.865151 L 84.981759 87.578350 L 85.150253 87.291403 L 85.317966 87.004299 L 85.484903 86.717033 L 85.651073 86.429594 L 85.816480 86.141976 L 85.981133 85.854169 L 86.145036 85.566166 L 86.308197 85.277959 L 86.470620 84.989538 L 86.632314 84.700896 L 86.793282 84.412025 L 86.953532 84.122916 L 87.113068 83.833560 L 87.271897 83.543949 L 87.430024 83.254075 L 87.587454 82.963929 L 87.744193 82.673502 L 87.900246 82.382786 L 88.055618 82.091772 L 88.210314 81.800451 L 88.364340 81.508815 L 88.517699 81.216854 L 88.670397 80.924561 L 88.822439 80.631925 L 88.973829 80.338939 L 89.124572 80.045592 L 89.274672 79.751877 L 89.424133 79.457783 L 89.572960 79.163302 L 89.721157 78.868425 L 89.868727 78.573142 L 90.015676 78.277444 L 90.162006 77.981322 L 90.307722 77.684766 L 90.452827 77.387767 L 90.597325 77.090314 L 90.741220 76.792400 L 90.884515 76.494013 L 91.027213 76.195145 L 91.169317 75.895786 L 91.310832 75.595925 L 91.451760 75.295552 L 91.592103 74.994659 L 91.731866 74.693234 L 91.871050 74.391268 L 92.009660 74.088751 L 92.147696 73.785672 L 92.285163 73.482020 L 92.422061 73.177787 L 92.558395 72.872960 L 92.694166 72.567530 L 92.829377 72.261486 L 92.964029 71.954818 L 93.098125 71.647514 L 93.231667 71.339563 L 93.364657 71.030955 L 93.497096 70.721679 L 93.628987 70.411724 L 93.760330 70.101078 L 93.891128 69.789730 L 94.021382 69.477670 L 94.151094 69.164884 L 94.280264 68.851362 L 94.408893 68.537093 L 94.536984 68.222063 L 94.664537 67.906263 L 94.791553 67.589679 L 94.918032 67.272300 L 95.043976 66.954113 L 95.169385 66.635106 L 95.294260 66.315267 L 95.418601 65.994584 L 95.542408 65.673044 L 95.665682 65.350633 L 95.788423 65.027341 L 95.910630 64.703152 L 96.032305 64.378056 L 96.153446 64.052037 L 96.274054 63.725084 L 96.394128 63.397182 L 96.513667 63.068318 L 96.632672 62.738480 L 96.751140 62.407651 L 96.869073 62.075820 L 96.986468 61.742972 L 97.103324 61.409092 L 97.219641 61.074167 L 97.335418 60.738182 L 97.450652 60.401122 L 97.565343 60.062973 L 97.679488 59.723720 L 97.793087 59.383347 L 97.906136 59.041840 L 98.018635 58.699183 L 98.130581 58.355362 L 98.241972 58.010359 L 98.352806 57.664160 L 98.463079 57.316748 L 98.572790 56.968107 L 98.681936 56.618221 L 98.790513 56.267074 L 98.898518 55.914649 L 99.005949 55.560929 L 99.112803 55.205896 L 99.219074 54.849535 L 99.324761 54.491827 L 99.429859 54.132755 L 99.534364 53.772301 L 99.638271 53.410447 L 99.741578 53.047176 L 99.844279 52.682468 L 99.946369 52.316305 L 100.047844 51.948668 L 100.148699 51.579539 L 100.248928 51.208898 L 100.348527 50.836726 L 100.447489 50.463004 L 100.545810 50.087710 L 100.643483 49.710826 L 100.740501 49.332330 L 100.836859 48.952203 L 100.932551 48.570424 L 101.027568 48.186971 L 101.121905 47.801824 L 101.215555 47.414960 L 101.308509 47.026358 L 101.400760 46.635996 L 101.492301 46.243851 L 101.583123 45.849902 L 101.673218 45.454125 L 101.762577 45.056497 L 101.851191 44.656994 L 101.939052 44.255594 L 102.026149 43.852271 L 102.112474 43.447002 L 102.198017 43.039762 L 102.282766 42.630527 L 102.366712 42.219270 L 102.449844 41.805967 L 102.532150 41.390592 L 102.613619 40.973118 L 102.694241 40.553519 L 102.774001 40.131769 L 102.852888 39.707840 L 102.930890 39.281704 L 103.007993 38.853335 L 103.084184 38.422703 L 103.159448 37.989780 L 103.233772 37.554537 L 103.307141 37.116946 L 103.379541 36.676975 L 103.450955 36.234596 L 103.521367 35.789778 L 103.590763 35.342489 L 103.659124 34.892699 L 103.726435 34.440377 L 103.792677 33.985489 L 103.857832 33.528004 L 103.921882 33.067888 L 103.984808 32.605109 L 104.046590 32.139633 L 104.107208 31.671424 L 104.166642 31.200450 L 104.224871 30.726674 L 104.281873 30.250061 L 104.337626 29.770575 L 104.392106 29.288180 L 104.445291 28.802838 L 104.497157 28.314511 L 104.547679 27.823163 L 104.596831 27.328753 L 104.644588 26.831244 L 104.690923 26.330596 L 104.735808 25.826768 L 104.779216 25.319721 L 104.821118 24.809412 L 104.861483 24.295800 L 104.900283 23.778842 L 104.937485 23.258497 L 104.973057 22.734720 L 105.006967 22.207468 L 105.039182 21.676695 L 105.069666 21.142357 L 105.098383 20.604407 L 105.125298 20.062800 L 105.150374 19.517489 L 105.173571 18.968424 L 105.194850 18.415559 L 105.214171 17.858845 L 105.218209 17.728121" fill="none" id="tattoo-path-5f2be756ef8c3895" stroke="#000000" stroke-linecap="round" stroke-linejoin="round" stroke-width="3.100000"/>
  <path clip-path="url(#tattoo-band-layer-clip)" d="M 136.035332 66.694690 L 135.687373 66.280726 L 135.326753 65.857259 L 134.965027 65.437965 L 134.602230 65.022810 L 134.238394 64.611762 L 133.873550 64.204788 L 133.507729 63.801856 L 133.140962 63.402933 L 132.773277 63.007988 L 132.404704 62.616989 L 132.035271 62.229904 L 131.665005 61.846702 L 131.293932 61.467352 L 130.922080 61.091822 L 130.549472 60.720083 L 130.176134 60.352104 L 129.802090 59.987855 L 129.427364 59.627305 L 129.051978 59.270426 L 128.675954 58.917187 L 128.299315 58.567559 L 127.922082 58.221514 L 127.544275 57.879022 L 127.165914 57.540056 L 126.787020 57.204586 L 126.407610 56.872586 L 126.027704 56.544027 L 125.647319 56.218882 L 125.266474 55.897123 L 124.885185 55.578724 L 124.503469 55.263659 L 124.121342 54.951899 L 123.738820 54.643421 L 123.355918 54.338197 L 122.972652 54.036202 L 122.589034 53.737410 L 122.205081 53.441797 L 121.820804 53.149338 L 121.436218 52.860007 L 121.051335 52.573781 L 120.666168 52.290636 L 120.280729 52.010547 L 119.895029 51.733492 L 119.509080 51.459446 L 119.122894 51.188387 L 118.736480 50.920293 L 118.349850 50.655139 L 117.963013 50.392905 L 117.575979 50.133568 L 117.188757 49.877107 L 116.801357 49.623499 L 116.413787 49.372724 L 116.026056 49.124761 L 115.638173 48.879588 L 115.250144 48.637186 L 114.861979 48.397534 L 114.473684 48.160612 L 114.085266 47.926400 L 113.696733 47.694879 L 113.308091 47.466029 L 112.919347 47.239832 L 112.530506 47.016268 L 112.141575 46.795320 L 111.752559 46.576968 L 111.363464 46.361195 L 110.974295 46.147983 L 110.585058 45.937314 L 110.195756 45.729170 L 109.806396 45.523536 L 109.416980 45.320393 L 109.027514 45.119725 L 108.638002 44.921516 L 108.248447 44.725749 L 107.858853 44.532409 L 107.469223 44.341480 L 107.079561 44.152945 L 106.689871 43.966790 L 106.300154 43.783000 L 105.910414 43.601560 L 105.520654 43.422455 L 105.130876 43.245671 L 104.741082 43.071193 L 104.351275 42.899007 L 103.961457 42.729100 L 103.571629 42.561458 L 103.181793 42.396068 L 102.791951 42.232916 L 102.402105 42.071990 L 102.012256 41.913276 L 101.622405 41.756763 L 101.232552 41.602438 L 100.842701 41.450288 L 100.452850 41.300302 L 100.063001 41.152468 L 99.673154 41.006775 L 99.283310 40.863211 L 98.893470 40.721765 L 98.503634 40.582426 L 98.113801 40.445183 L 97.723972 40.310027 L 97.334148 40.176945 L 96.944327 40.045929 L 96.554510 39.916968 L 96.164697 39.790053 L 95.774886 39.665174 L 95.385079 39.542321 L 94.995273 39.421486 L 94.605469 39.302658 L 94.215665 39.185830 L 93.825862 39.070993 L 93.436058 38.958138 L 93.046251 38.847257 L 92.656442 38.738342 L 92.266629 38.631385 L 91.876811 38.526378 L 91.486987 38.423313 L 91.097155 38.322184 L 90.707313 38.222983 L 90.317462 38.125702 L 89.927598 38.030336 L 89.537721 37.936876 L 89.147829 37.845318 L 88.757920 37.755654 L 88.367993 37.667878 L 87.978045 37.581985 L 87.588076 37.497968 L 87.198082 37.415822 L 86.808063 37.335541 L 86.418015 37.257120 L 86.027938 37.180553 L 85.637829 37.105837 L 85.247685 37.032966 L 84.857506 36.961935 L 84.467288 36.892740 L 84.077029 36.825376 L 83.686728 36.759840 L 83.296381 36.696127 L 82.905986 36.634234 L 82.515542 36.574157 L 82.125045 36.515892 L 81.734494 36.459436 L 81.343885 36.404787 L 80.953216 36.351940 L 80.562485 36.300894 L 80.171688 36.251645 L 79.780825 36.204190 L 79.389891 36.158529 L 78.998884 36.114658 L 78.607802 36.072575 L 78.216642 36.032279 L 77.825400 35.993768 L 77.434076 35.957040 L 77.042664 35.922094 L 76.651164 35.888929 L 76.259572 35.857543 L 75.867885 35.827936 L 75.476101 35.800107 L 75.084216 35.774056 L 74.692228 35.749781 L 74.300135 35.727283 L 73.907932 35.706562 L 73.515618 35.687618 L 73.123189 35.670451 L 72.730643 35.655061 L 72.337976 35.641449 L 71.945186 35.629616 L 71.552270 35.619562 L 71.159225 35.611289 L 70.766048 35.604798 L 70.372737 35.600090 L 69.979287 35.597167 L 69.585697 35.596030 L 69.191964 35.596681 L 68.798084 35.599122 L 68.404056 35.603356 L 68.009875 35.609385 L 67.615539 35.617211 L 67.221045 35.626837 L 66.826391 35.638266 L 66.431574 35.651500 L 66.036590 35.666544 L 65.641437 35.683400 L 65.246112 35.702072 L 64.850613 35.722563 L 64.454936 35.744878 L 64.059079 35.769020 L 63.663040 35.794994 L 63.266814 35.822804 L 62.870401 35.852454 L 62.473797 35.883950 L 62.076999 35.917296 L 61.680006 35.952496 L 61.282814 35.989558 L 60.885420 36.028484 L 60.487823 36.069283 L 60.090020 36.111958 L 59.692008 36.156516 L 59.293786 36.202964 L 58.895349 36.251306 L 58.496698 36.301551 L 58.097828 36.353704 L 57.698738 36.407773 L 57.299425 36.463764 L 56.899888 36.521684 L 56.500124 36.581541 L 56.100132 36.643343 L 55.699908 36.707097 L 55.299452 36.772811 L 54.898761 36.840494 L 54.497833 36.910153 L 54.096667 36.981797 L 53.695260 37.055435 L 53.293612 37.131076 L 52.891720 37.208728 L 52.489583 37.288402 L 52.087200 37.370107 L 51.684568 37.453851 L 51.281687 37.539646 L 50.878555 37.627501 L 50.475172 37.717426 L 50.071535 37.809433 L 49.667644 37.903531 L 49.263498 37.999732 L 48.859096 38.098047 L 48.454436 38.198487 L 48.049520 38.301063 L 47.644345 38.405788 L 47.238911 38.512673 L 46.833218 38.621730 L 46.427265 38.732972 L 46.021052 38.846412 L 45.614580 38.962062 L 45.207847 39.079935 L 44.800854 39.200045 L 44.393601 39.322405 L 43.986088 39.447028 L 43.578317 39.573930 L 43.170286 39.703123 L 42.761998 39.834623 L 42.353452 39.968444 L 41.944650 40.104601 L 41.535593 40.243108 L 41.126281 40.383982 L 40.716717 40.527238 L 40.306901 40.672892 L 39.896835 40.820960 L 39.486522 40.971457 L 39.075962 41.124402 L 38.665158 41.279810 L 38.254112 41.437699 L 37.842827 41.598085 L 37.431306 41.760987 L 37.019550 41.926423 L 36.607563 42.094410 L 36.195348 42.264966 L 35.782908 42.438111 L 35.370247 42.613864 L 34.957369 42.792242 L 34.544277 42.973267 L 34.130976 43.156957 L 33.717469 43.343332 L 33.303762 43.532413 L 32.889859 43.724220 L 32.475766 43.918774 L 32.061486 44.116096 L 31.647027 44.316207 L 31.232393 44.519129 L 30.817591 44.724884 L 30.402627 44.933493 L 29.987507 45.144980 L 29.572239 45.359367 L 29.156828 45.576676 L 28.741284 45.796933 L 28.325612 46.020159 L 27.909821 46.246379 L 27.493920 46.475617 L 27.077917 46.707898 L 26.661821 46.943247 L 26.245640 47.181687 L 25.829386 47.423246 L 25.413066 47.667948 L 24.996692 47.915820 L 24.580275 48.166888 L 24.163824 48.421178 L 23.747353 48.678718 L 23.330871 48.939534 L 22.914392 49.203655 L 22.497927 49.471107 L 22.081490 49.741920 L 21.665095 50.016121 L 21.248754 50.293740 L 20.832483 50.574806 L 20.416295 50.859347 L 20.000206 51.147394 L 19.584232 51.438977 L 19.168388 51.734125 L 18.752692 52.032871 L 18.337160 52.335243 L 17.921809 52.641275 L 17.506659 52.950998 L 17.091727 53.264443 L 16.677034 53.581642 L 16.262598 53.902629 L 15.848439 54.227436 L 15.434580 54.556096 L 15.021042 54.888642 L 14.607846 55.225109 L 14.195015 55.565530 L 13.782574 55.909940 L 13.370545 56.258374 L 12.958954 56.610866 L 12.547827 56.967451 L 12.137188 57.328166 L 11.727066 57.693046 L 11.317488 58.062127 L 10.908481 58.435446 L 10.500076 58.813039 L 10.105372 59.182701" fill="none" id="tattoo-path-cfcc4ac8381a96a0" stroke="#000000" stroke-linecap="round" stroke-linejoin="round" stroke-width="2.500000"/>
  <path clip-path="url(#tattoo-band-layer-clip)" d="M 10.976487 89.390746 L 10.987565 89.405565 L 11.325519 89.850827 L 11.665724 90.292345 L 12.008144 90.730126 L 12.352741 91.164181 L 12.699479 91.594517 L 13.048323 92.021145 L 13.399235 92.444072 L 13.752183 92.863310 L 14.107130 93.278867 L 14.464044 93.690753 L 14.822891 94.098978 L 15.183637 94.503553 L 15.546250 94.904488 L 15.910698 95.301792 L 16.276950 95.695477 L 16.644973 96.085554 L 17.014738 96.472031 L 17.386215 96.854922 L 17.759372 97.234236 L 18.134181 97.609984 L 18.510613 97.982178 L 18.888639 98.350828 L 19.268231 98.715946 L 19.649361 99.077543 L 20.032003 99.435630 L 20.416128 99.790218 L 20.801711 100.141320 L 21.188725 100.488946 L 21.577145 100.833107 L 21.966945 101.173816 L 22.358100 101.511084 L 22.750586 101.844922 L 23.144379 102.175341 L 23.539454 102.502354 L 23.935788 102.825972 L 24.333358 103.146206 L 24.732142 103.463068 L 25.132116 103.776570 L 25.533258 104.086722 L 25.935548 104.393537 L 26.338963 104.697026 L 26.743482 104.997200 L 27.149085 105.294071 L 27.555752 105.587650 L 27.963461 105.877948 L 28.372193 106.164978 L 28.781929 106.448749 L 29.192650 106.729274 L 29.604336 107.006564 L 30.016970 107.280629 L 30.430531 107.551481 L 30.845004 107.819131 L 31.260370 108.083590 L 31.676610 108.344868 L 32.093710 108.602977 L 32.511650 108.857927 L 32.930415 109.109730 L 33.349988 109.358395 L 33.770354 109.603934 L 34.191496 109.846356 L 34.613398 110.085673 L 35.036045 110.321894 L 35.459423 110.555031 L 35.883515 110.785092 L 36.308308 111.012089 L 36.733787 111.236031 L 37.159938 111.456928 L 37.586747 111.674790 L 38.014199 111.889627 L 38.442282 112.101449 L 38.870983 112.310264 L 39.300287 112.516084 L 39.730182 112.718916 L 40.160655 112.918770 L 40.591694 113.115656 L 41.023287 113.309582 L 41.455421 113.500558 L 41.888084 113.688592 L 42.321264 113.873693 L 42.754951 114.055871 L 43.189132 114.235132 L 43.623796 114.411487 L 44.058932 114.584942 L 44.494530 114.755507 L 44.930578 114.923190 L 45.367066 115.087998 L 45.803983 115.249940 L 46.241320 115.409023 L 46.679065 115.565256 L 47.117210 115.718645 L 47.555744 115.869197 L 47.994658 116.016922 L 48.433942 116.161825 L 48.873586 116.303913 L 49.313582 116.443195 L 49.753920 116.579676 L 50.194591 116.713363 L 50.635587 116.844263 L 51.076898 116.972383 L 51.518516 117.097728 L 51.960433 117.220306 L 52.402640 117.340122 L 52.845128 117.457182 L 53.287890 117.571493 L 53.730917 117.683059 L 54.174201 117.791888 L 54.617735 117.897983 L 55.061511 118.001351 L 55.505521 118.101997 L 55.949757 118.199926 L 56.394213 118.295142 L 56.838879 118.387652 L 57.283750 118.477460 L 57.728818 118.564570 L 58.174076 118.648987 L 58.619516 118.730715 L 59.065132 118.809759 L 59.510917 118.886122 L 59.956863 118.959810 L 60.402965 119.030825 L 60.849214 119.099171 L 61.295606 119.164852 L 61.742132 119.227872 L 62.188786 119.288234 L 62.635563 119.345941 L 63.082454 119.400996 L 63.529455 119.453403 L 63.976558 119.503163 L 64.423758 119.550281 L 64.871048 119.594757 L 65.318422 119.636596 L 65.765873 119.675799 L 66.213395 119.712368 L 66.660984 119.746306 L 67.108631 119.777615 L 67.556331 119.806295 L 68.004079 119.832350 L 68.451868 119.855780 L 68.899693 119.876587 L 69.347546 119.894773 L 69.795423 119.910337 L 70.243317 119.923283 L 70.691223 119.933609 L 71.139134 119.941318 L 71.587045 119.946409 L 72.034950 119.948884 L 72.482843 119.948742 L 72.930718 119.945985 L 73.378570 119.940611 L 73.826391 119.932621 L 74.274178 119.922015 L 74.721922 119.908793 L 75.169620 119.892954 L 75.617265 119.874498 L 76.064850 119.853423 L 76.512370 119.829730 L 76.959820 119.803417 L 77.407193 119.774483 L 77.854482 119.742927 L 78.301683 119.708748 L 78.748790 119.671944 L 79.195795 119.632514 L 79.642693 119.590456 L 80.089478 119.545768 L 80.536144 119.498448 L 80.982684 119.448495 L 81.429093 119.395905 L 81.875363 119.340676 L 82.321490 119.282807 L 82.767465 119.222294 L 83.213284 119.159135 L 83.658939 119.093326 L 84.104424 119.024866 L 84.549732 118.953750 L 84.994858 118.879975 L 85.439793 118.803538 L 85.884532 118.724436 L 86.329067 118.642665 L 86.773392 118.558221 L 87.217499 118.471100 L 87.661382 118.381299 L 88.105034 118.288812 L 88.548447 118.193637 L 88.991614 118.095767 L 89.434528 117.995200 L 89.877182 117.891930 L 90.319567 117.785952 L 90.761676 117.677262 L 91.203502 117.565855 L 91.645037 117.451724 L 92.086273 117.334867 L 92.527202 117.215275 L 92.967815 117.092945 L 93.408105 116.967871 L 93.848064 116.840047 L 94.287682 116.709466 L 94.726952 116.576124 L 95.165864 116.440014 L 95.604411 116.301129 L 96.042583 116.159463 L 96.480370 116.015011 L 96.917765 115.867764 L 97.354757 115.717718 L 97.791338 115.564864 L 98.227498 115.409195 L 98.663226 115.250706 L 99.098514 115.089388 L 99.533351 114.925234 L 99.967728 114.758238 L 100.401633 114.588390 L 100.835057 114.415685 L 101.267989 114.240113 L 101.700418 114.061668 L 102.132334 113.880341 L 102.563725 113.696125 L 102.994580 113.509011 L 103.424887 113.318990 L 103.854636 113.126055 L 104.283814 112.930197 L 104.712409 112.731407 L 105.140410 112.529678 L 105.567804 112.324999 L 105.994578 112.117362 L 106.420720 111.906759 L 106.846217 111.693180 L 107.271055 111.476616 L 107.695222 111.257057 L 108.118704 111.034496 L 108.541487 110.808921 L 108.963558 110.580323 L 109.384901 110.348694 L 109.805503 110.114022 L 110.225349 109.876300 L 110.644424 109.635515 L 111.062713 109.391660 L 111.480201 109.144723 L 111.896872 108.894695 L 112.312711 108.641565 L 112.727701 108.385324 L 113.141825 108.125960 L 113.555068 107.863464 L 113.967413 107.597826 L 114.378842 107.329034 L 114.789338 107.057078 L 115.198883 106.781947 L 115.607459 106.503632 L 116.015049 106.222121 L 116.421633 105.937403 L 116.827193 105.649468 L 117.231710 105.358304 L 117.635164 105.063902 L 118.037536 104.766249 L 118.438805 104.465336 L 118.838952 104.161150 L 119.237955 103.853681 L 119.635794 103.542919 L 120.032447 103.228851 L 120.427893 102.911467 L 120.822110 102.590756 L 121.215075 102.266706 L 121.606766 101.939307 L 121.997159 101.608547 L 122.386233 101.274416 L 122.773962 100.936902 L 123.160322 100.595993 L 123.545290 100.251680 L 123.928841 99.903950 L 124.310948 99.552794 L 124.691588 99.198199 L 125.070733 98.840156 L 125.448357 98.478652 L 125.824435 98.113677 L 126.198938 97.745220 L 126.571839 97.373271 L 126.943110 96.997819 L 127.312722 96.618853 L 127.680648 96.236362 L 128.046858 95.850336 L 128.411321 95.460765 L 128.774009 95.067637 L 129.134890 94.670944 L 129.493934 94.270675 L 129.851109 93.866819 L 130.206384 93.459368 L 130.559726 93.048310 L 130.911102 92.633637 L 131.260479 92.215339 L 131.607824 91.793407 L 131.953102 91.367831 L 132.296279 90.938602 L 132.637319 90.505712 L 132.976188 90.069152 L 133.312848 89.628913 L 133.647264 89.184987 L 133.979398 88.737366 L 134.309212 88.286042 L 134.320019 88.271024" fill="none" id="tattoo-path-14f28a124694bb92" stroke="#000000" stroke-linecap="round" stroke-linejoin="round" stroke-width="2.200000"/>
  <path clip-path="url(#tattoo-band-layer-clip)" d="M 24.574608 114.614093 L 24.575750 114.531969 L 24.586753 113.974126 L 24.600907 113.419270 L 24.618161 112.867383 L 24.638468 112.318448 L 24.661778 111.772447 L 24.688046 111.229362 L 24.717226 110.689176 L 24.749272 110.151869 L 24.784140 109.617425 L 24.821787 109.085824 L 24.862169 108.557049 L 24.905247 108.031080 L 24.950977 107.507900 L 24.999322 106.987490 L 25.050240 106.469831 L 25.103694 105.954905 L 25.159645 105.442693 L 25.218058 104.933177 L 25.278895 104.426337 L 25.342120 103.922156 L 25.407700 103.420614 L 25.475599 102.921693 L 25.545784 102.425374 L 25.618223 101.931639 L 25.692882 101.440468 L 25.769731 100.951844 L 25.848739 100.465748 L 25.929875 99.982161 L 26.013110 99.501065 L 26.098414 99.022442 L 26.185759 98.546273 L 26.275117 98.072539 L 26.366461 97.601224 L 26.459764 97.132308 L 26.555000 96.665773 L 26.652142 96.201602 L 26.751167 95.739776 L 26.852048 95.280277 L 26.954762 94.823089 L 27.059286 94.368192 L 27.165595 93.915570 L 27.273669 93.465205 L 27.383483 93.017079 L 27.495017 92.571176 L 27.608249 92.127477 L 27.723159 91.685966 L 27.839726 91.246626 L 27.957930 90.809439 L 28.077751 90.374390 L 28.199171 89.941460 L 28.322171 89.510634 L 28.446732 89.081894 L 28.572838 88.655225 L 28.700469 88.230611 L 28.829609 87.808034 L 28.960242 87.387479 L 29.092351 86.968929 L 29.225920 86.552370 L 29.360934 86.137784 L 29.497377 85.725158 L 29.635234 85.314474 L 29.774490 84.905717 L 29.915133 84.498873 L 30.057147 84.093925 L 30.200519 83.690860 L 30.345235 83.289661 L 30.491284 82.890315 L 30.638651 82.492806 L 30.787326 82.097119 L 30.937295 81.703241 L 31.088547 81.311157 L 31.241071 80.920852 L 31.394856 80.532312 L 31.549890 80.145524 L 31.706163 79.760474 L 31.863665 79.377147 L 32.022385 78.995530 L 32.182314 78.615609 L 32.343443 78.237372 L 32.505761 77.860804 L 32.669260 77.485893 L 32.833932 77.112625 L 32.999767 76.740988 L 33.166757 76.370968 L 33.334894 76.002553 L 33.504171 75.635731 L 33.674580 75.270488 L 33.846113 74.906813 L 34.018764 74.544693 L 34.192524 74.184115 L 34.367389 73.825069 L 34.543350 73.467542 L 34.720402 73.111522 L 34.898539 72.756997 L 35.077755 72.403957 L 35.258044 72.052389 L 35.439400 71.702282 L 35.621819 71.353625 L 35.805295 71.006407 L 35.989823 70.660616 L 36.175399 70.316243 L 36.362019 69.973276 L 36.549677 69.631704 L 36.738369 69.291517 L 36.928092 68.952704 L 37.118842 68.615256 L 37.310615 68.279162 L 37.503408 67.944411 L 37.697217 67.610994 L 37.892040 67.278901 L 38.087872 66.948122 L 38.284713 66.618647 L 38.482558 66.290468 L 38.681405 65.963573 L 38.881253 65.637955 L 39.082098 65.313603 L 39.283940 64.990509 L 39.486775 64.668664 L 39.690603 64.348058 L 39.895422 64.028683 L 40.101230 63.710530 L 40.308026 63.393591 L 40.515809 63.077856 L 40.724578 62.763318 L 40.934333 62.449968 L 41.145072 62.137799 L 41.356795 61.826801 L 41.569502 61.516967 L 41.783192 61.208289 L 41.997866 60.900760 L 42.213523 60.594371 L 42.430163 60.289115 L 42.647786 59.984985 L 42.866394 59.681973 L 43.085987 59.380072 L 43.306565 59.079275 L 43.528128 58.779574 L 43.750679 58.480963 L 43.974218 58.183434 L 44.198746 57.886982 L 44.424265 57.591599 L 44.650776 57.297279 L 44.878280 57.004016 L 45.106780 56.711802 L 45.336276 56.420632 L 45.566772 56.130500 L 45.798268 55.841399 L 46.030767 55.553324 L 46.264272 55.266268 L 46.498785 54.980226 L 46.734308 54.695193 L 46.970844 54.411162 L 47.208396 54.128129 L 47.446966 53.846087 L 47.686558 53.565032 L 47.927175 53.284959 L 48.168820 53.005862 L 48.411496 52.727737 L 48.655206 52.450578 L 48.899955 52.174381 L 49.145746 51.899141 L 49.392582 51.624854 L 49.640469 51.351515 L 49.889409 51.079121 L 50.139406 50.807666 L 50.390466 50.537146 L 50.642592 50.267558 L 50.895790 49.998897 L 51.150062 49.731161 L 51.405415 49.464344 L 51.661853 49.198444 L 51.919381 48.933457 L 52.178003 48.669379 L 52.437726 48.406208 L 52.698555 48.143939 L 52.960494 47.882571 L 53.223549 47.622100 L 53.487726 47.362523 L 53.753031 47.103837 L 54.019469 46.846040 L 54.287046 46.589129 L 54.555769 46.333102 L 54.825643 46.077956 L 55.096675 45.823690 L 55.368871 45.570301 L 55.642238 45.317787 L 55.916782 45.066146 L 56.192511 44.815377 L 56.469430 44.565478 L 56.747547 44.316448 L 57.026868 44.068285 L 57.307402 43.820987 L 57.589155 43.574554 L 57.872135 43.328985 L 58.156349 43.084278 L 58.441806 42.840434 L 58.728511 42.597450 L 59.016475 42.355328 L 59.305704 42.114065 L 59.596207 41.873663 L 59.887991 41.634121 L 60.181066 41.395438 L 60.475439 41.157616 L 60.771120 40.920654 L 61.068117 40.684552 L 61.366439 40.449311 L 61.666094 40.214932 L 61.967092 39.981416 L 62.269442 39.748763 L 62.573153 39.516975 L 62.878235 39.286052 L 63.184698 39.055997 L 63.492550 38.826810 L 63.801802 38.598494 L 64.112463 38.371049 L 64.424544 38.144479 L 64.738055 37.918784 L 65.053006 37.693968 L 65.369408 37.470033 L 65.687271 37.246981 L 66.006605 37.024816 L 66.327422 36.803539 L 66.649732 36.583155 L 66.973547 36.363666 L 67.298878 36.145076 L 67.625735 35.927388 L 67.954132 35.710606 L 68.284078 35.494734 L 68.615586 35.279777 L 68.948667 35.065738 L 69.283334 34.852622 L 69.619599 34.640434 L 69.957473 34.429179 L 70.296970 34.218861 L 70.638102 34.009486 L 70.980881 33.801060 L 71.325321 33.593587 L 71.671434 33.387074 L 72.019232 33.181528 L 72.368731 32.976954 L 72.719942 32.773358 L 73.072879 32.570749 L 73.427557 32.369132 L 73.783988 32.168514 L 74.142186 31.968904 L 74.502166 31.770308 L 74.863942 31.572735 L 75.227528 31.376193 L 75.592939 31.180690 L 75.960189 30.986235 L 76.329293 30.792837 L 76.700266 30.600505 L 77.073122 30.409248 L 77.447878 30.219075 L 77.824549 30.029998 L 78.203149 29.842026 L 78.583695 29.655169 L 78.966203 29.469439 L 79.350688 29.284846 L 79.737166 29.101402 L 80.125654 28.919118 L 80.516168 28.738007 L 80.908725 28.558081 L 81.303341 28.379352 L 81.700034 28.201833 L 82.098819 28.025538 L 82.499714 27.850480 L 82.902737 27.676674 L 83.307905 27.504133 L 83.715236 27.332871 L 84.124746 27.162905 L 84.536455 26.994249 L 84.950380 26.826920 L 85.366539 26.660932 L 85.784951 26.496304 L 86.205634 26.333051 L 86.628606 26.171191 L 87.053887 26.010741 L 87.481495 25.851721 L 87.911449 25.694148 L 88.343769 25.538041 L 88.778473 25.383419 L 89.215582 25.230304 L 89.655115 25.078714 L 90.097091 24.928671 L 90.541531 24.780196 L 90.988455 24.633310 L 91.437881 24.488037 L 91.889832 24.344398 L 92.344327 24.202417 L 92.801387 24.062117 L 93.261033 23.923524 L 93.723285 23.786661 L 94.188164 23.651554 L 94.655691 23.518229 L 95.125887 23.386713 L 95.598774 23.257033 L 96.074374 23.129216 L 96.552706 23.003290 L 97.033793 22.879285 L 97.517658 22.757229 L 98.004320 22.637154 L 98.493803 22.519090 L 98.986128 22.403068 L 99.481317 22.289121 L 99.979393 22.177282 L 100.480377 22.067583 L 100.984292 21.960059 L 101.491160 21.854745 L 102.001003 21.751678 L 102.513845 21.650892 L 103.029706 21.552426 L 103.548611 21.456318 L 104.070580 21.362606 L 104.595638 21.271330 L 105.123806 21.182531 L 105.655106 21.096250 L 106.189563 21.012528 L 106.727197 20.931410 L 107.268033 20.852938 L 107.812091 20.777158 L 108.359395 20.704116 L 108.909967 20.633858 L 109.463829 20.566432 L 109.545415 20.556981" fill="none" id="tattoo-path-0b43291cee88903c" stroke="#000000" stroke-linecap="round" stroke-linejoin="round" stroke-width="1.900000"/>
  <path clip-path="url(#tattoo-band-layer-clip)" d="M 73.395954 136.293709 L 73.328031 135.826554 L 73.248870 135.278185 L 73.170862 134.733924 L 73.093985 134.193703 L 73.018219 133.657460 L 72.943540 133.125130 L 72.869930 132.596653 L 72.797367 132.071966 L 72.725832 131.551010 L 72.655307 131.033728 L 72.585772 130.520060 L 72.517209 130.009952 L 72.449601 129.503347 L 72.382930 129.000191 L 72.317179 128.500430 L 72.252332 128.004013 L 72.188372 127.510888 L 72.125284 127.021003 L 72.063052 126.534310 L 72.001661 126.050760 L 71.941096 125.570304 L 71.881344 125.092895 L 71.822390 124.618487 L 71.764220 124.147035 L 71.706821 123.678494 L 71.650180 123.212819 L 71.594283 122.749967 L 71.539120 122.289896 L 71.484676 121.832565 L 71.430940 121.377931 L 71.377901 120.925954 L 71.325547 120.476595 L 71.273867 120.029814 L 71.222850 119.585573 L 71.172485 119.143834 L 71.122761 118.704559 L 71.073669 118.267713 L 71.025198 117.833257 L 70.977339 117.401158 L 70.930082 116.971381 L 70.883417 116.543889 L 70.837335 116.118651 L 70.791828 115.695631 L 70.746886 115.274798 L 70.702500 114.856119 L 70.658663 114.439561 L 70.615367 114.025095 L 70.572602 113.612687 L 70.530361 113.202309 L 70.488636 112.793929 L 70.447420 112.387519 L 70.406705 111.983048 L 70.366484 111.580489 L 70.326750 111.179812 L 70.287495 110.780990 L 70.248713 110.383995 L 70.210398 109.988800 L 70.172541 109.595378 L 70.135138 109.203703 L 70.098182 108.813748 L 70.061666 108.425488 L 70.025584 108.038897 L 69.989931 107.653950 L 69.954701 107.270623 L 69.919887 106.888890 L 69.885485 106.508729 L 69.851489 106.130115 L 69.817893 105.753024 L 69.784692 105.377434 L 69.751881 105.003322 L 69.719455 104.630665 L 69.687409 104.259440 L 69.655739 103.889626 L 69.624438 103.521201 L 69.593503 103.154143 L 69.562929 102.788431 L 69.532712 102.424045 L 69.502846 102.060962 L 69.473329 101.699164 L 69.444155 101.338630 L 69.415320 100.979338 L 69.386820 100.621271 L 69.358652 100.264408 L 69.330812 99.908730 L 69.303294 99.554217 L 69.276097 99.200852 L 69.249215 98.848614 L 69.222646 98.497486 L 69.196385 98.147449 L 69.170430 97.798486 L 69.144777 97.450577 L 69.119423 97.103706 L 69.094364 96.757854 L 69.069597 96.413006 L 69.045118 96.069142 L 69.020926 95.726246 L 68.997016 95.384302 L 68.973387 95.043292 L 68.950034 94.703201 L 68.926955 94.364011 L 68.904147 94.025706 L 68.881608 93.688271 L 68.859334 93.351688 L 68.837323 93.015944 L 68.815574 92.681021 L 68.794082 92.346905 L 68.772845 92.013579 L 68.751862 91.681029 L 68.731129 91.349240 L 68.710645 91.018196 L 68.690406 90.687882 L 68.670412 90.358285 L 68.650659 90.029388 L 68.631145 89.701179 L 68.611869 89.373641 L 68.592828 89.046761 L 68.574020 88.720525 L 68.555444 88.394919 L 68.537097 88.069928 L 68.518977 87.745539 L 68.501083 87.421738 L 68.483413 87.098510 L 68.465965 86.775843 L 68.448737 86.453724 L 68.431727 86.132137 L 68.414935 85.811071 L 68.398357 85.490511 L 68.381994 85.170445 L 68.365842 84.850860 L 68.349902 84.531742 L 68.334170 84.213078 L 68.318646 83.894856 L 68.303329 83.577063 L 68.288216 83.259685 L 68.273307 82.942711 L 68.258601 82.626127 L 68.244095 82.309921 L 68.229789 81.994080 L 68.215682 81.678592 L 68.201772 81.363445 L 68.188059 81.048626 L 68.174541 80.734123 L 68.161217 80.419923 L 68.148086 80.106014 L 68.135147 79.792385 L 68.122399 79.479022 L 68.109841 79.165914 L 68.097472 78.853049 L 68.085292 78.540415 L 68.073299 78.227999 L 68.061493 77.915790 L 68.049872 77.603777 L 68.038436 77.291946 L 68.027185 76.980286 L 68.016117 76.668785 L 68.005233 76.357432 L 67.994530 76.046214 L 67.984009 75.735121 L 67.973668 75.424139 L 67.963509 75.113257 L 67.953528 74.802465 L 67.943728 74.491749 L 67.934105 74.181098 L 67.924662 73.870501 L 67.915396 73.559945 L 67.906307 73.249420 L 67.897396 72.938913 L 67.888661 72.628413 L 67.880102 72.317908 L 67.871720 72.007386 L 67.863513 71.696837 L 67.855482 71.386247 L 67.847626 71.075605 L 67.839945 70.764901 L 67.832439 70.454121 L 67.825108 70.143254 L 67.817951 69.832289 L 67.810969 69.521214 L 67.804161 69.210017 L 67.797527 68.898686 L 67.791068 68.587209 L 67.784783 68.275576 L 67.778673 67.963773 L 67.772737 67.651788 L 67.766975 67.339611 L 67.761388 67.027229 L 67.755976 66.714631 L 67.750739 66.401803 L 67.745677 66.088734 L 67.740791 65.775413 L 67.736080 65.461827 L 67.731545 65.147963 L 67.727186 64.833810 L 67.723004 64.519356 L 67.718999 64.204587 L 67.715171 63.889493 L 67.711521 63.574060 L 67.708049 63.258276 L 67.704755 62.942129 L 67.701641 62.625605 L 67.698707 62.308694 L 67.695953 61.991381 L 67.693379 61.673654 L 67.690987 61.355501 L 67.688778 61.036908 L 67.686751 60.717863 L 67.684908 60.398352 L 67.683249 60.078363 L 67.681775 59.757882 L 67.680487 59.436897 L 67.679385 59.115394 L 67.678472 58.793359 L 67.677747 58.470780 L 67.677211 58.147642 L 67.676866 57.823932 L 67.676712 57.499637 L 67.676751 57.174742 L 67.676984 56.849234 L 67.677411 56.523098 L 67.678034 56.196321 L 67.678854 55.868888 L 67.679872 55.540786 L 67.681090 55.211999 L 67.682509 54.882513 L 67.684130 54.552313 L 67.685955 54.221385 L 67.687985 53.889714 L 67.690221 53.557285 L 67.692665 53.224083 L 67.695318 52.890092 L 67.698183 52.555297 L 67.701260 52.219683 L 67.704552 51.883234 L 67.708060 51.545934 L 67.711785 51.207767 L 67.715731 50.868717 L 67.719897 50.528769 L 67.724288 50.187904 L 67.728903 49.846108 L 67.733746 49.503363 L 67.738819 49.159653 L 67.744122 48.814960 L 67.749660 48.469267 L 67.755433 48.122557 L 67.761444 47.774812 L 67.767696 47.426015 L 67.774191 47.076148 L 67.780930 46.725192 L 67.787917 46.373130 L 67.795155 46.019942 L 67.802645 45.665610 L 67.810391 45.310116 L 67.818394 44.953440 L 67.826659 44.595562 L 67.835187 44.236464 L 67.843982 43.876125 L 67.853047 43.514525 L 67.862384 43.151645 L 67.871997 42.787463 L 67.881889 42.421960 L 67.892064 42.055113 L 67.902523 41.686903 L 67.913272 41.317307 L 67.924313 40.946303 L 67.935650 40.573870 L 67.947287 40.199986 L 67.959227 39.824627 L 67.971474 39.447772 L 67.984033 39.069396 L 67.996906 38.689477 L 68.010098 38.307990 L 68.023614 37.924912 L 68.037457 37.540218 L 68.051632 37.153884 L 68.066143 36.765884 L 68.080996 36.376193 L 68.096193 35.984786 L 68.111741 35.591636 L 68.127644 35.196717 L 68.143908 34.800002 L 68.160536 34.401464 L 68.177535 34.001076 L 68.194910 33.598809 L 68.212665 33.194635 L 68.230808 32.788525 L 68.249343 32.380451 L 68.268276 31.970382 L 68.287613 31.558289 L 68.307361 31.144141 L 68.327525 30.727907 L 68.348112 30.309555 L 68.369128 29.889055 L 68.390580 29.466373 L 68.412476 29.041476 L 68.434821 28.614332 L 68.457623 28.184906 L 68.480890 27.753165 L 68.504628 27.319072 L 68.528846 26.882593 L 68.553551 26.443691 L 68.578751 26.002330 L 68.604455 25.558472 L 68.630670 25.112080 L 68.657406 24.663116 L 68.684672 24.211540 L 68.712475 23.757312 L 68.740827 23.300392 L 68.769735 22.840739 L 68.799210 22.378311 L 68.829261 21.913066 L 68.859899 21.444961 L 68.891134 20.973951 L 68.922977 20.499992 L 68.955438 20.023039 L 68.988530 19.543045 L 69.022262 19.059963 L 69.056648 18.573745 L 69.091698 18.084343 L 69.127426 17.591707 L 69.163844 17.095786 L 69.200964 16.596530 L 69.238801 16.093885 L 69.277367 15.587798 L 69.316678 15.078216 L 69.356746 14.565082 L 69.397587 14.048341 L 69.439215 13.527935 L 69.481647 13.003806 L 69.524898 12.475894 L 69.568984 11.944139 L 69.613922 11.408478 L 69.659728 10.868850 L 69.706422 10.325188 L 69.754020 9.777429 L 69.802541 9.225505 L 69.844360 8.755294" fill="none" id="tattoo-path-e9c7e950657a5ea0" stroke="#000000" stroke-linecap="round" stroke-linejoin="round" stroke-width="1.600000"/>
  <path clip-path="url(#tattoo-band-layer-clip)" d="M 107.810623 125.637557 L 107.693324 125.547833 L 107.252014 125.208484 L 106.814788 124.870514 L 106.381581 124.533910 L 105.952326 124.198661 L 105.526960 123.864753 L 105.105421 123.532173 L 104.687648 123.200909 L 104.273581 122.870948 L 103.863160 122.542277 L 103.456329 122.214883 L 103.053030 121.888754 L 102.653208 121.563877 L 102.256809 121.240238 L 101.863779 120.917826 L 101.474067 120.596628 L 101.087620 120.276630 L 100.704389 119.957820 L 100.324323 119.640185 L 99.947375 119.323713 L 99.573497 119.008391 L 99.202642 118.694206 L 98.834764 118.381147 L 98.469819 118.069200 L 98.107761 117.758353 L 97.748549 117.448593 L 97.392138 117.139909 L 97.038488 116.832287 L 96.687558 116.525716 L 96.339306 116.220184 L 95.993694 115.915677 L 95.650682 115.612185 L 95.310232 115.309695 L 94.972308 115.008194 L 94.636871 114.707672 L 94.303886 114.408116 L 93.973317 114.109514 L 93.645128 113.811855 L 93.319287 113.515126 L 92.995759 113.219317 L 92.674510 112.924415 L 92.355508 112.630409 L 92.038721 112.337288 L 91.724118 112.045039 L 91.411667 111.753653 L 91.101338 111.463116 L 90.793100 111.173419 L 90.486925 110.884550 L 90.182784 110.596498 L 89.880647 110.309251 L 89.580487 110.022799 L 89.282276 109.737131 L 88.985987 109.452235 L 88.691594 109.168102 L 88.399069 108.884720 L 88.108388 108.602079 L 87.819524 108.320167 L 87.532452 108.038975 L 87.247149 107.758492 L 86.963589 107.478707 L 86.681749 107.199610 L 86.401605 106.921190 L 86.123134 106.643438 L 85.846313 106.366342 L 85.571121 106.089893 L 85.297533 105.814081 L 85.025530 105.538895 L 84.755090 105.264326 L 84.486190 104.990363 L 84.218811 104.716997 L 83.952933 104.444217 L 83.688534 104.172013 L 83.425595 103.900377 L 83.164097 103.629298 L 82.904019 103.358767 L 82.645344 103.088773 L 82.388052 102.819307 L 82.132125 102.550361 L 81.877545 102.281923 L 81.624293 102.013985 L 81.372353 101.746537 L 81.121706 101.479570 L 80.872335 101.213075 L 80.624224 100.947042 L 80.377356 100.681462 L 80.131713 100.416325 L 79.887281 100.151624 L 79.644043 99.887347 L 79.401983 99.623487 L 79.161086 99.360034 L 78.921335 99.096980 L 78.682717 98.834314 L 78.445216 98.572029 L 78.208817 98.310115 L 77.973506 98.048564 L 77.739268 97.787366 L 77.506089 97.526512 L 77.273956 97.265995 L 77.042854 97.005804 L 76.812769 96.745932 L 76.583689 96.486370 L 76.355600 96.227109 L 76.128488 95.968139 L 75.902342 95.709454 L 75.677147 95.451043 L 75.452892 95.192899 L 75.229564 94.935012 L 75.007151 94.677375 L 74.785641 94.419978 L 74.565020 94.162814 L 74.345279 93.905873 L 74.126404 93.649147 L 73.908385 93.392628 L 73.691210 93.136308 L 73.474867 92.880177 L 73.259346 92.624227 L 73.044636 92.368451 L 72.830725 92.112839 L 72.617602 91.857384 L 72.405258 91.602076 L 72.193682 91.346908 L 71.982862 91.091871 L 71.772790 90.836957 L 71.563454 90.582157 L 71.354845 90.327463 L 71.146953 90.072868 L 70.939768 89.818361 L 70.733280 89.563936 L 70.527480 89.309584 L 70.322358 89.055297 L 70.117904 88.801065 L 69.914110 88.546882 L 69.710966 88.292738 L 69.508464 88.038626 L 69.306593 87.784536 L 69.105346 87.530462 L 68.904713 87.276393 L 68.704686 87.022323 L 68.505256 86.768242 L 68.306415 86.514143 L 68.108153 86.260017 L 67.910464 86.005855 L 67.713338 85.751650 L 67.516767 85.497392 L 67.320743 85.243074 L 67.125258 84.988688 L 66.930305 84.734223 L 66.735874 84.479674 L 66.541960 84.225029 L 66.348553 83.970283 L 66.155646 83.715425 L 65.963231 83.460447 L 65.771302 83.205341 L 65.579850 82.950098 L 65.388869 82.694710 L 65.198350 82.439168 L 65.008287 82.183464 L 64.818673 81.927588 L 64.629500 81.671533 L 64.440761 81.415289 L 64.252450 81.158847 L 64.064560 80.902200 L 63.877083 80.645337 L 63.690013 80.388251 L 63.503343 80.130933 L 63.317067 79.873373 L 63.131177 79.615563 L 62.945668 79.357493 L 62.760533 79.099155 L 62.575765 78.840540 L 62.391358 78.581638 L 62.207305 78.322441 L 62.023601 78.062939 L 61.840239 77.803123 L 61.657214 77.542984 L 61.474517 77.282513 L 61.292145 77.021700 L 61.110090 76.760535 L 60.928347 76.499010 L 60.746910 76.237115 L 60.565772 75.974840 L 60.384928 75.712175 L 60.204373 75.449112 L 60.024100 75.185640 L 59.844104 74.921749 L 59.664378 74.657430 L 59.484918 74.392673 L 59.305718 74.127468 L 59.126772 73.861804 L 58.948075 73.595672 L 58.769621 73.329062 L 58.591405 73.061963 L 58.413421 72.794365 L 58.235664 72.526258 L 58.058129 72.257630 L 57.880810 71.988473 L 57.703703 71.718774 L 57.526802 71.448524 L 57.350101 71.177711 L 57.173596 70.906325 L 56.997282 70.634355 L 56.821153 70.361790 L 56.645205 70.088619 L 56.469432 69.814830 L 56.293830 69.540412 L 56.118393 69.265354 L 55.943117 68.989645 L 55.767997 68.713273 L 55.593028 68.436225 L 55.418205 68.158492 L 55.243524 67.880059 L 55.068979 67.600917 L 54.894566 67.321052 L 54.720280 67.040452 L 54.546118 66.759105 L 54.372073 66.476999 L 54.198141 66.194121 L 54.024319 65.910459 L 53.850601 65.625999 L 53.676983 65.340729 L 53.503460 65.054636 L 53.330029 64.767706 L 53.156684 64.479927 L 52.983421 64.191285 L 52.810236 63.901766 L 52.637124 63.611357 L 52.464082 63.320044 L 52.291105 63.027813 L 52.118189 62.734650 L 51.945329 62.440541 L 51.772522 62.145471 L 51.599763 61.849425 L 51.427048 61.552390 L 51.254373 61.254349 L 51.081734 60.955289 L 50.909128 60.655193 L 50.736549 60.354047 L 50.563994 60.051835 L 50.391460 59.748541 L 50.218942 59.444150 L 50.046436 59.138645 L 49.873938 58.832009 L 49.701446 58.524227 L 49.528954 58.215282 L 49.356460 57.905157 L 49.183959 57.593835 L 49.011448 57.281299 L 48.838923 56.967531 L 48.666381 56.652514 L 48.493818 56.336229 L 48.321230 56.018658 L 48.148615 55.699784 L 47.975967 55.379588 L 47.803285 55.058051 L 47.630565 54.735153 L 47.457803 54.410876 L 47.284996 54.085200 L 47.112141 53.758105 L 46.939235 53.429571 L 46.766274 53.099579 L 46.593255 52.768106 L 46.420175 52.435133 L 46.247031 52.100639 L 46.073820 51.764602 L 45.900540 51.427000 L 45.727186 51.087811 L 45.553757 50.747013 L 45.380249 50.404584 L 45.206660 50.060501 L 45.032987 49.714740 L 44.859228 49.367278 L 44.685379 49.018091 L 44.511438 48.667155 L 44.337403 48.314445 L 44.163271 47.959936 L 43.989040 47.603604 L 43.814708 47.245422 L 43.640272 46.885365 L 43.465731 46.523406 L 43.291081 46.159519 L 43.116322 45.793676 L 42.941451 45.425850 L 42.766466 45.056013 L 42.591366 44.684136 L 42.416148 44.310191 L 42.240812 43.934149 L 42.065355 43.555979 L 41.889776 43.175652 L 41.714075 42.793138 L 41.538248 42.408404 L 41.362297 42.021420 L 41.186218 41.632154 L 41.010012 41.240573 L 40.833678 40.846644 L 40.657214 40.450333 L 40.480620 40.051607 L 40.303897 39.650430 L 40.127042 39.246768 L 39.950057 38.840585 L 39.772941 38.431845 L 39.595693 38.020510 L 39.418315 37.606543 L 39.240807 37.189906 L 39.063168 36.770560 L 38.885400 36.348467 L 38.707504 35.923584 L 38.529480 35.495873 L 38.351329 35.065292 L 38.173053 34.631798 L 37.994654 34.195348 L 37.816133 33.755900 L 37.637491 33.313409 L 37.458732 32.867829 L 37.279857 32.419115 L 37.100870 31.967220 L 36.921771 31.512098 L 36.742566 31.053698 L 36.563257 30.591974 L 36.383847 30.126873 L 36.204341 29.658347 L 36.024742 29.186341 L 35.845055 28.710805 L 35.665285 28.231685 L 35.485436 27.748925 L 35.305514 27.262470 L 35.125524 26.772264 L 34.945473 26.278249 L 34.765366 25.780365 L 34.585211 25.278554 L 34.405014 24.772755 L 34.224783 24.262904 L 34.044526 23.748940 L 33.864252 23.230797 L 33.683968 22.708411 L 33.503684 22.181714 L 33.456215 22.041871" fill="none" id="tattoo-path-a2c7376fdfd2a096" stroke="#000000" stroke-linecap="round" stroke-linejoin="round" stroke-width="1.200000"/>
  <path clip-path="url(#tattoo-band-layer-clip)" d="M 50.236176 132.289315 L 50.342923 132.156829 L 50.691018 131.722609 L 51.035497 131.290731 L 51.376421 130.861165 L 51.713850 130.433883 L 52.047842 130.008856 L 52.378455 129.586057 L 52.705746 129.165458 L 53.029768 128.747030 L 53.350576 128.330749 L 53.668222 127.916585 L 53.982759 127.504514 L 54.294237 127.094508 L 54.602704 126.686542 L 54.908211 126.280589 L 55.210804 125.876626 L 55.510530 125.474625 L 55.807435 125.074563 L 56.101564 124.676415 L 56.392960 124.280156 L 56.681666 123.885763 L 56.967725 123.493212 L 57.251178 123.102478 L 57.532065 122.713540 L 57.810427 122.326373 L 58.086301 121.940954 L 58.359727 121.557262 L 58.630742 121.175274 L 58.899383 120.794968 L 59.165686 120.416322 L 59.429685 120.039315 L 59.691417 119.663924 L 59.950915 119.290129 L 60.208211 118.917909 L 60.463341 118.547243 L 60.716334 118.178111 L 60.967224 117.810492 L 61.216040 117.444367 L 61.462815 117.079715 L 61.707576 116.716516 L 61.950355 116.354752 L 62.191178 115.994403 L 62.430076 115.635450 L 62.667076 115.277875 L 62.902204 114.921657 L 63.135488 114.566780 L 63.366955 114.213224 L 63.596629 113.860972 L 63.824537 113.510005 L 64.050703 113.160306 L 64.275152 112.811858 L 64.497908 112.464642 L 64.718995 112.118642 L 64.938436 111.773840 L 65.156254 111.430220 L 65.372471 111.087765 L 65.587109 110.746459 L 65.800190 110.406284 L 66.011737 110.067224 L 66.221768 109.729265 L 66.430306 109.392388 L 66.637370 109.056580 L 66.842981 108.721823 L 67.047157 108.388103 L 67.249919 108.055404 L 67.451285 107.723710 L 67.651274 107.393008 L 67.849905 107.063280 L 68.047195 106.734514 L 68.243162 106.406694 L 68.437824 106.079806 L 68.631198 105.753834 L 68.823300 105.428765 L 69.014148 105.104584 L 69.203758 104.781278 L 69.392145 104.458832 L 69.579327 104.137233 L 69.765318 103.816466 L 69.950134 103.496518 L 70.133789 103.177375 L 70.316300 102.859024 L 70.497680 102.541452 L 70.677944 102.224645 L 70.857106 101.908591 L 71.035181 101.593275 L 71.212181 101.278686 L 71.388121 100.964810 L 71.563014 100.651635 L 71.736872 100.339147 L 71.909710 100.027335 L 72.081539 99.716186 L 72.252373 99.405687 L 72.422224 99.095825 L 72.591103 98.786590 L 72.759023 98.477969 L 72.925997 98.169948 L 73.092034 97.862518 L 73.257148 97.555665 L 73.421348 97.249377 L 73.584647 96.943644 L 73.747056 96.638453 L 73.908584 96.333792 L 74.069244 96.029650 L 74.229045 95.726016 L 74.387998 95.422877 L 74.546113 95.120223 L 74.703399 94.818043 L 74.859868 94.516324 L 75.015529 94.215056 L 75.170391 93.914227 L 75.324464 93.613827 L 75.477757 93.313845 L 75.630280 93.014268 L 75.782041 92.715087 L 75.933051 92.416291 L 76.083316 92.117868 L 76.232847 91.819808 L 76.381652 91.522100 L 76.529739 91.224733 L 76.677117 90.927697 L 76.823794 90.630981 L 76.969777 90.334575 L 77.115077 90.038467 L 77.259699 89.742647 L 77.403652 89.447106 L 77.546943 89.151831 L 77.689581 88.856813 L 77.831573 88.562042 L 77.972925 88.267507 L 78.113646 87.973198 L 78.253742 87.679104 L 78.393222 87.385215 L 78.532090 87.091521 L 78.670356 86.798012 L 78.808024 86.504677 L 78.945103 86.211506 L 79.081599 85.918490 L 79.217518 85.625617 L 79.352866 85.332877 L 79.487651 85.040261 L 79.621878 84.747759 L 79.755553 84.455359 L 79.888683 84.163053 L 80.021274 83.870830 L 80.153332 83.578680 L 80.284862 83.286593 L 80.415870 82.994558 L 80.546362 82.702566 L 80.676344 82.410607 L 80.805822 82.118671 L 80.934800 81.826746 L 81.063284 81.534825 L 81.191279 81.242896 L 81.318791 80.950949 L 81.445825 80.658974 L 81.572386 80.366961 L 81.698479 80.074900 L 81.824110 79.782782 L 81.949282 79.490595 L 82.074001 79.198329 L 82.198272 78.905976 L 82.322099 78.613523 L 82.445487 78.320962 L 82.568441 78.028282 L 82.690965 77.735473 L 82.813063 77.442524 L 82.934740 77.149426 L 83.056001 76.856168 L 83.176850 76.562740 L 83.297290 76.269131 L 83.417326 75.975331 L 83.536962 75.681330 L 83.656203 75.387118 L 83.775051 75.092684 L 83.893512 74.798017 L 84.011589 74.503107 L 84.129285 74.207944 L 84.246605 73.912516 L 84.363552 73.616814 L 84.480130 73.320827 L 84.596342 73.024543 L 84.712192 72.727953 L 84.827684 72.431046 L 84.942821 72.133810 L 85.057606 71.836235 L 85.172042 71.538310 L 85.286133 71.240024 L 85.399883 70.941366 L 85.513293 70.642325 L 85.626368 70.342890 L 85.739110 70.043049 L 85.851522 69.742792 L 85.963608 69.442107 L 86.075370 69.140983 L 86.186811 68.839408 L 86.297934 68.537371 L 86.408742 68.234861 L 86.519237 67.931865 L 86.629421 67.628372 L 86.739299 67.324371 L 86.848871 67.019849 L 86.958141 66.714795 L 87.067111 66.409196 L 87.175783 66.103041 L 87.284160 65.796317 L 87.392244 65.489012 L 87.500037 65.181115 L 87.607542 64.872611 L 87.714760 64.563490 L 87.821693 64.253739 L 87.928345 63.943344 L 88.034716 63.632293 L 88.140808 63.320573 L 88.246624 63.008172 L 88.352165 62.695075 L 88.457433 62.381271 L 88.562429 62.066746 L 88.667156 61.751485 L 88.771615 61.435477 L 88.875807 61.118707 L 88.979735 60.801162 L 89.083398 60.482827 L 89.186800 60.163689 L 89.289940 59.843734 L 89.392821 59.522948 L 89.495444 59.201315 L 89.597809 58.878823 L 89.699918 58.555456 L 89.801772 58.231199 L 89.903372 57.906038 L 90.004718 57.579957 L 90.105812 57.252942 L 90.206655 56.924977 L 90.307246 56.596047 L 90.407588 56.266136 L 90.507680 55.935228 L 90.607522 55.603308 L 90.707117 55.270359 L 90.806463 54.936366 L 90.905561 54.601311 L 91.004412 54.265179 L 91.103015 53.927952 L 91.201371 53.589614 L 91.299480 53.250147 L 91.397342 52.909535 L 91.494957 52.567759 L 91.592324 52.224802 L 91.689444 51.880646 L 91.786315 51.535274 L 91.882939 51.188666 L 91.979313 50.840805 L 92.075438 50.491671 L 92.171314 50.141247 L 92.266938 49.789512 L 92.362311 49.436447 L 92.457432 49.082033 L 92.552300 48.726250 L 92.646912 48.369077 L 92.741270 48.010496 L 92.835370 47.650484 L 92.929212 47.289022 L 93.022795 46.926088 L 93.116116 46.561661 L 93.209175 46.195719 L 93.301968 45.828241 L 93.394496 45.459204 L 93.486754 45.088587 L 93.578742 44.716365 L 93.670458 44.342517 L 93.761898 43.967019 L 93.853060 43.589848 L 93.943943 43.210979 L 94.034542 42.830389 L 94.124856 42.448053 L 94.214881 42.063945 L 94.304615 41.678042 L 94.394053 41.290316 L 94.483193 40.900744 L 94.572031 40.509297 L 94.660564 40.115950 L 94.748788 39.720675 L 94.836698 39.323446 L 94.924291 38.924235 L 95.011562 38.523013 L 95.098506 38.119751 L 95.185120 37.714422 L 95.271399 37.306996 L 95.357337 36.897442 L 95.442929 36.485731 L 95.528170 36.071832 L 95.613054 35.655714 L 95.697575 35.237345 L 95.781729 34.816694 L 95.865507 34.393727 L 95.948905 33.968413 L 96.031915 33.540717 L 96.114530 33.110605 L 96.196744 32.678044 L 96.278548 32.242997 L 96.359937 31.805430 L 96.440901 31.365306 L 96.521432 30.922589 L 96.601523 30.477240 L 96.681164 30.029224 L 96.760347 29.578500 L 96.839062 29.125031 L 96.917300 28.668776 L 96.995051 28.209695 L 97.072305 27.747747 L 97.149051 27.282891 L 97.225278 26.815084 L 97.300976 26.344283 L 97.376133 25.870445 L 97.450736 25.393525 L 97.524774 24.913478 L 97.598234 24.430259 L 97.671103 23.943820 L 97.743367 23.454115 L 97.815012 22.961095 L 97.886024 22.464710 L 97.956389 21.964912 L 98.026090 21.461649 L 98.095112 20.954871 L 98.163439 20.444523 L 98.231053 19.930554 L 98.297938 19.412908 L 98.364076 18.891531 L 98.429448 18.366366 L 98.494035 17.837357 L 98.557818 17.304444 L 98.620775 16.767569 L 98.682887 16.226671 L 98.744132 15.681689 L 98.804487 15.132561 L 98.863930 14.579223 L 98.881684 14.410012" fill="none" id="tattoo-path-a06ee134f63c1db5" stroke="#000000" stroke-linecap="round" stroke-linejoin="round" stroke-width="1.000000"/>
  <path clip-path="url(#tattoo-band-layer-clip)" d="M 37.131346 125.598948 L 37.276912 125.576351 L 37.827404 125.487636 L 38.374489 125.396242 L 38.918189 125.302216 L 39.458530 125.205604 L 39.995537 125.106450 L 40.529234 125.004798 L 41.059647 124.900691 L 41.586799 124.794171 L 42.110716 124.685279 L 42.631422 124.574055 L 43.148942 124.460539 L 43.663300 124.344769 L 44.174520 124.226782 L 44.682628 124.106617 L 45.187647 123.984309 L 45.689602 123.859893 L 46.188517 123.733405 L 46.684416 123.604877 L 47.177322 123.474343 L 47.667260 123.341837 L 48.154254 123.207388 L 48.638326 123.071029 L 49.119501 122.932790 L 49.597802 122.792700 L 50.073252 122.650789 L 50.545874 122.507085 L 51.015691 122.361616 L 51.482727 122.214410 L 51.947003 122.065492 L 52.408543 121.914890 L 52.867368 121.762628 L 53.323502 121.608731 L 53.776966 121.453224 L 54.227782 121.296130 L 54.675972 121.137473 L 55.121559 120.977276 L 55.564562 120.815560 L 56.005005 120.652348 L 56.442907 120.487661 L 56.878290 120.321520 L 57.311176 120.153944 L 57.741584 119.984954 L 58.169536 119.814569 L 58.595051 119.642808 L 59.018150 119.469690 L 59.438854 119.295232 L 59.857181 119.119452 L 60.273153 118.942367 L 60.686788 118.763995 L 61.098105 118.584351 L 61.507125 118.403452 L 61.913867 118.221312 L 62.318348 118.037948 L 62.720589 117.853375 L 63.120607 117.667606 L 63.518421 117.480656 L 63.914050 117.292539 L 64.307511 117.103268 L 64.698823 116.912856 L 65.088003 116.721316 L 65.475069 116.528660 L 65.860038 116.334901 L 66.242928 116.140051 L 66.623756 115.944120 L 67.002538 115.747120 L 67.379292 115.549063 L 67.754034 115.349958 L 68.126781 115.149815 L 68.497549 114.948646 L 68.866354 114.746459 L 69.233212 114.543265 L 69.598139 114.339072 L 69.961151 114.133889 L 70.322263 113.927725 L 70.681490 113.720588 L 71.038849 113.512487 L 71.394353 113.303429 L 71.748018 113.093423 L 72.099858 112.882475 L 72.449889 112.670593 L 72.798124 112.457784 L 73.144577 112.244055 L 73.489264 112.029411 L 73.832197 111.813860 L 74.173392 111.597407 L 74.512860 111.380059 L 74.850617 111.161821 L 75.186675 110.942698 L 75.521047 110.722697 L 75.853747 110.501821 L 76.184787 110.280075 L 76.514181 110.057465 L 76.841941 109.833995 L 77.168079 109.609669 L 77.492608 109.384492 L 77.815541 109.158466 L 78.136888 108.931596 L 78.456663 108.703886 L 78.774877 108.475339 L 79.091541 108.245958 L 79.406667 108.015746 L 79.720267 107.784706 L 80.032351 107.552841 L 80.342932 107.320153 L 80.652019 107.086645 L 80.959624 106.852319 L 81.265757 106.617177 L 81.570430 106.381221 L 81.873652 106.144453 L 82.175433 105.906874 L 82.475785 105.668486 L 82.774716 105.429290 L 83.072238 105.189287 L 83.368359 104.948479 L 83.663089 104.706866 L 83.956439 104.464450 L 84.248416 104.221230 L 84.539032 103.977207 L 84.828294 103.732381 L 85.116211 103.486754 L 85.402794 103.240324 L 85.688050 102.993093 L 85.971988 102.745058 L 86.254617 102.496222 L 86.535945 102.246582 L 86.815980 101.996138 L 87.094731 101.744891 L 87.372205 101.492838 L 87.648411 101.239979 L 87.923356 100.986313 L 88.197048 100.731839 L 88.469495 100.476556 L 88.740703 100.220462 L 89.010681 99.963555 L 89.279436 99.705834 L 89.546974 99.447298 L 89.813302 99.187944 L 90.078428 98.927771 L 90.342359 98.666776 L 90.605100 98.404957 L 90.866658 98.142312 L 91.127040 97.878839 L 91.386252 97.614535 L 91.644300 97.349397 L 91.901190 97.083423 L 92.156928 96.816610 L 92.411520 96.548955 L 92.664972 96.280454 L 92.917288 96.011105 L 93.168475 95.740905 L 93.418538 95.469850 L 93.667482 95.197937 L 93.915313 94.925162 L 94.162034 94.651521 L 94.407652 94.377011 L 94.652170 94.101628 L 94.895594 93.825367 L 95.137928 93.548226 L 95.379176 93.270199 L 95.619343 92.991282 L 95.858433 92.711472 L 96.096450 92.430763 L 96.333398 92.149151 L 96.569280 91.866631 L 96.804102 91.583199 L 97.037865 91.298850 L 97.270573 91.013579 L 97.502231 90.727380 L 97.732841 90.440249 L 97.962406 90.152180 L 98.190930 89.863169 L 98.418414 89.573208 L 98.644863 89.282294 L 98.870278 88.990421 L 99.094663 88.697582 L 99.318019 88.403771 L 99.540349 88.108984 L 99.761655 87.813214 L 99.981939 87.516454 L 100.201203 87.218699 L 100.419449 86.919943 L 100.636678 86.620178 L 100.852893 86.319399 L 101.068094 86.017598 L 101.282283 85.714770 L 101.495460 85.410906 L 101.707628 85.106002 L 101.918786 84.800048 L 102.128937 84.493039 L 102.338079 84.184968 L 102.546215 83.875826 L 102.753343 83.565606 L 102.959466 83.254302 L 103.164582 82.941905 L 103.368691 82.628408 L 103.571794 82.313803 L 103.773891 81.998082 L 103.974980 81.681237 L 104.175061 81.363260 L 104.374134 81.044144 L 104.572197 80.723879 L 104.769250 80.402457 L 104.965292 80.079871 L 105.160321 79.756110 L 105.354336 79.431167 L 105.547335 79.105034 L 105.739317 78.777700 L 105.930279 78.449157 L 106.120220 78.119396 L 106.309137 77.788408 L 106.497029 77.456184 L 106.683891 77.122714 L 106.869723 76.787988 L 107.054521 76.451997 L 107.238282 76.114732 L 107.421003 75.776183 L 107.602681 75.436339 L 107.783311 75.095191 L 107.962891 74.752728 L 108.141417 74.408941 L 108.318884 74.063819 L 108.495289 73.717352 L 108.670626 73.369529 L 108.844892 73.020339 L 109.018082 72.669772 L 109.190190 72.317817 L 109.361212 71.964462 L 109.531142 71.609698 L 109.699975 71.253512 L 109.867705 70.895894 L 110.034326 70.536831 L 110.199832 70.176314 L 110.364217 69.814329 L 110.527474 69.450865 L 110.689596 69.085910 L 110.850577 68.719453 L 111.010409 68.351481 L 111.169085 67.981983 L 111.326597 67.610945 L 111.482938 67.238355 L 111.638099 66.864202 L 111.792072 66.488472 L 111.944848 66.111153 L 112.096419 65.732231 L 112.246775 65.351694 L 112.395908 64.969530 L 112.543808 64.585723 L 112.690464 64.200262 L 112.835867 63.813133 L 112.980007 63.424323 L 113.122873 63.033817 L 113.264454 62.641602 L 113.404738 62.247664 L 113.543716 61.851990 L 113.681373 61.454564 L 113.817700 61.055374 L 113.952683 60.654404 L 114.086310 60.251641 L 114.218567 59.847069 L 114.349442 59.440674 L 114.478921 59.032442 L 114.606991 58.622357 L 114.733636 58.210405 L 114.858843 57.796570 L 114.982597 57.380837 L 115.104881 56.963191 L 115.225682 56.543617 L 115.344982 56.122099 L 115.462766 55.698621 L 115.579017 55.273168 L 115.693718 54.845724 L 115.806852 54.416272 L 115.918400 53.984798 L 116.028344 53.551284 L 116.136667 53.115715 L 116.243348 52.678074 L 116.348369 52.238345 L 116.451710 51.796511 L 116.553350 51.352555 L 116.653268 50.906462 L 116.751444 50.458214 L 116.847856 50.007794 L 116.942482 49.555185 L 117.035299 49.100370 L 117.126285 48.643332 L 117.215415 48.184054 L 117.302666 47.722519 L 117.388013 47.258709 L 117.471431 46.792606 L 117.552896 46.324194 L 117.632380 45.853454 L 117.709857 45.380369 L 117.785299 44.904921 L 117.858680 44.427093 L 117.929971 43.946866 L 117.999143 43.464223 L 118.066166 42.979146 L 118.131011 42.491617 L 118.193647 42.001618 L 118.254042 41.509131 L 118.312165 41.014137 L 118.367983 40.516620 L 118.421462 40.016560 L 118.472569 39.513940 L 118.521270 39.008741 L 118.567528 38.500946 L 118.611309 37.990536 L 118.652574 37.477494 L 118.691288 36.961801 L 118.727411 36.443439 L 118.760905 35.922391 L 118.791730 35.398638 L 118.819845 34.872162 L 118.845209 34.342946 L 118.867781 33.810973 L 118.887516 33.276223 L 118.904372 32.738681 L 118.918303 32.198328 L 118.929265 31.655147 L 118.937210 31.109120 L 118.942092 30.560232 L 118.943862 30.008464 L 118.942471 29.453800 L 118.937869 28.896223 L 118.935803 28.748929" fill="none" id="tattoo-path-f2dc369b90f88286" stroke="#000000" stroke-linecap="round" stroke-linejoin="round" stroke-width="0.800000"/>
  <circle cx="72.500000" cy="72.500000" fill="none" id="tattoo-boundary-da45c61d325de3be" r="64.900000" stroke="#000000" stroke-width="2.200000"/>
</svg>
