<svg height="145.000000mm" version="1.1" viewBox="0 0 145.000000 145.000000" width="145.000000mm" xmlns="http://www.w3.org/2000/svg">
  <defs>
    <clipPath clipPathUnits="userSpaceOnUse" id="tattoo-band-layer-clip">
      <circle cx="72.500000" cy="72.500000" r="63.800000"/>
    </clipPath>
  </defs>
  <path clip-path="url(#tattoo-band-layer-clip)" d="M 8.709188 73.582740 L 8.790361 73.428710 L 9.053961 72.936737 L 9.319922 72.448419 L 9.588202 71.963742 L 9.858763 71.482690 L 10.131564 71.005248 L 10.406568 70.531400 L 10.683736 70.061130 L 10.963033 69.594423 L 11.244421 69.131263 L 11.527864 68.671634 L 11.813327 68.215519 L 12.100776 67.762903 L 12.390177 67.313769 L 12.681496 66.868100 L 12.974701 66.425882 L 13.269760 65.987097 L 13.566639 65.551728 L 13.865310 65.119760 L 14.165741 64.691175 L 14.467902 64.265958 L 14.771764 63.844091 L 15.077298 63.425558 L 15.384476 63.010343 L 15.693270 62.598429 L 16.003652 62.189799 L 16.315596 61.784438 L 16.629075 61.382327 L 16.944064 60.983452 L 17.260538 60.587796 L 17.578471 60.195341 L 17.897839 59.806072 L 18.218618 59.419973 L 18.540785 59.037027 L 18.864316 58.657217 L 19.189190 58.280529 L 19.515383 57.906945 L 19.842875 57.536450 L 20.171644 57.169027 L 20.501669 56.804662 L 20.832929 56.443337 L 21.165405 56.085037 L 21.499077 55.729747 L 21.833925 55.377451 L 22.169931 55.028133 L 22.507076 54.681778 L 22.845342 54.338371 L 23.184712 53.997897 L 23.525166 53.660339 L 23.866690 53.325685 L 24.209266 52.993917 L 24.552877 52.665022 L 24.897507 52.338986 L 25.243142 52.015792 L 25.589764 51.695427 L 25.937360 51.377877 L 26.285915 51.063127 L 26.635413 50.751163 L 26.985842 50.441971 L 27.337186 50.135537 L 27.689433 49.831847 L 28.042570 49.530888 L 28.396582 49.232645 L 28.751459 48.937107 L 29.107186 48.644259 L 29.463753 48.354088 L 29.821146 48.066581 L 30.179355 47.781725 L 30.538369 47.499507 L 30.898175 47.219916 L 31.258764 46.942937 L 31.620124 46.668560 L 31.982245 46.396771 L 32.345118 46.127558 L 32.708731 45.860910 L 33.073077 45.596814 L 33.438144 45.335259 L 33.803924 45.076234 L 34.170408 44.819726 L 34.537587 44.565725 L 34.905453 44.314219 L 35.273996 44.065197 L 35.643210 43.818649 L 36.013085 43.574563 L 36.383614 43.332930 L 36.754790 43.093738 L 37.126606 42.856978 L 37.499053 42.622638 L 37.872125 42.390710 L 38.245815 42.161183 L 38.620116 41.934047 L 38.995023 41.709293 L 39.370527 41.486911 L 39.746624 41.266892 L 40.123308 41.049227 L 40.500572 40.833907 L 40.878411 40.620923 L 41.256819 40.410265 L 41.635791 40.201927 L 42.015322 39.995898 L 42.395406 39.792171 L 42.776039 39.590738 L 43.157216 39.391590 L 43.538932 39.194720 L 43.921182 39.000120 L 44.303963 38.807782 L 44.687270 38.617699 L 45.071098 38.429863 L 45.455445 38.244268 L 45.840305 38.060907 L 46.225676 37.879772 L 46.611553 37.700857 L 46.997934 37.524155 L 47.384813 37.349661 L 47.772190 37.177367 L 48.160059 37.007267 L 48.548418 36.839356 L 48.937264 36.673628 L 49.326595 36.510076 L 49.716407 36.348697 L 50.106697 36.189483 L 50.497464 36.032430 L 50.888704 35.877533 L 51.280415 35.724787 L 51.672595 35.574186 L 52.065242 35.425727 L 52.458354 35.279405 L 52.851928 35.135216 L 53.245962 34.993155 L 53.640455 34.853218 L 54.035405 34.715401 L 54.430810 34.579701 L 54.826668 34.446114 L 55.222978 34.314636 L 55.619739 34.185265 L 56.016948 34.057996 L 56.414605 33.932827 L 56.812708 33.809756 L 57.211256 33.688779 L 57.610248 33.569894 L 58.009682 33.453098 L 58.409558 33.338389 L 58.809874 33.225765 L 59.210630 33.115224 L 59.611825 33.006765 L 60.013457 32.900385 L 60.415527 32.796082 L 60.818033 32.693857 L 61.220974 32.593707 L 61.624350 32.495631 L 62.028161 32.399629 L 62.432405 32.305699 L 62.837083 32.213842 L 63.242193 32.124056 L 63.647735 32.036341 L 64.053709 31.950697 L 64.460115 31.867125 L 64.866951 31.785624 L 65.274219 31.706194 L 65.681916 31.628836 L 66.090044 31.553551 L 66.498602 31.480340 L 66.907590 31.409203 L 67.317007 31.340141 L 67.726853 31.273157 L 68.137128 31.208250 L 68.547833 31.145423 L 68.958966 31.084677 L 69.370528 31.026014 L 69.782519 30.969437 L 70.194938 30.914948 L 70.607786 30.862548 L 71.021062 30.812240 L 71.434767 30.764028 L 71.848900 30.717913 L 72.263461 30.673899 L 72.678450 30.631989 L 73.093867 30.592187 L 73.509713 30.554495 L 73.925986 30.518918 L 74.342688 30.485459 L 74.759817 30.454122 L 75.177374 30.424911 L 75.595359 30.397831 L 76.013771 30.372887 L 76.432611 30.350082 L 76.851878 30.329422 L 77.271572 30.310911 L 77.691693 30.294556 L 78.112241 30.280360 L 78.533215 30.268330 L 78.954616 30.258471 L 79.376442 30.250789 L 79.798694 30.245290 L 80.221372 30.241980 L 80.644475 30.240867 L 81.068002 30.241955 L 81.491953 30.245252 L 81.916328 30.250765 L 82.341126 30.258501 L 82.766346 30.268467 L 83.191989 30.280670 L 83.618052 30.295119 L 84.044537 30.311820 L 84.471441 30.330782 L 84.898764 30.352014 L 85.326505 30.375523 L 85.754663 30.401317 L 86.183237 30.429406 L 86.612226 30.459799 L 87.041630 30.492505 L 87.471446 30.527532 L 87.901673 30.564891 L 88.332311 30.604590 L 88.763357 30.646641 L 89.194811 30.691052 L 89.626670 30.737834 L 90.058933 30.786998 L 90.491598 30.838554 L 90.924664 30.892514 L 91.358128 30.948887 L 91.791989 31.007685 L 92.226244 31.068920 L 92.660891 31.132603 L 93.095927 31.198746 L 93.531351 31.267361 L 93.967160 31.338461 L 94.403351 31.412057 L 94.839921 31.488162 L 95.276867 31.566790 L 95.714187 31.647953 L 96.151877 31.731664 L 96.589934 31.817937 L 97.028355 31.906786 L 97.467136 31.998224 L 97.906273 32.092265 L 98.345762 32.188925 L 98.785600 32.288217 L 99.225782 32.390156 L 99.666304 32.494757 L 100.107162 32.602035 L 100.548351 32.712006 L 100.989866 32.824685 L 101.431702 32.940087 L 101.873855 33.058230 L 102.316318 33.179130 L 102.759087 33.302802 L 103.202155 33.429263 L 103.645517 33.558531 L 104.089167 33.690623 L 104.533098 33.825556 L 104.977305 33.963347 L 105.421779 34.104014 L 105.866515 34.247576 L 106.311505 34.394051 L 106.756741 34.543457 L 107.202217 34.695813 L 107.647925 34.851138 L 108.093855 35.009451 L 108.540001 35.170771 L 108.986353 35.335119 L 109.432902 35.502515 L 109.879640 35.672977 L 110.326557 35.846527 L 110.773644 36.023185 L 111.220889 36.202973 L 111.668284 36.385910 L 112.115818 36.572019 L 112.563480 36.761321 L 113.011258 36.953838 L 113.459141 37.149591 L 113.907118 37.348603 L 114.355176 37.550897 L 114.803303 37.756495 L 115.251486 37.965419 L 115.699712 38.177694 L 116.147968 38.393342 L 116.596239 38.612387 L 117.044511 38.834853 L 117.492770 39.060765 L 117.941001 39.290145 L 118.389188 39.523019 L 118.837315 39.759412 L 119.285366 39.999348 L 119.733325 40.242853 L 120.181175 40.489953 L 120.628897 40.740671 L 121.076475 40.995036 L 121.523888 41.253072 L 121.971120 41.514806 L 122.418150 41.780264 L 122.864958 42.049474 L 123.311524 42.322461 L 123.757827 42.599254 L 124.203846 42.879879 L 124.649560 43.164364 L 125.094944 43.452737 L 125.539977 43.745025 L 125.984636 44.041257 L 126.428895 44.341461 L 126.872730 44.645665 L 127.316117 44.953898 L 127.759028 45.266189 L 128.201439 45.582567 L 128.643321 45.903060 L 129.084647 46.227699 L 129.525389 46.556512 L 129.965518 46.889530 L 130.405003 47.226782 L 130.843815 47.568297 L 131.281923 47.914107 L 131.417845 48.022917" fill="none" id="tattoo-path-d5fc224355d25517" stroke="#000000" stroke-linecap="round" stroke-linejoin="round" stroke-width="4.800000"/>
  <path clip-path="url(#tattoo-band-layer-clip)" d="M 115.799336 119.357310 L 115.365324 119.167447 L 114.858024 118.943625 L 114.355000 118.719814 L 113.856187 118.496027 L 113.361523 118.272273 L 112.870945 118.048563 L 112.384392 117.824905 L 111.901806 117.601309 L 111.423127 117.377783 L 110.948298 117.154336 L 110.477262 116.930975 L 110.009964 116.707708 L 109.546349 116.484540 L 109.086363 116.261479 L 108.629953 116.038530 L 108.177068 115.815700 L 107.727657 115.592993 L 107.281669 115.370415 L 106.839056 115.147969 L 106.399768 114.925661 L 105.963759 114.703494 L 105.530982 114.481473 L 105.101390 114.259600 L 104.674938 114.037878 L 104.251583 113.816312 L 103.831279 113.594902 L 103.413985 113.373652 L 102.999658 113.152563 L 102.588256 112.931638 L 102.179738 112.710879 L 101.774064 112.490285 L 101.371195 112.269860 L 100.971091 112.049604 L 100.573715 111.829517 L 100.179028 111.609601 L 99.786993 111.389856 L 99.397575 111.170282 L 99.010736 110.950879 L 98.626442 110.731648 L 98.244658 110.512587 L 97.865349 110.293697 L 97.488482 110.074977 L 97.114023 109.856427 L 96.741941 109.638045 L 96.372202 109.419831 L 96.004776 109.201784 L 95.639630 108.983902 L 95.276734 108.766184 L 94.916058 108.548629 L 94.557573 108.331234 L 94.201248 108.113999 L 93.847055 107.896922 L 93.494965 107.680001 L 93.144951 107.463233 L 92.796984 107.246616 L 92.451038 107.030150 L 92.107085 106.813830 L 91.765100 106.597655 L 91.425056 106.381622 L 91.086928 106.165729 L 90.750690 105.949973 L 90.416317 105.734352 L 90.083785 105.518862 L 89.753069 105.303501 L 89.424147 105.088266 L 89.096993 104.873153 L 88.771586 104.658160 L 88.447901 104.443284 L 88.125917 104.228521 L 87.805612 104.013868 L 87.486963 103.799322 L 87.169949 103.584879 L 86.854548 103.370535 L 86.540739 103.156289 L 86.228503 102.942134 L 85.917817 102.728069 L 85.608663 102.514089 L 85.301019 102.300191 L 84.994867 102.086371 L 84.690188 101.872625 L 84.386961 101.658949 L 84.085168 101.445339 L 83.784791 101.231791 L 83.485811 101.018301 L 83.188209 100.804865 L 82.891969 100.591479 L 82.597072 100.378139 L 82.303501 100.164841 L 82.011239 99.951580 L 81.720268 99.738351 L 81.430572 99.525152 L 81.142134 99.311976 L 80.854939 99.098821 L 80.568968 98.885681 L 80.284208 98.672551 L 80.000642 98.459428 L 79.718254 98.246307 L 79.437029 98.033183 L 79.156952 97.820052 L 78.878008 97.606908 L 78.600182 97.393747 L 78.323459 97.180565 L 78.047824 96.967356 L 77.773265 96.754116 L 77.499766 96.540840 L 77.227313 96.327523 L 76.955892 96.114160 L 76.685491 95.900746 L 76.416095 95.687276 L 76.147691 95.473745 L 75.880266 95.260149 L 75.613807 95.046481 L 75.348301 94.832736 L 75.083735 94.618911 L 74.820096 94.404998 L 74.557373 94.190994 L 74.295553 93.976892 L 74.034623 93.762689 L 73.774572 93.548377 L 73.515387 93.333952 L 73.257058 93.119409 L 72.999571 92.904741 L 72.742916 92.689944 L 72.487081 92.475012 L 72.232055 92.259939 L 71.977827 92.044720 L 71.724385 91.829350 L 71.471719 91.613821 L 71.219818 91.398130 L 70.968671 91.182270 L 70.718267 90.966235 L 70.468596 90.750020 L 70.219648 90.533618 L 69.971411 90.317024 L 69.723877 90.100232 L 69.477035 89.883236 L 69.230874 89.666030 L 68.985386 89.448608 L 68.740559 89.230964 L 68.496385 89.013091 L 68.252854 88.794984 L 68.009956 88.576637 L 67.767681 88.358042 L 67.526021 88.139194 L 67.284966 87.920087 L 67.044507 87.700714 L 66.804635 87.481069 L 66.565341 87.261145 L 66.326615 87.040936 L 66.088449 86.820435 L 65.850835 86.599636 L 65.613763 86.378532 L 65.377224 86.157116 L 65.141211 85.935382 L 64.905715 85.713323 L 64.670727 85.490932 L 64.436239 85.268202 L 64.202243 85.045126 L 63.968730 84.821697 L 63.735693 84.597909 L 63.503123 84.373753 L 63.271012 84.149224 L 63.039352 83.924313 L 62.808136 83.699014 L 62.577356 83.473319 L 62.347003 83.247222 L 62.117071 83.020713 L 61.887551 82.793787 L 61.658436 82.566434 L 61.429719 82.338649 L 61.201392 82.110423 L 60.973447 81.881749 L 60.745877 81.652618 L 60.518675 81.423023 L 60.291835 81.192956 L 60.065347 80.962408 L 59.839206 80.731373 L 59.613404 80.499842 L 59.387935 80.267806 L 59.162790 80.035257 L 58.937964 79.802188 L 58.713450 79.568589 L 58.489240 79.334452 L 58.265327 79.099769 L 58.041706 78.864530 L 57.818369 78.628728 L 57.595310 78.392354 L 57.372522 78.155398 L 57.149998 77.917851 L 56.927732 77.679706 L 56.705718 77.440952 L 56.483949 77.201580 L 56.262418 76.961581 L 56.041120 76.720946 L 55.820048 76.479665 L 55.599195 76.237729 L 55.378556 75.995128 L 55.158123 75.751852 L 54.937892 75.507891 L 54.717856 75.263237 L 54.498009 75.017877 L 54.278344 74.771803 L 54.058857 74.525004 L 53.839540 74.277470 L 53.620388 74.029190 L 53.401394 73.780154 L 53.182554 73.530351 L 52.963861 73.279770 L 52.745310 73.028401 L 52.526894 72.776232 L 52.308608 72.523253 L 52.090447 72.269452 L 51.872403 72.014818 L 51.654473 71.759338 L 51.436650 71.503003 L 51.218929 71.245799 L 51.001304 70.987716 L 50.783770 70.728741 L 50.566321 70.468861 L 50.348952 70.208066 L 50.131657 69.946341 L 49.914432 69.683676 L 49.697270 69.420057 L 49.480166 69.155470 L 49.263116 68.889905 L 49.046113 68.623346 L 48.829153 68.355782 L 48.612231 68.087197 L 48.395341 67.817580 L 48.178478 67.546916 L 47.961637 67.275191 L 47.744813 67.002392 L 47.528002 66.728503 L 47.311197 66.453511 L 47.094395 66.177400 L 46.877590 65.900157 L 46.660778 65.621766 L 46.443952 65.342212 L 46.227110 65.061480 L 46.010245 64.779554 L 45.793354 64.496419 L 45.576431 64.212058 L 45.359472 63.926455 L 45.142472 63.639595 L 44.925427 63.351460 L 44.708331 63.062034 L 44.491181 62.771301 L 44.273972 62.479242 L 44.056700 62.185840 L 43.839360 61.891078 L 43.621947 61.594938 L 43.404458 61.297402 L 43.186889 60.998451 L 42.969234 60.698067 L 42.751490 60.396232 L 42.533652 60.092925 L 42.315717 59.788128 L 42.097681 59.481821 L 41.879539 59.173985 L 41.661287 58.864598 L 41.442922 58.553641 L 41.224440 58.241093 L 41.005837 57.926933 L 40.787109 57.611140 L 40.568252 57.293692 L 40.349263 56.974567 L 40.130139 56.653744 L 39.910875 56.331198 L 39.691468 56.006909 L 39.471916 55.680852 L 39.252214 55.353004 L 39.032359 55.023342 L 38.812349 54.691841 L 38.592179 54.358476 L 38.371848 54.023223 L 38.151351 53.686056 L 37.930687 53.346950 L 37.709852 53.005879 L 37.488844 52.662817 L 37.267659 52.317736 L 37.046296 51.970609 L 36.824752 51.621410 L 36.603025 51.270109 L 36.381112 50.916679 L 36.159011 50.561090 L 35.936720 50.203313 L 35.714237 49.843319 L 35.491560 49.481077 L 35.268688 49.116557 L 35.045619 48.749727 L 34.822352 48.380555 L 34.598884 48.009010 L 34.375215 47.635059 L 34.151344 47.258669 L 33.927270 46.879805 L 33.702992 46.498435 L 33.478509 46.114522 L 33.253820 45.728032 L 33.028926 45.338928 L 32.803826 44.947174 L 32.578521 44.552733 L 32.353009 44.155568 L 32.127293 43.755640 L 31.901371 43.352909 L 31.675245 42.947337 L 31.448916 42.538883 L 31.222385 42.127506 L 30.995653 41.713164 L 30.768722 41.295816 L 30.541594 40.875418 L 30.314270 40.451926 L 30.086754 40.025297 L 29.859046 39.595483 L 29.631152 39.162441 L 29.403072 38.726122 L 29.174811 38.286480 L 28.946373 37.843465 L 28.717761 37.397028 L 28.488980 36.947120 L 28.260034 36.493689 L 28.030929 36.036684 L 27.801669 35.576050 L 27.572261 35.111736 L 27.342710 34.643685 L 27.113023 34.171843 L 26.883207 33.696152 L 26.653269 33.216555 L 26.423217 32.732994 L 26.193059 32.245407 L 25.962804 31.753735 L 25.732460 31.257916 L 25.502039 30.757886 L 25.271549 30.253580 L 25.075981 29.822109" fill="none" id="tattoo-path-daec81218c02fcd5" stroke="#000000" stroke-linecap="round" stroke-linejoin="round" stroke-width="4.200000"/>
  <path clip-path="url(#tattoo-band-layer-clip)" d="M 38.737594 126.634462 L 39.183603 126.311908 L 39.631448 125.986007 L 40.075152 125.661125 L 40.514780 125.337258 L 40.950395 125.014399 L 41.382061 124.692543 L 41.809839 124.371685 L 42.233789 124.051817 L 42.653970 123.732935 L 43.070441 123.415030 L 43.483259 123.098098 L 43.892479 122.782132 L 44.298157 122.467123 L 44.700346 122.153066 L 45.099099 121.839954 L 45.494469 121.527778 L 45.886505 121.216533 L 46.275259 120.906209 L 46.660779 120.596801 L 47.043114 120.288300 L 47.422310 119.980698 L 47.798414 119.673987 L 48.171472 119.368161 L 48.541529 119.063210 L 48.908628 118.759128 L 49.272814 118.455905 L 49.634128 118.153533 L 49.992611 117.852005 L 50.348306 117.551313 L 50.701253 117.251447 L 51.051490 116.952400 L 51.399057 116.654163 L 51.743992 116.356729 L 52.086333 116.060087 L 52.426116 115.764231 L 52.763378 115.469152 L 53.098154 115.174841 L 53.430479 114.881289 L 53.760389 114.588489 L 54.087916 114.296431 L 54.413094 114.005107 L 54.735956 113.714509 L 55.056534 113.424628 L 55.374860 113.135455 L 55.690964 112.846982 L 56.004878 112.559200 L 56.316632 112.272101 L 56.626254 111.985676 L 56.933775 111.699916 L 57.239224 111.414814 L 57.542627 111.130360 L 57.844013 110.846545 L 58.143410 110.563362 L 58.440844 110.280802 L 58.736342 109.998856 L 59.029929 109.717515 L 59.321632 109.436772 L 59.611475 109.156617 L 59.899484 108.877042 L 60.185683 108.598039 L 60.470095 108.319599 L 60.752746 108.041713 L 61.033657 107.764374 L 61.312852 107.487572 L 61.590354 107.211300 L 61.866184 106.935549 L 62.140365 106.660310 L 62.412919 106.385575 L 62.683866 106.111336 L 62.953228 105.837585 L 63.221025 105.564312 L 63.487278 105.291511 L 63.752007 105.019171 L 64.015231 104.747286 L 64.276969 104.475847 L 64.537242 104.204845 L 64.796068 103.934273 L 65.053465 103.664122 L 65.309452 103.394384 L 65.564047 103.125050 L 65.817268 102.856113 L 66.069132 102.587565 L 66.319657 102.319397 L 66.568860 102.051600 L 66.816757 101.784168 L 67.063366 101.517092 L 67.308702 101.250363 L 67.552782 100.983974 L 67.795621 100.717917 L 68.037236 100.452183 L 68.277641 100.186765 L 68.516853 99.921654 L 68.754886 99.656842 L 68.991755 99.392323 L 69.227474 99.128086 L 69.462058 98.864125 L 69.695522 98.600432 L 69.927879 98.336998 L 70.159144 98.073815 L 70.389329 97.810877 L 70.618449 97.548174 L 70.846516 97.285698 L 71.073545 97.023443 L 71.299548 96.761400 L 71.524537 96.499560 L 71.748526 96.237917 L 71.971527 95.976462 L 72.193552 95.715187 L 72.414613 95.454084 L 72.634723 95.193147 L 72.853893 94.932366 L 73.072135 94.671733 L 73.289461 94.411242 L 73.505882 94.150884 L 73.721409 93.890651 L 73.936053 93.630535 L 74.149826 93.370528 L 74.362738 93.110624 L 74.574800 92.850812 L 74.786023 92.591087 L 74.996416 92.331440 L 75.205991 92.071862 L 75.414758 91.812347 L 75.622726 91.552886 L 75.829906 91.293472 L 76.036308 91.034096 L 76.241941 90.774750 L 76.446814 90.515427 L 76.650938 90.256119 L 76.854322 89.996818 L 77.056975 89.737515 L 77.258906 89.478203 L 77.460124 89.218874 L 77.660638 88.959521 L 77.860458 88.700134 L 78.059591 88.440705 L 78.258047 88.181228 L 78.455834 87.921694 L 78.652960 87.662094 L 78.849434 87.402421 L 79.045265 87.142667 L 79.240459 86.882823 L 79.435026 86.622882 L 79.628973 86.362835 L 79.822309 86.102674 L 80.015040 85.842391 L 80.207176 85.581978 L 80.398722 85.321426 L 80.589688 85.060727 L 80.780080 84.799873 L 80.969906 84.538856 L 81.159173 84.277667 L 81.347889 84.016298 L 81.536060 83.754740 L 81.723693 83.492985 L 81.910796 83.231025 L 82.097376 82.968851 L 82.283439 82.706455 L 82.468992 82.443828 L 82.654042 82.180961 L 82.838595 81.917846 L 83.022658 81.654474 L 83.206238 81.390836 L 83.389341 81.126925 L 83.571973 80.862730 L 83.754140 80.598243 L 83.935850 80.333456 L 84.117107 80.068358 L 84.297918 79.802942 L 84.478289 79.537199 L 84.658226 79.271119 L 84.837735 79.004693 L 85.016822 78.737912 L 85.195492 78.470767 L 85.373751 78.203249 L 85.551605 77.935348 L 85.729060 77.667055 L 85.906120 77.398360 L 86.082792 77.129255 L 86.259081 76.859729 L 86.434992 76.589774 L 86.610530 76.319378 L 86.785701 76.048534 L 86.960511 75.777230 L 87.134963 75.505458 L 87.309063 75.233206 L 87.482817 74.960466 L 87.656229 74.687227 L 87.829303 74.413480 L 88.002046 74.139213 L 88.174462 73.864417 L 88.346555 73.589081 L 88.518330 73.313195 L 88.689792 73.036749 L 88.860946 72.759732 L 89.031796 72.482133 L 89.202346 72.203942 L 89.372602 71.925148 L 89.542567 71.645740 L 89.712245 71.365706 L 89.881642 71.085037 L 90.050761 70.803721 L 90.219607 70.521746 L 90.388183 70.239101 L 90.556494 69.955775 L 90.724544 69.671757 L 90.892337 69.387034 L 91.059877 69.101595 L 91.227167 68.815428 L 91.394212 68.528521 L 91.561016 68.240863 L 91.727581 67.952440 L 91.893913 67.663242 L 92.060014 67.373254 L 92.225889 67.082466 L 92.391540 66.790864 L 92.556971 66.498435 L 92.722187 66.205167 L 92.887189 65.911047 L 93.051982 65.616062 L 93.216568 65.320197 L 93.380952 65.023441 L 93.545136 64.725780 L 93.709124 64.427199 L 93.872918 64.127686 L 94.036522 63.827226 L 94.199939 63.525805 L 94.363171 63.223409 L 94.526222 62.920023 L 94.689094 62.615634 L 94.851791 62.310226 L 95.014314 62.003785 L 95.176667 61.696296 L 95.338852 61.387744 L 95.500872 61.078112 L 95.662730 60.767387 L 95.824427 60.455551 L 95.985966 60.142590 L 96.147350 59.828488 L 96.308581 59.513227 L 96.469661 59.196793 L 96.630592 58.879168 L 96.791377 58.560335 L 96.952017 58.240278 L 97.112514 57.918979 L 97.272870 57.596422 L 97.433088 57.272588 L 97.593168 56.947460 L 97.753113 56.621020 L 97.912925 56.293249 L 98.072604 55.964130 L 98.232152 55.633644 L 98.391571 55.301771 L 98.550862 54.968493 L 98.710026 54.633790 L 98.869065 54.297643 L 99.027980 53.960032 L 99.186771 53.620937 L 99.345439 53.280338 L 99.503986 52.938213 L 99.662413 52.594543 L 99.820719 52.249305 L 99.978906 51.902479 L 100.136973 51.554043 L 100.294922 51.203975 L 100.452753 50.852252 L 100.610466 50.498852 L 100.768061 50.143753 L 100.925538 49.786930 L 101.082897 49.428361 L 101.240137 49.068022 L 101.397260 48.705888 L 101.554263 48.341936 L 101.711146 47.976139 L 101.867910 47.608474 L 102.024552 47.238915 L 102.181073 46.867435 L 102.337471 46.494009 L 102.493744 46.118609 L 102.649892 45.741210 L 102.805914 45.361783 L 102.961807 44.980301 L 103.117569 44.596736 L 103.273200 44.211059 L 103.428697 43.823241 L 103.584057 43.433252 L 103.739278 43.041064 L 103.894358 42.646645 L 104.049295 42.249965 L 104.204084 41.850993 L 104.358724 41.449696 L 104.513210 41.046044 L 104.667540 40.640003 L 104.821710 40.231540 L 104.975715 39.820621 L 105.129553 39.407213 L 105.283217 38.991280 L 105.436705 38.572788 L 105.590011 38.151700 L 105.743131 37.727981 L 105.896058 37.301594 L 106.048789 36.872501 L 106.201316 36.440663 L 106.353634 36.006044 L 106.505737 35.568602 L 106.657617 35.128298 L 106.809270 34.685092 L 106.960686 34.238943 L 107.111859 33.789808 L 107.262781 33.337646 L 107.413443 32.882412 L 107.563838 32.424063 L 107.713957 31.962555 L 107.863790 31.497842 L 108.013328 31.029877 L 108.162561 30.558614 L 108.311479 30.084005 L 108.460071 29.606002 L 108.608326 29.124555 L 108.756232 28.639614 L 108.903777 28.151129 L 109.050949 27.659046 L 109.197735 27.163314 L 109.344122 26.663879 L 109.490095 26.160686 L 109.635640 25.653680 L 109.780742 25.142805 L 109.925385 24.628001 L 110.069553 24.109213 L 110.213230 23.586379 L 110.356398 23.059439 L 110.499039 22.528331 L 110.641134 21.992994 L 110.780771 21.460579" fill="none" id="tattoo-path-5cf04bd6b8fb3c8a" stroke="#000000" stroke-linecap="round" stroke-linejoin="round" stroke-width="3.600000"/>
  <path clip-path="url(#tattoo-band-layer-clip)" d="M 51.514125 132.749756 L 51.483129 132.219321 L 51.452470 131.666143 L 51.423666 131.116809 L 51.396678 130.571265 L 51.371470 130.029459 L 51.348007 129.491339 L 51.326254 128.956854 L 51.306177 128.425954 L 51.287742 127.898589 L 51.270917 127.374711 L 51.255672 126.854271 L 51.241976 126.337223 L 51.229798 125.823520 L 51.219110 125.313115 L 51.209884 124.805964 L 51.202092 124.302023 L 51.195706 123.801246 L 51.190702 123.303593 L 51.187053 122.809018 L 51.184734 122.317482 L 51.183722 121.828942 L 51.183992 121.343358 L 51.185522 120.860690 L 51.188289 120.380898 L 51.192271 119.903943 L 51.197447 119.429786 L 51.203796 118.958391 L 51.211297 118.489719 L 51.219932 118.023735 L 51.229679 117.560401 L 51.240522 117.099681 L 51.252441 116.641542 L 51.265418 116.185947 L 51.279436 115.732864 L 51.294478 115.282257 L 51.310528 114.834093 L 51.327568 114.388341 L 51.345584 113.944967 L 51.364560 113.503939 L 51.384481 113.065227 L 51.405333 112.628798 L 51.427100 112.194623 L 51.449769 111.762670 L 51.473327 111.332911 L 51.497761 110.905315 L 51.523057 110.479854 L 51.549202 110.056499 L 51.576185 109.635222 L 51.603994 109.215994 L 51.632617 108.798789 L 51.662043 108.383579 L 51.692260 107.970337 L 51.723258 107.559037 L 51.755026 107.149652 L 51.787554 106.742157 L 51.820832 106.336527 L 51.854850 105.932735 L 51.889599 105.530758 L 51.925070 105.130570 L 51.961253 104.732148 L 51.998140 104.335468 L 52.035722 103.940505 L 52.073991 103.547237 L 52.112939 103.155641 L 52.152558 102.765693 L 52.192840 102.377371 L 52.233778 101.990653 L 52.275364 101.605517 L 52.317592 101.221942 L 52.360455 100.839905 L 52.403945 100.459385 L 52.448057 100.080363 L 52.492784 99.702815 L 52.538119 99.326724 L 52.584058 98.952067 L 52.630594 98.578826 L 52.677721 98.206979 L 52.725434 97.836508 L 52.773728 97.467394 L 52.822597 97.099617 L 52.872037 96.733158 L 52.922043 96.367998 L 52.972610 96.004119 L 53.023733 95.641503 L 53.075408 95.280132 L 53.127631 94.919986 L 53.180398 94.561050 L 53.233704 94.203305 L 53.287546 93.846733 L 53.341920 93.491318 L 53.396822 93.137043 L 53.452249 92.783890 L 53.508198 92.431843 L 53.564665 92.080886 L 53.621648 91.731002 L 53.679143 91.382174 L 53.737147 91.034387 L 53.795658 90.687625 L 53.854673 90.341873 L 53.914189 89.997113 L 53.974204 89.653332 L 54.034716 89.310514 L 54.095722 88.968643 L 54.157221 88.627704 L 54.219210 88.287684 L 54.281688 87.948566 L 54.344652 87.610336 L 54.408102 87.272980 L 54.472034 86.936483 L 54.536449 86.600832 L 54.601344 86.266011 L 54.666718 85.932008 L 54.732570 85.598807 L 54.798898 85.266395 L 54.865703 84.934759 L 54.932982 84.603885 L 55.000735 84.273759 L 55.068961 83.944369 L 55.137660 83.615700 L 55.206831 83.287740 L 55.276473 82.960476 L 55.346585 82.633894 L 55.417169 82.307982 L 55.488222 81.982727 L 55.559746 81.658116 L 55.631740 81.334137 L 55.704203 81.010778 L 55.777137 80.688025 L 55.850541 80.365866 L 55.924415 80.044290 L 55.998760 79.723284 L 56.073577 79.402835 L 56.148864 79.082933 L 56.224624 78.763564 L 56.300856 78.444717 L 56.377562 78.126381 L 56.454742 77.808543 L 56.532397 77.491192 L 56.610528 77.174316 L 56.689135 76.857904 L 56.768221 76.541943 L 56.847785 76.226424 L 56.927830 75.911334 L 57.008356 75.596662 L 57.089365 75.282397 L 57.170859 74.968527 L 57.252838 74.655042 L 57.335305 74.341931 L 57.418261 74.029182 L 57.501708 73.716784 L 57.585647 73.404726 L 57.670081 73.092999 L 57.755011 72.781590 L 57.840440 72.470488 L 57.926369 72.159684 L 58.012801 71.849166 L 58.099738 71.538924 L 58.187182 71.228947 L 58.275135 70.919225 L 58.363601 70.609746 L 58.452581 70.300501 L 58.542079 69.991479 L 58.632096 69.682668 L 58.722637 69.374060 L 58.813702 69.065643 L 58.905297 68.757408 L 58.997422 68.449343 L 59.090082 68.141438 L 59.183280 67.833683 L 59.277018 67.526068 L 59.371301 67.218583 L 59.466131 66.911216 L 59.561512 66.603959 L 59.657448 66.296800 L 59.753942 65.989729 L 59.850997 65.682737 L 59.948618 65.375813 L 60.046808 65.068947 L 60.145572 64.762129 L 60.244913 64.455349 L 60.344835 64.148595 L 60.445343 63.841859 L 60.546441 63.535131 L 60.648133 63.228399 L 60.750424 62.921654 L 60.853318 62.614886 L 60.956820 62.308085 L 61.060934 62.001240 L 61.165665 61.694342 L 61.271019 61.387380 L 61.377000 61.080344 L 61.483613 60.773224 L 61.590863 60.466010 L 61.698755 60.158692 L 61.807296 59.851259 L 61.916490 59.543702 L 62.026343 59.236010 L 62.136860 58.928173 L 62.248047 58.620181 L 62.359911 58.312023 L 62.472456 58.003690 L 62.585690 57.695171 L 62.699617 57.386455 L 62.814245 57.077534 L 62.929580 56.768395 L 63.045628 56.459029 L 63.162395 56.149426 L 63.279890 55.839575 L 63.398117 55.529466 L 63.517084 55.219088 L 63.636799 54.908431 L 63.757268 54.597484 L 63.878498 54.286237 L 64.000497 53.974680 L 64.123273 53.662801 L 64.246833 53.350590 L 64.371184 53.038036 L 64.496335 52.725130 L 64.622294 52.411859 L 64.749068 52.098213 L 64.876667 51.784182 L 65.005098 51.469754 L 65.134370 51.154920 L 65.264491 50.839666 L 65.395472 50.523984 L 65.527319 50.207861 L 65.660043 49.891287 L 65.793653 49.574251 L 65.928158 49.256740 L 66.063568 48.938745 L 66.199893 48.620254 L 66.337142 48.301255 L 66.475325 47.981737 L 66.614453 47.661689 L 66.754536 47.341099 L 66.895584 47.019956 L 67.037609 46.698247 L 67.180620 46.375962 L 67.324630 46.053088 L 67.469649 45.729614 L 67.615689 45.405528 L 67.762762 45.080817 L 67.910879 44.755470 L 68.060051 44.429475 L 68.210293 44.102820 L 68.361615 43.775492 L 68.514030 43.447478 L 68.667552 43.118768 L 68.822193 42.789347 L 68.977966 42.459204 L 69.134885 42.128326 L 69.292964 41.796700 L 69.452216 41.464313 L 69.612656 41.131153 L 69.774298 40.797206 L 69.937156 40.462460 L 70.101246 40.126901 L 70.266582 39.790517 L 70.433180 39.453293 L 70.601055 39.115216 L 70.770223 38.776273 L 70.940701 38.436450 L 71.112505 38.095734 L 71.285652 37.754110 L 71.460158 37.411565 L 71.636040 37.068085 L 71.813317 36.723655 L 71.992007 36.378262 L 72.172126 36.031890 L 72.353695 35.684526 L 72.536731 35.336154 L 72.721254 34.986761 L 72.907283 34.636331 L 73.094838 34.284850 L 73.283939 33.932302 L 73.474607 33.578672 L 73.666863 33.223946 L 73.860727 32.868107 L 74.056222 32.511140 L 74.253369 32.153029 L 74.452191 31.793759 L 74.652710 31.433314 L 74.854950 31.071678 L 75.058934 30.708833 L 75.264686 30.344766 L 75.472231 29.979457 L 75.681594 29.612892 L 75.892799 29.245054 L 76.105874 28.875925 L 76.320843 28.505488 L 76.537735 28.133727 L 76.756575 27.760624 L 76.977392 27.386162 L 77.200214 27.010323 L 77.425070 26.633089 L 77.651989 26.254442 L 77.881001 25.874365 L 78.112137 25.492840 L 78.345427 25.109847 L 78.580904 24.725368 L 78.818598 24.339386 L 79.058544 23.951880 L 79.300774 23.562832 L 79.545323 23.172222 L 79.792225 22.780032 L 80.041516 22.386243 L 80.293231 21.990833 L 80.547408 21.593784 L 80.804084 21.195076 L 81.063297 20.794688 L 81.325087 20.392600 L 81.589492 19.988792 L 81.856554 19.583243 L 82.126314 19.175933 L 82.398814 18.766839 L 82.674096 18.355942 L 82.952206 17.943220 L 83.233186 17.528652 L 83.517085 17.112215 L 83.803946 16.693888 L 84.093819 16.273649 L 84.386752 15.851476 L 84.682794 15.427346 L 84.981995 15.001238 L 85.284408 14.573128 L 85.590084 14.142993 L 85.899078 13.710812 L 86.211444 13.276560 L 86.527238 12.840214 L 86.846518 12.401752 L 87.169341 11.961148 L 87.495768 11.518380 L 87.825858 11.073424 L 88.143711 10.647641" fill="none" id="tattoo-path-b461c476ce43bc90" stroke="#000000" stroke-linecap="round" stroke-linejoin="round" stroke-width="3.100000"/>
  <path clip-path="url(#tattoo-band-layer-clip)" d="M 17.048630 104.052900 L 17.320843 104.233750 L 17.787538 104.539120 L 18.254713 104.840170 L 18.722339 105.136931 L 19.190386 105.429431 L 19.658828 105.717700 L 20.127635 106.001765 L 20.596781 106.281656 L 21.066239 106.557401 L 21.535984 106.829028 L 22.005990 107.096566 L 22.476231 107.360043 L 22.946685 107.619485 L 23.417328 107.874922 L 23.888135 108.126381 L 24.359085 108.373888 L 24.830156 108.617471 L 25.301326 108.857158 L 25.772573 109.092974 L 26.243878 109.324946 L 26.715220 109.553102 L 27.186580 109.777466 L 27.657939 109.998066 L 28.129277 110.214926 L 28.600576 110.428073 L 29.071820 110.637531 L 29.542989 110.843327 L 30.014068 111.045484 L 30.485040 111.244029 L 30.955888 111.438985 L 31.426598 111.630377 L 31.897153 111.818228 L 32.367538 112.002564 L 32.837739 112.183407 L 33.307743 112.360781 L 33.777533 112.534709 L 34.247099 112.705215 L 34.716425 112.872321 L 35.185499 113.036050 L 35.654310 113.196424 L 36.122844 113.353466 L 36.591089 113.507196 L 37.059035 113.657638 L 37.526669 113.804813 L 37.993982 113.948741 L 38.460961 114.089444 L 38.927598 114.226943 L 39.393881 114.361259 L 39.859801 114.492410 L 40.325348 114.620419 L 40.790514 114.745305 L 41.255288 114.867087 L 41.719663 114.985785 L 42.183629 115.101418 L 42.647179 115.214005 L 43.110303 115.323566 L 43.572995 115.430118 L 44.035247 115.533680 L 44.497051 115.634270 L 44.958400 115.731906 L 45.419288 115.826606 L 45.879707 115.918388 L 46.339650 116.007267 L 46.799112 116.093262 L 47.258086 116.176390 L 47.716566 116.256666 L 48.174546 116.334107 L 48.632021 116.408730 L 49.088985 116.480551 L 49.545433 116.549584 L 50.001359 116.615846 L 50.456759 116.679353 L 50.911628 116.740118 L 51.365960 116.798157 L 51.819753 116.853484 L 52.273000 116.906115 L 52.725698 116.956063 L 53.177843 117.003342 L 53.629430 117.047966 L 54.080456 117.089949 L 54.530918 117.129304 L 54.980810 117.166045 L 55.430131 117.200184 L 55.878875 117.231734 L 56.327041 117.260708 L 56.774626 117.287118 L 57.221624 117.310976 L 57.668035 117.332295 L 58.113855 117.351086 L 58.559081 117.367361 L 59.003711 117.381131 L 59.447742 117.392407 L 59.891171 117.401201 L 60.333996 117.407523 L 60.776215 117.411383 L 61.217825 117.412793 L 61.658825 117.411763 L 62.099211 117.408302 L 62.538983 117.402421 L 62.978137 117.394129 L 63.416672 117.383435 L 63.854587 117.370349 L 64.291879 117.354881 L 64.728546 117.337038 L 65.164588 117.316830 L 65.600002 117.294265 L 66.034786 117.269352 L 66.468939 117.242099 L 66.902460 117.212514 L 67.335347 117.180604 L 67.767599 117.146378 L 68.199214 117.109843 L 68.630191 117.071006 L 69.060528 117.029875 L 69.490225 116.986455 L 69.919280 116.940755 L 70.347692 116.892781 L 70.775459 116.842539 L 71.202580 116.790035 L 71.629055 116.735276 L 72.054881 116.678268 L 72.480059 116.619016 L 72.904586 116.557525 L 73.328462 116.493803 L 73.751685 116.427852 L 74.174254 116.359680 L 74.596169 116.289290 L 75.017429 116.216687 L 75.438031 116.141877 L 75.857975 116.064863 L 76.277260 115.985650 L 76.695885 115.904241 L 77.113849 115.820642 L 77.531150 115.734855 L 77.947788 115.646885 L 78.363761 115.556735 L 78.779069 115.464407 L 79.193709 115.369906 L 79.607682 115.273235 L 80.020985 115.174396 L 80.433617 115.073391 L 80.845578 114.970225 L 81.256865 114.864898 L 81.667479 114.757413 L 82.077416 114.647773 L 82.486677 114.535979 L 82.895259 114.422033 L 83.303162 114.305937 L 83.710383 114.187692 L 84.116922 114.067300 L 84.522776 113.944761 L 84.927945 113.820078 L 85.332426 113.693250 L 85.736218 113.564278 L 86.139320 113.433164 L 86.541729 113.299908 L 86.943444 113.164509 L 87.344463 113.026969 L 87.744784 112.887287 L 88.144405 112.745463 L 88.543324 112.601497 L 88.941540 112.455388 L 89.339049 112.307136 L 89.735850 112.156741 L 90.131941 112.004201 L 90.527319 111.849516 L 90.921982 111.692685 L 91.315927 111.533705 L 91.709152 111.372577 L 92.101655 111.209298 L 92.493433 111.043867 L 92.884482 110.876282 L 93.274801 110.706540 L 93.664386 110.534642 L 94.053235 110.360582 L 94.441344 110.184361 L 94.828710 110.005975 L 95.215330 109.825421 L 95.601201 109.642697 L 95.986319 109.457800 L 96.370681 109.270728 L 96.754283 109.081476 L 97.137122 108.890042 L 97.519194 108.696422 L 97.900495 108.500613 L 98.281020 108.302611 L 98.660766 108.102413 L 99.039729 107.900014 L 99.417905 107.695411 L 99.795288 107.488599 L 100.171875 107.279574 L 100.547661 107.068332 L 100.922640 106.854868 L 101.296809 106.639178 L 101.670162 106.421257 L 102.042694 106.201099 L 102.414400 105.978701 L 102.785274 105.754056 L 103.155311 105.527159 L 103.524505 105.298006 L 103.892851 105.066590 L 104.260342 104.832906 L 104.626973 104.596948 L 104.992737 104.358711 L 105.357628 104.118188 L 105.721640 103.875373 L 106.084766 103.630260 L 106.446998 103.382843 L 106.808331 103.133115 L 107.168756 102.881069 L 107.528267 102.626700 L 107.886857 102.369999 L 108.244517 102.110961 L 108.601240 101.849578 L 108.957018 101.585843 L 109.311842 101.319748 L 109.665706 101.051288 L 110.018599 100.780453 L 110.370514 100.507236 L 110.721441 100.231630 L 111.071372 99.953627 L 111.420296 99.673219 L 111.768206 99.390398 L 112.115091 99.105156 L 112.460942 98.817485 L 112.805748 98.527376 L 113.149499 98.234821 L 113.492184 97.939811 L 113.833794 97.642338 L 114.174317 97.342394 L 114.513741 97.039968 L 114.852057 96.735054 L 115.189252 96.427641 L 115.525314 96.117720 L 115.860231 95.805283 L 116.193991 95.490319 L 116.526582 95.172821 L 116.857991 94.852777 L 117.188205 94.530180 L 117.517210 94.205019 L 117.844993 93.877284 L 118.171541 93.546966 L 118.496839 93.214055 L 118.820872 92.878542 L 119.143627 92.540415 L 119.465089 92.199666 L 119.785242 91.856284 L 120.104070 91.510258 L 120.421559 91.161580 L 120.737692 90.810238 L 121.052453 90.456222 L 121.365826 90.099521 L 121.677792 89.740126 L 121.988336 89.378026 L 122.297439 89.013210 L 122.605084 88.645667 L 122.911253 88.275388 L 123.215927 87.902361 L 123.519086 87.526575 L 123.820713 87.148020 L 124.120787 86.766686 L 124.419289 86.382560 L 124.716198 85.995634 L 125.011494 85.605894 L 125.305155 85.213332 L 125.597161 84.817935 L 125.887490 84.419694 L 126.176119 84.018596 L 126.463027 83.614632 L 126.748190 83.207791 L 127.031585 82.798060 L 127.313188 82.385431 L 127.592976 81.969891 L 127.870925 81.551431 L 128.147008 81.130038 L 128.421201 80.705703 L 128.693478 80.278415 L 128.963814 79.848163 L 129.232180 79.414936 L 129.498552 78.978725 L 129.762900 78.539517 L 130.025197 78.097304 L 130.285415 77.652074 L 130.543525 77.203817 L 130.799498 76.752523 L 131.053303 76.298182 L 131.304911 75.840784 L 131.554291 75.380319 L 131.801411 74.916777 L 132.046240 74.450149 L 132.288746 73.980424 L 132.528895 73.507593 L 132.766655 73.031648 L 133.001992 72.552579 L 133.234872 72.070376 L 133.465259 71.585032 L 133.693119 71.096537 L 133.918415 70.604883 L 134.141110 70.110062 L 134.361169 69.612065 L 134.578553 69.110886 L 134.793225 68.606515 L 135.005144 68.098946 L 135.214273 67.588172 L 135.420572 67.074186 L 135.623999 66.556981 L 135.824514 66.036550 L 135.939874 65.730774" fill="none" id="tattoo-path-f820d1a3b2672563" stroke="#000000" stroke-linecap="round" stroke-linejoin="round" stroke-width="2.500000"/>
  <path clip-path="url(#tattoo-band-layer-clip)" d="M 131.067482 97.803954 L 131.017102 97.755115 L 130.615886 97.368327 L 130.216526 96.985442 L 129.819002 96.606395 L 129.423293 96.231123 L 129.029382 95.859565 L 128.637249 95.491661 L 128.246874 95.127351 L 127.858240 94.766576 L 127.471326 94.409282 L 127.086115 94.055411 L 126.702588 93.704909 L 126.320726 93.357723 L 125.940510 93.013800 L 125.561923 92.673089 L 125.184945 92.335539 L 124.809560 92.001101 L 124.435748 91.669727 L 124.063492 91.341368 L 123.692775 91.015979 L 123.323577 90.693514 L 122.955883 90.373927 L 122.589673 90.057176 L 122.224932 89.743216 L 121.861642 89.432005 L 121.499785 89.123503 L 121.139345 88.817667 L 120.780304 88.514458 L 120.422647 88.213838 L 120.066356 87.915766 L 119.711415 87.620206 L 119.357807 87.327121 L 119.005517 87.036473 L 118.654527 86.748227 L 118.304823 86.462349 L 117.956387 86.178803 L 117.609205 85.897555 L 117.263261 85.618573 L 116.918538 85.341824 L 116.575022 85.067275 L 116.232697 84.794896 L 115.891548 84.524654 L 115.551560 84.256521 L 115.212717 83.990465 L 114.875006 83.726458 L 114.538410 83.464470 L 114.202916 83.204474 L 113.868509 82.946441 L 113.535175 82.690344 L 113.202898 82.436156 L 112.871666 82.183851 L 112.541463 81.933403 L 112.212275 81.684785 L 111.884090 81.437974 L 111.556892 81.192944 L 111.230669 80.949671 L 110.905406 80.708131 L 110.581090 80.468301 L 110.257707 80.230157 L 109.935245 79.993678 L 109.613690 79.758839 L 109.293029 79.525620 L 108.973249 79.293999 L 108.654336 79.063955 L 108.336279 78.835466 L 108.019063 78.608512 L 107.702677 78.383073 L 107.387108 78.159129 L 107.072344 77.936660 L 106.758371 77.715647 L 106.445178 77.496072 L 106.132752 77.277914 L 105.821081 77.061156 L 105.510154 76.845781 L 105.199957 76.631769 L 104.890479 76.419103 L 104.581709 76.207767 L 104.273633 75.997743 L 103.966241 75.789014 L 103.659522 75.581564 L 103.353462 75.375377 L 103.048051 75.170436 L 102.743278 74.966726 L 102.439130 74.764232 L 102.135598 74.562937 L 101.832668 74.362828 L 101.530331 74.163889 L 101.228575 73.966106 L 100.927389 73.769464 L 100.626761 73.573949 L 100.326682 73.379548 L 100.027140 73.186245 L 99.728124 72.994029 L 99.429624 72.802885 L 99.131629 72.612801 L 98.834128 72.423763 L 98.537110 72.235758 L 98.240565 72.048775 L 97.944482 71.862800 L 97.648852 71.677822 L 97.353663 71.493828 L 97.058905 71.310806 L 96.764568 71.128745 L 96.470641 70.947634 L 96.177115 70.767460 L 95.883979 70.588213 L 95.591222 70.409882 L 95.298836 70.232455 L 95.006809 70.055922 L 94.715131 69.880272 L 94.423793 69.705495 L 94.132785 69.531581 L 93.842096 69.358519 L 93.551717 69.186300 L 93.261638 69.014913 L 92.971849 68.844348 L 92.682340 68.674597 L 92.393101 68.505650 L 92.104123 68.337496 L 91.815396 68.170128 L 91.526909 68.003535 L 91.238654 67.837710 L 90.950621 67.672642 L 90.662800 67.508324 L 90.375181 67.344747 L 90.087755 67.181902 L 89.800512 67.019781 L 89.513443 66.858375 L 89.226538 66.697676 L 88.939787 66.537677 L 88.653181 66.378370 L 88.366711 66.219746 L 88.080366 66.061797 L 87.794138 65.904517 L 87.508017 65.747898 L 87.221993 65.591932 L 86.936057 65.436611 L 86.650199 65.281929 L 86.364410 65.127879 L 86.078681 64.974453 L 85.793001 64.821645 L 85.507362 64.669447 L 85.221755 64.517853 L 84.936168 64.366856 L 84.650594 64.216450 L 84.365023 64.066628 L 84.079444 63.917383 L 83.793850 63.768710 L 83.508229 63.620601 L 83.222573 63.473052 L 82.936873 63.326055 L 82.651118 63.179605 L 82.365299 63.033696 L 82.079406 62.888322 L 81.793431 62.743477 L 81.507363 62.599156 L 81.221193 62.455352 L 80.934912 62.312061 L 80.648509 62.169276 L 80.361974 62.026993 L 80.075300 61.885206 L 79.788475 61.743910 L 79.501490 61.603100 L 79.214335 61.462770 L 78.927000 61.322916 L 78.639477 61.183532 L 78.351754 61.044614 L 78.063822 60.906157 L 77.775671 60.768155 L 77.487292 60.630605 L 77.198674 60.493502 L 76.909807 60.356840 L 76.620682 60.220616 L 76.331288 60.084825 L 76.041615 59.949463 L 75.751654 59.814526 L 75.461393 59.680008 L 75.170823 59.545906 L 74.879934 59.412216 L 74.588715 59.278934 L 74.297156 59.146056 L 74.005246 59.013577 L 73.712975 58.881494 L 73.420333 58.749802 L 73.127309 58.618499 L 72.833893 58.487581 L 72.540073 58.357043 L 72.245840 58.226883 L 71.951181 58.097096 L 71.656088 57.967679 L 71.360548 57.838629 L 71.064550 57.709943 L 70.768085 57.581616 L 70.471140 57.453646 L 70.173705 57.326030 L 69.875768 57.198764 L 69.577317 57.071845 L 69.278343 56.945271 L 68.978833 56.819038 L 68.678776 56.693143 L 68.378159 56.567584 L 68.076973 56.442358 L 67.775204 56.317461 L 67.472841 56.192892 L 67.169872 56.068647 L 66.866285 55.944724 L 66.562068 55.821121 L 66.257209 55.697835 L 65.951695 55.574864 L 65.645515 55.452204 L 65.338655 55.329855 L 65.031103 55.207813 L 64.722847 55.086077 L 64.413874 54.964645 L 64.104171 54.843513 L 63.793724 54.722681 L 63.482522 54.602146 L 63.170550 54.481907 L 62.857795 54.361962 L 62.544245 54.242308 L 62.229885 54.122944 L 61.914701 54.003869 L 61.598681 53.885081 L 61.281810 53.766578 L 60.964073 53.648359 L 60.645458 53.530423 L 60.325949 53.412768 L 60.005533 53.295392 L 59.684194 53.178296 L 59.361918 53.061476 L 59.038691 52.944934 L 58.714496 52.828666 L 58.389319 52.712674 L 58.063145 52.596954 L 57.735958 52.481508 L 57.407743 52.366334 L 57.078484 52.251431 L 56.748164 52.136799 L 56.416769 52.022437 L 56.084281 51.908345 L 55.750684 51.794523 L 55.415962 51.680969 L 55.080097 51.567685 L 54.743073 51.454670 L 54.404873 51.341923 L 54.065479 51.229445 L 53.724874 51.117236 L 53.383040 51.005296 L 53.039959 50.893625 L 52.695612 50.782224 L 52.349983 50.671093 L 52.003051 50.560233 L 51.654799 50.449645 L 51.305206 50.339328 L 50.954255 50.229284 L 50.601925 50.119514 L 50.248198 50.010019 L 49.893052 49.900800 L 49.536468 49.791857 L 49.178425 49.683194 L 48.818903 49.574810 L 48.457881 49.466707 L 48.095337 49.358888 L 47.731251 49.251354 L 47.365600 49.144106 L 46.998363 49.037147 L 46.629517 48.930479 L 46.259040 48.824104 L 45.886908 48.718024 L 45.513099 48.612242 L 45.137590 48.506761 L 44.760356 48.401584 L 44.381374 48.296712 L 44.000618 48.192150 L 43.618066 48.087900 L 43.233690 47.983967 L 42.847467 47.880352 L 42.459369 47.777061 L 42.069372 47.674096 L 41.677449 47.571462 L 41.283573 47.469163 L 40.887717 47.367204 L 40.489853 47.265588 L 40.089953 47.164320 L 39.687990 47.063406 L 39.283934 46.962850 L 38.877756 46.862657 L 38.469426 46.762834 L 38.058916 46.663385 L 37.646193 46.564316 L 37.231228 46.465634 L 36.813990 46.367345 L 36.394445 46.269455 L 35.972563 46.171971 L 35.548310 46.074901 L 35.121654 45.978250 L 34.692560 45.882028 L 34.260995 45.786240 L 33.826923 45.690897 L 33.390310 45.596005 L 32.951119 45.501574 L 32.509315 45.407612 L 32.064861 45.314128 L 31.617718 45.221132 L 31.167850 45.128634 L 30.715217 45.036644 L 30.259780 44.945171 L 29.801499 44.854228 L 29.340335 44.763825 L 28.876245 44.673973 L 28.409189 44.584685 L 27.939123 44.495972 L 27.466004 44.407848 L 26.989789 44.320325 L 26.510434 44.233417 L 26.027892 44.147137 L 25.542118 44.061501 L 25.053066 43.976522 L 24.560687 43.892216 L 24.064934 43.808599 L 23.565757 43.725688 L 23.063107 43.643498 L 22.556933 43.562047 L 22.047182 43.481353 L 21.533803 43.401434 L 21.016743 43.322310 L 20.495946 43.244000 L 19.971359 43.166524 L 19.442924 43.089902 L 18.910585 43.014158 L 18.374283 42.939311 L 17.833960 42.865387 L 17.289556 42.792407 L 16.741008 42.720397 L 16.188256 42.649381 L 16.118636 42.640632" fill="none" id="tattoo-path-da7e89f35252d6d0" stroke="#000000" stroke-linecap="round" stroke-linejoin="round" stroke-width="2.200000"/>
  <path clip-path="url(#tattoo-band-layer-clip)" d="M 100.769482 129.695073 L 101.021894 129.299834 L 101.318451 128.828530 L 101.610680 128.357146 L 101.898617 127.885706 L 102.182298 127.414236 L 102.461760 126.942760 L 102.737037 126.471301 L 103.008165 125.999883 L 103.275177 125.528527 L 103.538110 125.057255 L 103.796997 124.586088 L 104.051872 124.115048 L 104.302769 123.644153 L 104.549720 123.173422 L 104.792760 122.702876 L 105.031920 122.232531 L 105.267233 121.762407 L 105.498732 121.292519 L 105.726448 120.822884 L 105.950412 120.353519 L 106.170656 119.884440 L 106.387210 119.415661 L 106.600105 118.947197 L 106.809372 118.479063 L 107.015039 118.011272 L 107.217138 117.543838 L 107.415697 117.076774 L 107.610744 116.610093 L 107.802310 116.143805 L 107.990422 115.677925 L 108.175107 115.212462 L 108.356395 114.747427 L 108.534312 114.282832 L 108.708885 113.818687 L 108.880142 113.355001 L 109.048109 112.891784 L 109.212811 112.429045 L 109.374275 111.966794 L 109.532527 111.505038 L 109.687591 111.043787 L 109.839493 110.583047 L 109.988257 110.122827 L 110.133908 109.663135 L 110.276470 109.203976 L 110.415967 108.745358 L 110.552421 108.287288 L 110.685857 107.829772 L 110.816297 107.372816 L 110.943764 106.916425 L 111.068279 106.460605 L 111.189866 106.005361 L 111.308546 105.550699 L 111.424340 105.096623 L 111.537269 104.643138 L 111.647355 104.190248 L 111.754618 103.737958 L 111.859078 103.286271 L 111.960756 102.835191 L 112.059670 102.384722 L 112.155841 101.934866 L 112.249288 101.485629 L 112.340030 101.037011 L 112.428085 100.589016 L 112.513473 100.141648 L 112.596210 99.694907 L 112.676315 99.248797 L 112.753806 98.803320 L 112.828701 98.358478 L 112.901015 97.914273 L 112.970766 97.470706 L 113.037971 97.027779 L 113.102646 96.585494 L 113.164806 96.143852 L 113.224469 95.702854 L 113.281650 95.262501 L 113.336363 94.822794 L 113.388624 94.383735 L 113.438448 93.945323 L 113.485850 93.507559 L 113.530844 93.070444 L 113.573444 92.633979 L 113.613664 92.198163 L 113.651517 91.762997 L 113.687018 91.328481 L 113.720179 90.894614 L 113.751014 90.461398 L 113.779535 90.028832 L 113.805755 89.596914 L 113.829686 89.165647 L 113.851340 88.735028 L 113.870729 88.305057 L 113.887865 87.875734 L 113.902759 87.447059 L 113.915423 87.019030 L 113.925867 86.591646 L 113.934103 86.164908 L 113.940140 85.738815 L 113.943990 85.313364 L 113.945662 84.888556 L 113.945166 84.464389 L 113.942513 84.040863 L 113.937712 83.617976 L 113.930771 83.195727 L 113.921701 82.774115 L 113.910510 82.353138 L 113.897207 81.932796 L 113.881801 81.513087 L 113.864299 81.094010 L 113.844711 80.675563 L 113.823044 80.257745 L 113.799305 79.840555 L 113.773503 79.423991 L 113.745645 79.008052 L 113.715738 78.592736 L 113.683789 78.178042 L 113.649805 77.763967 L 113.613792 77.350511 L 113.575758 76.937673 L 113.535708 76.525450 L 113.493648 76.113840 L 113.449585 75.702843 L 113.403524 75.292456 L 113.355470 74.882679 L 113.305430 74.473509 L 113.253408 74.064945 L 113.199409 73.656984 L 113.143439 73.249627 L 113.085501 72.842870 L 113.025601 72.436713 L 112.963743 72.031153 L 112.899930 71.626189 L 112.834168 71.221820 L 112.766459 70.818043 L 112.696807 70.414858 L 112.625217 70.012263 L 112.551690 69.610255 L 112.476232 69.208835 L 112.398843 68.807999 L 112.319528 68.407747 L 112.238288 68.008077 L 112.155127 67.608987 L 112.070047 67.210477 L 111.983050 66.812544 L 111.894137 66.415188 L 111.803312 66.018406 L 111.710575 65.622198 L 111.615927 65.226563 L 111.519372 64.831498 L 111.420908 64.437003 L 111.320539 64.043076 L 111.218264 63.649717 L 111.114084 63.256924 L 111.008001 62.864696 L 110.900013 62.473032 L 110.790123 62.081930 L 110.678329 61.691391 L 110.564631 61.301412 L 110.449031 60.911994 L 110.331526 60.523134 L 110.212117 60.134833 L 110.090803 59.747090 L 109.967584 59.359903 L 109.842457 58.973272 L 109.715423 58.587197 L 109.586480 58.201677 L 109.455626 57.816711 L 109.322861 57.432299 L 109.188181 57.048441 L 109.051586 56.665136 L 108.913074 56.282384 L 108.772641 55.900185 L 108.630287 55.518538 L 108.486008 55.137444 L 108.339802 54.756902 L 108.191666 54.376913 L 108.041598 53.997477 L 107.889593 53.618593 L 107.735650 53.240262 L 107.579764 52.862485 L 107.421933 52.485261 L 107.262151 52.108592 L 107.100417 51.732478 L 106.936725 51.356920 L 106.771072 50.981917 L 106.603454 50.607472 L 106.433866 50.233585 L 106.262303 49.860257 L 106.088761 49.487488 L 105.913235 49.115281 L 105.735720 48.743637 L 105.556211 48.372557 L 105.374703 48.002041 L 105.191190 47.632093 L 105.005667 47.262713 L 104.818128 46.893904 L 104.628567 46.525667 L 104.436978 46.158003 L 104.243356 45.790916 L 104.047693 45.424408 L 103.849983 45.058480 L 103.650221 44.693135 L 103.448398 44.328376 L 103.244508 43.964206 L 103.038545 43.600626 L 102.830500 43.237640 L 102.620368 42.875252 L 102.408139 42.513463 L 102.193807 42.152278 L 101.977363 41.791700 L 101.758801 41.431732 L 101.538112 41.072378 L 101.315287 40.713642 L 101.090318 40.355528 L 100.863198 39.998039 L 100.633916 39.641181 L 100.402465 39.284958 L 100.168836 38.929374 L 99.933019 38.574433 L 99.695005 38.220142 L 99.454785 37.866504 L 99.212349 37.513525 L 98.967688 37.161210 L 98.720792 36.809565 L 98.471651 36.458596 L 98.220254 36.108308 L 97.966593 35.758708 L 97.710655 35.409801 L 97.452431 35.061595 L 97.191910 34.714095 L 96.929082 34.367309 L 96.663934 34.021244 L 96.396457 33.675906 L 96.126638 33.331303 L 95.854467 32.987443 L 95.579932 32.644333 L 95.303021 32.301982 L 95.023722 31.960398 L 94.742024 31.619589 L 94.457914 31.279563 L 94.171381 30.940331 L 93.882410 30.601900 L 93.590991 30.264281 L 93.297111 29.927483 L 93.000756 29.591515 L 92.701914 29.256388 L 92.400571 28.922113 L 92.096714 28.588699 L 91.790331 28.256157 L 91.481407 27.924500 L 91.169929 27.593737 L 90.855883 27.263881 L 90.539254 26.934945 L 90.220030 26.606939 L 89.898196 26.279876 L 89.573738 25.953770 L 89.246641 25.628633 L 88.916890 25.304479 L 88.584471 24.981321 L 88.249369 24.659174 L 87.911570 24.338052 L 87.571057 24.017969 L 87.227817 23.698941 L 86.881832 23.380982 L 86.533090 23.064110 L 86.181572 22.748338 L 85.827265 22.433685 L 85.470152 22.120166 L 85.110217 21.807799 L 84.747444 21.496602 L 84.381818 21.186591 L 84.013321 20.877785 L 83.641939 20.570203 L 83.267653 20.263864 L 82.890449 19.958788 L 82.510308 19.654993 L 82.127216 19.352501 L 81.741153 19.051331 L 81.352105 18.751505 L 80.960054 18.453045 L 80.564983 18.155973 L 80.166874 17.860310 L 79.765711 17.566080 L 79.361477 17.273305 L 78.954154 16.982011 L 78.543724 16.692221 L 78.130171 16.403959 L 77.713476 16.117251 L 77.293623 15.832124 L 76.870594 15.548602 L 76.444371 15.266713 L 76.014937 14.986484 L 75.582273 14.707944 L 75.146363 14.431119 L 74.707188 14.156040 L 74.264732 13.882736 L 73.818975 13.611236 L 73.369901 13.341572 L 72.917491 13.073775 L 72.461729 12.807876 L 72.002595 12.543909 L 71.540074 12.281905 L 71.074147 12.021899 L 70.604796 11.763925 L 70.132005 11.508017 L 69.655755 11.254213 L 69.176029 11.002547 L 68.692811 10.753056 L 68.206082 10.505779 L 67.715826 10.260753 L 67.222026 10.018017 L 66.724665 9.777612 L 66.223725 9.539577 L 65.719191 9.303954 L 65.292959 9.108372" fill="none" id="tattoo-path-dace81e0b0f6bef4" stroke="#000000" stroke-linecap="round" stroke-linejoin="round" stroke-width="1.900000"/>
  <path clip-path="url(#tattoo-band-layer-clip)" d="M 89.168561 134.084081 L 89.064137 133.577911 L 88.952010 133.035715 L 88.840491 132.497735 L 88.729570 131.963901 L 88.619239 131.434146 L 88.509491 130.908405 L 88.400318 130.386611 L 88.291711 129.868701 L 88.183663 129.354612 L 88.076166 128.844283 L 87.969214 128.337655 L 87.862798 127.834667 L 87.756911 127.335262 L 87.651546 126.839384 L 87.546695 126.346976 L 87.442352 125.857983 L 87.338510 125.372353 L 87.235162 124.890031 L 87.132301 124.410968 L 87.029920 123.935111 L 86.928013 123.462411 L 86.826573 122.992818 L 86.725593 122.526285 L 86.625068 122.062765 L 86.524991 121.602211 L 86.425355 121.144577 L 86.326156 120.689818 L 86.227385 120.237891 L 86.129038 119.788752 L 86.031109 119.342359 L 85.933591 118.898669 L 85.836479 118.457642 L 85.739767 118.019237 L 85.643450 117.583414 L 85.547522 117.150135 L 85.451977 116.719361 L 85.356809 116.291053 L 85.262014 115.865176 L 85.167587 115.441691 L 85.073521 115.020564 L 84.979811 114.601759 L 84.886453 114.185240 L 84.793441 113.770974 L 84.700770 113.358927 L 84.608436 112.949065 L 84.516433 112.541357 L 84.424756 112.135768 L 84.333400 111.732269 L 84.242362 111.330827 L 84.151635 110.931411 L 84.061215 110.533993 L 83.971098 110.138540 L 83.881279 109.745025 L 83.791754 109.353418 L 83.702517 108.963690 L 83.613565 108.575814 L 83.524892 108.189761 L 83.436496 107.805505 L 83.348371 107.423018 L 83.260513 107.042274 L 83.172917 106.663246 L 83.085580 106.285908 L 82.998498 105.910236 L 82.911666 105.536204 L 82.825080 105.163787 L 82.738736 104.792961 L 82.652630 104.423701 L 82.566758 104.055985 L 82.481117 103.689787 L 82.395702 103.325086 L 82.310509 102.961857 L 82.225534 102.600079 L 82.140775 102.239730 L 82.056226 101.880787 L 81.971884 101.523228 L 81.887746 101.167032 L 81.803807 100.812178 L 81.720065 100.458645 L 81.636515 100.106413 L 81.553153 99.755459 L 81.469978 99.405766 L 81.386983 99.057312 L 81.304167 98.710078 L 81.221526 98.364044 L 81.139055 98.019191 L 81.056753 97.675500 L 80.974615 97.332953 L 80.892637 96.991530 L 80.810818 96.651213 L 80.729152 96.311984 L 80.647637 95.973825 L 80.566270 95.636718 L 80.485047 95.300646 L 80.403965 94.965590 L 80.323020 94.631535 L 80.242210 94.298462 L 80.161531 93.966354 L 80.080981 93.635196 L 80.000555 93.304970 L 79.920250 92.975661 L 79.840065 92.647251 L 79.759995 92.319724 L 79.680037 91.993066 L 79.600188 91.667259 L 79.520445 91.342289 L 79.440806 91.018140 L 79.361266 90.694796 L 79.281823 90.372242 L 79.202475 90.050463 L 79.123217 89.729445 L 79.044047 89.409172 L 78.964962 89.089629 L 78.885959 88.770803 L 78.807035 88.452678 L 78.728187 88.135241 L 78.649412 87.818476 L 78.570707 87.502371 L 78.492069 87.186910 L 78.413496 86.872080 L 78.334984 86.557868 L 78.256530 86.244258 L 78.178132 85.931239 L 78.099786 85.618796 L 78.021491 85.306916 L 77.943242 84.995586 L 77.865037 84.684792 L 77.786874 84.374521 L 77.708749 84.064760 L 77.630659 83.755497 L 77.552602 83.446718 L 77.474574 83.138410 L 77.396574 82.830561 L 77.318597 82.523158 L 77.240642 82.216188 L 77.162706 81.909639 L 77.084785 81.603498 L 77.006876 81.297754 L 76.928978 80.992393 L 76.851086 80.687403 L 76.773199 80.382772 L 76.695314 80.078488 L 76.617427 79.774539 L 76.539535 79.470913 L 76.461637 79.167597 L 76.383729 78.864580 L 76.305808 78.561850 L 76.227871 78.259395 L 76.149917 77.957202 L 76.071941 77.655261 L 75.993940 77.353560 L 75.915913 77.052086 L 75.837856 76.750828 L 75.759767 76.449775 L 75.681642 76.148914 L 75.603479 75.848234 L 75.525274 75.547725 L 75.447025 75.247373 L 75.368729 74.947168 L 75.290384 74.647098 L 75.211985 74.347151 L 75.133531 74.047317 L 75.055018 73.747583 L 74.976444 73.447938 L 74.897805 73.148372 L 74.819098 72.848872 L 74.740321 72.549426 L 74.661471 72.250025 L 74.582544 71.950656 L 74.503538 71.651308 L 74.424450 71.351969 L 74.345276 71.052629 L 74.266014 70.753275 L 74.186660 70.453897 L 74.107212 70.154483 L 74.027666 69.855022 L 73.948019 69.555502 L 73.868269 69.255912 L 73.788412 68.956240 L 73.708445 68.656476 L 73.628364 68.356607 L 73.548167 68.056623 L 73.467851 67.756512 L 73.387412 67.456261 L 73.306847 67.155861 L 73.226153 66.855299 L 73.145326 66.554564 L 73.064363 66.253643 L 72.983262 65.952527 L 72.902018 65.651202 L 72.820628 65.349658 L 72.739089 65.047882 L 72.657398 64.745863 L 72.575551 64.443589 L 72.493544 64.141048 L 72.411375 63.838228 L 72.329039 63.535118 L 72.246533 63.231706 L 72.163854 62.927979 L 72.080998 62.623926 L 71.997962 62.319534 L 71.914741 62.014791 L 71.831332 61.709686 L 71.747732 61.404205 L 71.663937 61.098337 L 71.579942 60.792069 L 71.495745 60.485389 L 71.411341 60.178284 L 71.326726 59.870741 L 71.241898 59.562749 L 71.156851 59.254294 L 71.071581 58.945364 L 70.986085 58.635945 L 70.900360 58.326025 L 70.814399 58.015591 L 70.728201 57.704629 L 70.641759 57.393127 L 70.555071 57.081071 L 70.468132 56.768448 L 70.380937 56.455245 L 70.293483 56.141447 L 70.205765 55.827041 L 70.117778 55.512015 L 70.029519 55.196352 L 69.940982 54.880041 L 69.852163 54.563066 L 69.763058 54.245414 L 69.673661 53.927070 L 69.583969 53.608020 L 69.493976 53.288249 L 69.403677 52.967743 L 69.313069 52.646487 L 69.222145 52.324466 L 69.130901 52.001666 L 69.039331 51.678070 L 68.947431 51.353664 L 68.855196 51.028433 L 68.762620 50.702360 L 68.669698 50.375430 L 68.576425 50.047628 L 68.482795 49.718937 L 68.388803 49.389342 L 68.294443 49.058825 L 68.199710 48.727370 L 68.104598 48.394962 L 68.009101 48.061582 L 67.913213 47.727214 L 67.816929 47.391842 L 67.720242 47.055446 L 67.623147 46.718011 L 67.525637 46.379519 L 67.427706 46.039950 L 67.329347 45.699289 L 67.230555 45.357515 L 67.131323 45.014611 L 67.031645 44.670558 L 66.931513 44.325338 L 66.830920 43.978930 L 66.729861 43.631316 L 66.628328 43.282475 L 66.526314 42.932390 L 66.423812 42.581038 L 66.320814 42.228400 L 66.217314 41.874456 L 66.113304 41.519185 L 66.008775 41.162565 L 65.903722 40.804576 L 65.798135 40.445195 L 65.692007 40.084402 L 65.585330 39.722173 L 65.478096 39.358487 L 65.370296 38.993320 L 65.261922 38.626651 L 65.152965 38.258455 L 65.043417 37.888709 L 64.933269 37.517388 L 64.822513 37.144470 L 64.711138 36.769929 L 64.599136 36.393741 L 64.486497 36.015879 L 64.373212 35.636319 L 64.259271 35.255034 L 64.144664 34.871999 L 64.029382 34.487186 L 63.913413 34.100569 L 63.796749 33.712119 L 63.679377 33.321810 L 63.561288 32.929612 L 63.442471 32.535498 L 63.322915 32.139437 L 63.202607 31.741401 L 63.081538 31.341359 L 62.959695 30.939282 L 62.837066 30.535137 L 62.713640 30.128894 L 62.589404 29.720521 L 62.464346 29.309985 L 62.338452 28.897253 L 62.211711 28.482293 L 62.084108 28.065069 L 61.955631 27.645548 L 61.826266 27.223695 L 61.695998 26.799474 L 61.564815 26.372849 L 61.432700 25.943783 L 61.299641 25.512238 L 61.165621 25.078177 L 61.030626 24.641561 L 60.894639 24.202351 L 60.757646 23.760506 L 60.619630 23.315987 L 60.480574 22.868751 L 60.340462 22.418757 L 60.199277 21.965962 L 60.057001 21.510323 L 59.913617 21.051795 L 59.769106 20.590333 L 59.623450 20.125891 L 59.476631 19.658423 L 59.328628 19.187881 L 59.179422 18.714217 L 59.028994 18.237381 L 58.877322 17.757324 L 58.724387 17.273994 L 58.570166 16.787338 L 58.414638 16.297306 L 58.257781 15.803841 L 58.099572 15.306890 L 57.939988 14.806396 L 57.779005 14.302302 L 57.616599 13.794549 L 57.452747 13.283080 L 57.287421 12.767832 L 57.120597 12.248745 L 56.952249 11.725755 L 56.782348 11.198799 L 56.623519 10.706980" fill="none" id="tattoo-path-0d8fe98254207b28" stroke="#000000" stroke-linecap="round" stroke-linejoin="round" stroke-width="1.600000"/>
  <path clip-path="url(#tattoo-band-layer-clip)" d="M 125.746472 107.646170 L 125.317879 107.342141 L 124.866269 107.021962 L 124.418048 106.704361 L 123.973160 106.389295 L 123.531553 106.076722 L 123.093174 105.766602 L 122.657971 105.458893 L 122.225892 105.153556 L 121.796889 104.850553 L 121.370913 104.549845 L 120.947915 104.251396 L 120.527849 103.955168 L 120.110669 103.661127 L 119.696329 103.369236 L 119.284784 103.079461 L 118.875992 102.791770 L 118.469908 102.506127 L 118.066492 102.222502 L 117.665702 101.940862 L 117.267497 101.661176 L 116.871837 101.383412 L 116.478683 101.107542 L 116.087996 100.833535 L 115.699739 100.561362 L 115.313875 100.290994 L 114.930367 100.022405 L 114.549178 99.755565 L 114.170274 99.490448 L 113.793620 99.227028 L 113.419182 98.965278 L 113.046926 98.705173 L 112.676819 98.446687 L 112.308829 98.189796 L 111.942923 97.934475 L 111.579071 97.680700 L 111.217240 97.428448 L 110.857402 97.177697 L 110.499526 96.928422 L 110.143582 96.680601 L 109.789541 96.434213 L 109.437375 96.189237 L 109.087056 95.945649 L 108.738556 95.703431 L 108.391847 95.462561 L 108.046904 95.223018 L 107.703699 94.984784 L 107.362206 94.747837 L 107.022400 94.512160 L 106.684255 94.277732 L 106.347747 94.044536 L 106.012851 93.812552 L 105.679543 93.581763 L 105.347798 93.352151 L 105.017594 93.123698 L 104.688908 92.896386 L 104.361716 92.670199 L 104.035995 92.445120 L 103.711725 92.221132 L 103.388882 91.998218 L 103.067446 91.776364 L 102.747394 91.555552 L 102.428707 91.335768 L 102.111362 91.116995 L 101.795340 90.899219 L 101.480621 90.682425 L 101.167185 90.466597 L 100.855011 90.251721 L 100.544081 90.037784 L 100.234375 89.824770 L 99.925875 89.612665 L 99.618562 89.401457 L 99.312416 89.191130 L 99.007421 88.981672 L 98.703558 88.773070 L 98.400810 88.565310 L 98.099158 88.358380 L 97.798585 88.152266 L 97.499075 87.946957 L 97.200610 87.742439 L 96.903174 87.538701 L 96.606749 87.335729 L 96.311320 87.133513 L 96.016871 86.932041 L 95.723385 86.731300 L 95.430847 86.531279 L 95.139241 86.331967 L 94.848551 86.133353 L 94.558763 85.935425 L 94.269860 85.738172 L 93.981829 85.541583 L 93.694654 85.345648 L 93.408320 85.150356 L 93.122813 84.955697 L 92.838119 84.761660 L 92.554223 84.568234 L 92.271112 84.375410 L 91.988771 84.183177 L 91.707186 83.991526 L 91.426344 83.800446 L 91.146231 83.609928 L 90.866835 83.419962 L 90.588140 83.230539 L 90.310135 83.041649 L 90.032806 82.853282 L 89.756140 82.665430 L 89.480124 82.478083 L 89.204746 82.291232 L 88.929993 82.104868 L 88.655852 81.918983 L 88.382311 81.733566 L 88.109358 81.548610 L 87.836980 81.364105 L 87.565166 81.180044 L 87.293902 80.996417 L 87.023178 80.813217 L 86.752982 80.630434 L 86.483300 80.448060 L 86.214123 80.266087 L 85.945438 80.084507 L 85.677234 79.903312 L 85.409499 79.722493 L 85.142222 79.542043 L 84.875391 79.361953 L 84.608996 79.182217 L 84.343025 79.002825 L 84.077467 78.823770 L 83.812311 78.645044 L 83.547546 78.466641 L 83.283161 78.288551 L 83.019145 78.110768 L 82.755488 77.933284 L 82.492179 77.756091 L 82.229207 77.579182 L 81.966561 77.402550 L 81.704231 77.226188 L 81.442206 77.050087 L 81.180476 76.874242 L 80.919031 76.698643 L 80.657860 76.523286 L 80.396952 76.348161 L 80.136298 76.173263 L 79.875887 75.998584 L 79.615709 75.824117 L 79.355753 75.649855 L 79.096010 75.475791 L 78.836470 75.301918 L 78.577121 75.128229 L 78.317955 74.954718 L 78.058961 74.781377 L 77.800130 74.608200 L 77.541450 74.435180 L 77.282913 74.262311 L 77.024508 74.089584 L 76.766226 73.916994 L 76.508056 73.744534 L 76.249988 73.572198 L 75.992014 73.399978 L 75.734122 73.227867 L 75.476303 73.055861 L 75.218547 72.883950 L 74.960845 72.712130 L 74.703186 72.540394 L 74.445561 72.368734 L 74.187960 72.197145 L 73.930373 72.025619 L 73.672791 71.854151 L 73.415203 71.682733 L 73.157599 71.511360 L 72.899971 71.340024 L 72.642308 71.168720 L 72.384600 70.997440 L 72.126838 70.826178 L 71.869011 70.654928 L 71.611111 70.483682 L 71.353126 70.312436 L 71.095047 70.141181 L 70.836865 69.969913 L 70.578569 69.798623 L 70.320150 69.627306 L 70.061597 69.455955 L 69.802901 69.284563 L 69.544052 69.113125 L 69.285039 68.941633 L 69.025853 68.770081 L 68.766484 68.598462 L 68.506921 68.426770 L 68.247154 68.254999 L 67.987174 68.083141 L 67.726970 67.911190 L 67.466532 67.739140 L 67.205850 67.566983 L 66.944913 67.394714 L 66.683711 67.222326 L 66.422234 67.049811 L 66.160472 66.877164 L 65.898413 66.704377 L 65.636048 66.531443 L 65.373366 66.358357 L 65.110356 66.185111 L 64.847008 66.011698 L 64.583311 65.838112 L 64.319254 65.664345 L 64.054827 65.490392 L 63.790019 65.316244 L 63.524818 65.141895 L 63.259213 64.967338 L 62.993195 64.792566 L 62.726751 64.617572 L 62.459871 64.442349 L 62.192542 64.266889 L 61.924755 64.091186 L 61.656497 63.915233 L 61.387756 63.739021 L 61.118523 63.562544 L 60.848784 63.385795 L 60.578528 63.208766 L 60.307744 63.031450 L 60.036418 62.853839 L 59.764541 62.675926 L 59.492098 62.497704 L 59.219079 62.319164 L 58.945471 62.140299 L 58.671262 61.961101 L 58.396438 61.781563 L 58.120989 61.601677 L 57.844900 61.421435 L 57.568160 61.240829 L 57.290754 61.059851 L 57.012672 60.878493 L 56.733898 60.696747 L 56.454421 60.514604 L 56.174226 60.332057 L 55.893300 60.149098 L 55.611631 59.965717 L 55.329203 59.781906 L 55.046003 59.597658 L 54.762017 59.412963 L 54.477232 59.227812 L 54.191632 59.042197 L 53.905203 58.856110 L 53.617931 58.669540 L 53.329801 58.482480 L 53.040799 58.294920 L 52.750909 58.106851 L 52.460115 57.918263 L 52.168404 57.729148 L 51.875759 57.539497 L 51.582164 57.349298 L 51.287604 57.158543 L 50.992062 56.967223 L 50.695523 56.775327 L 50.397971 56.582845 L 50.099387 56.389768 L 49.799757 56.196085 L 49.499062 56.001786 L 49.197286 55.806861 L 48.894411 55.611299 L 48.590419 55.415090 L 48.285294 55.218222 L 47.979016 55.020686 L 47.671567 54.822470 L 47.362930 54.623563 L 47.053085 54.423954 L 46.742014 54.223631 L 46.429697 54.022584 L 46.116114 53.820800 L 45.801247 53.618268 L 45.485075 53.414976 L 45.167577 53.210912 L 44.848734 53.006063 L 44.528525 52.800417 L 44.206928 52.593963 L 43.883922 52.386686 L 43.559486 52.178575 L 43.233598 51.969616 L 42.906235 51.759797 L 42.577375 51.549103 L 42.246995 51.337521 L 41.915072 51.125038 L 41.581582 50.911640 L 41.246502 50.697313 L 40.909806 50.482042 L 40.571471 50.265813 L 40.231472 50.048611 L 39.889783 49.830422 L 39.546378 49.611230 L 39.201232 49.391020 L 38.854318 49.169777 L 38.505608 48.947484 L 38.155077 48.724127 L 37.802695 48.499688 L 37.448436 48.274152 L 37.092269 48.047501 L 36.734167 47.819718 L 36.374099 47.590787 L 36.012035 47.360691 L 35.647946 47.129410 L 35.281800 46.896928 L 34.913565 46.663226 L 34.543209 46.428286 L 34.170701 46.192088 L 33.796006 45.954613 L 33.419092 45.715843 L 33.039923 45.475758 L 32.658466 45.234336 L 32.274684 44.991559 L 31.888542 44.747404 L 31.500003 44.501852 L 31.109030 44.254881 L 30.715584 44.006468 L 30.319628 43.756593 L 29.921121 43.505232 L 29.520025 43.252362 L 29.116298 42.997960 L 28.709898 42.742003 L 28.300784 42.484467 L 27.888913 42.225326 L 27.474240 41.964556 L 27.056722 41.702132 L 26.636313 41.438028 L 26.212966 41.172218 L 25.786634 40.904674 L 25.357270 40.635370 L 24.924824 40.364279 L 24.489247 40.091370 L 24.050488 39.816617 L 23.608494 39.539990 L 23.163214 39.261459 L 22.714592 38.980993 L 22.262575 38.698562 L 21.807106 38.414134 L 21.348128 38.127678 L 20.885582 37.839159 L 20.419410 37.548546 L 19.949550 37.255804 L 19.503482 36.978048" fill="none" id="tattoo-path-e3aec06d3c250046" stroke="#000000" stroke-linecap="round" stroke-linejoin="round" stroke-width="1.200000"/>
  <path clip-path="url(#tattoo-band-layer-clip)" d="M 32.212388 121.970682 L 32.282618 121.958366 L 32.831509 121.859207 L 33.376661 121.757853 L 33.918113 121.654345 L 34.455900 121.548727 L 34.990060 121.441041 L 35.520629 121.331327 L 36.047642 121.219624 L 36.571135 121.105972 L 37.091143 120.990408 L 37.607701 120.872969 L 38.120844 120.753691 L 38.630606 120.632609 L 39.137021 120.509758 L 39.640124 120.385170 L 40.139947 120.258878 L 40.636523 120.130914 L 41.129887 120.001310 L 41.620069 119.870095 L 42.107103 119.737299 L 42.591021 119.602951 L 43.071853 119.467079 L 43.549632 119.329711 L 44.024389 119.190872 L 44.496154 119.050590 L 44.964957 118.908889 L 45.430830 118.765796 L 45.893801 118.621332 L 46.353901 118.475524 L 46.811158 118.328392 L 47.265602 118.179961 L 47.717261 118.030251 L 48.166164 117.879285 L 48.612338 117.727082 L 49.055812 117.573664 L 49.496613 117.419049 L 49.934769 117.263257 L 50.370306 117.106308 L 50.803251 116.948219 L 51.233630 116.789007 L 51.661470 116.628691 L 52.086796 116.467288 L 52.509634 116.304812 L 52.930010 116.141282 L 53.347947 115.976712 L 53.763472 115.811118 L 54.176608 115.644513 L 54.587379 115.476914 L 54.995811 115.308333 L 55.401925 115.138784 L 55.805747 114.968281 L 56.207298 114.796837 L 56.606603 114.624463 L 57.003683 114.451172 L 57.398562 114.276976 L 57.791260 114.101887 L 58.181801 113.925915 L 58.570206 113.749071 L 58.956497 113.571367 L 59.340694 113.392812 L 59.722818 113.213415 L 60.102892 113.033188 L 60.480934 112.852138 L 60.856965 112.670276 L 61.231006 112.487610 L 61.603076 112.304147 L 61.973196 112.119898 L 62.341383 111.934869 L 62.707658 111.749068 L 63.072039 111.562503 L 63.434546 111.375181 L 63.795197 111.187109 L 64.154010 110.998293 L 64.511003 110.808741 L 64.866195 110.618457 L 65.219603 110.427450 L 65.571244 110.235723 L 65.921136 110.043283 L 66.269297 109.850136 L 66.615742 109.656285 L 66.960490 109.461738 L 67.303556 109.266497 L 67.644957 109.070568 L 67.984709 108.873954 L 68.322827 108.676661 L 68.659329 108.478693 L 68.994230 108.280052 L 69.327544 108.080743 L 69.659288 107.880769 L 69.989476 107.680133 L 70.318124 107.478838 L 70.645246 107.276888 L 70.970856 107.074286 L 71.294971 106.871032 L 71.617602 106.667131 L 71.938766 106.462584 L 72.258475 106.257394 L 72.576743 106.051562 L 72.893585 105.845091 L 73.209013 105.637981 L 73.523041 105.430235 L 73.835682 105.221854 L 74.146949 105.012838 L 74.456855 104.803190 L 74.765413 104.592909 L 75.072635 104.381998 L 75.378534 104.170456 L 75.683122 103.958283 L 75.986410 103.745481 L 76.288412 103.532050 L 76.589139 103.317989 L 76.888602 103.103300 L 77.186814 102.887980 L 77.483785 102.672031 L 77.779527 102.455452 L 78.074051 102.238243 L 78.367368 102.020402 L 78.659490 101.801930 L 78.950426 101.582825 L 79.240187 101.363086 L 79.528785 101.142712 L 79.816228 100.921702 L 80.102529 100.700055 L 80.387695 100.477770 L 80.671739 100.254844 L 80.954669 100.031276 L 81.236496 99.807064 L 81.517228 99.582207 L 81.796876 99.356703 L 82.075449 99.130548 L 82.352956 98.903742 L 82.629407 98.676282 L 82.904810 98.448166 L 83.179174 98.219390 L 83.452508 97.989953 L 83.724821 97.759852 L 83.996122 97.529083 L 84.266418 97.297645 L 84.535719 97.065533 L 84.804032 96.832746 L 85.071366 96.599279 L 85.337729 96.365129 L 85.603128 96.130294 L 85.867572 95.894769 L 86.131068 95.658551 L 86.393624 95.421635 L 86.655247 95.184020 L 86.915945 94.945700 L 87.175725 94.706671 L 87.434594 94.466930 L 87.692559 94.226472 L 87.949628 93.985293 L 88.205807 93.743388 L 88.461102 93.500754 L 88.715521 93.257385 L 88.969071 93.013277 L 89.221757 92.768425 L 89.473586 92.522824 L 89.724564 92.276470 L 89.974698 92.029357 L 90.223993 91.781480 L 90.472456 91.532834 L 90.720092 91.283414 L 90.966908 91.033214 L 91.212908 90.782228 L 91.458098 90.530452 L 91.702485 90.277879 L 91.946073 90.024503 L 92.188867 89.770319 L 92.430873 89.515321 L 92.672096 89.259502 L 92.912541 89.002857 L 93.152212 88.745379 L 93.391115 88.487061 L 93.629254 88.227898 L 93.866634 87.967882 L 94.103260 87.707007 L 94.339135 87.445266 L 94.574264 87.182652 L 94.808652 86.919159 L 95.042302 86.654779 L 95.275218 86.389505 L 95.507404 86.123330 L 95.738865 85.856246 L 95.969604 85.588246 L 96.199624 85.319322 L 96.428929 85.049467 L 96.657522 84.778673 L 96.885407 84.506931 L 97.112587 84.234234 L 97.339066 83.960575 L 97.564845 83.685943 L 97.789928 83.410332 L 98.014318 83.133733 L 98.238018 82.856137 L 98.461030 82.577536 L 98.683356 82.297920 L 98.904999 82.017281 L 99.125962 81.735610 L 99.346246 81.452899 L 99.565854 81.169136 L 99.784787 80.884314 L 100.003048 80.598423 L 100.220638 80.311454 L 100.437559 80.023395 L 100.653812 79.734239 L 100.869399 79.443975 L 101.084321 79.152592 L 101.298579 78.860081 L 101.512174 78.566432 L 101.725108 78.271633 L 101.937381 77.975675 L 102.148994 77.678547 L 102.359947 77.380238 L 102.570241 77.080737 L 102.779876 76.780033 L 102.988853 76.478115 L 103.197172 76.174972 L 103.404832 75.870592 L 103.611834 75.564964 L 103.818177 75.258075 L 104.023860 74.949914 L 104.228884 74.640470 L 104.433248 74.329729 L 104.636950 74.017681 L 104.839991 73.704311 L 105.042368 73.389608 L 105.244080 73.073560 L 105.445127 72.756152 L 105.645506 72.437373 L 105.845217 72.117209 L 106.044256 71.795646 L 106.242623 71.472672 L 106.440315 71.148273 L 106.637329 70.822435 L 106.833664 70.495144 L 107.029317 70.166386 L 107.224285 69.836147 L 107.418565 69.504412 L 107.612154 69.171168 L 107.805049 68.836398 L 107.997245 68.500089 L 108.188741 68.162225 L 108.379532 67.822791 L 108.569613 67.481772 L 108.758981 67.139151 L 108.947632 66.794914 L 109.135560 66.449045 L 109.322761 66.101527 L 109.509231 65.752344 L 109.694963 65.401479 L 109.879953 65.048917 L 110.064196 64.694639 L 110.247684 64.338630 L 110.430413 63.980871 L 110.612376 63.621346 L 110.793566 63.260037 L 110.973977 62.896925 L 111.153603 62.531994 L 111.332435 62.165225 L 111.510467 61.796599 L 111.687690 61.426098 L 111.864098 61.053702 L 112.039681 60.679394 L 112.214432 60.303154 L 112.388341 59.924962 L 112.561400 59.544799 L 112.733600 59.162644 L 112.904930 58.778478 L 113.075382 58.392281 L 113.244945 58.004031 L 113.413609 57.613708 L 113.581362 57.221292 L 113.748195 56.826760 L 113.914095 56.430092 L 114.079050 56.031265 L 114.243050 55.630258 L 114.406082 55.227049 L 114.568132 54.821615 L 114.729188 54.413934 L 114.889236 54.003982 L 115.048263 53.591737 L 115.206255 53.177175 L 115.363196 52.760272 L 115.519072 52.341005 L 115.673868 51.919350 L 115.827568 51.495282 L 115.980155 51.068776 L 116.131614 50.639807 L 116.281926 50.208351 L 116.431075 49.774382 L 116.579043 49.337875 L 116.725810 48.898802 L 116.871359 48.457138 L 117.015670 48.012857 L 117.158723 47.565931 L 117.300498 47.116335 L 117.440973 46.664039 L 117.580128 46.209017 L 117.717940 45.751241 L 117.854386 45.290682 L 117.989444 44.827313 L 118.123090 44.361104 L 118.255300 43.892027 L 118.386048 43.420052 L 118.515310 42.945149 L 118.643058 42.467289 L 118.769267 41.986441 L 118.893909 41.502576 L 119.016955 41.015662 L 119.138377 40.525669 L 119.258144 40.032564 L 119.376228 39.536318 L 119.492597 39.036896 L 119.607219 38.534269 L 119.720061 38.028402 L 119.831090 37.519264 L 119.940272 37.006821 L 120.047571 36.491041 L 120.152953 35.971889 L 120.256380 35.449331 L 120.357814 34.923334 L 120.457218 34.393864 L 120.554551 33.860885 L 120.649773 33.324363 L 120.742842 32.784262 L 120.833717 32.240548 L 120.922353 31.693183 L 121.008707 31.142134 L 121.019384 31.071636" fill="none" id="tattoo-path-f18412ecc8273bd3" stroke="#000000" stroke-linecap="round" stroke-linejoin="round" stroke-width="1.000000"/>
  <path clip-path="url(#tattoo-band-layer-clip)" d="M 44.009192 129.585146 L 44.266851 129.135576 L 44.541940 128.655095 L 44.814704 128.178181 L 45.085181 127.704779 L 45.353411 127.234831 L 45.619430 126.768283 L 45.883277 126.305080 L 46.144987 125.845169 L 46.404595 125.388498 L 46.662137 124.935016 L 46.917646 124.484672 L 47.171155 124.037418 L 47.422697 123.593205 L 47.672305 123.151985 L 47.920009 122.713712 L 48.165841 122.278340 L 48.409830 121.845824 L 48.652006 121.416120 L 48.892398 120.989184 L 49.131035 120.564974 L 49.367944 120.143448 L 49.603153 119.724565 L 49.836689 119.308284 L 50.068578 118.894565 L 50.298846 118.483370 L 50.527518 118.074660 L 50.754620 117.668398 L 50.980175 117.264545 L 51.204209 116.863066 L 51.426744 116.463924 L 51.647803 116.067086 L 51.867410 115.672514 L 52.085587 115.280176 L 52.302355 114.890038 L 52.517737 114.502067 L 52.731753 114.116230 L 52.944425 113.732495 L 53.155773 113.350831 L 53.365816 112.971206 L 53.574576 112.593591 L 53.782070 112.217954 L 53.988320 111.844267 L 54.193342 111.472500 L 54.397156 111.102624 L 54.599780 110.734612 L 54.801232 110.368435 L 55.001529 110.004065 L 55.200689 109.641477 L 55.398728 109.280642 L 55.595665 108.921536 L 55.791514 108.564131 L 55.986292 108.208403 L 56.180016 107.854327 L 56.372700 107.501876 L 56.564361 107.151028 L 56.755013 106.801758 L 56.944673 106.454043 L 57.133353 106.107858 L 57.321070 105.763180 L 57.507837 105.419988 L 57.693669 105.078258 L 57.878579 104.737968 L 58.062581 104.399097 L 58.245689 104.061622 L 58.427915 103.725523 L 58.609274 103.390778 L 58.789777 103.057367 L 58.969439 102.725269 L 59.148270 102.394463 L 59.326285 102.064930 L 59.503494 101.736651 L 59.679910 101.409605 L 59.855545 101.083773 L 60.030411 100.759136 L 60.204518 100.435676 L 60.377879 100.113374 L 60.550505 99.792211 L 60.722407 99.472170 L 60.893595 99.153232 L 61.064081 98.835379 L 61.233875 98.518595 L 61.402988 98.202862 L 61.571431 97.888162 L 61.739213 97.574480 L 61.906344 97.261797 L 62.072835 96.950098 L 62.238695 96.639365 L 62.403935 96.329584 L 62.568564 96.020737 L 62.732591 95.712810 L 62.896026 95.405785 L 63.058878 95.099648 L 63.221156 94.794383 L 63.382870 94.489975 L 63.544028 94.186409 L 63.704640 93.883670 L 63.864713 93.581743 L 64.024258 93.280614 L 64.183281 92.980267 L 64.341793 92.680689 L 64.499801 92.381865 L 64.657313 92.083781 L 64.814338 91.786424 L 64.970884 91.489778 L 65.126958 91.193831 L 65.282570 90.898568 L 65.437726 90.603977 L 65.592435 90.310044 L 65.746705 90.016755 L 65.900542 89.724097 L 66.053954 89.432058 L 66.206950 89.140623 L 66.359536 88.849781 L 66.511720 88.559519 L 66.663509 88.269823 L 66.814910 87.980681 L 66.965930 87.692081 L 67.116577 87.404010 L 67.266858 87.116456 L 67.416779 86.829407 L 67.566348 86.542850 L 67.715570 86.256773 L 67.864454 85.971164 L 68.013006 85.686011 L 68.161232 85.401303 L 68.309139 85.117028 L 68.456734 84.833173 L 68.604023 84.549727 L 68.751012 84.266679 L 68.897709 83.984016 L 69.044119 83.701728 L 69.190249 83.419804 L 69.336105 83.138230 L 69.481693 82.856997 L 69.627020 82.576093 L 69.772091 82.295507 L 69.916914 82.015228 L 70.061493 81.735244 L 70.205834 81.455544 L 70.349945 81.176118 L 70.493831 80.896954 L 70.637497 80.618042 L 70.780950 80.339370 L 70.924196 80.060928 L 71.067240 79.782705 L 71.210088 79.504690 L 71.352746 79.226872 L 71.495219 78.949240 L 71.637514 78.671785 L 71.779636 78.394494 L 71.921591 78.117358 L 72.063384 77.840366 L 72.205021 77.563507 L 72.346507 77.286770 L 72.487848 77.010146 L 72.629050 76.733623 L 72.770118 76.457191 L 72.911058 76.180839 L 73.051874 75.904557 L 73.192574 75.628334 L 73.333161 75.352161 L 73.473641 75.076025 L 73.614020 74.799918 L 73.754303 74.523828 L 73.894496 74.247744 L 74.034604 73.971657 L 74.174631 73.695556 L 74.314585 73.419431 L 74.454469 73.143270 L 74.594289 72.867064 L 74.734051 72.590802 L 74.873760 72.314474 L 75.013420 72.038068 L 75.153038 71.761575 L 75.292619 71.484983 L 75.432167 71.208283 L 75.571688 70.931464 L 75.711188 70.654515 L 75.850671 70.377425 L 75.990143 70.100184 L 76.129610 69.822782 L 76.269075 69.545207 L 76.408546 69.267449 L 76.548026 68.989497 L 76.687521 68.711341 L 76.827036 68.432969 L 76.966577 68.154370 L 77.106149 67.875535 L 77.245757 67.596452 L 77.385406 67.317109 L 77.525102 67.037497 L 77.664850 66.757604 L 77.804655 66.477418 L 77.944523 66.196930 L 78.084458 65.916127 L 78.224466 65.634999 L 78.364553 65.353534 L 78.504724 65.071721 L 78.644984 64.789548 L 78.785338 64.507005 L 78.925792 64.224079 L 79.066351 63.940759 L 79.207021 63.657034 L 79.347808 63.372892 L 79.488715 63.088321 L 79.629750 62.803310 L 79.770917 62.517846 L 79.912222 62.231917 L 80.053670 61.945512 L 80.195268 61.658618 L 80.337020 61.371224 L 80.478932 61.083317 L 80.621010 60.794884 L 80.763259 60.505914 L 80.905686 60.216393 L 81.048295 59.926309 L 81.191092 59.635651 L 81.334084 59.344403 L 81.477276 59.052555 L 81.620674 58.760093 L 81.764283 58.467003 L 81.908110 58.173273 L 82.052160 57.878889 L 82.196440 57.583838 L 82.340955 57.288107 L 82.485711 56.991682 L 82.630715 56.694548 L 82.775972 56.396693 L 82.921489 56.098102 L 83.067272 55.798761 L 83.213327 55.498656 L 83.359660 55.197773 L 83.506277 54.896097 L 83.653185 54.593613 L 83.800391 54.290307 L 83.947901 53.986164 L 84.095720 53.681168 L 84.243857 53.375305 L 84.392316 53.068559 L 84.541106 52.760915 L 84.690233 52.452356 L 84.839703 52.142868 L 84.989523 51.832434 L 85.139700 51.521038 L 85.290241 51.208663 L 85.441153 50.895293 L 85.592444 50.580912 L 85.744119 50.265502 L 85.896187 49.949047 L 86.048655 49.631528 L 86.201529 49.312930 L 86.354818 48.993233 L 86.508528 48.672420 L 86.662668 48.350474 L 86.817244 48.027375 L 86.972265 47.703105 L 87.127738 47.377646 L 87.283671 47.050978 L 87.440072 46.723083 L 87.596949 46.393941 L 87.754310 46.063531 L 87.912164 45.731835 L 88.070517 45.398832 L 88.229379 45.064502 L 88.388759 44.728823 L 88.548664 44.391776 L 88.709103 44.053338 L 88.870085 43.713488 L 89.031619 43.372205 L 89.193714 43.029466 L 89.356378 42.685249 L 89.519621 42.339531 L 89.683452 41.992289 L 89.847881 41.643500 L 90.012916 41.293140 L 90.178567 40.941185 L 90.344844 40.587610 L 90.511757 40.232392 L 90.679316 39.875505 L 90.847530 39.516923 L 91.016410 39.156621 L 91.185966 38.794573 L 91.356209 38.430752 L 91.527148 38.065130 L 91.698796 37.697682 L 91.871162 37.328379 L 92.044257 36.957193 L 92.218094 36.584095 L 92.392682 36.209056 L 92.568033 35.832047 L 92.744160 35.453038 L 92.921073 35.071998 L 93.098784 34.688896 L 93.277306 34.303702 L 93.456651 33.916382 L 93.636831 33.526906 L 93.817859 33.135239 L 93.999747 32.741348 L 94.182509 32.345200 L 94.366157 31.946759 L 94.550706 31.545991 L 94.736167 31.142859 L 94.922556 30.737328 L 95.109886 30.329361 L 95.298170 29.918919 L 95.487425 29.505964 L 95.677663 29.090459 L 95.868900 28.672362 L 96.061151 28.251634 L 96.254430 27.828234 L 96.448755 27.402120 L 96.644139 26.973250 L 96.840599 26.541580 L 97.038152 26.107067 L 97.236813 25.669666 L 97.436600 25.229330 L 97.637530 24.786014 L 97.839619 24.339671 L 98.042885 23.890251 L 98.247347 23.437707 L 98.453022 22.981988 L 98.659928 22.523044 L 98.868085 22.060821 L 99.077512 21.595268 L 99.288227 21.126331 L 99.500251 20.653954 L 99.713604 20.178082 L 99.928305 19.698657 L 100.144376 19.215621 L 100.361838 18.728915 L 100.580713 18.238479 L 100.801021 17.744250 L 101.022786 17.246166 L 101.246030 16.744161 L 101.470776 16.238172 L 101.680903 15.764518" fill="none" id="tattoo-path-1be4c17c4777b54e" stroke="#000000" stroke-linecap="round" stroke-linejoin="round" stroke-width="0.800000"/>
  <circle cx="72.500000" cy="72.500000" fill="none" id="tattoo-boundary-da45c61d325de3be" r="64.900000" stroke="#000000" stroke-width="2.200000"/>
</svg>
