<svg height="145.000000mm" version="1.1" viewBox="0 0 145.000000 145.000000" width="145.000000mm" xmlns="http://www.w3.org/2000/svg">
  <defs>
    <clipPath clipPathUnits="userSpaceOnUse" id="tattoo-band-layer-clip">
      <circle cx="72.500000" cy="72.500000" r="63.800000"/>
    </clipPath>
  </defs>
  <path clip-path="url(#tattoo-band-layer-clip)" d="M 8.705707 73.353364 L 9.182574 73.289557 L 9.731725 73.216601 L 10.276745 73.144707 L 10.817702 73.073855 L 11.354660 73.004025 L 11.887682 72.935198 L 12.416833 72.867355 L 12.942172 72.800477 L 13.463760 72.734546 L 13.981656 72.669544 L 14.495918 72.605454 L 15.006603 72.542260 L 15.513767 72.479945 L 16.017464 72.418493 L 16.517749 72.357889 L 17.014675 72.298116 L 17.508292 72.239161 L 17.998653 72.181009 L 18.485807 72.123645 L 18.969804 72.067055 L 19.450692 72.011227 L 19.928519 71.956146 L 20.403330 71.901800 L 20.875173 71.848177 L 21.344092 71.795263 L 21.810131 71.743046 L 22.273335 71.691516 L 22.733745 71.640660 L 23.191405 71.590467 L 23.646355 71.540926 L 24.098637 71.492026 L 24.548290 71.443757 L 24.995354 71.396108 L 25.439867 71.349070 L 25.881868 71.302631 L 26.321395 71.256783 L 26.758484 71.211517 L 27.193172 71.166822 L 27.625494 71.122690 L 28.055486 71.079113 L 28.483182 71.036080 L 28.908617 70.993585 L 29.331824 70.951618 L 29.752836 70.910171 L 30.171686 70.869237 L 30.588407 70.828807 L 31.003029 70.788875 L 31.415584 70.749432 L 31.826102 70.710471 L 32.234615 70.671986 L 32.641151 70.633968 L 33.045740 70.596412 L 33.448411 70.559310 L 33.849193 70.522656 L 34.248113 70.486443 L 34.645200 70.450665 L 35.040481 70.415317 L 35.433982 70.380391 L 35.825731 70.345882 L 36.215754 70.311783 L 36.604076 70.278091 L 36.990723 70.244798 L 37.375721 70.211899 L 37.759094 70.179389 L 38.140866 70.147262 L 38.521062 70.115514 L 38.899706 70.084140 L 39.276822 70.053133 L 39.652432 70.022491 L 40.026560 69.992207 L 40.399228 69.962277 L 40.770459 69.932696 L 41.140274 69.903461 L 41.508697 69.874566 L 41.875747 69.846008 L 42.241448 69.817781 L 42.605819 69.789883 L 42.968882 69.762308 L 43.330657 69.735053 L 43.691164 69.708115 L 44.050424 69.681488 L 44.408457 69.655169 L 44.765281 69.629156 L 45.120917 69.603443 L 45.475384 69.578028 L 45.828701 69.552907 L 46.180886 69.528076 L 46.531959 69.503533 L 46.881937 69.479273 L 47.230839 69.455295 L 47.578682 69.431594 L 47.925485 69.408168 L 48.271265 69.385013 L 48.616040 69.362127 L 48.959827 69.339506 L 49.302642 69.317148 L 49.644504 69.295050 L 49.985428 69.273210 L 50.325432 69.251623 L 50.664531 69.230289 L 51.002743 69.209204 L 51.340082 69.188366 L 51.676566 69.167772 L 52.012210 69.147420 L 52.347030 69.127308 L 52.681041 69.107432 L 53.014259 69.087792 L 53.346699 69.068384 L 53.678376 69.049206 L 54.009306 69.030257 L 54.339503 69.011534 L 54.668982 68.993035 L 54.997757 68.974758 L 55.325844 68.956701 L 55.653257 68.938862 L 55.980010 68.921239 L 56.306118 68.903830 L 56.631594 68.886635 L 56.956453 68.869649 L 57.280708 68.852873 L 57.604373 68.836304 L 57.927463 68.819941 L 58.249991 68.803781 L 58.571970 68.787824 L 58.893414 68.772068 L 59.214336 68.756511 L 59.534750 68.741152 L 59.854668 68.725989 L 60.174105 68.711021 L 60.493072 68.696246 L 60.811584 68.681664 L 61.129653 68.667272 L 61.447292 68.653070 L 61.764513 68.639056 L 62.081330 68.625229 L 62.397755 68.611588 L 62.713801 68.598131 L 63.029480 68.584858 L 63.344805 68.571768 L 63.659788 68.558858 L 63.974442 68.546129 L 64.288779 68.533579 L 64.602811 68.521208 L 64.916551 68.509013 L 65.230011 68.496995 L 65.543202 68.485152 L 65.856138 68.473484 L 66.168830 68.461990 L 66.481290 68.450668 L 66.793530 68.439518 L 67.105562 68.428540 L 67.417399 68.417732 L 67.729051 68.407094 L 68.040532 68.396625 L 68.351852 68.386325 L 68.663024 68.376192 L 68.974060 68.366227 L 69.284971 68.356428 L 69.595768 68.346795 L 69.906465 68.337327 L 70.217072 68.328025 L 70.527602 68.318887 L 70.838065 68.309913 L 71.148475 68.301102 L 71.458841 68.292455 L 71.769177 68.283970 L 72.079494 68.275648 L 72.389803 68.267488 L 72.700117 68.259490 L 73.010446 68.251653 L 73.320803 68.243977 L 73.631199 68.236463 L 73.941646 68.229108 L 74.252156 68.221915 L 74.562740 68.214882 L 74.873411 68.208009 L 75.184179 68.201296 L 75.495057 68.194743 L 75.806057 68.188350 L 76.117189 68.182117 L 76.428467 68.176044 L 76.739902 68.170130 L 77.051505 68.164377 L 77.363289 68.158783 L 77.675265 68.153349 L 77.987446 68.148076 L 78.299844 68.142963 L 78.612469 68.138010 L 78.925336 68.133217 L 79.238455 68.128586 L 79.551838 68.124115 L 79.865498 68.119805 L 80.179448 68.115657 L 80.493698 68.111671 L 80.808262 68.107847 L 81.123152 68.104186 L 81.438381 68.100687 L 81.753960 68.097351 L 82.069902 68.094180 L 82.386220 68.091172 L 82.702926 68.088329 L 83.020033 68.085651 L 83.337554 68.083139 L 83.655501 68.080793 L 83.973888 68.078614 L 84.292727 68.076603 L 84.612031 68.074760 L 84.931814 68.073085 L 85.252088 68.071580 L 85.572867 68.070245 L 85.894164 68.069082 L 86.215992 68.068090 L 86.538365 68.067271 L 86.861297 68.066625 L 87.184801 68.066154 L 87.508890 68.065858 L 87.833579 68.065739 L 88.158881 68.065796 L 88.484811 68.066032 L 88.811383 68.066448 L 89.138610 68.067044 L 89.466508 68.067821 L 89.795090 68.068781 L 90.124371 68.069925 L 90.454366 68.071254 L 90.785090 68.072770 L 91.116558 68.074473 L 91.448783 68.076366 L 91.781783 68.078448 L 92.115571 68.080723 L 92.450164 68.083191 L 92.785577 68.085853 L 93.121825 68.088712 L 93.458925 68.091768 L 93.796892 68.095024 L 94.135742 68.098481 L 94.475492 68.102141 L 94.816159 68.106006 L 95.157758 68.110076 L 95.500306 68.114355 L 95.843821 68.118844 L 96.188319 68.123544 L 96.533817 68.128459 L 96.880334 68.133589 L 97.227886 68.138937 L 97.576491 68.144505 L 97.926168 68.150296 L 98.276934 68.156311 L 98.628808 68.162552 L 98.981808 68.169023 L 99.335954 68.175725 L 99.691263 68.182660 L 100.047755 68.189832 L 100.405450 68.197243 L 100.764367 68.204895 L 101.124526 68.212791 L 101.485947 68.220934 L 101.848650 68.229326 L 102.212656 68.237971 L 102.577985 68.246871 L 102.944659 68.256030 L 103.312698 68.265449 L 103.682125 68.275134 L 104.052961 68.285086 L 104.425228 68.295308 L 104.798949 68.305806 L 105.174145 68.316580 L 105.550841 68.327636 L 105.929059 68.338977 L 106.308823 68.350606 L 106.690156 68.362527 L 107.073083 68.374743 L 107.457628 68.387260 L 107.843816 68.400080 L 108.231672 68.413209 L 108.621221 68.426649 L 109.012490 68.440406 L 109.405504 68.454483 L 109.800290 68.468885 L 110.196874 68.483617 L 110.595285 68.498683 L 110.995549 68.514088 L 111.397695 68.529838 L 111.801752 68.545936 L 112.207747 68.562388 L 112.615710 68.579199 L 113.025672 68.596375 L 113.437662 68.613921 L 113.851710 68.631843 L 114.267848 68.650146 L 114.686108 68.668836 L 115.106521 68.687919 L 115.529120 68.707402 L 115.953937 68.727290 L 116.381007 68.747590 L 116.810363 68.768308 L 117.242040 68.789452 L 117.676073 68.811027 L 118.112497 68.833042 L 118.551349 68.855503 L 118.992666 68.878417 L 119.436485 68.901792 L 119.882844 68.925636 L 120.331782 68.949957 L 120.783337 68.974763 L 121.237551 69.000061 L 121.694463 69.025861 L 122.154114 69.052171 L 122.616547 69.079000 L 123.081805 69.106357 L 123.549930 69.134252 L 124.020967 69.162693 L 124.494961 69.191691 L 124.971957 69.221256 L 125.452002 69.251398 L 125.935144 69.282127 L 126.421430 69.313454 L 126.910909 69.345391 L 127.403632 69.377948 L 127.899648 69.411137 L 128.399011 69.444970 L 128.901771 69.479460 L 129.407984 69.514618 L 129.917703 69.550458 L 130.430985 69.586992 L 130.947885 69.624234 L 131.468462 69.662198 L 131.992774 69.700899 L 132.520882 69.740350 L 133.052846 69.780566 L 133.588728 69.821563 L 134.128592 69.863357 L 134.672503 69.905963 L 135.220526 69.949399 L 135.772729 69.993681 L 136.252270 70.032587" fill="none" id="tattoo-path-1d37fc41874b8658" stroke="#000000" stroke-linecap="round" stroke-linejoin="round" stroke-width="4.800000"/>
  <path clip-path="url(#tattoo-band-layer-clip)" d="M 110.409872 123.815510 L 110.399778 123.730277 L 110.332076 123.177034 L 110.262715 122.627784 L 110.191731 122.082476 L 110.119160 121.541059 L 110.045037 121.003483 L 109.969395 120.469699 L 109.892268 119.939657 L 109.813687 119.413309 L 109.733684 118.890609 L 109.652289 118.371508 L 109.569531 117.855962 L 109.485440 117.343925 L 109.400043 116.835351 L 109.313368 116.330196 L 109.225440 115.828418 L 109.136285 115.329972 L 109.045930 114.834816 L 108.954397 114.342909 L 108.861710 113.854209 L 108.767893 113.368675 L 108.672968 112.886267 L 108.576956 112.406946 L 108.479879 111.930672 L 108.381758 111.457407 L 108.282612 110.987113 L 108.182461 110.519752 L 108.081323 110.055287 L 107.979218 109.593682 L 107.876163 109.134901 L 107.772175 108.678909 L 107.667272 108.225669 L 107.561469 107.775148 L 107.454784 107.327312 L 107.347231 106.882126 L 107.238825 106.439558 L 107.129581 105.999575 L 107.019514 105.562145 L 106.908637 105.127235 L 106.796964 104.694814 L 106.684508 104.264852 L 106.571281 103.837317 L 106.457296 103.412179 L 106.342564 102.989409 L 106.227098 102.568977 L 106.110909 102.150853 L 105.994007 101.735010 L 105.876403 101.321419 L 105.758108 100.910051 L 105.639132 100.500880 L 105.519483 100.093879 L 105.399172 99.689019 L 105.278208 99.286275 L 105.156600 98.885621 L 105.034355 98.487030 L 104.911483 98.090477 L 104.787991 97.695937 L 104.663887 97.303385 L 104.539178 96.912797 L 104.413873 96.524148 L 104.287977 96.137413 L 104.161498 95.752571 L 104.034442 95.369596 L 103.906816 94.988466 L 103.778626 94.609159 L 103.649876 94.231651 L 103.520574 93.855921 L 103.390725 93.481946 L 103.260334 93.109705 L 103.129405 92.739176 L 102.997945 92.370339 L 102.865957 92.003171 L 102.733446 91.637653 L 102.600417 91.273764 L 102.466873 90.911484 L 102.332819 90.550793 L 102.198258 90.191671 L 102.063194 89.834098 L 101.927631 89.478056 L 101.791571 89.123526 L 101.655018 88.770488 L 101.517975 88.418924 L 101.380445 88.068816 L 101.242430 87.720145 L 101.103933 87.372893 L 100.964956 87.027044 L 100.825502 86.682578 L 100.685572 86.339480 L 100.545170 85.997730 L 100.404295 85.657314 L 100.262951 85.318213 L 100.121139 84.980412 L 99.978860 84.643894 L 99.836116 84.308642 L 99.692907 83.974641 L 99.549236 83.641874 L 99.405102 83.310326 L 99.260507 82.979982 L 99.115451 82.650826 L 98.969935 82.322842 L 98.823960 81.996017 L 98.677525 81.670334 L 98.530632 81.345779 L 98.383280 81.022338 L 98.235470 80.699996 L 98.087201 80.378739 L 97.938473 80.058553 L 97.789286 79.739423 L 97.639639 79.421336 L 97.489533 79.104278 L 97.338966 78.788236 L 97.187938 78.473196 L 97.036449 78.159145 L 96.884496 77.846069 L 96.732080 77.533956 L 96.579200 77.222793 L 96.425854 76.912566 L 96.272040 76.603264 L 96.117759 76.294874 L 95.963007 75.987383 L 95.807785 75.680778 L 95.652089 75.375049 L 95.495919 75.070182 L 95.339273 74.766166 L 95.182149 74.462989 L 95.024545 74.160639 L 94.866459 73.859105 L 94.707889 73.558374 L 94.548832 73.258437 L 94.389287 72.959280 L 94.229251 72.660893 L 94.068722 72.363265 L 93.907697 72.066386 L 93.746173 71.770243 L 93.584148 71.474826 L 93.421619 71.180124 L 93.258583 70.886128 L 93.095038 70.592825 L 92.930980 70.300206 L 92.766406 70.008261 L 92.601312 69.716978 L 92.435697 69.426348 L 92.269556 69.136361 L 92.102886 68.847007 L 91.935683 68.558275 L 91.767944 68.270156 L 91.599666 67.982640 L 91.430844 67.695717 L 91.261474 67.409378 L 91.091554 67.123613 L 90.921078 66.838413 L 90.750042 66.553768 L 90.578443 66.269668 L 90.406277 65.986105 L 90.233538 65.703069 L 90.060223 65.420552 L 89.886328 65.138543 L 89.711846 64.857035 L 89.536775 64.576017 L 89.361109 64.295482 L 89.184843 64.015421 L 89.007973 63.735823 L 88.830493 63.456682 L 88.652399 63.177988 L 88.473685 62.899733 L 88.294347 62.621909 L 88.114378 62.344506 L 87.933773 62.067516 L 87.752527 61.790931 L 87.570635 61.514744 L 87.388090 61.238944 L 87.204888 60.963526 L 87.021021 60.688479 L 86.836485 60.413796 L 86.651272 60.139470 L 86.465378 59.865492 L 86.278795 59.591854 L 86.091518 59.318549 L 85.903541 59.045568 L 85.714855 58.772904 L 85.525456 58.500549 L 85.335336 58.228495 L 85.144489 57.956735 L 84.952908 57.685261 L 84.760585 57.414066 L 84.567515 57.143143 L 84.373688 56.872483 L 84.179099 56.602079 L 83.983740 56.331924 L 83.787604 56.062011 L 83.590682 55.792332 L 83.392967 55.522880 L 83.194452 55.253648 L 82.995129 54.984629 L 82.794988 54.715815 L 82.594023 54.447200 L 82.392226 54.178776 L 82.189587 53.910537 L 81.986098 53.642476 L 81.781751 53.374585 L 81.576537 53.106858 L 81.370448 52.839287 L 81.163473 52.571867 L 80.955605 52.304590 L 80.746834 52.037450 L 80.537151 51.770439 L 80.326546 51.503552 L 80.115010 51.236781 L 79.902533 50.970120 L 79.689105 50.703563 L 79.474717 50.437102 L 79.259357 50.170732 L 79.043017 49.904445 L 78.825686 49.638236 L 78.607352 49.372098 L 78.388007 49.106025 L 78.167637 48.840011 L 77.946234 48.574048 L 77.723785 48.308131 L 77.500280 48.042254 L 77.275707 47.776411 L 77.050055 47.510595 L 76.823311 47.244800 L 76.595464 46.979020 L 76.366502 46.713249 L 76.136414 46.447482 L 75.905185 46.181711 L 75.672804 45.915932 L 75.439259 45.650138 L 75.204536 45.384323 L 74.968623 45.118482 L 74.731505 44.852609 L 74.493170 44.586697 L 74.253605 44.320742 L 74.012795 44.054738 L 73.770726 43.788678 L 73.527384 43.522558 L 73.282755 43.256372 L 73.036825 42.990113 L 72.789578 42.723778 L 72.541000 42.457360 L 72.291076 42.190853 L 72.039789 41.924254 L 71.787125 41.657555 L 71.533068 41.390752 L 71.277601 41.123840 L 71.020708 40.856813 L 70.762374 40.589667 L 70.502581 40.322395 L 70.241311 40.054994 L 69.978549 39.787458 L 69.714277 39.519782 L 69.448476 39.251962 L 69.181129 38.983991 L 68.912217 38.715867 L 68.641723 38.447583 L 68.369628 38.179135 L 68.095911 37.910519 L 67.820555 37.641729 L 67.543540 37.372762 L 67.264845 37.103613 L 66.984451 36.834278 L 66.702337 36.564751 L 66.418483 36.295030 L 66.132866 36.025109 L 65.845467 35.754985 L 65.556264 35.484653 L 65.265233 35.214110 L 64.972354 34.943351 L 64.677603 34.672373 L 64.380958 34.401173 L 64.082395 34.129745 L 63.781890 33.858088 L 63.479420 33.586197 L 63.174960 33.314068 L 62.868485 33.041700 L 62.559970 32.769088 L 62.249390 32.496229 L 61.936719 32.223120 L 61.621930 31.949759 L 61.304997 31.676142 L 60.985893 31.402267 L 60.664589 31.128132 L 60.341059 30.853733 L 60.015274 30.579070 L 59.687205 30.304138 L 59.356822 30.028937 L 59.024096 29.753464 L 58.688997 29.477718 L 58.351495 29.201698 L 58.011557 28.925400 L 57.669152 28.648825 L 57.324249 28.371971 L 56.976814 28.094837 L 56.626815 27.817422 L 56.274217 27.539726 L 55.918987 27.261748 L 55.561090 26.983488 L 55.200490 26.704945 L 54.837151 26.426121 L 54.471038 26.147015 L 54.102113 25.867627 L 53.730337 25.587960 L 53.355674 25.308013 L 52.978084 25.027787 L 52.597528 24.747285 L 52.213965 24.466509 L 51.827355 24.185459 L 51.437655 23.904139 L 51.044825 23.622551 L 50.648821 23.340697 L 50.249599 23.058582 L 49.847115 22.776208 L 49.441324 22.493580 L 49.032181 22.210702 L 48.619638 21.927577 L 48.203648 21.644212 L 47.784164 21.360610 L 47.361136 21.076779 L 46.934514 20.792723 L 46.504248 20.508450 L 46.070287 20.223966 L 45.632577 19.939279 L 45.191066 19.654396 L 44.745700 19.369325 L 44.296423 19.084076 L 43.843180 18.798657 L 43.385914 18.513079 L 42.924566 18.227351 L 42.459077 17.941486 L 41.989388 17.655493 L 41.515438 17.369385 L 41.037165 17.083176 L 40.963345 17.039389" fill="none" id="tattoo-path-70573224da6a3f59" stroke="#000000" stroke-linecap="round" stroke-linejoin="round" stroke-width="4.200000"/>
  <path clip-path="url(#tattoo-band-layer-clip)" d="M 75.708877 136.219252 L 75.470316 136.094663 L 74.977746 135.833166 L 74.488881 135.569404 L 74.003702 135.303416 L 73.522193 135.035242 L 73.044335 134.764922 L 72.570110 134.492494 L 72.099499 134.217996 L 71.632485 133.941463 L 71.169049 133.662934 L 70.709172 133.382442 L 70.252837 133.100024 L 69.800024 132.815713 L 69.350716 132.529543 L 68.904892 132.241548 L 68.462536 131.951759 L 68.023628 131.660208 L 67.588150 131.366927 L 67.156083 131.071946 L 66.727408 130.775295 L 66.302107 130.477004 L 65.880162 130.177101 L 65.461553 129.875615 L 65.046263 129.572574 L 64.634272 129.268005 L 64.225563 128.961934 L 63.820116 128.654388 L 63.417915 128.345393 L 63.018940 128.034974 L 62.623172 127.723154 L 62.230595 127.409960 L 61.841190 127.095414 L 61.454939 126.779539 L 61.071824 126.462359 L 60.691827 126.143895 L 60.314931 125.824170 L 59.941117 125.503204 L 59.570369 125.181020 L 59.202668 124.857637 L 58.837997 124.533076 L 58.476340 124.207356 L 58.117678 123.880496 L 57.761995 123.552516 L 57.409274 123.223434 L 57.059499 122.893268 L 56.712651 122.562036 L 56.368715 122.229755 L 56.027674 121.896442 L 55.689511 121.562115 L 55.354211 121.226788 L 55.021758 120.890478 L 54.692135 120.553201 L 54.365326 120.214971 L 54.041316 119.875804 L 53.720088 119.535715 L 53.401629 119.194717 L 53.085921 118.852824 L 52.772951 118.510050 L 52.462702 118.166409 L 52.155160 117.821913 L 51.850310 117.476575 L 51.548138 117.130407 L 51.248628 116.783422 L 50.951767 116.435631 L 50.657540 116.087046 L 50.365934 115.737679 L 50.076933 115.387539 L 49.790524 115.036639 L 49.506694 114.684988 L 49.225430 114.332598 L 48.946716 113.979476 L 48.670542 113.625635 L 48.396892 113.271082 L 48.125755 112.915828 L 47.857118 112.559881 L 47.590967 112.203251 L 47.327291 111.845945 L 47.066077 111.487973 L 46.807312 111.129341 L 46.550986 110.770059 L 46.297085 110.410135 L 46.045599 110.049574 L 45.796515 109.688386 L 45.549822 109.326576 L 45.305509 108.964152 L 45.063565 108.601121 L 44.823978 108.237490 L 44.586739 107.873264 L 44.351835 107.508449 L 44.119257 107.143053 L 43.888994 106.777080 L 43.661035 106.410536 L 43.435372 106.043427 L 43.211994 105.675759 L 42.990891 105.307535 L 42.772053 104.938762 L 42.555471 104.569444 L 42.341136 104.199586 L 42.129039 103.829192 L 41.919170 103.458267 L 41.711521 103.086815 L 41.506082 102.714840 L 41.302846 102.342346 L 41.101804 101.969337 L 40.902948 101.595816 L 40.706269 101.221788 L 40.511759 100.847256 L 40.319412 100.472222 L 40.129219 100.096691 L 39.941172 99.720664 L 39.755264 99.344146 L 39.571489 98.967138 L 39.389839 98.589645 L 39.210307 98.211667 L 39.032886 97.833208 L 38.857570 97.454270 L 38.684352 97.074855 L 38.513226 96.694966 L 38.344187 96.314604 L 38.177227 95.933771 L 38.012341 95.552470 L 37.849524 95.170702 L 37.688770 94.788468 L 37.530073 94.405771 L 37.373428 94.022611 L 37.218830 93.638991 L 37.066275 93.254911 L 36.915757 92.870372 L 36.767271 92.485376 L 36.620814 92.099924 L 36.476381 91.714017 L 36.333968 91.327655 L 36.193571 90.940840 L 36.055185 90.553571 L 35.918808 90.165851 L 35.784435 89.777679 L 35.652063 89.389056 L 35.521689 88.999982 L 35.393310 88.610458 L 35.266923 88.220484 L 35.142525 87.830060 L 35.020113 87.439187 L 34.899684 87.047865 L 34.781237 86.656093 L 34.664770 86.263872 L 34.550279 85.871202 L 34.437764 85.478082 L 34.327222 85.084513 L 34.218652 84.690494 L 34.112052 84.296025 L 34.007421 83.901105 L 33.904759 83.505736 L 33.804063 83.109915 L 33.705334 82.713643 L 33.608570 82.316919 L 33.513771 81.919742 L 33.420936 81.522113 L 33.330066 81.124030 L 33.241160 80.725493 L 33.154219 80.326501 L 33.069242 79.927054 L 32.986230 79.527150 L 32.905184 79.126790 L 32.826104 78.725972 L 32.748991 78.324696 L 32.673847 77.922960 L 32.600672 77.520764 L 32.529468 77.118106 L 32.460236 76.714987 L 32.392978 76.311405 L 32.327696 75.907359 L 32.264392 75.502849 L 32.203067 75.097872 L 32.143726 74.692429 L 32.086368 74.286518 L 32.030999 73.880139 L 31.977619 73.473289 L 31.926233 73.065969 L 31.876843 72.658177 L 31.829453 72.249913 L 31.784066 71.841174 L 31.740685 71.431961 L 31.699316 71.022271 L 31.659960 70.612105 L 31.622624 70.201460 L 31.587311 69.790336 L 31.554025 69.378733 L 31.522771 68.966648 L 31.493554 68.554081 L 31.466379 68.141031 L 31.441252 67.727496 L 31.418177 67.313477 L 31.397160 66.898972 L 31.378207 66.483979 L 31.361323 66.068499 L 31.346515 65.652530 L 31.333790 65.236071 L 31.323152 64.819122 L 31.314610 64.401681 L 31.308169 63.983748 L 31.303837 63.565322 L 31.301621 63.146403 L 31.301528 62.726989 L 31.303565 62.307080 L 31.307741 61.886675 L 31.314064 61.465775 L 31.322541 61.044377 L 31.333180 60.622482 L 31.345991 60.200089 L 31.360981 59.777199 L 31.378161 59.353809 L 31.397537 58.929921 L 31.419121 58.505534 L 31.442921 58.080648 L 31.468947 57.655262 L 31.497209 57.229377 L 31.527717 56.802992 L 31.560481 56.376108 L 31.595511 55.948725 L 31.632819 55.520843 L 31.672415 55.092461 L 31.714310 54.663582 L 31.758515 54.234204 L 31.805042 53.804330 L 31.853903 53.373958 L 31.905109 52.943090 L 31.958672 52.511726 L 32.014606 52.079868 L 32.072921 51.647517 L 32.133632 51.214673 L 32.196752 50.781338 L 32.262292 50.347512 L 32.330267 49.913199 L 32.400691 49.478397 L 32.473577 49.043111 L 32.548939 48.607340 L 32.626792 48.171088 L 32.707150 47.734356 L 32.790028 47.297146 L 32.875441 46.859460 L 32.963404 46.421301 L 33.053933 45.982671 L 33.147043 45.543574 L 33.242751 45.104011 L 33.341072 44.663985 L 33.442023 44.223501 L 33.545621 43.782561 L 33.651882 43.341168 L 33.760824 42.899326 L 33.872464 42.457040 L 33.986819 42.014312 L 34.103908 41.571148 L 34.223749 41.127551 L 34.346360 40.683525 L 34.471760 40.239077 L 34.599967 39.794210 L 34.731001 39.348930 L 34.864881 38.903242 L 35.001627 38.457151 L 35.141259 38.010664 L 35.283796 37.563786 L 35.429260 37.116524 L 35.577671 36.668884 L 35.729049 36.220872 L 35.883417 35.772497 L 36.040796 35.323764 L 36.201207 34.874682 L 36.364672 34.425259 L 36.531214 33.975501 L 36.700856 33.525418 L 36.873619 33.075019 L 37.049528 32.624311 L 37.228605 32.173305 L 37.410874 31.722009 L 37.596360 31.270434 L 37.785085 30.818590 L 37.977075 30.366487 L 38.172355 29.914136 L 38.370949 29.461549 L 38.572883 29.008736 L 38.778181 28.555709 L 38.986871 28.102482 L 39.198978 27.649066 L 39.414529 27.195474 L 39.633549 26.741720 L 39.856067 26.287817 L 40.082109 25.833781 L 40.311702 25.379624 L 40.544875 24.925364 L 40.781656 24.471014 L 41.022072 24.016591 L 41.266152 23.562111 L 41.513925 23.107592 L 41.765421 22.653050 L 42.020668 22.198503 L 42.279696 21.743970 L 42.542536 21.289470 L 42.809216 20.835021 L 43.079768 20.380644 L 43.354222 19.926359 L 43.632610 19.472188 L 43.914961 19.018151 L 44.201309 18.564271 L 44.491684 18.110570 L 44.786118 17.657072 L 45.084644 17.203801 L 45.387293 16.750781 L 45.694100 16.298038 L 46.005095 15.845597 L 46.320313 15.393484 L 46.639787 14.941728 L 46.963551 14.490355 L 47.291637 14.039395 L 47.451438 13.822836" fill="none" id="tattoo-path-e44c152076b9a5d5" stroke="#000000" stroke-linecap="round" stroke-linejoin="round" stroke-width="3.600000"/>
  <path clip-path="url(#tattoo-band-layer-clip)" d="M 30.828486 120.810712 L 30.893352 120.382754 L 30.978835 119.834219 L 31.066015 119.289623 L 31.154854 118.748917 L 31.245316 118.212054 L 31.337366 117.678986 L 31.430969 117.149666 L 31.526092 116.624048 L 31.622703 116.102086 L 31.720769 115.583735 L 31.820260 115.068951 L 31.921146 114.557690 L 32.023397 114.049908 L 32.126985 113.545563 L 32.231882 113.044612 L 32.338062 112.547015 L 32.445499 112.052729 L 32.554166 111.561715 L 32.664039 111.073931 L 32.775094 110.589340 L 32.887307 110.107900 L 33.000657 109.629575 L 33.115119 109.154327 L 33.230673 108.682116 L 33.347299 108.212907 L 33.464974 107.746664 L 33.583680 107.283349 L 33.703398 106.822928 L 33.824107 106.365364 L 33.945791 105.910625 L 34.068431 105.458674 L 34.192011 105.009480 L 34.316512 104.563007 L 34.441920 104.119224 L 34.568218 103.678097 L 34.695390 103.239595 L 34.823423 102.803687 L 34.952300 102.370340 L 35.082009 101.939524 L 35.212535 101.511208 L 35.343864 101.085363 L 35.475985 100.661959 L 35.608885 100.240966 L 35.742551 99.822355 L 35.876971 99.406099 L 36.012134 98.992168 L 36.148029 98.580535 L 36.284645 98.171173 L 36.421971 97.764054 L 36.559998 97.359152 L 36.698716 96.956439 L 36.838114 96.555891 L 36.978184 96.157481 L 37.118916 95.761183 L 37.260303 95.366973 L 37.402335 94.974825 L 37.545004 94.584716 L 37.688303 94.196620 L 37.832225 93.810515 L 37.976760 93.426376 L 38.121904 93.044179 L 38.267648 92.663903 L 38.413986 92.285524 L 38.560912 91.909020 L 38.708419 91.534368 L 38.856502 91.161546 L 39.005154 90.790533 L 39.154372 90.421308 L 39.304148 90.053849 L 39.454478 89.688135 L 39.605357 89.324146 L 39.756780 88.961861 L 39.908743 88.601260 L 40.061242 88.242323 L 40.214272 87.885031 L 40.367830 87.529363 L 40.521911 87.175301 L 40.676512 86.822826 L 40.831631 86.471919 L 40.987262 86.122562 L 41.143404 85.774735 L 41.300053 85.428422 L 41.457207 85.083603 L 41.614863 84.740262 L 41.773018 84.398380 L 41.931671 84.057941 L 42.090819 83.718927 L 42.250459 83.381321 L 42.410591 83.045108 L 42.571213 82.710269 L 42.732322 82.376789 L 42.893918 82.044652 L 43.055998 81.713841 L 43.218563 81.384342 L 43.381610 81.056137 L 43.545140 80.729212 L 43.709150 80.403552 L 43.873641 80.079141 L 44.038611 79.755964 L 44.204061 79.434007 L 44.369990 79.113255 L 44.536398 78.793694 L 44.703284 78.475308 L 44.870649 78.158085 L 45.038493 77.842009 L 45.206816 77.527068 L 45.375619 77.213247 L 45.544901 76.900533 L 45.714664 76.588913 L 45.884907 76.278373 L 46.055633 75.968899 L 46.226842 75.660480 L 46.398534 75.353102 L 46.570711 75.046752 L 46.743374 74.741419 L 46.916524 74.437088 L 47.090163 74.133749 L 47.264291 73.831388 L 47.438912 73.529994 L 47.614025 73.229555 L 47.789634 72.930059 L 47.965740 72.631494 L 48.142344 72.333848 L 48.319449 72.037111 L 48.497057 71.741270 L 48.675171 71.446315 L 48.853791 71.152233 L 49.032922 70.859016 L 49.212565 70.566650 L 49.392722 70.275126 L 49.573398 69.984432 L 49.754593 69.694559 L 49.936312 69.405495 L 50.118556 69.117230 L 50.301330 68.829755 L 50.484636 68.543057 L 50.668476 68.257129 L 50.852856 67.971958 L 51.037777 67.687537 L 51.223243 67.403854 L 51.409259 67.120900 L 51.595826 66.838665 L 51.782950 66.557140 L 51.970633 66.276316 L 52.158880 65.996182 L 52.347695 65.716730 L 52.537081 65.437950 L 52.727043 65.159833 L 52.917585 64.882371 L 53.108711 64.605554 L 53.300426 64.329373 L 53.492733 64.053820 L 53.685638 63.778886 L 53.879145 63.504561 L 54.073258 63.230839 L 54.267983 62.957710 L 54.463325 62.685165 L 54.659288 62.413197 L 54.855877 62.141796 L 55.053098 61.870956 L 55.250955 61.600668 L 55.449454 61.330923 L 55.648601 61.061714 L 55.848400 60.793033 L 56.048858 60.524872 L 56.249980 60.257223 L 56.451771 59.990079 L 56.654238 59.723432 L 56.857387 59.457274 L 57.061223 59.191598 L 57.265753 58.926397 L 57.470982 58.661662 L 57.676917 58.397388 L 57.883565 58.133566 L 58.090931 57.870189 L 58.299023 57.607250 L 58.507847 57.344743 L 58.717410 57.082660 L 58.927718 56.820994 L 59.138779 56.559738 L 59.350600 56.298886 L 59.563187 56.038431 L 59.776549 55.778366 L 59.990691 55.518685 L 60.205623 55.259380 L 60.421351 55.000446 L 60.637882 54.741876 L 60.855226 54.483664 L 61.073389 54.225802 L 61.292379 53.968286 L 61.512205 53.711108 L 61.732875 53.454263 L 61.954397 53.197744 L 62.176779 52.941546 L 62.400031 52.685662 L 62.624159 52.430086 L 62.849175 52.174813 L 63.075085 51.919836 L 63.301900 51.665151 L 63.529627 51.410750 L 63.758278 51.156629 L 63.987860 50.902782 L 64.218383 50.649204 L 64.449857 50.395888 L 64.682292 50.142829 L 64.915697 49.890022 L 65.150082 49.637462 L 65.385457 49.385144 L 65.621834 49.133061 L 65.859221 48.881209 L 66.097630 48.629583 L 66.337070 48.378178 L 66.577554 48.126989 L 66.819091 47.876010 L 67.061694 47.625238 L 67.305372 47.374666 L 67.550137 47.124291 L 67.796002 46.874107 L 68.042977 46.624110 L 68.291074 46.374296 L 68.540305 46.124659 L 68.790683 45.875195 L 69.042219 45.625901 L 69.294926 45.376771 L 69.548817 45.127801 L 69.803904 44.878987 L 70.060200 44.630325 L 70.317718 44.381810 L 70.576473 44.133439 L 70.836476 43.885208 L 71.097741 43.637112 L 71.360283 43.389149 L 71.624116 43.141313 L 71.889252 42.893602 L 72.155708 42.646011 L 72.423497 42.398538 L 72.692634 42.151178 L 72.963134 41.903929 L 73.235013 41.656786 L 73.508284 41.409747 L 73.782965 41.162808 L 74.059070 40.915966 L 74.336616 40.669218 L 74.615619 40.422562 L 74.896095 40.175994 L 75.178061 39.929511 L 75.461533 39.683111 L 75.746529 39.436792 L 76.033066 39.190549 L 76.321162 38.944382 L 76.610833 38.698287 L 76.902099 38.452263 L 77.194977 38.206307 L 77.489486 37.960418 L 77.785645 37.714592 L 78.083472 37.468829 L 78.382987 37.223126 L 78.684210 36.977482 L 78.987160 36.731895 L 79.291857 36.486364 L 79.598321 36.240887 L 79.906574 35.995463 L 80.216637 35.750092 L 80.528529 35.504771 L 80.842274 35.259501 L 81.157892 35.014280 L 81.475406 34.769108 L 81.794838 34.523985 L 82.116211 34.278909 L 82.439548 34.033881 L 82.764873 33.788901 L 83.092209 33.543969 L 83.421579 33.299084 L 83.753010 33.054248 L 84.086525 32.809461 L 84.422149 32.564724 L 84.759908 32.320038 L 85.099828 32.075403 L 85.441935 31.830821 L 85.786255 31.586293 L 86.132816 31.341821 L 86.481644 31.097406 L 86.832769 30.853051 L 87.186216 30.608758 L 87.542016 30.364530 L 87.900198 30.120368 L 88.260790 29.876275 L 88.623822 29.632255 L 88.989325 29.388311 L 89.357330 29.144447 L 89.727867 28.900665 L 90.100968 28.656971 L 90.476666 28.413368 L 90.854993 28.169861 L 91.235982 27.926455 L 91.619666 27.683155 L 92.006080 27.439966 L 92.395258 27.196893 L 92.787236 26.953944 L 93.182048 26.711124 L 93.579731 26.468439 L 93.980322 26.225897 L 94.383858 25.983505 L 94.790376 25.741270 L 95.199916 25.499201 L 95.612515 25.257306 L 96.028214 25.015593 L 96.447053 24.774072 L 96.869073 24.532753 L 97.294314 24.291645 L 97.722819 24.050759 L 98.154631 23.810105 L 98.589792 23.569695 L 99.028348 23.329541 L 99.470342 23.089656 L 99.915819 22.850050 L 100.364827 22.610739 L 100.817411 22.371736 L 101.273619 22.133055 L 101.733499 21.894712 L 102.197100 21.656721 L 102.664473 21.419099 L 103.135666 21.181863 L 103.610733 20.945030 L 104.089724 20.708617 L 104.572692 20.472645 L 105.059692 20.237132 L 105.550777 20.002099 L 106.046003 19.767566 L 106.545427 19.533555 L 107.049105 19.300088 L 107.442569 19.119696" fill="none" id="tattoo-path-481b67e1a6152908" stroke="#000000" stroke-linecap="round" stroke-linejoin="round" stroke-width="3.100000"/>
  <path clip-path="url(#tattoo-band-layer-clip)" d="M 15.554285 101.268482 L 15.978013 101.384340 L 16.514798 101.528086 L 17.049246 101.668220 L 17.581369 101.804797 L 18.111179 101.937871 L 18.638691 102.067493 L 19.163916 102.193715 L 19.686868 102.316587 L 20.207560 102.436159 L 20.726007 102.552479 L 21.242222 102.665594 L 21.756218 102.775553 L 22.268010 102.882399 L 22.777613 102.986179 L 23.285040 103.086936 L 23.790305 103.184713 L 24.293424 103.279554 L 24.794411 103.371499 L 25.293281 103.460590 L 25.790048 103.546867 L 26.284728 103.630369 L 26.777334 103.711134 L 27.267883 103.789201 L 27.756390 103.864607 L 28.242868 103.937388 L 28.727334 104.007579 L 29.209802 104.075217 L 29.690288 104.140335 L 30.168807 104.202968 L 30.645374 104.263148 L 31.120004 104.320907 L 31.592712 104.376278 L 32.063514 104.429292 L 32.532424 104.479980 L 32.999458 104.528371 L 33.464631 104.574496 L 33.927958 104.618383 L 34.389455 104.660060 L 34.849136 104.699555 L 35.307016 104.736896 L 35.763110 104.772110 L 36.217434 104.805222 L 36.670002 104.836258 L 37.120829 104.865244 L 37.569930 104.892205 L 38.017320 104.917164 L 38.463014 104.940146 L 38.907026 104.961173 L 39.349372 104.980269 L 39.790064 104.997457 L 40.229120 105.012757 L 40.666552 105.026192 L 41.102375 105.037784 L 41.536603 105.047551 L 41.969252 105.055515 L 42.400335 105.061697 L 42.829866 105.066114 L 43.257859 105.068787 L 43.684330 105.069734 L 44.109290 105.068973 L 44.532756 105.066523 L 44.954739 105.062401 L 45.375255 105.056624 L 45.794317 105.049210 L 46.211938 105.040174 L 46.628133 105.029533 L 47.042914 105.017303 L 47.456295 105.003500 L 47.868290 104.988138 L 48.278911 104.971233 L 48.688172 104.952799 L 49.096087 104.932850 L 49.502667 104.911401 L 49.907927 104.888465 L 50.311879 104.864055 L 50.714535 104.838185 L 51.115909 104.810868 L 51.516014 104.782115 L 51.914861 104.751940 L 52.312464 104.720354 L 52.708834 104.687368 L 53.103985 104.652995 L 53.497929 104.617246 L 53.890677 104.580131 L 54.282242 104.541661 L 54.672637 104.501846 L 55.061872 104.460698 L 55.449960 104.418225 L 55.836913 104.374437 L 56.222742 104.329344 L 56.607460 104.282956 L 56.991077 104.235280 L 57.373606 104.186326 L 57.755058 104.136103 L 58.135444 104.084618 L 58.514775 104.031881 L 58.893064 103.977898 L 59.270320 103.922677 L 59.646555 103.866227 L 60.021781 103.808554 L 60.396007 103.749665 L 60.769246 103.689567 L 61.141507 103.628267 L 61.512801 103.565772 L 61.883140 103.502087 L 62.252534 103.437219 L 62.620993 103.371174 L 62.988527 103.303957 L 63.355148 103.235575 L 63.720865 103.166031 L 64.085688 103.095332 L 64.449629 103.023483 L 64.812697 102.950488 L 65.174901 102.876352 L 65.536252 102.801080 L 65.896761 102.724676 L 66.256436 102.647143 L 66.615287 102.568487 L 66.973325 102.488710 L 67.330559 102.407817 L 67.686998 102.325811 L 68.042652 102.242695 L 68.397530 102.158472 L 68.751642 102.073146 L 69.104997 101.986720 L 69.457605 101.899195 L 69.809474 101.810575 L 70.160614 101.720862 L 70.511033 101.630058 L 70.860742 101.538166 L 71.209748 101.445186 L 71.558060 101.351122 L 71.905689 101.255975 L 72.252641 101.159746 L 72.598926 101.062436 L 72.944553 100.964048 L 73.289530 100.864581 L 73.633866 100.764037 L 73.977569 100.662417 L 74.320648 100.559721 L 74.663111 100.455949 L 75.004966 100.351103 L 75.346221 100.245183 L 75.686886 100.138188 L 76.026967 100.030118 L 76.366473 99.920974 L 76.705412 99.810755 L 77.043792 99.699460 L 77.381621 99.587089 L 77.718907 99.473642 L 78.055657 99.359117 L 78.391880 99.243513 L 78.727583 99.126830 L 79.062773 99.009066 L 79.397459 98.890219 L 79.731647 98.770289 L 80.065345 98.649273 L 80.398562 98.527170 L 80.731303 98.403978 L 81.063577 98.279695 L 81.395391 98.154319 L 81.726751 98.027847 L 82.057666 97.900277 L 82.388142 97.771606 L 82.718186 97.641832 L 83.047805 97.510952 L 83.377007 97.378962 L 83.705798 97.245861 L 84.034185 97.111644 L 84.362175 96.976309 L 84.689775 96.839851 L 85.016991 96.702267 L 85.343830 96.563554 L 85.670298 96.423708 L 85.996403 96.282724 L 86.322151 96.140598 L 86.647548 95.997327 L 86.972600 95.852905 L 87.297315 95.707329 L 87.621698 95.560593 L 87.945755 95.412692 L 88.269493 95.263623 L 88.592918 95.113379 L 88.916036 94.961955 L 89.238853 94.809347 L 89.561375 94.655548 L 89.883608 94.500553 L 90.205558 94.344356 L 90.527230 94.186952 L 90.848632 94.028334 L 91.169767 93.868496 L 91.490643 93.707431 L 91.811264 93.545134 L 92.131636 93.381597 L 92.451765 93.216814 L 92.771656 93.050778 L 93.091315 92.883481 L 93.410747 92.714918 L 93.729957 92.545079 L 94.048951 92.373959 L 94.367733 92.201548 L 94.686309 92.027840 L 95.004684 91.852826 L 95.322863 91.676498 L 95.640852 91.498848 L 95.958654 91.319868 L 96.276274 91.139548 L 96.593718 90.957881 L 96.910991 90.774857 L 97.228096 90.590467 L 97.545039 90.404703 L 97.861823 90.217553 L 98.178455 90.029010 L 98.494937 89.839063 L 98.811274 89.647703 L 99.127471 89.454919 L 99.443532 89.260701 L 99.759461 89.065038 L 100.075261 88.867921 L 100.390938 88.669338 L 100.706494 88.469278 L 101.021934 88.267731 L 101.337262 88.064685 L 101.652481 87.860128 L 101.967595 87.654049 L 102.282608 87.446436 L 102.597522 87.237277 L 102.912342 87.026559 L 103.227071 86.814271 L 103.541711 86.600399 L 103.856266 86.384931 L 104.170740 86.167854 L 104.485135 85.949154 L 104.799454 85.728818 L 105.113699 85.506833 L 105.427874 85.283184 L 105.741981 85.057858 L 106.056023 84.830839 L 106.370002 84.602115 L 106.683920 84.371669 L 106.997780 84.139488 L 107.311584 83.905555 L 107.625333 83.669856 L 107.939031 83.432374 L 108.252677 83.193095 L 108.566275 82.952001 L 108.879825 82.709078 L 109.193329 82.464307 L 109.506789 82.217672 L 109.820205 81.969157 L 110.133579 81.718743 L 110.446912 81.466414 L 110.760204 81.212151 L 111.073457 80.955937 L 111.386670 80.697753 L 111.699844 80.437580 L 112.012979 80.175400 L 112.326076 79.911194 L 112.639134 79.644941 L 112.952153 79.376624 L 113.265133 79.106220 L 113.578074 78.833711 L 113.890974 78.559076 L 114.203832 78.282293 L 114.516649 78.003342 L 114.829422 77.722201 L 115.142150 77.438849 L 115.454831 77.153264 L 115.767465 76.865422 L 116.080048 76.575303 L 116.392579 76.282881 L 116.705055 75.988135 L 117.017473 75.691041 L 117.329832 75.391574 L 117.642127 75.089710 L 117.954356 74.785425 L 118.266515 74.478694 L 118.578600 74.169491 L 118.890608 73.857791 L 119.202533 73.543568 L 119.514373 73.226795 L 119.826121 72.907445 L 120.137773 72.585492 L 120.449323 72.260908 L 120.760767 71.933664 L 121.072098 71.603733 L 121.383309 71.271087 L 121.694395 70.935695 L 122.005349 70.597529 L 122.316163 70.256558 L 122.626830 69.912753 L 122.937342 69.566083 L 123.247691 69.216516 L 123.557868 68.864021 L 123.867865 68.508567 L 124.177673 68.150120 L 124.487281 67.788648 L 124.796680 67.424118 L 125.105858 67.056496 L 125.414806 66.685748 L 125.723512 66.311839 L 126.031964 65.934734 L 126.340149 65.554397 L 126.648056 65.170794 L 126.955671 64.783886 L 127.262980 64.393637 L 127.569968 64.000010 L 127.876623 63.602967 L 128.182927 63.202468 L 128.488866 62.798476 L 128.794422 62.390951 L 129.099580 61.979852 L 129.404321 61.565139 L 129.708628 61.146771 L 130.012481 60.724707 L 130.315861 60.298905 L 130.618748 59.869320 L 130.921121 59.435912 L 131.222960 58.998635 L 131.524241 58.557446 L 131.824941 58.112299 L 132.125038 57.663149 L 132.424506 57.209951 L 132.723321 56.752657 L 133.021456 56.291221 L 133.318885 55.825594 L 133.615579 55.355729 L 133.848164 54.983073" fill="none" id="tattoo-path-d0792ff5fd746654" stroke="#000000" stroke-linecap="round" stroke-linejoin="round" stroke-width="2.500000"/>
  <path clip-path="url(#tattoo-band-layer-clip)" d="M 72.605652 136.299913 L 72.619421 136.296887 L 73.164807 136.172665 L 73.708306 136.044489 L 74.249899 135.912386 L 74.789567 135.776382 L 75.327290 135.636505 L 75.863050 135.492780 L 76.396829 135.345234 L 76.928608 135.193894 L 77.458369 135.038786 L 77.986096 134.879935 L 78.511770 134.717369 L 79.035375 134.551112 L 79.556894 134.381191 L 80.076311 134.207632 L 80.593609 134.030460 L 81.108774 133.849700 L 81.621789 133.665378 L 82.132639 133.477520 L 82.641309 133.286149 L 83.147784 133.091292 L 83.652050 132.892973 L 84.154093 132.691217 L 84.653898 132.486049 L 85.151451 132.277493 L 85.646740 132.065573 L 86.139750 131.850314 L 86.630468 131.631740 L 87.118883 131.409874 L 87.604980 131.184742 L 88.088747 130.956366 L 88.570172 130.724770 L 89.049244 130.489977 L 89.525949 130.252012 L 90.000277 130.010896 L 90.472216 129.766654 L 90.941754 129.519309 L 91.408880 129.268882 L 91.873584 129.015397 L 92.335854 128.758876 L 92.795680 128.499342 L 93.253052 128.236817 L 93.707958 127.971323 L 94.160390 127.702882 L 94.610336 127.431517 L 95.057788 127.157248 L 95.502735 126.880098 L 95.945167 126.600087 L 96.385076 126.317238 L 96.822452 126.031572 L 97.257286 125.743110 L 97.689568 125.451872 L 98.119290 125.157879 L 98.546444 124.861153 L 98.971020 124.561714 L 99.393009 124.259582 L 99.812404 123.954778 L 100.229196 123.647321 L 100.643377 123.337233 L 101.054938 123.024533 L 101.463872 122.709240 L 101.870170 122.391375 L 102.273826 122.070956 L 102.674830 121.748005 L 103.073176 121.422539 L 103.468855 121.094578 L 103.861861 120.764142 L 104.252185 120.431248 L 104.639821 120.095917 L 105.024761 119.758167 L 105.406998 119.418016 L 105.786525 119.075483 L 106.163335 118.730587 L 106.537420 118.383345 L 106.908774 118.033776 L 107.277389 117.681898 L 107.643260 117.327730 L 108.006378 116.971288 L 108.366738 116.612590 L 108.724333 116.251655 L 109.079156 115.888500 L 109.431200 115.523143 L 109.780459 115.155599 L 110.126926 114.785888 L 110.470595 114.414026 L 110.811459 114.040030 L 111.149512 113.663917 L 111.484748 113.285705 L 111.817159 112.905408 L 112.146740 112.523046 L 112.473485 112.138633 L 112.797386 111.752188 L 113.118438 111.363725 L 113.436635 110.973261 L 113.751969 110.580814 L 114.064436 110.186398 L 114.374028 109.790030 L 114.680739 109.391726 L 114.984563 108.991502 L 115.285495 108.589373 L 115.583526 108.185356 L 115.878653 107.779467 L 116.170867 107.371721 L 116.460164 106.962133 L 116.746536 106.550719 L 117.029977 106.137495 L 117.310482 105.722476 L 117.588044 105.305677 L 117.862657 104.887114 L 118.134314 104.466801 L 118.403009 104.044754 L 118.668735 103.620989 L 118.931488 103.195520 L 119.191259 102.768361 L 119.448044 102.339529 L 119.701835 101.909038 L 119.952625 101.476903 L 120.200410 101.043138 L 120.445181 100.607759 L 120.686934 100.170780 L 120.925660 99.732216 L 121.161354 99.292082 L 121.394009 98.850392 L 121.623619 98.407160 L 121.850177 97.962402 L 122.073676 97.516132 L 122.294109 97.068365 L 122.511470 96.619114 L 122.725753 96.168395 L 122.936950 95.716222 L 123.145054 95.262609 L 123.350059 94.807571 L 123.551957 94.351122 L 123.750743 93.893277 L 123.946408 93.434050 L 124.138946 92.973455 L 124.328349 92.511506 L 124.514611 92.048219 L 124.697725 91.583607 L 124.877683 91.117685 L 125.054477 90.650467 L 125.228102 90.181968 L 125.398548 89.712202 L 125.565810 89.241183 L 125.729879 88.768926 L 125.890748 88.295445 L 126.048410 87.820755 L 126.202856 87.344870 L 126.354080 86.867804 L 126.502073 86.389573 L 126.646828 85.910190 L 126.788337 85.429671 L 126.926593 84.948029 L 127.061586 84.465279 L 127.193310 83.981437 L 127.321756 83.496516 L 127.446917 83.010532 L 127.568783 82.523499 L 127.687348 82.035432 L 127.802602 81.546346 L 127.914538 81.056256 L 128.023146 80.565177 L 128.128420 80.073123 L 128.230350 79.580111 L 128.328928 79.086154 L 128.424145 78.591269 L 128.515993 78.095470 L 128.604463 77.598773 L 128.689546 77.101193 L 128.771234 76.602746 L 128.849517 76.103447 L 128.924387 75.603312 L 128.995835 75.102356 L 129.063853 74.600596 L 129.128430 74.098047 L 129.189557 73.594725 L 129.247227 73.090646 L 129.301429 72.585826 L 129.352154 72.080282 L 129.399393 71.574029 L 129.443136 71.067085 L 129.483375 70.559465 L 129.520100 70.051187 L 129.553300 69.542267 L 129.582968 69.032722 L 129.609092 68.522569 L 129.631664 68.011824 L 129.650674 67.500506 L 129.666111 66.988631 L 129.677967 66.476217 L 129.686231 65.963282 L 129.690893 65.449842 L 129.691945 64.935917 L 129.689374 64.421523 L 129.683173 63.906680 L 129.673330 63.391404 L 129.659835 62.875716 L 129.642679 62.359632 L 129.621852 61.843173 L 129.597342 61.326356 L 129.569140 60.809201 L 129.537236 60.291726 L 129.501620 59.773952 L 129.462280 59.255897 L 129.419207 58.737581 L 129.372390 58.219025 L 129.321820 57.700247 L 129.267485 57.181268 L 129.209375 56.662109 L 129.147480 56.142790 L 129.081789 55.623332 L 129.012293 55.103755 L 128.938979 54.584081 L 128.861838 54.064331 L 128.780860 53.544526 L 128.696033 53.024688 L 128.607348 52.504839 L 128.514793 51.985000 L 128.418359 51.465196 L 128.318034 50.945446 L 128.213808 50.425776 L 128.105672 49.906206 L 127.993613 49.386761 L 127.877622 48.867464 L 127.757689 48.348338 L 127.633802 47.829408 L 127.505951 47.310696 L 127.374127 46.792229 L 127.238318 46.274029 L 127.098514 45.756122 L 126.954705 45.238533 L 126.806881 44.721287 L 126.655031 44.204410 L 126.499146 43.687926 L 126.339214 43.171864 L 126.175226 42.656247 L 126.007172 42.141104 L 125.835042 41.626461 L 125.658825 41.112345 L 125.478513 40.598782 L 125.294095 40.085802 L 125.105561 39.573431 L 124.912902 39.061699 L 124.716109 38.550632 L 124.515171 38.040260 L 124.310079 37.530613 L 124.100824 37.021718 L 123.887397 36.513606 L 123.669789 36.006307 L 123.447990 35.499851 L 123.221992 34.994268 L 122.991786 34.489589 L 122.757363 33.985845 L 122.518714 33.483067 L 122.275832 32.981288 L 122.028708 32.480538 L 121.777334 31.980851 L 121.770902 31.968306" fill="none" id="tattoo-path-df0114c5f71b1532" stroke="#000000" stroke-linecap="round" stroke-linejoin="round" stroke-width="2.200000"/>
  <path clip-path="url(#tattoo-band-layer-clip)" d="M 120.784452 114.201939 L 120.458153 114.025053 L 119.970764 113.759784 L 119.487486 113.495710 L 119.008250 113.232818 L 118.532991 112.971094 L 118.061643 112.710526 L 117.594144 112.451101 L 117.130431 112.192804 L 116.670443 111.935623 L 116.214121 111.679546 L 115.761406 111.424559 L 115.312240 111.170650 L 114.866567 110.917806 L 114.424331 110.666014 L 113.985479 110.415263 L 113.549958 110.165538 L 113.117714 109.916829 L 112.688698 109.669123 L 112.262857 109.422408 L 111.840144 109.176671 L 111.420510 108.931901 L 111.003907 108.688086 L 110.590289 108.445214 L 110.179609 108.203273 L 109.771823 107.962252 L 109.366887 107.722139 L 108.964757 107.482923 L 108.565390 107.244592 L 108.168746 107.007135 L 107.774781 106.770541 L 107.383457 106.534799 L 106.994733 106.299897 L 106.608571 106.065825 L 106.224931 105.832572 L 105.843777 105.600127 L 105.465071 105.368480 L 105.088778 105.137619 L 104.714860 104.907534 L 104.343283 104.678216 L 103.974012 104.449652 L 103.607014 104.221834 L 103.242254 103.994751 L 102.879700 103.768393 L 102.519320 103.542749 L 102.161081 103.317810 L 101.804952 103.093566 L 101.450902 102.870007 L 101.098902 102.647124 L 100.748921 102.424906 L 100.400929 102.203344 L 100.054898 101.982428 L 99.710800 101.762150 L 99.368605 101.542499 L 99.028288 101.323466 L 98.689819 101.105043 L 98.353174 100.887219 L 98.018324 100.669986 L 97.685245 100.453334 L 97.353911 100.237256 L 97.024296 100.021740 L 96.696376 99.806780 L 96.370127 99.592366 L 96.045523 99.378489 L 95.722542 99.165141 L 95.401160 98.952312 L 95.081354 98.739995 L 94.763101 98.528181 L 94.446378 98.316861 L 94.131165 98.106028 L 93.817438 97.895672 L 93.505177 97.685785 L 93.194360 97.476359 L 92.884966 97.267387 L 92.576975 97.058859 L 92.270367 96.850767 L 91.965121 96.643105 L 91.661217 96.435863 L 91.358636 96.229034 L 91.057359 96.022609 L 90.757367 95.816582 L 90.458641 95.610943 L 90.161163 95.405686 L 89.864913 95.200802 L 89.569875 94.996285 L 89.276030 94.792125 L 88.983360 94.588317 L 88.691849 94.384851 L 88.401479 94.181721 L 88.112234 93.978919 L 87.824096 93.776438 L 87.537049 93.574269 L 87.251076 93.372407 L 86.966162 93.170843 L 86.682291 92.969570 L 86.399446 92.768581 L 86.117612 92.567868 L 85.836774 92.367425 L 85.556917 92.167244 L 85.278025 91.967317 L 85.000084 91.767639 L 84.723079 91.568201 L 84.446995 91.368997 L 84.171818 91.170019 L 83.897533 90.971261 L 83.624128 90.772715 L 83.351587 90.574374 L 83.079897 90.376232 L 82.809044 90.178282 L 82.539015 89.980516 L 82.269796 89.782928 L 82.001375 89.585510 L 81.733737 89.388256 L 81.466871 89.191160 L 81.200763 88.994213 L 80.935401 88.797410 L 80.670771 88.600743 L 80.406862 88.404206 L 80.143662 88.207792 L 79.881157 88.011493 L 79.619336 87.815304 L 79.358187 87.619218 L 79.097698 87.423227 L 78.837857 87.227326 L 78.578652 87.031507 L 78.320072 86.835763 L 78.062106 86.640088 L 77.804741 86.444475 L 77.547968 86.248918 L 77.291773 86.053409 L 77.036147 85.857943 L 76.781079 85.662511 L 76.526557 85.467108 L 76.272570 85.271727 L 76.019108 85.076361 L 75.766160 84.881004 L 75.513716 84.685648 L 75.261764 84.490287 L 75.010295 84.294914 L 74.759299 84.099523 L 74.508764 83.904107 L 74.258680 83.708658 L 74.009038 83.513171 L 73.759827 83.317639 L 73.511038 83.122054 L 73.262660 82.926411 L 73.014683 82.730701 L 72.767097 82.534919 L 72.519894 82.339058 L 72.273062 82.143110 L 72.026593 81.947069 L 71.780476 81.750929 L 71.534703 81.554681 L 71.289263 81.358320 L 71.044147 81.161838 L 70.799347 80.965229 L 70.554851 80.768486 L 70.310651 80.571600 L 70.066739 80.374567 L 69.823103 80.177378 L 69.579736 79.980026 L 69.336629 79.782505 L 69.093771 79.584808 L 68.851154 79.386926 L 68.608769 79.188854 L 68.366607 78.990584 L 68.124659 78.792108 L 67.882916 78.593420 L 67.641368 78.394512 L 67.400009 78.195377 L 67.158827 77.996008 L 66.917815 77.796397 L 66.676963 77.596537 L 66.436263 77.396420 L 66.195707 77.196039 L 65.955284 76.995387 L 65.714988 76.794455 L 65.474808 76.593237 L 65.234737 76.391724 L 64.994765 76.189909 L 64.754884 75.987784 L 64.515086 75.785342 L 64.275361 75.582574 L 64.035701 75.379474 L 63.796098 75.176031 L 63.556543 74.972240 L 63.317027 74.768092 L 63.077542 74.563578 L 62.838079 74.358691 L 62.598629 74.153422 L 62.359185 73.947763 L 62.119737 73.741706 L 61.880277 73.535242 L 61.640797 73.328364 L 61.401287 73.121062 L 61.161740 72.913328 L 60.922147 72.705153 L 60.682498 72.496529 L 60.442786 72.287447 L 60.203002 72.077898 L 59.963138 71.867873 L 59.723185 71.657363 L 59.483133 71.446360 L 59.242975 71.234853 L 59.002703 71.022834 L 58.762306 70.810294 L 58.521778 70.597222 L 58.281108 70.383611 L 58.040289 70.169449 L 57.799311 69.954728 L 57.558166 69.739438 L 57.316845 69.523568 L 57.075340 69.307110 L 56.833641 69.090053 L 56.591740 68.872386 L 56.349627 68.654101 L 56.107295 68.435186 L 55.864734 68.215631 L 55.621935 67.995426 L 55.378889 67.774560 L 55.135587 67.553022 L 54.892021 67.330801 L 54.648180 67.107887 L 54.404057 66.884269 L 54.159642 66.659935 L 53.914925 66.434873 L 53.669898 66.209074 L 53.424551 65.982524 L 53.178875 65.755213 L 52.932860 65.527129 L 52.686498 65.298259 L 52.439778 65.068592 L 52.192692 64.838115 L 51.945229 64.606817 L 51.697381 64.374684 L 51.449137 64.141704 L 51.200488 63.907864 L 50.951424 63.673151 L 50.701936 63.437553 L 50.452013 63.201055 L 50.201645 62.963645 L 49.950823 62.725309 L 49.699537 62.486034 L 49.447775 62.245804 L 49.195530 62.004607 L 48.942789 61.762428 L 48.689543 61.519252 L 48.435781 61.275065 L 48.181493 61.029852 L 47.926668 60.783598 L 47.671297 60.536288 L 47.415367 60.287907 L 47.158869 60.038438 L 46.901791 59.787867 L 46.644123 59.536176 L 46.385853 59.283350 L 46.126971 59.029373 L 45.867466 58.774227 L 45.607325 58.517895 L 45.346539 58.260362 L 45.085094 58.001608 L 44.822981 57.741616 L 44.560186 57.480370 L 44.296700 57.217849 L 44.032508 56.954037 L 43.767601 56.688914 L 43.501965 56.422461 L 43.235589 56.154659 L 42.968459 55.885489 L 42.700565 55.614931 L 42.431894 55.342965 L 42.162432 55.069569 L 41.892167 54.794725 L 41.621087 54.518410 L 41.349178 54.240604 L 41.076428 53.961284 L 40.802823 53.680429 L 40.528349 53.398016 L 40.252994 53.114023 L 39.976744 52.828427 L 39.699585 52.541203 L 39.421503 52.252330 L 39.142485 51.961782 L 38.862515 51.669534 L 38.581581 51.375563 L 38.299667 51.079842 L 38.016758 50.782346 L 37.732841 50.483048 L 37.447900 50.181923 L 37.161920 49.878943 L 36.874887 49.574080 L 36.586784 49.267307 L 36.297595 48.958595 L 36.007307 48.647916 L 35.715902 48.335240 L 35.423364 48.020537 L 35.129677 47.703776 L 34.834826 47.384928 L 34.538792 47.063959 L 34.241560 46.740840 L 33.943112 46.415535 L 33.643432 46.088014 L 33.342501 45.758242 L 33.040303 45.426184 L 32.736819 45.091805 L 32.432032 44.755071 L 32.125924 44.415945 L 31.818475 44.074390 L 31.509667 43.730368 L 31.199483 43.383842 L 30.887901 43.034771 L 30.574904 42.683118 L 30.260471 42.328840 L 29.944583 41.971898 L 29.627220 41.612249 L 29.308361 41.249850 L 28.987987 40.884657 L 28.666076 40.516628 L 28.342607 40.145715 L 28.017559 39.771873 L 27.690911 39.395055 L 27.362641 39.015214 L 27.032726 38.632299 L 26.701144 38.246262 L 26.367873 37.857051 L 26.032890 37.464614 L 25.696172 37.068900 L 25.357694 36.669853 L 25.017434 36.267418 L 24.675367 35.861540 L 24.331469 35.452160 L 23.985716 35.039222 L 23.638081 34.622664 L 23.288540 34.202425 L 22.937067 33.778444 L 22.583637 33.350657 L 22.347715 33.064125" fill="none" id="tattoo-path-c1621ca5a3ff4b67" stroke="#000000" stroke-linecap="round" stroke-linejoin="round" stroke-width="1.900000"/>
  <path clip-path="url(#tattoo-band-layer-clip)" d="M 75.014812 136.250417 L 74.939960 136.035523 L 74.758247 135.509984 L 74.579059 134.987924 L 74.402351 134.469296 L 74.228076 133.954049 L 74.056191 133.442135 L 73.886653 132.933508 L 73.719420 132.428120 L 73.554450 131.925926 L 73.391703 131.426879 L 73.231141 130.930937 L 73.072724 130.438054 L 72.916415 129.948187 L 72.762178 129.461295 L 72.609976 128.977334 L 72.459776 128.496265 L 72.311541 128.018046 L 72.165240 127.542636 L 72.020838 127.069998 L 71.878305 126.600091 L 71.737608 126.132878 L 71.598718 125.668320 L 71.461604 125.206382 L 71.326236 124.747025 L 71.192587 124.290214 L 71.060628 123.835913 L 70.930332 123.384088 L 70.801672 122.934704 L 70.674621 122.487726 L 70.549153 122.043122 L 70.425245 121.600857 L 70.302870 121.160900 L 70.182005 120.723218 L 70.062626 120.287780 L 69.944710 119.854553 L 69.828234 119.423508 L 69.713176 118.994614 L 69.599515 118.567841 L 69.487229 118.143159 L 69.376297 117.720540 L 69.266699 117.299953 L 69.158414 116.881372 L 69.051424 116.464767 L 68.945709 116.050111 L 68.841250 115.637377 L 68.738029 115.226538 L 68.636028 114.817567 L 68.535228 114.410438 L 68.435614 114.005125 L 68.337167 113.601603 L 68.239871 113.199846 L 68.143709 112.799829 L 68.048667 112.401527 L 67.954727 112.004917 L 67.861876 111.609975 L 67.770096 111.216675 L 67.679375 110.824996 L 67.589697 110.434914 L 67.501048 110.046406 L 67.413414 109.659449 L 67.326781 109.274021 L 67.241137 108.890101 L 67.156468 108.507665 L 67.072760 108.126694 L 66.990003 107.747165 L 66.908182 107.369057 L 66.827286 106.992350 L 66.747304 106.617023 L 66.668222 106.243055 L 66.590031 105.870427 L 66.512718 105.499119 L 66.436273 105.129110 L 66.360684 104.760383 L 66.285942 104.392916 L 66.212035 104.026691 L 66.138954 103.661690 L 66.066689 103.297894 L 65.995229 102.935284 L 65.924565 102.573842 L 65.854687 102.213550 L 65.785587 101.854390 L 65.717256 101.496345 L 65.649683 101.139396 L 65.582861 100.783527 L 65.516781 100.428721 L 65.451434 100.074959 L 65.386812 99.722227 L 65.322908 99.370506 L 65.259712 99.019780 L 65.197218 98.670033 L 65.135417 98.321249 L 65.074302 97.973412 L 65.013866 97.626505 L 64.954102 97.280514 L 64.895002 96.935421 L 64.836559 96.591213 L 64.778767 96.247873 L 64.721618 95.905386 L 64.665107 95.563737 L 64.609227 95.222911 L 64.553971 94.882893 L 64.499333 94.543669 L 64.445308 94.205224 L 64.391888 93.867543 L 64.339070 93.530612 L 64.286845 93.194417 L 64.235210 92.858943 L 64.184159 92.524177 L 64.133685 92.190104 L 64.083784 91.856711 L 64.034451 91.523984 L 63.985681 91.191909 L 63.937468 90.860473 L 63.889807 90.529661 L 63.842695 90.199462 L 63.796125 89.869861 L 63.750094 89.540845 L 63.704598 89.212402 L 63.659631 88.884517 L 63.615189 88.557179 L 63.571269 88.230374 L 63.527865 87.904089 L 63.484975 87.578312 L 63.442593 87.253030 L 63.400717 86.928231 L 63.359341 86.603901 L 63.318464 86.280029 L 63.278081 85.956602 L 63.238188 85.633607 L 63.198782 85.311033 L 63.159860 84.988867 L 63.121418 84.667098 L 63.083453 84.345712 L 63.045962 84.024698 L 63.008942 83.704044 L 62.972390 83.383738 L 62.936303 83.063768 L 62.900678 82.744122 L 62.865513 82.424789 L 62.830804 82.105756 L 62.796549 81.787012 L 62.762746 81.468545 L 62.729392 81.150344 L 62.696484 80.832397 L 62.664021 80.514692 L 62.631999 80.197219 L 62.600417 79.879964 L 62.569273 79.562917 L 62.538564 79.246067 L 62.508289 78.929402 L 62.478445 78.612910 L 62.449031 78.296581 L 62.420045 77.980402 L 62.391485 77.664363 L 62.363349 77.348452 L 62.335636 77.032658 L 62.308344 76.716969 L 62.281472 76.401375 L 62.255018 76.085864 L 62.228980 75.770425 L 62.203359 75.455047 L 62.178152 75.139718 L 62.153357 74.824427 L 62.128975 74.509163 L 62.105004 74.193914 L 62.081442 73.878671 L 62.058289 73.563420 L 62.035545 73.248152 L 62.013207 72.932854 L 61.991276 72.617517 L 61.969751 72.302127 L 61.948631 71.986675 L 61.927915 71.671149 L 61.907603 71.355538 L 61.887695 71.039830 L 61.868189 70.724014 L 61.849087 70.408079 L 61.830386 70.092014 L 61.812088 69.775806 L 61.794192 69.459446 L 61.776698 69.142922 L 61.759605 68.826221 L 61.742915 68.509333 L 61.726626 68.192247 L 61.710739 67.874950 L 61.695255 67.557432 L 61.680173 67.239681 L 61.665493 66.921684 L 61.651217 66.603432 L 61.637344 66.284911 L 61.623876 65.966111 L 61.610812 65.647019 L 61.598153 65.327624 L 61.585900 65.007915 L 61.574054 64.687878 L 61.562615 64.367503 L 61.551585 64.046777 L 61.540963 63.725689 L 61.530753 63.404227 L 61.520953 63.082377 L 61.511566 62.760129 L 61.502592 62.437470 L 61.494034 62.114387 L 61.485891 61.790869 L 61.478167 61.466903 L 61.470861 61.142477 L 61.463976 60.817578 L 61.457513 60.492194 L 61.451475 60.166311 L 61.445862 59.839917 L 61.440676 59.513000 L 61.435920 59.185547 L 61.431595 58.857544 L 61.427704 58.528979 L 61.424248 58.199838 L 61.421230 57.870109 L 61.418652 57.539777 L 61.416516 57.208831 L 61.414825 56.877255 L 61.413581 56.545038 L 61.412787 56.212164 L 61.412446 55.878621 L 61.412559 55.544394 L 61.413131 55.209470 L 61.414164 54.873834 L 61.415661 54.537473 L 61.417625 54.200371 L 61.420059 53.862516 L 61.422967 53.523892 L 61.426352 53.184485 L 61.430217 52.844280 L 61.434566 52.503261 L 61.439403 52.161416 L 61.444731 51.818727 L 61.450554 51.475180 L 61.456877 51.130760 L 61.463702 50.785451 L 61.471035 50.439238 L 61.478879 50.092104 L 61.487240 49.744034 L 61.496120 49.395013 L 61.505526 49.045022 L 61.515461 48.694048 L 61.525931 48.342072 L 61.536940 47.989078 L 61.548493 47.635049 L 61.560596 47.279969 L 61.573254 46.923821 L 61.586472 46.566586 L 61.600256 46.208248 L 61.614611 45.848788 L 61.629544 45.488189 L 61.645060 45.126434 L 61.661165 44.763503 L 61.677865 44.399378 L 61.695168 44.034041 L 61.713079 43.667472 L 61.731604 43.299654 L 61.750752 42.930566 L 61.770528 42.560189 L 61.790940 42.188504 L 61.811995 41.815490 L 61.833701 41.441128 L 61.856064 41.065397 L 61.879094 40.688277 L 61.902798 40.309746 L 61.927183 39.929784 L 61.952259 39.548370 L 61.978033 39.165482 L 62.004515 38.781098 L 62.031713 38.395196 L 62.059636 38.007754 L 62.088294 37.618749 L 62.117696 37.228158 L 62.147852 36.835958 L 62.178772 36.442126 L 62.210465 36.046638 L 62.242943 35.649470 L 62.276215 35.250598 L 62.310293 34.849996 L 62.345187 34.447640 L 62.380909 34.043505 L 62.417471 33.637565 L 62.454883 33.229794 L 62.493159 32.820165 L 62.532311 32.408653 L 62.572351 31.995229 L 62.613292 31.579867 L 62.655147 31.162540 L 62.697930 30.743217 L 62.741654 30.321872 L 62.786334 29.898476 L 62.831984 29.472998 L 62.878619 29.045410 L 62.926254 28.615681 L 62.974904 28.183781 L 63.024585 27.749678 L 63.075313 27.313342 L 63.127105 26.874740 L 63.179977 26.433840 L 63.233946 25.990609 L 63.289031 25.545014 L 63.345250 25.097021 L 63.402620 24.646596 L 63.461161 24.193705 L 63.520892 23.738311 L 63.581833 23.280379 L 63.644004 22.819873 L 63.707425 22.356756 L 63.772119 21.890990 L 63.838106 21.422537 L 63.905409 20.951360 L 63.974050 20.477417 L 64.044054 20.000671 L 64.115443 19.521080 L 64.188241 19.038603 L 64.262475 18.553198 L 64.338169 18.064824 L 64.415350 17.573437 L 64.494045 17.078993 L 64.574280 16.581449 L 64.656084 16.080758 L 64.739486 15.576876 L 64.824516 15.069755 L 64.911203 14.559349 L 64.999579 14.045608 L 65.089675 13.528485 L 65.181523 13.007929 L 65.275158 12.483891 L 65.370614 11.956318 L 65.467924 11.425159 L 65.567126 10.890359 L 65.668257 10.351867 L 65.771353 9.809626 L 65.876453 9.263580 L 65.919973 9.040223" fill="none" id="tattoo-path-7d76221e368a9bf2" stroke="#000000" stroke-linecap="round" stroke-linejoin="round" stroke-width="1.600000"/>
  <path clip-path="url(#tattoo-band-layer-clip)" d="M 136.169757 76.574566 L 135.903129 76.261983 L 135.539862 75.840923 L 135.176213 75.424155 L 134.812208 75.011633 L 134.447871 74.603310 L 134.083225 74.199141 L 133.718292 73.799079 L 133.353094 73.403080 L 132.987652 73.011098 L 132.621986 72.623091 L 132.256117 72.239015 L 131.890062 71.858826 L 131.523841 71.482483 L 131.157470 71.109944 L 130.790967 70.741167 L 130.424348 70.376112 L 130.057629 70.014738 L 129.690826 69.657005 L 129.323952 69.302875 L 128.957022 68.952309 L 128.590050 68.605268 L 128.223048 68.261714 L 127.856029 67.921611 L 127.489006 67.584921 L 127.121989 67.251609 L 126.754990 66.921638 L 126.388020 66.594973 L 126.021089 66.271579 L 125.654207 65.951422 L 125.287383 65.634468 L 124.920625 65.320683 L 124.553943 65.010034 L 124.187346 64.702488 L 123.820839 64.398014 L 123.454432 64.096579 L 123.088131 63.798153 L 122.721943 63.502703 L 122.355875 63.210201 L 121.989931 62.920615 L 121.624120 62.633916 L 121.258444 62.350075 L 120.892911 62.069063 L 120.527524 61.790851 L 120.162288 61.515412 L 119.797208 61.242717 L 119.432287 60.972740 L 119.067530 60.705453 L 118.702939 60.440830 L 118.338519 60.178845 L 117.974271 59.919472 L 117.610199 59.662685 L 117.246305 59.408460 L 116.882592 59.156771 L 116.519061 58.907595 L 116.155715 58.660907 L 115.792554 58.416684 L 115.429582 58.174902 L 115.066797 57.935539 L 114.704203 57.698571 L 114.341799 57.463976 L 113.979586 57.231732 L 113.617566 57.001818 L 113.255737 56.774212 L 112.894100 56.548893 L 112.532656 56.325840 L 112.171403 56.105033 L 111.810343 55.886452 L 111.449473 55.670076 L 111.088794 55.455886 L 110.728305 55.243864 L 110.368004 55.033989 L 110.007891 54.826243 L 109.647965 54.620608 L 109.288224 54.417066 L 108.928666 54.215598 L 108.569291 54.016188 L 108.210096 53.818817 L 107.851079 53.623469 L 107.492239 53.430127 L 107.133574 53.238774 L 106.775081 53.049394 L 106.416758 52.861971 L 106.058603 52.676490 L 105.700613 52.492934 L 105.342786 52.311289 L 104.985119 52.131539 L 104.627609 51.953669 L 104.270253 51.777666 L 103.913049 51.603514 L 103.555993 51.431200 L 103.199082 51.260709 L 102.842313 51.092029 L 102.485683 50.925145 L 102.129188 50.760045 L 101.772825 50.596715 L 101.416590 50.435143 L 101.060480 50.275316 L 100.704491 50.117222 L 100.348619 49.960849 L 99.992860 49.806184 L 99.637211 49.653217 L 99.281668 49.501936 L 98.926226 49.352328 L 98.570882 49.204385 L 98.215631 49.058094 L 97.860469 48.913444 L 97.505392 48.770426 L 97.150395 48.629029 L 96.795475 48.489243 L 96.440626 48.351058 L 96.085844 48.214465 L 95.731125 48.079453 L 95.376465 47.946013 L 95.021857 47.814137 L 94.667298 47.683816 L 94.312783 47.555040 L 93.958308 47.427801 L 93.603866 47.302090 L 93.249454 47.177900 L 92.895067 47.055222 L 92.540699 46.934048 L 92.186345 46.814371 L 91.832001 46.696183 L 91.477661 46.579477 L 91.123320 46.464245 L 90.768973 46.350480 L 90.414614 46.238176 L 90.060239 46.127326 L 89.705842 46.017924 L 89.351418 45.909962 L 88.996961 45.803435 L 88.642467 45.698336 L 88.287928 45.594660 L 87.933341 45.492402 L 87.578698 45.391554 L 87.223996 45.292113 L 86.869228 45.194073 L 86.514389 45.097428 L 86.159472 45.002174 L 85.804473 44.908306 L 85.449385 44.815819 L 85.094203 44.724709 L 84.738920 44.634972 L 84.383532 44.546603 L 84.028032 44.459599 L 83.672414 44.373955 L 83.316673 44.289667 L 82.960802 44.206733 L 82.604795 44.125149 L 82.248647 44.044911 L 81.892352 43.966017 L 81.535902 43.888463 L 81.179293 43.812247 L 80.822518 43.737366 L 80.465571 43.663818 L 80.108446 43.591599 L 79.751136 43.520708 L 79.393635 43.451144 L 79.035938 43.382903 L 78.678037 43.315984 L 78.319926 43.250386 L 77.961600 43.186106 L 77.603052 43.123145 L 77.244274 43.061500 L 76.885262 43.001170 L 76.526008 42.942155 L 76.166506 42.884454 L 75.806749 42.828066 L 75.446732 42.772991 L 75.086447 42.719228 L 74.725887 42.666778 L 74.365047 42.615639 L 74.003920 42.565814 L 73.642498 42.517301 L 73.280776 42.470101 L 72.918747 42.424215 L 72.556403 42.379644 L 72.193739 42.336388 L 71.830747 42.294448 L 71.467420 42.253826 L 71.103752 42.214523 L 70.739737 42.176541 L 70.375366 42.139880 L 70.010634 42.104544 L 69.645533 42.070533 L 69.280057 42.037851 L 68.914198 42.006499 L 68.547949 41.976479 L 68.181304 41.947795 L 67.814256 41.920448 L 67.446797 41.894443 L 67.078921 41.869782 L 66.710620 41.846468 L 66.341887 41.824504 L 65.972716 41.803894 L 65.603098 41.784643 L 65.233028 41.766753 L 64.862497 41.750228 L 64.491499 41.735074 L 64.120026 41.721294 L 63.748071 41.708892 L 63.375627 41.697874 L 63.002687 41.688245 L 62.629243 41.680009 L 62.255288 41.673171 L 61.880814 41.667738 L 61.505815 41.663714 L 61.130283 41.661106 L 60.754211 41.659919 L 60.377591 41.660160 L 60.000415 41.661834 L 59.622677 41.664948 L 59.244369 41.669510 L 58.865484 41.675525 L 58.486013 41.683000 L 58.105950 41.691944 L 57.725288 41.702364 L 57.344017 41.714266 L 56.962132 41.727659 L 56.579625 41.742552 L 56.196487 41.758951 L 55.812712 41.776866 L 55.428291 41.796305 L 55.043218 41.817277 L 54.657485 41.839792 L 54.271083 41.863857 L 53.884007 41.889484 L 53.496247 41.916681 L 53.107796 41.945458 L 52.718647 41.975826 L 52.328792 42.007795 L 51.938224 42.041376 L 51.546934 42.076578 L 51.154916 42.113415 L 50.762161 42.151895 L 50.368662 42.192032 L 49.974412 42.233837 L 49.579402 42.277322 L 49.183625 42.322499 L 48.787073 42.369380 L 48.389740 42.417979 L 47.991616 42.468308 L 47.592695 42.520381 L 47.192969 42.574211 L 46.792431 42.629812 L 46.391072 42.687198 L 45.988886 42.746383 L 45.585864 42.807383 L 45.182000 42.870211 L 44.777286 42.934883 L 44.371714 43.001414 L 43.965276 43.069821 L 43.557966 43.140119 L 43.149776 43.212324 L 42.740699 43.286454 L 42.330727 43.362525 L 41.919852 43.440554 L 41.508069 43.520559 L 41.095368 43.602558 L 40.681744 43.686569 L 40.267189 43.772611 L 39.851696 43.860702 L 39.435258 43.950861 L 39.017867 44.043109 L 38.599517 44.137465 L 38.180201 44.233950 L 37.759913 44.332583 L 37.338644 44.433386 L 36.916389 44.536381 L 36.493140 44.641588 L 36.068892 44.749031 L 35.643638 44.858731 L 35.217370 44.970711 L 34.790084 45.084995 L 34.361772 45.201606 L 33.932429 45.320569 L 33.502048 45.441907 L 33.070623 45.565646 L 32.638149 45.691811 L 32.204619 45.820427 L 31.770028 45.951521 L 31.334371 46.085120 L 30.897642 46.221250 L 30.459835 46.359939 L 30.020946 46.501215 L 29.580969 46.645107 L 29.139900 46.791642 L 28.697734 46.940851 L 28.254466 47.092764 L 27.810092 47.247411 L 27.364607 47.404822 L 26.918008 47.565030 L 26.470291 47.728065 L 26.021451 47.893961 L 25.571486 48.062751 L 25.120393 48.234467 L 24.668167 48.409144 L 24.214807 48.586817 L 23.760309 48.767520 L 23.304671 48.951290 L 22.847892 49.138163 L 22.389969 49.328175 L 21.930900 49.521364 L 21.470685 49.717768 L 21.009321 49.917426 L 20.546810 50.120378 L 20.083149 50.326663 L 19.618340 50.536321 L 19.152382 50.749394 L 18.685275 50.965924 L 18.217021 51.185954 L 17.747621 51.409526 L 17.277077 51.636685 L 16.805390 51.867475 L 16.332564 52.101942 L 15.858601 52.340131 L 15.383504 52.582090 L 14.907278 52.827865 L 14.429926 53.077505 L 13.951453 53.331059 L 13.471865 53.588576 L 12.991167 53.850108 L 12.509367 54.115705 L 12.026469 54.385419 L 11.542483 54.659304 L 11.186059 54.863656" fill="none" id="tattoo-path-5788e2e4d4245d18" stroke="#000000" stroke-linecap="round" stroke-linejoin="round" stroke-width="1.200000"/>
  <path clip-path="url(#tattoo-band-layer-clip)" d="M 129.320951 101.514126 L 129.072566 101.641998 L 128.575455 101.893929 L 128.079018 102.141578 L 127.583273 102.384992 L 127.088234 102.624214 L 126.593918 102.859287 L 126.100340 103.090256 L 125.607513 103.317163 L 125.115453 103.540050 L 124.624171 103.758958 L 124.133680 103.973930 L 123.643992 104.185006 L 123.155120 104.392227 L 122.667073 104.595631 L 122.179862 104.795258 L 121.693497 104.991147 L 121.207989 105.183336 L 120.723345 105.371863 L 120.239574 105.556766 L 119.756684 105.738080 L 119.274684 105.915843 L 118.793580 106.090091 L 118.313380 106.260857 L 117.834089 106.428179 L 117.355714 106.592089 L 116.878261 106.752623 L 116.401735 106.909813 L 115.926142 107.063693 L 115.451484 107.214295 L 114.977768 107.361652 L 114.504998 107.505795 L 114.033176 107.646755 L 113.562306 107.784565 L 113.092392 107.919253 L 112.623436 108.050850 L 112.155441 108.179387 L 111.688409 108.304891 L 111.222342 108.427391 L 110.757242 108.546917 L 110.293111 108.663496 L 109.829949 108.777155 L 109.367758 108.887923 L 108.906539 108.995824 L 108.446292 109.100887 L 107.987017 109.203137 L 107.528715 109.302599 L 107.071386 109.399300 L 106.615030 109.493263 L 106.159646 109.584513 L 105.705233 109.673074 L 105.251792 109.758971 L 104.799320 109.842226 L 104.347817 109.922863 L 103.897282 110.000904 L 103.447714 110.076371 L 102.999110 110.149287 L 102.551469 110.219673 L 102.104789 110.287551 L 101.659069 110.352942 L 101.214306 110.415866 L 100.770498 110.476343 L 100.327643 110.534394 L 99.885738 110.590038 L 99.444781 110.643294 L 99.004769 110.694182 L 98.565700 110.742721 L 98.127569 110.788928 L 97.690376 110.832822 L 97.254115 110.874421 L 96.818785 110.913742 L 96.384383 110.950803 L 95.950903 110.985620 L 95.518345 111.018210 L 95.086703 111.048590 L 94.655974 111.076775 L 94.226156 111.102781 L 93.797243 111.126624 L 93.369233 111.148319 L 92.942121 111.167881 L 92.515904 111.185325 L 92.090578 111.200665 L 91.666139 111.213915 L 91.242582 111.225089 L 90.819905 111.234201 L 90.398101 111.241265 L 89.977169 111.246293 L 89.557102 111.249298 L 89.137898 111.250293 L 88.719551 111.249291 L 88.302058 111.246303 L 87.885414 111.241341 L 87.469615 111.234417 L 87.054656 111.225543 L 86.640533 111.214730 L 86.227242 111.201988 L 85.814778 111.187329 L 85.403136 111.170762 L 84.992312 111.152299 L 84.582302 111.131950 L 84.173101 111.109723 L 83.764704 111.085629 L 83.357107 111.059677 L 82.950306 111.031877 L 82.544295 111.002237 L 82.139070 110.970766 L 81.734627 110.937473 L 81.330961 110.902366 L 80.928067 110.865453 L 80.525941 110.826742 L 80.124578 110.786241 L 79.723973 110.743958 L 79.324122 110.699899 L 78.925021 110.654072 L 78.526665 110.606484 L 78.129048 110.557141 L 77.732167 110.506051 L 77.336017 110.453219 L 76.940594 110.398652 L 76.545892 110.342356 L 76.151908 110.284336 L 75.758636 110.224598 L 75.366073 110.163147 L 74.974214 110.099990 L 74.583054 110.035130 L 74.192588 109.968573 L 73.802814 109.900323 L 73.413725 109.830386 L 73.025318 109.758765 L 72.637588 109.685464 L 72.250531 109.610488 L 71.864143 109.533840 L 71.478418 109.455524 L 71.093354 109.375543 L 70.708946 109.293902 L 70.325188 109.210602 L 69.942079 109.125647 L 69.559612 109.039040 L 69.177784 108.950784 L 68.796591 108.860880 L 68.416029 108.769331 L 68.036094 108.676140 L 67.656781 108.581308 L 67.278087 108.484837 L 66.900008 108.386729 L 66.522540 108.286985 L 66.145679 108.185606 L 65.769421 108.082595 L 65.393762 107.977951 L 65.018699 107.871676 L 64.644228 107.763771 L 64.270346 107.654235 L 63.897048 107.543070 L 63.524331 107.430275 L 63.152192 107.315851 L 62.780626 107.199797 L 62.409632 107.082114 L 62.039204 106.962800 L 61.669341 106.841856 L 61.300038 106.719281 L 60.931293 106.595073 L 60.563101 106.469233 L 60.195461 106.341758 L 59.828368 106.212647 L 59.461821 106.081900 L 59.095815 105.949513 L 58.730348 105.815487 L 58.365417 105.679818 L 58.001020 105.542504 L 57.637153 105.403544 L 57.273814 105.262935 L 56.911000 105.120675 L 56.548708 104.976760 L 56.186937 104.831188 L 55.825683 104.683957 L 55.464944 104.535062 L 55.104719 104.384501 L 54.745004 104.232270 L 54.385797 104.078366 L 54.027097 103.922785 L 53.668902 103.765523 L 53.311208 103.606576 L 52.954015 103.445940 L 52.597321 103.283611 L 52.241123 103.119584 L 51.885421 102.953854 L 51.530212 102.786417 L 51.175496 102.617269 L 50.821269 102.446402 L 50.467533 102.273814 L 50.114284 102.099497 L 49.761522 101.923448 L 49.409246 101.745659 L 49.057454 101.566125 L 48.706146 101.384841 L 48.355321 101.201799 L 48.004978 101.016995 L 47.655117 100.830421 L 47.305736 100.642070 L 46.956836 100.451937 L 46.608416 100.260013 L 46.260476 100.066293 L 45.913015 99.870768 L 45.566034 99.673432 L 45.219533 99.474277 L 44.873511 99.273295 L 44.527970 99.070478 L 44.182909 98.865819 L 43.838328 98.659310 L 43.494229 98.450941 L 43.150612 98.240705 L 42.807478 98.028592 L 42.464828 97.814595 L 42.122662 97.598704 L 41.780983 97.380910 L 41.439791 97.161204 L 41.099088 96.939576 L 40.758876 96.716017 L 40.419155 96.490516 L 40.079928 96.263066 L 39.741198 96.033654 L 39.402965 95.802270 L 39.065232 95.568906 L 38.728002 95.333549 L 38.391277 95.096189 L 38.055060 94.856815 L 37.719354 94.615416 L 37.384161 94.371981 L 37.049485 94.126499 L 36.715329 93.878957 L 36.381697 93.629345 L 36.048592 93.377650 L 35.716018 93.123859 L 35.383980 92.867962 L 35.052480 92.609945 L 34.721524 92.349796 L 34.391116 92.087501 L 34.061260 91.823049 L 33.731963 91.556426 L 33.403228 91.287618 L 33.075061 91.016612 L 32.747467 90.743395 L 32.420452 90.467953 L 32.094023 90.190271 L 31.768185 89.910335 L 31.442944 89.628132 L 31.118307 89.343646 L 30.794281 89.056863 L 30.470872 88.767767 L 30.148089 88.476345 L 29.825937 88.182580 L 29.504426 87.886457 L 29.183563 87.587960 L 28.863355 87.287074 L 28.543813 86.983783 L 28.224943 86.678070 L 27.906755 86.369920 L 27.589259 86.059314 L 27.272464 85.746238 L 26.956379 85.430673 L 26.641015 85.112603 L 26.326382 84.792011 L 26.012491 84.468879 L 25.699351 84.143189 L 25.386976 83.814923 L 25.075376 83.484065 L 24.764563 83.150594 L 24.454549 82.814493 L 24.145347 82.475744 L 23.836970 82.134327 L 23.529430 81.790224 L 23.222742 81.443416 L 22.916919 81.093882 L 22.611975 80.741605 L 22.307926 80.386563 L 22.004785 80.028738 L 21.702569 79.668109 L 21.401292 79.304655 L 21.100972 78.938358 L 20.801625 78.569195 L 20.503268 78.197146 L 20.205917 77.822191 L 19.909592 77.444308 L 19.614309 77.063476 L 19.320089 76.679674 L 19.026949 76.292879 L 18.734910 75.903070 L 18.443992 75.510226 L 18.154214 75.114324 L 17.865599 74.715341 L 17.578168 74.313256 L 17.291942 73.908045 L 17.006944 73.499687 L 16.723198 73.088157 L 16.440726 72.673434 L 16.159554 72.255493 L 15.879705 71.834312 L 15.601205 71.409866 L 15.324080 70.982133 L 15.048356 70.551089 L 14.774060 70.116709 L 14.501220 69.678970 L 14.229864 69.237848 L 13.960021 68.793318 L 13.691720 68.345355 L 13.424992 67.893936 L 13.159867 67.439036 L 12.896378 66.980630 L 12.634555 66.518693 L 12.374432 66.053201 L 12.116042 65.584129 L 11.859421 65.111451 L 11.604602 64.635142 L 11.351622 64.155178 L 11.100517 63.671533 L 10.851326 63.184182 L 10.604085 62.693099 L 10.358833 62.198260 L 10.115612 61.699639 L 9.874461 61.197210 L 9.755180 60.944586" fill="none" id="tattoo-path-a9846a2e61d329cc" stroke="#000000" stroke-linecap="round" stroke-linejoin="round" stroke-width="1.000000"/>
  <path clip-path="url(#tattoo-band-layer-clip)" d="M 38.737594 126.634462 L 39.183603 126.311908 L 39.631448 125.986007 L 40.075152 125.661125 L 40.514780 125.337258 L 40.950395 125.014399 L 41.382061 124.692543 L 41.809839 124.371685 L 42.233789 124.051817 L 42.653970 123.732935 L 43.070441 123.415030 L 43.483259 123.098098 L 43.892479 122.782132 L 44.298157 122.467123 L 44.700346 122.153066 L 45.099099 121.839954 L 45.494469 121.527778 L 45.886505 121.216533 L 46.275259 120.906209 L 46.660779 120.596801 L 47.043114 120.288300 L 47.422310 119.980698 L 47.798414 119.673987 L 48.171472 119.368161 L 48.541529 119.063210 L 48.908628 118.759128 L 49.272814 118.455905 L 49.634128 118.153533 L 49.992611 117.852005 L 50.348306 117.551313 L 50.701253 117.251447 L 51.051490 116.952400 L 51.399057 116.654163 L 51.743992 116.356729 L 52.086333 116.060087 L 52.426116 115.764231 L 52.763378 115.469152 L 53.098154 115.174841 L 53.430479 114.881289 L 53.760389 114.588489 L 54.087916 114.296431 L 54.413094 114.005107 L 54.735956 113.714509 L 55.056534 113.424628 L 55.374860 113.135455 L 55.690964 112.846982 L 56.004878 112.559200 L 56.316632 112.272101 L 56.626254 111.985676 L 56.933775 111.699916 L 57.239224 111.414814 L 57.542627 111.130360 L 57.844013 110.846545 L 58.143410 110.563362 L 58.440844 110.280802 L 58.736342 109.998856 L 59.029929 109.717515 L 59.321632 109.436772 L 59.611475 109.156617 L 59.899484 108.877042 L 60.185683 108.598039 L 60.470095 108.319599 L 60.752746 108.041713 L 61.033657 107.764374 L 61.312852 107.487572 L 61.590354 107.211300 L 61.866184 106.935549 L 62.140365 106.660310 L 62.412919 106.385575 L 62.683866 106.111336 L 62.953228 105.837585 L 63.221025 105.564312 L 63.487278 105.291511 L 63.752007 105.019171 L 64.015231 104.747286 L 64.276969 104.475847 L 64.537242 104.204845 L 64.796068 103.934273 L 65.053465 103.664122 L 65.309452 103.394384 L 65.564047 103.125050 L 65.817268 102.856113 L 66.069132 102.587565 L 66.319657 102.319397 L 66.568860 102.051600 L 66.816757 101.784168 L 67.063366 101.517092 L 67.308702 101.250363 L 67.552782 100.983974 L 67.795621 100.717917 L 68.037236 100.452183 L 68.277641 100.186765 L 68.516853 99.921654 L 68.754886 99.656842 L 68.991755 99.392323 L 69.227474 99.128086 L 69.462058 98.864125 L 69.695522 98.600432 L 69.927879 98.336998 L 70.159144 98.073815 L 70.389329 97.810877 L 70.618449 97.548174 L 70.846516 97.285698 L 71.073545 97.023443 L 71.299548 96.761400 L 71.524537 96.499560 L 71.748526 96.237917 L 71.971527 95.976462 L 72.193552 95.715187 L 72.414613 95.454084 L 72.634723 95.193147 L 72.853893 94.932366 L 73.072135 94.671733 L 73.289461 94.411242 L 73.505882 94.150884 L 73.721409 93.890651 L 73.936053 93.630535 L 74.149826 93.370528 L 74.362738 93.110624 L 74.574800 92.850812 L 74.786023 92.591087 L 74.996416 92.331440 L 75.205991 92.071862 L 75.414758 91.812347 L 75.622726 91.552886 L 75.829906 91.293472 L 76.036308 91.034096 L 76.241941 90.774750 L 76.446814 90.515427 L 76.650938 90.256119 L 76.854322 89.996818 L 77.056975 89.737515 L 77.258906 89.478203 L 77.460124 89.218874 L 77.660638 88.959521 L 77.860458 88.700134 L 78.059591 88.440705 L 78.258047 88.181228 L 78.455834 87.921694 L 78.652960 87.662094 L 78.849434 87.402421 L 79.045265 87.142667 L 79.240459 86.882823 L 79.435026 86.622882 L 79.628973 86.362835 L 79.822309 86.102674 L 80.015040 85.842391 L 80.207176 85.581978 L 80.398722 85.321426 L 80.589688 85.060727 L 80.780080 84.799873 L 80.969906 84.538856 L 81.159173 84.277667 L 81.347889 84.016298 L 81.536060 83.754740 L 81.723693 83.492985 L 81.910796 83.231025 L 82.097376 82.968851 L 82.283439 82.706455 L 82.468992 82.443828 L 82.654042 82.180961 L 82.838595 81.917846 L 83.022658 81.654474 L 83.206238 81.390836 L 83.389341 81.126925 L 83.571973 80.862730 L 83.754140 80.598243 L 83.935850 80.333456 L 84.117107 80.068358 L 84.297918 79.802942 L 84.478289 79.537199 L 84.658226 79.271119 L 84.837735 79.004693 L 85.016822 78.737912 L 85.195492 78.470767 L 85.373751 78.203249 L 85.551605 77.935348 L 85.729060 77.667055 L 85.906120 77.398360 L 86.082792 77.129255 L 86.259081 76.859729 L 86.434992 76.589774 L 86.610530 76.319378 L 86.785701 76.048534 L 86.960511 75.777230 L 87.134963 75.505458 L 87.309063 75.233206 L 87.482817 74.960466 L 87.656229 74.687227 L 87.829303 74.413480 L 88.002046 74.139213 L 88.174462 73.864417 L 88.346555 73.589081 L 88.518330 73.313195 L 88.689792 73.036749 L 88.860946 72.759732 L 89.031796 72.482133 L 89.202346 72.203942 L 89.372602 71.925148 L 89.542567 71.645740 L 89.712245 71.365706 L 89.881642 71.085037 L 90.050761 70.803721 L 90.219607 70.521746 L 90.388183 70.239101 L 90.556494 69.955775 L 90.724544 69.671757 L 90.892337 69.387034 L 91.059877 69.101595 L 91.227167 68.815428 L 91.394212 68.528521 L 91.561016 68.240863 L 91.727581 67.952440 L 91.893913 67.663242 L 92.060014 67.373254 L 92.225889 67.082466 L 92.391540 66.790864 L 92.556971 66.498435 L 92.722187 66.205167 L 92.887189 65.911047 L 93.051982 65.616062 L 93.216568 65.320197 L 93.380952 65.023441 L 93.545136 64.725780 L 93.709124 64.427199 L 93.872918 64.127686 L 94.036522 63.827226 L 94.199939 63.525805 L 94.363171 63.223409 L 94.526222 62.920023 L 94.689094 62.615634 L 94.851791 62.310226 L 95.014314 62.003785 L 95.176667 61.696296 L 95.338852 61.387744 L 95.500872 61.078112 L 95.662730 60.767387 L 95.824427 60.455551 L 95.985966 60.142590 L 96.147350 59.828488 L 96.308581 59.513227 L 96.469661 59.196793 L 96.630592 58.879168 L 96.791377 58.560335 L 96.952017 58.240278 L 97.112514 57.918979 L 97.272870 57.596422 L 97.433088 57.272588 L 97.593168 56.947460 L 97.753113 56.621020 L 97.912925 56.293249 L 98.072604 55.964130 L 98.232152 55.633644 L 98.391571 55.301771 L 98.550862 54.968493 L 98.710026 54.633790 L 98.869065 54.297643 L 99.027980 53.960032 L 99.186771 53.620937 L 99.345439 53.280338 L 99.503986 52.938213 L 99.662413 52.594543 L 99.820719 52.249305 L 99.978906 51.902479 L 100.136973 51.554043 L 100.294922 51.203975 L 100.452753 50.852252 L 100.610466 50.498852 L 100.768061 50.143753 L 100.925538 49.786930 L 101.082897 49.428361 L 101.240137 49.068022 L 101.397260 48.705888 L 101.554263 48.341936 L 101.711146 47.976139 L 101.867910 47.608474 L 102.024552 47.238915 L 102.181073 46.867435 L 102.337471 46.494009 L 102.493744 46.118609 L 102.649892 45.741210 L 102.805914 45.361783 L 102.961807 44.980301 L 103.117569 44.596736 L 103.273200 44.211059 L 103.428697 43.823241 L 103.584057 43.433252 L 103.739278 43.041064 L 103.894358 42.646645 L 104.049295 42.249965 L 104.204084 41.850993 L 104.358724 41.449696 L 104.513210 41.046044 L 104.667540 40.640003 L 104.821710 40.231540 L 104.975715 39.820621 L 105.129553 39.407213 L 105.283217 38.991280 L 105.436705 38.572788 L 105.590011 38.151700 L 105.743131 37.727981 L 105.896058 37.301594 L 106.048789 36.872501 L 106.201316 36.440663 L 106.353634 36.006044 L 106.505737 35.568602 L 106.657617 35.128298 L 106.809270 34.685092 L 106.960686 34.238943 L 107.111859 33.789808 L 107.262781 33.337646 L 107.413443 32.882412 L 107.563838 32.424063 L 107.713957 31.962555 L 107.863790 31.497842 L 108.013328 31.029877 L 108.162561 30.558614 L 108.311479 30.084005 L 108.460071 29.606002 L 108.608326 29.124555 L 108.756232 28.639614 L 108.903777 28.151129 L 109.050949 27.659046 L 109.197735 27.163314 L 109.344122 26.663879 L 109.490095 26.160686 L 109.635640 25.653680 L 109.780742 25.142805 L 109.925385 24.628001 L 110.069553 24.109213 L 110.213230 23.586379 L 110.356398 23.059439 L 110.499039 22.528331 L 110.641134 21.992994 L 110.780771 21.460579" fill="none" id="tattoo-path-92c0f2414661c6c5" stroke="#000000" stroke-linecap="round" stroke-linejoin="round" stroke-width="0.800000"/>
  <circle cx="72.500000" cy="72.500000" fill="none" id="tattoo-boundary-da45c61d325de3be" r="64.900000" stroke="#000000" stroke-width="2.200000"/>
</svg>
