<svg height="145.000000mm" version="1.1" viewBox="0 0 145.000000 145.000000" width="145.000000mm" xmlns="http://www.w3.org/2000/svg">
  <defs>
    <clipPath clipPathUnits="userSpaceOnUse" id="tattoo-band-layer-clip">
      <circle cx="72.500000" cy="72.500000" r="63.800000"/>
    </clipPath>
  </defs>
  <path clip-path="url(#tattoo-band-layer-clip)" d="M 40.249271 127.548438 L 40.237049 127.510320 L 40.069724 126.977811 L 39.906347 126.447117 L 39.746866 125.918236 L 39.591229 125.391169 L 39.439384 124.865913 L 39.291283 124.342468 L 39.146875 123.820832 L 39.006113 123.301001 L 38.868948 122.782974 L 38.735334 122.266746 L 38.605224 121.752315 L 38.478574 121.239676 L 38.355338 120.728826 L 38.235472 120.219760 L 38.118935 119.712473 L 38.005682 119.206960 L 37.895672 118.703216 L 37.788865 118.201235 L 37.685219 117.701011 L 37.584696 117.202538 L 37.487255 116.705811 L 37.392860 116.210822 L 37.301472 115.717564 L 37.213053 115.226031 L 37.127568 114.736216 L 37.044981 114.248111 L 36.965256 113.761709 L 36.888359 113.277002 L 36.814255 112.793983 L 36.742912 112.312643 L 36.674297 111.832975 L 36.608376 111.354969 L 36.545119 110.878618 L 36.484494 110.403914 L 36.426470 109.930848 L 36.371017 109.459410 L 36.318107 108.989593 L 36.267708 108.521387 L 36.219794 108.054784 L 36.174336 107.589773 L 36.131306 107.126348 L 36.090677 106.664497 L 36.052422 106.204211 L 36.016516 105.745482 L 35.982933 105.288301 L 35.951647 104.832656 L 35.922633 104.378540 L 35.895868 103.925941 L 35.871327 103.474852 L 35.848988 103.025262 L 35.828826 102.577161 L 35.810819 102.130540 L 35.794945 101.685390 L 35.781183 101.241699 L 35.769510 100.799459 L 35.759906 100.358659 L 35.752350 99.919290 L 35.746822 99.481343 L 35.743302 99.044806 L 35.741771 98.609671 L 35.742209 98.175927 L 35.744597 97.743565 L 35.748918 97.312574 L 35.755153 96.882946 L 35.763284 96.454669 L 35.773294 96.027734 L 35.785167 95.602132 L 35.798884 95.177852 L 35.814431 94.754885 L 35.831790 94.333221 L 35.850946 93.912850 L 35.871884 93.493763 L 35.894588 93.075948 L 35.919044 92.659398 L 35.945237 92.244102 L 35.973153 91.830050 L 36.002778 91.417233 L 36.034099 91.005642 L 36.067101 90.595266 L 36.101772 90.186095 L 36.138100 89.778122 L 36.176071 89.371335 L 36.215673 88.965726 L 36.256894 88.561285 L 36.299723 88.158002 L 36.344148 87.755869 L 36.390158 87.354876 L 36.437741 86.955013 L 36.486888 86.556271 L 36.537587 86.158642 L 36.589829 85.762116 L 36.643603 85.366683 L 36.698899 84.972336 L 36.755709 84.579063 L 36.814022 84.186858 L 36.873830 83.795710 L 36.935125 83.405611 L 36.997896 83.016552 L 37.062136 82.628524 L 37.127836 82.241517 L 37.194990 81.855525 L 37.263588 81.470537 L 37.333624 81.086545 L 37.405089 80.703541 L 37.477978 80.321516 L 37.552282 79.940461 L 37.627996 79.560368 L 37.705112 79.181229 L 37.783624 78.803034 L 37.863527 78.425777 L 37.944814 78.049448 L 38.027479 77.674040 L 38.111517 77.299543 L 38.196923 76.925951 L 38.283690 76.553255 L 38.371816 76.181447 L 38.461293 75.810519 L 38.552118 75.440463 L 38.644287 75.071271 L 38.737794 74.702936 L 38.832637 74.335449 L 38.928810 73.968804 L 39.026310 73.602992 L 39.125134 73.238005 L 39.225277 72.873837 L 39.326738 72.510480 L 39.429512 72.147925 L 39.533597 71.786167 L 39.638989 71.425198 L 39.745687 71.065009 L 39.853688 70.705595 L 39.962989 70.346947 L 40.073589 69.989060 L 40.185485 69.631925 L 40.298676 69.275536 L 40.413159 68.919886 L 40.528934 68.564967 L 40.645999 68.210774 L 40.764353 67.857299 L 40.883994 67.504536 L 41.004923 67.152477 L 41.127137 66.801117 L 41.250637 66.450449 L 41.375422 66.100466 L 41.501492 65.751161 L 41.628846 65.402529 L 41.757485 65.054564 L 41.887409 64.707258 L 42.018617 64.360605 L 42.151111 64.014600 L 42.284891 63.669237 L 42.419958 63.324508 L 42.556312 62.980409 L 42.693955 62.636934 L 42.832888 62.294076 L 42.973111 61.951830 L 43.114628 61.610190 L 43.257438 61.269150 L 43.401543 60.928705 L 43.546947 60.588849 L 43.693650 60.249576 L 43.841654 59.910882 L 43.990963 59.572761 L 44.141578 59.235207 L 44.293502 58.898216 L 44.446738 58.561781 L 44.601288 58.225899 L 44.757156 57.890563 L 44.914344 57.555769 L 45.072857 57.221512 L 45.232696 56.887787 L 45.393867 56.554590 L 45.556372 56.221914 L 45.720215 55.889757 L 45.885400 55.558113 L 46.051932 55.226978 L 46.219815 54.896346 L 46.389053 54.566215 L 46.559650 54.236579 L 46.731611 53.907434 L 46.904941 53.578776 L 47.079646 53.250600 L 47.255729 52.922904 L 47.433197 52.595682 L 47.612054 52.268931 L 47.792307 51.942648 L 47.973960 51.616827 L 48.157021 51.291466 L 48.341493 50.966561 L 48.527385 50.642108 L 48.714701 50.318104 L 48.903449 49.994545 L 49.093635 49.671429 L 49.285265 49.348752 L 49.478347 49.026511 L 49.672887 48.704702 L 49.868893 48.383323 L 50.066371 48.062371 L 50.265330 47.741842 L 50.465776 47.421736 L 50.667719 47.102047 L 50.871164 46.782775 L 51.076121 46.463916 L 51.282598 46.145469 L 51.490603 45.827430 L 51.700144 45.509799 L 51.911230 45.192571 L 52.123871 44.875746 L 52.338074 44.559322 L 52.553850 44.243297 L 52.771207 43.927669 L 52.990155 43.612436 L 53.210703 43.297598 L 53.432862 42.983151 L 53.656641 42.669096 L 53.882050 42.355431 L 54.109100 42.042155 L 54.337801 41.729267 L 54.568164 41.416766 L 54.800200 41.104651 L 55.033918 40.792922 L 55.269332 40.481578 L 55.506451 40.170619 L 55.745288 39.860044 L 55.985854 39.549853 L 56.228161 39.240046 L 56.472221 38.930624 L 56.718045 38.621586 L 56.965648 38.312933 L 57.215040 38.004665 L 57.466235 37.696783 L 57.719246 37.389288 L 57.974086 37.082180 L 58.230768 36.775461 L 58.489306 36.469132 L 58.749713 36.163193 L 59.012003 35.857648 L 59.276191 35.552496 L 59.542290 35.247740 L 59.810315 34.943383 L 60.080281 34.639425 L 60.352203 34.335870 L 60.626095 34.032720 L 60.901973 33.729977 L 61.179853 33.427644 L 61.459750 33.125724 L 61.741680 32.824221 L 62.025659 32.523137 L 62.311704 32.222477 L 62.599830 31.922244 L 62.890056 31.622441 L 63.182397 31.323074 L 63.476871 31.024146 L 63.773495 30.725662 L 64.072288 30.427627 L 64.373266 30.130045 L 64.676448 29.832922 L 64.981853 29.536264 L 65.289498 29.240075 L 65.599403 28.944362 L 65.911586 28.649132 L 66.226067 28.354389 L 66.542866 28.060142 L 66.862002 27.766396 L 67.183494 27.473160 L 67.507364 27.180440 L 67.833631 26.888244 L 68.162317 26.596581 L 68.493442 26.305458 L 68.827027 26.014883 L 69.163095 25.724867 L 69.501666 25.435418 L 69.842762 25.146544 L 70.186407 24.858258 L 70.532621 24.570567 L 70.881429 24.283483 L 71.232852 23.997017 L 71.586915 23.711179 L 71.943640 23.425981 L 72.303052 23.141435 L 72.665174 22.857553 L 73.030031 22.574348 L 73.397647 22.291832 L 73.768048 22.010019 L 74.141258 21.728923 L 74.517303 21.448558 L 74.896208 21.168937 L 75.278000 20.890078 L 75.662705 20.611993 L 76.050348 20.334701 L 76.440958 20.058216 L 76.834560 19.782556 L 77.231183 19.507738 L 77.630854 19.233780 L 78.033601 18.960700 L 78.439452 18.688516 L 78.848436 18.417248 L 79.260581 18.146916 L 79.675917 17.877540 L 80.094472 17.609141 L 80.516277 17.341741 L 80.941361 17.075361 L 81.369755 16.810024 L 81.801488 16.545753 L 82.236593 16.282573 L 82.675099 16.020507 L 83.117038 15.759581 L 83.562442 15.499820 L 84.011343 15.241252 L 84.463773 14.983902 L 84.919764 14.727800 L 85.379348 14.472973 L 85.842560 14.219451 L 86.309432 13.967263 L 86.779998 13.716442 L 87.254291 13.467017 L 87.732346 13.219022 L 88.214197 12.972490 L 88.699878 12.727455 L 89.189425 12.483952 L 89.682872 12.242016 L 90.180255 12.001684 L 90.681609 11.762995 L 91.186970 11.525985 L 91.223310 11.509200" fill="none" id="tattoo-path-6d64279d33b7b091" stroke="#000000" stroke-linecap="round" stroke-linejoin="round" stroke-width="4.800000"/>
  <path clip-path="url(#tattoo-band-layer-clip)" d="M 16.909502 103.807133 L 17.214190 103.791744 L 17.769154 103.761772 L 18.320173 103.730097 L 18.867299 103.696754 L 19.410584 103.661781 L 19.950081 103.625210 L 20.485839 103.587077 L 21.017908 103.547414 L 21.546339 103.506252 L 22.071178 103.463623 L 22.592474 103.419557 L 23.110274 103.374084 L 23.624624 103.327231 L 24.135569 103.279028 L 24.643156 103.229501 L 25.147428 103.178676 L 25.648430 103.126580 L 26.146203 103.073237 L 26.640791 103.018672 L 27.132236 102.962907 L 27.620579 102.905968 L 28.105860 102.847875 L 28.588121 102.788650 L 29.067399 102.728316 L 29.543736 102.666892 L 30.017168 102.604400 L 30.487734 102.540857 L 30.955471 102.476285 L 31.420417 102.410700 L 31.882607 102.344121 L 32.342077 102.276567 L 32.798864 102.208053 L 33.253000 102.138597 L 33.704523 102.068214 L 34.153464 101.996922 L 34.599857 101.924734 L 35.043736 101.851666 L 35.485134 101.777732 L 35.924081 101.702947 L 36.360610 101.627324 L 36.794753 101.550877 L 37.226539 101.473619 L 37.656000 101.395562 L 38.083165 101.316719 L 38.508065 101.237101 L 38.930728 101.156720 L 39.351183 101.075588 L 39.769459 100.993716 L 40.185583 100.911114 L 40.599584 100.827792 L 41.011489 100.743761 L 41.421325 100.659031 L 41.829118 100.573610 L 42.234895 100.487509 L 42.638683 100.400736 L 43.040505 100.313300 L 43.440389 100.225209 L 43.838359 100.136472 L 44.234439 100.047096 L 44.628654 99.957090 L 45.021028 99.866461 L 45.411585 99.775215 L 45.800349 99.683361 L 46.187342 99.590904 L 46.572587 99.497852 L 46.956108 99.404210 L 47.337926 99.309986 L 47.718064 99.215185 L 48.096543 99.119812 L 48.473386 99.023874 L 48.848612 98.927376 L 49.222244 98.830322 L 49.594302 98.732719 L 49.964807 98.634571 L 50.333779 98.535882 L 50.701238 98.436657 L 51.067204 98.336901 L 51.431697 98.236618 L 51.794735 98.135811 L 52.156339 98.034485 L 52.516527 97.932643 L 52.875318 97.830290 L 53.232731 97.727427 L 53.588783 97.624059 L 53.943493 97.520188 L 54.296879 97.415819 L 54.648958 97.310952 L 54.999749 97.205592 L 55.349268 97.099741 L 55.697533 96.993401 L 56.044560 96.886575 L 56.390367 96.779264 L 56.734970 96.671471 L 57.078385 96.563198 L 57.420629 96.454447 L 57.761718 96.345219 L 58.101667 96.235515 L 58.440493 96.125339 L 58.778212 96.014689 L 59.114838 95.903569 L 59.450387 95.791979 L 59.784874 95.679920 L 60.118314 95.567393 L 60.450722 95.454399 L 60.782112 95.340939 L 61.112500 95.227012 L 61.441900 95.112621 L 61.770325 94.997764 L 62.097790 94.882443 L 62.424310 94.766658 L 62.749898 94.650408 L 63.074567 94.533694 L 63.398332 94.416516 L 63.721205 94.298873 L 64.043201 94.180766 L 64.364333 94.062193 L 64.684613 93.943155 L 65.004055 93.823650 L 65.322671 93.703679 L 65.640475 93.583241 L 65.957480 93.462334 L 66.273696 93.340958 L 66.589139 93.219112 L 66.903819 93.096795 L 67.217748 92.974006 L 67.530940 92.850743 L 67.843406 92.727006 L 68.155158 92.602792 L 68.466209 92.478100 L 68.776569 92.352930 L 69.086250 92.227278 L 69.395265 92.101144 L 69.703625 91.974525 L 70.011341 91.847420 L 70.318424 91.719827 L 70.624886 91.591744 L 70.930737 91.463168 L 71.235990 91.334098 L 71.540655 91.204531 L 71.844743 91.074464 L 72.148265 90.943896 L 72.451232 90.812824 L 72.753654 90.681245 L 73.055543 90.549157 L 73.356908 90.416557 L 73.657760 90.283441 L 73.958110 90.149808 L 74.257967 90.015654 L 74.557344 89.880976 L 74.856249 89.745771 L 75.154692 89.610036 L 75.452685 89.473767 L 75.750237 89.336962 L 76.047357 89.199616 L 76.344057 89.061726 L 76.640346 88.923289 L 76.936233 88.784300 L 77.231729 88.644757 L 77.526843 88.504655 L 77.821585 88.363990 L 78.115965 88.222758 L 78.409992 88.080956 L 78.703676 87.938579 L 78.997026 87.795623 L 79.290052 87.652083 L 79.582762 87.507955 L 79.875168 87.363235 L 80.167277 87.217918 L 80.459099 87.071999 L 80.750643 86.925474 L 81.041919 86.778338 L 81.332936 86.630586 L 81.623702 86.482212 L 81.914227 86.333213 L 82.204521 86.183582 L 82.494591 86.033314 L 82.784447 85.882405 L 83.074098 85.730848 L 83.363552 85.578638 L 83.652820 85.425770 L 83.941909 85.272237 L 84.230828 85.118035 L 84.519587 84.963156 L 84.808193 84.807596 L 85.096656 84.651348 L 85.384985 84.494405 L 85.673187 84.336763 L 85.961273 84.178413 L 86.249250 84.019350 L 86.537127 83.859567 L 86.824913 83.699058 L 87.112616 83.537816 L 87.400244 83.375833 L 87.687808 83.213103 L 87.975314 83.049619 L 88.262772 82.885374 L 88.550189 82.720360 L 88.837575 82.554570 L 89.124938 82.387996 L 89.412286 82.220631 L 89.699628 82.052467 L 89.986973 81.883496 L 90.274327 81.713711 L 90.561701 81.543102 L 90.849103 81.371662 L 91.136540 81.199383 L 91.424021 81.026256 L 91.711555 80.852272 L 91.999150 80.677424 L 92.286814 80.501701 L 92.574556 80.325095 L 92.862383 80.147597 L 93.150305 79.969198 L 93.438330 79.789888 L 93.726465 79.609659 L 94.014720 79.428499 L 94.303102 79.246400 L 94.591620 79.063351 L 94.880282 78.879343 L 95.169097 78.694365 L 95.458072 78.508407 L 95.747217 78.321458 L 96.036539 78.133508 L 96.326047 77.944547 L 96.615748 77.754562 L 96.905652 77.563543 L 97.195767 77.371478 L 97.486101 77.178357 L 97.776662 76.984167 L 98.067458 76.788897 L 98.358499 76.592535 L 98.649791 76.395068 L 98.941345 76.196485 L 99.233167 75.996772 L 99.525266 75.795917 L 99.817651 75.593908 L 100.110331 75.390730 L 100.403312 75.186372 L 100.696604 74.980819 L 100.990216 74.774058 L 101.284154 74.566074 L 101.578429 74.356855 L 101.873048 74.146385 L 102.168019 73.934650 L 102.463352 73.721636 L 102.759054 73.507327 L 103.055134 73.291708 L 103.351601 73.074765 L 103.648462 72.856481 L 103.945727 72.636840 L 104.243403 72.415826 L 104.541500 72.193424 L 104.840025 71.969616 L 105.138988 71.744386 L 105.438396 71.517717 L 105.738258 71.289591 L 106.038584 71.059990 L 106.339380 70.828897 L 106.640656 70.596294 L 106.942421 70.362162 L 107.244682 70.126482 L 107.547449 69.889236 L 107.850730 69.650404 L 108.154534 69.409966 L 108.458868 69.167903 L 108.763743 68.924194 L 109.069166 68.678818 L 109.375145 68.431756 L 109.681690 68.182985 L 109.988810 67.932484 L 110.296512 67.680232 L 110.604805 67.426205 L 110.913699 67.170382 L 111.223200 66.912739 L 111.533320 66.653254 L 111.844064 66.391901 L 112.155444 66.128658 L 112.467466 65.863499 L 112.780140 65.596401 L 113.093474 65.327337 L 113.407477 65.056282 L 113.722157 64.783209 L 114.037523 64.508093 L 114.353583 64.230906 L 114.670347 63.951621 L 114.987822 63.670210 L 115.306017 63.386644 L 115.624940 63.100895 L 115.944601 62.812933 L 116.265007 62.522728 L 116.586167 62.230251 L 116.908089 61.935470 L 117.230782 61.638355 L 117.554253 61.338872 L 117.878512 61.036990 L 118.203567 60.732676 L 118.529425 60.425896 L 118.856095 60.116615 L 119.183585 59.804801 L 119.511904 59.490416 L 119.841058 59.173425 L 120.171057 58.853791 L 120.501907 58.531478 L 120.833617 58.206447 L 121.166195 57.878660 L 121.499648 57.548078 L 121.833984 57.214660 L 122.169211 56.878367 L 122.505335 56.539156 L 122.842364 56.196986 L 123.180306 55.851814 L 123.519167 55.503596 L 123.858954 55.152288 L 124.199675 54.797845 L 124.541336 54.440220 L 124.883944 54.079367 L 125.227505 53.715238 L 125.572026 53.347785 L 125.917512 52.976958 L 126.263970 52.602706 L 126.611405 52.224979 L 126.959823 51.843724 L 127.309231 51.458887 L 127.659632 51.070415 L 128.011031 50.678253 L 128.363435 50.282343 L 128.716847 49.882629 L 129.071271 49.479052 L 129.426712 49.071552 L 129.783173 48.660070 L 130.140658 48.244543 L 130.499170 47.824907 L 130.858711 47.401100 L 131.055259 47.167774" fill="none" id="tattoo-path-0c3e6355d93974d6" stroke="#000000" stroke-linecap="round" stroke-linejoin="round" stroke-width="4.200000"/>
  <path clip-path="url(#tattoo-band-layer-clip)" d="M 118.741620 116.456258 L 118.751498 116.403705 L 118.851048 115.854219 L 118.946587 115.306430 L 119.038162 114.760343 L 119.125818 114.215967 L 119.209600 113.673308 L 119.289550 113.132371 L 119.365714 112.593161 L 119.438133 112.055685 L 119.506849 111.519946 L 119.571905 110.985948 L 119.633341 110.453696 L 119.691197 109.923192 L 119.745515 109.394439 L 119.796332 108.867440 L 119.843689 108.342196 L 119.887623 107.818710 L 119.928171 107.296983 L 119.965372 106.777016 L 119.999262 106.258809 L 120.029877 105.742363 L 120.057252 105.227679 L 120.081424 104.714755 L 120.102426 104.203592 L 120.120292 103.694188 L 120.135057 103.186543 L 120.146754 102.680655 L 120.155414 102.176523 L 120.161071 101.674146 L 120.163755 101.173520 L 120.163499 100.674644 L 120.160332 100.177515 L 120.154286 99.682131 L 120.145390 99.188489 L 120.133673 98.696586 L 120.119164 98.206418 L 120.101892 97.717983 L 120.081885 97.231276 L 120.059170 96.746294 L 120.033775 96.263033 L 120.005726 95.781489 L 119.975049 95.301658 L 119.941771 94.823536 L 119.905917 94.347117 L 119.867512 93.872398 L 119.826581 93.399373 L 119.783148 92.928039 L 119.737237 92.458390 L 119.688871 91.990420 L 119.638074 91.524125 L 119.584868 91.059500 L 119.529275 90.596540 L 119.471319 90.135238 L 119.411019 89.675590 L 119.348398 89.217589 L 119.283476 88.761231 L 119.216275 88.306509 L 119.146813 87.853418 L 119.075112 87.401953 L 119.001190 86.952106 L 118.925067 86.503872 L 118.846761 86.057246 L 118.766292 85.612221 L 118.683676 85.168790 L 118.598933 84.726949 L 118.512079 84.286691 L 118.423132 83.848010 L 118.332109 83.410899 L 118.239027 82.975352 L 118.143901 82.541364 L 118.046748 82.108927 L 117.947583 81.678036 L 117.846422 81.248684 L 117.743280 80.820865 L 117.638172 80.394572 L 117.531112 79.969800 L 117.422114 79.546542 L 117.311194 79.124791 L 117.198363 78.704542 L 117.083637 78.285788 L 116.967027 77.868522 L 116.848548 77.452739 L 116.728211 77.038431 L 116.606029 76.625594 L 116.482014 76.214220 L 116.356178 75.804303 L 116.228533 75.395838 L 116.099089 74.988817 L 115.967860 74.583234 L 115.834854 74.179084 L 115.700083 73.776361 L 115.563557 73.375057 L 115.425287 72.975167 L 115.285283 72.576686 L 115.143554 72.179606 L 115.000109 71.783922 L 114.854959 71.389628 L 114.708111 70.996718 L 114.559576 70.605186 L 114.409361 70.215026 L 114.257476 69.826232 L 114.103928 69.438799 L 113.948725 69.052721 L 113.791876 68.667992 L 113.633387 68.284607 L 113.473267 67.902559 L 113.311522 67.521844 L 113.148159 67.142456 L 112.983185 66.764388 L 112.816608 66.387637 L 112.648433 66.012197 L 112.478666 65.638061 L 112.307314 65.265226 L 112.134382 64.893685 L 111.959876 64.523434 L 111.783802 64.154468 L 111.606165 63.786781 L 111.426970 63.420369 L 111.246222 63.055226 L 111.063925 62.691348 L 110.880085 62.328730 L 110.694706 61.967368 L 110.507792 61.607256 L 110.319347 61.248390 L 110.129375 60.890765 L 109.937880 60.534378 L 109.744866 60.179223 L 109.550335 59.825297 L 109.354291 59.472594 L 109.156738 59.121111 L 108.957678 58.770845 L 108.757114 58.421789 L 108.555048 58.073942 L 108.351484 57.727298 L 108.146423 57.381854 L 107.939868 57.037607 L 107.731820 56.694552 L 107.522282 56.352686 L 107.311255 56.012005 L 107.098741 55.672507 L 106.884740 55.334187 L 106.669256 54.997042 L 106.452288 54.661070 L 106.233838 54.326266 L 106.013906 53.992629 L 105.792493 53.660154 L 105.569600 53.328840 L 105.345227 52.998683 L 105.119374 52.669681 L 104.892042 52.341831 L 104.663231 52.015130 L 104.432940 51.689577 L 104.201170 51.365169 L 103.967919 51.041903 L 103.733187 50.719777 L 103.496975 50.398790 L 103.259280 50.078939 L 103.020102 49.760222 L 102.779439 49.442639 L 102.537292 49.126186 L 102.293658 48.810863 L 102.048536 48.496667 L 101.801924 48.183599 L 101.553821 47.871655 L 101.304225 47.560836 L 101.053134 47.251140 L 100.800545 46.942566 L 100.546458 46.635113 L 100.290869 46.328780 L 100.033775 46.023567 L 99.775176 45.719474 L 99.515067 45.416499 L 99.253446 45.114642 L 98.990310 44.813904 L 98.725655 44.514284 L 98.459480 44.215782 L 98.191781 43.918399 L 97.922553 43.622134 L 97.651795 43.326987 L 97.379501 43.032960 L 97.105669 42.740054 L 96.830294 42.448267 L 96.553372 42.157602 L 96.274900 41.868060 L 95.994874 41.579641 L 95.713288 41.292347 L 95.430139 41.006180 L 95.145422 40.721139 L 94.859132 40.437228 L 94.571264 40.154448 L 94.281815 39.872801 L 93.990778 39.592289 L 93.698149 39.312914 L 93.403922 39.034678 L 93.108093 38.757584 L 92.810655 38.481634 L 92.511603 38.206832 L 92.210932 37.933179 L 91.908636 37.660679 L 91.604709 37.389335 L 91.299145 37.119151 L 90.991938 36.850130 L 90.683082 36.582275 L 90.372570 36.315591 L 90.060397 36.050080 L 89.746555 35.785749 L 89.431039 35.522599 L 89.113841 35.260637 L 88.794955 34.999867 L 88.474374 34.740293 L 88.152091 34.481920 L 87.828098 34.224754 L 87.502389 33.968800 L 87.174957 33.714063 L 86.845793 33.460548 L 86.514891 33.208263 L 86.182243 32.957212 L 85.847841 32.707402 L 85.511678 32.458840 L 85.173745 32.211531 L 84.834035 31.965484 L 84.492539 31.720703 L 84.149250 31.477198 L 83.804160 31.234975 L 83.457259 30.994042 L 83.108540 30.754406 L 82.757993 30.516076 L 82.405611 30.279060 L 82.051385 30.043367 L 81.695306 29.809004 L 81.337365 29.575981 L 80.977553 29.344307 L 80.615861 29.113991 L 80.252280 28.885043 L 79.886801 28.657473 L 79.519414 28.431291 L 79.150110 28.206506 L 78.778881 27.983131 L 78.405715 27.761174 L 78.030604 27.540648 L 77.653538 27.321563 L 77.274507 27.103932 L 76.893501 26.887765 L 76.510511 26.673076 L 76.125526 26.459876 L 75.738537 26.248178 L 75.349533 26.037995 L 74.958504 25.829341 L 74.565440 25.622228 L 74.170331 25.416670 L 73.773166 25.212682 L 73.373935 25.010277 L 72.972627 24.809471 L 72.569233 24.610279 L 72.163740 24.412715 L 71.756140 24.216795 L 71.346420 24.022536 L 70.934571 23.829953 L 70.520581 23.639063 L 70.104440 23.449883 L 69.686136 23.262431 L 69.265660 23.076723 L 68.842999 22.892777 L 68.418144 22.710613 L 67.991083 22.530249 L 67.561805 22.351703 L 67.130299 22.174995 L 66.696554 22.000145 L 66.260559 21.827173 L 65.822302 21.656100 L 65.381774 21.486946 L 64.938962 21.319732 L 64.493856 21.154481 L 64.046444 20.991215 L 63.596715 20.829956 L 63.144659 20.670727 L 62.690264 20.513552 L 62.233519 20.358453 L 61.774414 20.205457 L 61.312936 20.054587 L 60.849076 19.905868 L 60.382822 19.759326 L 59.914163 19.614987 L 59.443088 19.472878 L 58.969588 19.333026 L 58.493650 19.195457 L 58.015264 19.060201 L 57.534420 18.927286 L 57.051108 18.796740 L 56.565316 18.668593 L 56.077034 18.542876 L 55.586252 18.419618 L 55.092960 18.298851 L 54.597148 18.180606 L 54.098806 18.064916 L 53.597925 17.951813 L 53.094493 17.841330 L 52.588503 17.733502 L 52.079943 17.628362 L 51.568807 17.525946 L 51.055083 17.426290 L 50.538764 17.329428 L 50.019840 17.235399 L 49.498303 17.144239 L 48.974145 17.055987 L 48.447358 16.970681 L 47.917933 16.888361 L 47.385864 16.809065 L 46.851142 16.732836 L 46.313761 16.659714 L 45.773713 16.589740 L 45.230993 16.522958 L 44.685594 16.459411 L 44.137509 16.399142 L 43.586734 16.342196 L 43.033262 16.288619 L 42.477090 16.238457 L 42.423802 16.234004" fill="none" id="tattoo-path-2514c8a018377ea7" stroke="#000000" stroke-linecap="round" stroke-linejoin="round" stroke-width="3.600000"/>
  <path clip-path="url(#tattoo-band-layer-clip)" d="M 119.641025 115.490275 L 119.276104 115.255693 L 118.810162 114.955307 L 118.348146 114.656603 L 117.889991 114.359557 L 117.435634 114.064147 L 116.985011 113.770350 L 116.538063 113.478146 L 116.094728 113.187511 L 115.654947 112.898425 L 115.218664 112.610867 L 114.785821 112.324816 L 114.356364 112.040251 L 113.930237 111.757152 L 113.507387 111.475499 L 113.087762 111.195272 L 112.671311 110.916452 L 112.257984 110.639019 L 111.847731 110.362955 L 111.440503 110.088241 L 111.036253 109.814858 L 110.634935 109.542789 L 110.236503 109.272014 L 109.840912 109.002516 L 109.448117 108.734277 L 109.058076 108.467281 L 108.670746 108.201510 L 108.286086 107.936947 L 107.904053 107.673575 L 107.524609 107.411378 L 107.147713 107.150339 L 106.773327 106.890443 L 106.401412 106.631673 L 106.031931 106.374013 L 105.664848 106.117449 L 105.300125 105.861964 L 104.937728 105.607543 L 104.577621 105.354172 L 104.219771 105.101836 L 103.864143 104.850519 L 103.510703 104.600208 L 103.159421 104.350888 L 102.810262 104.102544 L 102.463197 103.855164 L 102.118192 103.608732 L 101.775219 103.363236 L 101.434247 103.118662 L 101.095247 102.874996 L 100.758188 102.632225 L 100.423043 102.390336 L 100.089784 102.149316 L 99.758383 101.909153 L 99.428812 101.669833 L 99.101044 101.431343 L 98.775053 101.193673 L 98.450814 100.956809 L 98.128300 100.720739 L 97.807486 100.485450 L 97.488347 100.250933 L 97.170859 100.017173 L 96.854997 99.784160 L 96.540738 99.551882 L 96.228058 99.320328 L 95.916935 99.089487 L 95.607345 98.859346 L 95.299266 98.629895 L 94.992677 98.401124 L 94.687554 98.173020 L 94.383877 97.945574 L 94.081625 97.718774 L 93.780776 97.492610 L 93.481310 97.267072 L 93.183207 97.042149 L 92.886447 96.817830 L 92.591010 96.594106 L 92.296877 96.370966 L 92.004028 96.148400 L 91.712444 95.926399 L 91.422107 95.704952 L 91.132998 95.484049 L 90.845099 95.263682 L 90.558392 95.043839 L 90.272859 94.824512 L 89.988483 94.605692 L 89.705247 94.387367 L 89.423133 94.169531 L 89.142124 93.952172 L 88.862204 93.735282 L 88.583357 93.518852 L 88.305566 93.302872 L 88.028815 93.087334 L 87.753088 92.872228 L 87.478370 92.657547 L 87.204645 92.443280 L 86.931897 92.229419 L 86.660112 92.015956 L 86.389275 91.802881 L 86.119371 91.590187 L 85.850385 91.377864 L 85.582304 91.165904 L 85.315111 90.954299 L 85.048794 90.743040 L 84.783339 90.532119 L 84.518731 90.321527 L 84.254958 90.111257 L 83.992005 89.901300 L 83.729859 89.691648 L 83.468506 89.482293 L 83.207935 89.273226 L 82.948131 89.064441 L 82.689082 88.855927 L 82.430775 88.647679 L 82.173198 88.439687 L 81.916338 88.231944 L 81.660183 88.024443 L 81.404720 87.817174 L 81.149938 87.610131 L 80.895825 87.403305 L 80.642367 87.196689 L 80.389555 86.990275 L 80.137376 86.784056 L 79.885818 86.578023 L 79.634870 86.372169 L 79.384521 86.166487 L 79.134759 85.960969 L 78.885574 85.755608 L 78.636953 85.550395 L 78.388887 85.345323 L 78.141364 85.140385 L 77.894373 84.935573 L 77.647904 84.730881 L 77.401946 84.526299 L 77.156489 84.321821 L 76.911521 84.117440 L 76.667033 83.913148 L 76.423015 83.708937 L 76.179455 83.504800 L 75.936344 83.300731 L 75.693671 83.096720 L 75.451427 82.892762 L 75.209602 82.688848 L 74.968185 82.484972 L 74.727167 82.281125 L 74.486538 82.077302 L 74.246288 81.873493 L 74.006408 81.669692 L 73.766888 81.465891 L 73.527718 81.262084 L 73.288889 81.058262 L 73.050391 80.854419 L 72.812215 80.650547 L 72.574352 80.446638 L 72.336792 80.242686 L 72.099526 80.038682 L 71.862544 79.834620 L 71.625839 79.630492 L 71.389400 79.426290 L 71.153218 79.222008 L 70.917284 79.017638 L 70.681590 78.813171 L 70.446126 78.608602 L 70.210883 78.403922 L 69.975852 78.199123 L 69.741025 77.994199 L 69.506393 77.789142 L 69.271946 77.583944 L 69.037676 77.378597 L 68.803575 77.173094 L 68.569633 76.967428 L 68.335842 76.761591 L 68.102192 76.555574 L 67.868676 76.349371 L 67.635285 76.142973 L 67.402010 75.936373 L 67.168842 75.729563 L 66.935773 75.522535 L 66.702794 75.315282 L 66.469896 75.107795 L 66.237072 74.900067 L 66.004312 74.692089 L 65.771608 74.483853 L 65.538951 74.275352 L 65.306334 74.066577 L 65.073746 73.857521 L 64.841181 73.648175 L 64.608628 73.438531 L 64.376081 73.228580 L 64.143530 73.018314 L 63.910966 72.807726 L 63.678382 72.596806 L 63.445768 72.385546 L 63.213117 72.173938 L 62.980419 71.961973 L 62.747667 71.749643 L 62.514851 71.536938 L 62.281963 71.323850 L 62.048995 71.110371 L 61.815938 70.896491 L 61.582783 70.682202 L 61.349522 70.467494 L 61.116146 70.252358 L 60.882647 70.036786 L 60.649016 69.820769 L 60.415244 69.604296 L 60.181323 69.387359 L 59.947243 69.169949 L 59.712997 68.952055 L 59.478576 68.733668 L 59.243970 68.514780 L 59.009171 68.295379 L 58.774170 68.075457 L 58.538958 67.855003 L 58.303527 67.634007 L 58.067868 67.412460 L 57.831971 67.190351 L 57.595828 66.967670 L 57.359429 66.744406 L 57.122766 66.520551 L 56.885829 66.296092 L 56.648610 66.071019 L 56.411099 65.845322 L 56.173287 65.618989 L 55.935165 65.392010 L 55.696724 65.164374 L 55.457953 64.936070 L 55.218845 64.707086 L 54.979388 64.477411 L 54.739575 64.247034 L 54.499395 64.015943 L 54.258839 63.784126 L 54.017897 63.551571 L 53.776560 63.318267 L 53.534817 63.084201 L 53.292660 62.849362 L 53.050077 62.613736 L 52.807059 62.377311 L 52.563597 62.140075 L 52.319680 61.902014 L 52.075297 61.663117 L 51.830439 61.423369 L 51.585096 61.182757 L 51.339257 60.941269 L 51.092911 60.698890 L 50.846049 60.455607 L 50.598660 60.211406 L 50.350732 59.966273 L 50.102256 59.720194 L 49.853220 59.473153 L 49.603613 59.225137 L 49.353425 58.976132 L 49.102645 58.726121 L 48.851261 58.475089 L 48.599262 58.223022 L 48.346636 57.969904 L 48.093373 57.715720 L 47.839461 57.460452 L 47.584887 57.204085 L 47.329641 56.946603 L 47.073710 56.687989 L 46.817083 56.428226 L 46.559747 56.167297 L 46.301690 55.905185 L 46.042900 55.641872 L 45.783364 55.377340 L 45.523071 55.111573 L 45.262006 54.844550 L 45.000158 54.576254 L 44.737513 54.306666 L 44.474059 54.035766 L 44.209782 53.763536 L 43.944669 53.489956 L 43.678706 53.215006 L 43.411880 52.938665 L 43.144177 52.660914 L 42.875584 52.381731 L 42.606086 52.101095 L 42.335669 51.818985 L 42.064318 51.535378 L 41.792020 51.250254 L 41.518760 50.963589 L 41.244522 50.675360 L 40.969291 50.385545 L 40.693054 50.094120 L 40.415793 49.801060 L 40.137495 49.506343 L 39.858142 49.209942 L 39.577720 48.911833 L 39.296211 48.611991 L 39.013601 48.310389 L 38.729872 48.007002 L 38.445007 47.701802 L 38.158991 47.394763 L 37.871806 47.085856 L 37.583434 46.775054 L 37.293858 46.462328 L 37.003060 46.147649 L 36.711023 45.830988 L 36.417729 45.512314 L 36.123158 45.191596 L 35.827292 44.868805 L 35.530114 44.543907 L 35.231602 44.216872 L 34.931739 43.887665 L 34.630503 43.556254 L 34.327877 43.222605 L 34.023839 42.886684 L 33.718369 42.548454 L 33.411446 42.207881 L 33.103050 41.864927 L 32.793158 41.519556 L 32.481751 41.171731 L 32.168805 40.821411 L 31.854299 40.468559 L 31.538210 40.113133 L 31.220516 39.755094 L 30.901193 39.394401 L 30.580218 39.031009 L 30.257567 38.664878 L 29.933216 38.295962 L 29.607141 37.924217 L 29.279318 37.549597 L 28.949720 37.172056 L 28.618322 36.791547 L 28.285099 36.408020 L 27.950025 36.021426 L 27.613072 35.631716 L 27.274213 35.238838 L 26.933422 34.842740 L 26.590670 34.443367 L 26.245930 34.040666 L 25.899171 33.634581 L 25.550366 33.225055 L 25.199485 32.812029 L 24.846497 32.395446 L 24.491373 31.975244 L 24.134080 31.551362 L 23.854923 31.219296" fill="none" id="tattoo-path-076cca80db81b77f" stroke="#000000" stroke-linecap="round" stroke-linejoin="round" stroke-width="3.100000"/>
  <path clip-path="url(#tattoo-band-layer-clip)" d="M 133.369680 91.613401 L 133.193534 91.306226 L 132.914280 90.825183 L 132.634089 90.348349 L 132.352991 89.875675 L 132.071017 89.407116 L 131.788193 88.942627 L 131.504549 88.482163 L 131.220110 88.025679 L 130.934904 87.573131 L 130.648954 87.124476 L 130.362286 86.679671 L 130.074923 86.238674 L 129.786888 85.801443 L 129.498204 85.367936 L 129.208892 84.938113 L 128.918973 84.511933 L 128.628468 84.089357 L 128.337395 83.670344 L 128.045774 83.254857 L 127.753624 82.842856 L 127.460962 82.434303 L 127.167805 82.029162 L 126.874171 81.627395 L 126.580074 81.228966 L 126.285532 80.833838 L 125.990558 80.441976 L 125.695168 80.053345 L 125.399376 79.667909 L 125.103194 79.285635 L 124.806637 78.906489 L 124.509717 78.530437 L 124.212446 78.157447 L 123.914836 77.787484 L 123.616898 77.420519 L 123.318644 77.056518 L 123.020083 76.695450 L 122.721226 76.337285 L 122.422083 75.981992 L 122.122663 75.629540 L 121.822975 75.279901 L 121.523028 74.933043 L 121.222831 74.588940 L 120.922390 74.247561 L 120.621714 73.908880 L 120.320810 73.572867 L 120.019686 73.239495 L 119.718347 72.908738 L 119.416801 72.580569 L 119.115053 72.254960 L 118.813109 71.931886 L 118.510975 71.611322 L 118.208656 71.293242 L 117.906157 70.977620 L 117.603484 70.664433 L 117.300639 70.353656 L 116.997629 70.045264 L 116.694456 69.739234 L 116.391124 69.435543 L 116.087638 69.134168 L 115.784000 68.835085 L 115.480213 68.538273 L 115.176281 68.243708 L 114.872206 67.951370 L 114.567991 67.661237 L 114.263638 67.373287 L 113.959148 67.087499 L 113.654525 66.803854 L 113.349769 66.522329 L 113.044883 66.242905 L 112.739867 65.965563 L 112.434724 65.690283 L 112.129453 65.417045 L 111.824055 65.145830 L 111.518532 64.876620 L 111.212884 64.609396 L 110.907112 64.344140 L 110.601215 64.080833 L 110.295193 63.819458 L 109.989048 63.559998 L 109.682777 63.302435 L 109.376382 63.046752 L 109.069862 62.792933 L 108.763215 62.540960 L 108.456442 62.290818 L 108.149541 62.042491 L 107.842511 61.795962 L 107.535352 61.551216 L 107.228062 61.308238 L 106.920639 61.067012 L 106.613083 60.827523 L 106.305392 60.589757 L 105.997563 60.353700 L 105.689596 60.119336 L 105.381488 59.886652 L 105.073237 59.655634 L 104.764842 59.426268 L 104.456299 59.198541 L 104.147607 58.972439 L 103.838763 58.747950 L 103.529765 58.525060 L 103.220610 58.303757 L 102.911296 58.084028 L 102.601819 57.865861 L 102.292177 57.649244 L 101.982367 57.434164 L 101.672386 57.220611 L 101.362230 57.008573 L 101.051897 56.798037 L 100.741383 56.588994 L 100.430685 56.381431 L 100.119799 56.175339 L 99.808722 55.970706 L 99.497450 55.767522 L 99.185979 55.565776 L 98.874306 55.365459 L 98.562427 55.166561 L 98.250339 54.969071 L 97.938036 54.772980 L 97.625515 54.578278 L 97.312772 54.384957 L 96.999802 54.193006 L 96.686602 54.002418 L 96.373167 53.813182 L 96.059493 53.625291 L 95.745574 53.438736 L 95.431408 53.253509 L 95.116988 53.069600 L 94.802311 52.887003 L 94.487372 52.705709 L 94.172165 52.525710 L 93.856687 52.347000 L 93.540931 52.169569 L 93.224894 51.993412 L 92.908570 51.818521 L 92.591954 51.644888 L 92.275041 51.472507 L 91.957825 51.301372 L 91.640302 51.131475 L 91.322466 50.962810 L 91.004311 50.795371 L 90.685833 50.629152 L 90.367025 50.464146 L 90.047883 50.300348 L 89.728400 50.137752 L 89.408570 49.976352 L 89.088389 49.816142 L 88.767851 49.657119 L 88.446948 49.499275 L 88.125676 49.342607 L 87.804029 49.187108 L 87.482001 49.032776 L 87.159584 48.879603 L 86.836775 48.727587 L 86.513565 48.576723 L 86.189949 48.427006 L 85.865921 48.278433 L 85.541474 48.130999 L 85.216602 47.984700 L 84.891299 47.839533 L 84.565557 47.695494 L 84.239371 47.552580 L 83.912733 47.410787 L 83.585637 47.270112 L 83.258077 47.130552 L 82.930045 46.992104 L 82.601534 46.854765 L 82.272539 46.718532 L 81.943051 46.583404 L 81.613064 46.449377 L 81.282570 46.316449 L 80.951563 46.184618 L 80.620035 46.053882 L 80.287980 45.924238 L 79.955389 45.795687 L 79.622255 45.668224 L 79.288572 45.541850 L 78.954331 45.416563 L 78.619525 45.292361 L 78.284147 45.169243 L 77.948188 45.047209 L 77.611642 44.926257 L 77.274500 44.806387 L 76.936754 44.687598 L 76.598397 44.569890 L 76.259421 44.453262 L 75.919817 44.337715 L 75.579578 44.223248 L 75.238696 44.109861 L 74.897162 43.997555 L 74.554968 43.886330 L 74.212106 43.776186 L 73.868568 43.667125 L 73.524344 43.559146 L 73.179427 43.452252 L 72.833809 43.346442 L 72.487479 43.241718 L 72.140431 43.138083 L 71.792655 43.035536 L 71.444142 42.934080 L 71.094883 42.833716 L 70.744870 42.734447 L 70.394094 42.636275 L 70.042545 42.539202 L 69.690214 42.443230 L 69.337093 42.348362 L 68.983171 42.254601 L 68.628440 42.161949 L 68.272891 42.070409 L 67.916513 41.979986 L 67.559298 41.890682 L 67.201236 41.802500 L 66.842316 41.715445 L 66.482530 41.629519 L 66.121868 41.544728 L 65.760319 41.461076 L 65.397875 41.378566 L 65.034524 41.297203 L 64.670257 41.216993 L 64.305064 41.137939 L 63.938934 41.060048 L 63.571857 40.983323 L 63.203824 40.907771 L 62.834822 40.833397 L 62.464843 40.760208 L 62.093875 40.688208 L 61.721908 40.617404 L 61.348931 40.547803 L 60.974933 40.479411 L 60.599904 40.412235 L 60.223832 40.346281 L 59.846706 40.281558 L 59.468516 40.218072 L 59.089251 40.155830 L 58.708898 40.094842 L 58.327447 40.035114 L 57.944886 39.976655 L 57.561204 39.919473 L 57.176389 39.863577 L 56.790431 39.808976 L 56.403316 39.755679 L 56.015033 39.703695 L 55.625571 39.653034 L 55.234917 39.603706 L 54.843060 39.555721 L 54.449987 39.509088 L 54.055686 39.463820 L 53.660145 39.419926 L 53.263352 39.377417 L 52.865294 39.336305 L 52.465959 39.296602 L 52.065335 39.258318 L 51.663408 39.221468 L 51.260165 39.186062 L 50.855595 39.152113 L 50.449685 39.119636 L 50.042420 39.088642 L 49.633789 39.059145 L 49.223778 39.031159 L 48.812375 39.004699 L 48.399564 38.979779 L 47.985335 38.956413 L 47.569673 38.934617 L 47.152564 38.914407 L 46.733995 38.895797 L 46.313953 38.878804 L 45.892423 38.863445 L 45.469392 38.849736 L 45.044847 38.837695 L 44.618773 38.827338 L 44.191156 38.818685 L 43.761982 38.811752 L 43.331237 38.806559 L 42.898907 38.803125 L 42.464978 38.801469 L 42.029435 38.801611 L 41.592264 38.803570 L 41.153450 38.807369 L 40.712980 38.813027 L 40.270838 38.820566 L 39.827009 38.830008 L 39.381480 38.841375 L 38.934235 38.854691 L 38.485260 38.869978 L 38.034539 38.887259 L 37.582058 38.906560 L 37.127803 38.927905 L 36.671757 38.951319 L 36.213906 38.976827 L 35.754235 39.004456 L 35.292729 39.034232 L 34.829373 39.066182 L 34.364151 39.100335 L 33.897049 39.136718 L 33.428051 39.175361 L 32.957142 39.216292 L 32.484307 39.259542 L 32.009530 39.305141 L 31.532797 39.353120 L 31.054091 39.403511 L 30.573399 39.456347 L 30.090704 39.511660 L 29.605992 39.569484 L 29.119247 39.629853 L 28.630454 39.692803 L 28.139598 39.758368 L 27.646663 39.826585 L 27.151635 39.897491 L 26.654499 39.971125 L 26.155240 40.047523 L 25.653843 40.126727 L 25.150292 40.208774 L 24.644574 40.293707 L 24.136674 40.381566 L 23.626576 40.472395 L 23.114267 40.566235 L 22.599732 40.663132 L 22.082957 40.763129 L 21.563928 40.866273 L 21.042631 40.972609 L 20.519051 41.082186 L 19.993176 41.195052 L 19.464992 41.311255 L 18.934486 41.430846 L 18.401644 41.553877 L 17.866454 41.680399 L 17.328903 41.810464 L 16.788978 41.944129 L 16.445715 42.031046" fill="none" id="tattoo-path-e2e8146992616a31" stroke="#000000" stroke-linecap="round" stroke-linejoin="round" stroke-width="2.500000"/>
  <path clip-path="url(#tattoo-band-layer-clip)" d="M 68.829890 136.194351 L 68.909968 136.066698 L 69.204131 135.593820 L 69.494534 135.123064 L 69.781239 134.654410 L 70.064305 134.187841 L 70.343790 133.723338 L 70.619752 133.260881 L 70.892247 132.800453 L 71.161329 132.342035 L 71.427053 131.885608 L 71.689471 131.431153 L 71.948636 130.978652 L 72.204597 130.528086 L 72.457405 130.079437 L 72.707108 129.632686 L 72.953754 129.187815 L 73.197390 128.744805 L 73.438062 128.303637 L 73.675814 127.864294 L 73.910691 127.426757 L 74.142736 126.991008 L 74.371991 126.557028 L 74.598499 126.124800 L 74.822300 125.694306 L 75.043433 125.265527 L 75.261938 124.838446 L 75.477854 124.413045 L 75.691219 123.989306 L 75.902068 123.567212 L 76.110439 123.146744 L 76.316368 122.727886 L 76.519888 122.310620 L 76.721036 121.894929 L 76.919843 121.480795 L 77.116343 121.068202 L 77.310569 120.657133 L 77.502552 120.247570 L 77.692323 119.839496 L 77.879914 119.432896 L 78.065353 119.027752 L 78.248671 118.624047 L 78.429896 118.221766 L 78.609057 117.820893 L 78.786181 117.421409 L 78.961297 117.023301 L 79.134430 116.626550 L 79.305607 116.231143 L 79.474854 115.837062 L 79.642196 115.444292 L 79.807659 115.052817 L 79.971266 114.662622 L 80.133042 114.273692 L 80.293010 113.886010 L 80.451193 113.499562 L 80.607614 113.114332 L 80.762296 112.730305 L 80.915260 112.347467 L 81.066528 111.965803 L 81.216120 111.585297 L 81.364058 111.205935 L 81.510362 110.827702 L 81.655052 110.450585 L 81.798147 110.074567 L 81.939668 109.699636 L 82.079632 109.325777 L 82.218058 108.952976 L 82.354964 108.581218 L 82.490370 108.210490 L 82.624291 107.840778 L 82.756746 107.472068 L 82.887750 107.104346 L 83.017322 106.737599 L 83.145478 106.371814 L 83.272232 106.006976 L 83.397602 105.643072 L 83.521603 105.280090 L 83.644249 104.918015 L 83.765557 104.556835 L 83.885540 104.196537 L 84.004213 103.837108 L 84.121590 103.478535 L 84.237685 103.120804 L 84.352512 102.763904 L 84.466084 102.407822 L 84.578414 102.052545 L 84.689516 101.698060 L 84.799401 101.344355 L 84.908083 100.991419 L 85.015573 100.639237 L 85.121884 100.287799 L 85.227028 99.937092 L 85.331016 99.587104 L 85.433858 99.237823 L 85.535568 98.889236 L 85.636155 98.541333 L 85.735630 98.194101 L 85.834004 97.847528 L 85.931287 97.501603 L 86.027490 97.156314 L 86.122622 96.811649 L 86.216693 96.467597 L 86.309713 96.124147 L 86.401691 95.781286 L 86.492637 95.439004 L 86.582559 95.097289 L 86.671466 94.756130 L 86.759368 94.415516 L 86.846272 94.075435 L 86.932187 93.735877 L 87.017122 93.396829 L 87.101084 93.058283 L 87.184082 92.720225 L 87.266122 92.382646 L 87.347214 92.045534 L 87.427363 91.708879 L 87.506578 91.372669 L 87.584866 91.036894 L 87.662233 90.701544 L 87.738686 90.366607 L 87.814233 90.032073 L 87.888880 89.697932 L 87.962632 89.364172 L 88.035498 89.030783 L 88.107482 88.697755 L 88.178590 88.365077 L 88.248829 88.032738 L 88.318205 87.700729 L 88.386722 87.369039 L 88.454387 87.037657 L 88.521205 86.706573 L 88.587181 86.375777 L 88.652321 86.045259 L 88.716628 85.715008 L 88.780108 85.385014 L 88.842767 85.055267 L 88.904608 84.725756 L 88.965636 84.396472 L 89.025855 84.067405 L 89.085270 83.738543 L 89.143885 83.409878 L 89.201704 83.081398 L 89.258731 82.753095 L 89.314969 82.424957 L 89.370423 82.096975 L 89.425096 81.769139 L 89.478992 81.441438 L 89.532113 81.113863 L 89.584463 80.786404 L 89.636046 80.459051 L 89.686865 80.131793 L 89.736921 79.804620 L 89.786219 79.477524 L 89.834761 79.150493 L 89.882549 78.823518 L 89.929587 78.496589 L 89.975876 78.169695 L 90.021419 77.842828 L 90.066218 77.515976 L 90.110275 77.189130 L 90.153592 76.862280 L 90.196172 76.535416 L 90.238016 76.208528 L 90.279125 75.881606 L 90.319501 75.554640 L 90.359147 75.227619 L 90.398062 74.900535 L 90.436249 74.573377 L 90.473709 74.246135 L 90.510442 73.918798 L 90.546451 73.591358 L 90.581735 73.263803 L 90.616296 72.936124 L 90.650134 72.608311 L 90.683250 72.280353 L 90.715644 71.952240 L 90.747317 71.623962 L 90.778269 71.295510 L 90.808501 70.966872 L 90.838012 70.638039 L 90.866802 70.309001 L 90.894872 69.979746 L 90.922221 69.650266 L 90.948849 69.320549 L 90.974755 68.990585 L 90.999939 68.660364 L 91.024401 68.329875 L 91.048140 67.999108 L 91.071154 67.668053 L 91.093443 67.336699 L 91.115007 67.005035 L 91.135843 66.673052 L 91.155951 66.340737 L 91.175329 66.008082 L 91.193976 65.675074 L 91.211890 65.341704 L 91.229070 65.007960 L 91.245514 64.673832 L 91.261221 64.339309 L 91.276187 64.004380 L 91.290411 63.669034 L 91.303891 63.333260 L 91.316625 62.997047 L 91.328610 62.660385 L 91.339844 62.323261 L 91.350323 61.985664 L 91.360046 61.647585 L 91.369009 61.309010 L 91.377210 60.969929 L 91.384644 60.630331 L 91.391310 60.290203 L 91.397204 59.949535 L 91.402321 59.608315 L 91.406659 59.266531 L 91.410214 58.924171 L 91.412982 58.581224 L 91.414959 58.237678 L 91.416141 57.893521 L 91.416524 57.548741 L 91.416103 57.203325 L 91.414873 56.857263 L 91.412831 56.510541 L 91.409971 56.163148 L 91.406289 55.815070 L 91.401779 55.466296 L 91.396436 55.116813 L 91.390255 54.766609 L 91.383231 54.415670 L 91.375357 54.063984 L 91.366628 53.711539 L 91.357039 53.358321 L 91.346582 53.004317 L 91.335251 52.649514 L 91.323041 52.293899 L 91.309945 51.937459 L 91.295956 51.580180 L 91.281066 51.222049 L 91.265270 50.863053 L 91.248559 50.503176 L 91.230927 50.142407 L 91.212365 49.780730 L 91.192867 49.418133 L 91.172423 49.054600 L 91.151026 48.690118 L 91.128668 48.324672 L 91.105339 47.958248 L 91.081032 47.590831 L 91.055738 47.222407 L 91.029446 46.852961 L 91.002149 46.482478 L 90.973836 46.110942 L 90.944498 45.738340 L 90.914124 45.364655 L 90.882705 44.989873 L 90.850231 44.613977 L 90.816690 44.236952 L 90.782071 43.858783 L 90.746365 43.479453 L 90.709558 43.098946 L 90.671641 42.717246 L 90.632600 42.334337 L 90.592424 41.950202 L 90.551101 41.564825 L 90.508618 41.178189 L 90.464962 40.790278 L 90.420121 40.401073 L 90.374079 40.010557 L 90.326825 39.618714 L 90.278344 39.225526 L 90.228621 38.830976 L 90.177643 38.435044 L 90.125394 38.037714 L 90.071859 37.638967 L 90.017022 37.238785 L 89.960869 36.837149 L 89.903382 36.434040 L 89.844546 36.029440 L 89.784342 35.623330 L 89.722755 35.215691 L 89.659767 34.806502 L 89.595359 34.395745 L 89.529514 33.983400 L 89.462213 33.569447 L 89.393436 33.153865 L 89.323165 32.736634 L 89.251379 32.317734 L 89.178059 31.897145 L 89.103183 31.474844 L 89.026731 31.050811 L 88.948681 30.625025 L 88.869010 30.197464 L 88.787697 29.768106 L 88.704719 29.336929 L 88.620052 28.903912 L 88.533672 28.469031 L 88.445555 28.032265 L 88.355676 27.593590 L 88.264009 27.152983 L 88.170529 26.710421 L 88.075210 26.265881 L 87.978023 25.819339 L 87.878942 25.370770 L 87.777937 24.920151 L 87.674981 24.467458 L 87.570044 24.012664 L 87.463096 23.555747 L 87.354106 23.096680 L 87.243043 22.635438 L 87.129875 22.171996 L 87.014569 21.706327 L 86.897091 21.238406 L 86.777408 20.768206 L 86.655485 20.295700 L 86.531286 19.820862 L 86.404775 19.343665 L 86.275914 18.864081 L 86.144667 18.382083 L 86.010993 17.897642 L 85.874853 17.410731 L 85.736207 16.921321 L 85.595014 16.429383 L 85.451230 15.934890 L 85.304814 15.437810 L 85.155720 14.938116 L 85.003904 14.435777 L 84.849320 13.930763 L 84.691920 13.423045 L 84.531657 12.912591 L 84.368480 12.399372 L 84.202340 11.883355 L 84.033185 11.364511 L 83.860963 10.842807 L 83.685619 10.318212 L 83.507099 9.790693 L 83.458256 9.648137" fill="none" id="tattoo-path-f2d325791fffca08" stroke="#000000" stroke-linecap="round" stroke-linejoin="round" stroke-width="2.200000"/>
  <path clip-path="url(#tattoo-band-layer-clip)" d="M 135.140405 84.608659 L 134.620216 84.519158 L 134.074674 84.425205 L 133.533341 84.331888 L 132.996150 84.239197 L 132.463031 84.147122 L 131.933921 84.055655 L 131.408752 83.964786 L 130.887462 83.874505 L 130.369989 83.784803 L 129.856270 83.695673 L 129.346246 83.607104 L 128.839859 83.519089 L 128.337050 83.431619 L 127.837762 83.344686 L 127.341940 83.258282 L 126.849529 83.172399 L 126.360476 83.087028 L 125.874728 83.002163 L 125.392234 82.917796 L 124.912941 82.833918 L 124.436802 82.750524 L 123.963766 82.667605 L 123.493786 82.585154 L 123.026814 82.503166 L 122.562805 82.421631 L 122.101712 82.340545 L 121.643490 82.259900 L 121.188097 82.179689 L 120.735487 82.099907 L 120.285620 82.020546 L 119.838453 81.941601 L 119.393945 81.863065 L 118.952055 81.784933 L 118.512744 81.707197 L 118.075973 81.629854 L 117.641703 81.552895 L 117.209897 81.476317 L 116.780517 81.400113 L 116.353527 81.324278 L 115.928890 81.248805 L 115.506572 81.173691 L 115.086537 81.098929 L 114.668751 81.024514 L 114.253181 80.950442 L 113.839792 80.876706 L 113.428553 80.803302 L 113.019431 80.730225 L 112.612394 80.657470 L 112.207411 80.585033 L 111.804452 80.512908 L 111.403485 80.441090 L 111.004481 80.369576 L 110.607411 80.298361 L 110.212245 80.227439 L 109.818955 80.156807 L 109.427513 80.086461 L 109.037890 80.016395 L 108.650061 79.946606 L 108.263996 79.877089 L 107.879671 79.807840 L 107.497058 79.738855 L 107.116132 79.670130 L 106.736868 79.601662 L 106.359239 79.533445 L 105.983222 79.465476 L 105.608791 79.397751 L 105.235923 79.330267 L 104.864593 79.263019 L 104.494779 79.196003 L 104.126456 79.129217 L 103.759602 79.062657 L 103.394195 78.996318 L 103.030211 78.930197 L 102.667630 78.864290 L 102.306428 78.798595 L 101.946585 78.733108 L 101.588079 78.667825 L 101.230889 78.602742 L 100.874995 78.537857 L 100.520376 78.473166 L 100.167011 78.408666 L 99.814881 78.344354 L 99.463966 78.280226 L 99.114246 78.216279 L 98.765702 78.152510 L 98.418315 78.088916 L 98.072066 78.025494 L 97.726936 77.962241 L 97.382907 77.899153 L 97.039961 77.836228 L 96.698078 77.773463 L 96.357243 77.710854 L 96.017436 77.648399 L 95.678640 77.586095 L 95.340838 77.523939 L 95.004013 77.461928 L 94.668147 77.400060 L 94.333225 77.338331 L 93.999228 77.276739 L 93.666142 77.215280 L 93.333949 77.153953 L 93.002633 77.092754 L 92.672178 77.031682 L 92.342568 76.970732 L 92.013788 76.909902 L 91.685822 76.849191 L 91.358655 76.788595 L 91.032271 76.728111 L 90.706654 76.667737 L 90.381791 76.607471 L 90.057666 76.547309 L 89.734264 76.487250 L 89.411570 76.427291 L 89.089570 76.367429 L 88.768250 76.307662 L 88.447595 76.247987 L 88.127591 76.188402 L 87.808224 76.128905 L 87.489480 76.069493 L 87.171344 76.010163 L 86.853804 75.950914 L 86.536844 75.891742 L 86.220453 75.832646 L 85.904615 75.773623 L 85.589319 75.714670 L 85.274550 75.655786 L 84.960294 75.596968 L 84.646540 75.538214 L 84.333274 75.479521 L 84.020482 75.420888 L 83.708152 75.362311 L 83.396271 75.303788 L 83.084826 75.245318 L 82.773804 75.186898 L 82.463193 75.128525 L 82.152980 75.070198 L 81.843153 75.011914 L 81.533699 74.953671 L 81.224605 74.895467 L 80.915859 74.837299 L 80.607450 74.779166 L 80.299364 74.721065 L 79.991589 74.662993 L 79.684114 74.604949 L 79.376925 74.546930 L 79.070012 74.488935 L 78.763362 74.430960 L 78.456963 74.373005 L 78.150802 74.315066 L 77.844869 74.257141 L 77.539152 74.199229 L 77.233637 74.141326 L 76.928314 74.083432 L 76.623171 74.025543 L 76.318196 73.967657 L 76.013377 73.909773 L 75.708703 73.851888 L 75.404162 73.794000 L 75.099741 73.736107 L 74.795431 73.678206 L 74.491218 73.620296 L 74.187091 73.562373 L 73.883040 73.504437 L 73.579051 73.446485 L 73.275114 73.388514 L 72.971216 73.330522 L 72.667347 73.272508 L 72.363495 73.214469 L 72.059648 73.156402 L 71.755795 73.098306 L 71.451923 73.040179 L 71.148023 72.982017 L 70.844081 72.923820 L 70.540086 72.865584 L 70.236027 72.807308 L 69.931892 72.748989 L 69.627670 72.690625 L 69.323349 72.632213 L 69.018917 72.573752 L 68.714363 72.515239 L 68.409675 72.456672 L 68.104840 72.398049 L 67.799849 72.339367 L 67.494688 72.280623 L 67.189346 72.221817 L 66.883812 72.162945 L 66.578073 72.104005 L 66.272117 72.044994 L 65.965934 71.985911 L 65.659510 71.926753 L 65.352833 71.867517 L 65.045893 71.808202 L 64.738676 71.748804 L 64.431171 71.689322 L 64.123365 71.629752 L 63.815247 71.570093 L 63.506804 71.510342 L 63.198024 71.450497 L 62.888894 71.390554 L 62.579403 71.330512 L 62.269537 71.270369 L 61.959285 71.210120 L 61.648633 71.149765 L 61.337569 71.089300 L 61.026080 71.028723 L 60.714155 70.968031 L 60.401778 70.907221 L 60.088939 70.846291 L 59.775624 70.785239 L 59.461820 70.724061 L 59.147513 70.662755 L 58.832691 70.601319 L 58.517341 70.539748 L 58.201448 70.478042 L 57.884999 70.416196 L 57.567982 70.354208 L 57.250382 70.292075 L 56.932186 70.229795 L 56.613379 70.167364 L 56.293948 70.104780 L 55.973879 70.042039 L 55.653157 69.979139 L 55.331769 69.916077 L 55.009700 69.852849 L 54.686935 69.789453 L 54.363461 69.725886 L 54.039261 69.662143 L 53.714323 69.598224 L 53.388630 69.534123 L 53.062167 69.469838 L 52.734919 69.405366 L 52.406872 69.340703 L 52.078009 69.275846 L 51.748315 69.210793 L 51.417773 69.145538 L 51.086369 69.080080 L 50.754087 69.014414 L 50.420909 68.948538 L 50.086820 68.882447 L 49.751803 68.816138 L 49.415841 68.749608 L 49.078918 68.682852 L 48.741016 68.615868 L 48.402119 68.548651 L 48.062209 68.481197 L 47.721268 68.413504 L 47.379279 68.345567 L 47.036224 68.277382 L 46.692084 68.208945 L 46.346842 68.140252 L 46.000479 68.071300 L 45.652976 68.002083 L 45.304314 67.932599 L 44.954475 67.862842 L 44.603438 67.792809 L 44.251184 67.722495 L 43.897693 67.651896 L 43.542946 67.581007 L 43.186922 67.509824 L 42.829600 67.438343 L 42.470960 67.366559 L 42.110981 67.294467 L 41.749641 67.222062 L 41.386918 67.149340 L 41.022792 67.076296 L 40.657239 67.002925 L 40.290238 66.929221 L 39.921766 66.855181 L 39.551800 66.780799 L 39.180316 66.706069 L 38.807291 66.630986 L 38.432701 66.555546 L 38.056522 66.479742 L 37.678729 66.403569 L 37.299298 66.327021 L 36.918203 66.250093 L 36.535418 66.172780 L 36.150918 66.095074 L 35.764677 66.016971 L 35.376667 65.938464 L 34.986862 65.859548 L 34.595235 65.780215 L 34.201757 65.700460 L 33.806400 65.620276 L 33.409136 65.539657 L 33.009935 65.458596 L 32.608768 65.377086 L 32.205606 65.295121 L 31.800417 65.212694 L 31.393171 65.129797 L 30.983837 65.046424 L 30.572382 64.962567 L 30.158775 64.878219 L 29.742982 64.793372 L 29.324971 64.708018 L 28.904707 64.622151 L 28.482156 64.535761 L 28.057284 64.448842 L 27.630054 64.361384 L 27.200431 64.273379 L 26.768377 64.184820 L 26.333857 64.095696 L 25.896831 64.006000 L 25.457262 63.915723 L 25.015110 63.824856 L 24.570335 63.733388 L 24.122897 63.641312 L 23.672755 63.548616 L 23.219866 63.455292 L 22.764189 63.361330 L 22.305680 63.266719 L 21.844295 63.171450 L 21.379989 63.075511 L 20.912716 62.978892 L 20.442429 62.881581 L 19.969083 62.783569 L 19.492627 62.684843 L 19.013014 62.585393 L 18.530194 62.485205 L 18.044115 62.384269 L 17.554725 62.282572 L 17.061973 62.180101 L 16.565804 62.076844 L 16.066164 61.972788 L 15.562996 61.867920 L 15.056245 61.762225 L 14.545851 61.655691 L 14.031757 61.548303 L 13.513901 61.440048 L 12.992223 61.330909 L 12.466660 61.220872 L 11.937148 61.109923 L 11.403623 60.998045 L 10.866017 60.885222 L 10.324263 60.771439 L 9.807718 60.662863" fill="none" id="tattoo-path-aeeb5341674a185c" stroke="#000000" stroke-linecap="round" stroke-linejoin="round" stroke-width="1.900000"/>
  <path clip-path="url(#tattoo-band-layer-clip)" d="M 64.737465 135.826006 L 64.697640 135.594107 L 64.604769 135.045912 L 64.513802 134.501571 L 64.424703 133.961027 L 64.337434 133.424225 L 64.251962 132.891109 L 64.168250 132.361625 L 64.086267 131.835720 L 64.005978 131.313342 L 63.927353 130.794439 L 63.850359 130.278961 L 63.774967 129.766858 L 63.701147 129.258081 L 63.628869 128.752582 L 63.558106 128.250313 L 63.488829 127.751228 L 63.421013 127.255281 L 63.354631 126.762427 L 63.289657 126.272621 L 63.226066 125.785820 L 63.163833 125.301981 L 63.102936 124.821061 L 63.043350 124.343019 L 62.985053 123.867813 L 62.928023 123.395403 L 62.872238 122.925749 L 62.817677 122.458813 L 62.764318 121.994554 L 62.712143 121.532937 L 62.661131 121.073922 L 62.611263 120.617474 L 62.562520 120.163555 L 62.514884 119.712130 L 62.468336 119.263164 L 62.422860 118.816622 L 62.378438 118.372470 L 62.335053 117.930674 L 62.292689 117.491200 L 62.251330 117.054016 L 62.210960 116.619090 L 62.171564 116.186390 L 62.133127 115.755885 L 62.095635 115.327542 L 62.059073 114.901333 L 62.023426 114.477226 L 61.988682 114.055193 L 61.954828 113.635204 L 61.921849 113.217229 L 61.889734 112.801242 L 61.858469 112.387212 L 61.828044 111.975114 L 61.798445 111.564919 L 61.769661 111.156600 L 61.741681 110.750131 L 61.714493 110.345486 L 61.688087 109.942638 L 61.662452 109.541562 L 61.637578 109.142233 L 61.613454 108.744626 L 61.590071 108.348716 L 61.567418 107.954480 L 61.545486 107.561892 L 61.524267 107.170929 L 61.503750 106.781568 L 61.483927 106.393786 L 61.464789 106.007559 L 61.446328 105.622866 L 61.428535 105.239684 L 61.411403 104.857991 L 61.394923 104.477766 L 61.379087 104.098986 L 61.363888 103.721630 L 61.349319 103.345678 L 61.335371 102.971109 L 61.322039 102.597902 L 61.309315 102.226037 L 61.297193 101.855494 L 61.285665 101.486252 L 61.274726 101.118294 L 61.264368 100.751598 L 61.254586 100.386146 L 61.245374 100.021920 L 61.236726 99.658899 L 61.228636 99.297066 L 61.221098 98.936402 L 61.214108 98.576889 L 61.207659 98.218509 L 61.201746 97.861244 L 61.196364 97.505077 L 61.191509 97.149990 L 61.187175 96.795966 L 61.183357 96.442987 L 61.180052 96.091037 L 61.177254 95.740100 L 61.174958 95.390157 L 61.173162 95.041194 L 61.171860 94.693193 L 61.171048 94.346139 L 61.170723 94.000016 L 61.170881 93.654807 L 61.171517 93.310497 L 61.172628 92.967070 L 61.174211 92.624511 L 61.176262 92.282805 L 61.178777 91.941936 L 61.181754 91.601890 L 61.185188 91.262651 L 61.189078 90.924205 L 61.193420 90.586537 L 61.198210 90.249633 L 61.203447 89.913478 L 61.209127 89.578057 L 61.215248 89.243357 L 61.221807 88.909363 L 61.228802 88.576061 L 61.236229 88.243438 L 61.244088 87.911480 L 61.252375 87.580173 L 61.261088 87.249503 L 61.270225 86.919457 L 61.279785 86.590021 L 61.289764 86.261182 L 61.300162 85.932928 L 61.310976 85.605244 L 61.322205 85.278118 L 61.333847 84.951536 L 61.345901 84.625486 L 61.358364 84.299955 L 61.371235 83.974931 L 61.384514 83.650399 L 61.398198 83.326349 L 61.412286 83.002767 L 61.426778 82.679641 L 61.441671 82.356958 L 61.456966 82.034706 L 61.472661 81.712873 L 61.488754 81.391446 L 61.505246 81.070414 L 61.522135 80.749764 L 61.539420 80.429484 L 61.557102 80.109563 L 61.575178 79.789988 L 61.593650 79.470747 L 61.612515 79.151828 L 61.631775 78.833220 L 61.651428 78.514911 L 61.671474 78.196889 L 61.691912 77.879143 L 61.712744 77.561660 L 61.733968 77.244429 L 61.755584 76.927440 L 61.777593 76.610679 L 61.799994 76.294135 L 61.822788 75.977798 L 61.845975 75.661655 L 61.869555 75.345696 L 61.893527 75.029908 L 61.917894 74.714281 L 61.942654 74.398803 L 61.967809 74.083462 L 61.993359 73.768248 L 62.019305 73.453149 L 62.045646 73.138153 L 62.072385 72.823251 L 62.099521 72.508429 L 62.127056 72.193678 L 62.154989 71.878985 L 62.183324 71.564340 L 62.212059 71.249732 L 62.241196 70.935148 L 62.270737 70.620579 L 62.300683 70.306012 L 62.331034 69.991437 L 62.361793 69.676843 L 62.392959 69.362217 L 62.424536 69.047549 L 62.456524 68.732829 L 62.488924 68.418043 L 62.521739 68.103182 L 62.554970 67.788234 L 62.588619 67.473188 L 62.622687 67.158032 L 62.657177 66.842755 L 62.692090 66.527347 L 62.727428 66.211795 L 62.763193 65.896088 L 62.799388 65.580215 L 62.836014 65.264165 L 62.873074 64.947926 L 62.910570 64.631487 L 62.948504 64.314836 L 62.986879 63.997961 L 63.025697 63.680852 L 63.064961 63.363497 L 63.104673 63.045884 L 63.144837 62.728002 L 63.185454 62.409838 L 63.226528 62.091381 L 63.268062 61.772620 L 63.310058 61.453543 L 63.352520 61.134138 L 63.395451 60.814392 L 63.438853 60.494295 L 63.482731 60.173834 L 63.527088 59.852997 L 63.571926 59.531772 L 63.617250 59.210147 L 63.663063 58.888110 L 63.709369 58.565648 L 63.756171 58.242750 L 63.803474 57.919403 L 63.851281 57.595594 L 63.899596 57.271311 L 63.948423 56.946542 L 63.997767 56.621273 L 64.047632 56.295493 L 64.098021 55.969188 L 64.148941 55.642346 L 64.200394 55.314954 L 64.252385 54.986998 L 64.304921 54.658466 L 64.358004 54.329345 L 64.411640 53.999620 L 64.465834 53.669280 L 64.520592 53.338310 L 64.575917 53.006698 L 64.631817 52.674428 L 64.688295 52.341489 L 64.745358 52.007865 L 64.803011 51.673544 L 64.861260 51.338511 L 64.920111 51.002751 L 64.979569 50.666252 L 65.039641 50.328998 L 65.100333 49.990975 L 65.161652 49.652168 L 65.223603 49.312563 L 65.286193 48.972146 L 65.349429 48.630900 L 65.413318 48.288812 L 65.477866 47.945866 L 65.543081 47.602046 L 65.608970 47.257338 L 65.675540 46.911726 L 65.742799 46.565193 L 65.810754 46.217725 L 65.879414 45.869306 L 65.948785 45.519918 L 66.018876 45.169546 L 66.089695 44.818174 L 66.161251 44.465785 L 66.233552 44.112362 L 66.306607 43.757888 L 66.380424 43.402346 L 66.455013 43.045720 L 66.530383 42.687991 L 66.606543 42.329142 L 66.683503 41.969155 L 66.761272 41.608013 L 66.839860 41.245696 L 66.919278 40.882188 L 66.999536 40.517469 L 67.080643 40.151521 L 67.162612 39.784324 L 67.245452 39.415860 L 67.329175 39.046109 L 67.413792 38.675052 L 67.499314 38.302670 L 67.585754 37.928941 L 67.673123 37.553846 L 67.761434 37.177365 L 67.850699 36.799476 L 67.940930 36.420159 L 68.032141 36.039393 L 68.124344 35.657157 L 68.217553 35.273428 L 68.311783 34.888185 L 68.407046 34.501405 L 68.503357 34.113067 L 68.600730 33.723148 L 68.699180 33.331624 L 68.798723 32.938472 L 68.899374 32.543669 L 69.001148 32.147191 L 69.104061 31.749014 L 69.208131 31.349113 L 69.313372 30.947464 L 69.419803 30.544042 L 69.527440 30.138820 L 69.636302 29.731775 L 69.746406 29.322878 L 69.857771 28.912105 L 69.970415 28.499427 L 70.084358 28.084819 L 70.199619 27.668253 L 70.316219 27.249701 L 70.434177 26.829134 L 70.553514 26.406525 L 70.674251 25.981844 L 70.796411 25.555061 L 70.920015 25.126148 L 71.045085 24.695073 L 71.171646 24.261807 L 71.299720 23.826318 L 71.429331 23.388575 L 71.560504 22.948546 L 71.693264 22.506198 L 71.827637 22.061499 L 71.963648 21.614416 L 72.101325 21.164914 L 72.240694 20.712960 L 72.381784 20.258518 L 72.524623 19.801554 L 72.669241 19.342032 L 72.815666 18.879914 L 72.963929 18.415166 L 73.114062 17.947748 L 73.266096 17.477624 L 73.420063 17.004754 L 73.575998 16.529100 L 73.733933 16.050622 L 73.893904 15.569280 L 74.055946 15.085032 L 74.220095 14.597837 L 74.386388 14.107653 L 74.554864 13.614438 L 74.725562 13.118147 L 74.898520 12.618737 L 75.073780 12.116163 L 75.251384 11.610378 L 75.431374 11.101338 L 75.613793 10.588995 L 75.798687 10.073300 L 75.986101 9.554207 L 76.176082 9.031665 L 76.256977 8.810714" fill="none" id="tattoo-path-805125ee6516df9d" stroke="#000000" stroke-linecap="round" stroke-linejoin="round" stroke-width="1.600000"/>
  <path clip-path="url(#tattoo-band-layer-clip)" d="M 80.206925 135.832798 L 80.235455 135.429000 L 80.273718 134.875700 L 80.310880 134.326532 L 80.346964 133.781430 L 80.381990 133.240330 L 80.415982 132.703170 L 80.448960 132.169888 L 80.480944 131.640424 L 80.511956 131.114719 L 80.542013 130.592715 L 80.571135 130.074354 L 80.599341 129.559581 L 80.626648 129.048340 L 80.653074 128.540577 L 80.678635 128.036240 L 80.703350 127.535276 L 80.727233 127.037633 L 80.750301 126.543262 L 80.772568 126.052113 L 80.794050 125.564137 L 80.814762 125.079287 L 80.834717 124.597515 L 80.853930 124.118775 L 80.872414 123.643022 L 80.890182 123.170211 L 80.907247 122.700299 L 80.923621 122.233242 L 80.939317 121.768997 L 80.954347 121.307523 L 80.968723 120.848778 L 80.982454 120.392723 L 80.995554 119.939318 L 81.008032 119.488522 L 81.019899 119.040299 L 81.031165 118.594610 L 81.041840 118.151417 L 81.051935 117.710684 L 81.061457 117.272375 L 81.070418 116.836453 L 81.078825 116.402885 L 81.086688 115.971636 L 81.094016 115.542671 L 81.100816 115.115957 L 81.107097 114.691462 L 81.112867 114.269152 L 81.118133 113.848996 L 81.122904 113.430962 L 81.127187 113.015019 L 81.130989 112.601137 L 81.134317 112.189285 L 81.137179 111.779434 L 81.139580 111.371554 L 81.141527 110.965616 L 81.143028 110.561593 L 81.144087 110.159455 L 81.144712 109.759175 L 81.144908 109.360727 L 81.144681 108.964082 L 81.144037 108.569215 L 81.142981 108.176099 L 81.141519 107.784709 L 81.139656 107.395018 L 81.137397 107.007002 L 81.134747 106.620636 L 81.131711 106.235895 L 81.128295 105.852756 L 81.124501 105.471194 L 81.120336 105.091185 L 81.115803 104.712708 L 81.110908 104.335737 L 81.105653 103.960252 L 81.100043 103.586229 L 81.094083 103.213646 L 81.087776 102.842481 L 81.081125 102.472714 L 81.074136 102.104322 L 81.066810 101.737284 L 81.059153 101.371580 L 81.051166 101.007190 L 81.042854 100.644091 L 81.034220 100.282266 L 81.025267 99.921693 L 81.015998 99.562353 L 81.006416 99.204227 L 80.996525 98.847295 L 80.986326 98.491539 L 80.975822 98.136939 L 80.965017 97.783478 L 80.953913 97.431136 L 80.942512 97.079895 L 80.930818 96.729738 L 80.918832 96.380646 L 80.906556 96.032603 L 80.893993 95.685590 L 80.881146 95.339590 L 80.868016 94.994586 L 80.854605 94.650562 L 80.840915 94.307500 L 80.826949 93.965384 L 80.812708 93.624197 L 80.798193 93.283924 L 80.783408 92.944547 L 80.768353 92.606051 L 80.753030 92.268421 L 80.737441 91.931639 L 80.721586 91.595692 L 80.705469 91.260563 L 80.689089 90.926237 L 80.672449 90.592699 L 80.655550 90.259935 L 80.638392 89.927928 L 80.620978 89.596664 L 80.603308 89.266129 L 80.585383 88.936307 L 80.567205 88.607186 L 80.548775 88.278749 L 80.530093 87.950983 L 80.511160 87.623875 L 80.491977 87.297409 L 80.472546 86.971572 L 80.452866 86.646350 L 80.432939 86.321730 L 80.412765 85.997697 L 80.392344 85.674239 L 80.371678 85.351341 L 80.350767 85.028991 L 80.329612 84.707175 L 80.308212 84.385880 L 80.286569 84.065093 L 80.264683 83.744800 L 80.242553 83.424990 L 80.220181 83.105648 L 80.197566 82.786763 L 80.174709 82.468321 L 80.151610 82.150310 L 80.128270 81.832717 L 80.104687 81.515530 L 80.080862 81.198736 L 80.056796 80.882323 L 80.032488 80.566278 L 80.007938 80.250588 L 79.983146 79.935243 L 79.958111 79.620229 L 79.932835 79.305535 L 79.907316 78.991148 L 79.881553 78.677056 L 79.855548 78.363247 L 79.829300 78.049710 L 79.802807 77.736432 L 79.776070 77.423401 L 79.749088 77.110605 L 79.721861 76.798034 L 79.694389 76.485674 L 79.666670 76.173514 L 79.638704 75.861543 L 79.610490 75.549748 L 79.582028 75.238119 L 79.553317 74.926643 L 79.524357 74.615308 L 79.495145 74.304103 L 79.465683 73.993017 L 79.435968 73.682038 L 79.405999 73.371155 L 79.375777 73.060355 L 79.345300 72.749627 L 79.314566 72.438960 L 79.283575 72.128342 L 79.252326 71.817762 L 79.220818 71.507209 L 79.189048 71.196670 L 79.157017 70.886134 L 79.124723 70.575590 L 79.092164 70.265026 L 79.059340 69.954431 L 79.026248 69.643793 L 78.992888 69.333100 L 78.959258 69.022342 L 78.925356 68.711507 L 78.891181 68.400583 L 78.856732 68.089558 L 78.822006 67.778421 L 78.787002 67.467161 L 78.751719 67.155766 L 78.716154 66.844224 L 78.680306 66.532523 L 78.644173 66.220652 L 78.607753 65.908600 L 78.571045 65.596354 L 78.534045 65.283903 L 78.496753 64.971234 L 78.459165 64.658337 L 78.421281 64.345200 L 78.383098 64.031809 L 78.344613 63.718154 L 78.305824 63.404223 L 78.266730 63.090004 L 78.227328 62.775484 L 78.187614 62.460651 L 78.147588 62.145494 L 78.107246 61.830000 L 78.066587 61.514157 L 78.025606 61.197953 L 77.984302 60.881375 L 77.942672 60.564411 L 77.900714 60.247048 L 77.858423 59.929275 L 77.815798 59.611078 L 77.772836 59.292445 L 77.729534 58.973363 L 77.685888 58.653819 L 77.641896 58.333801 L 77.597554 58.013296 L 77.552859 57.692290 L 77.507808 57.370771 L 77.462398 57.048725 L 77.416625 56.726140 L 77.370486 56.403001 L 77.323977 56.079296 L 77.277095 55.755011 L 77.229835 55.430133 L 77.182195 55.104648 L 77.134171 54.778542 L 77.085758 54.451801 L 77.036953 54.124411 L 76.987752 53.796359 L 76.938150 53.467630 L 76.888144 53.138211 L 76.837729 52.808085 L 76.786902 52.477240 L 76.735657 52.145660 L 76.683990 51.813331 L 76.631897 51.480238 L 76.579373 51.146366 L 76.526414 50.811700 L 76.473014 50.476225 L 76.419169 50.139926 L 76.364874 49.802786 L 76.310123 49.464790 L 76.254912 49.125924 L 76.199236 48.786170 L 76.143089 48.445512 L 76.086465 48.103936 L 76.029360 47.761423 L 75.971768 47.417958 L 75.913682 47.073524 L 75.855097 46.728105 L 75.796008 46.381683 L 75.736407 46.034241 L 75.676290 45.685761 L 75.615650 45.336227 L 75.554480 44.985621 L 75.492773 44.633924 L 75.430525 44.281120 L 75.367727 43.927188 L 75.304372 43.572112 L 75.240455 43.215872 L 75.175967 42.858450 L 75.110902 42.499826 L 75.045252 42.139981 L 74.979010 41.778897 L 74.912168 41.416552 L 74.844718 41.052928 L 74.776653 40.688003 L 74.707964 40.321758 L 74.638643 39.954172 L 74.568682 39.585225 L 74.498073 39.214894 L 74.426806 38.843158 L 74.354873 38.469997 L 74.282265 38.095388 L 74.208972 37.719309 L 74.134985 37.341737 L 74.060296 36.962649 L 73.984893 36.582024 L 73.908768 36.199836 L 73.831909 35.816063 L 73.754308 35.430682 L 73.675952 35.043666 L 73.596833 34.654993 L 73.516938 34.264636 L 73.436257 33.872572 L 73.354778 33.478774 L 73.272490 33.083216 L 73.189381 32.685872 L 73.105439 32.286716 L 73.020652 31.885721 L 72.935007 31.482858 L 72.848492 31.078101 L 72.761093 30.671422 L 72.672798 30.262791 L 72.583593 29.852180 L 72.493464 29.439560 L 72.402397 29.024900 L 72.310378 28.608171 L 72.217391 28.189341 L 72.123423 27.768381 L 72.028458 27.345257 L 71.932480 26.919939 L 71.835473 26.492393 L 71.737422 26.062587 L 71.638309 25.630486 L 71.538118 25.196058 L 71.436832 24.759268 L 71.334432 24.320079 L 71.230901 23.878458 L 71.126221 23.434367 L 71.020373 22.987770 L 70.913336 22.538629 L 70.805093 22.086906 L 70.695623 21.632564 L 70.584905 21.175562 L 70.472918 20.715862 L 70.359642 20.253422 L 70.245054 19.788201 L 70.129132 19.320158 L 70.011853 18.849249 L 69.893193 18.375433 L 69.773130 17.898665 L 69.651638 17.418900 L 69.528693 16.936092 L 69.404269 16.450196 L 69.278340 15.961165 L 69.150879 15.468951 L 69.021858 14.973505 L 68.891251 14.474778 L 68.759029 13.972719 L 68.625161 13.467277 L 68.489618 12.958400 L 68.352370 12.446035 L 68.213385 11.930128 L 68.072630 11.410624 L 67.930074 10.887467 L 67.785682 10.360599 L 67.639419 9.829964 L 67.491251 9.295501 L 67.382525 8.905571" fill="none" id="tattoo-path-919f0f4fdd9768d6" stroke="#000000" stroke-linecap="round" stroke-linejoin="round" stroke-width="1.200000"/>
  <path clip-path="url(#tattoo-band-layer-clip)" d="M 9.367505 81.704784 L 9.673851 81.738430 L 10.226067 81.797982 L 10.774271 81.856019 L 11.318524 81.912570 L 11.858886 81.967667 L 12.395415 82.021338 L 12.928170 82.073612 L 13.457208 82.124515 L 13.982584 82.174075 L 14.504353 82.222319 L 15.022570 82.269271 L 15.537287 82.314957 L 16.048557 82.359400 L 16.556430 82.402625 L 17.060958 82.444654 L 17.562190 82.485510 L 18.060175 82.525215 L 18.554960 82.563790 L 19.046593 82.601256 L 19.535120 82.637633 L 20.020587 82.672941 L 20.503038 82.707199 L 20.982517 82.740427 L 21.459069 82.772642 L 21.932735 82.803863 L 22.403558 82.834107 L 22.871579 82.863391 L 23.336839 82.891731 L 23.799377 82.919144 L 24.259234 82.945647 L 24.716448 82.971253 L 25.171056 82.995979 L 25.623098 83.019839 L 26.072609 83.042847 L 26.519627 83.065018 L 26.964187 83.086366 L 27.406325 83.106903 L 27.846074 83.126642 L 28.283471 83.145597 L 28.718548 83.163780 L 29.151339 83.181203 L 29.581877 83.197878 L 30.010194 83.213817 L 30.436321 83.229030 L 30.860291 83.243529 L 31.282134 83.257325 L 31.701881 83.270428 L 32.119561 83.282848 L 32.535205 83.294596 L 32.948842 83.305682 L 33.360500 83.316114 L 33.770208 83.325903 L 34.177994 83.335057 L 34.583886 83.343585 L 34.987911 83.351496 L 35.390095 83.358799 L 35.790466 83.365502 L 36.189049 83.371613 L 36.585871 83.377139 L 36.980957 83.382090 L 37.374332 83.386471 L 37.766020 83.390291 L 38.156048 83.393557 L 38.544437 83.396276 L 38.931214 83.398454 L 39.316400 83.400099 L 39.700020 83.401216 L 40.082096 83.401813 L 40.462652 83.401896 L 40.841709 83.401470 L 41.219290 83.400541 L 41.595417 83.399116 L 41.970110 83.397201 L 42.343393 83.394799 L 42.715285 83.391918 L 43.085809 83.388562 L 43.454983 83.384736 L 43.822829 83.380445 L 44.189367 83.375695 L 44.554617 83.370489 L 44.918599 83.364833 L 45.281331 83.358732 L 45.642834 83.352189 L 46.003126 83.345208 L 46.362227 83.337795 L 46.720154 83.329953 L 47.076926 83.321685 L 47.432562 83.312997 L 47.787080 83.303892 L 48.140497 83.294372 L 48.492832 83.284443 L 48.844101 83.274107 L 49.194322 83.263368 L 49.543512 83.252229 L 49.891689 83.240693 L 50.238868 83.228763 L 50.585067 83.216443 L 50.930302 83.203735 L 51.274590 83.190643 L 51.617947 83.177168 L 51.960388 83.163314 L 52.301930 83.149083 L 52.642588 83.134477 L 52.982378 83.119500 L 53.321315 83.104153 L 53.659416 83.088439 L 53.996694 83.072360 L 54.333165 83.055918 L 54.668845 83.039115 L 55.003747 83.021953 L 55.337887 83.004434 L 55.671279 82.986560 L 56.003937 82.968333 L 56.335877 82.949754 L 56.667111 82.930825 L 56.997655 82.911548 L 57.327522 82.891924 L 57.656727 82.871954 L 57.985282 82.851640 L 58.313202 82.830984 L 58.640501 82.809986 L 58.967192 82.788647 L 59.293288 82.766970 L 59.618803 82.744954 L 59.943750 82.722601 L 60.268142 82.699912 L 60.591993 82.676888 L 60.915314 82.653529 L 61.238121 82.629836 L 61.560424 82.605811 L 61.882237 82.581453 L 62.203573 82.556763 L 62.524444 82.531743 L 62.844863 82.506392 L 63.164842 82.480710 L 63.484394 82.454699 L 63.803531 82.428358 L 64.122266 82.401688 L 64.440611 82.374689 L 64.758577 82.347361 L 65.076178 82.319704 L 65.393425 82.291719 L 65.710330 82.263405 L 66.026905 82.234762 L 66.343163 82.205791 L 66.659115 82.176490 L 66.974772 82.146861 L 67.290148 82.116902 L 67.605253 82.086614 L 67.920100 82.055995 L 68.234699 82.025046 L 68.549063 81.993767 L 68.863203 81.962156 L 69.177132 81.930213 L 69.490860 81.897937 L 69.804398 81.865328 L 70.117760 81.832386 L 70.430955 81.799109 L 70.743996 81.765496 L 71.056893 81.731548 L 71.369659 81.697262 L 71.682305 81.662638 L 71.994842 81.627674 L 72.307281 81.592371 L 72.619634 81.556726 L 72.931912 81.520739 L 73.244127 81.484409 L 73.556290 81.447733 L 73.868412 81.410711 L 74.180504 81.373342 L 74.492578 81.335623 L 74.804645 81.297554 L 75.116716 81.259134 L 75.428803 81.220359 L 75.740917 81.181230 L 76.053069 81.141743 L 76.365270 81.101899 L 76.677533 81.061693 L 76.989867 81.021126 L 77.302286 80.980194 L 77.614799 80.938897 L 77.927418 80.897232 L 78.240155 80.855196 L 78.553021 80.812788 L 78.866027 80.770006 L 79.179185 80.726848 L 79.492506 80.683310 L 79.806002 80.639392 L 80.119685 80.595089 L 80.433565 80.550401 L 80.747654 80.505325 L 81.061964 80.459857 L 81.376507 80.413995 L 81.691294 80.367737 L 82.006336 80.321080 L 82.321647 80.274021 L 82.637236 80.226557 L 82.953117 80.178685 L 83.269300 80.130402 L 83.585798 80.081706 L 83.902623 80.032592 L 84.219786 79.983058 L 84.537300 79.933101 L 84.855177 79.882716 L 85.173429 79.831902 L 85.492068 79.780654 L 85.811106 79.728968 L 86.130555 79.676841 L 86.450428 79.624270 L 86.770738 79.571251 L 87.091496 79.517779 L 87.412716 79.463852 L 87.734409 79.409464 L 88.056589 79.354612 L 88.379268 79.299291 L 88.702459 79.243498 L 89.026175 79.187228 L 89.350429 79.130477 L 89.675234 79.073240 L 90.000603 79.015513 L 90.326550 78.957291 L 90.653087 78.898569 L 90.980228 78.839343 L 91.307986 78.779607 L 91.636375 78.719357 L 91.965409 78.658587 L 92.295102 78.597293 L 92.625466 78.535469 L 92.956517 78.473109 L 93.288268 78.410209 L 93.620733 78.346762 L 93.953928 78.282763 L 94.287865 78.218206 L 94.622560 78.153085 L 94.958026 78.087394 L 95.294280 78.021128 L 95.631336 77.954279 L 95.969208 77.886842 L 96.307912 77.818810 L 96.647464 77.750177 L 96.987877 77.680935 L 97.329169 77.611079 L 97.671354 77.540600 L 98.014449 77.469493 L 98.358469 77.397749 L 98.703430 77.325362 L 99.049348 77.252324 L 99.396241 77.178627 L 99.744124 77.104264 L 100.093014 77.029227 L 100.442929 76.953508 L 100.793884 76.877098 L 101.145897 76.799990 L 101.498987 76.722175 L 101.853169 76.643644 L 102.208462 76.564389 L 102.564883 76.484400 L 102.922452 76.403669 L 103.281185 76.322186 L 103.641102 76.239942 L 104.002222 76.156927 L 104.364562 76.073131 L 104.728143 75.988545 L 105.092983 75.903158 L 105.459102 75.816960 L 105.826520 75.729940 L 106.195256 75.642088 L 106.565331 75.553393 L 106.936766 75.463844 L 107.309580 75.373428 L 107.683795 75.282135 L 108.059432 75.189953 L 108.436512 75.096870 L 108.815058 75.002873 L 109.195090 74.907951 L 109.576631 74.812089 L 109.959703 74.715277 L 110.344330 74.617499 L 110.730534 74.518743 L 111.118338 74.418996 L 111.507766 74.318242 L 111.898842 74.216468 L 112.291591 74.113659 L 112.686035 74.009801 L 113.082202 73.904878 L 113.480115 73.798875 L 113.879799 73.691776 L 114.281282 73.583566 L 114.684589 73.474227 L 115.089746 73.363743 L 115.496780 73.252097 L 115.905720 73.139272 L 116.316591 73.025250 L 116.729422 72.910013 L 117.144242 72.793543 L 117.561079 72.675821 L 117.979962 72.556827 L 118.400921 72.436542 L 118.823986 72.314946 L 119.249188 72.192019 L 119.676556 72.067739 L 120.106123 71.942086 L 120.537920 71.815038 L 120.971980 71.686573 L 121.408334 71.556668 L 121.847017 71.425300 L 122.288061 71.292446 L 122.731502 71.158080 L 123.177372 71.022180 L 123.625709 70.884719 L 124.076547 70.745672 L 124.529923 70.605013 L 124.985873 70.462715 L 125.444435 70.318751 L 125.905646 70.173092 L 126.369546 70.025710 L 126.836173 69.876576 L 127.305567 69.725660 L 127.777769 69.572931 L 128.252819 69.418358 L 128.730759 69.261910 L 129.211631 69.103553 L 129.695479 68.943254 L 130.182345 68.780980 L 130.672275 68.616695 L 131.165313 68.450363 L 131.661506 68.281948 L 132.160899 68.111412 L 132.663541 67.938718 L 133.169479 67.763825 L 133.678762 67.586695 L 134.191439 67.407286 L 134.707563 67.225555 L 135.227183 67.041461 L 135.750353 66.854959 L 136.040443 66.750902" fill="none" id="tattoo-path-91de01b26b6fb795" stroke="#000000" stroke-linecap="round" stroke-linejoin="round" stroke-width="1.000000"/>
  <path clip-path="url(#tattoo-band-layer-clip)" d="M 112.876332 121.898298 L 112.539926 121.904683 L 111.983090 121.911821 L 111.428887 121.915528 L 110.877309 121.915852 L 110.328347 121.912842 L 109.781992 121.906544 L 109.238235 121.897005 L 108.697064 121.884269 L 108.158471 121.868383 L 107.622444 121.849389 L 107.088974 121.827331 L 106.558049 121.802252 L 106.029659 121.774193 L 105.503792 121.743194 L 104.980436 121.709297 L 104.459582 121.672540 L 103.941216 121.632963 L 103.425326 121.590604 L 102.911902 121.545500 L 102.400930 121.497688 L 101.892399 121.447204 L 101.386297 121.394083 L 100.882609 121.338361 L 100.381325 121.280072 L 99.882432 121.219249 L 99.385916 121.155925 L 98.891766 121.090133 L 98.399967 121.021905 L 97.910508 120.951271 L 97.423374 120.878263 L 96.938554 120.802910 L 96.456034 120.725243 L 95.975801 120.645290 L 95.497842 120.563079 L 95.022143 120.478638 L 94.548691 120.391996 L 94.077474 120.303178 L 93.608477 120.212212 L 93.141688 120.119122 L 92.677093 120.023935 L 92.214680 119.926676 L 91.754434 119.827368 L 91.296342 119.726036 L 90.840392 119.622704 L 90.386571 119.517394 L 89.934864 119.410129 L 89.485259 119.300931 L 89.037742 119.189822 L 88.592301 119.076824 L 88.148922 118.961957 L 87.707593 118.845241 L 87.268300 118.726697 L 86.831030 118.606345 L 86.395771 118.484203 L 85.962509 118.360291 L 85.531232 118.234627 L 85.101926 118.107229 L 84.674580 117.978115 L 84.249180 117.847303 L 83.825714 117.714810 L 83.404170 117.580651 L 82.984534 117.444844 L 82.566794 117.307405 L 82.150939 117.168348 L 81.736955 117.027690 L 81.324830 116.885446 L 80.914552 116.741630 L 80.506110 116.596256 L 80.099490 116.449339 L 79.694682 116.300893 L 79.291673 116.150930 L 78.890451 115.999464 L 78.491004 115.846507 L 78.093322 115.692073 L 77.697392 115.536174 L 77.303202 115.378821 L 76.910742 115.220026 L 76.520001 115.059800 L 76.130965 114.898156 L 75.743626 114.735103 L 75.357971 114.570652 L 74.973989 114.404814 L 74.591670 114.237599 L 74.211002 114.069016 L 73.831976 113.899076 L 73.454580 113.727787 L 73.078803 113.555159 L 72.704636 113.381200 L 72.332067 113.205919 L 71.961087 113.029325 L 71.591684 112.851426 L 71.223850 112.672230 L 70.857574 112.491744 L 70.492846 112.309976 L 70.129656 112.126934 L 69.767995 111.942624 L 69.407852 111.757053 L 69.049218 111.570228 L 68.692084 111.382156 L 68.336440 111.192842 L 67.982277 111.002293 L 67.629585 110.810514 L 67.278356 110.617512 L 66.928580 110.423292 L 66.580249 110.227858 L 66.233354 110.031217 L 65.887885 109.833373 L 65.543835 109.634330 L 65.201194 109.434094 L 64.859955 109.232669 L 64.520108 109.030058 L 64.181646 108.826266 L 63.844561 108.621297 L 63.508843 108.415154 L 63.174486 108.207841 L 62.841481 107.999362 L 62.509821 107.789718 L 62.179497 107.578915 L 61.850503 107.366953 L 61.522831 107.153836 L 61.196473 106.939566 L 60.871421 106.724147 L 60.547670 106.507579 L 60.225211 106.289865 L 59.904038 106.071007 L 59.584143 105.851007 L 59.265521 105.629866 L 58.948163 105.407586 L 58.632064 105.184168 L 58.317217 104.959612 L 58.003615 104.733922 L 57.691252 104.507096 L 57.380123 104.279136 L 57.070219 104.050042 L 56.761537 103.819815 L 56.454069 103.588456 L 56.147811 103.355963 L 55.842755 103.122338 L 55.538897 102.887580 L 55.236231 102.651690 L 54.934751 102.414666 L 54.634452 102.176508 L 54.335330 101.937216 L 54.037378 101.696788 L 53.740591 101.455225 L 53.444966 101.212524 L 53.150496 100.968685 L 52.857178 100.723707 L 52.565006 100.477588 L 52.273976 100.230326 L 51.984083 99.981921 L 51.695324 99.732369 L 51.407694 99.481670 L 51.121188 99.229822 L 50.835804 98.976821 L 50.551536 98.722667 L 50.268382 98.467356 L 49.986337 98.210887 L 49.705398 97.953256 L 49.425562 97.694460 L 49.146824 97.434498 L 48.869182 97.173366 L 48.592633 96.911061 L 48.317173 96.647579 L 48.042800 96.382919 L 47.769511 96.117075 L 47.497303 95.850045 L 47.226173 95.581824 L 46.956119 95.312410 L 46.687139 95.041799 L 46.419230 94.769985 L 46.152390 94.496966 L 45.886618 94.222737 L 45.621910 93.947293 L 45.358266 93.670631 L 45.095684 93.392746 L 44.834162 93.113632 L 44.573698 92.833286 L 44.314292 92.551703 L 44.055942 92.268877 L 43.798647 91.984803 L 43.542407 91.699477 L 43.287219 91.412893 L 43.033084 91.125045 L 42.780001 90.835928 L 42.527970 90.545536 L 42.276990 90.253864 L 42.027060 89.960906 L 41.778182 89.666655 L 41.530354 89.371107 L 41.283578 89.074254 L 41.037853 88.776090 L 40.793180 88.476609 L 40.549559 88.175804 L 40.306992 87.873669 L 40.065479 87.570198 L 39.825021 87.265382 L 39.585619 86.959216 L 39.347274 86.651692 L 39.109989 86.342803 L 38.873764 86.032543 L 38.638601 85.720903 L 38.404503 85.407875 L 38.171471 85.093454 L 37.939507 84.777630 L 37.708613 84.460397 L 37.478793 84.141745 L 37.250049 83.821668 L 37.022383 83.500157 L 36.795799 83.177204 L 36.570300 82.852800 L 36.345889 82.526937 L 36.122569 82.199607 L 35.900344 81.870802 L 35.679218 81.540511 L 35.459196 81.208727 L 35.240280 80.875440 L 35.022475 80.540641 L 34.805787 80.204322 L 34.590219 79.866473 L 34.375776 79.527084 L 34.162464 79.186147 L 33.950287 78.843651 L 33.739252 78.499587 L 33.529364 78.153944 L 33.320628 77.806714 L 33.113051 77.457886 L 32.906638 77.107450 L 32.701397 76.755396 L 32.497334 76.401713 L 32.294456 76.046391 L 32.092770 75.689419 L 31.892283 75.330788 L 31.693002 74.970485 L 31.494936 74.608501 L 31.298092 74.244824 L 31.102479 73.879443 L 30.908104 73.512347 L 30.714977 73.143524 L 30.523107 72.772965 L 30.332502 72.400656 L 30.143172 72.026586 L 29.955126 71.650744 L 29.768375 71.273119 L 29.582928 70.893697 L 29.398797 70.512467 L 29.215991 70.129417 L 29.034521 69.744535 L 28.854399 69.357809 L 28.675637 68.969225 L 28.498245 68.578773 L 28.322236 68.186438 L 28.147622 67.792209 L 27.974417 67.396073 L 27.802632 66.998017 L 27.632281 66.598028 L 27.463378 66.196093 L 27.295937 65.792198 L 27.129971 65.386331 L 26.965495 64.978479 L 26.802524 64.568627 L 26.641073 64.156763 L 26.481157 63.742873 L 26.322793 63.326943 L 26.165997 62.908960 L 26.010784 62.488910 L 25.857173 62.066778 L 25.705180 61.642552 L 25.554823 61.216216 L 25.406120 60.787758 L 25.259089 60.357161 L 25.113749 59.924414 L 24.970119 59.489500 L 24.828219 59.052407 L 24.688070 58.613118 L 24.549690 58.171621 L 24.413102 57.727900 L 24.278326 57.281940 L 24.145384 56.833728 L 24.014298 56.383248 L 23.885091 55.930485 L 23.757787 55.475426 L 23.632407 55.018054 L 23.508977 54.558355 L 23.387521 54.096315 L 23.268064 53.631918 L 23.150631 53.165150 L 23.035249 52.695995 L 22.921943 52.224438 L 22.810741 51.750465 L 22.701671 51.274060 L 22.594760 50.795208 L 22.490037 50.313896 L 22.387532 49.830106 L 22.287273 49.343825 L 22.189292 48.855038 L 22.093619 48.363729 L 22.000286 47.869884 L 21.909325 47.373487 L 21.820768 46.874525 L 21.734649 46.372982 L 21.651002 45.868844 L 21.569862 45.362095 L 21.491263 44.852722 L 21.415242 44.340709 L 21.341836 43.826043 L 21.271081 43.308709 L 21.203015 42.788693 L 21.137678 42.265981 L 21.075108 41.740558 L 21.015346 41.212412 L 20.958433 40.681527 L 20.904410 40.147892 L 20.853320 39.611492 L 20.805206 39.072314 L 20.760111 38.530346 L 20.718081 37.985573 L 20.679161 37.437985 L 20.643397 36.887568 L 20.610837 36.334310 L 20.581528 35.778199 L 20.565890 35.442097" fill="none" id="tattoo-path-064092d0de02e3bc" stroke="#000000" stroke-linecap="round" stroke-linejoin="round" stroke-width="0.800000"/>
  <circle cx="72.500000" cy="72.500000" fill="none" id="tattoo-boundary-da45c61d325de3be" r="64.900000" stroke="#000000" stroke-width="2.200000"/>
</svg>
