<svg height="145.000000mm" version="1.1" viewBox="0 0 145.000000 145.000000" width="145.000000mm" xmlns="http://www.w3.org/2000/svg">
  <defs>
    <clipPath clipPathUnits="userSpaceOnUse" id="tattoo-band-layer-clip">
      <circle cx="72.500000" cy="72.500000" r="63.800000"/>
    </clipPath>
  </defs>
  <path clip-path="url(#tattoo-band-layer-clip)" d="M 77.651493 136.091683 L 77.290395 135.885829 L 76.808471 135.606947 L 76.330449 135.326194 L 75.856302 135.043611 L 75.386005 134.759234 L 74.919531 134.473102 L 74.456856 134.185251 L 73.997953 133.895716 L 73.542798 133.604534 L 73.091364 133.311737 L 72.643627 133.017359 L 72.199560 132.721434 L 71.759139 132.423993 L 71.322338 132.125069 L 70.889133 131.824691 L 70.459498 131.522890 L 70.033408 131.219695 L 69.610840 130.915135 L 69.191767 130.609239 L 68.776166 130.302034 L 68.364013 129.993546 L 67.955282 129.683803 L 67.549950 129.372830 L 67.147993 129.060652 L 66.749388 128.747295 L 66.354110 128.432781 L 65.962135 128.117135 L 65.573442 127.800379 L 65.188005 127.482537 L 64.805803 127.163630 L 64.426812 126.843680 L 64.051010 126.522707 L 63.678374 126.200732 L 63.308882 125.877775 L 62.942511 125.553856 L 62.579239 125.228994 L 62.219045 124.903207 L 61.861907 124.576514 L 61.507802 124.248933 L 61.156711 123.920480 L 60.808612 123.591173 L 60.463483 123.261028 L 60.121305 122.930061 L 59.782055 122.598288 L 59.445715 122.265725 L 59.112263 121.932386 L 58.781680 121.598285 L 58.453946 121.263438 L 58.129040 120.927858 L 57.806944 120.591558 L 57.487639 120.254552 L 57.171104 119.916851 L 56.857322 119.578470 L 56.546273 119.239420 L 56.237939 118.899712 L 55.932301 118.559359 L 55.629342 118.218372 L 55.329043 117.876760 L 55.031387 117.534536 L 54.736356 117.191709 L 54.443932 116.848289 L 54.154098 116.504286 L 53.866838 116.159710 L 53.582135 115.814569 L 53.299971 115.468873 L 53.020331 115.122631 L 52.743198 114.775850 L 52.468556 114.428539 L 52.196389 114.080706 L 51.926681 113.732358 L 51.659418 113.383503 L 51.394583 113.034148 L 51.132161 112.684300 L 50.872138 112.333966 L 50.614499 111.983152 L 50.359229 111.631865 L 50.106314 111.280111 L 49.855740 110.927896 L 49.607492 110.575224 L 49.361557 110.222103 L 49.117920 109.868537 L 48.876570 109.514531 L 48.637492 109.160091 L 48.400673 108.805220 L 48.166100 108.449924 L 47.933761 108.094206 L 47.703642 107.738072 L 47.475733 107.381525 L 47.250019 107.024569 L 47.026490 106.667207 L 46.805134 106.309444 L 46.585938 105.951282 L 46.368892 105.592725 L 46.153983 105.233776 L 45.941202 104.874438 L 45.730536 104.514713 L 45.521975 104.154604 L 45.315509 103.794114 L 45.111127 103.433246 L 44.908818 103.072000 L 44.708573 102.710380 L 44.510381 102.348386 L 44.314233 101.986022 L 44.120120 101.623289 L 43.928031 101.260188 L 43.737958 100.896721 L 43.549891 100.532889 L 43.363822 100.168693 L 43.179741 99.804134 L 42.997641 99.439214 L 42.817512 99.073933 L 42.639346 98.708293 L 42.463136 98.342292 L 42.288874 97.975933 L 42.116551 97.609216 L 41.946160 97.242140 L 41.777693 96.874707 L 41.611144 96.506916 L 41.446505 96.138768 L 41.283769 95.770262 L 41.122929 95.401398 L 40.963979 95.032177 L 40.806912 94.662597 L 40.651722 94.292658 L 40.498403 93.922360 L 40.346949 93.551703 L 40.197353 93.180685 L 40.049611 92.809306 L 39.903716 92.437565 L 39.759664 92.065462 L 39.617449 91.692994 L 39.477066 91.320162 L 39.338510 90.946965 L 39.201776 90.573400 L 39.066860 90.199467 L 38.933757 89.825164 L 38.802464 89.450491 L 38.672975 89.075445 L 38.545288 88.700026 L 38.419398 88.324231 L 38.295301 87.948058 L 38.172994 87.571508 L 38.052474 87.194576 L 37.933738 86.817263 L 37.816782 86.439565 L 37.701604 86.061481 L 37.588201 85.683010 L 37.476570 85.304148 L 37.366708 84.924894 L 37.258615 84.545246 L 37.152287 84.165202 L 37.047723 83.784759 L 36.944921 83.403915 L 36.843879 83.022668 L 36.744596 82.641015 L 36.647070 82.258955 L 36.551301 81.876484 L 36.457286 81.493601 L 36.365027 81.110302 L 36.274521 80.726585 L 36.185768 80.342448 L 36.098768 79.957887 L 36.013521 79.572901 L 35.930026 79.187487 L 35.848284 78.801641 L 35.768294 78.415361 L 35.690058 78.028645 L 35.613576 77.641488 L 35.538849 77.253890 L 35.465877 76.865846 L 35.394662 76.477354 L 35.325204 76.088411 L 35.257506 75.699014 L 35.191568 75.309159 L 35.127393 74.918845 L 35.064982 74.528067 L 35.004337 74.136823 L 34.945461 73.745111 L 34.888355 73.352925 L 34.833023 72.960265 L 34.779467 72.567126 L 34.727690 72.173505 L 34.677695 71.779399 L 34.629486 71.384806 L 34.583064 70.989721 L 34.538435 70.594142 L 34.495602 70.198066 L 34.454568 69.801489 L 34.415337 69.404409 L 34.377915 69.006821 L 34.342305 68.608723 L 34.308512 68.210112 L 34.276541 67.810983 L 34.246396 67.411335 L 34.218083 67.011164 L 34.191607 66.610467 L 34.166973 66.209240 L 34.144187 65.807481 L 34.123255 65.405185 L 34.104183 65.002351 L 34.086978 64.598974 L 34.071644 64.195052 L 34.058190 63.790582 L 34.046622 63.385559 L 34.036946 62.979982 L 34.029171 62.573847 L 34.023302 62.167151 L 34.019349 61.759891 L 34.017317 61.352064 L 34.017217 60.943666 L 34.019055 60.534695 L 34.022839 60.125149 L 34.028580 59.715023 L 34.036284 59.304315 L 34.045961 58.893022 L 34.057621 58.481141 L 34.071271 58.068670 L 34.086923 57.655605 L 34.104586 57.241944 L 34.124270 56.827685 L 34.145984 56.412823 L 34.169740 55.997358 L 34.195547 55.581286 L 34.223418 55.164605 L 34.253362 54.747312 L 34.285391 54.329405 L 34.319517 53.910881 L 34.355751 53.491739 L 34.394105 53.071975 L 34.434592 52.651588 L 34.477224 52.230576 L 34.522013 51.808936 L 34.568972 51.386667 L 34.618115 50.963767 L 34.669454 50.540233 L 34.723004 50.116065 L 34.778778 49.691260 L 34.836791 49.265816 L 34.897056 48.839733 L 34.959588 48.413009 L 35.024402 47.985642 L 35.091514 47.557631 L 35.160938 47.128975 L 35.232690 46.699674 L 35.306786 46.269725 L 35.383242 45.839129 L 35.462074 45.407885 L 35.543300 44.975991 L 35.626935 44.543448 L 35.712998 44.110255 L 35.801505 43.676412 L 35.892475 43.241919 L 35.985925 42.806776 L 36.081875 42.370983 L 36.180341 41.934540 L 36.281344 41.497448 L 36.384902 41.059707 L 36.491035 40.621318 L 36.599763 40.182283 L 36.711105 39.742602 L 36.825083 39.302276 L 36.941716 38.861307 L 37.061026 38.419696 L 37.183034 37.977446 L 37.307762 37.534559 L 37.435230 37.091035 L 37.565463 36.646879 L 37.698482 36.202092 L 37.834309 35.756677 L 37.972969 35.310638 L 38.114484 34.863977 L 38.258879 34.416698 L 38.406178 33.968805 L 38.556404 33.520302 L 38.709584 33.071192 L 38.865741 32.621481 L 39.024902 32.171173 L 39.187092 31.720273 L 39.352338 31.268787 L 39.520666 30.816719 L 39.692103 30.364076 L 39.866676 29.910864 L 40.044413 29.457090 L 40.225341 29.002759 L 40.409490 28.547880 L 40.596887 28.092460 L 40.787561 27.636506 L 40.981543 27.180027 L 41.178862 26.723030 L 41.379547 26.265526 L 41.583630 25.807523 L 41.791141 25.349030 L 42.002112 24.890058 L 42.216574 24.430618 L 42.434559 23.970719 L 42.656100 23.510374 L 42.881229 23.049594 L 43.109980 22.588391 L 43.342385 22.126777 L 43.578480 21.664767 L 43.818297 21.202373 L 44.061873 20.739609 L 44.309242 20.276490 L 44.560439 19.813032 L 44.815500 19.349249 L 45.074462 18.885158 L 45.337362 18.420776 L 45.604236 17.956120 L 45.875121 17.491207 L 46.150056 17.026057 L 46.429079 16.560689 L 46.712228 16.095121 L 46.999543 15.629375 L 47.291062 15.163472 L 47.586826 14.697433 L 47.886875 14.231280 L 48.191249 13.765037 L 48.420714 13.418463" fill="none" id="tattoo-path-bce2740a66c3cec8" stroke="#000000" stroke-linecap="round" stroke-linejoin="round" stroke-width="4.800000"/>
  <path clip-path="url(#tattoo-band-layer-clip)" d="M 10.404054 87.146964 L 10.888150 87.088422 L 11.438005 87.021442 L 11.983597 86.954504 L 12.524995 86.887611 L 13.062267 86.820764 L 13.595480 86.753966 L 14.124698 86.687218 L 14.649987 86.620523 L 15.171408 86.553882 L 15.689024 86.487297 L 16.202895 86.420768 L 16.713080 86.354299 L 17.219638 86.287889 L 17.722625 86.221541 L 18.222098 86.155254 L 18.718112 86.089030 L 19.210721 86.022870 L 19.699978 85.956775 L 20.185935 85.890745 L 20.668643 85.824781 L 21.148153 85.758883 L 21.624514 85.693052 L 22.097773 85.627289 L 22.567980 85.561592 L 23.035180 85.495964 L 23.499420 85.430403 L 23.960745 85.364911 L 24.419199 85.299486 L 24.874827 85.234130 L 25.327669 85.168841 L 25.777770 85.103620 L 26.225171 85.038467 L 26.669911 84.973381 L 27.112032 84.908362 L 27.551573 84.843410 L 27.988572 84.778524 L 28.423068 84.713704 L 28.855098 84.648950 L 29.284699 84.584261 L 29.711908 84.519636 L 30.136760 84.455075 L 30.559291 84.390577 L 30.979535 84.326142 L 31.397526 84.261769 L 31.813298 84.197456 L 32.226883 84.133205 L 32.638316 84.069013 L 33.047626 84.004879 L 33.454847 83.940804 L 33.860009 83.876786 L 34.263143 83.812824 L 34.664279 83.748918 L 35.063446 83.685066 L 35.460675 83.621267 L 35.855993 83.557521 L 36.249430 83.493826 L 36.641013 83.430181 L 37.030770 83.366586 L 37.418728 83.303039 L 37.804914 83.239539 L 38.189355 83.176085 L 38.572077 83.112676 L 38.953106 83.049311 L 39.332466 82.985988 L 39.710183 82.922707 L 40.086282 82.859466 L 40.460787 82.796264 L 40.833723 82.733099 L 41.205112 82.669971 L 41.574979 82.606879 L 41.943347 82.543820 L 42.310237 82.480794 L 42.675674 82.417799 L 43.039679 82.354834 L 43.402275 82.291898 L 43.763482 82.228989 L 44.123323 82.166106 L 44.481818 82.103248 L 44.838989 82.040413 L 45.194856 81.977599 L 45.549440 81.914806 L 45.902761 81.852032 L 46.254838 81.789276 L 46.605692 81.726536 L 46.955342 81.663810 L 47.303807 81.601098 L 47.651106 81.538397 L 47.997258 81.475706 L 48.342282 81.413025 L 48.686197 81.350350 L 49.029020 81.287681 L 49.370769 81.225017 L 49.711462 81.162355 L 50.051118 81.099694 L 50.389752 81.037032 L 50.727384 80.974369 L 51.064029 80.911702 L 51.399704 80.849030 L 51.734427 80.786351 L 52.068215 80.723664 L 52.401082 80.660967 L 52.733046 80.598258 L 53.064124 80.535537 L 53.394330 80.472800 L 53.723680 80.410047 L 54.052191 80.347275 L 54.379878 80.284484 L 54.706756 80.221671 L 55.032840 80.158835 L 55.358146 80.095974 L 55.682689 80.033087 L 56.006483 79.970171 L 56.329543 79.907225 L 56.651884 79.844247 L 56.973520 79.781236 L 57.294466 79.718190 L 57.614736 79.655106 L 57.934344 79.591984 L 58.253305 79.528821 L 58.571631 79.465615 L 58.889337 79.402366 L 59.206438 79.339070 L 59.522945 79.275726 L 59.838873 79.212333 L 60.154236 79.148888 L 60.469047 79.085390 L 60.783318 79.021836 L 61.097064 78.958226 L 61.410297 78.894556 L 61.723031 78.830825 L 62.035278 78.767031 L 62.347051 78.703172 L 62.658363 78.639247 L 62.969226 78.575253 L 63.279654 78.511188 L 63.589660 78.447050 L 63.899254 78.382838 L 64.208451 78.318549 L 64.517262 78.254181 L 64.825700 78.189733 L 65.133776 78.125201 L 65.441504 78.060585 L 65.748896 77.995882 L 66.055962 77.931090 L 66.362717 77.866206 L 66.669171 77.801230 L 66.975337 77.736158 L 67.281226 77.670988 L 67.586851 77.605719 L 67.892222 77.540347 L 68.197353 77.474872 L 68.502255 77.409290 L 68.806940 77.343600 L 69.111418 77.277799 L 69.415703 77.211885 L 69.719806 77.145855 L 70.023737 77.079708 L 70.327510 77.013440 L 70.631135 76.947051 L 70.934624 76.880537 L 71.237988 76.813895 L 71.541239 76.747124 L 71.844389 76.680222 L 72.147449 76.613185 L 72.450431 76.546011 L 72.753345 76.478698 L 73.056203 76.411243 L 73.359018 76.343644 L 73.661799 76.275898 L 73.964559 76.208003 L 74.267309 76.139956 L 74.570061 76.071754 L 74.872825 76.003395 L 75.175614 75.934877 L 75.478439 75.866195 L 75.781310 75.797349 L 76.084240 75.728334 L 76.387240 75.659149 L 76.690322 75.589790 L 76.993496 75.520255 L 77.296775 75.450541 L 77.600170 75.380644 L 77.903692 75.310563 L 78.207353 75.240294 L 78.511165 75.169834 L 78.815139 75.099180 L 79.119286 75.028330 L 79.423619 74.957280 L 79.728148 74.886027 L 80.032887 74.814567 L 80.337845 74.742899 L 80.643036 74.671019 L 80.948470 74.598923 L 81.254161 74.526608 L 81.560118 74.454071 L 81.866356 74.381310 L 82.172884 74.308319 L 82.479716 74.235096 L 82.786864 74.161638 L 83.094339 74.087942 L 83.402153 74.014002 L 83.710320 73.939817 L 84.018850 73.865383 L 84.327757 73.790695 L 84.637053 73.715751 L 84.946749 73.640546 L 85.256859 73.565078 L 85.567396 73.489341 L 85.878371 73.413333 L 86.189797 73.337049 L 86.501688 73.260485 L 86.814055 73.183639 L 87.126913 73.106504 L 87.440273 73.029078 L 87.754149 72.951357 L 88.068554 72.873336 L 88.383501 72.795011 L 88.699004 72.716377 L 89.015076 72.637431 L 89.331730 72.558168 L 89.648980 72.478584 L 89.966840 72.398674 L 90.285322 72.318434 L 90.604443 72.237859 L 90.924214 72.156944 L 91.244651 72.075684 L 91.565767 71.994076 L 91.887577 71.912114 L 92.210095 71.829793 L 92.533336 71.747108 L 92.857314 71.664055 L 93.182044 71.580627 L 93.507541 71.496821 L 93.833820 71.412630 L 94.160896 71.328049 L 94.488785 71.243074 L 94.817501 71.157698 L 95.147061 71.071916 L 95.477480 70.985722 L 95.808773 70.899111 L 96.140958 70.812077 L 96.474050 70.724614 L 96.808065 70.636716 L 97.143020 70.548377 L 97.478931 70.459591 L 97.815815 70.370351 L 98.153690 70.280653 L 98.492572 70.190488 L 98.832479 70.099851 L 99.173428 70.008735 L 99.515436 69.917133 L 99.858522 69.825039 L 100.202704 69.732445 L 100.548000 69.639345 L 100.894428 69.545732 L 101.242008 69.451598 L 101.590757 69.356937 L 101.940695 69.261740 L 102.291842 69.166000 L 102.644217 69.069709 L 102.997839 68.972861 L 103.352728 68.875446 L 103.708906 68.777457 L 104.066392 68.678885 L 104.425207 68.579723 L 104.785371 68.479962 L 105.146907 68.379593 L 105.509836 68.278608 L 105.874179 68.176998 L 106.239959 68.074754 L 106.607197 67.971866 L 106.975917 67.868326 L 107.346141 67.764123 L 107.717893 67.659249 L 108.091195 67.553694 L 108.466073 67.447448 L 108.842549 67.340500 L 109.220648 67.232840 L 109.600396 67.124459 L 109.981817 67.015344 L 110.364937 66.905486 L 110.749781 66.794874 L 111.136376 66.683495 L 111.524748 66.571340 L 111.914924 66.458396 L 112.306932 66.344651 L 112.700799 66.230094 L 113.096553 66.114712 L 113.494223 65.998493 L 113.893838 65.881424 L 114.295427 65.763492 L 114.699019 65.644684 L 115.104646 65.524986 L 115.512337 65.404386 L 115.922125 65.282869 L 116.334040 65.160420 L 116.748114 65.037026 L 117.164381 64.912672 L 117.582873 64.787343 L 118.003625 64.661023 L 118.426669 64.533697 L 118.852041 64.405350 L 119.279777 64.275964 L 119.709911 64.145524 L 120.142481 64.014012 L 120.577523 63.881412 L 121.015076 63.747706 L 121.455176 63.612876 L 121.897863 63.476904 L 122.343178 63.339772 L 122.791158 63.201460 L 123.241847 63.061949 L 123.695284 62.921219 L 124.151513 62.779251 L 124.610576 62.636024 L 125.072517 62.491516 L 125.537381 62.345707 L 126.005212 62.198575 L 126.476057 62.050096 L 126.949963 61.900250 L 127.426977 61.749011 L 127.907148 61.596356 L 128.390525 61.442262 L 128.877159 61.286703 L 129.367100 61.129654 L 129.860401 60.971089 L 130.357116 60.810981 L 130.857298 60.649303 L 131.361001 60.486029 L 131.868284 60.321128 L 132.379202 60.154574 L 132.893813 59.986334 L 133.412179 59.816381 L 133.934358 59.644682 L 134.460412 59.471206 L 134.923371 59.318091" fill="none" id="tattoo-path-37b9728e83b88617" stroke="#000000" stroke-linecap="round" stroke-linejoin="round" stroke-width="4.200000"/>
  <path clip-path="url(#tattoo-band-layer-clip)" d="M 95.566698 131.984178 L 95.611792 131.799228 L 95.741273 131.257649 L 95.867535 130.718948 L 95.990631 130.183097 L 96.110614 129.650069 L 96.227538 129.119839 L 96.341452 128.592380 L 96.452407 128.067666 L 96.560452 127.545671 L 96.665633 127.026368 L 96.767998 126.509733 L 96.867593 125.995738 L 96.964462 125.484359 L 97.058649 124.975570 L 97.150198 124.469345 L 97.239149 123.965660 L 97.325545 123.464489 L 97.409425 122.965808 L 97.490828 122.469591 L 97.569795 121.975814 L 97.646361 121.484452 L 97.720564 120.995482 L 97.792441 120.508878 L 97.862027 120.024617 L 97.929356 119.542676 L 97.994463 119.063029 L 98.057381 118.585654 L 98.118141 118.110528 L 98.176777 117.637627 L 98.233320 117.166928 L 98.287799 116.698408 L 98.340246 116.232045 L 98.390689 115.767816 L 98.439157 115.305699 L 98.485677 114.845671 L 98.530279 114.387710 L 98.572988 113.931796 L 98.613831 113.477905 L 98.652834 113.026017 L 98.690022 112.576109 L 98.725419 112.128162 L 98.759051 111.682154 L 98.790941 111.238063 L 98.821111 110.795870 L 98.849586 110.355554 L 98.876386 109.917095 L 98.901535 109.480472 L 98.925052 109.045665 L 98.946960 108.612655 L 98.967279 108.181422 L 98.986029 107.751946 L 99.003228 107.324208 L 99.018898 106.898189 L 99.033055 106.473869 L 99.045719 106.051231 L 99.056909 105.630255 L 99.066640 105.210922 L 99.074931 104.793215 L 99.081799 104.377115 L 99.087260 103.962603 L 99.091330 103.549662 L 99.094025 103.138275 L 99.095361 102.728423 L 99.095352 102.320089 L 99.094014 101.913256 L 99.091361 101.507906 L 99.087407 101.104022 L 99.082166 100.701588 L 99.075652 100.300587 L 99.067878 99.901001 L 99.058857 99.502816 L 99.048601 99.106013 L 99.037123 98.710577 L 99.024436 98.316493 L 99.010551 97.923743 L 98.995479 97.532312 L 98.979232 97.142184 L 98.961821 96.753345 L 98.943256 96.365778 L 98.923549 95.979467 L 98.902710 95.594399 L 98.880749 95.210558 L 98.857675 94.827928 L 98.833498 94.446496 L 98.808227 94.066246 L 98.781873 93.687164 L 98.754443 93.309235 L 98.725946 92.932445 L 98.696390 92.556780 L 98.665785 92.182226 L 98.634138 91.808768 L 98.601457 91.436393 L 98.567750 91.065087 L 98.533023 90.694837 L 98.497285 90.325628 L 98.460542 89.957447 L 98.422801 89.590282 L 98.384069 89.224117 L 98.344353 88.858942 L 98.303658 88.494742 L 98.261991 88.131504 L 98.219358 87.769216 L 98.175764 87.407864 L 98.131216 87.047437 L 98.085718 86.687922 L 98.039276 86.329305 L 97.991895 85.971576 L 97.943580 85.614720 L 97.894336 85.258727 L 97.844167 84.903584 L 97.793078 84.549279 L 97.741073 84.195801 L 97.688156 83.843136 L 97.634331 83.491274 L 97.579602 83.140202 L 97.523973 82.789910 L 97.467447 82.440385 L 97.410028 82.091616 L 97.351719 81.743592 L 97.292523 81.396301 L 97.232443 81.049733 L 97.171482 80.703875 L 97.109643 80.358718 L 97.046927 80.014249 L 96.983339 79.670459 L 96.918878 79.327335 L 96.853549 78.984868 L 96.787353 78.643046 L 96.720292 78.301859 L 96.652368 77.961296 L 96.583582 77.621347 L 96.513935 77.282002 L 96.443430 76.943249 L 96.372067 76.605079 L 96.299848 76.267481 L 96.226773 75.930445 L 96.152844 75.593961 L 96.078061 75.258018 L 96.002425 74.922607 L 95.925936 74.587718 L 95.848594 74.253341 L 95.770401 73.919465 L 95.691356 73.586082 L 95.611459 73.253180 L 95.530710 72.920752 L 95.449109 72.588786 L 95.366656 72.257273 L 95.283350 71.926204 L 95.199190 71.595569 L 95.114176 71.265359 L 95.028307 70.935564 L 94.941583 70.606175 L 94.854002 70.277182 L 94.765562 69.948577 L 94.676264 69.620349 L 94.586105 69.292491 L 94.495084 68.964992 L 94.403199 68.637843 L 94.310449 68.311036 L 94.216832 67.984561 L 94.122346 67.658410 L 94.026989 67.332573 L 93.930758 67.007042 L 93.833652 66.681807 L 93.735668 66.356860 L 93.636803 66.032192 L 93.537055 65.707795 L 93.436422 65.383659 L 93.334899 65.059775 L 93.232486 64.736136 L 93.129177 64.412732 L 93.024970 64.089555 L 92.919863 63.766597 L 92.813850 63.443848 L 92.706929 63.121300 L 92.599097 62.798946 L 92.490349 62.476775 L 92.380681 62.154781 L 92.270089 61.832954 L 92.158570 61.511286 L 92.046119 61.189769 L 91.932732 60.868395 L 91.818404 60.547155 L 91.703130 60.226041 L 91.586906 59.905045 L 91.469727 59.584158 L 91.351587 59.263373 L 91.232483 58.942681 L 91.112408 58.622074 L 90.991357 58.301544 L 90.869325 57.981083 L 90.746306 57.660683 L 90.622294 57.340335 L 90.497284 57.020033 L 90.371269 56.699767 L 90.244243 56.379530 L 90.116201 56.059314 L 89.987134 55.739111 L 89.857038 55.418913 L 89.725905 55.098713 L 89.593729 54.778501 L 89.460502 54.458271 L 89.326218 54.138014 L 89.190868 53.817723 L 89.054447 53.497390 L 88.916945 53.177008 L 88.778356 52.856567 L 88.638672 52.536061 L 88.497885 52.215483 L 88.355986 51.894823 L 88.212968 51.574075 L 88.068821 51.253231 L 87.923538 50.932282 L 87.777109 50.611223 L 87.629526 50.290044 L 87.480779 49.968739 L 87.330860 49.647299 L 87.179758 49.325717 L 87.027465 49.003986 L 86.873971 48.682098 L 86.719265 48.360045 L 86.563338 48.037820 L 86.406179 47.715416 L 86.247778 47.392824 L 86.088125 47.070038 L 85.927208 46.747050 L 85.765016 46.423853 L 85.601539 46.100439 L 85.436765 45.776800 L 85.270683 45.452930 L 85.103280 45.128821 L 84.934546 44.804466 L 84.764466 44.479857 L 84.593031 44.154987 L 84.420226 43.829849 L 84.246039 43.504435 L 84.070457 43.178739 L 83.893468 42.852753 L 83.715057 42.526469 L 83.535210 42.199881 L 83.353915 41.872982 L 83.171157 41.545764 L 82.986922 41.218220 L 82.801195 40.890343 L 82.613962 40.562126 L 82.425207 40.233562 L 82.234916 39.904644 L 82.043072 39.575365 L 81.849661 39.245718 L 81.654665 38.915696 L 81.458069 38.585293 L 81.259857 38.254500 L 81.060011 37.923312 L 80.858515 37.591722 L 80.655351 37.259722 L 80.450502 36.927306 L 80.243949 36.594468 L 80.035675 36.261201 L 79.825662 35.927497 L 79.613889 35.593351 L 79.400339 35.258756 L 79.184992 34.923706 L 78.967828 34.588193 L 78.748827 34.252212 L 78.527969 33.915756 L 78.305234 33.578819 L 78.080600 33.241395 L 77.854046 32.903477 L 77.625551 32.565059 L 77.395092 32.226136 L 77.162647 31.886701 L 76.928193 31.546748 L 76.691708 31.206271 L 76.453168 30.865265 L 76.212548 30.523724 L 75.969826 30.181641 L 75.724976 29.839012 L 75.477973 29.495832 L 75.228791 29.152093 L 74.977406 28.807792 L 74.723791 28.462923 L 74.467918 28.117481 L 74.209762 27.771460 L 73.949294 27.424856 L 73.686487 27.077664 L 73.421311 26.729880 L 73.153739 26.381497 L 72.883741 26.032513 L 72.611287 25.682923 L 72.336346 25.332722 L 72.058888 24.981906 L 71.778882 24.630472 L 71.496295 24.278414 L 71.211095 23.925731 L 70.923250 23.572418 L 70.632725 23.218472 L 70.339488 22.863890 L 70.043503 22.508668 L 69.744735 22.152804 L 69.443148 21.796295 L 69.138707 21.439138 L 68.831374 21.081332 L 68.521111 20.722875 L 68.207882 20.363764 L 67.891646 20.003997 L 67.572364 19.643574 L 67.249997 19.282494 L 66.924504 18.920755 L 66.595843 18.558357 L 66.263971 18.195299 L 65.928848 17.831581 L 65.590427 17.467205 L 65.248667 17.102169 L 64.903521 16.736475 L 64.554943 16.370125 L 64.202888 16.003119 L 63.847307 15.635459 L 63.488153 15.267148 L 63.125377 14.898189 L 62.758929 14.528584 L 62.388758 14.158336 L 62.014814 13.787450 L 61.637043 13.415930 L 61.255392 13.043780 L 60.869808 12.671005 L 60.480235 12.297612 L 60.086618 11.923606 L 59.688899 11.548995 L 59.287020 11.173784 L 58.880924 10.797983 L 58.470549 10.421599 L 58.329678 10.293554" fill="none" id="tattoo-path-142b776f69d3999f" stroke="#000000" stroke-linecap="round" stroke-linejoin="round" stroke-width="3.600000"/>
  <path clip-path="url(#tattoo-band-layer-clip)" d="M 33.618000 123.082903 L 33.703743 123.092200 L 34.259237 123.148671 L 34.812834 123.201224 L 35.364529 123.249903 L 35.914316 123.294752 L 36.462188 123.335815 L 37.008143 123.373134 L 37.552174 123.406753 L 38.094279 123.436714 L 38.634453 123.463056 L 39.172695 123.485822 L 39.709000 123.505051 L 40.243367 123.520783 L 40.775795 123.533057 L 41.306280 123.541912 L 41.834823 123.547386 L 42.361422 123.549515 L 42.886077 123.548339 L 43.408787 123.543891 L 43.929553 123.536210 L 44.448375 123.525329 L 44.965254 123.511285 L 45.480191 123.494111 L 45.993186 123.473842 L 46.504242 123.450510 L 47.013360 123.424150 L 47.520541 123.394792 L 48.025790 123.362470 L 48.529106 123.327215 L 49.030495 123.289058 L 49.529957 123.248030 L 50.027496 123.204160 L 50.523116 123.157478 L 51.016819 123.108014 L 51.508610 123.055797 L 51.998492 123.000854 L 52.486469 122.943213 L 52.972545 122.882903 L 53.456725 122.819951 L 53.939012 122.754382 L 54.419411 122.686223 L 54.897928 122.615500 L 55.374565 122.542238 L 55.849329 122.466463 L 56.322225 122.388198 L 56.793257 122.307468 L 57.262431 122.224298 L 57.729752 122.138710 L 58.195225 122.050727 L 58.658856 121.960372 L 59.120650 121.867667 L 59.580613 121.772635 L 60.038752 121.675297 L 60.495070 121.575674 L 60.949575 121.473786 L 61.402272 121.369655 L 61.853168 121.263301 L 62.302267 121.154743 L 62.749577 121.044000 L 63.195103 120.931093 L 63.638852 120.816040 L 64.080829 120.698859 L 64.521042 120.579568 L 64.959495 120.458185 L 65.396196 120.334728 L 65.831150 120.209214 L 66.264365 120.081660 L 66.695845 119.952083 L 67.125599 119.820498 L 67.553631 119.686922 L 67.979949 119.551370 L 68.404559 119.413858 L 68.827467 119.274401 L 69.248679 119.133014 L 69.668203 118.989711 L 70.086043 118.844506 L 70.502207 118.697415 L 70.916702 118.548449 L 71.329532 118.397623 L 71.740706 118.244951 L 72.150228 118.090444 L 72.558106 117.934115 L 72.964345 117.775978 L 73.368952 117.616044 L 73.771933 117.454325 L 74.173295 117.290832 L 74.573043 117.125578 L 74.971183 116.958573 L 75.367723 116.789829 L 75.762667 116.619355 L 76.156022 116.447163 L 76.547795 116.273263 L 76.937990 116.097665 L 77.326614 115.920378 L 77.713672 115.741412 L 78.099172 115.560776 L 78.483118 115.378480 L 78.865516 115.194533 L 79.246371 115.008943 L 79.625691 114.821719 L 80.003480 114.632869 L 80.379743 114.442401 L 80.754487 114.250322 L 81.127717 114.056642 L 81.499438 113.861367 L 81.869656 113.664504 L 82.238375 113.466060 L 82.605602 113.266043 L 82.971340 113.064460 L 83.335597 112.861316 L 83.698375 112.656617 L 84.059681 112.450371 L 84.419520 112.242583 L 84.777896 112.033259 L 85.134814 111.822405 L 85.490279 111.610025 L 85.844295 111.396126 L 86.196867 111.180712 L 86.548000 110.963788 L 86.897698 110.745359 L 87.245966 110.525429 L 87.592807 110.304003 L 87.938226 110.081086 L 88.282227 109.856680 L 88.624815 109.630791 L 88.965993 109.403422 L 89.305764 109.174576 L 89.644134 108.944257 L 89.981106 108.712469 L 90.316683 108.479213 L 90.650869 108.244494 L 90.983668 108.008315 L 91.315083 107.770677 L 91.645117 107.531583 L 91.973774 107.291037 L 92.301057 107.049039 L 92.626968 106.805593 L 92.951512 106.560699 L 93.274690 106.314361 L 93.596506 106.066579 L 93.916962 105.817356 L 94.236062 105.566692 L 94.553807 105.314588 L 94.870200 105.061047 L 95.185244 104.806068 L 95.498940 104.549654 L 95.811291 104.291804 L 96.122299 104.032519 L 96.431966 103.771800 L 96.740294 103.509646 L 97.047285 103.246059 L 97.352939 102.981038 L 97.657260 102.714583 L 97.960247 102.446695 L 98.261904 102.177372 L 98.562230 101.906615 L 98.861228 101.634422 L 99.158898 101.360794 L 99.455240 101.085729 L 99.750257 100.809227 L 100.043948 100.531287 L 100.336315 100.251907 L 100.627357 99.971086 L 100.917075 99.688823 L 101.205470 99.405117 L 101.492542 99.119965 L 101.778289 98.833367 L 102.062714 98.545320 L 102.345815 98.255823 L 102.627592 97.964873 L 102.908044 97.672469 L 103.187171 97.378608 L 103.464973 97.083288 L 103.741448 96.786506 L 104.016596 96.488260 L 104.290416 96.188547 L 104.562905 95.887365 L 104.834064 95.584711 L 105.103891 95.280581 L 105.372383 94.974973 L 105.639540 94.667883 L 105.905359 94.359308 L 106.169838 94.049246 L 106.432976 93.737692 L 106.694770 93.424642 L 106.955217 93.110094 L 107.214316 92.794044 L 107.472063 92.476487 L 107.728456 92.157420 L 107.983491 91.836839 L 108.237166 91.514739 L 108.489477 91.191117 L 108.740420 90.865968 L 108.989993 90.539287 L 109.238191 90.211071 L 109.485011 89.881315 L 109.730449 89.550014 L 109.974499 89.217163 L 110.217159 88.882758 L 110.458423 88.546793 L 110.698286 88.209264 L 110.936744 87.870166 L 111.173793 87.529493 L 111.409425 87.187241 L 111.643637 86.843403 L 111.876423 86.497975 L 112.107776 86.150950 L 112.337691 85.802325 L 112.566162 85.452092 L 112.793183 85.100246 L 113.018747 84.746782 L 113.242847 84.391693 L 113.465477 84.034974 L 113.686630 83.676619 L 113.906298 83.316621 L 114.124474 82.954975 L 114.341151 82.591674 L 114.556320 82.226712 L 114.769973 81.860083 L 114.982103 81.491780 L 115.192701 81.121797 L 115.401757 80.750127 L 115.609265 80.376764 L 115.815213 80.001701 L 116.019594 79.624931 L 116.222396 79.246448 L 116.423612 78.866245 L 116.623231 78.484315 L 116.821242 78.100651 L 117.017635 77.715245 L 117.212399 77.328092 L 117.405525 76.939184 L 117.596999 76.548514 L 117.786812 76.156074 L 117.974951 75.761858 L 118.161405 75.365858 L 118.346161 74.968067 L 118.529207 74.568478 L 118.710530 74.167082 L 118.890118 73.763874 L 119.067958 73.358845 L 119.244035 72.951989 L 119.418336 72.543296 L 119.590847 72.132761 L 119.761554 71.720375 L 119.930442 71.306131 L 120.097497 70.890022 L 120.262702 70.472039 L 120.426044 70.052175 L 120.587506 69.630423 L 120.747072 69.206775 L 120.904725 68.781223 L 121.060450 68.353760 L 121.214229 67.924377 L 121.366044 67.493068 L 121.515879 67.059825 L 121.663715 66.624640 L 121.809534 66.187505 L 121.953318 65.748413 L 122.095047 65.307357 L 122.234702 64.864328 L 122.372264 64.419320 L 122.507712 63.972324 L 122.641027 63.523333 L 122.772187 63.072341 L 122.901173 62.619338 L 123.027961 62.164319 L 123.152530 61.707276 L 123.274859 61.248201 L 123.394925 60.787088 L 123.512704 60.323928 L 123.628174 59.858716 L 123.741310 59.391444 L 123.852089 58.922106 L 123.960486 58.450693 L 124.066476 57.977201 L 124.170034 57.501621 L 124.271133 57.023948 L 124.369749 56.544175 L 124.465853 56.062295 L 124.559420 55.578303 L 124.650421 55.092192 L 124.738828 54.603957 L 124.824614 54.113590 L 124.907748 53.621088 L 124.988203 53.126444 L 125.065948 52.629652 L 125.140952 52.130708 L 125.213186 51.629607 L 125.282617 51.126343 L 125.349214 50.620912 L 125.412946 50.113309 L 125.473778 49.603530 L 125.531678 49.091571 L 125.586613 48.577428 L 125.638547 48.061097 L 125.687446 47.542575 L 125.733275 47.021858 L 125.775999 46.498945 L 125.815579 45.973831 L 125.851981 45.446515 L 125.885166 44.916994 L 125.915096 44.385267 L 125.941732 43.851332 L 125.965036 43.315189 L 125.984968 42.776835 L 126.001487 42.236271 L 126.014553 41.693496 L 126.024124 41.148511 L 126.030158 40.601316 L 126.032613 40.051912 L 126.031445 39.500300 L 126.026611 38.946483 L 126.018065 38.390462 L 126.005764 37.832241 L 126.003287 37.746031" fill="none" id="tattoo-path-62938bf4a0709bcd" stroke="#000000" stroke-linecap="round" stroke-linejoin="round" stroke-width="3.100000"/>
  <path clip-path="url(#tattoo-band-layer-clip)" d="M 22.785795 112.486721 L 22.927688 112.075809 L 23.111071 111.551829 L 23.295407 111.032032 L 23.480669 110.516361 L 23.666830 110.004762 L 23.853864 109.497184 L 24.041745 108.993573 L 24.230450 108.493878 L 24.419954 107.998048 L 24.610234 107.506033 L 24.801268 107.017784 L 24.993035 106.533252 L 25.185513 106.052389 L 25.378682 105.575148 L 25.572524 105.101483 L 25.767018 104.631347 L 25.962147 104.164695 L 26.157893 103.701484 L 26.354239 103.241668 L 26.551168 102.785205 L 26.748664 102.332052 L 26.946712 101.882167 L 27.145297 101.435509 L 27.344405 100.992037 L 27.544021 100.551710 L 27.744132 100.114489 L 27.944726 99.680335 L 28.145789 99.249210 L 28.347309 98.821075 L 28.549276 98.395893 L 28.751676 97.973627 L 28.954501 97.554241 L 29.157739 97.137699 L 29.361380 96.723965 L 29.565414 96.313005 L 29.769833 95.904784 L 29.974626 95.499269 L 30.179786 95.096427 L 30.385305 94.696223 L 30.591174 94.298626 L 30.797385 93.903604 L 31.003932 93.511126 L 31.210806 93.121159 L 31.418003 92.733674 L 31.625514 92.348641 L 31.833334 91.966029 L 32.041457 91.585809 L 32.249877 91.207952 L 32.458589 90.832429 L 32.667588 90.459213 L 32.876868 90.088275 L 33.086426 89.719589 L 33.296256 89.353126 L 33.506356 88.988861 L 33.716719 88.626767 L 33.927343 88.266817 L 34.138225 87.908988 L 34.349361 87.553252 L 34.560747 87.199586 L 34.772381 86.847964 L 34.984261 86.498363 L 35.196383 86.150758 L 35.408745 85.805127 L 35.621345 85.461445 L 35.834180 85.119689 L 36.047250 84.779838 L 36.260553 84.441868 L 36.474086 84.105758 L 36.687848 83.771486 L 36.901839 83.439030 L 37.116057 83.108369 L 37.330502 82.779482 L 37.545172 82.452349 L 37.760066 82.126948 L 37.975185 81.803261 L 38.190529 81.481267 L 38.406096 81.160947 L 38.621886 80.842280 L 38.837901 80.525249 L 39.054139 80.209834 L 39.270602 79.896017 L 39.487289 79.583779 L 39.704201 79.273103 L 39.921340 78.963969 L 40.138704 78.656361 L 40.356297 78.350262 L 40.574117 78.045653 L 40.792167 77.742518 L 41.010448 77.440840 L 41.228961 77.140603 L 41.447707 76.841790 L 41.666688 76.544385 L 41.885905 76.248373 L 42.105361 75.953736 L 42.325057 75.660460 L 42.544994 75.368529 L 42.765175 75.077929 L 42.985602 74.788644 L 43.206277 74.500659 L 43.427202 74.213960 L 43.648380 73.928532 L 43.869813 73.644361 L 44.091503 73.361433 L 44.313453 73.079734 L 44.535666 72.799250 L 44.758144 72.519968 L 44.980891 72.241874 L 45.203909 71.964955 L 45.427201 71.689197 L 45.650771 71.414589 L 45.874620 71.141117 L 46.098754 70.868768 L 46.323174 70.597531 L 46.547884 70.327392 L 46.772889 70.058339 L 46.998190 69.790361 L 47.223792 69.523446 L 47.449698 69.257581 L 47.675913 68.992756 L 47.902440 68.728958 L 48.129282 68.466177 L 48.356444 68.204401 L 48.583930 67.943619 L 48.811744 67.683820 L 49.039890 67.424993 L 49.268372 67.167129 L 49.497194 66.910215 L 49.726361 66.654242 L 49.955878 66.399200 L 50.185748 66.145077 L 50.415976 65.891865 L 50.646568 65.639553 L 50.877527 65.388131 L 51.108858 65.137590 L 51.340566 64.887920 L 51.572657 64.639111 L 51.805134 64.391155 L 52.038003 64.144041 L 52.271270 63.897761 L 52.504938 63.652306 L 52.739014 63.407666 L 52.973503 63.163833 L 53.208410 62.920799 L 53.443740 62.678553 L 53.679500 62.437089 L 53.915693 62.196397 L 54.152327 61.956469 L 54.389407 61.717298 L 54.626939 61.478874 L 54.864927 61.241189 L 55.103379 61.004237 L 55.342301 60.768008 L 55.581697 60.532495 L 55.821575 60.297691 L 56.061941 60.063588 L 56.302800 59.830178 L 56.544159 59.597454 L 56.786025 59.365409 L 57.028403 59.134036 L 57.271301 58.903326 L 57.514725 58.673274 L 57.758682 58.443873 L 58.003177 58.215115 L 58.248220 57.986993 L 58.493815 57.759502 L 58.739970 57.532633 L 58.986692 57.306382 L 59.233989 57.080741 L 59.481866 56.855704 L 59.730333 56.631264 L 59.979395 56.407416 L 60.229060 56.184154 L 60.479337 55.961470 L 60.730232 55.739360 L 60.981753 55.517818 L 61.233907 55.296836 L 61.486704 55.076411 L 61.740150 54.856536 L 61.994253 54.637206 L 62.249022 54.418415 L 62.504465 54.200157 L 62.760589 53.982428 L 63.017404 53.765221 L 63.274918 53.548533 L 63.533139 53.332357 L 63.792076 53.116689 L 64.051737 52.901524 L 64.312132 52.686856 L 64.573268 52.472682 L 64.835156 52.258996 L 65.097804 52.045793 L 65.361222 51.833069 L 65.625418 51.620820 L 65.890402 51.409040 L 66.156184 51.197727 L 66.422772 50.986874 L 66.690177 50.776479 L 66.958409 50.566537 L 67.227477 50.357043 L 67.497391 50.147995 L 67.768161 49.939387 L 68.039798 49.731217 L 68.312312 49.523480 L 68.585713 49.316172 L 68.860012 49.109291 L 69.135219 48.902832 L 69.411346 48.696793 L 69.688403 48.491169 L 69.966400 48.285957 L 70.245350 48.081155 L 70.525264 47.876758 L 70.806152 47.672765 L 71.088026 47.469171 L 71.370899 47.265975 L 71.654781 47.063173 L 71.939684 46.860762 L 72.225622 46.658741 L 72.512605 46.457105 L 72.800646 46.255854 L 73.089757 46.054983 L 73.379952 45.854492 L 73.671242 45.654378 L 73.963641 45.454638 L 74.257161 45.255271 L 74.551816 45.056275 L 74.847620 44.857648 L 75.144584 44.659388 L 75.442724 44.461493 L 75.742053 44.263961 L 76.042585 44.066792 L 76.344333 43.869984 L 76.647313 43.673536 L 76.951538 43.477446 L 77.257023 43.281713 L 77.563784 43.086336 L 77.871834 42.891315 L 78.181189 42.696648 L 78.491865 42.502335 L 78.803876 42.308375 L 79.117239 42.114768 L 79.431969 41.921513 L 79.748083 41.728611 L 80.065596 41.536061 L 80.384525 41.343862 L 80.704887 41.152016 L 81.026698 40.960522 L 81.349975 40.769381 L 81.674737 40.578593 L 82.000999 40.388159 L 82.328781 40.198079 L 82.658099 40.008355 L 82.988972 39.818987 L 83.321419 39.629976 L 83.655457 39.441325 L 83.991106 39.253033 L 84.328384 39.065103 L 84.667311 38.877537 L 85.007907 38.690336 L 85.350191 38.503502 L 85.694183 38.317038 L 86.039903 38.130945 L 86.387372 37.945227 L 86.736611 37.759886 L 87.087641 37.574925 L 87.440483 37.390347 L 87.795158 37.206155 L 88.151689 37.022352 L 88.510097 36.838942 L 88.870406 36.655929 L 89.232637 36.473316 L 89.596815 36.291109 L 89.962961 36.109310 L 90.331100 35.927926 L 90.701256 35.746960 L 91.073453 35.566417 L 91.447715 35.386304 L 91.824068 35.206624 L 92.202536 35.027384 L 92.583145 34.848590 L 92.965922 34.670249 L 93.350891 34.492365 L 93.738081 34.314947 L 94.127517 34.138000 L 94.519228 33.961533 L 94.913240 33.785552 L 95.309582 33.610066 L 95.708283 33.435083 L 96.109370 33.260610 L 96.512874 33.086657 L 96.918823 32.913232 L 97.327248 32.740346 L 97.738180 32.568006 L 98.151648 32.396225 L 98.567685 32.225011 L 98.986321 32.054375 L 99.407590 31.884329 L 99.831523 31.714883 L 100.258154 31.546051 L 100.687515 31.377843 L 101.119641 31.210272 L 101.554567 31.043352 L 101.992326 30.877096 L 102.432955 30.711518 L 102.876490 30.546631 L 103.322965 30.382451 L 103.772419 30.218994 L 104.224889 30.056274 L 104.680412 29.894308 L 105.139027 29.733112 L 105.600772 29.572705 L 106.065688 29.413104 L 106.533814 29.254326 L 107.005191 29.096392 L 107.479860 28.939320 L 107.957863 28.783131 L 108.439241 28.627845 L 108.924039 28.473484 L 109.412298 28.320070 L 109.904065 28.167625 L 110.399382 28.016173 L 110.898296 27.865738 L 111.400852 27.716345 L 111.907098 27.568019 L 112.417080 27.420787 L 112.930846 27.274676 L 113.448446 27.129713 L 113.969928 26.985927 L 114.495342 26.843349 L 115.024739 26.702009 L 115.558171 26.561937 L 116.095690 26.423167 L 116.517059 26.316252" fill="none" id="tattoo-path-b4458991e988fb14" stroke="#000000" stroke-linecap="round" stroke-linejoin="round" stroke-width="2.500000"/>
  <path clip-path="url(#tattoo-band-layer-clip)" d="M 117.719479 117.507096 L 117.332628 117.182769 L 116.908500 116.826708 L 116.487858 116.473098 L 116.070643 116.121902 L 115.656798 115.773081 L 115.246268 115.426600 L 114.838997 115.082422 L 114.434933 114.740512 L 114.034023 114.400835 L 113.636214 114.063357 L 113.241458 113.728044 L 112.849704 113.394865 L 112.460904 113.063785 L 112.075010 112.734773 L 111.691975 112.407799 L 111.311755 112.082831 L 110.934304 111.759838 L 110.559578 111.438792 L 110.187534 111.119663 L 109.818129 110.802422 L 109.451322 110.487041 L 109.087073 110.173492 L 108.725340 109.861747 L 108.366085 109.551780 L 108.009270 109.243565 L 107.654855 108.937074 L 107.302805 108.632283 L 106.953082 108.329166 L 106.605650 108.027699 L 106.260475 107.727856 L 105.917522 107.429613 L 105.576756 107.132948 L 105.238144 106.837836 L 104.901653 106.544255 L 104.567251 106.252181 L 104.234907 105.961593 L 103.904588 105.672469 L 103.576264 105.384786 L 103.249906 105.098523 L 102.925483 104.813660 L 102.602966 104.530176 L 102.282327 104.248050 L 101.963537 103.967262 L 101.646568 103.687792 L 101.331394 103.409621 L 101.017987 103.132729 L 100.706321 102.857097 L 100.396370 102.582707 L 100.088108 102.309540 L 99.781510 102.037577 L 99.476551 101.766801 L 99.173207 101.497194 L 98.871453 101.228739 L 98.571267 100.961417 L 98.272624 100.695213 L 97.975502 100.430108 L 97.679878 100.166088 L 97.385730 99.903134 L 97.093036 99.641231 L 96.801774 99.380363 L 96.511922 99.120514 L 96.223461 98.861668 L 95.936369 98.603811 L 95.650625 98.346926 L 95.366210 98.090999 L 95.083103 97.836015 L 94.801286 97.581960 L 94.520739 97.328818 L 94.241443 97.076575 L 93.963378 96.825218 L 93.686528 96.574731 L 93.410872 96.325103 L 93.136394 96.076318 L 92.863076 95.828363 L 92.590900 95.581225 L 92.319848 95.334890 L 92.049905 95.089346 L 91.781052 94.844579 L 91.513273 94.600577 L 91.246552 94.357327 L 90.980873 94.114817 L 90.716219 93.873034 L 90.452575 93.631965 L 90.189925 93.391599 L 89.928254 93.151924 L 89.667546 92.912927 L 89.407787 92.674597 L 89.148961 92.436923 L 88.891054 92.199892 L 88.634051 91.963493 L 88.377939 91.727715 L 88.122702 91.492547 L 87.868327 91.257977 L 87.614799 91.023994 L 87.362106 90.790588 L 87.110233 90.557747 L 86.859168 90.325461 L 86.608896 90.093719 L 86.359406 89.862511 L 86.110682 89.631825 L 85.862714 89.401653 L 85.615488 89.171982 L 85.368992 88.942804 L 85.123213 88.714108 L 84.878138 88.485884 L 84.633757 88.258121 L 84.390055 88.030810 L 84.147023 87.803942 L 83.904647 87.577506 L 83.662916 87.351492 L 83.421818 87.125891 L 83.181342 86.900694 L 82.941477 86.675890 L 82.702210 86.451471 L 82.463532 86.227426 L 82.225430 86.003748 L 81.987893 85.780425 L 81.750912 85.557450 L 81.514475 85.334812 L 81.278570 85.112504 L 81.043189 84.890515 L 80.808319 84.668837 L 80.573951 84.447461 L 80.340074 84.226377 L 80.106678 84.005578 L 79.873752 83.785053 L 79.641287 83.564795 L 79.409272 83.344795 L 79.177697 83.125043 L 78.946553 82.905532 L 78.715829 82.686252 L 78.485515 82.467195 L 78.255603 82.248353 L 78.026082 82.029716 L 77.796942 81.811277 L 77.568174 81.593026 L 77.339769 81.374956 L 77.111717 81.157058 L 76.884009 80.939324 L 76.656635 80.721745 L 76.429586 80.504313 L 76.202853 80.287019 L 75.976426 80.069856 L 75.750297 79.852814 L 75.524457 79.635887 L 75.298896 79.419065 L 75.073605 79.202340 L 74.848576 78.985704 L 74.623799 78.769149 L 74.399266 78.552667 L 74.174968 78.336249 L 73.950895 78.119887 L 73.727040 77.903574 L 73.503394 77.687300 L 73.279947 77.471059 L 73.056691 77.254841 L 72.833618 77.038638 L 72.610718 76.822443 L 72.387984 76.606247 L 72.165407 76.390042 L 71.942977 76.173821 L 71.720688 75.957574 L 71.498529 75.741293 L 71.276493 75.524972 L 71.054572 75.308600 L 70.832756 75.092171 L 70.611037 74.875676 L 70.389407 74.659106 L 70.167858 74.442455 L 69.946381 74.225712 L 69.724967 74.008871 L 69.503609 73.791923 L 69.282299 73.574860 L 69.061026 73.357673 L 68.839784 73.140354 L 68.618564 72.922895 L 68.397358 72.705288 L 68.176157 72.487523 L 67.954953 72.269594 L 67.733738 72.051491 L 67.512503 71.833205 L 67.291240 71.614730 L 67.069941 71.396055 L 66.848597 71.177173 L 66.627200 70.958074 L 66.405741 70.738751 L 66.184213 70.519195 L 65.962607 70.299397 L 65.740914 70.079348 L 65.519126 69.859040 L 65.297235 69.638463 L 65.075232 69.417610 L 64.853108 69.196471 L 64.630856 68.975037 L 64.408467 68.753300 L 64.185932 68.531250 L 63.963243 68.308879 L 63.740391 68.086176 L 63.517367 67.863134 L 63.294164 67.639743 L 63.070772 67.415993 L 62.847183 67.191876 L 62.623387 66.967382 L 62.399377 66.742501 L 62.175144 66.517225 L 61.950678 66.291543 L 61.725971 66.065446 L 61.501015 65.838924 L 61.275799 65.611967 L 61.050316 65.384567 L 60.824556 65.156712 L 60.598511 64.928393 L 60.372170 64.699600 L 60.145526 64.470322 L 59.918568 64.240550 L 59.691288 64.010273 L 59.463677 63.779481 L 59.235725 63.548163 L 59.007423 63.316310 L 58.778761 63.083909 L 58.549730 62.850951 L 58.320320 62.617425 L 58.090522 62.383319 L 57.860326 62.148623 L 57.629723 61.913326 L 57.398702 61.677417 L 57.167254 61.440884 L 56.935369 61.203715 L 56.703037 60.965900 L 56.470248 60.727427 L 56.236991 60.488283 L 56.003257 60.248458 L 55.769036 60.007938 L 55.534316 59.766713 L 55.299088 59.524769 L 55.063340 59.282095 L 54.827063 59.038678 L 54.590245 58.794505 L 54.352877 58.549563 L 54.114946 58.303841 L 53.876443 58.057324 L 53.637355 57.809999 L 53.397672 57.561854 L 53.157383 57.312874 L 52.916476 57.063046 L 52.674939 56.812357 L 52.432762 56.560792 L 52.189932 56.308338 L 51.946438 56.054979 L 51.702267 55.800702 L 51.457409 55.545492 L 51.211850 55.289334 L 50.965578 55.032214 L 50.718581 54.774115 L 50.470847 54.515023 L 50.222362 54.254923 L 49.973115 53.993798 L 49.723092 53.731632 L 49.472279 53.468410 L 49.220665 53.204116 L 48.968235 52.938731 L 48.714977 52.672241 L 48.460876 52.404627 L 48.205918 52.135873 L 47.950091 51.865960 L 47.693379 51.594873 L 47.435768 51.322591 L 47.177244 51.049099 L 46.917793 50.774375 L 46.657400 50.498404 L 46.396049 50.221164 L 46.133726 49.942637 L 45.870415 49.662804 L 45.606101 49.381645 L 45.340768 49.099139 L 45.074400 48.815267 L 44.806981 48.530007 L 44.538495 48.243340 L 44.268926 47.955242 L 43.998256 47.665693 L 43.726469 47.374672 L 43.453548 47.082155 L 43.179474 46.788120 L 42.904232 46.492544 L 42.627802 46.195404 L 42.350167 45.896677 L 42.071308 45.596337 L 41.791207 45.294362 L 41.509845 44.990725 L 41.227203 44.685402 L 40.943261 44.378368 L 40.658001 44.069595 L 40.371401 43.759059 L 40.083442 43.446731 L 39.794103 43.132585 L 39.503364 42.816593 L 39.211203 42.498726 L 38.917599 42.178956 L 38.622531 41.857254 L 38.325975 41.533590 L 38.027911 41.207934 L 37.728315 40.880255 L 37.427163 40.550521 L 37.124434 40.218702 L 36.820102 39.884765 L 36.514145 39.548677 L 36.206536 39.210403 L 35.897252 38.869912 L 35.586267 38.527166 L 35.273555 38.182132 L 34.959091 37.834773 L 34.642848 37.485053 L 34.324798 37.132934 L 34.004915 36.778378 L 33.683170 36.421347 L 33.359536 36.061801 L 33.033984 35.699700 L 32.706483 35.335003 L 32.377006 34.967668 L 32.045521 34.597653 L 31.711997 34.224915 L 31.376404 33.849409 L 31.038709 33.471090 L 30.698880 33.089913 L 30.356885 32.705831 L 30.012690 32.318795 L 29.666260 31.928757 L 29.317562 31.535668 L 28.966559 31.139477 L 28.613216 30.740132 L 28.257496 30.337580 L 27.899362 29.931768 L 27.538776 29.522641 L 27.175700 29.110142 L 26.810094 28.694214 L 26.477061 28.314832" fill="none" id="tattoo-path-206c0e5a3c93dabf" stroke="#000000" stroke-linecap="round" stroke-linejoin="round" stroke-width="2.200000"/>
  <path clip-path="url(#tattoo-band-layer-clip)" d="M 134.802284 86.242829 L 134.415059 85.961663 L 133.965395 85.637302 L 133.517909 85.316620 L 133.072579 84.999555 L 132.629380 84.686047 L 132.188292 84.376039 L 131.749290 84.069474 L 131.312352 83.766294 L 130.877455 83.466446 L 130.444579 83.169875 L 130.013699 82.876530 L 129.584795 82.586357 L 129.157844 82.299308 L 128.732824 82.015332 L 128.309715 81.734380 L 127.888494 81.456406 L 127.469141 81.181362 L 127.051633 80.909203 L 126.635951 80.639885 L 126.222073 80.373362 L 125.809978 80.109593 L 125.399646 79.848534 L 124.991057 79.590145 L 124.584190 79.334386 L 124.179026 79.081215 L 123.775544 78.830595 L 123.373724 78.582486 L 122.973547 78.336852 L 122.574993 78.093655 L 122.178044 77.852860 L 121.782679 77.614431 L 121.388880 77.378334 L 120.996629 77.144533 L 120.605905 76.912996 L 120.216691 76.683690 L 119.828969 76.456583 L 119.442719 76.231643 L 119.057924 76.008839 L 118.674566 75.788140 L 118.292627 75.569517 L 117.912089 75.352940 L 117.532935 75.138381 L 117.155147 74.925811 L 116.778708 74.715203 L 116.403601 74.506529 L 116.029809 74.299762 L 115.657315 74.094877 L 115.286102 73.891846 L 114.916154 73.690646 L 114.547454 73.491251 L 114.179986 73.293637 L 113.813733 73.097779 L 113.448681 72.903655 L 113.084812 72.711240 L 112.722111 72.520513 L 112.360562 72.331451 L 112.000149 72.144031 L 111.640858 71.958233 L 111.282672 71.774034 L 110.925577 71.591416 L 110.569558 71.410355 L 110.214599 71.230834 L 109.860686 71.052832 L 109.507804 70.876329 L 109.155938 70.701306 L 108.805074 70.527745 L 108.455197 70.355628 L 108.106293 70.184936 L 107.758348 70.015650 L 107.411347 69.847755 L 107.065278 69.681232 L 106.720125 69.516065 L 106.375875 69.352237 L 106.032514 69.189732 L 105.690030 69.028534 L 105.348407 68.868626 L 105.007633 68.709993 L 104.667695 68.552621 L 104.328578 68.396493 L 103.990271 68.241596 L 103.652760 68.087915 L 103.316032 67.935434 L 102.980074 67.784142 L 102.644873 67.634023 L 102.310418 67.485063 L 101.976694 67.337251 L 101.643689 67.190572 L 101.311392 67.045013 L 100.979789 66.900563 L 100.648868 66.757208 L 100.318618 66.614936 L 99.989025 66.473735 L 99.660078 66.333593 L 99.331764 66.194498 L 99.004072 66.056440 L 98.676991 65.919406 L 98.350507 65.783386 L 98.024609 65.648368 L 97.699285 65.514342 L 97.374525 65.381298 L 97.050316 65.249224 L 96.726646 65.118111 L 96.403505 64.987948 L 96.080880 64.858726 L 95.758761 64.730435 L 95.437136 64.603065 L 95.115995 64.476607 L 94.795324 64.351052 L 94.475115 64.226391 L 94.155354 64.102613 L 93.836033 63.979712 L 93.517138 63.857678 L 93.198660 63.736502 L 92.880588 63.616176 L 92.562910 63.496693 L 92.245616 63.378043 L 91.928695 63.260219 L 91.612137 63.143213 L 91.295929 63.027018 L 90.980063 62.911625 L 90.664527 62.797027 L 90.349311 62.683218 L 90.034403 62.570189 L 89.719794 62.457934 L 89.405473 62.346446 L 89.091430 62.235717 L 88.777654 62.125742 L 88.464134 62.016514 L 88.150860 61.908025 L 87.837822 61.800271 L 87.525010 61.693244 L 87.212413 61.586938 L 86.900020 61.481348 L 86.587822 61.376467 L 86.275808 61.272289 L 85.963969 61.168810 L 85.652293 61.066023 L 85.340770 60.963922 L 85.029391 60.862503 L 84.718145 60.761760 L 84.407021 60.661688 L 84.096011 60.562282 L 83.785103 60.463536 L 83.474287 60.365446 L 83.163554 60.268007 L 82.852893 60.171215 L 82.542293 60.075064 L 82.231746 59.979550 L 81.921240 59.884669 L 81.610766 59.790416 L 81.300313 59.696787 L 80.989872 59.603778 L 80.679431 59.511385 L 80.368982 59.419604 L 80.058513 59.328430 L 79.748015 59.237861 L 79.437478 59.147892 L 79.126891 59.058520 L 78.816244 58.969741 L 78.505527 58.881551 L 78.194730 58.793948 L 77.883843 58.706928 L 77.572855 58.620487 L 77.261756 58.534623 L 76.950535 58.449333 L 76.639184 58.364613 L 76.327691 58.280461 L 76.016045 58.196873 L 75.704238 58.113848 L 75.392257 58.031382 L 75.080094 57.949473 L 74.767737 57.868118 L 74.455175 57.787315 L 74.142400 57.707062 L 73.829400 57.627356 L 73.516164 57.548195 L 73.202682 57.469577 L 72.888943 57.391500 L 72.574937 57.313962 L 72.260654 57.236961 L 71.946081 57.160496 L 71.631210 57.084564 L 71.316028 57.009165 L 71.000525 56.934295 L 70.684691 56.859955 L 70.368514 56.786142 L 70.051983 56.712856 L 69.735088 56.640095 L 69.417817 56.567857 L 69.100159 56.496142 L 68.782103 56.424949 L 68.463638 56.354277 L 68.144753 56.284125 L 67.825436 56.214492 L 67.505676 56.145377 L 67.185461 56.076781 L 66.864781 56.008701 L 66.543623 55.941139 L 66.221975 55.874093 L 65.899827 55.807563 L 65.577167 55.741550 L 65.253982 55.676052 L 64.930261 55.611070 L 64.605992 55.546604 L 64.281162 55.482654 L 63.955761 55.419220 L 63.629775 55.356303 L 63.303192 55.293903 L 62.976000 55.232020 L 62.648186 55.170656 L 62.319739 55.109809 L 61.990645 55.049482 L 61.660892 54.989676 L 61.330467 54.930390 L 60.999357 54.871626 L 60.667549 54.813386 L 60.335030 54.755670 L 60.001788 54.698479 L 59.667808 54.641816 L 59.333077 54.585681 L 58.997583 54.530076 L 58.661311 54.475002 L 58.324249 54.420463 L 57.986381 54.366458 L 57.647694 54.312991 L 57.308175 54.260064 L 56.967808 54.207678 L 56.626581 54.155835 L 56.284478 54.104539 L 55.941486 54.053792 L 55.597588 54.003596 L 55.252772 53.953955 L 54.907022 53.904870 L 54.560322 53.856345 L 54.212659 53.808383 L 53.864016 53.760987 L 53.514379 53.714160 L 53.163731 53.667907 L 52.812057 53.622229 L 52.459341 53.577132 L 52.105568 53.532619 L 51.750721 53.488693 L 51.394784 53.445360 L 51.037740 53.402622 L 50.679573 53.360485 L 50.320266 53.318953 L 49.959802 53.278030 L 49.598164 53.237722 L 49.235335 53.198033 L 48.871297 53.158968 L 48.506033 53.120532 L 48.139525 53.082731 L 47.771754 53.045571 L 47.402704 53.009056 L 47.032354 52.973194 L 46.660687 52.937989 L 46.287684 52.903448 L 45.913326 52.869577 L 45.537594 52.836384 L 45.160468 52.803874 L 44.781929 52.772054 L 44.401957 52.740932 L 44.020531 52.710515 L 43.637632 52.680810 L 43.253239 52.651825 L 42.867331 52.623568 L 42.479888 52.596046 L 42.090888 52.569269 L 41.700309 52.543244 L 41.308130 52.517981 L 40.914329 52.493488 L 40.518883 52.469774 L 40.121771 52.446849 L 39.722969 52.424722 L 39.322455 52.403404 L 38.920204 52.382904 L 38.516194 52.363232 L 38.110400 52.344400 L 37.702799 52.326419 L 37.293365 52.309299 L 36.882074 52.293052 L 36.468901 52.277690 L 36.053821 52.263224 L 35.636807 52.249667 L 35.217834 52.237032 L 34.796876 52.225332 L 34.373905 52.214579 L 33.948894 52.204788 L 33.521816 52.195973 L 33.092644 52.188147 L 32.661349 52.181325 L 32.227902 52.175523 L 31.792275 52.170755 L 31.354439 52.167037 L 30.914363 52.164386 L 30.472019 52.162817 L 30.027374 52.162349 L 29.580399 52.162997 L 29.131063 52.164780 L 28.679333 52.167717 L 28.225177 52.171824 L 27.768563 52.177123 L 27.309458 52.183631 L 26.847829 52.191370 L 26.383641 52.200360 L 25.916861 52.210621 L 25.447452 52.222176 L 24.975381 52.235046 L 24.500611 52.249253 L 24.023105 52.264822 L 23.542828 52.281776 L 23.059742 52.300139 L 22.573808 52.319936 L 22.084988 52.341192 L 21.593244 52.363935 L 21.098536 52.388190 L 20.600824 52.413985 L 20.100067 52.441348 L 19.596224 52.470309 L 19.089253 52.500896 L 18.579111 52.533141 L 18.065756 52.567074 L 17.549145 52.602728 L 17.029232 52.640134 L 16.505972 52.679327 L 15.979321 52.720340 L 15.449232 52.763211 L 14.915657 52.807973 L 14.378550 52.854665 L 13.837862 52.903324 L 13.293543 52.953991 L 12.745545 53.006704 L 12.193817 53.061504 L 11.717773 53.110291" fill="none" id="tattoo-path-b50adc8d65c8bf5f" stroke="#000000" stroke-linecap="round" stroke-linejoin="round" stroke-width="1.900000"/>
  <path clip-path="url(#tattoo-band-layer-clip)" d="M 77.441258 136.108364 L 77.346746 135.848560 L 77.157874 135.325967 L 76.971489 134.806875 L 76.787545 134.291232 L 76.605996 133.778989 L 76.426801 133.270096 L 76.249916 132.764505 L 76.075300 132.262169 L 75.902914 131.763039 L 75.732717 131.267071 L 75.564670 130.774218 L 75.398737 130.284436 L 75.234881 129.797681 L 75.073064 129.313910 L 74.913253 128.833079 L 74.755412 128.355148 L 74.599509 127.880074 L 74.445510 127.407816 L 74.293382 126.938336 L 74.143095 126.471593 L 73.994618 126.007548 L 73.847920 125.546164 L 73.702972 125.087402 L 73.559746 124.631225 L 73.418212 124.177596 L 73.278344 123.726481 L 73.140114 123.277842 L 73.003495 122.831645 L 72.868463 122.387856 L 72.734991 121.946440 L 72.603055 121.507364 L 72.472630 121.070595 L 72.343693 120.636101 L 72.216220 120.203849 L 72.090188 119.773808 L 71.965576 119.345946 L 71.842361 118.920233 L 71.720522 118.496638 L 71.600037 118.075132 L 71.480886 117.655685 L 71.363050 117.238267 L 71.246508 116.822851 L 71.131240 116.409408 L 71.017229 115.997910 L 70.904454 115.588329 L 70.792899 115.180639 L 70.682545 114.774812 L 70.573374 114.370822 L 70.465371 113.968643 L 70.358516 113.568249 L 70.252795 113.169614 L 70.148191 112.772714 L 70.044688 112.377524 L 69.942270 111.984019 L 69.840923 111.592174 L 69.740631 111.201967 L 69.641380 110.813374 L 69.543155 110.426371 L 69.445942 110.040935 L 69.349728 109.657043 L 69.254498 109.274674 L 69.160240 108.893805 L 69.066940 108.514413 L 68.974586 108.136478 L 68.883164 107.759978 L 68.792663 107.384892 L 68.703071 107.011198 L 68.614375 106.638877 L 68.526564 106.267907 L 68.439626 105.898270 L 68.353551 105.529943 L 68.268327 105.162909 L 68.183944 104.797147 L 68.100390 104.432638 L 68.017655 104.069363 L 67.935730 103.707303 L 67.854604 103.346440 L 67.774267 102.986754 L 67.694710 102.628227 L 67.615922 102.270843 L 67.537896 101.914581 L 67.460621 101.559426 L 67.384088 101.205358 L 67.308290 100.852362 L 67.233216 100.500419 L 67.158859 100.149512 L 67.085211 99.799625 L 67.012262 99.450741 L 66.940005 99.102844 L 66.868433 98.755916 L 66.797537 98.409943 L 66.727310 98.064907 L 66.657744 97.720792 L 66.588831 97.377584 L 66.520566 97.035265 L 66.452940 96.693822 L 66.385947 96.353237 L 66.319580 96.013497 L 66.253832 95.674586 L 66.188697 95.336488 L 66.124168 94.999190 L 66.060238 94.662676 L 65.996902 94.326931 L 65.934154 93.991942 L 65.871987 93.657693 L 65.810396 93.324171 L 65.749375 92.991361 L 65.688917 92.659249 L 65.629019 92.327821 L 65.569673 91.997064 L 65.510875 91.666963 L 65.452620 91.337505 L 65.394902 91.008676 L 65.337717 90.680464 L 65.281059 90.352853 L 65.224923 90.025832 L 65.169305 89.699386 L 65.114199 89.373503 L 65.059603 89.048170 L 65.005510 88.723374 L 64.951916 88.399101 L 64.898817 88.075339 L 64.846210 87.752076 L 64.794089 87.429298 L 64.742450 87.106993 L 64.691290 86.785148 L 64.640605 86.463752 L 64.590390 86.142790 L 64.540643 85.822252 L 64.491358 85.502125 L 64.442534 85.182397 L 64.394165 84.863055 L 64.346249 84.544087 L 64.298782 84.225482 L 64.251762 83.907227 L 64.205184 83.589311 L 64.159045 83.271720 L 64.113343 82.954445 L 64.068074 82.637472 L 64.023235 82.320790 L 63.978824 82.004387 L 63.934837 81.688252 L 63.891273 81.372372 L 63.848127 81.056737 L 63.805398 80.741334 L 63.763082 80.426152 L 63.721178 80.111180 L 63.679683 79.796406 L 63.638594 79.481818 L 63.597910 79.167406 L 63.557627 78.853157 L 63.517745 78.539060 L 63.478259 78.225104 L 63.439169 77.911277 L 63.400473 77.597569 L 63.362168 77.283968 L 63.324252 76.970462 L 63.286724 76.657040 L 63.249582 76.343691 L 63.212824 76.030404 L 63.176449 75.717167 L 63.140454 75.403969 L 63.104839 75.090799 L 63.069602 74.777645 L 63.034740 74.464497 L 63.000254 74.151342 L 62.966141 73.838171 L 62.932401 73.524971 L 62.899031 73.211731 L 62.866031 72.898441 L 62.833400 72.585088 L 62.801137 72.271661 L 62.769240 71.958150 L 62.737709 71.644542 L 62.706543 71.330827 L 62.675741 71.016993 L 62.645302 70.703029 L 62.615225 70.388923 L 62.585509 70.074664 L 62.556155 69.760241 L 62.527162 69.445642 L 62.498528 69.130855 L 62.470254 68.815870 L 62.442338 68.500675 L 62.414782 68.185258 L 62.387584 67.869607 L 62.360744 67.553711 L 62.334261 67.237559 L 62.308137 66.921138 L 62.282370 66.604437 L 62.256961 66.287444 L 62.231910 65.970147 L 62.207216 65.652535 L 62.182880 65.334596 L 62.158902 65.016317 L 62.135283 64.697687 L 62.112022 64.378693 L 62.089120 64.059324 L 62.066577 63.739567 L 62.044394 63.419411 L 62.022572 63.098842 L 62.001111 62.777849 L 61.980011 62.456419 L 61.959273 62.134540 L 61.938899 61.812199 L 61.918888 61.489384 L 61.899242 61.166081 L 61.879962 60.842279 L 61.861049 60.517965 L 61.842503 60.193125 L 61.824326 59.867747 L 61.806520 59.541818 L 61.789085 59.215324 L 61.772023 58.888253 L 61.755335 58.560590 L 61.739022 58.232324 L 61.723087 57.903439 L 61.707530 57.573924 L 61.692354 57.243763 L 61.677559 56.912944 L 61.663149 56.581453 L 61.649125 56.249275 L 61.635488 55.916397 L 61.622241 55.582804 L 61.609386 55.248482 L 61.596925 54.913418 L 61.584860 54.577595 L 61.573194 54.241000 L 61.561929 53.903618 L 61.551067 53.565435 L 61.540611 53.226435 L 61.530564 52.886602 L 61.520928 52.545923 L 61.511707 52.204381 L 61.502903 51.861962 L 61.494518 51.518648 L 61.486557 51.174426 L 61.479022 50.829278 L 61.471917 50.483189 L 61.465245 50.136143 L 61.459008 49.788123 L 61.453212 49.439112 L 61.447859 49.089094 L 61.442954 48.738053 L 61.438499 48.385971 L 61.434500 48.032830 L 61.430959 47.678615 L 61.427882 47.323306 L 61.425271 46.966887 L 61.423133 46.609339 L 61.421471 46.250645 L 61.420290 45.890786 L 61.419594 45.529743 L 61.419388 45.167499 L 61.419678 44.804034 L 61.420468 44.439329 L 61.421763 44.073365 L 61.423569 43.706122 L 61.425892 43.337581 L 61.428736 42.967722 L 61.432108 42.596524 L 61.436013 42.223968 L 61.440458 41.850031 L 61.445448 41.474695 L 61.450990 41.097937 L 61.457090 40.719736 L 61.463755 40.340070 L 61.470992 39.958919 L 61.478807 39.576258 L 61.487207 39.192067 L 61.496201 38.806322 L 61.505795 38.419000 L 61.515996 38.030078 L 61.526813 37.639533 L 61.538254 37.247340 L 61.550326 36.853475 L 61.563038 36.457915 L 61.576399 36.060633 L 61.590417 35.661605 L 61.605101 35.260806 L 61.620460 34.858209 L 61.636504 34.453789 L 61.653242 34.047519 L 61.670684 33.639372 L 61.688840 33.229321 L 61.707720 32.817338 L 61.727335 32.403395 L 61.747696 31.987464 L 61.768812 31.569517 L 61.790697 31.149523 L 61.813360 30.727454 L 61.836815 30.303279 L 61.861073 29.876968 L 61.886146 29.448490 L 61.912047 29.017814 L 61.938789 28.584909 L 61.966385 28.149741 L 61.994848 27.712278 L 62.024194 27.272487 L 62.054435 26.830334 L 62.085587 26.385785 L 62.117663 25.938806 L 62.150680 25.489360 L 62.184654 25.037413 L 62.219599 24.582929 L 62.255533 24.125869 L 62.292472 23.666197 L 62.330433 23.203875 L 62.369434 22.738865 L 62.409493 22.271126 L 62.450629 21.800619 L 62.492860 21.327304 L 62.536205 20.851140 L 62.580685 20.372084 L 62.626320 19.890095 L 62.673130 19.405130 L 62.721138 18.917143 L 62.770364 18.426092 L 62.820832 17.931931 L 62.872563 17.434613 L 62.925583 16.934092 L 62.979914 16.430321 L 63.035582 15.923250 L 63.092612 15.412832 L 63.151031 14.899015 L 63.210864 14.381750 L 63.272139 13.860984 L 63.334884 13.336665 L 63.399128 12.808739 L 63.464900 12.277153 L 63.532232 11.741849 L 63.601153 11.202774 L 63.671696 10.659868 L 63.743893 10.113074 L 63.817779 9.562332 L 63.855113 9.288403" fill="none" id="tattoo-path-04123831a7ca871c" stroke="#000000" stroke-linecap="round" stroke-linejoin="round" stroke-width="1.600000"/>
  <path clip-path="url(#tattoo-band-layer-clip)" d="M 35.048008 124.150637 L 35.185078 124.052582 L 35.636912 123.727657 L 36.084634 123.404014 L 36.528310 123.081643 L 36.968005 122.760532 L 37.403784 122.440668 L 37.835708 122.122042 L 38.263840 121.804641 L 38.688240 121.488454 L 39.108967 121.173468 L 39.526079 120.859673 L 39.939633 120.547057 L 40.349685 120.235608 L 40.756289 119.925314 L 41.159500 119.616163 L 41.559369 119.308145 L 41.955948 119.001247 L 42.349289 118.695458 L 42.739440 118.390766 L 43.126451 118.087159 L 43.510370 117.784625 L 43.891243 117.483154 L 44.269117 117.182734 L 44.644038 116.883352 L 45.016048 116.584998 L 45.385193 116.287660 L 45.751515 115.991327 L 46.115056 115.695987 L 46.475858 115.401628 L 46.833961 115.108240 L 47.189405 114.815811 L 47.542229 114.524330 L 47.892472 114.233786 L 48.240172 113.944167 L 48.585365 113.655462 L 48.928089 113.367661 L 49.268379 113.080751 L 49.606271 112.794723 L 49.941799 112.509566 L 50.274997 112.225267 L 50.605899 111.941818 L 50.934538 111.659206 L 51.260945 111.377420 L 51.585154 111.096452 L 51.907195 110.816289 L 52.227099 110.536921 L 52.544896 110.258337 L 52.860617 109.980527 L 53.174290 109.703481 L 53.485944 109.427189 L 53.795607 109.151639 L 54.103309 108.876821 L 54.409075 108.602726 L 54.712933 108.329343 L 55.014910 108.056662 L 55.315031 107.784673 L 55.613323 107.513366 L 55.909810 107.242731 L 56.204518 106.972758 L 56.497472 106.703437 L 56.788694 106.434758 L 57.078211 106.166711 L 57.366043 105.899288 L 57.652216 105.632477 L 57.936751 105.366269 L 58.219671 105.100656 L 58.500997 104.835627 L 58.780753 104.571172 L 59.058958 104.307283 L 59.335634 104.043949 L 59.610803 103.781162 L 59.884483 103.518913 L 60.156696 103.257191 L 60.427462 102.995988 L 60.696799 102.735294 L 60.964727 102.475100 L 61.231266 102.215398 L 61.496434 101.956178 L 61.760249 101.697431 L 62.022729 101.439148 L 62.283894 101.181320 L 62.543759 100.923938 L 62.802344 100.666994 L 63.059664 100.410478 L 63.315738 100.154382 L 63.570581 99.898697 L 63.824210 99.643413 L 64.076642 99.388524 L 64.327893 99.134019 L 64.577978 98.879890 L 64.826914 98.626129 L 65.074715 98.372726 L 65.321397 98.119674 L 65.566974 97.866964 L 65.811463 97.614587 L 66.054877 97.362535 L 66.297230 97.110800 L 66.538538 96.859373 L 66.778814 96.608245 L 67.018072 96.357408 L 67.256326 96.106855 L 67.493589 95.856576 L 67.729875 95.606563 L 67.965197 95.356808 L 68.199568 95.107303 L 68.433002 94.858040 L 68.665509 94.609010 L 68.897105 94.360205 L 69.127800 94.111617 L 69.357607 93.863238 L 69.586538 93.615059 L 69.814605 93.367073 L 70.041821 93.119272 L 70.268196 92.871646 L 70.493742 92.624189 L 70.718471 92.376892 L 70.942395 92.129746 L 71.165523 91.882745 L 71.387868 91.635880 L 71.609440 91.389142 L 71.830251 91.142525 L 72.050310 90.896019 L 72.269628 90.649616 L 72.488216 90.403310 L 72.706084 90.157091 L 72.923243 89.910952 L 73.139702 89.664884 L 73.355472 89.418881 L 73.570561 89.172932 L 73.784982 88.927032 L 73.998742 88.681171 L 74.211851 88.435342 L 74.424319 88.189536 L 74.636156 87.943746 L 74.847371 87.697963 L 75.057972 87.452180 L 75.267969 87.206388 L 75.477372 86.960580 L 75.686188 86.714747 L 75.894427 86.468881 L 76.102098 86.222975 L 76.309209 85.977020 L 76.515768 85.731008 L 76.721786 85.484930 L 76.927268 85.238780 L 77.132226 84.992548 L 77.336665 84.746227 L 77.540595 84.499808 L 77.744024 84.253283 L 77.946960 84.006644 L 78.149410 83.759883 L 78.351383 83.512992 L 78.552887 83.265961 L 78.753929 83.018784 L 78.954517 82.771450 L 79.154658 82.523954 L 79.354361 82.276285 L 79.553633 82.028435 L 79.752481 81.780397 L 79.950912 81.532161 L 80.148934 81.283719 L 80.346554 81.035063 L 80.543780 80.786184 L 80.740618 80.537073 L 80.937076 80.287723 L 81.133160 80.038123 L 81.328878 79.788266 L 81.524237 79.538142 L 81.719243 79.287744 L 81.913903 79.037062 L 82.108225 78.786087 L 82.302214 78.534811 L 82.495877 78.283224 L 82.689221 78.031318 L 82.882254 77.779084 L 83.074980 77.526512 L 83.267407 77.273593 L 83.459541 77.020318 L 83.651388 76.766679 L 83.842956 76.512665 L 84.034249 76.258267 L 84.225275 76.003477 L 84.416040 75.748284 L 84.606550 75.492679 L 84.796810 75.236652 L 84.986828 74.980195 L 85.176609 74.723296 L 85.366159 74.465947 L 85.555484 74.208138 L 85.744591 73.949858 L 85.933485 73.691098 L 86.122171 73.431848 L 86.310657 73.172098 L 86.498947 72.911837 L 86.687048 72.651056 L 86.874965 72.389743 L 87.062704 72.127890 L 87.250271 71.865484 L 87.437671 71.602516 L 87.624911 71.338975 L 87.811994 71.074850 L 87.998928 70.810130 L 88.185718 70.544806 L 88.372369 70.278865 L 88.558887 70.012296 L 88.745277 69.745089 L 88.931544 69.477231 L 89.117695 69.208713 L 89.303734 68.939522 L 89.489667 68.669646 L 89.675498 68.399075 L 89.861235 68.127796 L 90.046881 67.855798 L 90.232442 67.583068 L 90.417923 67.309594 L 90.603330 67.035364 L 90.788667 66.760367 L 90.973940 66.484588 L 91.159154 66.208017 L 91.344314 65.930639 L 91.529425 65.652443 L 91.714492 65.373416 L 91.899521 65.093543 L 92.084516 64.812813 L 92.269482 64.531212 L 92.454424 64.248726 L 92.639348 63.965341 L 92.824258 63.681045 L 93.009159 63.395822 L 93.194056 63.109660 L 93.378954 62.822543 L 93.563857 62.534458 L 93.748772 62.245390 L 93.933702 61.955323 L 94.118652 61.664244 L 94.303627 61.372138 L 94.488632 61.078989 L 94.673671 60.784781 L 94.858750 60.489500 L 95.043873 60.193129 L 95.229045 59.895653 L 95.414270 59.597056 L 95.599552 59.297321 L 95.784898 58.996432 L 95.970311 58.694372 L 96.155795 58.391124 L 96.341356 58.086672 L 96.526998 57.780997 L 96.712725 57.474084 L 96.898542 57.165913 L 97.084454 56.856466 L 97.270464 56.545727 L 97.456578 56.233676 L 97.642799 55.920295 L 97.829133 55.605564 L 98.015583 55.289465 L 98.202154 54.971979 L 98.388849 54.653085 L 98.575675 54.332765 L 98.762634 54.010997 L 98.949730 53.687762 L 99.136969 53.363038 L 99.324354 53.036805 L 99.511890 52.709042 L 99.699580 52.379727 L 99.887428 52.048838 L 100.075440 51.716353 L 100.263618 51.382250 L 100.451967 51.046507 L 100.640490 50.709099 L 100.829192 50.370003 L 101.018077 50.029197 L 101.207148 49.686655 L 101.396409 49.342354 L 101.585864 48.996268 L 101.775517 48.648373 L 101.965371 48.298643 L 102.155430 47.947052 L 102.345698 47.593575 L 102.536178 47.238184 L 102.726873 46.880852 L 102.917788 46.521552 L 103.108926 46.160257 L 103.300289 45.796937 L 103.491882 45.431565 L 103.683707 45.064111 L 103.875768 44.694545 L 104.068067 44.322838 L 104.260609 43.948959 L 104.453395 43.572878 L 104.646429 43.194562 L 104.839713 42.813980 L 105.033251 42.431099 L 105.227045 42.045886 L 105.421098 41.658308 L 105.615412 41.268332 L 105.809990 40.875921 L 106.004833 40.481042 L 106.199945 40.083658 L 106.395328 39.683733 L 106.590983 39.281230 L 106.786912 38.876112 L 106.983118 38.468340 L 107.179602 38.057877 L 107.376366 37.644682 L 107.573411 37.228715 L 107.770738 36.809935 L 107.968350 36.388302 L 108.166246 35.963773 L 108.364428 35.536305 L 108.562897 35.105854 L 108.761653 34.672376 L 108.960697 34.235827 L 109.160030 33.796159 L 109.359651 33.353326 L 109.559560 32.907281 L 109.759757 32.457975 L 109.960242 32.005359 L 110.161015 31.549382 L 110.362073 31.089995 L 110.563417 30.627144 L 110.765045 30.160776 L 110.966956 29.690838 L 111.169147 29.217276 L 111.371617 28.740032 L 111.574364 28.259050 L 111.777385 27.774272 L 111.980677 27.285639 L 112.184237 26.793090 L 112.388061 26.296566 L 112.592147 25.796002 L 112.796489 25.291335 L 113.001083 24.782500 L 113.205925 24.269432 L 113.411009 23.752062 L 113.472725 23.595237" fill="none" id="tattoo-path-d348fdf77d03609e" stroke="#000000" stroke-linecap="round" stroke-linejoin="round" stroke-width="1.200000"/>
  <path clip-path="url(#tattoo-band-layer-clip)" d="M 15.589146 101.337384 L 15.770360 101.167038 L 16.176236 100.787185 L 16.579926 100.411031 L 16.981456 100.038515 L 17.380855 99.669575 L 17.778149 99.304151 L 18.173365 98.942185 L 18.566529 98.583621 L 18.957667 98.228401 L 19.346805 97.876472 L 19.733968 97.527779 L 20.119183 97.182269 L 20.502472 96.839892 L 20.883862 96.500596 L 21.263377 96.164332 L 21.641040 95.831052 L 22.016876 95.500708 L 22.390908 95.173252 L 22.763159 94.848641 L 23.133653 94.526827 L 23.502412 94.207769 L 23.869459 93.891422 L 24.234816 93.577744 L 24.598504 93.266694 L 24.960547 92.958231 L 25.320966 92.652315 L 25.679781 92.348908 L 26.037013 92.047970 L 26.392685 91.749464 L 26.746816 91.453352 L 27.099427 91.159600 L 27.450537 90.868170 L 27.800168 90.579028 L 28.148338 90.292140 L 28.495067 90.007472 L 28.840375 89.724991 L 29.184281 89.444665 L 29.526803 89.166460 L 29.867960 88.890347 L 30.207772 88.616295 L 30.546255 88.344272 L 30.883429 88.074250 L 31.219311 87.806199 L 31.553918 87.540091 L 31.887270 87.275897 L 32.219382 87.013590 L 32.550273 86.753143 L 32.879959 86.494528 L 33.208457 86.237720 L 33.535784 85.982693 L 33.861956 85.729421 L 34.186990 85.477880 L 34.510902 85.228045 L 34.833708 84.979891 L 35.155424 84.733396 L 35.476065 84.488535 L 35.795648 84.245286 L 36.114188 84.003627 L 36.431700 83.763535 L 36.748198 83.524987 L 37.063699 83.287964 L 37.378218 83.052444 L 37.691768 82.818405 L 38.004364 82.585828 L 38.316021 82.354692 L 38.626754 82.124977 L 38.936576 81.896665 L 39.245501 81.669735 L 39.553545 81.444170 L 39.860719 81.219950 L 40.167039 80.997057 L 40.472517 80.775473 L 40.777168 80.555180 L 41.081004 80.336161 L 41.384039 80.118399 L 41.686286 79.901877 L 41.987758 79.686577 L 42.288468 79.472484 L 42.588430 79.259582 L 42.887655 79.047854 L 43.186156 78.837285 L 43.483946 78.627859 L 43.781037 78.419561 L 44.077442 78.212376 L 44.373174 78.006290 L 44.668243 77.801287 L 44.962662 77.597353 L 45.256444 77.394474 L 45.549600 77.192636 L 45.842143 76.991826 L 46.134083 76.792029 L 46.425432 76.593233 L 46.716203 76.395424 L 47.006406 76.198589 L 47.296054 76.002715 L 47.585157 75.807790 L 47.873727 75.613801 L 48.161775 75.420736 L 48.449312 75.228582 L 48.736350 75.037328 L 49.022899 74.846963 L 49.308970 74.657473 L 49.594575 74.468848 L 49.879724 74.281077 L 50.164428 74.094147 L 50.448698 73.908049 L 50.732544 73.722771 L 51.015978 73.538303 L 51.299009 73.354633 L 51.581649 73.171752 L 51.863907 72.989649 L 52.145795 72.808313 L 52.427322 72.627736 L 52.708499 72.447906 L 52.989336 72.268814 L 53.269844 72.090450 L 53.550032 71.912804 L 53.829912 71.735868 L 54.109493 71.559632 L 54.388784 71.384086 L 54.667797 71.209222 L 54.946542 71.035030 L 55.225027 70.861501 L 55.503264 70.688627 L 55.781263 70.516399 L 56.059032 70.344809 L 56.336583 70.173847 L 56.613924 70.003506 L 56.891066 69.833778 L 57.168019 69.664653 L 57.444792 69.496124 L 57.721395 69.328183 L 57.997838 69.160822 L 58.274131 68.994034 L 58.550283 68.827810 L 58.826304 68.662142 L 59.102204 68.497024 L 59.377992 68.332448 L 59.653679 68.168406 L 59.929273 68.004891 L 60.204784 67.841896 L 60.480222 67.679414 L 60.755597 67.517437 L 61.030919 67.355959 L 61.306196 67.194973 L 61.581438 67.034471 L 61.856656 66.874448 L 62.131858 66.714896 L 62.407055 66.555808 L 62.682255 66.397179 L 62.957469 66.239002 L 63.232706 66.081270 L 63.507976 65.923976 L 63.783288 65.767115 L 64.058652 65.610681 L 64.334078 65.454667 L 64.609575 65.299067 L 64.885154 65.143875 L 65.160822 64.989085 L 65.436592 64.834691 L 65.712471 64.680687 L 65.988470 64.527068 L 66.264599 64.373827 L 66.540867 64.220960 L 66.817285 64.068460 L 67.093861 63.916321 L 67.370606 63.764539 L 67.647529 63.613107 L 67.924642 63.462021 L 68.201952 63.311275 L 68.479471 63.160863 L 68.757209 63.010781 L 69.035175 62.861022 L 69.313379 62.711583 L 69.591832 62.562457 L 69.870543 62.413640 L 70.149523 62.265127 L 70.428782 62.116912 L 70.708331 61.968991 L 70.988178 61.821358 L 71.268336 61.674009 L 71.548814 61.526940 L 71.829622 61.380145 L 72.110771 61.233619 L 72.392272 61.087358 L 72.674135 60.941358 L 72.956370 60.795612 L 73.238989 60.650118 L 73.522002 60.504871 L 73.805419 60.359865 L 74.089253 60.215097 L 74.373512 60.070562 L 74.658210 59.926255 L 74.943356 59.782173 L 75.228961 59.638311 L 75.515038 59.494665 L 75.801596 59.351230 L 76.088647 59.208003 L 76.376204 59.064979 L 76.664276 58.922154 L 76.952876 58.779523 L 77.242015 58.637084 L 77.531705 58.494832 L 77.821958 58.352762 L 78.112785 58.210871 L 78.404199 58.069156 L 78.696211 57.927611 L 78.988834 57.786233 L 79.282079 57.645019 L 79.575960 57.503965 L 79.870488 57.363067 L 80.165676 57.222320 L 80.461536 57.081722 L 80.758082 56.941269 L 81.055326 56.800957 L 81.353280 56.660782 L 81.651959 56.520741 L 81.951374 56.380831 L 82.251540 56.241047 L 82.552470 56.101387 L 82.854176 55.961847 L 83.156673 55.822424 L 83.459975 55.683113 L 83.764095 55.543913 L 84.069048 55.404819 L 84.374846 55.265828 L 84.681506 55.126937 L 84.989040 54.988142 L 85.297464 54.849442 L 85.606792 54.710831 L 85.917039 54.572308 L 86.228220 54.433869 L 86.540350 54.295510 L 86.853444 54.157230 L 87.167518 54.019025 L 87.482588 53.880892 L 87.798668 53.742828 L 88.115776 53.604830 L 88.433926 53.466895 L 88.753136 53.329021 L 89.073422 53.191204 L 89.394800 53.053442 L 89.717287 52.915732 L 90.040901 52.778072 L 90.365658 52.640459 L 90.691575 52.502889 L 91.018671 52.365361 L 91.346964 52.227872 L 91.676470 52.090420 L 92.007209 51.953001 L 92.339198 51.815614 L 92.672457 51.678256 L 93.007004 51.540925 L 93.342858 51.403618 L 93.680039 51.266334 L 94.018567 51.129069 L 94.358460 50.991822 L 94.699739 50.854591 L 95.042425 50.717373 L 95.386538 50.580166 L 95.732099 50.442969 L 96.079129 50.305779 L 96.427649 50.168595 L 96.777680 50.031414 L 97.129246 49.894235 L 97.482368 49.757056 L 97.837068 49.619876 L 98.193370 49.482692 L 98.551296 49.345503 L 98.910871 49.208308 L 99.272117 49.071105 L 99.635059 48.933893 L 99.999721 48.796669 L 100.366128 48.659434 L 100.734305 48.522186 L 101.104278 48.384923 L 101.476072 48.247644 L 101.849714 48.110349 L 102.225229 47.973037 L 102.602646 47.835706 L 102.981991 47.698356 L 103.363293 47.560986 L 103.746578 47.423596 L 104.131876 47.286184 L 104.519216 47.148751 L 104.908627 47.011296 L 105.300139 46.873818 L 105.693783 46.736319 L 106.089588 46.598796 L 106.487587 46.461252 L 106.887810 46.323685 L 107.290291 46.186095 L 107.695061 46.048484 L 108.102155 45.910851 L 108.511605 45.773198 L 108.923446 45.635524 L 109.337713 45.497830 L 109.754441 45.360119 L 110.173666 45.222389 L 110.595425 45.084644 L 111.019754 44.946884 L 111.446692 44.809110 L 111.876275 44.671324 L 112.308545 44.533528 L 112.743539 44.395725 L 113.181299 44.257915 L 113.621864 44.120102 L 114.065277 43.982287 L 114.511581 43.844474 L 114.960817 43.706665 L 115.413030 43.568863 L 115.868264 43.431072 L 116.326564 43.293295 L 116.787977 43.155536 L 117.252548 43.017798 L 117.720327 42.880085 L 118.191361 42.742403 L 118.665699 42.604755 L 119.143392 42.467147 L 119.624491 42.329583 L 120.109048 42.192069 L 120.597116 42.054611 L 121.088748 41.917214 L 121.583999 41.779885 L 122.082926 41.642631 L 122.585585 41.505458 L 123.092034 41.368374 L 123.602333 41.231387 L 124.116540 41.094503 L 124.634718 40.957732 L 125.156929 40.821083 L 125.683236 40.684564 L 126.213704 40.548186 L 126.748399 40.411958 L 127.287388 40.275890 L 127.528665 40.215545" fill="none" id="tattoo-path-f20c210599f8988c" stroke="#000000" stroke-linecap="round" stroke-linejoin="round" stroke-width="1.000000"/>
  <path clip-path="url(#tattoo-band-layer-clip)" d="M 106.868334 126.251815 L 106.828216 126.091400 L 106.691843 125.551806 L 106.555148 125.016509 L 106.418144 124.485443 L 106.280845 123.958541 L 106.143264 123.435742 L 106.005414 122.916981 L 105.867305 122.402198 L 105.728951 121.891332 L 105.590361 121.384324 L 105.451546 120.881116 L 105.312517 120.381651 L 105.173283 119.885872 L 105.033853 119.393725 L 104.894237 118.905154 L 104.754443 118.420108 L 104.614479 117.938533 L 104.474353 117.460379 L 104.334072 116.985594 L 104.193644 116.514130 L 104.053076 116.045936 L 103.912373 115.580966 L 103.771543 115.119172 L 103.630592 114.660507 L 103.489524 114.204927 L 103.348346 113.752386 L 103.207062 113.302841 L 103.065678 112.856247 L 102.924198 112.412562 L 102.782626 111.971745 L 102.640967 111.533754 L 102.499225 111.098548 L 102.357404 110.666088 L 102.215507 110.236334 L 102.073537 109.809248 L 101.931497 109.384791 L 101.789391 108.962926 L 101.647222 108.543617 L 101.504991 108.126827 L 101.362702 107.712520 L 101.220356 107.300661 L 101.077956 106.891216 L 100.935503 106.484151 L 100.793000 106.079431 L 100.650448 105.677025 L 100.507849 105.276899 L 100.365203 104.879021 L 100.222513 104.483360 L 100.079778 104.089885 L 99.937001 103.698565 L 99.794182 103.309370 L 99.651322 102.922271 L 99.508420 102.537237 L 99.365479 102.154241 L 99.222497 101.773253 L 99.079476 101.394246 L 98.936416 101.017193 L 98.793316 100.642065 L 98.650176 100.268835 L 98.506997 99.897479 L 98.363778 99.527969 L 98.220518 99.160279 L 98.077218 98.794385 L 97.933877 98.430261 L 97.790494 98.067883 L 97.647069 97.707227 L 97.503600 97.348267 L 97.360087 96.990981 L 97.216529 96.635345 L 97.072926 96.281337 L 96.929275 95.928933 L 96.785576 95.578111 L 96.641827 95.228848 L 96.498028 94.881124 L 96.354177 94.534916 L 96.210272 94.190203 L 96.066312 93.846964 L 95.922296 93.505179 L 95.778221 93.164826 L 95.634087 92.825885 L 95.489892 92.488338 L 95.345633 92.152163 L 95.201309 91.817341 L 95.056918 91.483853 L 94.912458 91.151681 L 94.767928 90.820804 L 94.623324 90.491205 L 94.478645 90.162866 L 94.333889 89.835767 L 94.189053 89.509892 L 94.044136 89.185222 L 93.899135 88.861740 L 93.754047 88.539429 L 93.608871 88.218271 L 93.463603 87.898250 L 93.318242 87.579349 L 93.172784 87.261551 L 93.027228 86.944840 L 92.881570 86.629200 L 92.735808 86.314614 L 92.589939 86.001068 L 92.443961 85.688545 L 92.297870 85.377029 L 92.151664 85.066506 L 92.005340 84.756961 L 91.858896 84.448377 L 91.712327 84.140741 L 91.565631 83.834038 L 91.418805 83.528253 L 91.271846 83.223371 L 91.124751 82.919379 L 90.977516 82.616262 L 90.830139 82.314006 L 90.682616 82.012598 L 90.534944 81.712023 L 90.387120 81.412268 L 90.239140 81.113320 L 90.091001 80.815165 L 89.942699 80.517790 L 89.794231 80.221182 L 89.645594 79.925328 L 89.496784 79.630214 L 89.347796 79.335829 L 89.198629 79.042159 L 89.049278 78.749192 L 88.899738 78.456916 L 88.750008 78.165317 L 88.600082 77.874385 L 88.449958 77.584106 L 88.299630 77.294470 L 88.149096 77.005462 L 87.998351 76.717073 L 87.847391 76.429290 L 87.696213 76.142101 L 87.544812 75.855495 L 87.393184 75.569460 L 87.241326 75.283986 L 87.089232 74.999060 L 86.936899 74.714671 L 86.784322 74.430808 L 86.631497 74.147460 L 86.478420 73.864616 L 86.325087 73.582265 L 86.171492 73.300397 L 86.017632 73.018999 L 85.863502 72.738062 L 85.709097 72.457575 L 85.554413 72.177528 L 85.399446 71.897909 L 85.244190 71.618708 L 85.088640 71.339915 L 84.932793 71.061519 L 84.776643 70.783510 L 84.620185 70.505878 L 84.463415 70.228613 L 84.306327 69.951704 L 84.148917 69.675141 L 83.991179 69.398915 L 83.833108 69.123014 L 83.674699 68.847430 L 83.515947 68.572153 L 83.356847 68.297172 L 83.197393 68.022477 L 83.037580 67.748060 L 82.877403 67.473910 L 82.716856 67.200017 L 82.555933 66.926371 L 82.394629 66.652964 L 82.232939 66.379785 L 82.070856 66.106826 L 81.908375 65.834075 L 81.745491 65.561525 L 81.582196 65.289165 L 81.418486 65.016986 L 81.254354 64.744978 L 81.089794 64.473132 L 80.924800 64.201440 L 80.759367 63.929891 L 80.593487 63.658475 L 80.427154 63.387185 L 80.260363 63.116010 L 80.093106 62.844942 L 79.925377 62.573970 L 79.757170 62.303086 L 79.588478 62.032281 L 79.419294 61.761545 L 79.249611 61.490869 L 79.079423 61.220244 L 78.908722 60.949661 L 78.737503 60.679111 L 78.565756 60.408584 L 78.393476 60.138072 L 78.220655 59.867565 L 78.047286 59.597054 L 77.873361 59.326529 L 77.698873 59.055983 L 77.523814 58.785406 L 77.348177 58.514788 L 77.171954 58.244120 L 76.995136 57.973394 L 76.817717 57.702600 L 76.639689 57.431730 L 76.461042 57.160773 L 76.281769 56.889721 L 76.101861 56.618565 L 75.921311 56.347295 L 75.740109 56.075902 L 75.558247 55.804378 L 75.375717 55.532713 L 75.192509 55.260897 L 75.008615 54.988922 L 74.824026 54.716779 L 74.638732 54.444457 L 74.452724 54.171948 L 74.265993 53.899243 L 74.078530 53.626332 L 73.890325 53.353206 L 73.701367 53.079856 L 73.511648 52.806271 L 73.321158 52.532444 L 73.129886 52.258364 L 72.937822 51.984022 L 72.744956 51.709408 L 72.551278 51.434513 L 72.356776 51.159328 L 72.161440 50.883842 L 71.965259 50.608047 L 71.768223 50.331933 L 71.570320 50.055490 L 71.371539 49.778707 L 71.171867 49.501577 L 70.971295 49.224088 L 70.769810 48.946232 L 70.567399 48.667997 L 70.364052 48.389375 L 70.159756 48.110356 L 69.954498 47.830928 L 69.748265 47.551084 L 69.541046 47.270811 L 69.332827 46.990101 L 69.123595 46.708943 L 68.913337 46.427326 L 68.702039 46.145242 L 68.489688 45.862678 L 68.276270 45.579626 L 68.061771 45.296074 L 67.846176 45.012013 L 67.629472 44.727431 L 67.411643 44.442318 L 67.192675 44.156663 L 66.972552 43.870456 L 66.751260 43.583686 L 66.528783 43.296342 L 66.305104 43.008413 L 66.080209 42.719888 L 65.854081 42.430757 L 65.626704 42.141008 L 65.398060 41.850629 L 65.168133 41.559611 L 64.936906 41.267941 L 64.704361 40.975608 L 64.470481 40.682601 L 64.235247 40.388908 L 63.998642 40.094518 L 63.760646 39.799418 L 63.521242 39.503598 L 63.280409 39.207045 L 63.038129 38.909747 L 62.794381 38.611693 L 62.549146 38.312870 L 62.302404 38.013266 L 62.054133 37.712870 L 61.804313 37.411667 L 61.552923 37.109647 L 61.299940 36.806797 L 61.045342 36.503104 L 60.789109 36.198554 L 60.531215 35.893137 L 60.271639 35.586838 L 60.010358 35.279644 L 59.747346 34.971544 L 59.482580 34.662522 L 59.216035 34.352567 L 58.947687 34.041664 L 58.677509 33.729800 L 58.405475 33.416962 L 58.131560 33.103135 L 57.855736 32.788307 L 57.577977 32.472462 L 57.298254 32.155588 L 57.016539 31.837669 L 56.732804 31.518692 L 56.447019 31.198642 L 56.159154 30.877505 L 55.869180 30.555266 L 55.577065 30.231910 L 55.282779 29.907423 L 54.986289 29.581790 L 54.687563 29.254994 L 54.386567 28.927022 L 54.083269 28.597858 L 53.777634 28.267486 L 53.469628 27.935891 L 53.159214 27.603058 L 52.846357 27.268969 L 52.531019 26.933610 L 52.213164 26.596964 L 51.892753 26.259015 L 51.569748 25.919747 L 51.244108 25.579143 L 50.915794 25.237186 L 50.584764 24.893860 L 50.250976 24.549149 L 49.914388 24.203034 L 49.574957 23.855499 L 49.232637 23.506526 L 48.887384 23.156099 L 48.539152 22.804199 L 48.187893 22.450809 L 47.833560 22.095911 L 47.476105 21.739488 L 47.115476 21.381520 L 46.751624 21.021991 L 46.384497 20.660881 L 46.014041 20.298173 L 45.640204 19.933847 L 45.262930 19.567885 L 44.882162 19.200268 L 44.497845 18.830977 L 44.109919 18.459994 L 43.718324 18.087298 L 43.323001 17.712871 L 42.923887 17.336693 L 42.520918 16.958745 L 42.114030 16.579008 L 41.992862 16.466487" fill="none" id="tattoo-path-b65153d3510d9119" stroke="#000000" stroke-linecap="round" stroke-linejoin="round" stroke-width="0.800000"/>
  <circle cx="72.500000" cy="72.500000" fill="none" id="tattoo-boundary-da45c61d325de3be" r="64.900000" stroke="#000000" stroke-width="2.200000"/>
</svg>
