<svg height="145.000000mm" version="1.1" viewBox="0 0 145.000000 145.000000" width="145.000000mm" xmlns="http://www.w3.org/2000/svg">
  <defs>
    <clipPath clipPathUnits="userSpaceOnUse" id="tattoo-band-layer-clip">
      <circle cx="72.500000" cy="72.500000" r="63.800000"/>
    </clipPath>
  </defs>
  <path clip-path="url(#tattoo-band-layer-clip)" d="M 134.796581 86.268659 L 134.783836 86.259949 L 134.322471 85.946605 L 133.863532 85.636847 L 133.406988 85.330613 L 132.952814 85.027845 L 132.500980 84.728483 L 132.051461 84.432472 L 131.604227 84.139756 L 131.159253 83.850280 L 130.716512 83.563990 L 130.275977 83.280835 L 129.837623 83.000763 L 129.401423 82.723725 L 128.967351 82.449671 L 128.535383 82.178553 L 128.105492 81.910324 L 127.677654 81.644938 L 127.251844 81.382350 L 126.828038 81.122515 L 126.406210 80.865390 L 125.986338 80.610933 L 125.568398 80.359101 L 125.152365 80.109855 L 124.738216 79.863153 L 124.325928 79.618957 L 123.915479 79.377229 L 123.506845 79.137930 L 123.100004 78.901023 L 122.694934 78.666473 L 122.291612 78.434243 L 121.890017 78.204299 L 121.490128 77.976607 L 121.091922 77.751133 L 120.695379 77.527844 L 120.300477 77.306708 L 119.907196 77.087693 L 119.515515 76.870768 L 119.125413 76.655903 L 118.736871 76.443068 L 118.349869 76.232233 L 117.964386 76.023370 L 117.580403 75.816450 L 117.197901 75.611445 L 116.816859 75.408329 L 116.437260 75.207075 L 116.059084 75.007656 L 115.682313 74.810047 L 115.306928 74.614222 L 114.932910 74.420157 L 114.560241 74.227827 L 114.188904 74.037208 L 113.818880 73.848277 L 113.450152 73.661011 L 113.082703 73.475387 L 112.716514 73.291382 L 112.351568 73.108976 L 111.987849 72.928146 L 111.625340 72.748871 L 111.264024 72.571131 L 110.903883 72.394905 L 110.544903 72.220174 L 110.187066 72.046917 L 109.830356 71.875115 L 109.474757 71.704750 L 109.120253 71.535803 L 108.766829 71.368255 L 108.414469 71.202088 L 108.063157 71.037285 L 107.712879 70.873829 L 107.363618 70.711702 L 107.015359 70.550887 L 106.668089 70.391368 L 106.321791 70.233129 L 105.976451 70.076154 L 105.632054 69.920427 L 105.288586 69.765933 L 104.946033 69.612656 L 104.604380 69.460582 L 104.263613 69.309696 L 103.923718 69.159984 L 103.584681 69.011431 L 103.246488 68.864024 L 102.909125 68.717749 L 102.572579 68.572592 L 102.236836 68.428540 L 101.901883 68.285580 L 101.567706 68.143700 L 101.234293 68.002886 L 100.901629 67.863127 L 100.569702 67.724411 L 100.238498 67.586724 L 99.908006 67.450056 L 99.578212 67.314395 L 99.249103 67.179729 L 98.920667 67.046048 L 98.592891 66.913339 L 98.265762 66.781594 L 97.939269 66.650800 L 97.613399 66.520947 L 97.288139 66.392026 L 96.963478 66.264025 L 96.639403 66.136935 L 96.315902 66.010746 L 95.992963 65.885448 L 95.670575 65.761032 L 95.348726 65.637489 L 95.027403 65.514809 L 94.706595 65.392984 L 94.386290 65.272003 L 94.066477 65.151860 L 93.747144 65.032544 L 93.428280 64.914048 L 93.109873 64.796363 L 92.791912 64.679482 L 92.474385 64.563395 L 92.157281 64.448096 L 91.840590 64.333575 L 91.524299 64.219827 L 91.208398 64.106842 L 90.892876 63.994614 L 90.577721 63.883136 L 90.262922 63.772400 L 89.948469 63.662399 L 89.634351 63.553126 L 89.320556 63.444575 L 89.007074 63.336738 L 88.693894 63.229610 L 88.381006 63.123184 L 88.068398 63.017452 L 87.756060 62.912410 L 87.443980 62.808051 L 87.132150 62.704369 L 86.820557 62.601357 L 86.509191 62.499011 L 86.198041 62.397324 L 85.887098 62.296291 L 85.576351 62.195906 L 85.265788 62.096164 L 84.955400 61.997060 L 84.645175 61.898587 L 84.335105 61.800742 L 84.025177 61.703519 L 83.715382 61.606913 L 83.405709 61.510919 L 83.096149 61.415532 L 82.786689 61.320749 L 82.477321 61.226563 L 82.168033 61.132971 L 81.858816 61.039968 L 81.549659 60.947550 L 81.240551 60.855713 L 80.931482 60.764452 L 80.622443 60.673764 L 80.313422 60.583644 L 80.004409 60.494088 L 79.695394 60.405093 L 79.386367 60.316655 L 79.077316 60.228770 L 78.768233 60.141434 L 78.459105 60.054645 L 78.149924 59.968399 L 77.840679 59.882691 L 77.531358 59.797520 L 77.221953 59.712881 L 76.912451 59.628772 L 76.602844 59.545190 L 76.293120 59.462131 L 75.983269 59.379593 L 75.673281 59.297573 L 75.363145 59.216069 L 75.052850 59.135076 L 74.742386 59.054594 L 74.431742 58.974619 L 74.120908 58.895148 L 73.809873 58.816181 L 73.498627 58.737713 L 73.187158 58.659744 L 72.875456 58.582270 L 72.563511 58.505290 L 72.251311 58.428802 L 71.938845 58.352803 L 71.626104 58.277292 L 71.313075 58.202268 L 70.999749 58.127727 L 70.686113 58.053670 L 70.372157 57.980093 L 70.057871 57.906996 L 69.743242 57.834377 L 69.428260 57.762235 L 69.112913 57.690568 L 68.797190 57.619375 L 68.481081 57.548656 L 68.164573 57.478408 L 67.847655 57.408632 L 67.530316 57.339325 L 67.212544 57.270488 L 66.894328 57.202119 L 66.575656 57.134217 L 66.256516 57.066783 L 65.936897 56.999815 L 65.616786 56.933312 L 65.296172 56.867276 L 64.975043 56.801704 L 64.653387 56.736597 L 64.331192 56.671955 L 64.008445 56.607778 L 63.685134 56.544065 L 63.361248 56.480816 L 63.036773 56.418033 L 62.711697 56.355714 L 62.386007 56.293860 L 62.059691 56.232472 L 61.732737 56.171549 L 61.405130 56.111093 L 61.076859 56.051104 L 60.747910 55.991582 L 60.418271 55.932530 L 60.087927 55.873946 L 59.756866 55.815832 L 59.425074 55.758190 L 59.092538 55.701020 L 58.759245 55.644324 L 58.425179 55.588102 L 58.090328 55.532357 L 57.754678 55.477089 L 57.418214 55.422301 L 57.080922 55.367993 L 56.742789 55.314168 L 56.403799 55.260827 L 56.063939 55.207973 L 55.723192 55.155607 L 55.381546 55.103731 L 55.038984 55.052349 L 54.695492 55.001461 L 54.351054 54.951071 L 54.005656 54.901181 L 53.659281 54.851794 L 53.311914 54.802913 L 52.963539 54.754539 L 52.614141 54.706677 L 52.263703 54.659330 L 51.912209 54.612500 L 51.559643 54.566191 L 51.205987 54.520407 L 50.851227 54.475151 L 50.495343 54.430426 L 50.138321 54.386238 L 49.780141 54.342588 L 49.420787 54.299482 L 49.060242 54.256924 L 48.698487 54.214919 L 48.335505 54.173469 L 47.971277 54.132582 L 47.605785 54.092260 L 47.239011 54.052509 L 46.870936 54.013334 L 46.501540 53.974740 L 46.130806 53.936733 L 45.758712 53.899319 L 45.385241 53.862501 L 45.010371 53.826288 L 44.634084 53.790684 L 44.256358 53.755696 L 43.877174 53.721331 L 43.496510 53.687594 L 43.114346 53.654492 L 42.730660 53.622033 L 42.345431 53.590224 L 41.958637 53.559071 L 41.570256 53.528582 L 41.180267 53.498765 L 40.788646 53.469627 L 40.395371 53.441178 L 40.000418 53.413424 L 39.603765 53.386375 L 39.205388 53.360040 L 38.805262 53.334426 L 38.403364 53.309545 L 37.999669 53.285404 L 37.594152 53.262013 L 37.186788 53.239384 L 36.777552 53.217524 L 36.366418 53.196446 L 35.953359 53.176160 L 35.538350 53.156677 L 35.121363 53.138007 L 34.702371 53.120163 L 34.281347 53.103157 L 33.858262 53.087000 L 33.433089 53.071705 L 33.005799 53.057285 L 32.576362 53.043753 L 32.144750 53.031121 L 31.710933 53.019405 L 31.274880 53.008618 L 30.836560 52.998774 L 30.395943 52.989889 L 29.952997 52.981977 L 29.507690 52.975053 L 29.059990 52.969135 L 28.609864 52.964238 L 28.157278 52.960379 L 27.702200 52.957575 L 27.244593 52.955844 L 26.784425 52.955204 L 26.321659 52.955673 L 25.856260 52.957271 L 25.388191 52.960016 L 24.917416 52.963929 L 24.443898 52.969030 L 23.967598 52.975340 L 23.488478 52.982881 L 23.006499 52.991674 L 22.521622 53.001742 L 22.033806 53.013109 L 21.543011 53.025798 L 21.049195 53.039833 L 20.552316 53.055240 L 20.052332 53.072044 L 19.549199 53.090271 L 19.042873 53.109949 L 18.533310 53.131105 L 18.020465 53.153767 L 17.504291 53.177964 L 16.984742 53.203727 L 16.461771 53.231086 L 15.935329 53.260072 L 15.405368 53.290718 L 14.871837 53.323056 L 14.334687 53.357121 L 13.793866 53.392948 L 13.249322 53.430572 L 12.701003 53.470030 L 12.148855 53.511360 L 11.592823 53.554600 L 11.577436 53.555842" fill="none" id="tattoo-path-4d9c6c448c159a73" stroke="#000000" stroke-linecap="round" stroke-linejoin="round" stroke-width="4.800000"/>
  <path clip-path="url(#tattoo-band-layer-clip)" d="M 104.718320 127.567412 L 104.939860 127.306194 L 105.297777 126.877787 L 105.651609 126.447858 L 106.001370 126.016443 L 106.347072 125.583575 L 106.688728 125.149288 L 107.026350 124.713615 L 107.359952 124.276588 L 107.689547 123.838241 L 108.015148 123.398604 L 108.336768 122.957709 L 108.654421 122.515586 L 108.968120 122.072267 L 109.277879 121.627781 L 109.583711 121.182157 L 109.885630 120.735426 L 110.183650 120.287614 L 110.477785 119.838752 L 110.768047 119.388866 L 111.054452 118.937985 L 111.337013 118.486135 L 111.615743 118.033343 L 111.890657 117.579635 L 112.161769 117.125037 L 112.429092 116.669575 L 112.692641 116.213274 L 112.952429 115.756158 L 113.208470 115.298253 L 113.460779 114.839582 L 113.709368 114.380169 L 113.954253 113.920038 L 114.195446 113.459210 L 114.432962 112.997710 L 114.666814 112.535559 L 114.897016 112.072779 L 115.123583 111.609393 L 115.346527 111.145421 L 115.565862 110.680884 L 115.781602 110.215804 L 115.993760 109.750200 L 116.202350 109.284093 L 116.407386 108.817502 L 116.608880 108.350448 L 116.806847 107.882949 L 117.001299 107.415025 L 117.192249 106.946693 L 117.379711 106.477973 L 117.563698 106.008882 L 117.744222 105.539438 L 117.921298 105.069660 L 118.094936 104.599563 L 118.265151 104.129166 L 118.431955 103.658485 L 118.595360 103.187537 L 118.755380 102.716338 L 118.912025 102.244904 L 119.065310 101.773250 L 119.215246 101.301394 L 119.361844 100.829349 L 119.505118 100.357131 L 119.645080 99.884756 L 119.781740 99.412237 L 119.915111 98.939589 L 120.045204 98.466828 L 120.172032 97.993965 L 120.295605 97.521017 L 120.415935 97.047996 L 120.533033 96.574915 L 120.646910 96.101789 L 120.757577 95.628630 L 120.865046 95.155452 L 120.969327 94.682266 L 121.070430 94.209087 L 121.168367 93.735925 L 121.263147 93.262794 L 121.354782 92.789705 L 121.443281 92.316671 L 121.528655 91.843702 L 121.610913 91.370812 L 121.690066 90.898011 L 121.766123 90.425311 L 121.839094 89.952722 L 121.908989 89.480257 L 121.975817 89.007925 L 122.039587 88.535738 L 122.100308 88.063706 L 122.157990 87.591839 L 122.212642 87.120149 L 122.264272 86.648646 L 122.312889 86.177339 L 122.358502 85.706238 L 122.401119 85.235354 L 122.440748 84.764696 L 122.477399 84.294275 L 122.511078 83.824099 L 122.541794 83.354178 L 122.569555 82.884522 L 122.594368 82.415139 L 122.616242 81.946040 L 122.635183 81.477233 L 122.651199 81.008727 L 122.664297 80.540531 L 122.674484 80.072655 L 122.681768 79.605106 L 122.686155 79.137894 L 122.687652 78.671027 L 122.686266 78.204514 L 122.682002 77.738364 L 122.674868 77.272584 L 122.664870 76.807184 L 122.652013 76.342171 L 122.636305 75.877554 L 122.617750 75.413341 L 122.596354 74.949540 L 122.572124 74.486159 L 122.545065 74.023207 L 122.515181 73.560691 L 122.482479 73.098620 L 122.446963 72.637001 L 122.408638 72.175842 L 122.367510 71.715152 L 122.323583 71.254938 L 122.276862 70.795207 L 122.227351 70.335968 L 122.175055 69.877228 L 122.119978 69.418996 L 122.062125 68.961278 L 122.001498 68.504083 L 121.938103 68.047419 L 121.871942 67.591292 L 121.803021 67.135711 L 121.731342 66.680683 L 121.656908 66.226216 L 121.579724 65.772318 L 121.499792 65.318996 L 121.417115 64.866258 L 121.331696 64.414112 L 121.243539 63.962565 L 121.152646 63.511625 L 121.059020 63.061299 L 120.962663 62.611596 L 120.863577 62.162523 L 120.761766 61.714088 L 120.657230 61.266299 L 120.549973 60.819163 L 120.439995 60.372688 L 120.327300 59.926882 L 120.211888 59.481753 L 120.093762 59.037309 L 119.972922 58.593558 L 119.849371 58.150507 L 119.723109 57.708165 L 119.594138 57.266540 L 119.462459 56.825639 L 119.328072 56.385472 L 119.190980 55.946046 L 119.051181 55.507369 L 118.908678 55.069450 L 118.763470 54.632296 L 118.615558 54.195918 L 118.464943 53.760322 L 118.311624 53.325517 L 118.155602 52.891513 L 117.996876 52.458317 L 117.835448 52.025938 L 117.671316 51.594385 L 117.504480 51.163668 L 117.334941 50.733794 L 117.162697 50.304773 L 116.987747 49.876614 L 116.810093 49.449327 L 116.629731 49.022919 L 116.446663 48.597402 L 116.260886 48.172783 L 116.072400 47.749074 L 115.881204 47.326282 L 115.687297 46.904418 L 115.490676 46.483493 L 115.291342 46.063515 L 115.089292 45.644494 L 114.884525 45.226441 L 114.677039 44.809367 L 114.466833 44.393281 L 114.253904 43.978193 L 114.038252 43.564115 L 113.819873 43.151057 L 113.598766 42.739029 L 113.374929 42.328043 L 113.148360 41.918110 L 112.919056 41.509241 L 112.687016 41.101447 L 112.452236 40.694740 L 112.214714 40.289130 L 111.974448 39.884631 L 111.731435 39.481253 L 111.485672 39.079008 L 111.237157 38.677910 L 110.985887 38.277969 L 110.731859 37.879199 L 110.475070 37.481612 L 110.215518 37.085220 L 109.953198 36.690037 L 109.688108 36.296075 L 109.420246 35.903348 L 109.149607 35.511869 L 108.876188 35.121651 L 108.599987 34.732709 L 108.320999 34.345056 L 108.039222 33.958706 L 107.754652 33.573673 L 107.467286 33.189972 L 107.177119 32.807617 L 106.884149 32.426624 L 106.588372 32.047006 L 106.289785 31.668779 L 105.988383 31.291959 L 105.684163 30.916561 L 105.377122 30.542600 L 105.067255 30.170093 L 104.754560 29.799055 L 104.439031 29.429504 L 104.120666 29.061455 L 103.799461 28.694925 L 103.475412 28.329931 L 103.148515 27.966491 L 102.818766 27.604621 L 102.486162 27.244340 L 102.150698 26.885665 L 101.812371 26.528615 L 101.471178 26.173207 L 101.127114 25.819460 L 100.780175 25.467393 L 100.430359 25.117025 L 100.077660 24.768375 L 99.722076 24.421463 L 99.363603 24.076308 L 99.002237 23.732930 L 98.637975 23.391350 L 98.270812 23.051588 L 97.900746 22.713665 L 97.527772 22.377602 L 97.151888 22.043420 L 96.773090 21.711141 L 96.391375 21.380787 L 96.006739 21.052379 L 95.619179 20.725940 L 95.228693 20.401492 L 94.835276 20.079060 L 94.438926 19.758665 L 94.039640 19.440331 L 93.637415 19.124082 L 93.232248 18.809943 L 92.824138 18.497937 L 92.413080 18.188089 L 91.999073 17.880425 L 91.582114 17.574968 L 91.162201 17.271746 L 90.739333 16.970784 L 90.313506 16.672107 L 89.884719 16.375744 L 89.452971 16.081719 L 89.018259 15.790061 L 88.580583 15.500797 L 88.139940 15.213955 L 87.696331 14.929562 L 87.249753 14.647648 L 86.800206 14.368241 L 86.347690 14.091369 L 85.892204 13.817064 L 85.433747 13.545353 L 84.972320 13.276268 L 84.507923 13.009838 L 84.040556 12.746095 L 83.570219 12.485069 L 83.096914 12.226793 L 82.620641 11.971297 L 82.141402 11.718615 L 81.659199 11.468778 L 81.174032 11.221819 L 80.685904 10.977772 L 80.194817 10.736670 L 79.700773 10.498547 L 79.203777 10.263437 L 78.703830 10.031375 L 78.200935 9.802396 L 77.695098 9.576535 L 77.186322 9.353828 L 76.674610 9.134311 L 76.159968 8.918021 L 75.843236 8.787656" fill="none" id="tattoo-path-9c7a4ca9e4642789" stroke="#000000" stroke-linecap="round" stroke-linejoin="round" stroke-width="4.200000"/>
  <path clip-path="url(#tattoo-band-layer-clip)" d="M 9.866402 84.643822 L 10.036180 84.719317 L 10.546022 84.943298 L 11.053611 85.163595 L 11.558962 85.380267 L 12.062091 85.593371 L 12.563017 85.802963 L 13.061754 86.009098 L 13.558321 86.211829 L 14.052733 86.411209 L 14.545009 86.607290 L 15.035164 86.800122 L 15.523217 86.989755 L 16.009184 87.176237 L 16.493083 87.359617 L 16.974931 87.539940 L 17.454744 87.717254 L 17.932542 87.891602 L 18.408339 88.063028 L 18.882155 88.231577 L 19.354007 88.397290 L 19.823911 88.560209 L 20.291885 88.720374 L 20.757946 88.877827 L 21.222112 89.032604 L 21.684400 89.184746 L 22.144826 89.334290 L 22.603409 89.481273 L 23.060165 89.625730 L 23.515112 89.767699 L 23.968266 89.907212 L 24.419645 90.044305 L 24.869265 90.179011 L 25.317144 90.311363 L 25.763298 90.441394 L 26.207743 90.569134 L 26.650498 90.694615 L 27.091578 90.817867 L 27.531000 90.938920 L 27.968780 91.057804 L 28.404936 91.174547 L 28.839482 91.289177 L 29.272437 91.401721 L 29.703815 91.512208 L 30.133634 91.620663 L 30.561909 91.727113 L 30.988656 91.831583 L 31.413891 91.934098 L 31.837630 92.034683 L 32.259889 92.133362 L 32.680683 92.230158 L 33.100028 92.325096 L 33.517940 92.418196 L 33.934434 92.509483 L 34.349525 92.598977 L 34.763229 92.686701 L 35.175560 92.772675 L 35.586535 92.856920 L 35.996167 92.939457 L 36.404472 93.020305 L 36.811465 93.099483 L 37.217160 93.177011 L 37.621573 93.252908 L 38.024717 93.327191 L 38.426607 93.399880 L 38.827258 93.470991 L 39.226684 93.540543 L 39.624898 93.608551 L 40.021917 93.675033 L 40.417752 93.740005 L 40.812419 93.803484 L 41.205931 93.865484 L 41.598303 93.926021 L 41.989547 93.985111 L 42.379678 94.042768 L 42.768708 94.099006 L 43.156653 94.153841 L 43.543524 94.207285 L 43.929335 94.259353 L 44.314100 94.310057 L 44.697832 94.359412 L 45.080544 94.407430 L 45.462248 94.454123 L 45.842958 94.499504 L 46.222687 94.543585 L 46.601447 94.586377 L 46.979251 94.627893 L 47.356112 94.668144 L 47.732042 94.707140 L 48.107054 94.744894 L 48.481160 94.781414 L 48.854372 94.816713 L 49.226703 94.850799 L 49.598165 94.883684 L 49.968770 94.915376 L 50.338531 94.945886 L 50.707458 94.975223 L 51.075564 95.003395 L 51.442861 95.030412 L 51.809361 95.056283 L 52.175075 95.081015 L 52.540015 95.104619 L 52.904193 95.127100 L 53.267619 95.148469 L 53.630306 95.168731 L 53.992266 95.187896 L 54.353508 95.205970 L 54.714045 95.222960 L 55.073888 95.238874 L 55.433047 95.253719 L 55.791535 95.267501 L 56.149362 95.280226 L 56.506538 95.291902 L 56.863076 95.302534 L 57.218986 95.312129 L 57.574278 95.320691 L 57.928964 95.328228 L 58.283054 95.334744 L 58.636559 95.340244 L 58.989489 95.344735 L 59.341855 95.348221 L 59.693668 95.350708 L 60.044938 95.352199 L 60.395675 95.352699 L 60.745890 95.352214 L 61.095593 95.350747 L 61.444795 95.348302 L 61.793505 95.344884 L 62.141734 95.340497 L 62.489492 95.335144 L 62.836789 95.328828 L 63.183636 95.321554 L 63.530041 95.313325 L 63.876016 95.304143 L 64.221570 95.294013 L 64.566713 95.282936 L 64.911455 95.270916 L 65.255806 95.257956 L 65.599775 95.244057 L 65.943373 95.229223 L 66.286608 95.213456 L 66.629492 95.196757 L 66.972033 95.179129 L 67.314241 95.160574 L 67.656126 95.141093 L 67.997697 95.120688 L 68.338964 95.099361 L 68.679936 95.077113 L 69.020624 95.053946 L 69.361035 95.029860 L 69.701180 95.004856 L 70.041069 94.978936 L 70.380709 94.952100 L 70.720112 94.924349 L 71.059286 94.895683 L 71.398241 94.866103 L 71.736985 94.835609 L 72.075528 94.804201 L 72.413880 94.771880 L 72.752049 94.738645 L 73.090045 94.704496 L 73.427877 94.669432 L 73.765555 94.633455 L 74.103086 94.596561 L 74.440481 94.558752 L 74.777748 94.520027 L 75.114897 94.480384 L 75.451937 94.439822 L 75.788877 94.398341 L 76.125725 94.355938 L 76.462491 94.312613 L 76.799184 94.268365 L 77.135814 94.223191 L 77.472388 94.177090 L 77.808916 94.130059 L 78.145407 94.082098 L 78.481870 94.033203 L 78.818314 93.983373 L 79.154748 93.932606 L 79.491181 93.880898 L 79.827621 93.828248 L 80.164079 93.774652 L 80.500562 93.720107 L 80.837080 93.664612 L 81.173641 93.608162 L 81.510255 93.550754 L 81.846930 93.492386 L 82.183676 93.433053 L 82.520500 93.372752 L 82.857413 93.311479 L 83.194424 93.249231 L 83.531540 93.186004 L 83.868771 93.121793 L 84.206126 93.056594 L 84.543614 92.990403 L 84.881244 92.923215 L 85.219025 92.855025 L 85.556965 92.785830 L 85.895073 92.715624 L 86.233359 92.644401 L 86.571832 92.572157 L 86.910500 92.498887 L 87.249372 92.424584 L 87.588458 92.349244 L 87.927766 92.272860 L 88.267305 92.195428 L 88.607084 92.116939 L 88.947113 92.037390 L 89.287400 91.956772 L 89.627954 91.875080 L 89.968785 91.792307 L 90.309901 91.708446 L 90.651311 91.623491 L 90.993025 91.537433 L 91.335051 91.450267 L 91.677399 91.361984 L 92.020077 91.272577 L 92.363096 91.182038 L 92.706463 91.090359 L 93.050188 90.997533 L 93.394280 90.903550 L 93.738749 90.808403 L 94.083603 90.712083 L 94.428852 90.614582 L 94.774504 90.515889 L 95.120570 90.415996 L 95.467058 90.314895 L 95.813978 90.212574 L 96.161339 90.109025 L 96.509149 90.004238 L 96.857419 89.898203 L 97.206158 89.790909 L 97.555375 89.682346 L 97.905079 89.572504 L 98.255280 89.461371 L 98.605988 89.348936 L 98.957210 89.235189 L 99.308958 89.120117 L 99.661240 89.003710 L 100.014066 88.885954 L 100.367446 88.766839 L 100.721388 88.646351 L 101.075903 88.524479 L 101.430999 88.401208 L 101.786687 88.276527 L 102.142975 88.150422 L 102.499875 88.022880 L 102.857394 87.893886 L 103.215543 87.763427 L 103.574332 87.631488 L 103.933769 87.498056 L 104.293866 87.363114 L 104.654630 87.226649 L 105.016073 87.088645 L 105.378203 86.949086 L 105.741031 86.807956 L 106.104566 86.665239 L 106.468818 86.520920 L 106.833796 86.374981 L 107.199511 86.227405 L 107.565973 86.078175 L 107.933190 85.927273 L 108.301174 85.774681 L 108.669933 85.620382 L 109.039477 85.464356 L 109.409817 85.306585 L 109.780962 85.147050 L 110.152923 84.985731 L 110.525708 84.822608 L 110.899327 84.657660 L 111.273792 84.490868 L 111.649111 84.322211 L 112.025294 84.151667 L 112.402352 83.979214 L 112.780293 83.804830 L 113.159129 83.628494 L 113.538868 83.450181 L 113.919521 83.269870 L 114.301097 83.087535 L 114.683607 82.903154 L 115.067059 82.716702 L 115.451465 82.528153 L 115.836833 82.337484 L 116.223173 82.144666 L 116.610496 81.949676 L 116.998810 81.752485 L 117.388125 81.553067 L 117.778452 81.351394 L 118.169799 81.147437 L 118.562177 80.941170 L 118.955594 80.732561 L 119.350061 80.521582 L 119.745586 80.308203 L 120.142179 80.092392 L 120.539850 79.874119 L 120.938607 79.653351 L 121.338460 79.430058 L 121.739418 79.204204 L 122.141490 78.975758 L 122.544685 78.744685 L 122.949012 78.510950 L 123.354480 78.274518 L 123.761097 78.035354 L 124.168872 77.793420 L 124.577814 77.548679 L 124.987931 77.301094 L 125.399231 77.050626 L 125.811723 76.797235 L 126.225414 76.540882 L 126.640312 76.281526 L 127.056426 76.019126 L 127.473762 75.753640 L 127.892329 75.485024 L 128.312132 75.213235 L 128.733181 74.938229 L 129.155481 74.659960 L 129.579039 74.378382 L 130.003861 74.093449 L 130.429955 73.805112 L 130.857325 73.513324 L 131.285978 73.218033 L 131.715919 72.919191 L 132.147154 72.616746 L 132.579688 72.310645 L 133.013525 72.000836 L 133.448669 71.687264 L 133.885125 71.369874 L 134.322897 71.048610 L 134.761988 70.723414 L 135.202401 70.394229 L 135.644139 70.060995 L 136.087203 69.723652 L 136.234531 69.610432" fill="none" id="tattoo-path-96e43e17971aafcf" stroke="#000000" stroke-linecap="round" stroke-linejoin="round" stroke-width="3.600000"/>
  <path clip-path="url(#tattoo-band-layer-clip)" d="M 62.428444 135.500030 L 62.403840 135.361391 L 62.307961 134.812957 L 62.214171 134.268296 L 62.122429 133.727353 L 62.032696 133.190074 L 61.944933 132.656409 L 61.859102 132.126305 L 61.775168 131.599711 L 61.693094 131.076579 L 61.612845 130.556858 L 61.534388 130.040501 L 61.457689 129.527460 L 61.382716 129.017688 L 61.309436 128.511140 L 61.237821 128.007770 L 61.167838 127.507533 L 61.099459 127.010385 L 61.032656 126.516284 L 60.967399 126.025186 L 60.903663 125.537050 L 60.841419 125.051833 L 60.780643 124.569496 L 60.721309 124.089999 L 60.663391 123.613301 L 60.606866 123.139364 L 60.551710 122.668149 L 60.497899 122.199619 L 60.445412 121.733736 L 60.394226 121.270464 L 60.344319 120.809766 L 60.295671 120.351607 L 60.248261 119.895952 L 60.202068 119.442766 L 60.157074 118.992015 L 60.113258 118.543665 L 60.070603 118.097682 L 60.029090 117.654036 L 59.988701 117.212692 L 59.949418 116.773619 L 59.911224 116.336787 L 59.874103 115.902163 L 59.838039 115.469718 L 59.803014 115.039420 L 59.769015 114.611242 L 59.736025 114.185153 L 59.704029 113.761124 L 59.673014 113.339127 L 59.642964 112.919133 L 59.613866 112.501116 L 59.585706 112.085047 L 59.558471 111.670900 L 59.532148 111.258647 L 59.506724 110.848263 L 59.482187 110.439721 L 59.458524 110.032997 L 59.435724 109.628063 L 59.413775 109.224896 L 59.392666 108.823471 L 59.372385 108.423763 L 59.352922 108.025749 L 59.334267 107.629403 L 59.316407 107.234704 L 59.299335 106.841627 L 59.283039 106.450150 L 59.267510 106.060250 L 59.252739 105.671905 L 59.238716 105.285092 L 59.225432 104.899790 L 59.212878 104.515977 L 59.201046 104.133631 L 59.189928 103.752733 L 59.179514 103.373259 L 59.169798 102.995191 L 59.160770 102.618508 L 59.152424 102.243189 L 59.144751 101.869214 L 59.137745 101.496564 L 59.131399 101.125220 L 59.125704 100.755161 L 59.120655 100.386370 L 59.116245 100.018826 L 59.112466 99.652512 L 59.109314 99.287408 L 59.106781 98.923497 L 59.104862 98.560761 L 59.103550 98.199181 L 59.102840 97.838740 L 59.102726 97.479420 L 59.103202 97.121203 L 59.104264 96.764074 L 59.105906 96.408014 L 59.108123 96.053007 L 59.110909 95.699035 L 59.114261 95.346084 L 59.118172 94.994135 L 59.122640 94.643173 L 59.127658 94.293182 L 59.133223 93.944145 L 59.139331 93.596048 L 59.145977 93.248874 L 59.153158 92.902608 L 59.160869 92.557234 L 59.169106 92.212737 L 59.177867 91.869102 L 59.187146 91.526315 L 59.196942 91.184360 L 59.207250 90.843222 L 59.218067 90.502887 L 59.229389 90.163340 L 59.241215 89.824568 L 59.253541 89.486555 L 59.266363 89.149288 L 59.279679 88.812752 L 59.293487 88.476934 L 59.307783 88.141819 L 59.322566 87.807395 L 59.337833 87.473647 L 59.353580 87.140561 L 59.369807 86.808125 L 59.386511 86.476325 L 59.403690 86.145148 L 59.421341 85.814580 L 59.439464 85.484609 L 59.458055 85.155221 L 59.477113 84.826404 L 59.496637 84.498144 L 59.516625 84.170430 L 59.537076 83.843247 L 59.557987 83.516585 L 59.579358 83.190429 L 59.601187 82.864768 L 59.623473 82.539590 L 59.646215 82.214881 L 59.669412 81.890630 L 59.693063 81.566824 L 59.717166 81.243452 L 59.741722 80.920501 L 59.766728 80.597959 L 59.792185 80.275815 L 59.818092 79.954055 L 59.844449 79.632670 L 59.871254 79.311646 L 59.898507 78.990972 L 59.926208 78.670636 L 59.954358 78.350626 L 59.982954 78.030932 L 60.011998 77.711541 L 60.041489 77.392442 L 60.071427 77.073623 L 60.101813 76.755074 L 60.132646 76.436781 L 60.163926 76.118735 L 60.195655 75.800924 L 60.227831 75.483336 L 60.260456 75.165960 L 60.293530 74.848785 L 60.327053 74.531800 L 60.361027 74.214994 L 60.395451 73.898354 L 60.430327 73.581871 L 60.465654 73.265533 L 60.501435 72.949329 L 60.537670 72.633248 L 60.574360 72.317278 L 60.611506 72.001409 L 60.649109 71.685630 L 60.687170 71.369930 L 60.725691 71.054297 L 60.764673 70.738720 L 60.804117 70.423190 L 60.844025 70.107693 L 60.884398 69.792221 L 60.925238 69.476761 L 60.966547 69.161302 L 61.008325 68.845835 L 61.050576 68.530347 L 61.093300 68.214827 L 61.136501 67.899266 L 61.180179 67.583651 L 61.224337 67.267971 L 61.268977 66.952217 L 61.314101 66.636376 L 61.359712 66.320437 L 61.405812 66.004390 L 61.452403 65.688224 L 61.499488 65.371927 L 61.547069 65.055489 L 61.595149 64.738898 L 61.643731 64.422143 L 61.692817 64.105213 L 61.742411 63.788097 L 61.792516 63.470783 L 61.843133 63.153261 L 61.894268 62.835519 L 61.945921 62.517546 L 61.998098 62.199331 L 62.050802 61.880862 L 62.104034 61.562128 L 62.157800 61.243117 L 62.212103 60.923819 L 62.266947 60.604221 L 62.322334 60.284312 L 62.378270 59.964081 L 62.434758 59.643515 L 62.491801 59.322604 L 62.549405 59.001336 L 62.607573 58.679699 L 62.666310 58.357680 L 62.725620 58.035269 L 62.785507 57.712454 L 62.845976 57.389222 L 62.907031 57.065561 L 62.968678 56.741460 L 63.030922 56.416906 L 63.093766 56.091887 L 63.157217 55.766391 L 63.221279 55.440406 L 63.285958 55.113919 L 63.351258 54.786918 L 63.417186 54.459391 L 63.483747 54.131324 L 63.550947 53.802705 L 63.618791 53.473521 L 63.687286 53.143761 L 63.756437 52.813410 L 63.826250 52.482455 L 63.896732 52.150885 L 63.967889 51.818685 L 64.039728 51.485843 L 64.112255 51.152345 L 64.185477 50.818177 L 64.259401 50.483327 L 64.334034 50.147780 L 64.409382 49.811524 L 64.485454 49.474544 L 64.562256 49.136826 L 64.639796 48.798357 L 64.718082 48.459121 L 64.797122 48.119107 L 64.876923 47.778298 L 64.957493 47.436680 L 65.038842 47.094239 L 65.120977 46.750961 L 65.203907 46.406830 L 65.287640 46.061832 L 65.372186 45.715951 L 65.457553 45.369173 L 65.543751 45.021482 L 65.630789 44.672863 L 65.718676 44.323300 L 65.807423 43.972778 L 65.897040 43.621280 L 65.987535 43.268792 L 66.078921 42.915296 L 66.171206 42.560777 L 66.264402 42.205218 L 66.358520 41.848603 L 66.453571 41.490914 L 66.549565 41.132136 L 66.646515 40.772250 L 66.744432 40.411240 L 66.843329 40.049089 L 66.943216 39.685778 L 67.044107 39.321291 L 67.146014 38.955609 L 67.248950 38.588715 L 67.352928 38.220589 L 67.457962 37.851214 L 67.564064 37.480570 L 67.671249 37.108640 L 67.779531 36.735404 L 67.888924 36.360842 L 67.999443 35.984936 L 68.111102 35.607665 L 68.223917 35.229011 L 68.337903 34.848952 L 68.453077 34.467468 L 68.569453 34.084540 L 68.687049 33.700146 L 68.805881 33.314264 L 68.925966 32.926875 L 69.047321 32.537956 L 69.169964 32.147486 L 69.293914 31.755443 L 69.419188 31.361804 L 69.545805 30.966548 L 69.673785 30.569650 L 69.803146 30.171089 L 69.933909 29.770841 L 70.066093 29.368883 L 70.199720 28.965190 L 70.334811 28.559738 L 70.471386 28.152503 L 70.609468 27.743461 L 70.749080 27.332586 L 70.890243 26.919853 L 71.032982 26.505236 L 71.177319 26.088709 L 71.323279 25.670246 L 71.470887 25.249820 L 71.620168 24.827405 L 71.771148 24.402973 L 71.923852 23.976496 L 72.078308 23.547946 L 72.234543 23.117296 L 72.392585 22.684515 L 72.552462 22.249576 L 72.714203 21.812448 L 72.877839 21.373101 L 73.043399 20.931507 L 73.210914 20.487632 L 73.380415 20.041448 L 73.551936 19.592921 L 73.725509 19.142021 L 73.901168 18.688715 L 74.078947 18.232969 L 74.258881 17.774752 L 74.441007 17.314029 L 74.625360 16.850765 L 74.811978 16.384928 L 75.000900 15.916480 L 75.192165 15.445388 L 75.385813 14.971614 L 75.581884 14.495123 L 75.780421 14.015876 L 75.981465 13.533838 L 76.185062 13.048969 L 76.391255 12.561231 L 76.600091 12.070585 L 76.811616 11.576992 L 77.025877 11.080410 L 77.242924 10.580800 L 77.462807 10.078119 L 77.685577 9.572326 L 77.911286 9.063379 L 77.968699 8.934810" fill="none" id="tattoo-path-b4580ea35527234f" stroke="#000000" stroke-linecap="round" stroke-linejoin="round" stroke-width="3.100000"/>
  <path clip-path="url(#tattoo-band-layer-clip)" d="M 52.684236 133.144666 L 52.881128 132.790027 L 53.149615 132.304733 L 53.415361 131.822718 L 53.678413 131.343935 L 53.938818 130.868334 L 54.196622 130.395867 L 54.451870 129.926489 L 54.704607 129.460153 L 54.954875 128.996813 L 55.202716 128.536426 L 55.448173 128.078947 L 55.691284 127.624334 L 55.932090 127.172543 L 56.170629 126.723534 L 56.406939 126.277265 L 56.641058 125.833697 L 56.873021 125.392789 L 57.102864 124.954502 L 57.330622 124.518798 L 57.556329 124.085640 L 57.780018 123.654989 L 58.001722 123.226810 L 58.221474 122.801067 L 58.439304 122.377723 L 58.655243 121.956744 L 58.869322 121.538096 L 59.081571 121.121744 L 59.292017 120.707656 L 59.500690 120.295798 L 59.707617 119.886138 L 59.912826 119.478645 L 60.116344 119.073286 L 60.318196 118.670032 L 60.518409 118.268850 L 60.717008 117.869712 L 60.914018 117.472588 L 61.109463 117.077449 L 61.303367 116.684265 L 61.495753 116.293008 L 61.686645 115.903652 L 61.876065 115.516167 L 62.064035 115.130527 L 62.250577 114.746705 L 62.435712 114.364674 L 62.619461 113.984409 L 62.801845 113.605884 L 62.982885 113.229073 L 63.162599 112.853952 L 63.341007 112.480495 L 63.518130 112.108679 L 63.693984 111.738480 L 63.868590 111.369873 L 64.041964 111.002835 L 64.214126 110.637343 L 64.385092 110.273375 L 64.554879 109.910908 L 64.723505 109.549919 L 64.890987 109.190387 L 65.057340 108.832290 L 65.222581 108.475606 L 65.386725 108.120315 L 65.549789 107.766395 L 65.711787 107.413827 L 65.872734 107.062589 L 66.032646 106.712661 L 66.191536 106.364024 L 66.349420 106.016657 L 66.506311 105.670542 L 66.662222 105.325659 L 66.817169 104.981989 L 66.971163 104.639514 L 67.124219 104.298214 L 67.276349 103.958072 L 67.427565 103.619069 L 67.577882 103.281188 L 67.727310 102.944409 L 67.875863 102.608717 L 68.023551 102.274094 L 68.170388 101.940522 L 68.316384 101.607984 L 68.461551 101.276463 L 68.605900 100.945944 L 68.749443 100.616408 L 68.892190 100.287841 L 69.034152 99.960226 L 69.175339 99.633546 L 69.315763 99.307786 L 69.455433 98.982930 L 69.594360 98.658963 L 69.732553 98.335869 L 69.870023 98.013633 L 70.006779 97.692239 L 70.142830 97.371674 L 70.278187 97.051921 L 70.412857 96.732967 L 70.546852 96.414796 L 70.680178 96.097394 L 70.812847 95.780747 L 70.944865 95.464840 L 71.076242 95.149660 L 71.206987 94.835192 L 71.337108 94.521422 L 71.466612 94.208337 L 71.595509 93.895924 L 71.723806 93.584167 L 71.851512 93.273055 L 71.978633 92.962573 L 72.105179 92.652709 L 72.231156 92.343449 L 72.356572 92.034780 L 72.481435 91.726689 L 72.605751 91.419163 L 72.729529 91.112189 L 72.852774 90.805756 L 72.975496 90.499849 L 73.097699 90.194457 L 73.219392 89.889567 L 73.340580 89.585166 L 73.461271 89.281242 L 73.581472 88.977784 L 73.701188 88.674778 L 73.820426 88.372213 L 73.939193 88.070076 L 74.057495 87.768356 L 74.175338 87.467041 L 74.292729 87.166118 L 74.409672 86.865577 L 74.526175 86.565404 L 74.642244 86.265589 L 74.757883 85.966120 L 74.873099 85.666985 L 74.987898 85.368172 L 75.102285 85.069671 L 75.216266 84.771470 L 75.329846 84.473556 L 75.443030 84.175920 L 75.555825 83.878549 L 75.668236 83.581433 L 75.780267 83.284559 L 75.891924 82.987917 L 76.003212 82.691496 L 76.114136 82.395284 L 76.224701 82.099271 L 76.334912 81.803445 L 76.444775 81.507795 L 76.554293 81.212309 L 76.663472 80.916978 L 76.772317 80.621790 L 76.880831 80.326735 L 76.989021 80.031800 L 77.096890 79.736975 L 77.204443 79.442250 L 77.311684 79.147613 L 77.418618 78.853053 L 77.525250 78.558560 L 77.631583 78.264122 L 77.737623 77.969729 L 77.843373 77.675371 L 77.948837 77.381035 L 78.054020 77.086711 L 78.158926 76.792388 L 78.263559 76.498057 L 78.367923 76.203704 L 78.472022 75.909320 L 78.575860 75.614894 L 78.679441 75.320416 L 78.782769 75.025873 L 78.885848 74.731255 L 78.988682 74.436552 L 79.091274 74.141751 L 79.193628 73.846844 L 79.295748 73.551818 L 79.397638 73.256662 L 79.499300 72.961366 L 79.600740 72.665918 L 79.701960 72.370308 L 79.802965 72.074524 L 79.903756 71.778555 L 80.004339 71.482391 L 80.104716 71.186020 L 80.204891 70.889431 L 80.304868 70.592612 L 80.404649 70.295553 L 80.504238 69.998242 L 80.603638 69.700668 L 80.702852 69.402820 L 80.801885 69.104685 L 80.900739 68.806254 L 80.999416 68.507513 L 81.097921 68.208453 L 81.196257 67.909060 L 81.294426 67.609325 L 81.392432 67.309234 L 81.490277 67.008776 L 81.587966 66.707939 L 81.685500 66.406712 L 81.782882 66.105083 L 81.880117 65.803039 L 81.977205 65.500569 L 82.074152 65.197661 L 82.170959 64.894302 L 82.267628 64.590480 L 82.364164 64.286183 L 82.460569 63.981399 L 82.556845 63.676115 L 82.652996 63.370318 L 82.749024 63.063997 L 82.844931 62.757137 L 82.940721 62.449728 L 83.036397 62.141755 L 83.131960 61.833205 L 83.227413 61.524067 L 83.322759 61.214326 L 83.418001 60.903969 L 83.513141 60.592984 L 83.608181 60.281356 L 83.703125 59.969073 L 83.797974 59.656120 L 83.892732 59.342484 L 83.987399 59.028152 L 84.081980 58.713108 L 84.176476 58.397339 L 84.270890 58.080831 L 84.365224 57.763570 L 84.459480 57.445541 L 84.553661 57.126730 L 84.647769 56.807121 L 84.741806 56.486701 L 84.835775 56.165454 L 84.929677 55.843366 L 85.023516 55.520420 L 85.117292 55.196602 L 85.211009 54.871896 L 85.304668 54.546287 L 85.398272 54.219758 L 85.491822 53.892294 L 85.585321 53.563879 L 85.678771 53.234496 L 85.772173 52.904129 L 85.865530 52.572761 L 85.958844 52.240377 L 86.052117 51.906957 L 86.145350 51.572487 L 86.238546 51.236947 L 86.331706 50.900321 L 86.424833 50.562591 L 86.517928 50.223739 L 86.610992 49.883748 L 86.704029 49.542598 L 86.797038 49.200271 L 86.890023 48.856749 L 86.982985 48.512013 L 87.075926 48.166043 L 87.168847 47.818820 L 87.261750 47.470324 L 87.354636 47.120537 L 87.447507 46.769437 L 87.540365 46.417004 L 87.633211 46.063218 L 87.726046 45.708058 L 87.818873 45.351503 L 87.911692 44.993532 L 88.004505 44.634122 L 88.097313 44.273252 L 88.190117 43.910901 L 88.282920 43.547044 L 88.375721 43.181661 L 88.468522 42.814727 L 88.561325 42.446219 L 88.654131 42.076114 L 88.746940 41.704387 L 88.839754 41.331015 L 88.932573 40.955973 L 89.025400 40.579235 L 89.118233 40.200777 L 89.211076 39.820572 L 89.303927 39.438595 L 89.396789 39.054820 L 89.489662 38.669219 L 89.582546 38.281765 L 89.675442 37.892432 L 89.768351 37.501190 L 89.861274 37.108012 L 89.954210 36.712868 L 90.047161 36.315731 L 90.140126 35.916569 L 90.233106 35.515353 L 90.326101 35.112052 L 90.419111 34.706636 L 90.512137 34.299073 L 90.605178 33.889331 L 90.698235 33.477377 L 90.791307 33.063179 L 90.884394 32.646704 L 90.977496 32.227916 L 91.070613 31.806782 L 91.163744 31.383267 L 91.256888 30.957335 L 91.350046 30.528950 L 91.443215 30.098075 L 91.536397 29.664672 L 91.629589 29.228705 L 91.722791 28.790133 L 91.816001 28.348918 L 91.909219 27.905020 L 92.002443 27.458398 L 92.095672 27.009012 L 92.188904 26.556818 L 92.282137 26.101775 L 92.375371 25.643839 L 92.468602 25.182966 L 92.561829 24.719110 L 92.655050 24.252227 L 92.748262 23.782270 L 92.841462 23.309191 L 92.934649 22.832942 L 93.027820 22.353474 L 93.120970 21.870738 L 93.214098 21.384682 L 93.307200 20.895255 L 93.400272 20.402404 L 93.493311 19.906076 L 93.586313 19.406215 L 93.679274 18.902766 L 93.772189 18.395673 L 93.865054 17.884878 L 93.957864 17.370322 L 94.050614 16.851945 L 94.143298 16.329685 L 94.235913 15.803482 L 94.328450 15.273270 L 94.420905 14.738986 L 94.513271 14.200564 L 94.605542 13.657936 L 94.697710 13.111035 L 94.764525 12.710947" fill="none" id="tattoo-path-ac387ddf28049eba" stroke="#000000" stroke-linecap="round" stroke-linejoin="round" stroke-width="2.500000"/>
  <path clip-path="url(#tattoo-band-layer-clip)" d="M 77.381983 136.112941 L 77.360317 136.096379 L 76.918794 135.754768 L 76.481549 135.412387 L 76.048539 135.069266 L 75.619719 134.725432 L 75.195049 134.380915 L 74.774485 134.035742 L 74.357987 133.689939 L 73.945513 133.343532 L 73.537023 132.996546 L 73.132477 132.649005 L 72.731834 132.300934 L 72.335056 131.952354 L 71.942103 131.603287 L 71.552936 131.253756 L 71.167519 130.903781 L 70.785812 130.553383 L 70.407779 130.202579 L 70.033383 129.851391 L 69.662588 129.499836 L 69.295357 129.147931 L 68.931655 128.795694 L 68.571447 128.443142 L 68.214698 128.090290 L 67.861373 127.737155 L 67.511439 127.383750 L 67.164862 127.030092 L 66.821609 126.676193 L 66.481647 126.322067 L 66.144944 125.967728 L 65.811468 125.613188 L 65.481187 125.258460 L 65.154070 124.903554 L 64.830086 124.548483 L 64.509206 124.193257 L 64.191398 123.837887 L 63.876633 123.482383 L 63.564882 123.126755 L 63.256115 122.771012 L 62.950305 122.415163 L 62.647423 122.059217 L 62.347442 121.703182 L 62.050333 121.347066 L 61.756069 120.990876 L 61.464625 120.634621 L 61.175972 120.278307 L 60.890086 119.921941 L 60.606940 119.565528 L 60.326510 119.209076 L 60.048769 118.852590 L 59.773694 118.496076 L 59.501259 118.139539 L 59.231441 117.782983 L 58.964216 117.426414 L 58.699560 117.069836 L 58.437450 116.713253 L 58.177864 116.356669 L 57.920778 116.000089 L 57.666171 115.643515 L 57.414021 115.286951 L 57.164306 114.930400 L 56.917005 114.573865 L 56.672096 114.217349 L 56.429560 113.860853 L 56.189375 113.504381 L 55.951521 113.147934 L 55.715979 112.791514 L 55.482728 112.435123 L 55.251751 112.078763 L 55.023026 111.722434 L 54.796537 111.366138 L 54.572263 111.009876 L 54.350188 110.653649 L 54.130293 110.297457 L 53.912560 109.941301 L 53.696972 109.585181 L 53.483511 109.229098 L 53.272161 108.873052 L 53.062905 108.517042 L 52.855727 108.161068 L 52.650610 107.805130 L 52.447539 107.449228 L 52.246497 107.093360 L 52.047469 106.737526 L 51.850440 106.381726 L 51.655395 106.025958 L 51.462319 105.670221 L 51.271198 105.314514 L 51.082018 104.958835 L 50.894763 104.603183 L 50.709421 104.247557 L 50.525977 103.891955 L 50.344419 103.536375 L 50.164733 103.180815 L 49.986906 102.825274 L 49.810925 102.469749 L 49.636778 102.114237 L 49.464452 101.758738 L 49.293935 101.403248 L 49.125216 101.047765 L 48.958282 100.692287 L 48.793122 100.336810 L 48.629725 99.981333 L 48.468080 99.625852 L 48.308175 99.270365 L 48.149999 98.914868 L 47.993543 98.559359 L 47.838796 98.203835 L 47.685748 97.848292 L 47.534388 97.492727 L 47.384708 97.137138 L 47.236697 96.781519 L 47.090345 96.425869 L 46.945645 96.070184 L 46.802586 95.714460 L 46.661160 95.358693 L 46.521358 95.002879 L 46.383171 94.647016 L 46.246592 94.291099 L 46.111612 93.935125 L 45.978223 93.579088 L 45.846417 93.222986 L 45.716187 92.866815 L 45.587525 92.510570 L 45.460424 92.154246 L 45.334876 91.797841 L 45.210875 91.441349 L 45.088415 91.084767 L 44.967487 90.728090 L 44.848087 90.371313 L 44.730207 90.014433 L 44.613841 89.657444 L 44.498984 89.300342 L 44.385630 88.943122 L 44.273772 88.585781 L 44.163406 88.228312 L 44.054527 87.870712 L 43.947128 87.512976 L 43.841205 87.155099 L 43.736753 86.797075 L 43.633768 86.438901 L 43.532245 86.080571 L 43.432179 85.722080 L 43.333567 85.363423 L 43.236403 85.004595 L 43.140685 84.645591 L 43.046409 84.286406 L 42.953570 83.927035 L 42.862166 83.567472 L 42.772193 83.207713 L 42.683648 82.847751 L 42.596528 82.487582 L 42.510830 82.127201 L 42.426551 81.766602 L 42.343689 81.405779 L 42.262242 81.044727 L 42.182207 80.683440 L 42.103582 80.321914 L 42.026365 79.960143 L 41.950555 79.598120 L 41.876150 79.235841 L 41.803147 78.873299 L 41.731547 78.510490 L 41.661347 78.147407 L 41.592547 77.784044 L 41.525146 77.420397 L 41.459143 77.056458 L 41.394537 76.692223 L 41.331328 76.327685 L 41.269516 75.962839 L 41.209101 75.597679 L 41.150083 75.232198 L 41.092461 74.866392 L 41.036236 74.500253 L 40.981409 74.133776 L 40.927980 73.766954 L 40.875950 73.399783 L 40.825320 73.032255 L 40.776091 72.664365 L 40.728265 72.296106 L 40.681842 71.927473 L 40.636824 71.558458 L 40.593214 71.189057 L 40.551012 70.819263 L 40.510221 70.449068 L 40.470843 70.078469 L 40.432881 69.707457 L 40.396336 69.336027 L 40.361212 68.964172 L 40.327512 68.591886 L 40.295238 68.219162 L 40.264393 67.845995 L 40.234982 67.472378 L 40.207007 67.098304 L 40.180472 66.723767 L 40.155381 66.348761 L 40.131737 65.973278 L 40.109546 65.597313 L 40.088811 65.220859 L 40.069537 64.843910 L 40.051729 64.466458 L 40.035391 64.088498 L 40.020528 63.710022 L 40.007146 63.331025 L 39.995250 62.951499 L 39.984846 62.571438 L 39.975939 62.190836 L 39.968535 61.809685 L 39.962640 61.427979 L 39.958261 61.045711 L 39.955404 60.662875 L 39.954076 60.279465 L 39.954284 59.895472 L 39.956034 59.510891 L 39.959334 59.125715 L 39.964192 58.739937 L 39.970614 58.353550 L 39.978609 57.966548 L 39.988185 57.578924 L 39.999350 57.190671 L 40.012113 56.801782 L 40.026482 56.412251 L 40.042466 56.022071 L 40.060074 55.631235 L 40.079315 55.239737 L 40.100199 54.847569 L 40.122736 54.454725 L 40.146935 54.061198 L 40.172807 53.666981 L 40.200362 53.272068 L 40.229610 52.876452 L 40.260563 52.480127 L 40.293232 52.083084 L 40.327627 51.685318 L 40.363761 51.286823 L 40.401645 50.887591 L 40.441291 50.487615 L 40.482711 50.086889 L 40.525918 49.685407 L 40.570925 49.283162 L 40.617745 48.880146 L 40.666391 48.476354 L 40.716876 48.071779 L 40.769214 47.666415 L 40.823420 47.260254 L 40.879507 46.853291 L 40.937491 46.445519 L 40.997386 46.036932 L 41.059207 45.627522 L 41.122970 45.217285 L 41.188691 44.806213 L 41.256385 44.394300 L 41.326068 43.981540 L 41.397758 43.567927 L 41.471472 43.153454 L 41.547226 42.738117 L 41.625038 42.321907 L 41.704926 41.904820 L 41.786908 41.486850 L 41.871003 41.067991 L 41.957229 40.648236 L 42.045605 40.227580 L 42.136152 39.806019 L 42.228888 39.383545 L 42.323833 38.960153 L 42.421010 38.535838 L 42.520437 38.110595 L 42.622137 37.684418 L 42.726130 37.257302 L 42.832440 36.829243 L 42.941088 36.400234 L 43.052096 35.970272 L 43.165488 35.539350 L 43.281288 35.107466 L 43.399519 34.674613 L 43.520205 34.240789 L 43.643371 33.805987 L 43.769042 33.370205 L 43.897243 32.933438 L 44.028000 32.495682 L 44.161341 32.056933 L 44.297290 31.617188 L 44.435876 31.176444 L 44.577125 30.734696 L 44.721067 30.291943 L 44.867729 29.848180 L 45.017141 29.403405 L 45.169331 28.957616 L 45.324330 28.510810 L 45.482168 28.062985 L 45.642876 27.614139 L 45.806484 27.164270 L 45.973026 26.713377 L 46.142533 26.261458 L 46.315038 25.808512 L 46.490575 25.354539 L 46.669176 24.899537 L 46.850878 24.443507 L 47.035714 23.986448 L 47.223719 23.528361 L 47.414931 23.069246 L 47.609386 22.609104 L 47.807119 22.147936 L 48.008171 21.685744 L 48.212578 21.222530 L 48.420379 20.758295 L 48.631615 20.293042 L 48.846324 19.826775 L 49.064548 19.359495 L 49.286327 18.891208 L 49.511705 18.421917 L 49.740722 17.951626 L 49.973423 17.480341 L 50.209851 17.008067 L 50.450050 16.534809 L 50.694067 16.060574 L 50.941945 15.585370 L 51.193732 15.109202 L 51.449475 14.632080 L 51.709222 14.154011 L 51.973020 13.675004 L 52.240920 13.195069 L 52.512971 12.714217 L 52.789223 12.232457 L 53.069729 11.749801 L 53.083569 11.726303" fill="none" id="tattoo-path-fc21edb0004b510e" stroke="#000000" stroke-linecap="round" stroke-linejoin="round" stroke-width="2.200000"/>
  <path clip-path="url(#tattoo-band-layer-clip)" d="M 30.510716 120.534779 L 30.688680 120.210478 L 30.956458 119.724452 L 31.223022 119.242530 L 31.488388 118.764646 L 31.752567 118.290734 L 32.015574 117.820729 L 32.277422 117.354567 L 32.538124 116.892187 L 32.797694 116.433527 L 33.056144 115.978528 L 33.313489 115.527131 L 33.569740 115.079279 L 33.824911 114.634916 L 34.079014 114.193986 L 34.332062 113.756436 L 34.584069 113.322211 L 34.835045 112.891260 L 35.085005 112.463532 L 35.333959 112.038976 L 35.581921 111.617543 L 35.828903 111.199185 L 36.074917 110.783854 L 36.319974 110.371504 L 36.564087 109.962089 L 36.807267 109.555564 L 37.049526 109.151885 L 37.290877 108.751008 L 37.531329 108.352891 L 37.770896 107.957492 L 38.009587 107.564770 L 38.247416 107.174685 L 38.484391 106.787197 L 38.720526 106.402267 L 38.955831 106.019856 L 39.190316 105.639928 L 39.423993 105.262444 L 39.656872 104.887369 L 39.888964 104.514668 L 40.120280 104.144304 L 40.350830 103.776243 L 40.580625 103.410451 L 40.809675 103.046895 L 41.037990 102.685542 L 41.265581 102.326360 L 41.492457 101.969316 L 41.718628 101.614380 L 41.944105 101.261520 L 42.168898 100.910707 L 42.393016 100.561910 L 42.616469 100.215100 L 42.839266 99.870249 L 43.061418 99.527327 L 43.282934 99.186307 L 43.503823 98.847161 L 43.724094 98.509862 L 43.943757 98.174384 L 44.162822 97.840699 L 44.381297 97.508783 L 44.599191 97.178609 L 44.816514 96.850153 L 45.033274 96.523389 L 45.249481 96.198293 L 45.465143 95.874842 L 45.680269 95.553010 L 45.894868 95.232776 L 46.108948 94.914116 L 46.322519 94.597008 L 46.535588 94.281428 L 46.748164 93.967355 L 46.960256 93.654767 L 47.171872 93.343643 L 47.383020 93.033962 L 47.593709 92.725702 L 47.803946 92.418843 L 48.013741 92.113366 L 48.223101 91.809249 L 48.432034 91.506473 L 48.640549 91.205018 L 48.848653 90.904866 L 49.056354 90.605998 L 49.263660 90.308394 L 49.470580 90.012036 L 49.677120 89.716907 L 49.883289 89.422987 L 50.089094 89.130259 L 50.294544 88.838706 L 50.499645 88.548310 L 50.704405 88.259054 L 50.908833 87.970922 L 51.112934 87.683896 L 51.316718 87.397960 L 51.520191 87.113097 L 51.723361 86.829293 L 51.926235 86.546530 L 52.128821 86.264793 L 52.331126 85.984066 L 52.533157 85.704335 L 52.734922 85.425583 L 52.936427 85.147796 L 53.137681 84.870959 L 53.338689 84.595058 L 53.539460 84.320077 L 53.740001 84.046003 L 53.940318 83.772821 L 54.140419 83.500517 L 54.340311 83.229077 L 54.540000 82.958488 L 54.739494 82.688736 L 54.938801 82.419808 L 55.137926 82.151689 L 55.336876 81.884368 L 55.535660 81.617830 L 55.734283 81.352064 L 55.932753 81.087056 L 56.131077 80.822793 L 56.329261 80.559263 L 56.527312 80.296454 L 56.725237 80.034353 L 56.923043 79.772948 L 57.120737 79.512227 L 57.318326 79.252178 L 57.515816 78.992789 L 57.713215 78.734049 L 57.910528 78.475945 L 58.107764 78.218466 L 58.304928 77.961601 L 58.502027 77.705339 L 58.699069 77.449667 L 58.896060 77.194575 L 59.093006 76.940053 L 59.289915 76.686088 L 59.486793 76.432670 L 59.683647 76.179788 L 59.880484 75.927432 L 60.077311 75.675590 L 60.274134 75.424253 L 60.470960 75.173409 L 60.667796 74.923049 L 60.864649 74.673162 L 61.061526 74.423737 L 61.258432 74.174765 L 61.455376 73.926235 L 61.652363 73.678137 L 61.849402 73.430462 L 62.046497 73.183199 L 62.243658 72.936338 L 62.440889 72.689870 L 62.638199 72.443786 L 62.835593 72.198074 L 63.033079 71.952726 L 63.230665 71.707732 L 63.428356 71.463082 L 63.626159 71.218768 L 63.824082 70.974779 L 64.022132 70.731106 L 64.220315 70.487740 L 64.418639 70.244672 L 64.617111 70.001892 L 64.815737 69.759391 L 65.014525 69.517160 L 65.213482 69.275191 L 65.412615 69.033472 L 65.611932 68.791997 L 65.811439 68.550755 L 66.011143 68.309739 L 66.211052 68.068938 L 66.411174 67.828344 L 66.611515 67.587948 L 66.812083 67.347741 L 67.012885 67.107715 L 67.213928 66.867860 L 67.415221 66.628168 L 67.616771 66.388630 L 67.818584 66.149238 L 68.020669 65.909982 L 68.223034 65.670855 L 68.425685 65.431847 L 68.628631 65.192949 L 68.831880 64.954154 L 69.035438 64.715453 L 69.239315 64.476836 L 69.443517 64.238296 L 69.648053 63.999823 L 69.852931 63.761410 L 70.058159 63.523047 L 70.263744 63.284727 L 70.469696 63.046441 L 70.676022 62.808179 L 70.882730 62.569934 L 71.089829 62.331698 L 71.297327 62.093461 L 71.505232 61.855215 L 71.713554 61.616952 L 71.922300 61.378663 L 72.131479 61.140340 L 72.341100 60.901974 L 72.551172 60.663556 L 72.761703 60.425079 L 72.972702 60.186533 L 73.184178 59.947911 L 73.396141 59.709202 L 73.608599 59.470400 L 73.821562 59.231496 L 74.035039 58.992480 L 74.249038 58.753344 L 74.463570 58.514080 L 74.678645 58.274680 L 74.894271 58.035133 L 75.110458 57.795433 L 75.327217 57.555569 L 75.544556 57.315534 L 75.762487 57.075319 L 75.981018 56.834915 L 76.200161 56.594313 L 76.419925 56.353505 L 76.640321 56.112481 L 76.861359 55.871233 L 77.083050 55.629752 L 77.305404 55.388029 L 77.528432 55.146055 L 77.752146 54.903822 L 77.976555 54.661319 L 78.201672 54.418539 L 78.427507 54.175472 L 78.654072 53.932109 L 78.881378 53.688441 L 79.109436 53.444459 L 79.338260 53.200153 L 79.567860 52.955514 L 79.798248 52.710533 L 80.029436 52.465201 L 80.261438 52.219508 L 80.494264 51.973445 L 80.727929 51.727001 L 80.962443 51.480169 L 81.197821 51.232938 L 81.434076 50.985298 L 81.671219 50.737240 L 81.909265 50.488753 L 82.148228 50.239829 L 82.388120 49.990457 L 82.628956 49.740628 L 82.870750 49.490330 L 83.113515 49.239555 L 83.357267 48.988292 L 83.602019 48.736531 L 83.847786 48.484262 L 84.094584 48.231474 L 84.342426 47.978156 L 84.591330 47.724299 L 84.841309 47.469892 L 85.092380 47.214924 L 85.344559 46.959385 L 85.597861 46.703263 L 85.852304 46.446548 L 86.107903 46.189229 L 86.364675 45.931294 L 86.622638 45.672733 L 86.881808 45.413535 L 87.142203 45.153688 L 87.403841 44.893180 L 87.666740 44.632001 L 87.930918 44.370138 L 88.196394 44.107580 L 88.463185 43.844315 L 88.731312 43.580332 L 89.000794 43.315617 L 89.271650 43.050160 L 89.543900 42.783948 L 89.817564 42.516968 L 90.092663 42.249208 L 90.369217 41.980656 L 90.647248 41.711299 L 90.926777 41.441124 L 91.207826 41.170118 L 91.490416 40.898269 L 91.774571 40.625562 L 92.060313 40.351985 L 92.347665 40.077525 L 92.636651 39.802167 L 92.927294 39.525899 L 93.219619 39.248706 L 93.513650 38.970574 L 93.809413 38.691489 L 94.106933 38.411438 L 94.406235 38.130405 L 94.707346 37.848376 L 95.010293 37.565337 L 95.315103 37.281272 L 95.621803 36.996166 L 95.930421 36.710006 L 96.240987 36.422774 L 96.553528 36.134455 L 96.868074 35.845035 L 97.184656 35.554497 L 97.503304 35.262825 L 97.824049 34.970002 L 98.146923 34.676013 L 98.471957 34.380842 L 98.799184 34.084470 L 99.128638 33.786882 L 99.460352 33.488060 L 99.794361 33.187987 L 100.130701 32.886645 L 100.469405 32.584017 L 100.810512 32.280085 L 101.154058 31.974830 L 101.500081 31.668235 L 101.848618 31.360280 L 102.199710 31.050947 L 102.553396 30.740218 L 102.909716 30.428072 L 103.268712 30.114490 L 103.630427 29.799453 L 103.994902 29.482940 L 104.362181 29.164932 L 104.732310 28.845408 L 105.105333 28.524348 L 105.481297 28.201730 L 105.860248 27.877533 L 106.242236 27.551736 L 106.627310 27.224318 L 107.015518 26.895255 L 107.406912 26.564527 L 107.801545 26.232110 L 108.199469 25.897982 L 108.600738 25.562120 L 109.005409 25.224500 L 109.413536 24.885099 L 109.825178 24.543892 L 110.240394 24.200856 L 110.659242 23.855966 L 111.081786 23.509197 L 111.508086 23.160523 L 111.938207 22.809921 L 112.225333 22.576679" fill="none" id="tattoo-path-1270479756da1b82" stroke="#000000" stroke-linecap="round" stroke-linejoin="round" stroke-width="1.900000"/>
  <path clip-path="url(#tattoo-band-layer-clip)" d="M 99.531226 130.290594 L 99.453023 130.212148 L 99.060835 129.816649 L 98.672542 129.423007 L 98.288081 129.031203 L 97.907387 128.641217 L 97.530401 128.253029 L 97.157060 127.866619 L 96.787306 127.481969 L 96.421081 127.099058 L 96.058328 126.717866 L 95.698992 126.338376 L 95.343017 125.960568 L 94.990350 125.584422 L 94.640939 125.209921 L 94.294732 124.837045 L 93.951680 124.465775 L 93.611731 124.096093 L 93.274839 123.727982 L 92.940956 123.361421 L 92.610034 122.996394 L 92.282028 122.632883 L 91.956894 122.270869 L 91.634587 121.910335 L 91.315064 121.551264 L 90.998283 121.193637 L 90.684202 120.837437 L 90.372781 120.482648 L 90.063979 120.129252 L 89.757757 119.777232 L 89.454077 119.426572 L 89.152901 119.077255 L 88.854192 118.729263 L 88.557912 118.382582 L 88.264028 118.037194 L 87.972502 117.693083 L 87.683301 117.350233 L 87.396391 117.008628 L 87.111739 116.668254 L 86.829312 116.329092 L 86.549077 115.991129 L 86.271003 115.654349 L 85.995060 115.318737 L 85.721217 114.984276 L 85.449443 114.650953 L 85.179710 114.318752 L 84.911988 113.987659 L 84.646250 113.657658 L 84.382467 113.328735 L 84.120612 113.000876 L 83.860657 112.674066 L 83.602577 112.348291 L 83.346346 112.023537 L 83.091937 111.699789 L 82.839326 111.377034 L 82.588487 111.055258 L 82.339397 110.734447 L 82.092032 110.414588 L 81.846368 110.095666 L 81.602381 109.777669 L 81.360049 109.460584 L 81.119351 109.144396 L 80.880262 108.829093 L 80.642763 108.514662 L 80.406831 108.201090 L 80.172446 107.888363 L 79.939586 107.576470 L 79.708232 107.265398 L 79.478364 106.955133 L 79.249962 106.645664 L 79.023006 106.336978 L 78.797478 106.029063 L 78.573358 105.721906 L 78.350629 105.415495 L 78.129271 105.109819 L 77.909268 104.804865 L 77.690601 104.500622 L 77.473253 104.197077 L 77.257207 103.894218 L 77.042446 103.592035 L 76.828953 103.290515 L 76.616713 102.989648 L 76.405709 102.689420 L 76.195926 102.389822 L 75.987347 102.090841 L 75.779957 101.792467 L 75.573741 101.494688 L 75.368685 101.197494 L 75.164773 100.900872 L 74.961991 100.604812 L 74.760325 100.309304 L 74.559760 100.014335 L 74.360284 99.719896 L 74.161881 99.425976 L 73.964539 99.132564 L 73.768245 98.839649 L 73.572984 98.547220 L 73.378745 98.255268 L 73.185515 97.963781 L 72.993281 97.672749 L 72.802031 97.382162 L 72.611752 97.092010 L 72.422433 96.802281 L 72.234062 96.512966 L 72.046627 96.224055 L 71.860116 95.935537 L 71.674519 95.647403 L 71.489823 95.359642 L 71.306018 95.072244 L 71.123094 94.785198 L 70.941038 94.498497 L 70.759842 94.212128 L 70.579493 93.926082 L 70.399982 93.640350 L 70.221299 93.354922 L 70.043434 93.069787 L 69.866376 92.784936 L 69.690116 92.500360 L 69.514645 92.216047 L 69.339952 91.931990 L 69.166029 91.648178 L 68.992866 91.364601 L 68.820453 91.081250 L 68.648783 90.798116 L 68.477846 90.515188 L 68.307632 90.232457 L 68.138135 89.949913 L 67.969344 89.667548 L 67.801251 89.385351 L 67.633849 89.103314 L 67.467129 88.821426 L 67.301082 88.539677 L 67.135701 88.258060 L 66.970977 87.976564 L 66.806904 87.695180 L 66.643472 87.413897 L 66.480675 87.132708 L 66.318506 86.851603 L 66.156955 86.570571 L 65.996017 86.289605 L 65.835683 86.008693 L 65.675948 85.727828 L 65.516803 85.446999 L 65.358241 85.166198 L 65.200256 84.885414 L 65.042842 84.604638 L 64.885990 84.323862 L 64.729695 84.043075 L 64.573949 83.762269 L 64.418747 83.481433 L 64.264082 83.200558 L 64.109948 82.919636 L 63.956338 82.638656 L 63.803246 82.357609 L 63.650666 82.076485 L 63.498593 81.795276 L 63.347019 81.513971 L 63.195940 81.232561 L 63.045349 80.951037 L 62.895241 80.669389 L 62.745610 80.387607 L 62.596450 80.105683 L 62.447756 79.823605 L 62.299522 79.541365 L 62.151743 79.258953 L 62.004414 78.976360 L 61.857529 78.693574 L 61.711083 78.410588 L 61.565072 78.127391 L 61.419489 77.843973 L 61.274330 77.560325 L 61.129590 77.276436 L 60.985264 76.992297 L 60.841347 76.707897 L 60.697835 76.423227 L 60.554723 76.138277 L 60.412005 75.853037 L 60.269678 75.567497 L 60.127737 75.281646 L 59.986177 74.995474 L 59.844994 74.708971 L 59.704184 74.422127 L 59.563742 74.134932 L 59.423664 73.847375 L 59.283946 73.559445 L 59.144584 73.271133 L 59.005573 72.982427 L 58.866910 72.693318 L 58.728590 72.403794 L 58.590610 72.113845 L 58.452966 71.823460 L 58.315654 71.532628 L 58.178670 71.241338 L 58.042010 70.949580 L 57.905671 70.657342 L 57.769649 70.364614 L 57.633940 70.071384 L 57.498542 69.777640 L 57.363450 69.483372 L 57.228661 69.188569 L 57.094172 68.893218 L 56.959979 68.597308 L 56.826079 68.300829 L 56.692470 68.003767 L 56.559147 67.706111 L 56.426108 67.407850 L 56.293349 67.108971 L 56.160868 66.809462 L 56.028662 66.509312 L 55.896727 66.208507 L 55.765061 65.907036 L 55.633661 65.604887 L 55.502525 65.302046 L 55.371648 64.998502 L 55.241030 64.694241 L 55.110667 64.389250 L 54.980557 64.083517 L 54.850696 63.777029 L 54.721084 63.469772 L 54.591717 63.161734 L 54.462592 62.852900 L 54.333709 62.543258 L 54.205064 62.232793 L 54.076655 61.921492 L 53.948480 61.609342 L 53.820537 61.296327 L 53.692824 60.982434 L 53.565338 60.667649 L 53.438079 60.351957 L 53.311044 60.035344 L 53.184232 59.717794 L 53.057640 59.399294 L 52.931267 59.079828 L 52.805111 58.759381 L 52.679171 58.437938 L 52.553444 58.115483 L 52.427931 57.792000 L 52.302629 57.467475 L 52.177536 57.141890 L 52.052653 56.815230 L 51.927976 56.487479 L 51.803506 56.158620 L 51.679242 55.828637 L 51.555181 55.497512 L 51.431323 55.165229 L 51.307668 54.831771 L 51.184214 54.497119 L 51.060961 54.161257 L 50.937908 53.824167 L 50.815055 53.485831 L 50.692400 53.146230 L 50.569944 52.805346 L 50.447686 52.463161 L 50.325625 52.119656 L 50.203762 51.774812 L 50.082097 51.428608 L 49.960628 51.081027 L 49.839357 50.732048 L 49.718284 50.381651 L 49.597408 50.029816 L 49.476730 49.676522 L 49.356250 49.321748 L 49.235969 48.965475 L 49.115888 48.607680 L 48.996006 48.248341 L 48.876325 47.887437 L 48.756845 47.524947 L 48.637568 47.160847 L 48.518495 46.795114 L 48.399626 46.427726 L 48.280963 46.058660 L 48.162508 45.687892 L 48.044261 45.315398 L 47.926225 44.941153 L 47.808401 44.565134 L 47.690792 44.187315 L 47.573398 43.807671 L 47.456223 43.426177 L 47.339268 43.042806 L 47.222536 42.657533 L 47.106029 42.270330 L 46.989750 41.881171 L 46.873703 41.490029 L 46.757889 41.096874 L 46.642312 40.701680 L 46.526975 40.304418 L 46.411883 39.905058 L 46.297037 39.503571 L 46.182442 39.099928 L 46.068103 38.694098 L 45.954023 38.286050 L 45.840206 37.875753 L 45.726658 37.463176 L 45.613382 37.048285 L 45.500384 36.631050 L 45.387668 36.211436 L 45.275241 35.789410 L 45.163107 35.364938 L 45.051273 34.937986 L 44.939744 34.508517 L 44.828527 34.076496 L 44.717628 33.641888 L 44.607054 33.204655 L 44.496812 32.764759 L 44.386910 32.322164 L 44.277354 31.876829 L 44.168152 31.428717 L 44.059313 30.977786 L 43.950845 30.523997 L 43.842757 30.067309 L 43.735058 29.607679 L 43.627757 29.145066 L 43.520864 28.679425 L 43.414389 28.210714 L 43.308342 27.738887 L 43.202734 27.263900 L 43.097576 26.785705 L 42.992880 26.304256 L 42.888658 25.819506 L 42.784922 25.331407 L 42.681685 24.839908 L 42.578960 24.344959 L 42.476761 23.846511 L 42.375101 23.344510 L 42.273997 22.838904 L 42.173461 22.329640 L 42.073512 21.816663 L 41.974164 21.299917 L 41.875434 20.779346 L 41.777340 20.254892 L 41.679899 19.726497 L 41.583130 19.194102 L 41.487052 18.657646 L 41.391686 18.117066 L 41.297050 17.572301 L 41.203167 17.023286 L 41.184787 16.914054" fill="none" id="tattoo-path-01544f90aab7de32" stroke="#000000" stroke-linecap="round" stroke-linejoin="round" stroke-width="1.600000"/>
  <path clip-path="url(#tattoo-band-layer-clip)" d="M 86.495079 134.746106 L 86.451166 134.274332 L 86.399266 133.722730 L 86.347219 133.175391 L 86.295030 132.632247 L 86.242705 132.093228 L 86.190249 131.558270 L 86.137668 131.027306 L 86.084967 130.500273 L 86.032151 129.977109 L 85.979224 129.457752 L 85.926191 128.942141 L 85.873056 128.430218 L 85.819823 127.921924 L 85.766497 127.417203 L 85.713080 126.915999 L 85.659577 126.418256 L 85.605991 125.923921 L 85.552326 125.432941 L 85.498584 124.945263 L 85.444769 124.460838 L 85.390883 123.979614 L 85.336930 123.501543 L 85.282911 123.026577 L 85.228830 122.554666 L 85.174689 122.085766 L 85.120490 121.619830 L 85.066236 121.156813 L 85.011928 120.696671 L 84.957568 120.239360 L 84.903159 119.784837 L 84.848702 119.333060 L 84.794199 118.883988 L 84.739651 118.437580 L 84.685061 117.993796 L 84.630428 117.552597 L 84.575755 117.113943 L 84.521044 116.677798 L 84.466294 116.244122 L 84.411508 115.812881 L 84.356686 115.384036 L 84.301830 114.957552 L 84.246940 114.533395 L 84.192017 114.111529 L 84.137061 113.691921 L 84.082075 113.274537 L 84.027057 112.859343 L 83.972010 112.446308 L 83.916933 112.035399 L 83.861827 111.626585 L 83.806692 111.219835 L 83.751528 110.815118 L 83.696337 110.412404 L 83.641118 110.011662 L 83.585872 109.612865 L 83.530598 109.215983 L 83.475298 108.820987 L 83.419970 108.427850 L 83.364615 108.036543 L 83.309234 107.647040 L 83.253825 107.259314 L 83.198390 106.873338 L 83.142927 106.489087 L 83.087437 106.106533 L 83.031919 105.725653 L 82.976374 105.346420 L 82.920801 104.968810 L 82.865200 104.592799 L 82.809570 104.218363 L 82.753911 103.845477 L 82.698224 103.474119 L 82.642506 103.104265 L 82.586758 102.735892 L 82.530980 102.368978 L 82.475171 102.003501 L 82.419331 101.639438 L 82.363458 101.276767 L 82.307552 100.915468 L 82.251613 100.555519 L 82.195641 100.196899 L 82.139633 99.839588 L 82.083591 99.483564 L 82.027512 99.128808 L 81.971397 98.775300 L 81.915245 98.423020 L 81.859054 98.071949 L 81.802824 97.722066 L 81.746554 97.373354 L 81.690244 97.025794 L 81.633892 96.679366 L 81.577498 96.334052 L 81.521060 95.989834 L 81.464578 95.646694 L 81.408051 95.304614 L 81.351478 94.963577 L 81.294858 94.623564 L 81.238189 94.284560 L 81.181472 93.946545 L 81.124704 93.609505 L 81.067885 93.273421 L 81.011013 92.938277 L 80.954088 92.604057 L 80.897109 92.270744 L 80.840074 91.938323 L 80.782982 91.606777 L 80.725832 91.276090 L 80.668623 90.946247 L 80.611353 90.617232 L 80.554022 90.289030 L 80.496628 89.961626 L 80.439170 89.635004 L 80.381646 89.309149 L 80.324056 88.984047 L 80.266397 88.659682 L 80.208670 88.336041 L 80.150872 88.013108 L 80.093001 87.690869 L 80.035058 87.369310 L 79.977039 87.048417 L 79.918944 86.728175 L 79.860772 86.408571 L 79.802521 86.089590 L 79.744189 85.771220 L 79.685775 85.453445 L 79.627278 85.136254 L 79.568695 84.819632 L 79.510027 84.503565 L 79.451270 84.188041 L 79.392423 83.873047 L 79.333485 83.558569 L 79.274455 83.244593 L 79.215330 82.931109 L 79.156109 82.618101 L 79.096790 82.305558 L 79.037372 81.993466 L 78.977853 81.681814 L 78.918231 81.370588 L 78.858504 81.059775 L 78.798672 80.749365 L 78.738731 80.439343 L 78.678681 80.129698 L 78.618519 79.820417 L 78.558244 79.511488 L 78.497854 79.202899 L 78.437347 78.894638 L 78.376721 78.586693 L 78.315974 78.279051 L 78.255105 77.971701 L 78.194111 77.664630 L 78.132990 77.357827 L 78.071741 77.051281 L 78.010361 76.744978 L 77.948850 76.438907 L 77.887203 76.133058 L 77.825420 75.827416 L 77.763498 75.521973 L 77.701436 75.216714 L 77.639231 74.911629 L 77.576881 74.606707 L 77.514383 74.301935 L 77.451737 73.997302 L 77.388939 73.692797 L 77.325987 73.388408 L 77.262880 73.084124 L 77.199614 72.779932 L 77.136187 72.475822 L 77.072598 72.171782 L 77.008844 71.867801 L 76.944922 71.563867 L 76.880830 71.259969 L 76.816566 70.956095 L 76.752126 70.652234 L 76.687510 70.348375 L 76.622714 70.044506 L 76.557735 69.740615 L 76.492572 69.436692 L 76.427221 69.132724 L 76.361680 68.828701 L 76.295947 68.524611 L 76.230018 68.220442 L 76.163891 67.916183 L 76.097563 67.611823 L 76.031032 67.307350 L 75.964294 67.002753 L 75.897347 66.698019 L 75.830188 66.393138 L 75.762815 66.088097 L 75.695223 65.782886 L 75.627410 65.477493 L 75.559374 65.171906 L 75.491111 64.866113 L 75.422618 64.560102 L 75.353893 64.253863 L 75.284931 63.947382 L 75.215730 63.640649 L 75.146286 63.333651 L 75.076597 63.026377 L 75.006659 62.718814 L 74.936468 62.410951 L 74.866022 62.102776 L 74.795316 61.794276 L 74.724349 61.485439 L 74.653115 61.176254 L 74.581611 60.866708 L 74.509835 60.556788 L 74.437782 60.246483 L 74.365448 59.935780 L 74.292831 59.624666 L 74.219925 59.313130 L 74.146728 59.001158 L 74.073235 58.688737 L 73.999443 58.375856 L 73.925348 58.062501 L 73.850945 57.748659 L 73.776231 57.434318 L 73.701201 57.119464 L 73.625851 56.804085 L 73.550178 56.488166 L 73.474176 56.171696 L 73.397842 55.854660 L 73.321171 55.537045 L 73.244159 55.218837 L 73.166800 54.900024 L 73.089092 54.580591 L 73.011028 54.260524 L 72.932605 53.939809 L 72.853817 53.618433 L 72.774659 53.296381 L 72.695128 52.973638 L 72.615217 52.650192 L 72.534922 52.326026 L 72.454238 52.001128 L 72.373159 51.675480 L 72.291681 51.349070 L 72.209797 51.021882 L 72.127504 50.693901 L 72.044794 50.365111 L 71.961662 50.035498 L 71.878104 49.705046 L 71.794113 49.373738 L 71.709683 49.041560 L 71.624809 48.708496 L 71.539484 48.374529 L 71.453703 48.039643 L 71.367459 47.703822 L 71.280747 47.367049 L 71.193558 47.029307 L 71.105889 46.690580 L 71.017731 46.350851 L 70.929078 46.010101 L 70.839924 45.668315 L 70.750261 45.325474 L 70.660083 44.981561 L 70.569383 44.636557 L 70.478152 44.290444 L 70.386386 43.943204 L 70.294075 43.594819 L 70.201212 43.245270 L 70.107790 42.894537 L 70.013800 42.542601 L 69.919236 42.189444 L 69.824089 41.835045 L 69.728350 41.479385 L 69.632013 41.122443 L 69.535067 40.764199 L 69.437506 40.404633 L 69.339319 40.043723 L 69.240498 39.681449 L 69.141035 39.317789 L 69.040920 38.952721 L 68.940144 38.586225 L 68.838697 38.218276 L 68.736570 37.848854 L 68.633753 37.477935 L 68.530236 37.105497 L 68.426009 36.731515 L 68.321062 36.355966 L 68.215385 35.978827 L 68.108966 35.600073 L 68.001795 35.219680 L 67.893861 34.837622 L 67.785152 34.453874 L 67.675658 34.068411 L 67.565367 33.681207 L 67.454266 33.292234 L 67.342345 32.901468 L 67.229590 32.508880 L 67.115989 32.114443 L 67.001529 31.718129 L 66.886198 31.319910 L 66.769982 30.919758 L 66.652869 30.517642 L 66.534843 30.113535 L 66.415892 29.707404 L 66.296000 29.299221 L 66.175155 28.888955 L 66.053340 28.476573 L 65.930541 28.062045 L 65.806743 27.645337 L 65.681930 27.226418 L 65.556086 26.805253 L 65.429195 26.381810 L 65.301240 25.956053 L 65.172204 25.527947 L 65.042071 25.097458 L 64.910823 24.664549 L 64.778441 24.229184 L 64.644908 23.791325 L 64.510205 23.350935 L 64.374313 22.907975 L 64.237213 22.462406 L 64.098884 22.014188 L 63.959307 21.563281 L 63.818461 21.109644 L 63.676325 20.653236 L 63.532878 20.194013 L 63.388097 19.731933 L 63.241960 19.266951 L 63.094444 18.799023 L 62.945526 18.328104 L 62.795183 17.854147 L 62.643389 17.377104 L 62.490120 16.896930 L 62.335350 16.413573 L 62.179053 15.926985 L 62.021204 15.437116 L 61.861773 14.943913 L 61.700735 14.447325 L 61.538059 13.947298 L 61.373718 13.443778 L 61.207682 12.936708 L 61.039920 12.426034 L 60.870401 11.911698 L 60.699093 11.393640 L 60.525964 10.871802 L 60.350981 10.346123 L 60.200884 9.896711" fill="none" id="tattoo-path-ae2e5a0b5c45bba4" stroke="#000000" stroke-linecap="round" stroke-linejoin="round" stroke-width="1.200000"/>
  <path clip-path="url(#tattoo-band-layer-clip)" d="M 32.775793 122.424216 L 32.750781 122.104577 L 32.710336 121.549622 L 32.673051 120.997604 L 32.638873 120.448503 L 32.607753 119.902297 L 32.579642 119.358966 L 32.554491 118.818488 L 32.532253 118.280842 L 32.512882 117.746007 L 32.496332 117.213962 L 32.482560 116.684685 L 32.471520 116.158154 L 32.463171 115.634349 L 32.457471 115.113249 L 32.454379 114.594831 L 32.453855 114.079076 L 32.455859 113.565960 L 32.460353 113.055464 L 32.467299 112.547566 L 32.476661 112.042245 L 32.488402 111.539480 L 32.502486 111.039250 L 32.518879 110.541534 L 32.537547 110.046311 L 32.558457 109.553561 L 32.581575 109.063262 L 32.606871 108.575394 L 32.634312 108.089936 L 32.663868 107.606869 L 32.695508 107.126171 L 32.729205 106.647822 L 32.764928 106.171802 L 32.802649 105.698091 L 32.842342 105.226670 L 32.883978 104.757517 L 32.927532 104.290614 L 32.972977 103.825940 L 33.020288 103.363477 L 33.069441 102.903204 L 33.120410 102.445103 L 33.173172 101.989153 L 33.227705 101.535337 L 33.283984 101.083635 L 33.341988 100.634028 L 33.401694 100.186498 L 33.463083 99.741025 L 33.526131 99.297592 L 33.590820 98.856179 L 33.657129 98.416770 L 33.725038 97.979345 L 33.794528 97.543887 L 33.865581 97.110378 L 33.938177 96.678799 L 34.012300 96.249135 L 34.087932 95.821366 L 34.165055 95.395476 L 34.243653 94.971447 L 34.323709 94.549263 L 34.405207 94.128906 L 34.488132 93.710360 L 34.572468 93.293608 L 34.658200 92.878632 L 34.745314 92.465418 L 34.833795 92.053948 L 34.923630 91.644207 L 35.014804 91.236178 L 35.107305 90.829845 L 35.201119 90.425193 L 35.296234 90.022206 L 35.392637 89.620868 L 35.490317 89.221164 L 35.589260 88.823079 L 35.689457 88.426597 L 35.790895 88.031703 L 35.893564 87.638383 L 35.997453 87.246622 L 36.102552 86.856405 L 36.208850 86.467717 L 36.316338 86.080544 L 36.425005 85.694872 L 36.534844 85.310687 L 36.645843 84.927974 L 36.757996 84.546719 L 36.871292 84.166909 L 36.985723 83.788531 L 37.101282 83.411569 L 37.217961 83.036012 L 37.335751 82.661845 L 37.454645 82.289056 L 37.574637 81.917631 L 37.695718 81.547557 L 37.817882 81.178822 L 37.941123 80.811412 L 38.065433 80.445315 L 38.190808 80.080519 L 38.317240 79.717010 L 38.444724 79.354777 L 38.573254 78.993807 L 38.702826 78.634089 L 38.833433 78.275610 L 38.965070 77.918358 L 39.097733 77.562322 L 39.231418 77.207490 L 39.366118 76.853850 L 39.501832 76.501391 L 39.638553 76.150101 L 39.776278 75.799970 L 39.915003 75.450985 L 40.054726 75.103137 L 40.195441 74.756414 L 40.337146 74.410804 L 40.479839 74.066298 L 40.623514 73.722885 L 40.768171 73.380554 L 40.913807 73.039295 L 41.060418 72.699097 L 41.208002 72.359951 L 41.356558 72.021845 L 41.506084 71.684770 L 41.656576 71.348715 L 41.808035 71.013672 L 41.960457 70.679630 L 42.113842 70.346579 L 42.268189 70.014511 L 42.423496 69.683414 L 42.579762 69.353280 L 42.736986 69.024100 L 42.895168 68.695865 L 43.054307 68.368564 L 43.214402 68.042189 L 43.375454 67.716732 L 43.537461 67.392183 L 43.700425 67.068533 L 43.864345 66.745774 L 44.029221 66.423896 L 44.195054 66.102893 L 44.361844 65.782754 L 44.529592 65.463472 L 44.698298 65.145038 L 44.867964 64.827445 L 45.038590 64.510683 L 45.210178 64.194746 L 45.382728 63.879624 L 45.556243 63.565311 L 45.730723 63.251798 L 45.906171 62.939077 L 46.082587 62.627142 L 46.259975 62.315984 L 46.438335 62.005596 L 46.617671 61.695970 L 46.797983 61.387100 L 46.979276 61.078978 L 47.161550 60.771597 L 47.344810 60.464949 L 47.529056 60.159029 L 47.714293 59.853828 L 47.900524 59.549341 L 48.087751 59.245560 L 48.275977 58.942478 L 48.465207 58.640090 L 48.655442 58.338388 L 48.846688 58.037366 L 49.038948 57.737018 L 49.232225 57.437337 L 49.426523 57.138318 L 49.621847 56.839953 L 49.818201 56.542238 L 50.015588 56.245166 L 50.214014 55.948731 L 50.413483 55.652927 L 50.613999 55.357749 L 50.815568 55.063191 L 51.018194 54.769247 L 51.221882 54.475912 L 51.426637 54.183181 L 51.632466 53.891047 L 51.839372 53.599507 L 52.047362 53.308554 L 52.256441 53.018183 L 52.466614 52.728390 L 52.677889 52.439169 L 52.890270 52.150516 L 53.103765 51.862425 L 53.318378 51.574893 L 53.534117 51.287914 L 53.750988 51.001484 L 53.968998 50.715598 L 54.188153 50.430252 L 54.408460 50.145442 L 54.629927 49.861163 L 54.852559 49.577412 L 55.076366 49.294183 L 55.301354 49.011474 L 55.527530 48.729280 L 55.754902 48.447598 L 55.983479 48.166423 L 56.213267 47.885752 L 56.444276 47.605582 L 56.676512 47.325909 L 56.909985 47.046729 L 57.144703 46.768040 L 57.380675 46.489838 L 57.617909 46.212120 L 57.856414 45.934883 L 58.096199 45.658124 L 58.337274 45.381840 L 58.579647 45.106029 L 58.823328 44.830687 L 59.068327 44.555813 L 59.314654 44.281403 L 59.562317 44.007455 L 59.811328 43.733968 L 60.061697 43.460939 L 60.313433 43.188365 L 60.566548 42.916246 L 60.821052 42.644578 L 61.076955 42.373361 L 61.334269 42.102593 L 61.593005 41.832271 L 61.853174 41.562395 L 62.114787 41.292963 L 62.377856 41.023975 L 62.642393 40.755428 L 62.908410 40.487323 L 63.175918 40.219657 L 63.444930 39.952431 L 63.715459 39.685644 L 63.987517 39.419295 L 64.261116 39.153383 L 64.536270 38.887910 L 64.812992 38.622874 L 65.091295 38.358275 L 65.371192 38.094113 L 65.652697 37.830390 L 65.935824 37.567105 L 66.220587 37.304258 L 66.507000 37.041851 L 66.795078 36.779885 L 67.084834 36.518359 L 67.376285 36.257276 L 67.669444 35.996636 L 67.964327 35.736442 L 68.260949 35.476694 L 68.559326 35.217394 L 68.859473 34.958544 L 69.161406 34.700147 L 69.465143 34.442204 L 69.770698 34.184719 L 70.078089 33.927692 L 70.387331 33.671128 L 70.698444 33.415029 L 71.011442 33.159398 L 71.326345 32.904239 L 71.643169 32.649554 L 71.961932 32.395349 L 72.282653 32.141626 L 72.605350 31.888390 L 72.930041 31.635644 L 73.256746 31.383395 L 73.585482 31.131645 L 73.916270 30.880401 L 74.249129 30.629667 L 74.584079 30.379448 L 74.921139 30.129752 L 75.260330 29.880582 L 75.601673 29.631946 L 75.945188 29.383849 L 76.290896 29.136299 L 76.638818 28.889302 L 76.988976 28.642865 L 77.341392 28.396996 L 77.696088 28.151703 L 78.053086 27.906993 L 78.412408 27.662874 L 78.774077 27.419356 L 79.138118 27.176447 L 79.504552 26.934156 L 79.873404 26.692494 L 80.244697 26.451468 L 80.618457 26.211090 L 80.994707 25.971371 L 81.373472 25.732320 L 81.754777 25.493950 L 82.138649 25.256271 L 82.525112 25.019296 L 82.914192 24.783037 L 83.305917 24.547506 L 83.700312 24.312716 L 84.097405 24.078682 L 84.497222 23.845416 L 84.899793 23.612934 L 85.305143 23.381249 L 85.713302 23.150377 L 86.124298 22.920334 L 86.538160 22.691136 L 86.954918 22.462798 L 87.374600 22.235339 L 87.797237 22.008775 L 88.222859 21.783125 L 88.651496 21.558407 L 89.083179 21.334641 L 89.517940 21.111845 L 89.955810 20.890040 L 90.396821 20.669247 L 90.841006 20.449487 L 91.288396 20.230782 L 91.739025 20.013155 L 92.192926 19.796627 L 92.650134 19.581225 L 93.110681 19.366970 L 93.574602 19.153890 L 94.041933 18.942009 L 94.512708 18.731354 L 94.986962 18.521952 L 95.464732 18.313831 L 95.946053 18.107020 L 96.430963 17.901548 L 96.919498 17.697446 L 97.411695 17.494744 L 97.907592 17.293474 L 98.407227 17.093668 L 98.910639 16.895362 L 99.417866 16.698588 L 99.928947 16.503382 L 100.443921 16.309781 L 100.962829 16.117821 L 101.485711 15.927542 L 101.787579 15.819512" fill="none" id="tattoo-path-7ba0d120cbe72d5d" stroke="#000000" stroke-linecap="round" stroke-linejoin="round" stroke-width="1.000000"/>
  <path clip-path="url(#tattoo-band-layer-clip)" d="M 131.060025 97.821205 L 130.965103 97.515264 L 130.796947 96.984457 L 130.626517 96.457328 L 130.453858 95.933849 L 130.279010 95.413991 L 130.102015 94.897726 L 129.922914 94.385029 L 129.741745 93.875869 L 129.558547 93.370222 L 129.373358 92.868057 L 129.186214 92.369350 L 128.997153 91.874072 L 128.806208 91.382196 L 128.613414 90.893695 L 128.418806 90.408544 L 128.222416 89.926714 L 128.024276 89.448179 L 127.824418 88.972914 L 127.622873 88.500891 L 127.419670 88.032085 L 127.214840 87.566470 L 127.008411 87.104019 L 126.800411 86.644708 L 126.590867 86.188511 L 126.379807 85.735402 L 126.167257 85.285357 L 125.953242 84.838350 L 125.737787 84.394357 L 125.520918 83.953353 L 125.302657 83.515314 L 125.083028 83.080215 L 124.862055 82.648032 L 124.639758 82.218742 L 124.416161 81.792321 L 124.191283 81.368745 L 123.965147 80.947991 L 123.737772 80.530036 L 123.509177 80.114857 L 123.279383 79.702432 L 123.048408 79.292736 L 122.816270 78.885750 L 122.582988 78.481449 L 122.348578 78.079813 L 122.113058 77.680819 L 121.876444 77.284446 L 121.638752 76.890672 L 121.399999 76.499477 L 121.160200 76.110839 L 120.919369 75.724738 L 120.677521 75.341153 L 120.434671 74.960063 L 120.190832 74.581449 L 119.946018 74.205290 L 119.700242 73.831566 L 119.453517 73.460259 L 119.205855 73.091348 L 118.957268 72.724814 L 118.707768 72.360639 L 118.457367 71.998803 L 118.206076 71.639287 L 117.953905 71.282074 L 117.700865 70.927145 L 117.446967 70.574483 L 117.192219 70.224068 L 116.936633 69.875883 L 116.680217 69.529911 L 116.422980 69.186135 L 116.164931 68.844538 L 115.906079 68.505102 L 115.646431 68.167810 L 115.385997 67.832647 L 115.124784 67.499595 L 114.862798 67.168639 L 114.600048 66.839763 L 114.336541 66.512950 L 114.072283 66.188185 L 113.807281 65.865453 L 113.541541 65.544738 L 113.275069 65.226024 L 113.007872 64.909299 L 112.739954 64.594545 L 112.471322 64.281749 L 112.201981 63.970897 L 111.931935 63.661973 L 111.661189 63.354965 L 111.389749 63.049858 L 111.117618 62.746638 L 110.844801 62.445291 L 110.571303 62.145805 L 110.297126 61.848167 L 110.022274 61.552362 L 109.746751 61.258378 L 109.470561 60.966203 L 109.193707 60.675824 L 108.916191 60.387228 L 108.638016 60.100403 L 108.359186 59.815337 L 108.079702 59.532019 L 107.799568 59.250435 L 107.518784 58.970576 L 107.237353 58.692429 L 106.955278 58.415983 L 106.672560 58.141226 L 106.389199 57.868149 L 106.105199 57.596740 L 105.820560 57.326988 L 105.535283 57.058883 L 105.249370 56.792414 L 104.962821 56.527572 L 104.675636 56.264345 L 104.387818 56.002725 L 104.099365 55.742702 L 103.810279 55.484265 L 103.520559 55.227406 L 103.230206 54.972115 L 102.939220 54.718382 L 102.647600 54.466200 L 102.355347 54.215558 L 102.062459 53.966449 L 101.768937 53.718863 L 101.474779 53.472792 L 101.179986 53.228228 L 100.884555 52.985162 L 100.588487 52.743588 L 100.291780 52.503495 L 99.994432 52.264878 L 99.696443 52.027728 L 99.397812 51.792038 L 99.098536 51.557800 L 98.798614 51.325007 L 98.498044 51.093653 L 98.196825 50.863730 L 97.894955 50.635231 L 97.592431 50.408150 L 97.289251 50.182480 L 96.985414 49.958216 L 96.680916 49.735350 L 96.375756 49.513876 L 96.069931 49.293790 L 95.763439 49.075083 L 95.456276 48.857752 L 95.148440 48.641791 L 94.839927 48.427193 L 94.530736 48.213954 L 94.220863 48.002069 L 93.910304 47.791532 L 93.599057 47.582339 L 93.287119 47.374484 L 92.974485 47.167964 L 92.661152 46.962774 L 92.347117 46.758908 L 92.032376 46.556364 L 91.716925 46.355137 L 91.400761 46.155223 L 91.083879 45.956618 L 90.766276 45.759318 L 90.447947 45.563321 L 90.128888 45.368622 L 89.809096 45.175217 L 89.488564 44.983105 L 89.167290 44.792282 L 88.845269 44.602745 L 88.522496 44.414491 L 88.198967 44.227518 L 87.874676 44.041822 L 87.549619 43.857403 L 87.223791 43.674257 L 86.897187 43.492382 L 86.569802 43.311777 L 86.241632 43.132440 L 85.912670 42.954368 L 85.582911 42.777561 L 85.252350 42.602017 L 84.920983 42.427734 L 84.588802 42.254712 L 84.255803 42.082950 L 83.921980 41.912446 L 83.587327 41.743201 L 83.251839 41.575213 L 82.915510 41.408482 L 82.578333 41.243007 L 82.240303 41.078790 L 81.901413 40.915828 L 81.561658 40.754124 L 81.221031 40.593676 L 80.879526 40.434486 L 80.537136 40.276554 L 80.193856 40.119881 L 79.849678 39.964467 L 79.504596 39.810314 L 79.158604 39.657423 L 78.811694 39.505795 L 78.463860 39.355432 L 78.115095 39.206335 L 77.765392 39.058506 L 77.414744 38.911947 L 77.063144 38.766661 L 76.710585 38.622648 L 76.357059 38.479913 L 76.002560 38.338457 L 75.647080 38.198284 L 75.290611 38.059395 L 74.933146 37.921795 L 74.574678 37.785486 L 74.215199 37.650472 L 73.854701 37.516757 L 73.493176 37.384343 L 73.130617 37.253236 L 72.767016 37.123440 L 72.402364 36.994957 L 72.036654 36.867794 L 71.669878 36.741955 L 71.302027 36.617444 L 70.933094 36.494266 L 70.563069 36.372427 L 70.191945 36.251933 L 69.819714 36.132788 L 69.446365 36.014998 L 69.071892 35.898570 L 68.696286 35.783510 L 68.319537 35.669823 L 67.941638 35.557517 L 67.562579 35.446598 L 67.182351 35.337073 L 66.800945 35.228950 L 66.418353 35.122235 L 66.034566 35.016936 L 65.649574 34.913062 L 65.263368 34.810620 L 64.875938 34.709618 L 64.487277 34.610065 L 64.097374 34.511970 L 63.706219 34.415341 L 63.313804 34.320188 L 62.920118 34.226520 L 62.525153 34.134346 L 62.128899 34.043677 L 61.731345 33.954522 L 61.332482 33.866893 L 60.932301 33.780799 L 60.530791 33.696251 L 60.127943 33.613261 L 59.723746 33.531840 L 59.318191 33.452000 L 58.911267 33.373751 L 58.502964 33.297108 L 58.093273 33.222081 L 57.682183 33.148685 L 57.269683 33.076931 L 56.855764 33.006833 L 56.440415 32.938405 L 56.023626 32.871660 L 55.605386 32.806613 L 55.185684 32.743279 L 54.764511 32.681671 L 54.341856 32.621805 L 53.917708 32.563697 L 53.492056 32.507363 L 53.064891 32.452817 L 52.636201 32.400077 L 52.205975 32.349160 L 51.774203 32.300082 L 51.340874 32.252861 L 50.905977 32.207515 L 50.469503 32.164061 L 50.031438 32.122519 L 49.591774 32.082906 L 49.150499 32.045243 L 48.707602 32.009549 L 48.263072 31.975844 L 47.816899 31.944147 L 47.369072 31.914481 L 46.919579 31.886866 L 46.468410 31.861323 L 46.015555 31.837875 L 45.561002 31.816545 L 45.104740 31.797353 L 44.646759 31.780325 L 44.187047 31.765484 L 43.725595 31.752853 L 43.262391 31.742458 L 42.797425 31.734323 L 42.330686 31.728474 L 41.862163 31.724937 L 41.391846 31.723738 L 40.919724 31.724905 L 40.445787 31.728464 L 39.970024 31.734444 L 39.492426 31.742872 L 39.012981 31.753779 L 38.531679 31.767193 L 38.048512 31.783145 L 37.563467 31.801665 L 37.076536 31.822784 L 36.587709 31.846533 L 36.096975 31.872946 L 35.604326 31.902054 L 35.109752 31.933892 L 34.613243 31.968492 L 34.114790 32.005891 L 33.614384 32.046122 L 33.112017 32.089222 L 32.607678 32.135227 L 32.101361 32.184174 L 31.593056 32.236101 L 31.082755 32.291046 L 30.570451 32.349048 L 30.056134 32.410148 L 29.539798 32.474385 L 29.021435 32.541800 L 28.501039 32.612436 L 27.978602 32.686334 L 27.454117 32.763539 L 26.927578 32.844093 L 26.398980 32.928042 L 25.868316 33.015432 L 25.335580 33.106307 L 24.800769 33.200717 L 24.263876 33.298707 L 23.724898 33.400328 L 23.183831 33.505628 L 22.640670 33.614658 L 22.095412 33.727468 L 21.782119 33.794232" fill="none" id="tattoo-path-c3e9ef5fe1031a9b" stroke="#000000" stroke-linecap="round" stroke-linejoin="round" stroke-width="0.800000"/>
  <circle cx="72.500000" cy="72.500000" fill="none" id="tattoo-boundary-da45c61d325de3be" r="64.900000" stroke="#000000" stroke-width="2.200000"/>
</svg>
