<svg height="145.000000mm" version="1.1" viewBox="0 0 145.000000 145.000000" width="145.000000mm" xmlns="http://www.w3.org/2000/svg">
  <defs>
    <clipPath clipPathUnits="userSpaceOnUse" id="tattoo-band-layer-clip">
      <circle cx="72.500000" cy="72.500000" r="63.800000"/>
    </clipPath>
  </defs>
  <path clip-path="url(#tattoo-band-layer-clip)" d="M 16.487909 103.046451 L 16.912585 102.892570 L 17.433434 102.703145 L 17.950098 102.514555 L 18.462644 102.326792 L 18.971139 102.139846 L 19.475650 101.953709 L 19.976241 101.768370 L 20.472975 101.583820 L 20.965914 101.400051 L 21.455120 101.217053 L 21.940651 101.034818 L 22.422566 100.853336 L 22.900924 100.672598 L 23.375779 100.492596 L 23.847187 100.313320 L 24.315203 100.134763 L 24.779879 99.956915 L 25.241269 99.779767 L 25.699423 99.603312 L 26.154391 99.427540 L 26.606223 99.252443 L 27.054968 99.078012 L 27.500673 98.904241 L 27.943385 98.731119 L 28.383149 98.558639 L 28.820012 98.386793 L 29.254017 98.215573 L 29.685208 98.044970 L 30.113628 97.874977 L 30.539319 97.705585 L 30.962322 97.536788 L 31.382678 97.368577 L 31.800427 97.200944 L 32.215608 97.033881 L 32.628260 96.867382 L 33.038421 96.701438 L 33.446127 96.536042 L 33.851417 96.371187 L 34.254325 96.206865 L 34.654888 96.043068 L 35.053140 95.879790 L 35.449116 95.717024 L 35.842849 95.554761 L 36.234374 95.392996 L 36.623722 95.231720 L 37.010926 95.070928 L 37.396018 94.910611 L 37.779029 94.750763 L 38.159990 94.591378 L 38.538931 94.432447 L 38.915881 94.273966 L 39.290871 94.115926 L 39.663929 93.958321 L 40.035083 93.801145 L 40.404363 93.644391 L 40.771795 93.488052 L 41.137406 93.332123 L 41.501224 93.176596 L 41.863275 93.021465 L 42.223585 92.866724 L 42.582180 92.712366 L 42.939085 92.558385 L 43.294325 92.404776 L 43.647925 92.251531 L 43.999909 92.098645 L 44.350301 91.946112 L 44.699124 91.793925 L 45.046402 91.642079 L 45.392158 91.490567 L 45.736415 91.339384 L 46.079195 91.188523 L 46.420519 91.037979 L 46.760410 90.887746 L 47.098890 90.737818 L 47.435979 90.588190 L 47.771698 90.438855 L 48.106069 90.289808 L 48.439111 90.141043 L 48.770844 89.992555 L 49.101289 89.844337 L 49.430466 89.696385 L 49.758392 89.548693 L 50.085089 89.401255 L 50.410574 89.254066 L 50.734867 89.107120 L 51.057985 88.960412 L 51.379948 88.813937 L 51.700773 88.667688 L 52.020478 88.521661 L 52.339081 88.375851 L 52.656599 88.230251 L 52.973049 88.084858 L 53.288449 87.939664 L 53.602815 87.794666 L 53.916164 87.649858 L 54.228513 87.505234 L 54.539877 87.360790 L 54.850274 87.216520 L 55.159718 87.072420 L 55.468226 86.928484 L 55.775813 86.784706 L 56.082496 86.641082 L 56.388288 86.497608 L 56.693206 86.354276 L 56.997264 86.211084 L 57.300478 86.068025 L 57.602861 85.925094 L 57.904429 85.782287 L 58.205196 85.639599 L 58.505177 85.497024 L 58.804385 85.354557 L 59.102835 85.212195 L 59.400540 85.069931 L 59.697514 84.927760 L 59.993772 84.785678 L 60.289326 84.643680 L 60.584190 84.501761 L 60.878378 84.359916 L 61.171902 84.218140 L 61.464776 84.076428 L 61.757012 83.934775 L 62.048625 83.793177 L 62.339626 83.651628 L 62.630028 83.510123 L 62.919844 83.368658 L 63.209086 83.227228 L 63.497767 83.085828 L 63.785899 82.944453 L 64.073494 82.803098 L 64.360565 82.661759 L 64.647124 82.520429 L 64.933182 82.379105 L 65.218752 82.237782 L 65.503845 82.096455 L 65.788473 81.955118 L 66.072648 81.813767 L 66.356382 81.672398 L 66.639686 81.531004 L 66.922572 81.389582 L 67.205050 81.248126 L 67.487133 81.106631 L 67.768832 80.965093 L 68.050157 80.823506 L 68.331121 80.681866 L 68.611734 80.540167 L 68.892008 80.398405 L 69.171952 80.256575 L 69.451580 80.114671 L 69.730900 79.972689 L 70.009925 79.830624 L 70.288665 79.688470 L 70.567131 79.546223 L 70.845334 79.403878 L 71.123283 79.261429 L 71.400991 79.118871 L 71.678468 78.976199 L 71.955724 78.833409 L 72.232770 78.690494 L 72.509616 78.547451 L 72.786273 78.404272 L 73.062752 78.260955 L 73.339062 78.117492 L 73.615215 77.973880 L 73.891220 77.830112 L 74.167089 77.686184 L 74.442831 77.542089 L 74.718457 77.397824 L 74.993977 77.253381 L 75.269402 77.108757 L 75.544741 76.963945 L 75.820006 76.818941 L 76.095206 76.673738 L 76.370351 76.528331 L 76.645452 76.382714 L 76.920520 76.236883 L 77.195564 76.090831 L 77.470594 75.944553 L 77.745622 75.798042 L 78.020656 75.651295 L 78.295708 75.504303 L 78.570788 75.357063 L 78.845905 75.209568 L 79.121070 75.061811 L 79.396294 74.913788 L 79.671586 74.765493 L 79.946958 74.616919 L 80.222418 74.468060 L 80.497978 74.318910 L 80.773648 74.169464 L 81.049438 74.019714 L 81.325358 73.869655 L 81.601419 73.719281 L 81.877632 73.568585 L 82.154006 73.417561 L 82.430552 73.266203 L 82.707281 73.114503 L 82.984203 72.962457 L 83.261328 72.810056 L 83.538667 72.657294 L 83.816231 72.504165 L 84.094031 72.350662 L 84.372076 72.196779 L 84.650378 72.042507 L 84.928947 71.887841 L 85.207794 71.732774 L 85.486930 71.577298 L 85.766366 71.421406 L 86.046113 71.265091 L 86.326180 71.108346 L 86.606581 70.951164 L 86.887325 70.793537 L 87.168423 70.635457 L 87.449888 70.476918 L 87.731729 70.317912 L 88.013959 70.158430 L 88.296588 69.998466 L 88.579628 69.838010 L 88.863090 69.677057 L 89.146986 69.515596 L 89.431327 69.353621 L 89.716125 69.191123 L 90.001392 69.028094 L 90.287140 68.864525 L 90.573379 68.700409 L 90.860123 68.535735 L 91.147383 68.370497 L 91.435172 68.204685 L 91.723501 68.038289 L 92.012382 67.871303 L 92.301829 67.703715 L 92.591853 67.535518 L 92.882467 67.366701 L 93.173683 67.197256 L 93.465515 67.027173 L 93.757975 66.856442 L 94.051076 66.685054 L 94.344830 66.512998 L 94.639252 66.340266 L 94.934354 66.166846 L 95.230150 65.992729 L 95.526653 65.817904 L 95.823876 65.642360 L 96.121833 65.466088 L 96.420539 65.289076 L 96.720006 65.111314 L 97.020249 64.932790 L 97.321283 64.753493 L 97.623121 64.573413 L 97.925777 64.392536 L 98.229267 64.210853 L 98.533606 64.028350 L 98.838807 63.845017 L 99.144886 63.660841 L 99.451858 63.475809 L 99.759738 63.289909 L 100.068542 63.103129 L 100.378286 62.915456 L 100.688985 62.726877 L 101.000654 62.537378 L 101.313311 62.346946 L 101.626972 62.155568 L 101.941652 61.963230 L 102.257369 61.769918 L 102.574139 61.575618 L 102.891980 61.380314 L 103.210908 61.183994 L 103.530941 60.986642 L 103.852096 60.788242 L 104.174392 60.588780 L 104.497846 60.388241 L 104.822476 60.186607 L 105.148301 59.983864 L 105.475340 59.779995 L 105.803611 59.574984 L 106.133133 59.368814 L 106.463926 59.161467 L 106.796009 58.952928 L 107.129403 58.743177 L 107.464126 58.532197 L 107.800200 58.319970 L 108.137645 58.106478 L 108.476481 57.891702 L 108.816731 57.675623 L 109.158415 57.458221 L 109.501555 57.239476 L 109.846172 57.019370 L 110.192290 56.797881 L 110.539930 56.574988 L 110.889115 56.350671 L 111.239870 56.124909 L 111.592216 55.897678 L 111.946177 55.668958 L 112.301779 55.438726 L 112.659045 55.206958 L 113.018000 54.973632 L 113.378670 54.738723 L 113.741079 54.502208 L 114.105253 54.264061 L 114.471220 54.024258 L 114.839004 53.782774 L 115.208635 53.539581 L 115.580138 53.294655 L 115.953541 53.047967 L 116.328874 52.799491 L 116.706164 52.549198 L 117.085440 52.297060 L 117.466733 52.043048 L 117.850071 51.787132 L 118.235486 51.529282 L 118.623009 51.269468 L 119.012670 51.007659 L 119.404501 50.743821 L 119.798536 50.477923 L 120.194807 50.209932 L 120.593346 49.939814 L 120.994189 49.667534 L 121.397370 49.393058 L 121.802923 49.116348 L 122.210884 48.837370 L 122.621290 48.556085 L 123.034177 48.272455 L 123.449583 47.986442 L 123.867546 47.698006 L 124.288104 47.407106 L 124.711296 47.113701 L 125.137163 46.817749 L 125.565746 46.519208 L 125.997084 46.218031 L 126.431222 45.914176 L 126.868201 45.607597 L 127.308065 45.298245 L 127.750858 44.986074 L 128.196625 44.671035 L 128.645413 44.353077 L 129.097267 44.032150 L 129.465220 43.770159" fill="none" id="tattoo-path-e1be90140c495569" stroke="#000000" stroke-linecap="round" stroke-linejoin="round" stroke-width="4.800000"/>
  <path clip-path="url(#tattoo-band-layer-clip)" d="M 131.067482 97.803954 L 131.017102 97.755115 L 130.615886 97.368327 L 130.216526 96.985442 L 129.819002 96.606395 L 129.423293 96.231123 L 129.029382 95.859565 L 128.637249 95.491661 L 128.246874 95.127351 L 127.858240 94.766576 L 127.471326 94.409282 L 127.086115 94.055411 L 126.702588 93.704909 L 126.320726 93.357723 L 125.940510 93.013800 L 125.561923 92.673089 L 125.184945 92.335539 L 124.809560 92.001101 L 124.435748 91.669727 L 124.063492 91.341368 L 123.692775 91.015979 L 123.323577 90.693514 L 122.955883 90.373927 L 122.589673 90.057176 L 122.224932 89.743216 L 121.861642 89.432005 L 121.499785 89.123503 L 121.139345 88.817667 L 120.780304 88.514458 L 120.422647 88.213838 L 120.066356 87.915766 L 119.711415 87.620206 L 119.357807 87.327121 L 119.005517 87.036473 L 118.654527 86.748227 L 118.304823 86.462349 L 117.956387 86.178803 L 117.609205 85.897555 L 117.263261 85.618573 L 116.918538 85.341824 L 116.575022 85.067275 L 116.232697 84.794896 L 115.891548 84.524654 L 115.551560 84.256521 L 115.212717 83.990465 L 114.875006 83.726458 L 114.538410 83.464470 L 114.202916 83.204474 L 113.868509 82.946441 L 113.535175 82.690344 L 113.202898 82.436156 L 112.871666 82.183851 L 112.541463 81.933403 L 112.212275 81.684785 L 111.884090 81.437974 L 111.556892 81.192944 L 111.230669 80.949671 L 110.905406 80.708131 L 110.581090 80.468301 L 110.257707 80.230157 L 109.935245 79.993678 L 109.613690 79.758839 L 109.293029 79.525620 L 108.973249 79.293999 L 108.654336 79.063955 L 108.336279 78.835466 L 108.019063 78.608512 L 107.702677 78.383073 L 107.387108 78.159129 L 107.072344 77.936660 L 106.758371 77.715647 L 106.445178 77.496072 L 106.132752 77.277914 L 105.821081 77.061156 L 105.510154 76.845781 L 105.199957 76.631769 L 104.890479 76.419103 L 104.581709 76.207767 L 104.273633 75.997743 L 103.966241 75.789014 L 103.659522 75.581564 L 103.353462 75.375377 L 103.048051 75.170436 L 102.743278 74.966726 L 102.439130 74.764232 L 102.135598 74.562937 L 101.832668 74.362828 L 101.530331 74.163889 L 101.228575 73.966106 L 100.927389 73.769464 L 100.626761 73.573949 L 100.326682 73.379548 L 100.027140 73.186245 L 99.728124 72.994029 L 99.429624 72.802885 L 99.131629 72.612801 L 98.834128 72.423763 L 98.537110 72.235758 L 98.240565 72.048775 L 97.944482 71.862800 L 97.648852 71.677822 L 97.353663 71.493828 L 97.058905 71.310806 L 96.764568 71.128745 L 96.470641 70.947634 L 96.177115 70.767460 L 95.883979 70.588213 L 95.591222 70.409882 L 95.298836 70.232455 L 95.006809 70.055922 L 94.715131 69.880272 L 94.423793 69.705495 L 94.132785 69.531581 L 93.842096 69.358519 L 93.551717 69.186300 L 93.261638 69.014913 L 92.971849 68.844348 L 92.682340 68.674597 L 92.393101 68.505650 L 92.104123 68.337496 L 91.815396 68.170128 L 91.526909 68.003535 L 91.238654 67.837710 L 90.950621 67.672642 L 90.662800 67.508324 L 90.375181 67.344747 L 90.087755 67.181902 L 89.800512 67.019781 L 89.513443 66.858375 L 89.226538 66.697676 L 88.939787 66.537677 L 88.653181 66.378370 L 88.366711 66.219746 L 88.080366 66.061797 L 87.794138 65.904517 L 87.508017 65.747898 L 87.221993 65.591932 L 86.936057 65.436611 L 86.650199 65.281929 L 86.364410 65.127879 L 86.078681 64.974453 L 85.793001 64.821645 L 85.507362 64.669447 L 85.221755 64.517853 L 84.936168 64.366856 L 84.650594 64.216450 L 84.365023 64.066628 L 84.079444 63.917383 L 83.793850 63.768710 L 83.508229 63.620601 L 83.222573 63.473052 L 82.936873 63.326055 L 82.651118 63.179605 L 82.365299 63.033696 L 82.079406 62.888322 L 81.793431 62.743477 L 81.507363 62.599156 L 81.221193 62.455352 L 80.934912 62.312061 L 80.648509 62.169276 L 80.361974 62.026993 L 80.075300 61.885206 L 79.788475 61.743910 L 79.501490 61.603100 L 79.214335 61.462770 L 78.927000 61.322916 L 78.639477 61.183532 L 78.351754 61.044614 L 78.063822 60.906157 L 77.775671 60.768155 L 77.487292 60.630605 L 77.198674 60.493502 L 76.909807 60.356840 L 76.620682 60.220616 L 76.331288 60.084825 L 76.041615 59.949463 L 75.751654 59.814526 L 75.461393 59.680008 L 75.170823 59.545906 L 74.879934 59.412216 L 74.588715 59.278934 L 74.297156 59.146056 L 74.005246 59.013577 L 73.712975 58.881494 L 73.420333 58.749802 L 73.127309 58.618499 L 72.833893 58.487581 L 72.540073 58.357043 L 72.245840 58.226883 L 71.951181 58.097096 L 71.656088 57.967679 L 71.360548 57.838629 L 71.064550 57.709943 L 70.768085 57.581616 L 70.471140 57.453646 L 70.173705 57.326030 L 69.875768 57.198764 L 69.577317 57.071845 L 69.278343 56.945271 L 68.978833 56.819038 L 68.678776 56.693143 L 68.378159 56.567584 L 68.076973 56.442358 L 67.775204 56.317461 L 67.472841 56.192892 L 67.169872 56.068647 L 66.866285 55.944724 L 66.562068 55.821121 L 66.257209 55.697835 L 65.951695 55.574864 L 65.645515 55.452204 L 65.338655 55.329855 L 65.031103 55.207813 L 64.722847 55.086077 L 64.413874 54.964645 L 64.104171 54.843513 L 63.793724 54.722681 L 63.482522 54.602146 L 63.170550 54.481907 L 62.857795 54.361962 L 62.544245 54.242308 L 62.229885 54.122944 L 61.914701 54.003869 L 61.598681 53.885081 L 61.281810 53.766578 L 60.964073 53.648359 L 60.645458 53.530423 L 60.325949 53.412768 L 60.005533 53.295392 L 59.684194 53.178296 L 59.361918 53.061476 L 59.038691 52.944934 L 58.714496 52.828666 L 58.389319 52.712674 L 58.063145 52.596954 L 57.735958 52.481508 L 57.407743 52.366334 L 57.078484 52.251431 L 56.748164 52.136799 L 56.416769 52.022437 L 56.084281 51.908345 L 55.750684 51.794523 L 55.415962 51.680969 L 55.080097 51.567685 L 54.743073 51.454670 L 54.404873 51.341923 L 54.065479 51.229445 L 53.724874 51.117236 L 53.383040 51.005296 L 53.039959 50.893625 L 52.695612 50.782224 L 52.349983 50.671093 L 52.003051 50.560233 L 51.654799 50.449645 L 51.305206 50.339328 L 50.954255 50.229284 L 50.601925 50.119514 L 50.248198 50.010019 L 49.893052 49.900800 L 49.536468 49.791857 L 49.178425 49.683194 L 48.818903 49.574810 L 48.457881 49.466707 L 48.095337 49.358888 L 47.731251 49.251354 L 47.365600 49.144106 L 46.998363 49.037147 L 46.629517 48.930479 L 46.259040 48.824104 L 45.886908 48.718024 L 45.513099 48.612242 L 45.137590 48.506761 L 44.760356 48.401584 L 44.381374 48.296712 L 44.000618 48.192150 L 43.618066 48.087900 L 43.233690 47.983967 L 42.847467 47.880352 L 42.459369 47.777061 L 42.069372 47.674096 L 41.677449 47.571462 L 41.283573 47.469163 L 40.887717 47.367204 L 40.489853 47.265588 L 40.089953 47.164320 L 39.687990 47.063406 L 39.283934 46.962850 L 38.877756 46.862657 L 38.469426 46.762834 L 38.058916 46.663385 L 37.646193 46.564316 L 37.231228 46.465634 L 36.813990 46.367345 L 36.394445 46.269455 L 35.972563 46.171971 L 35.548310 46.074901 L 35.121654 45.978250 L 34.692560 45.882028 L 34.260995 45.786240 L 33.826923 45.690897 L 33.390310 45.596005 L 32.951119 45.501574 L 32.509315 45.407612 L 32.064861 45.314128 L 31.617718 45.221132 L 31.167850 45.128634 L 30.715217 45.036644 L 30.259780 44.945171 L 29.801499 44.854228 L 29.340335 44.763825 L 28.876245 44.673973 L 28.409189 44.584685 L 27.939123 44.495972 L 27.466004 44.407848 L 26.989789 44.320325 L 26.510434 44.233417 L 26.027892 44.147137 L 25.542118 44.061501 L 25.053066 43.976522 L 24.560687 43.892216 L 24.064934 43.808599 L 23.565757 43.725688 L 23.063107 43.643498 L 22.556933 43.562047 L 22.047182 43.481353 L 21.533803 43.401434 L 21.016743 43.322310 L 20.495946 43.244000 L 19.971359 43.166524 L 19.442924 43.089902 L 18.910585 43.014158 L 18.374283 42.939311 L 17.833960 42.865387 L 17.289556 42.792407 L 16.741008 42.720397 L 16.188256 42.649381 L 16.118636 42.640632" fill="none" id="tattoo-path-8950bb841fcb64dd" stroke="#000000" stroke-linecap="round" stroke-linejoin="round" stroke-width="4.200000"/>
  <path clip-path="url(#tattoo-band-layer-clip)" d="M 74.099716 136.279941 L 74.115653 136.251154 L 74.383863 135.762134 L 74.648362 135.275347 L 74.909211 134.790774 L 75.166467 134.308395 L 75.420188 133.828190 L 75.670433 133.350142 L 75.917254 132.874230 L 76.160708 132.400435 L 76.400847 131.928738 L 76.637723 131.459119 L 76.871387 130.991559 L 77.101890 130.526039 L 77.329281 130.062540 L 77.553607 129.601042 L 77.774915 129.141526 L 77.993253 128.683973 L 78.208665 128.228364 L 78.421195 127.774681 L 78.630887 127.322903 L 78.837785 126.873012 L 79.041929 126.424990 L 79.243360 125.978817 L 79.442120 125.534474 L 79.638246 125.091944 L 79.831779 124.651208 L 80.022755 124.212247 L 80.211212 123.775042 L 80.397187 123.339576 L 80.580715 122.905831 L 80.761831 122.473787 L 80.940570 122.043428 L 81.116966 121.614735 L 81.291051 121.187690 L 81.462857 120.762276 L 81.632418 120.338474 L 81.799763 119.916269 L 81.964924 119.495641 L 82.127931 119.076574 L 82.288813 118.659050 L 82.447599 118.243053 L 82.604317 117.828565 L 82.758996 117.415569 L 82.911662 117.004049 L 83.062343 116.593987 L 83.211064 116.185368 L 83.357852 115.778174 L 83.502731 115.372389 L 83.645727 114.967997 L 83.786864 114.564981 L 83.926166 114.163326 L 84.063657 113.763016 L 84.199358 113.364034 L 84.333294 112.966364 L 84.465486 112.569992 L 84.595956 112.174902 L 84.724726 111.781077 L 84.851816 111.388502 L 84.977246 110.997163 L 85.101038 110.607045 L 85.223211 110.218131 L 85.343784 109.830406 L 85.462777 109.443857 L 85.580208 109.058469 L 85.696095 108.674225 L 85.810457 108.291113 L 85.923312 107.909117 L 86.034676 107.528223 L 86.144567 107.148417 L 86.253002 106.769684 L 86.359997 106.392010 L 86.465568 106.015382 L 86.569731 105.639785 L 86.672502 105.265205 L 86.773896 104.891629 L 86.873927 104.519043 L 86.972610 104.147433 L 87.069961 103.776785 L 87.165993 103.407088 L 87.260719 103.038326 L 87.354154 102.670486 L 87.446311 102.303557 L 87.537203 101.937523 L 87.626843 101.572374 L 87.715244 101.208094 L 87.802417 100.844672 L 87.888375 100.482095 L 87.973130 100.120350 L 88.056694 99.759424 L 88.139078 99.399305 L 88.220293 99.039981 L 88.300351 98.681438 L 88.379262 98.323665 L 88.457037 97.966650 L 88.533686 97.610379 L 88.609219 97.254842 L 88.683647 96.900025 L 88.756979 96.545917 L 88.829225 96.192506 L 88.900394 95.839780 L 88.970495 95.487727 L 89.039538 95.136336 L 89.107532 94.785594 L 89.174484 94.435490 L 89.240404 94.086013 L 89.305300 93.737152 L 89.369180 93.388893 L 89.432052 93.041227 L 89.493923 92.694141 L 89.554803 92.347625 L 89.614697 92.001668 L 89.673613 91.656257 L 89.731559 91.311382 L 89.788541 90.967032 L 89.844567 90.623196 L 89.899643 90.279863 L 89.953775 89.937021 L 90.006970 89.594660 L 90.059235 89.252770 L 90.110575 88.911338 L 90.160996 88.570355 L 90.210504 88.229810 L 90.259105 87.889692 L 90.306805 87.549990 L 90.353608 87.210694 L 90.399520 86.871793 L 90.444547 86.533276 L 90.488692 86.195134 L 90.531962 85.857355 L 90.574360 85.519930 L 90.615892 85.182847 L 90.656561 84.846097 L 90.696373 84.509669 L 90.735332 84.173553 L 90.773440 83.837738 L 90.810704 83.502214 L 90.847125 83.166971 L 90.882709 82.831999 L 90.917459 82.497288 L 90.951378 82.162827 L 90.984469 81.828606 L 91.016737 81.494616 L 91.048183 81.160846 L 91.078812 80.827285 L 91.108625 80.493925 L 91.137626 80.160755 L 91.165818 79.827764 L 91.193203 79.494944 L 91.219783 79.162283 L 91.245561 78.829772 L 91.270539 78.497402 L 91.294720 78.165161 L 91.318104 77.833041 L 91.340695 77.501030 L 91.362494 77.169120 L 91.383502 76.837301 L 91.403722 76.505561 L 91.423154 76.173893 L 91.441800 75.842285 L 91.459662 75.510728 L 91.476740 75.179212 L 91.493036 74.847727 L 91.508550 74.516263 L 91.523283 74.184810 L 91.537237 73.853359 L 91.550411 73.521899 L 91.562806 73.190421 L 91.574423 72.858915 L 91.585262 72.527371 L 91.595323 72.195779 L 91.604606 71.864129 L 91.613111 71.532411 L 91.620838 71.200616 L 91.627787 70.868733 L 91.633958 70.536752 L 91.639349 70.204664 L 91.643961 69.872459 L 91.647793 69.540126 L 91.650844 69.207656 L 91.653113 68.875039 L 91.654600 68.542264 L 91.655303 68.209322 L 91.655220 67.876203 L 91.654352 67.542896 L 91.652696 67.209392 L 91.650250 66.875680 L 91.647014 66.541750 L 91.642985 66.207593 L 91.638162 65.873197 L 91.632543 65.538554 L 91.626125 65.203651 L 91.618906 64.868481 L 91.610885 64.533031 L 91.602058 64.197292 L 91.592423 63.861254 L 91.581978 63.524906 L 91.570720 63.188237 L 91.558646 62.851238 L 91.545752 62.513898 L 91.532037 62.176206 L 91.517496 61.838152 L 91.502126 61.499725 L 91.485924 61.160915 L 91.468886 60.821711 L 91.451009 60.482103 L 91.432288 60.142079 L 91.412720 59.801629 L 91.392300 59.460742 L 91.371025 59.119408 L 91.348890 58.777615 L 91.325890 58.435352 L 91.302021 58.092609 L 91.277278 57.749375 L 91.251656 57.405638 L 91.225150 57.061387 L 91.197755 56.716611 L 91.169466 56.371299 L 91.140278 56.025440 L 91.110184 55.679022 L 91.079178 55.332033 L 91.047256 54.984463 L 91.014411 54.636300 L 90.980636 54.287533 L 90.945926 53.938148 L 90.910274 53.588136 L 90.873673 53.237484 L 90.836117 52.886181 L 90.797598 52.534214 L 90.758109 52.181571 L 90.717644 51.828241 L 90.676194 51.474211 L 90.633752 51.119470 L 90.590310 50.764005 L 90.545860 50.407803 L 90.500394 50.050853 L 90.453904 49.693141 L 90.406381 49.334656 L 90.357816 48.975385 L 90.308201 48.615314 L 90.257526 48.254432 L 90.205782 47.892726 L 90.152960 47.530182 L 90.099049 47.166787 L 90.044041 46.802529 L 89.987924 46.437394 L 89.930689 46.071368 L 89.872325 45.704440 L 89.812822 45.336594 L 89.752167 44.967818 L 89.690351 44.598098 L 89.627362 44.227420 L 89.563187 43.855771 L 89.497816 43.483136 L 89.431236 43.109501 L 89.363434 42.734853 L 89.294399 42.359176 L 89.224116 41.982458 L 89.152574 41.604683 L 89.079758 41.225836 L 89.005656 40.845904 L 88.930252 40.464871 L 88.853533 40.082722 L 88.775485 39.699444 L 88.696091 39.315019 L 88.615339 38.929434 L 88.533211 38.542674 L 88.449693 38.154721 L 88.364769 37.765562 L 88.278421 37.375180 L 88.190634 36.983561 L 88.101390 36.590686 L 88.010673 36.196542 L 87.918464 35.801111 L 87.824746 35.404378 L 87.729501 35.006326 L 87.632709 34.606939 L 87.534351 34.206199 L 87.434409 33.804091 L 87.332862 33.400597 L 87.229691 32.995700 L 87.124874 32.589384 L 87.018391 32.181630 L 86.910220 31.772422 L 86.800339 31.361742 L 86.688726 30.949573 L 86.575359 30.535896 L 86.460215 30.120693 L 86.343269 29.703947 L 86.224497 29.285639 L 86.103876 28.865752 L 85.981380 28.444265 L 85.856983 28.021162 L 85.730660 27.596423 L 85.602384 27.170028 L 85.472128 26.741960 L 85.339865 26.312199 L 85.205565 25.880725 L 85.069201 25.447520 L 84.930743 25.012563 L 84.790162 24.575835 L 84.647426 24.137315 L 84.502505 23.696985 L 84.355368 23.254822 L 84.205981 22.810809 L 84.054311 22.364923 L 83.900326 21.917144 L 83.743991 21.467452 L 83.585270 21.015825 L 83.424128 20.562243 L 83.260528 20.106684 L 83.094434 19.649128 L 82.925807 19.189552 L 82.754609 18.727935 L 82.580800 18.264256 L 82.404339 17.798492 L 82.225186 17.330622 L 82.043298 16.860624 L 81.858632 16.388475 L 81.671145 15.914154 L 81.480793 15.437637 L 81.287528 14.958902 L 81.091306 14.477927 L 80.892078 13.994688 L 80.689795 13.509164 L 80.484409 13.021331 L 80.275868 12.531165 L 80.064121 12.038645 L 79.849116 11.543746 L 79.630797 11.046445 L 79.409111 10.546720 L 79.184002 10.044546 L 78.955410 9.539900 L 78.723280 9.032759 L 78.709466 9.002894" fill="none" id="tattoo-path-da04ef6f92234513" stroke="#000000" stroke-linecap="round" stroke-linejoin="round" stroke-width="3.600000"/>
  <path clip-path="url(#tattoo-band-layer-clip)" d="M 75.708877 136.219252 L 75.470316 136.094663 L 74.977746 135.833166 L 74.488881 135.569404 L 74.003702 135.303416 L 73.522193 135.035242 L 73.044335 134.764922 L 72.570110 134.492494 L 72.099499 134.217996 L 71.632485 133.941463 L 71.169049 133.662934 L 70.709172 133.382442 L 70.252837 133.100024 L 69.800024 132.815713 L 69.350716 132.529543 L 68.904892 132.241548 L 68.462536 131.951759 L 68.023628 131.660208 L 67.588150 131.366927 L 67.156083 131.071946 L 66.727408 130.775295 L 66.302107 130.477004 L 65.880162 130.177101 L 65.461553 129.875615 L 65.046263 129.572574 L 64.634272 129.268005 L 64.225563 128.961934 L 63.820116 128.654388 L 63.417915 128.345393 L 63.018940 128.034974 L 62.623172 127.723154 L 62.230595 127.409960 L 61.841190 127.095414 L 61.454939 126.779539 L 61.071824 126.462359 L 60.691827 126.143895 L 60.314931 125.824170 L 59.941117 125.503204 L 59.570369 125.181020 L 59.202668 124.857637 L 58.837997 124.533076 L 58.476340 124.207356 L 58.117678 123.880496 L 57.761995 123.552516 L 57.409274 123.223434 L 57.059499 122.893268 L 56.712651 122.562036 L 56.368715 122.229755 L 56.027674 121.896442 L 55.689511 121.562115 L 55.354211 121.226788 L 55.021758 120.890478 L 54.692135 120.553201 L 54.365326 120.214971 L 54.041316 119.875804 L 53.720088 119.535715 L 53.401629 119.194717 L 53.085921 118.852824 L 52.772951 118.510050 L 52.462702 118.166409 L 52.155160 117.821913 L 51.850310 117.476575 L 51.548138 117.130407 L 51.248628 116.783422 L 50.951767 116.435631 L 50.657540 116.087046 L 50.365934 115.737679 L 50.076933 115.387539 L 49.790524 115.036639 L 49.506694 114.684988 L 49.225430 114.332598 L 48.946716 113.979476 L 48.670542 113.625635 L 48.396892 113.271082 L 48.125755 112.915828 L 47.857118 112.559881 L 47.590967 112.203251 L 47.327291 111.845945 L 47.066077 111.487973 L 46.807312 111.129341 L 46.550986 110.770059 L 46.297085 110.410135 L 46.045599 110.049574 L 45.796515 109.688386 L 45.549822 109.326576 L 45.305509 108.964152 L 45.063565 108.601121 L 44.823978 108.237490 L 44.586739 107.873264 L 44.351835 107.508449 L 44.119257 107.143053 L 43.888994 106.777080 L 43.661035 106.410536 L 43.435372 106.043427 L 43.211994 105.675759 L 42.990891 105.307535 L 42.772053 104.938762 L 42.555471 104.569444 L 42.341136 104.199586 L 42.129039 103.829192 L 41.919170 103.458267 L 41.711521 103.086815 L 41.506082 102.714840 L 41.302846 102.342346 L 41.101804 101.969337 L 40.902948 101.595816 L 40.706269 101.221788 L 40.511759 100.847256 L 40.319412 100.472222 L 40.129219 100.096691 L 39.941172 99.720664 L 39.755264 99.344146 L 39.571489 98.967138 L 39.389839 98.589645 L 39.210307 98.211667 L 39.032886 97.833208 L 38.857570 97.454270 L 38.684352 97.074855 L 38.513226 96.694966 L 38.344187 96.314604 L 38.177227 95.933771 L 38.012341 95.552470 L 37.849524 95.170702 L 37.688770 94.788468 L 37.530073 94.405771 L 37.373428 94.022611 L 37.218830 93.638991 L 37.066275 93.254911 L 36.915757 92.870372 L 36.767271 92.485376 L 36.620814 92.099924 L 36.476381 91.714017 L 36.333968 91.327655 L 36.193571 90.940840 L 36.055185 90.553571 L 35.918808 90.165851 L 35.784435 89.777679 L 35.652063 89.389056 L 35.521689 88.999982 L 35.393310 88.610458 L 35.266923 88.220484 L 35.142525 87.830060 L 35.020113 87.439187 L 34.899684 87.047865 L 34.781237 86.656093 L 34.664770 86.263872 L 34.550279 85.871202 L 34.437764 85.478082 L 34.327222 85.084513 L 34.218652 84.690494 L 34.112052 84.296025 L 34.007421 83.901105 L 33.904759 83.505736 L 33.804063 83.109915 L 33.705334 82.713643 L 33.608570 82.316919 L 33.513771 81.919742 L 33.420936 81.522113 L 33.330066 81.124030 L 33.241160 80.725493 L 33.154219 80.326501 L 33.069242 79.927054 L 32.986230 79.527150 L 32.905184 79.126790 L 32.826104 78.725972 L 32.748991 78.324696 L 32.673847 77.922960 L 32.600672 77.520764 L 32.529468 77.118106 L 32.460236 76.714987 L 32.392978 76.311405 L 32.327696 75.907359 L 32.264392 75.502849 L 32.203067 75.097872 L 32.143726 74.692429 L 32.086368 74.286518 L 32.030999 73.880139 L 31.977619 73.473289 L 31.926233 73.065969 L 31.876843 72.658177 L 31.829453 72.249913 L 31.784066 71.841174 L 31.740685 71.431961 L 31.699316 71.022271 L 31.659960 70.612105 L 31.622624 70.201460 L 31.587311 69.790336 L 31.554025 69.378733 L 31.522771 68.966648 L 31.493554 68.554081 L 31.466379 68.141031 L 31.441252 67.727496 L 31.418177 67.313477 L 31.397160 66.898972 L 31.378207 66.483979 L 31.361323 66.068499 L 31.346515 65.652530 L 31.333790 65.236071 L 31.323152 64.819122 L 31.314610 64.401681 L 31.308169 63.983748 L 31.303837 63.565322 L 31.301621 63.146403 L 31.301528 62.726989 L 31.303565 62.307080 L 31.307741 61.886675 L 31.314064 61.465775 L 31.322541 61.044377 L 31.333180 60.622482 L 31.345991 60.200089 L 31.360981 59.777199 L 31.378161 59.353809 L 31.397537 58.929921 L 31.419121 58.505534 L 31.442921 58.080648 L 31.468947 57.655262 L 31.497209 57.229377 L 31.527717 56.802992 L 31.560481 56.376108 L 31.595511 55.948725 L 31.632819 55.520843 L 31.672415 55.092461 L 31.714310 54.663582 L 31.758515 54.234204 L 31.805042 53.804330 L 31.853903 53.373958 L 31.905109 52.943090 L 31.958672 52.511726 L 32.014606 52.079868 L 32.072921 51.647517 L 32.133632 51.214673 L 32.196752 50.781338 L 32.262292 50.347512 L 32.330267 49.913199 L 32.400691 49.478397 L 32.473577 49.043111 L 32.548939 48.607340 L 32.626792 48.171088 L 32.707150 47.734356 L 32.790028 47.297146 L 32.875441 46.859460 L 32.963404 46.421301 L 33.053933 45.982671 L 33.147043 45.543574 L 33.242751 45.104011 L 33.341072 44.663985 L 33.442023 44.223501 L 33.545621 43.782561 L 33.651882 43.341168 L 33.760824 42.899326 L 33.872464 42.457040 L 33.986819 42.014312 L 34.103908 41.571148 L 34.223749 41.127551 L 34.346360 40.683525 L 34.471760 40.239077 L 34.599967 39.794210 L 34.731001 39.348930 L 34.864881 38.903242 L 35.001627 38.457151 L 35.141259 38.010664 L 35.283796 37.563786 L 35.429260 37.116524 L 35.577671 36.668884 L 35.729049 36.220872 L 35.883417 35.772497 L 36.040796 35.323764 L 36.201207 34.874682 L 36.364672 34.425259 L 36.531214 33.975501 L 36.700856 33.525418 L 36.873619 33.075019 L 37.049528 32.624311 L 37.228605 32.173305 L 37.410874 31.722009 L 37.596360 31.270434 L 37.785085 30.818590 L 37.977075 30.366487 L 38.172355 29.914136 L 38.370949 29.461549 L 38.572883 29.008736 L 38.778181 28.555709 L 38.986871 28.102482 L 39.198978 27.649066 L 39.414529 27.195474 L 39.633549 26.741720 L 39.856067 26.287817 L 40.082109 25.833781 L 40.311702 25.379624 L 40.544875 24.925364 L 40.781656 24.471014 L 41.022072 24.016591 L 41.266152 23.562111 L 41.513925 23.107592 L 41.765421 22.653050 L 42.020668 22.198503 L 42.279696 21.743970 L 42.542536 21.289470 L 42.809216 20.835021 L 43.079768 20.380644 L 43.354222 19.926359 L 43.632610 19.472188 L 43.914961 19.018151 L 44.201309 18.564271 L 44.491684 18.110570 L 44.786118 17.657072 L 45.084644 17.203801 L 45.387293 16.750781 L 45.694100 16.298038 L 46.005095 15.845597 L 46.320313 15.393484 L 46.639787 14.941728 L 46.963551 14.490355 L 47.291637 14.039395 L 47.451438 13.822836" fill="none" id="tattoo-path-8e2ab5524303cc3d" stroke="#000000" stroke-linecap="round" stroke-linejoin="round" stroke-width="3.100000"/>
  <path clip-path="url(#tattoo-band-layer-clip)" d="M 22.142816 111.673894 L 22.142004 111.439616 L 22.143530 110.882221 L 22.148472 110.327493 L 22.156782 109.775424 L 22.168412 109.226004 L 22.183315 108.679225 L 22.201444 108.135076 L 22.222756 107.593548 L 22.247204 107.054631 L 22.274746 106.518314 L 22.305338 105.984586 L 22.338939 105.453438 L 22.375505 104.924857 L 22.414997 104.398832 L 22.457375 103.875353 L 22.502598 103.354407 L 22.550629 102.835983 L 22.601429 102.320070 L 22.654962 101.806654 L 22.711189 101.295724 L 22.770075 100.787268 L 22.831586 100.281273 L 22.895685 99.777727 L 22.962339 99.276617 L 23.031515 98.777931 L 23.103179 98.281655 L 23.177299 97.787777 L 23.253843 97.296284 L 23.332780 96.807163 L 23.414080 96.320401 L 23.497713 95.835986 L 23.583649 95.353903 L 23.671859 94.874139 L 23.762314 94.396682 L 23.854988 93.921519 L 23.949852 93.448635 L 24.046880 92.978018 L 24.146045 92.509655 L 24.247321 92.043531 L 24.350684 91.579635 L 24.456108 91.117952 L 24.563570 90.658470 L 24.673044 90.201175 L 24.784507 89.746053 L 24.897938 89.293093 L 25.013312 88.842279 L 25.130608 88.393600 L 25.249804 87.947042 L 25.370879 87.502591 L 25.493813 87.060236 L 25.618583 86.619962 L 25.745172 86.181757 L 25.873558 85.745607 L 26.003723 85.311500 L 26.135648 84.879423 L 26.269314 84.449363 L 26.404703 84.021307 L 26.541798 83.595242 L 26.680582 83.171157 L 26.821036 82.749037 L 26.963145 82.328870 L 27.106892 81.910645 L 27.252261 81.494348 L 27.399237 81.079968 L 27.547805 80.667491 L 27.697949 80.256906 L 27.849654 79.848200 L 28.002907 79.441362 L 28.157694 79.036378 L 28.314000 78.633238 L 28.471812 78.231929 L 28.631118 77.832440 L 28.791905 77.434759 L 28.954159 77.038874 L 29.117869 76.644773 L 29.283022 76.252446 L 29.449608 75.861880 L 29.617615 75.473064 L 29.787031 75.085988 L 29.957846 74.700639 L 30.130049 74.317007 L 30.303630 73.935081 L 30.478579 73.554850 L 30.654885 73.176303 L 30.832540 72.799430 L 31.011534 72.424219 L 31.191858 72.050660 L 31.373503 71.678742 L 31.556461 71.308457 L 31.740723 70.939791 L 31.926280 70.572737 L 32.113126 70.207284 L 32.301251 69.843421 L 32.490650 69.481139 L 32.681314 69.120427 L 32.873237 68.761277 L 33.066411 68.403678 L 33.260830 68.047622 L 33.456487 67.693097 L 33.653377 67.340096 L 33.851493 66.988609 L 34.050829 66.638626 L 34.251381 66.290139 L 34.453141 65.943139 L 34.656105 65.597617 L 34.860269 65.253563 L 35.065626 64.910969 L 35.272173 64.569828 L 35.479904 64.230129 L 35.688816 63.891865 L 35.898905 63.555028 L 36.110165 63.219609 L 36.322594 62.885599 L 36.536188 62.552992 L 36.750943 62.221780 L 36.966856 61.891953 L 37.183924 61.563505 L 37.402144 61.236428 L 37.621513 60.910715 L 37.842029 60.586357 L 38.063688 60.263349 L 38.286488 59.941682 L 38.510428 59.621349 L 38.735505 59.302343 L 38.961718 58.984658 L 39.189064 58.668287 L 39.417542 58.353222 L 39.647151 58.039458 L 39.877889 57.726987 L 40.109755 57.415803 L 40.342748 57.105901 L 40.576867 56.797273 L 40.812112 56.489913 L 41.048481 56.183817 L 41.285975 55.878976 L 41.524593 55.575387 L 41.764335 55.273042 L 42.005201 54.971937 L 42.247190 54.672066 L 42.490304 54.373423 L 42.734542 54.076004 L 42.979906 53.779802 L 43.226394 53.484813 L 43.474009 53.191032 L 43.722752 52.898454 L 43.972622 52.607075 L 44.223621 52.316888 L 44.475751 52.027891 L 44.729013 51.740078 L 44.983408 51.453445 L 45.238939 51.167987 L 45.495605 50.883702 L 45.753410 50.600583 L 46.012356 50.318629 L 46.272444 50.037834 L 46.533677 49.758195 L 46.796057 49.479708 L 47.059586 49.202371 L 47.324268 48.926179 L 47.590104 48.651129 L 47.857098 48.377217 L 48.125252 48.104442 L 48.394569 47.832800 L 48.665053 47.562288 L 48.936707 47.292903 L 49.209534 47.024643 L 49.483537 46.757505 L 49.758721 46.491487 L 50.035088 46.226587 L 50.312644 45.962801 L 50.591390 45.700130 L 50.871332 45.438569 L 51.152474 45.178118 L 51.434820 44.918775 L 51.718374 44.660539 L 52.003141 44.403407 L 52.289125 44.147379 L 52.576331 43.892453 L 52.864764 43.638628 L 53.154428 43.385903 L 53.445329 43.134278 L 53.737471 42.883752 L 54.030861 42.634324 L 54.325502 42.385993 L 54.621401 42.138760 L 54.918564 41.892624 L 55.216995 41.647585 L 55.516700 41.403643 L 55.817686 41.160799 L 56.119958 40.919052 L 56.423522 40.678403 L 56.728385 40.438853 L 57.034552 40.200403 L 57.342030 39.963053 L 57.650826 39.726804 L 57.960946 39.491658 L 58.272396 39.257615 L 58.585184 39.024679 L 58.899317 38.792849 L 59.214800 38.562127 L 59.531642 38.332516 L 59.849849 38.104018 L 60.169430 37.876635 L 60.490390 37.650369 L 60.812738 37.425222 L 61.136481 37.201198 L 61.461628 36.978299 L 61.788185 36.756529 L 62.116160 36.535889 L 62.445563 36.316385 L 62.776400 36.098018 L 63.108679 35.880793 L 63.442410 35.664714 L 63.777601 35.449784 L 64.114260 35.236008 L 64.452395 35.023390 L 64.792016 34.811935 L 65.133131 34.601647 L 65.475749 34.392532 L 65.819879 34.184593 L 66.165531 33.977837 L 66.512712 33.772270 L 66.861434 33.567895 L 67.211704 33.364721 L 67.563533 33.162752 L 67.916930 32.961994 L 68.271905 32.762455 L 68.628468 32.564141 L 68.986628 32.367058 L 69.346395 32.171214 L 69.707781 31.976617 L 70.070794 31.783272 L 70.435445 31.591190 L 70.801744 31.400376 L 71.169702 31.210839 L 71.539330 31.022589 L 71.910638 30.835633 L 72.283637 30.649980 L 72.658337 30.465639 L 73.034751 30.282620 L 73.412887 30.100933 L 73.792759 29.920586 L 74.174377 29.741591 L 74.557752 29.563958 L 74.942895 29.387696 L 75.329819 29.212818 L 75.718535 29.039334 L 76.109054 28.867255 L 76.501388 28.696594 L 76.895550 28.527363 L 77.291550 28.359572 L 77.689402 28.193236 L 78.089116 28.028367 L 78.490706 27.864978 L 78.894183 27.703082 L 79.299560 27.542694 L 79.706850 27.383827 L 80.116064 27.226495 L 80.527215 27.070715 L 80.940317 26.916499 L 81.355381 26.763864 L 81.772421 26.612826 L 82.191449 26.463400 L 82.612478 26.315603 L 83.035521 26.169452 L 83.460592 26.024964 L 83.887704 25.882155 L 84.316869 25.741044 L 84.748100 25.601650 L 85.181412 25.463990 L 85.616818 25.328084 L 86.054331 25.193951 L 86.493964 25.061611 L 86.935730 24.931084 L 87.379645 24.802390 L 87.825720 24.675551 L 88.273970 24.550587 L 88.724409 24.427522 L 89.177049 24.306376 L 89.631905 24.187173 L 90.088991 24.069936 L 90.548320 23.954689 L 91.009906 23.841455 L 91.473763 23.730260 L 91.939905 23.621127 L 92.408345 23.514084 L 92.879098 23.409155 L 93.352177 23.306368 L 93.827596 23.205749 L 94.305369 23.107327 L 94.785509 23.011128 L 95.268031 22.917183 L 95.752948 22.825519 L 96.240274 22.736167 L 96.730023 22.649157 L 97.222207 22.564520 L 97.716842 22.482287 L 98.213939 22.402491 L 98.713514 22.325164 L 99.215578 22.250339 L 99.720146 22.178051 L 100.227230 22.108333 L 100.736845 22.041220 L 101.249002 21.976750 L 101.763715 21.914957 L 102.280996 21.855880 L 102.800858 21.799555 L 103.323315 21.746022 L 103.848377 21.695319 L 104.376058 21.647487 L 104.906369 21.602566 L 105.439323 21.560597 L 105.974931 21.521622 L 106.513204 21.485685 L 107.054154 21.452828 L 107.597792 21.423096 L 108.144129 21.396534 L 108.693176 21.373189 L 109.244942 21.353106 L 109.799438 21.336333 L 110.356674 21.322919 L 110.590917 21.318733" fill="none" id="tattoo-path-524922ead79b327a" stroke="#000000" stroke-linecap="round" stroke-linejoin="round" stroke-width="2.500000"/>
  <path clip-path="url(#tattoo-band-layer-clip)" d="M 110.049973 124.079449 L 110.041105 123.998971 L 109.977904 123.445161 L 109.913006 122.895330 L 109.846449 122.349426 L 109.778268 121.807398 L 109.708499 121.269198 L 109.637177 120.734775 L 109.564334 120.204082 L 109.490004 119.677071 L 109.414218 119.153694 L 109.337007 118.633905 L 109.258400 118.117658 L 109.178428 117.604908 L 109.097117 117.095611 L 109.014496 116.589722 L 108.930592 116.087198 L 108.845430 115.587996 L 108.759037 115.092074 L 108.671437 114.599391 L 108.582653 114.109904 L 108.492710 113.623575 L 108.401629 113.140363 L 108.309434 112.660227 L 108.216146 112.183131 L 108.121785 111.709034 L 108.026372 111.237900 L 107.929927 110.769691 L 107.832470 110.304370 L 107.734018 109.841901 L 107.634590 109.382248 L 107.534205 108.925376 L 107.432878 108.471250 L 107.330627 108.019835 L 107.227469 107.571097 L 107.123418 107.125004 L 107.018491 106.681521 L 106.912703 106.240617 L 106.806067 105.802259 L 106.698599 105.366415 L 106.590311 104.933054 L 106.481218 104.502146 L 106.371332 104.073659 L 106.260666 103.647563 L 106.149231 103.223829 L 106.037041 102.802428 L 105.924106 102.383330 L 105.810438 101.966507 L 105.696048 101.551931 L 105.580946 101.139573 L 105.465142 100.729407 L 105.348647 100.321405 L 105.231469 99.915540 L 105.113619 99.511786 L 104.995105 99.110118 L 104.875936 98.710508 L 104.756121 98.312932 L 104.635668 97.917364 L 104.514585 97.523780 L 104.392880 97.132155 L 104.270559 96.742465 L 104.147631 96.354686 L 104.024102 95.968794 L 103.899980 95.584767 L 103.775270 95.202581 L 103.649979 94.822213 L 103.524113 94.443641 L 103.397678 94.066843 L 103.270679 93.691796 L 103.143123 93.318480 L 103.015014 92.946872 L 102.886358 92.576952 L 102.757158 92.208699 L 102.627421 91.842091 L 102.497150 91.477110 L 102.366350 91.113734 L 102.235026 90.751943 L 102.103180 90.391718 L 101.970816 90.033040 L 101.837939 89.675890 L 101.704553 89.320247 L 101.570659 88.966094 L 101.436261 88.613412 L 101.301363 88.262182 L 101.165967 87.912387 L 101.030076 87.564009 L 100.893693 87.217029 L 100.756819 86.871430 L 100.619458 86.527195 L 100.481610 86.184308 L 100.343279 85.842749 L 100.204466 85.502504 L 100.065173 85.163556 L 99.925401 84.825887 L 99.785153 84.489482 L 99.644428 84.154325 L 99.503229 83.820400 L 99.361556 83.487691 L 99.219411 83.156183 L 99.076795 82.825861 L 98.933707 82.496708 L 98.790150 82.168710 L 98.646122 81.841853 L 98.501625 81.516121 L 98.356660 81.191500 L 98.211225 80.867976 L 98.065322 80.545533 L 97.918950 80.224159 L 97.772109 79.903839 L 97.624798 79.584559 L 97.477019 79.266306 L 97.328769 78.949065 L 97.180049 78.632824 L 97.030858 78.317569 L 96.881195 78.003288 L 96.731059 77.689966 L 96.580450 77.377591 L 96.429366 77.066151 L 96.277806 76.755632 L 96.125770 76.446023 L 95.973255 76.137310 L 95.820261 75.829481 L 95.666785 75.522525 L 95.512827 75.216428 L 95.358385 74.911180 L 95.203456 74.606768 L 95.048040 74.303180 L 94.892133 74.000405 L 94.735735 73.698432 L 94.578843 73.397248 L 94.421455 73.096843 L 94.263569 72.797205 L 94.105182 72.498324 L 93.946291 72.200187 L 93.786895 71.902785 L 93.626991 71.606106 L 93.466576 71.310140 L 93.305647 71.014875 L 93.144202 70.720302 L 92.982237 70.426410 L 92.819750 70.133188 L 92.656737 69.840627 L 92.493195 69.548715 L 92.329121 69.257443 L 92.164512 68.966801 L 91.999365 68.676778 L 91.833674 68.387366 L 91.667439 68.098553 L 91.500653 67.810331 L 91.333314 67.522690 L 91.165418 67.235619 L 90.996962 66.949110 L 90.827940 66.663153 L 90.658349 66.377738 L 90.488185 66.092857 L 90.317443 65.808501 L 90.146120 65.524659 L 89.974210 65.241323 L 89.801710 64.958483 L 89.628614 64.676132 L 89.454919 64.394259 L 89.280619 64.112857 L 89.105709 63.831916 L 88.930185 63.551428 L 88.754042 63.271383 L 88.577275 62.991774 L 88.399877 62.712592 L 88.221845 62.433827 L 88.043173 62.155473 L 87.863855 61.877521 L 87.683887 61.599961 L 87.503261 61.322786 L 87.321973 61.045989 L 87.140017 60.769559 L 86.957387 60.493490 L 86.774077 60.217774 L 86.590080 59.942402 L 86.405392 59.667366 L 86.220005 59.392659 L 86.033914 59.118273 L 85.847111 58.844199 L 85.659591 58.570431 L 85.471346 58.296960 L 85.282370 58.023779 L 85.092657 57.750880 L 84.902198 57.478255 L 84.710988 57.205897 L 84.519019 56.933799 L 84.326284 56.661953 L 84.132776 56.390352 L 83.938487 56.118988 L 83.743409 55.847853 L 83.547535 55.576942 L 83.350858 55.306246 L 83.153369 55.035758 L 82.955061 54.765471 L 82.755925 54.495378 L 82.555953 54.225472 L 82.355138 53.955746 L 82.153469 53.686193 L 81.950940 53.416805 L 81.747541 53.147577 L 81.543264 52.878500 L 81.338099 52.609569 L 81.132038 52.340775 L 80.925072 52.072114 L 80.717191 51.803577 L 80.508386 51.535158 L 80.298647 51.266850 L 80.087965 50.998647 L 79.876330 50.730542 L 79.663732 50.462529 L 79.450161 50.194600 L 79.235607 49.926750 L 79.020060 49.658972 L 78.803509 49.391260 L 78.585943 49.123606 L 78.367352 48.856006 L 78.147725 48.588451 L 77.927051 48.320937 L 77.705318 48.053456 L 77.482516 47.786003 L 77.258632 47.518571 L 77.033656 47.251155 L 76.807575 46.983747 L 76.580377 46.716342 L 76.352051 46.448935 L 76.122583 46.181517 L 75.891962 45.914085 L 75.660175 45.646631 L 75.427208 45.379150 L 75.193050 45.111637 L 74.957686 44.844084 L 74.721104 44.576486 L 74.483290 44.308838 L 74.244229 44.041134 L 74.003909 43.773367 L 73.762315 43.505533 L 73.519433 43.237625 L 73.275248 42.969638 L 73.029746 42.701567 L 72.782911 42.433406 L 72.534729 42.165149 L 72.285184 41.896791 L 72.034261 41.628326 L 71.781943 41.359750 L 71.528215 41.091056 L 71.273061 40.822240 L 71.016464 40.553297 L 70.758407 40.284220 L 70.498873 40.015006 L 70.237846 39.745648 L 69.975308 39.476142 L 69.711242 39.206483 L 69.445628 38.936666 L 69.178449 38.666685 L 68.909688 38.396537 L 68.639324 38.126216 L 68.367339 37.855718 L 68.093714 37.585037 L 67.818429 37.314170 L 67.541465 37.043112 L 67.262800 36.771857 L 66.982416 36.500403 L 66.700291 36.228744 L 66.416404 35.956875 L 66.130733 35.684794 L 65.843258 35.412496 L 65.553956 35.139975 L 65.262805 34.867230 L 64.969783 34.594255 L 64.674866 34.321047 L 64.378030 34.047601 L 64.079254 33.773915 L 63.778511 33.499985 L 63.475779 33.225807 L 63.171032 32.951377 L 62.864245 32.676693 L 62.555393 32.401751 L 62.244450 32.126547 L 61.931390 31.851080 L 61.616185 31.575346 L 61.298809 31.299342 L 60.979234 31.023066 L 60.657433 30.746514 L 60.333376 30.469685 L 60.007036 30.192576 L 59.678383 29.915185 L 59.347387 29.637510 L 59.014018 29.359548 L 58.678245 29.081299 L 58.340038 28.802761 L 57.999364 28.523931 L 57.656192 28.244810 L 57.310489 27.965394 L 56.962221 27.685685 L 56.611356 27.405680 L 56.257858 27.125379 L 55.901694 26.844783 L 55.542827 26.563889 L 55.181222 26.282699 L 54.816843 26.001213 L 54.449651 25.719430 L 54.079611 25.437352 L 53.706683 25.154980 L 53.330829 24.872314 L 52.952008 24.589355 L 52.570182 24.306107 L 52.185308 24.022569 L 51.797346 23.738744 L 51.406253 23.454635 L 51.011987 23.170245 L 50.614503 22.885576 L 50.213758 22.600631 L 49.809707 22.315415 L 49.402303 22.029931 L 48.991500 21.744183 L 48.577251 21.458176 L 48.159507 21.171916 L 47.738220 20.885407 L 47.313339 20.598655 L 46.884815 20.311667 L 46.452595 20.024450 L 46.016627 19.737009 L 45.576859 19.449353 L 45.133235 19.161490 L 44.685701 18.873429 L 44.234201 18.585178 L 43.778677 18.296747 L 43.319073 18.008145 L 42.855327 17.719384 L 42.387382 17.430476 L 41.915175 17.141430 L 41.438645 16.852261 L 41.369265 16.810528" fill="none" id="tattoo-path-2ef13085be50813b" stroke="#000000" stroke-linecap="round" stroke-linejoin="round" stroke-width="2.200000"/>
  <path clip-path="url(#tattoo-band-layer-clip)" d="M 133.343535 91.696465 L 133.086664 92.013617 L 132.732378 92.444576 L 132.375979 92.871731 L 132.017503 93.295093 L 131.656986 93.714670 L 131.294465 94.130472 L 130.929975 94.542510 L 130.563549 94.950794 L 130.195223 95.355335 L 129.825031 95.756142 L 129.453005 96.153227 L 129.079178 96.546600 L 128.703583 96.936273 L 128.326252 97.322255 L 127.947216 97.704560 L 127.566506 98.083197 L 127.184152 98.458178 L 126.800185 98.829515 L 126.414635 99.197219 L 126.027530 99.561302 L 125.638900 99.921774 L 125.248772 100.278649 L 124.857175 100.631938 L 124.464136 100.981653 L 124.069683 101.327805 L 123.673842 101.670406 L 123.276639 102.009469 L 122.878100 102.345005 L 122.478252 102.677027 L 122.077119 103.005546 L 121.674725 103.330574 L 121.271096 103.652124 L 120.866254 103.970208 L 120.460225 104.284837 L 120.053032 104.596023 L 119.644696 104.903779 L 119.235241 105.208117 L 118.824689 105.509049 L 118.413062 105.806586 L 118.000382 106.100741 L 117.586670 106.391526 L 117.171946 106.678952 L 116.756231 106.963032 L 116.339546 107.243777 L 115.921911 107.521199 L 115.503344 107.795309 L 115.083866 108.066121 L 114.663496 108.333644 L 114.242252 108.597891 L 113.820152 108.858874 L 113.397216 109.116604 L 112.973460 109.371091 L 112.548902 109.622349 L 112.123560 109.870388 L 111.697451 110.115218 L 111.270591 110.356853 L 110.842998 110.595301 L 110.414686 110.830576 L 109.985673 111.062687 L 109.555973 111.291645 L 109.125603 111.517461 L 108.694578 111.740147 L 108.262913 111.959712 L 107.830622 112.176167 L 107.397720 112.389522 L 106.964222 112.599789 L 106.530141 112.806976 L 106.095491 113.011095 L 105.660287 113.212155 L 105.224541 113.410167 L 104.788267 113.605140 L 104.351478 113.797084 L 103.914186 113.986009 L 103.476405 114.171924 L 103.038147 114.354839 L 102.599423 114.534764 L 102.160246 114.711706 L 101.720629 114.885677 L 101.280582 115.056684 L 100.840117 115.224737 L 100.399246 115.389845 L 99.957979 115.552016 L 99.516328 115.711259 L 99.074304 115.867582 L 98.631917 116.020994 L 98.189177 116.171503 L 97.746096 116.319118 L 97.302683 116.463845 L 96.858949 116.605695 L 96.414903 116.744673 L 95.970555 116.880788 L 95.525914 117.014048 L 95.080991 117.144459 L 94.635795 117.272030 L 94.190335 117.396767 L 93.744619 117.518677 L 93.298658 117.637769 L 92.852460 117.754047 L 92.406033 117.867520 L 91.959387 117.978193 L 91.512529 118.086074 L 91.065469 118.191169 L 90.618214 118.293483 L 90.170773 118.393023 L 89.723154 118.489795 L 89.275364 118.583806 L 88.827413 118.675059 L 88.379307 118.763563 L 87.931054 118.849320 L 87.482662 118.932338 L 87.034139 119.012621 L 86.585491 119.090175 L 86.136727 119.165004 L 85.687854 119.237114 L 85.238878 119.306508 L 84.789807 119.373192 L 84.340649 119.437171 L 83.891409 119.498447 L 83.442096 119.557027 L 82.992715 119.612913 L 82.543274 119.666110 L 82.093780 119.716622 L 81.644239 119.764451 L 81.194658 119.809603 L 80.745043 119.852080 L 80.295401 119.891885 L 79.845739 119.929023 L 79.396063 119.963495 L 78.946379 119.995305 L 78.496694 120.024455 L 78.047014 120.050949 L 77.597346 120.074788 L 77.147695 120.095976 L 76.698068 120.114514 L 76.248472 120.130405 L 75.798911 120.143650 L 75.349394 120.154252 L 74.899925 120.162212 L 74.450511 120.167532 L 74.001158 120.170213 L 73.551872 120.170257 L 73.102659 120.167665 L 72.653525 120.162438 L 72.204477 120.154578 L 71.755519 120.144084 L 71.306660 120.130957 L 70.857903 120.115199 L 70.409257 120.096810 L 69.960725 120.075790 L 69.512316 120.052139 L 69.064034 120.025857 L 68.615886 119.996945 L 68.167878 119.965401 L 67.720015 119.931227 L 67.272305 119.894420 L 66.824754 119.854981 L 66.377366 119.812910 L 65.930150 119.768204 L 65.483110 119.720864 L 65.036253 119.670888 L 64.589586 119.618275 L 64.143115 119.563024 L 63.696845 119.505132 L 63.250784 119.444599 L 62.804938 119.381423 L 62.359313 119.315603 L 61.913916 119.247135 L 61.468753 119.176018 L 61.023832 119.102249 L 60.579158 119.025827 L 60.134738 118.946749 L 59.690579 118.865012 L 59.246689 118.780614 L 58.803073 118.693551 L 58.359739 118.603821 L 57.916694 118.511421 L 57.473944 118.416347 L 57.031498 118.318596 L 56.589361 118.218164 L 56.147543 118.115049 L 55.706049 118.009246 L 55.264887 117.900751 L 54.824065 117.789560 L 54.383591 117.675670 L 53.943471 117.559077 L 53.503715 117.439775 L 53.064329 117.317760 L 52.625323 117.193029 L 52.186703 117.065575 L 51.748478 116.935395 L 51.310656 116.802483 L 50.873247 116.666835 L 50.436257 116.528445 L 49.999696 116.387308 L 49.563572 116.243419 L 49.127895 116.096772 L 48.692673 115.947361 L 48.257916 115.795182 L 47.823632 115.640227 L 47.389830 115.482491 L 46.956521 115.321968 L 46.523714 115.158652 L 46.091418 114.992537 L 45.659644 114.823616 L 45.228401 114.651882 L 44.797699 114.477329 L 44.367549 114.299951 L 43.937962 114.119740 L 43.508947 113.936690 L 43.080515 113.750793 L 42.652678 113.562043 L 42.225447 113.370432 L 41.798832 113.175953 L 41.372845 112.978598 L 40.947497 112.778360 L 40.522801 112.575231 L 40.098768 112.369204 L 39.675411 112.160271 L 39.252741 111.948423 L 38.830770 111.733654 L 38.409513 111.515954 L 37.988981 111.295315 L 37.569187 111.071730 L 37.150146 110.845190 L 36.731869 110.615686 L 36.314371 110.383210 L 35.897666 110.147754 L 35.481767 109.909308 L 35.066690 109.667864 L 34.652448 109.423413 L 34.239056 109.175946 L 33.826529 108.925454 L 33.414883 108.671928 L 33.004132 108.415359 L 32.594292 108.155738 L 32.185380 107.893055 L 31.777412 107.627301 L 31.370403 107.358467 L 30.964371 107.086543 L 30.559332 106.811520 L 30.155303 106.533388 L 29.752303 106.252137 L 29.350348 105.967759 L 28.949456 105.680243 L 28.549647 105.389579 L 28.150938 105.095757 L 27.753348 104.798769 L 27.356896 104.498603 L 26.961602 104.195251 L 26.567486 103.888702 L 26.174566 103.578946 L 25.782864 103.265973 L 25.392401 102.949773 L 25.003196 102.630336 L 24.615272 102.307653 L 24.228650 101.981713 L 23.843352 101.652506 L 23.459399 101.320021 L 23.076815 100.984250 L 22.695623 100.645182 L 22.315845 100.302807 L 21.937505 99.957115 L 21.560628 99.608096 L 21.185236 99.255740 L 20.811356 98.900037 L 20.439012 98.540978 L 20.068229 98.178551 L 19.699033 97.812749 L 19.331451 97.443560 L 18.965508 97.070975 L 18.601231 96.694984 L 18.238649 96.315579 L 17.877788 95.932748 L 17.518677 95.546484 L 17.161344 95.156776 L 16.805817 94.763615 L 16.452127 94.366992 L 16.100303 93.966898 L 15.750376 93.563324 L 15.402374 93.156261 L 15.056330 92.745701 L 14.712276 92.331634 L 14.370242 91.914052 L 14.030261 91.492947 L 13.692367 91.068311 L 13.356591 90.640135 L 13.022968 90.208412 L 12.691532 89.773133 L 12.362318 89.334293 L 12.035360 88.891882 L 11.710694 88.445894 L 11.388356 87.996322 L 11.068382 87.543159 L 10.750810 87.086399 L 10.435677 86.626035 L 10.207604 86.287581" fill="none" id="tattoo-path-4bc3966e2d716008" stroke="#000000" stroke-linecap="round" stroke-linejoin="round" stroke-width="1.900000"/>
  <path clip-path="url(#tattoo-band-layer-clip)" d="M 54.895941 133.823218 L 54.768798 133.370659 L 54.620915 132.835839 L 54.476176 132.303932 L 54.334526 131.774907 L 54.195912 131.248734 L 54.060282 130.725385 L 53.927588 130.204830 L 53.797778 129.687040 L 53.670805 129.171987 L 53.546622 128.659641 L 53.425182 128.149975 L 53.306440 127.642960 L 53.190353 127.138568 L 53.076875 126.636772 L 52.965967 126.137544 L 52.857585 125.640855 L 52.751689 125.146681 L 52.648240 124.654992 L 52.547198 124.165763 L 52.448526 123.678967 L 52.352186 123.194578 L 52.258143 122.712569 L 52.166359 122.232915 L 52.076801 121.755590 L 51.989434 121.280568 L 51.904225 120.807824 L 51.821140 120.337334 L 51.740149 119.869071 L 51.661219 119.403013 L 51.584319 118.939133 L 51.509421 118.477409 L 51.436493 118.017816 L 51.365508 117.560329 L 51.296437 117.104927 L 51.229252 116.651584 L 51.163927 116.200279 L 51.100434 115.750987 L 51.038749 115.303687 L 50.978845 114.858356 L 50.920697 114.414971 L 50.864282 113.973510 L 50.809575 113.533952 L 50.756554 113.096274 L 50.705194 112.660455 L 50.655474 112.226473 L 50.607372 111.794308 L 50.560867 111.363938 L 50.515936 110.935342 L 50.472561 110.508501 L 50.430720 110.083393 L 50.390394 109.659998 L 50.351564 109.238296 L 50.314210 108.818268 L 50.278314 108.399893 L 50.243858 107.983152 L 50.210824 107.568026 L 50.179196 107.154496 L 50.148955 106.742542 L 50.120085 106.332145 L 50.092570 105.923288 L 50.066394 105.515951 L 50.041541 105.110116 L 50.017996 104.705765 L 49.995743 104.302880 L 49.974770 103.901443 L 49.955060 103.501437 L 49.936600 103.102844 L 49.919376 102.705645 L 49.903375 102.309826 L 49.888583 101.915367 L 49.874989 101.522253 L 49.862578 101.130466 L 49.851339 100.739989 L 49.841260 100.350808 L 49.832329 99.962904 L 49.824534 99.576261 L 49.817865 99.190865 L 49.812310 98.806698 L 49.807858 98.423745 L 49.804499 98.041990 L 49.802222 97.661418 L 49.801018 97.282013 L 49.800877 96.903760 L 49.801788 96.526644 L 49.803744 96.150649 L 49.806734 95.775762 L 49.810749 95.401966 L 49.815782 95.029248 L 49.821822 94.657593 L 49.828863 94.286986 L 49.836895 93.917413 L 49.845911 93.548860 L 49.855904 93.181313 L 49.866865 92.814757 L 49.878787 92.449179 L 49.891663 92.084566 L 49.905487 91.720903 L 49.920250 91.358176 L 49.935948 90.996373 L 49.952572 90.635480 L 49.970117 90.275484 L 49.988578 89.916371 L 50.007947 89.558129 L 50.028219 89.200744 L 50.049388 88.844204 L 50.071450 88.488496 L 50.094398 88.133607 L 50.118228 87.779525 L 50.142934 87.426236 L 50.168513 87.073729 L 50.194958 86.721991 L 50.222265 86.371011 L 50.250431 86.020775 L 50.279451 85.671271 L 50.309320 85.322489 L 50.340035 84.974414 L 50.371592 84.627037 L 50.403988 84.280345 L 50.437218 83.934326 L 50.471280 83.588968 L 50.506169 83.244261 L 50.541884 82.900192 L 50.578420 82.556751 L 50.615776 82.213925 L 50.653948 81.871703 L 50.692933 81.530075 L 50.732730 81.189028 L 50.773335 80.848553 L 50.814747 80.508637 L 50.856964 80.169271 L 50.899982 79.830442 L 50.943802 79.492140 L 50.988420 79.154355 L 51.033835 78.817075 L 51.080046 78.480290 L 51.127051 78.143990 L 51.174849 77.808162 L 51.223439 77.472798 L 51.272819 77.137887 L 51.322989 76.803417 L 51.373948 76.469380 L 51.425695 76.135763 L 51.478230 75.802558 L 51.531552 75.469754 L 51.585661 75.137341 L 51.640556 74.805308 L 51.696237 74.473645 L 51.752704 74.142343 L 51.809958 73.811391 L 51.867998 73.480779 L 51.926825 73.150498 L 51.986439 72.820537 L 52.046841 72.490886 L 52.108031 72.161537 L 52.170010 71.832478 L 52.232778 71.503700 L 52.296338 71.175194 L 52.360689 70.846950 L 52.425832 70.518957 L 52.491770 70.191207 L 52.558504 69.863690 L 52.626034 69.536396 L 52.694363 69.209315 L 52.763492 68.882439 L 52.833424 68.555757 L 52.904159 68.229260 L 52.975699 67.902939 L 53.048048 67.576784 L 53.121207 67.250785 L 53.195179 66.924935 L 53.269966 66.599222 L 53.345570 66.273638 L 53.421994 65.948173 L 53.499242 65.622819 L 53.577315 65.297565 L 53.656217 64.972402 L 53.735951 64.647322 L 53.816520 64.322315 L 53.897927 63.997372 L 53.980177 63.672483 L 54.063271 63.347639 L 54.147215 63.022832 L 54.232012 62.698052 L 54.317665 62.373289 L 54.404179 62.048535 L 54.491558 61.723781 L 54.579807 61.399017 L 54.668928 61.074234 L 54.758928 60.749423 L 54.849810 60.424576 L 54.941579 60.099682 L 55.034240 59.774733 L 55.127799 59.449720 L 55.222259 59.124633 L 55.317627 58.799464 L 55.413907 58.474203 L 55.511105 58.148841 L 55.609227 57.823370 L 55.708279 57.497779 L 55.808265 57.172061 L 55.909193 56.846206 L 56.011068 56.520204 L 56.113897 56.194048 L 56.217685 55.867726 L 56.322440 55.541232 L 56.428168 55.214555 L 56.534875 54.887686 L 56.642570 54.560616 L 56.751258 54.233336 L 56.860947 53.905837 L 56.971644 53.578110 L 57.083357 53.250146 L 57.196094 52.921935 L 57.309862 52.593469 L 57.424669 52.264737 L 57.540524 51.935732 L 57.657434 51.606443 L 57.775408 51.276862 L 57.894454 50.946979 L 58.014582 50.616786 L 58.135800 50.286272 L 58.258118 49.955429 L 58.381543 49.624247 L 58.506087 49.292717 L 58.631758 48.960830 L 58.758567 48.628576 L 58.886522 48.295947 L 59.015635 47.962932 L 59.145915 47.629523 L 59.277374 47.295709 L 59.410021 46.961483 L 59.543867 46.626833 L 59.678924 46.291751 L 59.815203 45.956228 L 59.952715 45.620254 L 60.091472 45.283818 L 60.231485 44.946913 L 60.372767 44.609528 L 60.515331 44.271654 L 60.659187 43.933282 L 60.804350 43.594400 L 60.950832 43.255001 L 61.098646 42.915075 L 61.247805 42.574611 L 61.398324 42.233600 L 61.550215 41.892033 L 61.703494 41.549900 L 61.858174 41.207190 L 62.014269 40.863895 L 62.171795 40.520004 L 62.330767 40.175508 L 62.491200 39.830397 L 62.653109 39.484661 L 62.816511 39.138290 L 62.981421 38.791275 L 63.147856 38.443605 L 63.315832 38.095270 L 63.485367 37.746261 L 63.656477 37.396568 L 63.829181 37.046180 L 64.003495 36.695088 L 64.179439 36.343282 L 64.357030 35.990752 L 64.536287 35.637487 L 64.717230 35.283477 L 64.899878 34.928713 L 65.084250 34.573185 L 65.270366 34.216882 L 65.458248 33.859793 L 65.647915 33.501910 L 65.839389 33.143222 L 66.032691 32.783719 L 66.227844 32.423389 L 66.424869 32.062225 L 66.623788 31.700214 L 66.824626 31.337348 L 67.027405 30.973615 L 67.232149 30.609006 L 67.438883 30.243510 L 67.647630 29.877117 L 67.858416 29.509817 L 68.071267 29.141600 L 68.286209 28.772455 L 68.503267 28.402373 L 68.722468 28.031343 L 68.943841 27.659354 L 69.167412 27.286398 L 69.393210 26.912463 L 69.621263 26.537539 L 69.851602 26.161617 L 70.084256 25.784686 L 70.319254 25.406737 L 70.556628 25.027758 L 70.796410 24.647741 L 71.038630 24.266674 L 71.283323 23.884549 L 71.530520 23.501355 L 71.780255 23.117083 L 72.032563 22.731722 L 72.287479 22.345263 L 72.545038 21.957696 L 72.805275 21.569011 L 73.068229 21.179200 L 73.333936 20.788252 L 73.602435 20.396158 L 73.873764 20.002908 L 74.147962 19.608495 L 74.425071 19.212907 L 74.705130 18.816137 L 74.988183 18.418175 L 75.274270 18.019012 L 75.563435 17.618640 L 75.855723 17.217050 L 76.151178 16.814234 L 76.449846 16.410184 L 76.751773 16.004890 L 77.057006 15.598346 L 77.365594 15.190543 L 77.677587 14.781474 L 77.993033 14.371131 L 78.311984 13.959508 L 78.634491 13.546596 L 78.960608 13.132389 L 79.290389 12.716881 L 79.623887 12.300065 L 79.961160 11.881936 L 80.302264 11.462486 L 80.647257 11.041711 L 80.996197 10.619606 L 81.349147 10.196166 L 81.706165 9.771385 L 82.010096 9.412774" fill="none" id="tattoo-path-0d82689708a17b41" stroke="#000000" stroke-linecap="round" stroke-linejoin="round" stroke-width="1.600000"/>
  <path clip-path="url(#tattoo-band-layer-clip)" d="M 94.300292 132.459880 L 94.133052 132.307636 L 93.723000 131.931615 L 93.317111 131.556702 L 92.915320 131.182893 L 92.517566 130.810185 L 92.123786 130.438573 L 91.733920 130.068054 L 91.347909 129.698623 L 90.965695 129.330275 L 90.587221 128.963005 L 90.212431 128.596807 L 89.841269 128.231678 L 89.473682 127.867609 L 89.109618 127.504597 L 88.749023 127.142634 L 88.391847 126.781714 L 88.038040 126.421831 L 87.687553 126.062978 L 87.340337 125.705148 L 86.996345 125.348334 L 86.655530 124.992529 L 86.317847 124.637726 L 85.983250 124.283918 L 85.651696 123.931097 L 85.323141 123.579255 L 84.997542 123.228385 L 84.674859 122.878478 L 84.355049 122.529527 L 84.038072 122.181525 L 83.723889 121.834462 L 83.412460 121.488330 L 83.103748 121.143122 L 82.797715 120.798829 L 82.494324 120.455442 L 82.193538 120.112954 L 81.895322 119.771355 L 81.599640 119.430638 L 81.306459 119.090793 L 81.015744 118.751811 L 80.727463 118.413685 L 80.441581 118.076406 L 80.158068 117.739964 L 79.876891 117.404350 L 79.598019 117.069557 L 79.321423 116.735575 L 79.047070 116.402395 L 78.774933 116.070008 L 78.504982 115.738406 L 78.237189 115.407579 L 77.971525 115.077519 L 77.707962 114.748216 L 77.446474 114.419661 L 77.187034 114.091846 L 76.929615 113.764762 L 76.674191 113.438399 L 76.420738 113.112748 L 76.169230 112.787801 L 75.919642 112.463548 L 75.671950 112.139980 L 75.426131 111.817089 L 75.182161 111.494864 L 74.940016 111.173298 L 74.699675 110.852381 L 74.461114 110.532105 L 74.224312 110.212459 L 73.989247 109.893435 L 73.755899 109.575025 L 73.524245 109.257218 L 73.294265 108.940007 L 73.065940 108.623381 L 72.839248 108.307333 L 72.614171 107.991853 L 72.390689 107.676932 L 72.168784 107.362561 L 71.948435 107.048731 L 71.729625 106.735433 L 71.512336 106.422659 L 71.296550 106.110400 L 71.082249 105.798646 L 70.869415 105.487388 L 70.658033 105.176619 L 70.448084 104.866328 L 70.239553 104.556507 L 70.032424 104.247148 L 69.826679 103.938241 L 69.622304 103.629777 L 69.419282 103.321748 L 69.217599 103.014146 L 69.017240 102.706960 L 68.818189 102.400183 L 68.620432 102.093805 L 68.423955 101.787818 L 68.228743 101.482213 L 68.034783 101.176982 L 67.842061 100.872115 L 67.650562 100.567605 L 67.460275 100.263441 L 67.271185 99.959616 L 67.083280 99.656122 L 66.896548 99.352948 L 66.710974 99.050087 L 66.526548 98.747529 L 66.343257 98.445267 L 66.161089 98.143292 L 65.980032 97.841595 L 65.800075 97.540167 L 65.621206 97.239000 L 65.443414 96.938084 L 65.266688 96.637413 L 65.091017 96.336976 L 64.916389 96.036766 L 64.742795 95.736774 L 64.570225 95.436990 L 64.398666 95.137408 L 64.228111 94.838017 L 64.058548 94.538810 L 63.889968 94.239777 L 63.722361 93.940911 L 63.555718 93.642203 L 63.390029 93.343644 L 63.225285 93.045225 L 63.061476 92.746939 L 62.898595 92.448776 L 62.736632 92.150727 L 62.575578 91.852785 L 62.415425 91.554941 L 62.256164 91.257186 L 62.097787 90.959511 L 61.940287 90.661908 L 61.783654 90.364369 L 61.627881 90.066884 L 61.472961 89.769446 L 61.318885 89.472044 L 61.165646 89.174672 L 61.013236 88.877320 L 60.861649 88.579979 L 60.710877 88.282642 L 60.560913 87.985298 L 60.411750 87.687940 L 60.263382 87.390559 L 60.115801 87.093146 L 59.969000 86.795692 L 59.822974 86.498189 L 59.677716 86.200628 L 59.533220 85.903000 L 59.389479 85.605296 L 59.246487 85.307508 L 59.104239 85.009627 L 58.962729 84.711643 L 58.821950 84.413548 L 58.681897 84.115333 L 58.542565 83.816990 L 58.403947 83.518508 L 58.266040 83.219880 L 58.128836 82.921096 L 57.992332 82.622148 L 57.856522 82.323025 L 57.721401 82.023720 L 57.586965 81.724222 L 57.453208 81.424524 L 57.320125 81.124615 L 57.187713 80.824487 L 57.055966 80.524131 L 56.924880 80.223536 L 56.794451 79.922694 L 56.664675 79.621596 L 56.535547 79.320232 L 56.407064 79.018592 L 56.279220 78.716668 L 56.152014 78.414449 L 56.025440 78.111927 L 55.899495 77.809092 L 55.774175 77.505934 L 55.649477 77.202443 L 55.525398 76.898610 L 55.401933 76.594426 L 55.279080 76.289879 L 55.156836 75.984961 L 55.035197 75.679662 L 54.914161 75.373971 L 54.793724 75.067880 L 54.673883 74.761376 L 54.554637 74.454452 L 54.435982 74.147096 L 54.317915 73.839298 L 54.200434 73.531048 L 54.083537 73.222336 L 53.967222 72.913152 L 53.851486 72.603484 L 53.736326 72.293323 L 53.621741 71.982658 L 53.507730 71.671478 L 53.394289 71.359772 L 53.281418 71.047531 L 53.169114 70.734742 L 53.057375 70.421396 L 52.946201 70.107481 L 52.835590 69.792986 L 52.725540 69.477900 L 52.616050 69.162212 L 52.507120 68.845911 L 52.398747 68.528985 L 52.290930 68.211423 L 52.183670 67.893213 L 52.076965 67.574344 L 51.970814 67.254804 L 51.865216 66.934581 L 51.760171 66.613664 L 51.655680 66.292040 L 51.551740 65.969698 L 51.448352 65.646626 L 51.345516 65.322811 L 51.243231 64.998240 L 51.141498 64.672903 L 51.040316 64.346785 L 50.939687 64.019875 L 50.839610 63.692159 L 50.740085 63.363625 L 50.641113 63.034261 L 50.542695 62.704052 L 50.444832 62.372986 L 50.347523 62.041049 L 50.250771 61.708229 L 50.154576 61.374512 L 50.058939 61.039883 L 49.963861 60.704330 L 49.869345 60.367839 L 49.775390 60.030395 L 49.682000 59.691985 L 49.589175 59.352593 L 49.496917 59.012207 L 49.405229 58.670811 L 49.314112 58.328391 L 49.223568 57.984932 L 49.133600 57.640419 L 49.044211 57.294837 L 48.955402 56.948171 L 48.867176 56.600405 L 48.779537 56.251525 L 48.692487 55.901513 L 48.606029 55.550356 L 48.520166 55.198035 L 48.434902 54.844537 L 48.350240 54.489843 L 48.266184 54.133939 L 48.182738 53.776806 L 48.099905 53.418429 L 48.017690 53.058790 L 47.936096 52.697873 L 47.855129 52.335659 L 47.774792 51.972132 L 47.695091 51.607273 L 47.616030 51.241065 L 47.537615 50.873491 L 47.459850 50.504530 L 47.382740 50.134166 L 47.306293 49.762379 L 47.230512 49.389150 L 47.155405 49.014461 L 47.080977 48.638292 L 47.007234 48.260624 L 46.934183 47.881437 L 46.861831 47.500710 L 46.790185 47.118425 L 46.719251 46.734559 L 46.649038 46.349094 L 46.579551 45.962007 L 46.510800 45.573278 L 46.442793 45.182885 L 46.375537 44.790807 L 46.309040 44.397022 L 46.243313 44.001508 L 46.178362 43.604242 L 46.114199 43.205202 L 46.050831 42.804365 L 45.988270 42.401707 L 45.926523 41.997205 L 45.865603 41.590836 L 45.805520 41.182575 L 45.746283 40.772398 L 45.687905 40.360281 L 45.630396 39.946198 L 45.573769 39.530124 L 45.518035 39.112034 L 45.463207 38.691902 L 45.409297 38.269701 L 45.356318 37.845405 L 45.304284 37.418988 L 45.253207 36.990421 L 45.203103 36.559678 L 45.153985 36.126731 L 45.105869 35.691551 L 45.058769 35.254110 L 45.012701 34.814379 L 44.967680 34.372328 L 44.923724 33.927928 L 44.880849 33.481149 L 44.839071 33.031961 L 44.798410 32.580331 L 44.758882 32.126230 L 44.720506 31.669625 L 44.683301 31.210485 L 44.647288 30.748776 L 44.612485 30.284467 L 44.578913 29.817523 L 44.546593 29.347910 L 44.515548 28.875596 L 44.485798 28.400544 L 44.457367 27.922719 L 44.430277 27.442087 L 44.404554 26.958611 L 44.380220 26.472254 L 44.357302 25.982979 L 44.335825 25.490749 L 44.315815 24.995526 L 44.297300 24.497270 L 44.280307 23.995944 L 44.264865 23.491507 L 44.251002 22.983919 L 44.238749 22.473139 L 44.228137 21.959127 L 44.219197 21.441840 L 44.211961 20.921236 L 44.206462 20.397273 L 44.202735 19.869906 L 44.200815 19.339091 L 44.200737 18.804784 L 44.202537 18.266940 L 44.206254 17.725512 L 44.211927 17.180454 L 44.219594 16.631720 L 44.229296 16.079260 L 44.241076 15.523027 L 44.246688 15.296938" fill="none" id="tattoo-path-0e78cc88e0e26f8c" stroke="#000000" stroke-linecap="round" stroke-linejoin="round" stroke-width="1.200000"/>
  <path clip-path="url(#tattoo-band-layer-clip)" d="M 122.250452 112.441613 L 121.856851 112.211532 L 121.378730 111.931305 L 120.904568 111.652672 L 120.434301 111.375611 L 119.967863 111.100099 L 119.505191 110.826115 L 119.046225 110.553639 L 118.590904 110.282649 L 118.139167 110.013126 L 117.690958 109.745047 L 117.246219 109.478395 L 116.804894 109.213149 L 116.366929 108.949289 L 115.932270 108.686797 L 115.500864 108.425653 L 115.072659 108.165839 L 114.647606 107.907337 L 114.225653 107.650128 L 113.806753 107.394194 L 113.390856 107.139518 L 112.977918 106.886082 L 112.567890 106.633869 L 112.160728 106.382862 L 111.756388 106.133045 L 111.354826 105.884399 L 110.955998 105.636911 L 110.559863 105.390562 L 110.166380 105.145337 L 109.775507 104.901221 L 109.387205 104.658198 L 109.001435 104.416252 L 108.618159 104.175368 L 108.237337 103.935532 L 107.858934 103.696728 L 107.482912 103.458942 L 107.109236 103.222159 L 106.737870 102.986366 L 106.368780 102.751548 L 106.001931 102.517690 L 105.637290 102.284781 L 105.274824 102.052805 L 104.914500 101.821749 L 104.556287 101.591601 L 104.200152 101.362346 L 103.846066 101.133972 L 103.493998 100.906467 L 103.143917 100.679817 L 102.795794 100.454009 L 102.449601 100.229032 L 102.105308 100.004874 L 101.762888 99.781521 L 101.422313 99.558963 L 101.083556 99.337186 L 100.746590 99.116180 L 100.411388 98.895933 L 100.077925 98.676434 L 99.746175 98.457670 L 99.416113 98.239631 L 99.087713 98.022305 L 98.760952 97.805682 L 98.435805 97.589751 L 98.112249 97.374500 L 97.790260 97.159919 L 97.469815 96.945998 L 97.150891 96.732726 L 96.833466 96.520093 L 96.517518 96.308088 L 96.203025 96.096701 L 95.889965 95.885922 L 95.578317 95.675742 L 95.268060 95.466149 L 94.959174 95.257135 L 94.651639 95.048690 L 94.345434 94.840803 L 94.040539 94.633466 L 93.736935 94.426669 L 93.434602 94.220402 L 93.133523 94.014657 L 92.833677 93.809424 L 92.535046 93.604694 L 92.237612 93.400457 L 91.941357 93.196706 L 91.646263 92.993430 L 91.352312 92.790621 L 91.059487 92.588271 L 90.767771 92.386370 L 90.477147 92.184909 L 90.187598 91.983881 L 89.899107 91.783277 L 89.611659 91.583088 L 89.325236 91.383306 L 89.039823 91.183923 L 88.755404 90.984929 L 88.471963 90.786318 L 88.189485 90.588080 L 87.907956 90.390208 L 87.627358 90.192694 L 87.347678 89.995529 L 87.068901 89.798706 L 86.791013 89.602216 L 86.513998 89.406053 L 86.237842 89.210207 L 85.962532 89.014672 L 85.688053 88.819439 L 85.414392 88.624500 L 85.141534 88.429849 L 84.869466 88.235478 L 84.598175 88.041378 L 84.327648 87.847543 L 84.057870 87.653964 L 83.788830 87.460635 L 83.520514 87.267548 L 83.252909 87.074696 L 82.986002 86.882070 L 82.719782 86.689665 L 82.454236 86.497472 L 82.189351 86.305485 L 81.925115 86.113696 L 81.661515 85.922097 L 81.398541 85.730682 L 81.136180 85.539444 L 80.874419 85.348375 L 80.613248 85.157468 L 80.352655 84.966716 L 80.092628 84.776113 L 79.833156 84.585650 L 79.574228 84.395321 L 79.315831 84.205119 L 79.057955 84.015038 L 78.800590 83.825069 L 78.543723 83.635206 L 78.287344 83.445442 L 78.031442 83.255770 L 77.776006 83.066183 L 77.521026 82.876674 L 77.266491 82.687237 L 77.012390 82.497863 L 76.758713 82.308548 L 76.505449 82.119283 L 76.252588 81.930061 L 76.000120 81.740877 L 75.748034 81.551722 L 75.496321 81.362590 L 75.244969 81.173475 L 74.993970 80.984369 L 74.743312 80.795265 L 74.492987 80.606157 L 74.242983 80.417037 L 73.993292 80.227900 L 73.743903 80.038737 L 73.494807 79.849542 L 73.245993 79.660309 L 72.997453 79.471030 L 72.749176 79.281698 L 72.501153 79.092306 L 72.253374 78.902848 L 72.005830 78.713317 L 71.758512 78.523705 L 71.511409 78.334006 L 71.264512 78.144213 L 71.017813 77.954318 L 70.771301 77.764316 L 70.524967 77.574197 L 70.278802 77.383957 L 70.032797 77.193587 L 69.786943 77.003081 L 69.541229 76.812431 L 69.295647 76.621631 L 69.050188 76.430672 L 68.804842 76.239549 L 68.559601 76.048254 L 68.314455 75.856779 L 68.069395 75.665118 L 67.824412 75.473263 L 67.579496 75.281206 L 67.334639 75.088942 L 67.089832 74.896461 L 66.845065 74.703757 L 66.600330 74.510823 L 66.355617 74.317650 L 66.110918 74.124232 L 65.866222 73.930560 L 65.621522 73.736628 L 65.376807 73.542427 L 65.132070 73.347951 L 64.887301 73.153191 L 64.642490 72.958139 L 64.397629 72.762788 L 64.152709 72.567130 L 63.907720 72.371158 L 63.662654 72.174862 L 63.417501 71.978235 L 63.172252 71.781270 L 62.926899 71.583958 L 62.681431 71.386291 L 62.435840 71.188260 L 62.190117 70.989858 L 61.944252 70.791077 L 61.698235 70.591907 L 61.452059 70.392341 L 61.205714 70.192369 L 60.959189 69.991984 L 60.712477 69.791177 L 60.465567 69.589939 L 60.218450 69.388262 L 59.971117 69.186135 L 59.723558 68.983552 L 59.475765 68.780502 L 59.227726 68.576977 L 58.979433 68.372968 L 58.730877 68.168465 L 58.482047 67.963459 L 58.232934 67.757941 L 57.983528 67.551901 L 57.733820 67.345330 L 57.483800 67.138218 L 57.233457 66.930556 L 56.982782 66.722333 L 56.731765 66.513540 L 56.480397 66.304167 L 56.228666 66.094203 L 55.976563 65.883640 L 55.724078 65.672465 L 55.471200 65.460670 L 55.217920 65.248243 L 54.964226 65.035173 L 54.710110 64.821451 L 54.455559 64.607066 L 54.200564 64.392005 L 53.945113 64.176259 L 53.689198 63.959816 L 53.432805 63.742665 L 53.175926 63.524795 L 52.918548 63.306193 L 52.660662 63.086849 L 52.402255 62.866751 L 52.143317 62.645885 L 51.883837 62.424242 L 51.623803 62.201807 L 51.363204 61.978570 L 51.102029 61.754516 L 50.840265 61.529635 L 50.577902 61.303913 L 50.314928 61.077336 L 50.051330 60.849892 L 49.787097 60.621568 L 49.522217 60.392350 L 49.256677 60.162225 L 48.990466 59.931178 L 48.723571 59.699196 L 48.455979 59.466265 L 48.187679 59.232370 L 47.918657 58.997496 L 47.648900 58.761630 L 47.378396 58.524756 L 47.107131 58.286859 L 46.835093 58.047924 L 46.562268 57.807935 L 46.288642 57.566877 L 46.014202 57.324733 L 45.738935 57.081488 L 45.462826 56.837125 L 45.185861 56.591627 L 44.908027 56.344978 L 44.629309 56.097161 L 44.349692 55.848157 L 44.069162 55.597951 L 43.787705 55.346523 L 43.505304 55.093856 L 43.221946 54.839932 L 42.937615 54.584731 L 42.652295 54.328236 L 42.365972 54.070425 L 42.078628 53.811282 L 41.790249 53.550784 L 41.500818 53.288914 L 41.210318 53.025649 L 40.918734 52.760969 L 40.626048 52.494854 L 40.332244 52.227282 L 40.037304 51.958231 L 39.741211 51.687680 L 39.443948 51.415606 L 39.145497 51.141986 L 38.845839 50.866797 L 38.544957 50.590016 L 38.242832 50.311618 L 37.939446 50.031581 L 37.634779 49.749878 L 37.328812 49.466486 L 37.021526 49.181378 L 36.712902 48.894528 L 36.402919 48.605911 L 36.091557 48.315500 L 35.778795 48.023267 L 35.464614 47.729184 L 35.148991 47.433224 L 34.831906 47.135359 L 34.513336 46.835557 L 34.193261 46.533791 L 33.871657 46.230030 L 33.548503 45.924243 L 33.223775 45.616399 L 32.897450 45.306466 L 32.569504 44.994411 L 32.239915 44.680202 L 31.908657 44.363806 L 31.575706 44.045187 L 31.241038 43.724311 L 30.904626 43.401143 L 30.566445 43.075647 L 30.226470 42.747785 L 29.884673 42.417520 L 29.541028 42.084814 L 29.195508 41.749628 L 28.848085 41.411922 L 28.498730 41.071655 L 28.147417 40.728788 L 27.794114 40.383276 L 27.438794 40.035079 L 27.081426 39.684151 L 26.721980 39.330448 L 26.360424 38.973925 L 25.996729 38.614535 L 25.630861 38.252232 L 25.262789 37.886966 L 24.892479 37.518689 L 24.519899 37.147349 L 24.145014 36.772897 L 23.767790 36.395279 L 23.388192 36.014442 L 23.006184 35.630331 L 22.621730 35.242891 L 22.234793 34.852064 L 21.845335 34.457794 L 21.525313 34.133070" fill="none" id="tattoo-path-1c8b83da55e0ba71" stroke="#000000" stroke-linecap="round" stroke-linejoin="round" stroke-width="1.000000"/>
  <path clip-path="url(#tattoo-band-layer-clip)" d="M 8.711774 73.725656 L 9.191004 73.660250 L 9.739937 73.585838 L 10.284740 73.512486 L 10.825479 73.440175 L 11.362219 73.368883 L 11.895024 73.298592 L 12.423956 73.229283 L 12.949078 73.160937 L 13.470448 73.093537 L 13.988126 73.027064 L 14.502170 72.961502 L 15.012638 72.896834 L 15.519584 72.833044 L 16.023065 72.770115 L 16.523133 72.708033 L 17.019842 72.646781 L 17.513243 72.586346 L 18.003388 72.526712 L 18.490327 72.467866 L 18.974109 72.409793 L 19.454782 72.352481 L 19.932395 72.295915 L 20.406992 72.240084 L 20.878622 72.184974 L 21.347328 72.130573 L 21.813155 72.076869 L 22.276147 72.023851 L 22.736347 71.971506 L 23.193796 71.919824 L 23.648536 71.868793 L 24.100608 71.818403 L 24.550053 71.768643 L 24.996908 71.719503 L 25.441214 71.670973 L 25.883009 71.623043 L 26.322329 71.575703 L 26.759213 71.528943 L 27.193696 71.482756 L 27.625814 71.437131 L 28.055602 71.392060 L 28.483096 71.347534 L 28.908328 71.303544 L 29.331334 71.260083 L 29.752146 71.217142 L 30.170796 71.174713 L 30.587318 71.132788 L 31.001741 71.091360 L 31.414099 71.050422 L 31.824420 71.009966 L 32.232737 70.969984 L 32.639077 70.930470 L 33.043472 70.891418 L 33.445949 70.852819 L 33.846538 70.814668 L 34.245266 70.776959 L 34.642161 70.739684 L 35.037251 70.702837 L 35.430563 70.666414 L 35.822123 70.630406 L 36.211957 70.594810 L 36.600092 70.559619 L 36.986552 70.524827 L 37.371364 70.490429 L 37.754551 70.456419 L 38.136139 70.422793 L 38.516152 70.389545 L 38.894613 70.356669 L 39.271546 70.324162 L 39.646975 70.292018 L 40.020922 70.260232 L 40.393411 70.228800 L 40.764463 70.197717 L 41.134100 70.166979 L 41.502345 70.136581 L 41.869219 70.106518 L 42.234744 70.076787 L 42.598940 70.047383 L 42.961829 70.018303 L 43.323430 69.989542 L 43.683765 69.961096 L 44.042853 69.932962 L 44.400714 69.905136 L 44.757369 69.877613 L 45.112835 69.850391 L 45.467134 69.823465 L 45.820282 69.796833 L 46.172300 69.770491 L 46.523206 69.744435 L 46.873019 69.718663 L 47.221755 69.693170 L 47.569435 69.667954 L 47.916074 69.643011 L 48.261692 69.618340 L 48.606305 69.593935 L 48.949930 69.569796 L 49.292586 69.545918 L 49.634288 69.522299 L 49.975053 69.498936 L 50.314899 69.475827 L 50.653841 69.452968 L 50.991896 69.430357 L 51.329080 69.407992 L 51.665408 69.385870 L 52.000898 69.363989 L 52.335564 69.342346 L 52.669422 69.320938 L 53.002488 69.299764 L 53.334777 69.278821 L 53.666304 69.258107 L 53.997083 69.237620 L 54.327131 69.217357 L 54.656462 69.197317 L 54.985090 69.177497 L 55.313030 69.157896 L 55.640297 69.138511 L 55.966905 69.119341 L 56.292867 69.100383 L 56.618199 69.081635 L 56.942915 69.063097 L 57.267028 69.044766 L 57.590551 69.026640 L 57.913500 69.008718 L 58.235887 68.990997 L 58.557727 68.973477 L 58.879032 68.956156 L 59.199816 68.939032 L 59.520092 68.922103 L 59.839874 68.905369 L 60.159174 68.888827 L 60.478007 68.872476 L 60.796384 68.856315 L 61.114319 68.840343 L 61.431824 68.824557 L 61.748913 68.808958 L 62.065598 68.793542 L 62.381893 68.778310 L 62.697808 68.763260 L 63.013358 68.748391 L 63.328554 68.733702 L 63.643409 68.719191 L 63.957935 68.704857 L 64.272146 68.690700 L 64.586052 68.676718 L 64.899666 68.662910 L 65.213001 68.649276 L 65.526069 68.635814 L 65.838882 68.622523 L 66.151451 68.609403 L 66.463789 68.596453 L 66.775908 68.583671 L 67.087820 68.571057 L 67.399537 68.558610 L 67.711071 68.546330 L 68.022434 68.534215 L 68.333637 68.522265 L 68.644692 68.510480 L 68.955612 68.498858 L 69.266407 68.487398 L 69.577091 68.476101 L 69.887674 68.464966 L 70.198168 68.453992 L 70.508585 68.443178 L 70.818937 68.432524 L 71.129236 68.422030 L 71.439492 68.411694 L 71.749719 68.401518 L 72.059927 68.391499 L 72.370128 68.381638 L 72.680335 68.371935 L 72.990558 68.362388 L 73.300809 68.352998 L 73.611100 68.343765 L 73.921444 68.334687 L 74.231850 68.325765 L 74.542332 68.316999 L 74.852901 68.308389 L 75.163568 68.299933 L 75.474346 68.291632 L 75.785246 68.283487 L 76.096280 68.275496 L 76.407460 68.267659 L 76.718798 68.259977 L 77.030305 68.252450 L 77.341993 68.245077 L 77.653875 68.237859 L 77.965962 68.230795 L 78.278267 68.223885 L 78.590801 68.217131 L 78.903576 68.210531 L 79.216604 68.204086 L 79.529898 68.197795 L 79.843469 68.191660 L 80.157331 68.185681 L 80.471494 68.179857 L 80.785972 68.174188 L 81.100777 68.168676 L 81.415921 68.163320 L 81.731416 68.158121 L 82.047275 68.153079 L 82.363511 68.148194 L 82.680137 68.143467 L 82.997164 68.138898 L 83.314606 68.134488 L 83.632475 68.130237 L 83.950785 68.126146 L 84.269548 68.122215 L 84.588777 68.118444 L 84.908485 68.114835 L 85.228686 68.111388 L 85.549392 68.108103 L 85.870618 68.104982 L 86.192376 68.102024 L 86.514680 68.099232 L 86.837543 68.096604 L 87.160979 68.094143 L 87.485002 68.091848 L 87.809626 68.089722 L 88.134864 68.087764 L 88.460731 68.085976 L 88.787241 68.084358 L 89.114407 68.082912 L 89.442245 68.081638 L 89.770769 68.080538 L 90.099993 68.079613 L 90.429932 68.078863 L 90.760600 68.078290 L 91.092014 68.077895 L 91.424187 68.077679 L 91.757135 68.077644 L 92.090873 68.077791 L 92.425417 68.078120 L 92.760782 68.078634 L 93.096983 68.079334 L 93.434038 68.080221 L 93.771961 68.081297 L 94.110769 68.082563 L 94.450478 68.084020 L 94.791104 68.085671 L 95.132664 68.087517 L 95.475176 68.089559 L 95.818655 68.091800 L 96.163118 68.094241 L 96.508584 68.096884 L 96.855070 68.099730 L 97.202592 68.102782 L 97.551169 68.106042 L 97.900819 68.109511 L 98.251560 68.113192 L 98.603411 68.117087 L 98.956389 68.121197 L 99.310514 68.125526 L 99.665805 68.130074 L 100.022281 68.134846 L 100.379960 68.139842 L 100.738864 68.145065 L 101.099011 68.150518 L 101.460422 68.156204 L 101.823118 68.162125 L 102.187117 68.168283 L 102.552443 68.174681 L 102.919114 68.181322 L 103.287154 68.188209 L 103.656582 68.195345 L 104.027422 68.202733 L 104.399695 68.210375 L 104.773424 68.218276 L 105.148631 68.226437 L 105.525339 68.234862 L 105.903571 68.243556 L 106.283352 68.252520 L 106.664704 68.261759 L 107.047653 68.271275 L 107.432222 68.281074 L 107.818436 68.291158 L 108.206321 68.301531 L 108.595902 68.312197 L 108.987204 68.323161 L 109.380255 68.334425 L 109.775080 68.345995 L 110.171706 68.357875 L 110.570162 68.370069 L 110.970474 68.382581 L 111.372670 68.395416 L 111.776780 68.408579 L 112.182831 68.422075 L 112.590854 68.435908 L 113.000878 68.450083 L 113.412934 68.464606 L 113.827051 68.479481 L 114.243262 68.494715 L 114.661597 68.510313 L 115.082089 68.526279 L 115.504770 68.542621 L 115.929674 68.559344 L 116.356833 68.576453 L 116.786283 68.593956 L 117.218057 68.611858 L 117.652191 68.630166 L 118.088721 68.648886 L 118.527683 68.668026 L 118.969113 68.687592 L 119.413050 68.707590 L 119.859531 68.728030 L 120.308595 68.748917 L 120.760281 68.770260 L 121.214630 68.792066 L 121.671682 68.814344 L 122.131479 68.837101 L 122.594062 68.860346 L 123.059474 68.884088 L 123.527760 68.908334 L 123.998962 68.933096 L 124.473127 68.958380 L 124.950300 68.984198 L 125.430527 69.010558 L 125.913856 69.037471 L 126.400336 69.064946 L 126.890015 69.092995 L 127.382943 69.121627 L 127.879172 69.150855 L 128.378753 69.180689 L 128.881740 69.211140 L 129.388185 69.242221 L 129.898143 69.273943 L 130.411671 69.306320 L 130.928825 69.339363 L 131.449663 69.373087 L 131.974244 69.407503 L 132.502628 69.442627 L 133.034876 69.478472 L 133.571051 69.515053 L 134.111217 69.552385 L 134.655437 69.590482 L 135.203780 69.629362 L 135.756310 69.669039 L 136.238709 69.704121" fill="none" id="tattoo-path-3155cece2ff8fc84" stroke="#000000" stroke-linecap="round" stroke-linejoin="round" stroke-width="0.800000"/>
  <circle cx="72.500000" cy="72.500000" fill="none" id="tattoo-boundary-da45c61d325de3be" r="64.900000" stroke="#000000" stroke-width="2.200000"/>
</svg>
