<svg height="145.000000mm" version="1.1" viewBox="0 0 145.000000 145.000000" width="145.000000mm" xmlns="http://www.w3.org/2000/svg">
  <defs>
    <clipPath clipPathUnits="userSpaceOnUse" id="tattoo-band-layer-clip">
      <circle cx="72.500000" cy="72.500000" r="63.800000"/>
    </clipPath>
  </defs>
  <path clip-path="url(#tattoo-band-layer-clip)" d="M 67.274414 136.085637 L 67.381488 135.753986 L 67.551089 135.225442 L 67.718485 134.700571 L 67.883718 134.179317 L 68.046827 133.661627 L 68.207850 133.147447 L 68.366827 132.636724 L 68.523793 132.129407 L 68.678786 131.625445 L 68.831839 131.124789 L 68.982987 130.627389 L 69.132265 130.133197 L 69.279705 129.642166 L 69.425340 129.154249 L 69.569200 128.669401 L 69.711316 128.187575 L 69.851719 127.708729 L 69.990437 127.232818 L 70.127501 126.759800 L 70.262936 126.289631 L 70.396772 125.822271 L 70.529035 125.357679 L 70.659751 124.895814 L 70.788946 124.436638 L 70.916645 123.980109 L 71.042873 123.526192 L 71.167654 123.074846 L 71.291011 122.626037 L 71.412968 122.179726 L 71.533547 121.735877 L 71.652770 121.294456 L 71.770659 120.855427 L 71.887235 120.418755 L 72.002518 119.984407 L 72.116530 119.552349 L 72.229290 119.122548 L 72.340817 118.694972 L 72.451131 118.269588 L 72.560251 117.846366 L 72.668194 117.425273 L 72.774978 117.006280 L 72.880622 116.589356 L 72.985142 116.174472 L 73.088555 115.761597 L 73.190878 115.350703 L 73.292127 114.941762 L 73.392318 114.534745 L 73.491467 114.129624 L 73.589589 113.726373 L 73.686698 113.324964 L 73.782809 112.925370 L 73.877938 112.527565 L 73.972097 112.131523 L 74.065301 111.737219 L 74.157564 111.344626 L 74.248898 110.953722 L 74.339317 110.564480 L 74.428834 110.176876 L 74.517460 109.790886 L 74.605209 109.406488 L 74.692092 109.023656 L 74.778122 108.642369 L 74.863310 108.262603 L 74.947666 107.884335 L 75.031204 107.507545 L 75.113933 107.132208 L 75.195864 106.758305 L 75.277009 106.385813 L 75.357376 106.014711 L 75.436977 105.644979 L 75.515821 105.276594 L 75.593919 104.909538 L 75.671280 104.543790 L 75.747912 104.179329 L 75.823827 103.816136 L 75.899032 103.454192 L 75.973537 103.093477 L 76.047351 102.733971 L 76.120481 102.375657 L 76.192937 102.018515 L 76.264727 101.662526 L 76.335859 101.307673 L 76.406341 100.953938 L 76.476181 100.601301 L 76.545386 100.249747 L 76.613965 99.899256 L 76.681924 99.549812 L 76.749272 99.201397 L 76.816014 98.853995 L 76.882159 98.507588 L 76.947712 98.162160 L 77.012682 97.817694 L 77.077074 97.474174 L 77.140896 97.131584 L 77.204152 96.789906 L 77.266851 96.449127 L 77.328998 96.109229 L 77.390600 95.770197 L 77.451661 95.432015 L 77.512189 95.094669 L 77.572188 94.758142 L 77.631665 94.422421 L 77.690625 94.087488 L 77.749074 93.753331 L 77.807017 93.419934 L 77.864459 93.087282 L 77.921406 92.755361 L 77.977862 92.424156 L 78.033832 92.093654 L 78.089322 91.763840 L 78.144337 91.434700 L 78.198880 91.106219 L 78.252957 90.778385 L 78.306572 90.451183 L 78.359730 90.124599 L 78.412435 89.798621 L 78.464691 89.473234 L 78.516503 89.148425 L 78.567874 88.824181 L 78.618810 88.500489 L 78.669313 88.177334 L 78.719388 87.854706 L 78.769039 87.532589 L 78.818269 87.210972 L 78.867082 86.889842 L 78.915482 86.569185 L 78.963472 86.248990 L 79.011057 85.929243 L 79.058238 85.609932 L 79.105020 85.291044 L 79.151406 84.972567 L 79.197399 84.654489 L 79.243002 84.336797 L 79.288219 84.019479 L 79.333053 83.702523 L 79.377505 83.385916 L 79.421580 83.069647 L 79.465281 82.753704 L 79.508609 82.438074 L 79.551568 82.122745 L 79.594161 81.807706 L 79.636390 81.492945 L 79.678257 81.178449 L 79.719765 80.864208 L 79.760918 80.550208 L 79.801716 80.236440 L 79.842162 79.922890 L 79.882259 79.609548 L 79.922009 79.296401 L 79.961414 78.983438 L 80.000476 78.670647 L 80.039198 78.358017 L 80.077581 78.045536 L 80.115627 77.733194 L 80.153338 77.420977 L 80.190716 77.108875 L 80.227764 76.796877 L 80.264481 76.484970 L 80.300872 76.173144 L 80.336936 75.861387 L 80.372676 75.549688 L 80.408093 75.238035 L 80.443189 74.926416 L 80.477965 74.614821 L 80.512423 74.303238 L 80.546564 73.991656 L 80.580390 73.680063 L 80.613901 73.368448 L 80.647099 73.056800 L 80.679985 72.745106 L 80.712561 72.433356 L 80.744827 72.121539 L 80.776784 71.809642 L 80.808434 71.497655 L 80.839777 71.185566 L 80.870815 70.873363 L 80.901548 70.561035 L 80.931976 70.248571 L 80.962102 69.935959 L 80.991925 69.623188 L 81.021447 69.310245 L 81.050667 68.997120 L 81.079587 68.683800 L 81.108207 68.370274 L 81.136528 68.056531 L 81.164550 67.742559 L 81.192273 67.428345 L 81.219697 67.113879 L 81.246824 66.799149 L 81.273654 66.484141 L 81.300186 66.168846 L 81.326420 65.853250 L 81.352358 65.537342 L 81.377999 65.221110 L 81.403343 64.904541 L 81.428390 64.587624 L 81.453140 64.270347 L 81.477593 63.952696 L 81.501749 63.634661 L 81.525607 63.316228 L 81.549168 62.997385 L 81.572430 62.678120 L 81.595395 62.358421 L 81.618061 62.038274 L 81.640428 61.717667 L 81.662495 61.396587 L 81.684262 61.075022 L 81.705728 60.752958 L 81.726893 60.430384 L 81.747756 60.107285 L 81.768316 59.783648 L 81.788572 59.459461 L 81.808524 59.134711 L 81.828171 58.809383 L 81.847511 58.483464 L 81.866544 58.156942 L 81.885269 57.829802 L 81.903684 57.502030 L 81.921788 57.173614 L 81.939580 56.844538 L 81.957060 56.514789 L 81.974224 56.184354 L 81.991072 55.853216 L 82.007603 55.521363 L 82.023815 55.188780 L 82.039706 54.855452 L 82.055275 54.521365 L 82.070519 54.186504 L 82.085438 53.850854 L 82.100029 53.514399 L 82.114291 53.177126 L 82.128221 52.839018 L 82.141817 52.500060 L 82.155077 52.160236 L 82.168000 51.819531 L 82.180582 51.477930 L 82.192821 51.135415 L 82.204715 50.791971 L 82.216262 50.447582 L 82.227459 50.102230 L 82.238303 49.755900 L 82.248791 49.408575 L 82.258921 49.060238 L 82.268690 48.710872 L 82.278095 48.360458 L 82.287133 48.008981 L 82.295800 47.656423 L 82.304093 47.302764 L 82.312010 46.947989 L 82.319546 46.592078 L 82.326699 46.235012 L 82.333464 45.876774 L 82.339838 45.517345 L 82.345817 45.156706 L 82.351398 44.794837 L 82.356575 44.431719 L 82.361346 44.067332 L 82.365706 43.701657 L 82.369650 43.334673 L 82.373174 42.966361 L 82.376274 42.596699 L 82.378945 42.225667 L 82.381183 41.853243 L 82.382982 41.479407 L 82.384337 41.104137 L 82.385243 40.727411 L 82.385695 40.349207 L 82.385688 39.969502 L 82.385216 39.588275 L 82.384274 39.205501 L 82.382855 38.821159 L 82.380954 38.435223 L 82.378564 38.047671 L 82.375680 37.658479 L 82.372294 37.267621 L 82.368401 36.875074 L 82.363994 36.480811 L 82.359066 36.084808 L 82.353610 35.687039 L 82.347618 35.287478 L 82.341084 34.886098 L 82.333999 34.482873 L 82.326357 34.077775 L 82.318149 33.670776 L 82.309366 33.261850 L 82.300002 32.850966 L 82.290047 32.438098 L 82.279492 32.023214 L 82.268329 31.606287 L 82.256548 31.187285 L 82.244141 30.766179 L 82.231097 30.342937 L 82.217407 29.917529 L 82.203061 29.489922 L 82.188048 29.060084 L 82.172358 28.627982 L 82.155980 28.193583 L 82.138903 27.756854 L 82.121116 27.317759 L 82.102607 26.876265 L 82.083364 26.432336 L 82.063376 25.985935 L 82.042629 25.537028 L 82.021111 25.085575 L 81.998808 24.631541 L 81.975708 24.174887 L 81.951797 23.715573 L 81.927060 23.253561 L 81.901483 22.788811 L 81.875051 22.321281 L 81.847750 21.850930 L 81.819563 21.377717 L 81.790474 20.901599 L 81.760468 20.422532 L 81.729528 19.940472 L 81.697635 19.455374 L 81.664774 18.967192 L 81.630925 18.475880 L 81.596070 17.981392 L 81.560191 17.483677 L 81.523267 16.982689 L 81.485279 16.478377 L 81.446207 15.970691 L 81.406028 15.459579 L 81.364722 14.944988 L 81.322267 14.426866 L 81.278640 13.905159 L 81.233817 13.379810 L 81.187774 12.850765 L 81.140488 12.317965 L 81.091933 11.781353 L 81.042083 11.240870 L 80.990911 10.696454 L 80.938390 10.148045 L 80.884492 9.595579 L 80.850034 9.248779" fill="none" id="tattoo-path-294bceb70ddaee3b" stroke="#000000" stroke-linecap="round" stroke-linejoin="round" stroke-width="4.800000"/>
  <path clip-path="url(#tattoo-band-layer-clip)" d="M 22.785795 112.486721 L 22.927688 112.075809 L 23.111071 111.551829 L 23.295407 111.032032 L 23.480669 110.516361 L 23.666830 110.004762 L 23.853864 109.497184 L 24.041745 108.993573 L 24.230450 108.493878 L 24.419954 107.998048 L 24.610234 107.506033 L 24.801268 107.017784 L 24.993035 106.533252 L 25.185513 106.052389 L 25.378682 105.575148 L 25.572524 105.101483 L 25.767018 104.631347 L 25.962147 104.164695 L 26.157893 103.701484 L 26.354239 103.241668 L 26.551168 102.785205 L 26.748664 102.332052 L 26.946712 101.882167 L 27.145297 101.435509 L 27.344405 100.992037 L 27.544021 100.551710 L 27.744132 100.114489 L 27.944726 99.680335 L 28.145789 99.249210 L 28.347309 98.821075 L 28.549276 98.395893 L 28.751676 97.973627 L 28.954501 97.554241 L 29.157739 97.137699 L 29.361380 96.723965 L 29.565414 96.313005 L 29.769833 95.904784 L 29.974626 95.499269 L 30.179786 95.096427 L 30.385305 94.696223 L 30.591174 94.298626 L 30.797385 93.903604 L 31.003932 93.511126 L 31.210806 93.121159 L 31.418003 92.733674 L 31.625514 92.348641 L 31.833334 91.966029 L 32.041457 91.585809 L 32.249877 91.207952 L 32.458589 90.832429 L 32.667588 90.459213 L 32.876868 90.088275 L 33.086426 89.719589 L 33.296256 89.353126 L 33.506356 88.988861 L 33.716719 88.626767 L 33.927343 88.266817 L 34.138225 87.908988 L 34.349361 87.553252 L 34.560747 87.199586 L 34.772381 86.847964 L 34.984261 86.498363 L 35.196383 86.150758 L 35.408745 85.805127 L 35.621345 85.461445 L 35.834180 85.119689 L 36.047250 84.779838 L 36.260553 84.441868 L 36.474086 84.105758 L 36.687848 83.771486 L 36.901839 83.439030 L 37.116057 83.108369 L 37.330502 82.779482 L 37.545172 82.452349 L 37.760066 82.126948 L 37.975185 81.803261 L 38.190529 81.481267 L 38.406096 81.160947 L 38.621886 80.842280 L 38.837901 80.525249 L 39.054139 80.209834 L 39.270602 79.896017 L 39.487289 79.583779 L 39.704201 79.273103 L 39.921340 78.963969 L 40.138704 78.656361 L 40.356297 78.350262 L 40.574117 78.045653 L 40.792167 77.742518 L 41.010448 77.440840 L 41.228961 77.140603 L 41.447707 76.841790 L 41.666688 76.544385 L 41.885905 76.248373 L 42.105361 75.953736 L 42.325057 75.660460 L 42.544994 75.368529 L 42.765175 75.077929 L 42.985602 74.788644 L 43.206277 74.500659 L 43.427202 74.213960 L 43.648380 73.928532 L 43.869813 73.644361 L 44.091503 73.361433 L 44.313453 73.079734 L 44.535666 72.799250 L 44.758144 72.519968 L 44.980891 72.241874 L 45.203909 71.964955 L 45.427201 71.689197 L 45.650771 71.414589 L 45.874620 71.141117 L 46.098754 70.868768 L 46.323174 70.597531 L 46.547884 70.327392 L 46.772889 70.058339 L 46.998190 69.790361 L 47.223792 69.523446 L 47.449698 69.257581 L 47.675913 68.992756 L 47.902440 68.728958 L 48.129282 68.466177 L 48.356444 68.204401 L 48.583930 67.943619 L 48.811744 67.683820 L 49.039890 67.424993 L 49.268372 67.167129 L 49.497194 66.910215 L 49.726361 66.654242 L 49.955878 66.399200 L 50.185748 66.145077 L 50.415976 65.891865 L 50.646568 65.639553 L 50.877527 65.388131 L 51.108858 65.137590 L 51.340566 64.887920 L 51.572657 64.639111 L 51.805134 64.391155 L 52.038003 64.144041 L 52.271270 63.897761 L 52.504938 63.652306 L 52.739014 63.407666 L 52.973503 63.163833 L 53.208410 62.920799 L 53.443740 62.678553 L 53.679500 62.437089 L 53.915693 62.196397 L 54.152327 61.956469 L 54.389407 61.717298 L 54.626939 61.478874 L 54.864927 61.241189 L 55.103379 61.004237 L 55.342301 60.768008 L 55.581697 60.532495 L 55.821575 60.297691 L 56.061941 60.063588 L 56.302800 59.830178 L 56.544159 59.597454 L 56.786025 59.365409 L 57.028403 59.134036 L 57.271301 58.903326 L 57.514725 58.673274 L 57.758682 58.443873 L 58.003177 58.215115 L 58.248220 57.986993 L 58.493815 57.759502 L 58.739970 57.532633 L 58.986692 57.306382 L 59.233989 57.080741 L 59.481866 56.855704 L 59.730333 56.631264 L 59.979395 56.407416 L 60.229060 56.184154 L 60.479337 55.961470 L 60.730232 55.739360 L 60.981753 55.517818 L 61.233907 55.296836 L 61.486704 55.076411 L 61.740150 54.856536 L 61.994253 54.637206 L 62.249022 54.418415 L 62.504465 54.200157 L 62.760589 53.982428 L 63.017404 53.765221 L 63.274918 53.548533 L 63.533139 53.332357 L 63.792076 53.116689 L 64.051737 52.901524 L 64.312132 52.686856 L 64.573268 52.472682 L 64.835156 52.258996 L 65.097804 52.045793 L 65.361222 51.833069 L 65.625418 51.620820 L 65.890402 51.409040 L 66.156184 51.197727 L 66.422772 50.986874 L 66.690177 50.776479 L 66.958409 50.566537 L 67.227477 50.357043 L 67.497391 50.147995 L 67.768161 49.939387 L 68.039798 49.731217 L 68.312312 49.523480 L 68.585713 49.316172 L 68.860012 49.109291 L 69.135219 48.902832 L 69.411346 48.696793 L 69.688403 48.491169 L 69.966400 48.285957 L 70.245350 48.081155 L 70.525264 47.876758 L 70.806152 47.672765 L 71.088026 47.469171 L 71.370899 47.265975 L 71.654781 47.063173 L 71.939684 46.860762 L 72.225622 46.658741 L 72.512605 46.457105 L 72.800646 46.255854 L 73.089757 46.054983 L 73.379952 45.854492 L 73.671242 45.654378 L 73.963641 45.454638 L 74.257161 45.255271 L 74.551816 45.056275 L 74.847620 44.857648 L 75.144584 44.659388 L 75.442724 44.461493 L 75.742053 44.263961 L 76.042585 44.066792 L 76.344333 43.869984 L 76.647313 43.673536 L 76.951538 43.477446 L 77.257023 43.281713 L 77.563784 43.086336 L 77.871834 42.891315 L 78.181189 42.696648 L 78.491865 42.502335 L 78.803876 42.308375 L 79.117239 42.114768 L 79.431969 41.921513 L 79.748083 41.728611 L 80.065596 41.536061 L 80.384525 41.343862 L 80.704887 41.152016 L 81.026698 40.960522 L 81.349975 40.769381 L 81.674737 40.578593 L 82.000999 40.388159 L 82.328781 40.198079 L 82.658099 40.008355 L 82.988972 39.818987 L 83.321419 39.629976 L 83.655457 39.441325 L 83.991106 39.253033 L 84.328384 39.065103 L 84.667311 38.877537 L 85.007907 38.690336 L 85.350191 38.503502 L 85.694183 38.317038 L 86.039903 38.130945 L 86.387372 37.945227 L 86.736611 37.759886 L 87.087641 37.574925 L 87.440483 37.390347 L 87.795158 37.206155 L 88.151689 37.022352 L 88.510097 36.838942 L 88.870406 36.655929 L 89.232637 36.473316 L 89.596815 36.291109 L 89.962961 36.109310 L 90.331100 35.927926 L 90.701256 35.746960 L 91.073453 35.566417 L 91.447715 35.386304 L 91.824068 35.206624 L 92.202536 35.027384 L 92.583145 34.848590 L 92.965922 34.670249 L 93.350891 34.492365 L 93.738081 34.314947 L 94.127517 34.138000 L 94.519228 33.961533 L 94.913240 33.785552 L 95.309582 33.610066 L 95.708283 33.435083 L 96.109370 33.260610 L 96.512874 33.086657 L 96.918823 32.913232 L 97.327248 32.740346 L 97.738180 32.568006 L 98.151648 32.396225 L 98.567685 32.225011 L 98.986321 32.054375 L 99.407590 31.884329 L 99.831523 31.714883 L 100.258154 31.546051 L 100.687515 31.377843 L 101.119641 31.210272 L 101.554567 31.043352 L 101.992326 30.877096 L 102.432955 30.711518 L 102.876490 30.546631 L 103.322965 30.382451 L 103.772419 30.218994 L 104.224889 30.056274 L 104.680412 29.894308 L 105.139027 29.733112 L 105.600772 29.572705 L 106.065688 29.413104 L 106.533814 29.254326 L 107.005191 29.096392 L 107.479860 28.939320 L 107.957863 28.783131 L 108.439241 28.627845 L 108.924039 28.473484 L 109.412298 28.320070 L 109.904065 28.167625 L 110.399382 28.016173 L 110.898296 27.865738 L 111.400852 27.716345 L 111.907098 27.568019 L 112.417080 27.420787 L 112.930846 27.274676 L 113.448446 27.129713 L 113.969928 26.985927 L 114.495342 26.843349 L 115.024739 26.702009 L 115.558171 26.561937 L 116.095690 26.423167 L 116.517059 26.316252" fill="none" id="tattoo-path-f33767497c41b8f8" stroke="#000000" stroke-linecap="round" stroke-linejoin="round" stroke-width="4.200000"/>
  <path clip-path="url(#tattoo-band-layer-clip)" d="M 127.687114 104.512848 L 127.636772 104.235654 L 127.533973 103.688211 L 127.428459 103.144138 L 127.320278 102.603412 L 127.209473 102.066011 L 127.096091 101.531913 L 126.980173 101.001096 L 126.861763 100.473537 L 126.740902 99.949215 L 126.617630 99.428106 L 126.491989 98.910188 L 126.364016 98.395440 L 126.233751 97.883838 L 126.101231 97.375360 L 125.966492 96.869985 L 125.829571 96.367689 L 125.690503 95.868451 L 125.549323 95.372248 L 125.406065 94.879058 L 125.260760 94.388860 L 125.113443 93.901631 L 124.964145 93.417350 L 124.812897 92.935994 L 124.659729 92.457541 L 124.504672 91.981971 L 124.347754 91.509261 L 124.189004 91.039391 L 124.028450 90.572338 L 123.866120 90.108081 L 123.702039 89.646599 L 123.536235 89.187872 L 123.368733 88.731878 L 123.199558 88.278596 L 123.028734 87.828005 L 122.856287 87.380086 L 122.682238 86.934817 L 122.506612 86.492178 L 122.329430 86.052149 L 122.150714 85.614710 L 121.970487 85.179840 L 121.788769 84.747521 L 121.605580 84.317732 L 121.420941 83.890453 L 121.234872 83.465666 L 121.047391 83.043351 L 120.858517 82.623489 L 120.668269 82.206060 L 120.476664 81.791047 L 120.283720 81.378430 L 120.089454 80.968191 L 119.893883 80.560310 L 119.697023 80.154771 L 119.498889 79.751555 L 119.299498 79.350644 L 119.098865 78.952020 L 118.897004 78.555665 L 118.693930 78.161563 L 118.489657 77.769694 L 118.284198 77.380043 L 118.077568 76.992592 L 117.869778 76.607325 L 117.660843 76.224224 L 117.450774 75.843273 L 117.239583 75.464455 L 117.027282 75.087754 L 116.813883 74.713154 L 116.599397 74.340639 L 116.383834 73.970194 L 116.167206 73.601801 L 115.949523 73.235446 L 115.730794 72.871114 L 115.511030 72.508788 L 115.290239 72.148455 L 115.068432 71.790098 L 114.845617 71.433704 L 114.621803 71.079257 L 114.396999 70.726743 L 114.171211 70.376148 L 113.944450 70.027457 L 113.716721 69.680656 L 113.488034 69.335732 L 113.258394 68.992671 L 113.027810 68.651458 L 112.796287 68.312081 L 112.563832 67.974526 L 112.330453 67.638780 L 112.096154 67.304830 L 111.860942 66.972663 L 111.624823 66.642267 L 111.387802 66.313628 L 111.149884 65.986734 L 110.911075 65.661573 L 110.671379 65.338132 L 110.430802 65.016401 L 110.189347 64.696366 L 109.947020 64.378015 L 109.703823 64.061339 L 109.459762 63.746323 L 109.214841 63.432959 L 108.969062 63.121233 L 108.722429 62.811136 L 108.474945 62.502656 L 108.226615 62.195782 L 107.977440 61.890504 L 107.727423 61.586812 L 107.476568 61.284694 L 107.224876 60.984140 L 106.972349 60.685141 L 106.718991 60.387687 L 106.464803 60.091766 L 106.209787 59.797371 L 105.953944 59.504491 L 105.697276 59.213117 L 105.439785 58.923239 L 105.181472 58.634848 L 104.922338 58.347935 L 104.662384 58.062492 L 104.401611 57.778508 L 104.140019 57.495977 L 103.877609 57.214888 L 103.614382 56.935234 L 103.350338 56.657007 L 103.085476 56.380197 L 102.819798 56.104798 L 102.553303 55.830801 L 102.285991 55.558198 L 102.017862 55.286982 L 101.748914 55.017145 L 101.479148 54.748680 L 101.208563 54.481579 L 100.937158 54.215835 L 100.664932 53.951441 L 100.391884 53.688391 L 100.118013 53.426677 L 99.843317 53.166293 L 99.567796 52.907232 L 99.291448 52.649488 L 99.014270 52.393054 L 98.736262 52.137924 L 98.457422 51.884093 L 98.177747 51.631553 L 97.897236 51.380301 L 97.615886 51.130328 L 97.333695 50.881631 L 97.050661 50.634204 L 96.766782 50.388041 L 96.482054 50.143137 L 96.196475 49.899487 L 95.910042 49.657086 L 95.622753 49.415929 L 95.334604 49.176012 L 95.045592 48.937330 L 94.755714 48.699878 L 94.464967 48.463652 L 94.173347 48.228648 L 93.880852 47.994861 L 93.587476 47.762288 L 93.293217 47.530925 L 92.998071 47.300768 L 92.702034 47.071814 L 92.405102 46.844058 L 92.107271 46.617498 L 91.808537 46.392130 L 91.508895 46.167952 L 91.208341 45.944959 L 90.906871 45.723150 L 90.604480 45.502522 L 90.301164 45.283071 L 89.996918 45.064796 L 89.691736 44.847694 L 89.385615 44.631763 L 89.078549 44.417001 L 88.770533 44.203405 L 88.461561 43.990974 L 88.151629 43.779706 L 87.840732 43.569600 L 87.528863 43.360654 L 87.216017 43.152866 L 86.902189 42.946236 L 86.587373 42.740763 L 86.271563 42.536445 L 85.954753 42.333282 L 85.636938 42.131272 L 85.318110 41.930417 L 84.998265 41.730714 L 84.677395 41.532164 L 84.355494 41.334767 L 84.032557 41.138522 L 83.708575 40.943431 L 83.383544 40.749492 L 83.057456 40.556707 L 82.730304 40.365077 L 82.402082 40.174601 L 82.072782 39.985281 L 81.742397 39.797118 L 81.410921 39.610113 L 81.078346 39.424267 L 80.744665 39.239582 L 80.409870 39.056059 L 80.073955 38.873700 L 79.736910 38.692508 L 79.398730 38.512483 L 79.059405 38.333629 L 78.718929 38.155948 L 78.377293 37.979442 L 78.034489 37.804114 L 77.690509 37.629967 L 77.345345 37.457004 L 76.998989 37.285228 L 76.651433 37.114643 L 76.302667 36.945251 L 75.952684 36.777058 L 75.601475 36.610066 L 75.249031 36.444280 L 74.895343 36.279704 L 74.540402 36.116343 L 74.184201 35.954200 L 73.826728 35.793282 L 73.467976 35.633592 L 73.107935 35.475136 L 72.746597 35.317920 L 72.383950 35.161948 L 72.019987 35.007227 L 71.654697 34.853763 L 71.288071 34.701561 L 70.920099 34.550628 L 70.550771 34.400971 L 70.180077 34.252597 L 69.808008 34.105511 L 69.434554 33.959722 L 69.059703 33.815237 L 68.683447 33.672063 L 68.305774 33.530209 L 67.926674 33.389681 L 67.546137 33.250490 L 67.164153 33.112642 L 66.780709 32.976147 L 66.395797 32.841014 L 66.009405 32.707253 L 65.621521 32.574871 L 65.232136 32.443880 L 64.841238 32.314288 L 64.448816 32.186107 L 64.054858 32.059347 L 63.659354 31.934018 L 63.262292 31.810132 L 62.863661 31.687699 L 62.463448 31.566732 L 62.061643 31.447241 L 61.658234 31.329240 L 61.253208 31.212740 L 60.846555 31.097754 L 60.438262 30.984295 L 60.028317 30.872377 L 59.616709 30.762012 L 59.203424 30.653215 L 58.788452 30.545999 L 58.371779 30.440380 L 57.953393 30.336372 L 57.533283 30.233990 L 57.111435 30.133249 L 56.687836 30.034166 L 56.262476 29.936756 L 55.835340 29.841037 L 55.406415 29.747023 L 54.975691 29.654734 L 54.543152 29.564186 L 54.108788 29.475398 L 53.672584 29.388387 L 53.234527 29.303172 L 52.794606 29.219773 L 52.352806 29.138208 L 51.909114 29.058497 L 51.463518 28.980662 L 51.016004 28.904721 L 50.566560 28.830697 L 50.115170 28.758611 L 49.661824 28.688484 L 49.206506 28.620340 L 48.749205 28.554200 L 48.289906 28.490089 L 47.828596 28.428029 L 47.365261 28.368045 L 46.899889 28.310162 L 46.432466 28.254404 L 45.962979 28.200798 L 45.491413 28.149369 L 45.017756 28.100144 L 44.541995 28.053150 L 44.064115 28.008414 L 43.584105 27.965965 L 43.101949 27.925832 L 42.617635 27.888044 L 42.131150 27.852630 L 41.642480 27.819621 L 41.151613 27.789048 L 40.658535 27.760943 L 40.163232 27.735337 L 39.665693 27.712263 L 39.165904 27.691754 L 38.663852 27.673845 L 38.159524 27.658571 L 37.652908 27.645965 L 37.143992 27.636064 L 36.632761 27.628906 L 36.119205 27.624526 L 35.603311 27.622962 L 35.085067 27.624254 L 34.564461 27.628441 L 34.041481 27.635562 L 33.516115 27.645659 L 32.988352 27.658772 L 32.458181 27.674944 L 31.925590 27.694218 L 31.390569 27.716638 L 30.853107 27.742248 L 30.313193 27.771094 L 29.770817 27.803221 L 29.225970 27.838677 L 28.678640 27.877509 L 28.128820 27.919767 L 27.576500 27.965499 L 27.021671 28.014755 L 26.741200 28.041342" fill="none" id="tattoo-path-4c77e135309aa72d" stroke="#000000" stroke-linecap="round" stroke-linejoin="round" stroke-width="3.600000"/>
  <path clip-path="url(#tattoo-band-layer-clip)" d="M 131.694680 96.299786 L 131.441400 96.378977 L 130.909383 96.542427 L 130.379763 96.702289 L 129.852525 96.858620 L 129.327654 97.011474 L 128.805132 97.160905 L 128.284945 97.306964 L 127.767077 97.449704 L 127.251511 97.589175 L 126.738231 97.725426 L 126.227221 97.858507 L 125.718464 97.988464 L 125.211944 98.115344 L 124.707643 98.239194 L 124.205546 98.360058 L 123.705635 98.477980 L 123.207894 98.593003 L 122.712306 98.705170 L 122.218854 98.814522 L 121.727521 98.921100 L 121.238290 99.024944 L 120.751144 99.126093 L 120.266066 99.224586 L 119.783040 99.320459 L 119.302048 99.413751 L 118.823073 99.504496 L 118.346098 99.592732 L 117.871107 99.678492 L 117.398083 99.761811 L 116.927008 99.842722 L 116.457867 99.921258 L 115.990641 99.997451 L 115.525315 100.071333 L 115.061871 100.142934 L 114.600293 100.212286 L 114.140564 100.279418 L 113.682668 100.344358 L 113.226588 100.407137 L 112.772308 100.467781 L 112.319811 100.526318 L 111.869082 100.582776 L 111.420102 100.637180 L 110.972857 100.689557 L 110.527331 100.739932 L 110.083506 100.788329 L 109.641368 100.834775 L 109.200900 100.879291 L 108.762086 100.921903 L 108.324911 100.962632 L 107.889358 101.001502 L 107.455413 101.038534 L 107.023059 101.073751 L 106.592282 101.107173 L 106.163065 101.138821 L 105.735393 101.168716 L 105.309252 101.196879 L 104.884626 101.223327 L 104.461499 101.248081 L 104.039858 101.271160 L 103.619686 101.292581 L 103.200970 101.312363 L 102.783694 101.330525 L 102.367845 101.347082 L 101.953406 101.362052 L 101.540364 101.375453 L 101.128704 101.387299 L 100.718413 101.397607 L 100.309475 101.406393 L 99.901878 101.413672 L 99.495605 101.419459 L 99.090645 101.423769 L 98.686982 101.426616 L 98.284604 101.428014 L 97.883496 101.427978 L 97.483644 101.426520 L 97.085036 101.423653 L 96.687658 101.419391 L 96.291496 101.413747 L 95.896537 101.406732 L 95.502768 101.398359 L 95.110176 101.388639 L 94.718748 101.377585 L 94.328470 101.365207 L 93.939331 101.351517 L 93.551317 101.336525 L 93.164415 101.320242 L 92.778614 101.302678 L 92.393900 101.283843 L 92.010261 101.263748 L 91.627685 101.242401 L 91.246159 101.219813 L 90.865671 101.195992 L 90.486209 101.170947 L 90.107761 101.144687 L 89.730316 101.117221 L 89.353860 101.088556 L 88.978383 101.058702 L 88.603872 101.027665 L 88.230316 100.995453 L 87.857704 100.962075 L 87.486023 100.927536 L 87.115263 100.891845 L 86.745411 100.855008 L 86.376458 100.817032 L 86.008391 100.777923 L 85.641199 100.737687 L 85.274872 100.696332 L 84.909398 100.653862 L 84.544766 100.610283 L 84.180965 100.565602 L 83.817986 100.519823 L 83.455816 100.472952 L 83.094446 100.424994 L 82.733864 100.375953 L 82.374060 100.325835 L 82.015024 100.274644 L 81.656745 100.222384 L 81.299213 100.169060 L 80.942418 100.114676 L 80.586349 100.059235 L 80.230997 100.002742 L 79.876350 99.945200 L 79.522400 99.886613 L 79.169136 99.826983 L 78.816548 99.766314 L 78.464627 99.704609 L 78.113362 99.641871 L 77.762744 99.578103 L 77.412764 99.513307 L 77.063411 99.447485 L 76.714676 99.380640 L 76.366550 99.312774 L 76.019022 99.243888 L 75.672085 99.173986 L 75.325728 99.103067 L 74.979941 99.031135 L 74.634717 98.958190 L 74.290045 98.884234 L 73.945917 98.809268 L 73.602323 98.733292 L 73.259254 98.656309 L 72.916702 98.578317 L 72.574658 98.499319 L 72.233112 98.419315 L 71.892055 98.338304 L 71.551480 98.256287 L 71.211377 98.173265 L 70.871737 98.089237 L 70.532552 98.004202 L 70.193813 97.918162 L 69.855513 97.831114 L 69.517641 97.743060 L 69.180190 97.653997 L 68.843151 97.563925 L 68.506517 97.472844 L 68.170277 97.380751 L 67.834426 97.287647 L 67.498953 97.193529 L 67.163851 97.098396 L 66.829111 97.002246 L 66.494727 96.905079 L 66.160688 96.806891 L 65.826989 96.707681 L 65.493619 96.607448 L 65.160572 96.506187 L 64.827839 96.403898 L 64.495414 96.300578 L 64.163286 96.196224 L 63.831450 96.090834 L 63.499897 95.984404 L 63.168620 95.876931 L 62.837610 95.768413 L 62.506860 95.658847 L 62.176363 95.548228 L 61.846111 95.436553 L 61.516096 95.323820 L 61.186311 95.210023 L 60.856748 95.095159 L 60.527400 94.979224 L 60.198260 94.862214 L 59.869319 94.744125 L 59.540572 94.624952 L 59.212010 94.504690 L 58.883626 94.383336 L 58.555413 94.260883 L 58.227364 94.137328 L 57.899471 94.012665 L 57.571728 93.886888 L 57.244127 93.759993 L 56.916662 93.631974 L 56.589325 93.502825 L 56.262109 93.372541 L 55.935007 93.241115 L 55.608013 93.108542 L 55.281119 92.974816 L 54.954319 92.839929 L 54.627606 92.703876 L 54.300972 92.566650 L 53.974412 92.428243 L 53.647919 92.288650 L 53.321485 92.147863 L 52.995104 92.005875 L 52.668770 91.862679 L 52.342476 91.718266 L 52.016215 91.572630 L 51.689981 91.425762 L 51.363767 91.277655 L 51.037567 91.128299 L 50.711375 90.977688 L 50.385184 90.825813 L 50.058987 90.672664 L 49.732780 90.518233 L 49.406554 90.362511 L 49.080304 90.205489 L 48.754024 90.047158 L 48.427707 89.887509 L 48.101348 89.726530 L 47.774941 89.564214 L 47.448478 89.400549 L 47.121955 89.235526 L 46.795366 89.069133 L 46.468703 88.901362 L 46.141963 88.732201 L 45.815138 88.561638 L 45.488223 88.389664 L 45.161212 88.216266 L 44.834100 88.041434 L 44.506880 87.865155 L 44.179547 87.687418 L 43.852096 87.508210 L 43.524522 87.327520 L 43.196817 87.145335 L 42.868978 86.961642 L 42.540999 86.776429 L 42.212874 86.589681 L 41.884598 86.401387 L 41.556167 86.211532 L 41.227574 86.020103 L 40.898814 85.827085 L 40.569884 85.632465 L 40.240777 85.436228 L 39.911488 85.238360 L 39.582014 85.038845 L 39.252349 84.837669 L 38.922487 84.634815 L 38.592426 84.430270 L 38.262159 84.224016 L 37.931683 84.016037 L 37.600993 83.806317 L 37.270084 83.594841 L 36.938953 83.381589 L 36.607594 83.166547 L 36.276005 82.949695 L 35.944180 82.731017 L 35.612116 82.510495 L 35.279809 82.288110 L 34.947254 82.063843 L 34.614449 81.837677 L 34.281390 81.609591 L 33.948072 81.379567 L 33.614494 81.147585 L 33.280650 80.913625 L 32.946539 80.677666 L 32.612156 80.439688 L 32.277499 80.199670 L 31.942565 79.957590 L 31.607351 79.713428 L 31.271855 79.467161 L 30.936073 79.218767 L 30.600004 78.968224 L 30.263645 78.715508 L 29.926993 78.460596 L 29.590048 78.203464 L 29.252807 77.944090 L 28.915267 77.682447 L 28.577429 77.418512 L 28.239290 77.152259 L 27.900848 76.883663 L 27.562104 76.612698 L 27.223055 76.339338 L 26.883701 76.063556 L 26.544042 75.785324 L 26.204077 75.504616 L 25.863806 75.221403 L 25.523228 74.935658 L 25.182345 74.647351 L 24.841156 74.356453 L 24.499662 74.062934 L 24.157863 73.766765 L 23.815762 73.467915 L 23.473359 73.166352 L 23.130655 72.862046 L 22.787653 72.554963 L 22.444355 72.245073 L 22.100762 71.932341 L 21.756877 71.616735 L 21.412704 71.298220 L 21.068245 70.976762 L 20.723504 70.652326 L 20.378485 70.324876 L 20.033191 69.994376 L 19.687627 69.660790 L 19.341798 69.324080 L 18.995709 68.984209 L 18.649366 68.641138 L 18.302773 68.294828 L 17.955938 67.945240 L 17.608866 67.592334 L 17.261566 67.236070 L 16.914044 66.876405 L 16.566308 66.513297 L 16.218366 66.146705 L 15.870228 65.776585 L 15.521902 65.402893 L 15.173399 65.025585 L 14.824728 64.644615 L 14.475899 64.259938 L 14.126926 63.871507 L 13.777818 63.479274 L 13.428589 63.083192 L 13.079251 62.683212 L 12.729819 62.279285 L 12.380306 61.871360 L 12.030727 61.459386 L 11.681098 61.043313 L 11.331434 60.623086 L 10.981753 60.198654 L 10.632072 59.769963 L 10.282410 59.336956 L 10.116714 59.129672" fill="none" id="tattoo-path-0c7cb411600676f6" stroke="#000000" stroke-linecap="round" stroke-linejoin="round" stroke-width="3.100000"/>
  <path clip-path="url(#tattoo-band-layer-clip)" d="M 100.820634 129.669762 L 100.548367 129.544638 L 100.044006 129.309835 L 99.543828 129.073995 L 99.047786 128.837149 L 98.555830 128.599325 L 98.067913 128.360553 L 97.583988 128.120861 L 97.104007 127.880276 L 96.627925 127.638825 L 96.155696 127.396533 L 95.687275 127.153424 L 95.222618 126.909523 L 94.761681 126.664854 L 94.304420 126.419438 L 93.850794 126.173297 L 93.400759 125.926453 L 92.954274 125.678927 L 92.511299 125.430738 L 92.071791 125.181905 L 91.635713 124.932447 L 91.203023 124.682382 L 90.773683 124.431727 L 90.347655 124.180501 L 89.924900 123.928717 L 89.505382 123.676394 L 89.089062 123.423545 L 88.675905 123.170186 L 88.265874 122.916332 L 87.858934 122.661994 L 87.455050 122.407188 L 87.054187 122.151926 L 86.656311 121.896221 L 86.261389 121.640084 L 85.869386 121.383526 L 85.480271 121.126560 L 85.094010 120.869196 L 84.710573 120.611444 L 84.329926 120.353315 L 83.952040 120.094817 L 83.576883 119.835960 L 83.204425 119.576754 L 82.834637 119.317206 L 82.467488 119.057324 L 82.102950 118.797118 L 81.740994 118.536593 L 81.381591 118.275758 L 81.024714 118.014619 L 80.670335 117.753184 L 80.318427 117.491457 L 79.968962 117.229446 L 79.621915 116.967156 L 79.277260 116.704593 L 78.934969 116.441762 L 78.595019 116.178669 L 78.257384 115.915316 L 77.922039 115.651710 L 77.588959 115.387855 L 77.258121 115.123754 L 76.929501 114.859412 L 76.603075 114.594831 L 76.278820 114.330016 L 75.956713 114.064970 L 75.636732 113.799694 L 75.318855 113.534193 L 75.003059 113.268469 L 74.689322 113.002524 L 74.377624 112.736360 L 74.067944 112.469980 L 73.760260 112.203384 L 73.454552 111.936575 L 73.150800 111.669555 L 72.848984 111.402323 L 72.549084 111.134883 L 72.251081 110.867234 L 71.954955 110.599377 L 71.660687 110.331313 L 71.368260 110.063042 L 71.077654 109.794565 L 70.788851 109.525882 L 70.501834 109.256994 L 70.216584 108.987899 L 69.933085 108.718598 L 69.651319 108.449090 L 69.371268 108.179375 L 69.092917 107.909453 L 68.816249 107.639322 L 68.541247 107.368981 L 68.267896 107.098431 L 67.996179 106.827669 L 67.726081 106.556694 L 67.457586 106.285505 L 67.190680 106.014101 L 66.925347 105.742480 L 66.661572 105.470641 L 66.399341 105.198581 L 66.138640 104.926298 L 65.879453 104.653792 L 65.621768 104.381059 L 65.365570 104.108097 L 65.110845 103.834905 L 64.857581 103.561480 L 64.605764 103.287819 L 64.355381 103.013919 L 64.106418 102.739779 L 63.858864 102.465395 L 63.612706 102.190765 L 63.367931 101.915885 L 63.124527 101.640753 L 62.882483 101.365366 L 62.641786 101.089719 L 62.402424 100.813811 L 62.164387 100.537638 L 61.927662 100.261195 L 61.692239 99.984481 L 61.458107 99.707491 L 61.225254 99.430221 L 60.993670 99.152668 L 60.763345 98.874828 L 60.534268 98.596697 L 60.306429 98.318271 L 60.079817 98.039546 L 59.854423 97.760518 L 59.630237 97.481183 L 59.407250 97.201536 L 59.185451 96.921573 L 58.964832 96.641290 L 58.745383 96.360682 L 58.527096 96.079745 L 58.309960 95.798473 L 58.093968 95.516863 L 57.879111 95.234910 L 57.665380 94.952608 L 57.452767 94.669953 L 57.241264 94.386940 L 57.030862 94.103564 L 56.821554 93.819819 L 56.613331 93.535701 L 56.406187 93.251205 L 56.200112 92.966324 L 55.995101 92.681054 L 55.791145 92.395389 L 55.588238 92.109324 L 55.386372 91.822853 L 55.185540 91.535970 L 54.985736 91.248671 L 54.786952 90.960948 L 54.589183 90.672797 L 54.392421 90.384210 L 54.196660 90.095184 L 54.001895 89.805710 L 53.808119 89.515784 L 53.615325 89.225399 L 53.423509 88.934549 L 53.232664 88.643227 L 53.042785 88.351427 L 52.853867 88.059144 L 52.665903 87.766369 L 52.478888 87.473097 L 52.292818 87.179322 L 52.107687 86.885036 L 51.923491 86.590232 L 51.740224 86.294905 L 51.557882 85.999046 L 51.376460 85.702650 L 51.195954 85.405708 L 51.016359 85.108214 L 50.837671 84.810161 L 50.659886 84.511542 L 50.483001 84.212349 L 50.307010 83.912575 L 50.131910 83.612212 L 49.957698 83.311253 L 49.784370 83.009690 L 49.611922 82.707516 L 49.440351 82.404723 L 49.269654 82.101303 L 49.099828 81.797249 L 48.930869 81.492552 L 48.762776 81.187204 L 48.595544 80.881197 L 48.429171 80.574524 L 48.263655 80.267175 L 48.098994 79.959143 L 47.935184 79.650420 L 47.772224 79.340995 L 47.610112 79.030862 L 47.448845 78.720012 L 47.288422 78.408435 L 47.128841 78.096124 L 46.970100 77.783069 L 46.812197 77.469260 L 46.655132 77.154691 L 46.498904 76.839350 L 46.343509 76.523229 L 46.188949 76.206319 L 46.035222 75.888610 L 45.882326 75.570093 L 45.730262 75.250759 L 45.579028 74.930597 L 45.428625 74.609598 L 45.279052 74.287753 L 45.130308 73.965050 L 44.982394 73.641482 L 44.835310 73.317036 L 44.689055 72.991704 L 44.543631 72.665475 L 44.399037 72.338338 L 44.255274 72.010284 L 44.112343 71.681301 L 43.970244 71.351379 L 43.828979 71.020507 L 43.688549 70.688675 L 43.548954 70.355872 L 43.410197 70.022086 L 43.272278 69.687306 L 43.135200 69.351522 L 42.998964 69.014722 L 42.863572 68.676894 L 42.729026 68.338026 L 42.595328 67.998109 L 42.462481 67.657128 L 42.330487 67.315073 L 42.199349 66.971932 L 42.069070 66.627693 L 41.939652 66.282342 L 41.811099 65.935869 L 41.683414 65.588261 L 41.556601 65.239504 L 41.430663 64.889587 L 41.305604 64.538497 L 41.181427 64.186220 L 41.058138 63.832745 L 40.935740 63.478056 L 40.814238 63.122143 L 40.693636 62.764990 L 40.573939 62.406584 L 40.455153 62.046912 L 40.337282 61.685961 L 40.220332 61.323715 L 40.104308 60.960162 L 39.989217 60.595286 L 39.875063 60.229074 L 39.761854 59.861512 L 39.649596 59.492584 L 39.538294 59.122276 L 39.427957 58.750573 L 39.318591 58.377460 L 39.210203 58.002922 L 39.102801 57.626943 L 38.996392 57.249509 L 38.890984 56.870604 L 38.786585 56.490211 L 38.683205 56.108316 L 38.580850 55.724902 L 38.479531 55.339952 L 38.379255 54.953452 L 38.280034 54.565383 L 38.181875 54.175730 L 38.084789 53.784476 L 37.988787 53.391603 L 37.893878 52.997095 L 37.800073 52.600935 L 37.707383 52.203104 L 37.615819 51.803586 L 37.525394 51.402363 L 37.436118 50.999415 L 37.348003 50.594727 L 37.261063 50.188279 L 37.175310 49.780052 L 37.090757 49.370029 L 37.007417 48.958190 L 36.925304 48.544517 L 36.844433 48.128990 L 36.764817 47.711589 L 36.686471 47.292297 L 36.609411 46.871092 L 36.533651 46.447954 L 36.459209 46.022865 L 36.386099 45.595803 L 36.314338 45.166748 L 36.243945 44.735680 L 36.174935 44.302578 L 36.107327 43.867420 L 36.041139 43.430185 L 35.976389 42.990853 L 35.913098 42.549402 L 35.851283 42.105809 L 35.790966 41.660053 L 35.732167 41.212112 L 35.674907 40.761963 L 35.619207 40.309584 L 35.565088 39.854952 L 35.512574 39.398044 L 35.461688 38.938837 L 35.412452 38.477307 L 35.364892 38.013432 L 35.319030 37.547187 L 35.274893 37.078549 L 35.232507 36.607493 L 35.191896 36.133994 L 35.153089 35.658030 L 35.116113 35.179574 L 35.080995 34.698601 L 35.047765 34.215088 L 35.016451 33.729008 L 34.987084 33.240335 L 34.959695 32.749045 L 34.934315 32.255111 L 34.910975 31.758507 L 34.889710 31.259207 L 34.870551 30.757184 L 34.853535 30.252412 L 34.838695 29.744864 L 34.826067 29.234512 L 34.815688 28.721331 L 34.807597 28.205291 L 34.801830 27.686366 L 34.798427 27.164529 L 34.797428 26.639750 L 34.798874 26.112002 L 34.802807 25.581257 L 34.809270 25.047486 L 34.818307 24.510661 L 34.829961 23.970754 L 34.844279 23.427734 L 34.861308 22.881575 L 34.881095 22.332245 L 34.903690 21.779717 L 34.929142 21.223960 L 34.944323 20.924704" fill="none" id="tattoo-path-6420e8f42e36fc25" stroke="#000000" stroke-linecap="round" stroke-linejoin="round" stroke-width="2.500000"/>
  <path clip-path="url(#tattoo-band-layer-clip)" d="M 136.247840 75.079314 L 135.856597 74.986042 L 135.316881 74.858231 L 134.781059 74.732188 L 134.249070 74.607878 L 133.720856 74.485270 L 133.196357 74.364331 L 132.675518 74.245032 L 132.158281 74.127340 L 131.644592 74.011228 L 131.134396 73.896666 L 130.627641 73.783626 L 130.124274 73.672080 L 129.624244 73.562003 L 129.127500 73.453367 L 128.633993 73.346148 L 128.143674 73.240319 L 127.656496 73.135857 L 127.172411 73.032738 L 126.691373 72.930939 L 126.213336 72.830436 L 125.738256 72.731208 L 125.266088 72.633233 L 124.796790 72.536489 L 124.330319 72.440955 L 123.866633 72.346612 L 123.405691 72.253439 L 122.947452 72.161416 L 122.491876 72.070526 L 122.038924 71.980748 L 121.588558 71.892066 L 121.140740 71.804460 L 120.695431 71.717915 L 120.252596 71.632411 L 119.812198 71.547934 L 119.374201 71.464466 L 118.938571 71.381991 L 118.505272 71.300495 L 118.074270 71.219960 L 117.645533 71.140374 L 117.219026 71.061719 L 116.794717 70.983984 L 116.372575 70.907152 L 115.952567 70.831211 L 115.534663 70.756147 L 115.118831 70.681946 L 114.705042 70.608596 L 114.293265 70.536084 L 113.883472 70.464397 L 113.475632 70.393524 L 113.069719 70.323453 L 112.665702 70.254170 L 112.263556 70.185667 L 111.863251 70.117930 L 111.464762 70.050949 L 111.068061 69.984713 L 110.673123 69.919211 L 110.279920 69.854434 L 109.888429 69.790371 L 109.498623 69.727011 L 109.110477 69.664346 L 108.723968 69.602366 L 108.339069 69.541061 L 107.955759 69.480422 L 107.574013 69.420440 L 107.193807 69.361106 L 106.815119 69.302412 L 106.437925 69.244348 L 106.062204 69.186908 L 105.687933 69.130081 L 105.315089 69.073861 L 104.943653 69.018240 L 104.573601 68.963209 L 104.204913 68.908761 L 103.837568 68.854890 L 103.471546 68.801586 L 103.106825 68.748844 L 102.743385 68.696656 L 102.381208 68.645016 L 102.020272 68.593916 L 101.660559 68.543350 L 101.302048 68.493312 L 100.944722 68.443795 L 100.588561 68.394792 L 100.233546 68.346298 L 99.879660 68.298307 L 99.526883 68.250813 L 99.175197 68.203809 L 98.824586 68.157291 L 98.475030 68.111253 L 98.126513 68.065688 L 97.779017 68.020593 L 97.432525 67.975961 L 97.087019 67.931787 L 96.742484 67.888067 L 96.398903 67.844794 L 96.056258 67.801966 L 95.714534 67.759575 L 95.373714 67.717619 L 95.033782 67.676092 L 94.694722 67.634989 L 94.356519 67.594307 L 94.019157 67.554041 L 93.682621 67.514186 L 93.346894 67.474739 L 93.011962 67.435695 L 92.677810 67.397050 L 92.344423 67.358801 L 92.011785 67.320942 L 91.679883 67.283472 L 91.348701 67.246385 L 91.018225 67.209679 L 90.688441 67.173349 L 90.359333 67.137392 L 90.030890 67.101804 L 89.703095 67.066583 L 89.375935 67.031725 L 89.049396 66.997226 L 88.723465 66.963084 L 88.398128 66.929295 L 88.073371 66.895857 L 87.749180 66.862765 L 87.425543 66.830018 L 87.102445 66.797612 L 86.779874 66.765545 L 86.457817 66.733814 L 86.136260 66.702415 L 85.815191 66.671347 L 85.494596 66.640608 L 85.174463 66.610193 L 84.854778 66.580101 L 84.535530 66.550330 L 84.216705 66.520876 L 83.898290 66.491739 L 83.580274 66.462915 L 83.262644 66.434402 L 82.945388 66.406198 L 82.628492 66.378301 L 82.311945 66.350709 L 81.995734 66.323420 L 81.679848 66.296431 L 81.364274 66.269742 L 81.049000 66.243350 L 80.734014 66.217253 L 80.419303 66.191449 L 80.104857 66.165937 L 79.790662 66.140715 L 79.476708 66.115782 L 79.162982 66.091135 L 78.849472 66.066774 L 78.536167 66.042696 L 78.223054 66.018901 L 77.910123 65.995387 L 77.597360 65.972152 L 77.284756 65.949195 L 76.972297 65.926515 L 76.659972 65.904110 L 76.347771 65.881980 L 76.035680 65.860123 L 75.723688 65.838538 L 75.411785 65.817225 L 75.099957 65.796181 L 74.788195 65.775406 L 74.476485 65.754899 L 74.164817 65.734659 L 73.853179 65.714685 L 73.541560 65.694977 L 73.229947 65.675533 L 72.918331 65.656353 L 72.606698 65.637436 L 72.295037 65.618781 L 71.983337 65.600388 L 71.671587 65.582256 L 71.359774 65.564384 L 71.047887 65.546773 L 70.735915 65.529421 L 70.423847 65.512328 L 70.111669 65.495493 L 69.799372 65.478917 L 69.486942 65.462599 L 69.174369 65.446539 L 68.861641 65.430736 L 68.548746 65.415190 L 68.235673 65.399901 L 67.922409 65.384869 L 67.608944 65.370094 L 67.295264 65.355576 L 66.981359 65.341314 L 66.667216 65.327309 L 66.352823 65.313560 L 66.038170 65.300069 L 65.723242 65.286835 L 65.408030 65.273857 L 65.092520 65.261137 L 64.776700 65.248675 L 64.460559 65.236471 L 64.144083 65.224525 L 63.827262 65.212838 L 63.510082 65.201410 L 63.192531 65.190242 L 62.874597 65.179334 L 62.556267 65.168686 L 62.237528 65.158300 L 61.918369 65.148176 L 61.598777 65.138314 L 61.278738 65.128716 L 60.958241 65.119381 L 60.637271 65.110312 L 60.315817 65.101508 L 59.993864 65.092971 L 59.671401 65.084702 L 59.348414 65.076702 L 59.024890 65.068971 L 58.700815 65.061510 L 58.376176 65.054322 L 58.050960 65.047407 L 57.725152 65.040766 L 57.398740 65.034401 L 57.071710 65.028313 L 56.744047 65.022503 L 56.415737 65.016972 L 56.086768 65.011724 L 55.757123 65.006758 L 55.426790 65.002076 L 55.095754 64.997680 L 54.764000 64.993573 L 54.431514 64.989754 L 54.098280 64.986227 L 53.764285 64.982994 L 53.429513 64.980055 L 53.093949 64.977414 L 52.757578 64.975072 L 52.420384 64.973031 L 52.082352 64.971293 L 51.743467 64.969862 L 51.403712 64.968738 L 51.063072 64.967925 L 50.721531 64.967424 L 50.379072 64.967239 L 50.035679 64.967372 L 49.691336 64.967825 L 49.346026 64.968601 L 48.999732 64.969703 L 48.652437 64.971134 L 48.304124 64.972897 L 47.954775 64.974995 L 47.604374 64.977430 L 47.252902 64.980206 L 46.900341 64.983326 L 46.546674 64.986794 L 46.191882 64.990613 L 45.835947 64.994786 L 45.478849 64.999317 L 45.120571 65.004209 L 44.761094 65.009467 L 44.400396 65.015094 L 44.038461 65.021094 L 43.675267 65.027470 L 43.310794 65.034228 L 42.945023 65.041372 L 42.577934 65.048904 L 42.209504 65.056831 L 41.839714 65.065157 L 41.468543 65.073886 L 41.095968 65.083022 L 40.721969 65.092571 L 40.346523 65.102538 L 39.969608 65.112928 L 39.591202 65.123746 L 39.211282 65.134996 L 38.829825 65.146686 L 38.446807 65.158820 L 38.062205 65.171403 L 37.675995 65.184442 L 37.288153 65.197943 L 36.898653 65.211912 L 36.507472 65.226354 L 36.114584 65.241277 L 35.719963 65.256687 L 35.323583 65.272590 L 34.925419 65.288994 L 34.525443 65.305904 L 34.123628 65.323330 L 33.719947 65.341277 L 33.314373 65.359753 L 32.906877 65.378766 L 32.497430 65.398323 L 32.086004 65.418434 L 31.672568 65.439105 L 31.257095 65.460345 L 30.839552 65.482164 L 30.419909 65.504569 L 29.998136 65.527569 L 29.574200 65.551174 L 29.148070 65.575394 L 28.719713 65.600237 L 28.289095 65.625714 L 27.856184 65.651835 L 27.420945 65.678609 L 26.983343 65.706049 L 26.543344 65.734163 L 26.100911 65.762965 L 25.656009 65.792464 L 25.208601 65.822673 L 24.758648 65.853603 L 24.306114 65.885266 L 23.850959 65.917676 L 23.393145 65.950844 L 22.932631 65.984784 L 22.469377 66.019509 L 22.003341 66.055034 L 21.534482 66.091371 L 21.062757 66.128536 L 20.588123 66.166542 L 20.110536 66.205406 L 19.629951 66.245143 L 19.146322 66.285768 L 18.659603 66.327299 L 18.169747 66.369750 L 17.676706 66.413141 L 17.180432 66.457487 L 16.680874 66.502807 L 16.177982 66.549120 L 15.671705 66.596445 L 15.161991 66.644799 L 14.648785 66.694205 L 14.132035 66.744681 L 13.611684 66.796249 L 13.087677 66.848931 L 12.559956 66.902747 L 12.028464 66.957721 L 11.493140 67.013876 L 10.953925 67.071236 L 10.410756 67.129825 L 9.863572 67.189667 L 9.312307 67.250789 L 8.912616 67.295715" fill="none" id="tattoo-path-a820fbecf545baf8" stroke="#000000" stroke-linecap="round" stroke-linejoin="round" stroke-width="2.200000"/>
  <path clip-path="url(#tattoo-band-layer-clip)" d="M 13.063806 95.690058 L 13.387843 95.717615 L 13.941625 95.762784 L 14.491718 95.805755 L 15.038170 95.846569 L 15.581028 95.885270 L 16.120337 95.921898 L 16.656146 95.956493 L 17.188498 95.989094 L 17.717439 96.019739 L 18.243012 96.048464 L 18.765261 96.075307 L 19.284230 96.100302 L 19.799961 96.123484 L 20.312494 96.144885 L 20.821873 96.164540 L 21.328137 96.182479 L 21.831327 96.198734 L 22.331481 96.213335 L 22.828640 96.226312 L 23.322842 96.237693 L 23.814125 96.247508 L 24.302527 96.255782 L 24.788084 96.262544 L 25.270833 96.267820 L 25.750810 96.271634 L 26.228052 96.274012 L 26.702592 96.274978 L 27.174466 96.274556 L 27.643708 96.272770 L 28.110352 96.269641 L 28.574431 96.265192 L 29.035978 96.259445 L 29.495025 96.252420 L 29.951605 96.244137 L 30.405749 96.234618 L 30.857489 96.223882 L 31.306855 96.211947 L 31.753877 96.198832 L 32.198587 96.184555 L 32.641013 96.169135 L 33.081184 96.152588 L 33.519131 96.134932 L 33.954881 96.116182 L 34.388462 96.096356 L 34.819902 96.075468 L 35.249230 96.053534 L 35.676472 96.030568 L 36.101654 96.006587 L 36.524804 95.981603 L 36.945948 95.955631 L 37.365111 95.928683 L 37.782319 95.900775 L 38.197597 95.871917 L 38.610971 95.842124 L 39.022464 95.811407 L 39.432102 95.779778 L 39.839907 95.747248 L 40.245905 95.713830 L 40.650118 95.679535 L 41.052569 95.644372 L 41.453283 95.608353 L 41.852280 95.571488 L 42.249584 95.533788 L 42.645217 95.495261 L 43.039200 95.455918 L 43.431556 95.415767 L 43.822306 95.374818 L 44.211470 95.333080 L 44.599070 95.290561 L 44.985127 95.247269 L 45.369660 95.203213 L 45.752690 95.158401 L 46.134238 95.112840 L 46.514322 95.066538 L 46.892963 95.019502 L 47.270179 94.971739 L 47.645990 94.923257 L 48.020415 94.874061 L 48.393473 94.824160 L 48.765182 94.773557 L 49.135560 94.722261 L 49.504625 94.670278 L 49.872396 94.617611 L 50.238891 94.564269 L 50.604126 94.510255 L 50.968119 94.455576 L 51.330888 94.400237 L 51.692450 94.344241 L 52.052820 94.287596 L 52.412017 94.230304 L 52.770057 94.172371 L 53.126955 94.113801 L 53.482729 94.054598 L 53.837394 93.994766 L 54.190967 93.934310 L 54.543462 93.873233 L 54.894896 93.811538 L 55.245285 93.749230 L 55.594642 93.686312 L 55.942984 93.622787 L 56.290326 93.558658 L 56.636683 93.493928 L 56.982068 93.428601 L 57.326498 93.362678 L 57.669986 93.296164 L 58.012547 93.229059 L 58.354196 93.161367 L 58.694945 93.093090 L 59.034810 93.024229 L 59.373804 92.954788 L 59.711940 92.884769 L 60.049234 92.814172 L 60.385697 92.743000 L 60.721345 92.671254 L 61.056189 92.598936 L 61.390243 92.526048 L 61.723520 92.452590 L 62.056034 92.378564 L 62.387797 92.303971 L 62.718822 92.228812 L 63.049122 92.153088 L 63.378709 92.076800 L 63.707597 91.999948 L 64.035796 91.922534 L 64.363320 91.844556 L 64.690182 91.766017 L 65.016392 91.686917 L 65.341964 91.607255 L 65.666909 91.527031 L 65.991239 91.446247 L 66.314966 91.364901 L 66.638102 91.282994 L 66.960658 91.200525 L 67.282647 91.117494 L 67.604080 91.033901 L 67.924967 90.949745 L 68.245321 90.865026 L 68.565153 90.779743 L 68.884475 90.693895 L 69.203296 90.607481 L 69.521630 90.520501 L 69.839485 90.432953 L 70.156875 90.344837 L 70.473809 90.256150 L 70.790298 90.166893 L 71.106354 90.077063 L 71.421987 89.986659 L 71.737208 89.895679 L 72.052027 89.804122 L 72.366456 89.711987 L 72.680504 89.619271 L 72.994182 89.525972 L 73.307501 89.432089 L 73.620471 89.337620 L 73.933103 89.242562 L 74.245407 89.146913 L 74.557393 89.050671 L 74.869071 88.953834 L 75.180452 88.856399 L 75.491545 88.758363 L 75.802362 88.659724 L 76.112912 88.560480 L 76.423205 88.460626 L 76.733250 88.360161 L 77.043060 88.259082 L 77.352642 88.157385 L 77.662007 88.055067 L 77.971165 87.952126 L 78.280126 87.848557 L 78.588900 87.744357 L 78.897496 87.639523 L 79.205924 87.534052 L 79.514194 87.427939 L 79.822317 87.321181 L 80.130300 87.213773 L 80.438155 87.105713 L 80.745891 86.996995 L 81.053517 86.887617 L 81.361044 86.777572 L 81.668480 86.666858 L 81.975836 86.555470 L 82.283120 86.443404 L 82.590344 86.330654 L 82.897515 86.217216 L 83.204644 86.103085 L 83.511741 85.988256 L 83.818814 85.872725 L 84.125874 85.756487 L 84.432929 85.639535 L 84.739990 85.521865 L 85.047066 85.403472 L 85.354165 85.284349 L 85.661299 85.164492 L 85.968476 85.043894 L 86.275706 84.922550 L 86.582999 84.800454 L 86.890363 84.677600 L 87.197808 84.553982 L 87.505344 84.429593 L 87.812980 84.304427 L 88.120726 84.178478 L 88.428592 84.051739 L 88.736586 83.924203 L 89.044718 83.795864 L 89.352998 83.666714 L 89.661435 83.536748 L 89.970040 83.405956 L 90.278820 83.274333 L 90.587787 83.141870 L 90.896949 83.008560 L 91.206316 82.874396 L 91.515897 82.739370 L 91.825703 82.603473 L 92.135743 82.466698 L 92.446026 82.329036 L 92.756563 82.190480 L 93.067362 82.051020 L 93.378434 81.910648 L 93.689788 81.769355 L 94.001434 81.627133 L 94.313382 81.483972 L 94.625641 81.339863 L 94.938221 81.194797 L 95.251133 81.048764 L 95.564385 80.901754 L 95.877989 80.753758 L 96.191953 80.604767 L 96.506287 80.454768 L 96.821002 80.303754 L 97.136108 80.151712 L 97.451614 79.998632 L 97.767531 79.844504 L 98.083869 79.689316 L 98.400637 79.533057 L 98.717846 79.375717 L 99.035507 79.217282 L 99.353628 79.057743 L 99.672221 78.897086 L 99.991296 78.735300 L 100.310863 78.572373 L 100.630933 78.408291 L 100.951515 78.243043 L 101.272620 78.076615 L 101.594260 77.908994 L 101.916443 77.740167 L 102.239182 77.570121 L 102.562485 77.398841 L 102.886365 77.226314 L 103.210831 77.052525 L 103.535895 76.877460 L 103.861567 76.701105 L 104.187858 76.523444 L 104.514779 76.344462 L 104.842341 76.164144 L 105.170554 75.982474 L 105.499430 75.799437 L 105.828980 75.615016 L 106.159215 75.429194 L 106.490146 75.241955 L 106.821784 75.053282 L 107.154140 74.863158 L 107.487226 74.671566 L 107.821054 74.478486 L 108.155633 74.283902 L 108.490977 74.087794 L 108.827097 73.890144 L 109.164003 73.690933 L 109.501708 73.490142 L 109.840224 73.287750 L 110.179561 73.083738 L 110.519733 72.878085 L 110.860750 72.670771 L 111.202625 72.461775 L 111.545370 72.251074 L 111.888996 72.038648 L 112.233515 71.824474 L 112.578941 71.608530 L 112.925284 71.390792 L 113.272558 71.171237 L 113.620774 70.949842 L 113.969945 70.726582 L 114.320083 70.501433 L 114.671201 70.274370 L 115.023311 70.045367 L 115.376426 69.814399 L 115.730559 69.581439 L 116.085721 69.346460 L 116.441926 69.109436 L 116.799187 68.870338 L 117.157516 68.629137 L 117.516927 68.385807 L 117.877432 68.140316 L 118.239044 67.892636 L 118.601777 67.642736 L 118.965643 67.390586 L 119.330655 67.136153 L 119.696828 66.879406 L 120.064173 66.620312 L 120.432705 66.358839 L 120.802436 66.094952 L 121.173380 65.828617 L 121.545551 65.559799 L 121.918961 65.288463 L 122.293625 65.014572 L 122.669555 64.738090 L 123.046766 64.458978 L 123.425270 64.177198 L 123.805082 63.892712 L 124.186215 63.605479 L 124.568682 63.315459 L 124.952498 63.022611 L 125.337676 62.726893 L 125.724229 62.428261 L 126.112172 62.126672 L 126.501518 61.822082 L 126.892280 61.514446 L 127.284472 61.203716 L 127.678109 60.889846 L 128.073203 60.572788 L 128.469768 60.252493 L 128.867817 59.928910 L 129.267365 59.601990 L 129.668425 59.271680 L 130.071010 58.937928 L 130.475133 58.600679 L 130.880808 58.259879 L 131.288048 57.915470 L 131.696867 57.567398 L 132.107277 57.215602 L 132.519291 56.860023 L 132.932923 56.500601 L 133.348185 56.137274 L 133.765089 55.769979 L 134.008361 55.554158" fill="none" id="tattoo-path-d141615ea0b6a375" stroke="#000000" stroke-linecap="round" stroke-linejoin="round" stroke-width="1.900000"/>
  <path clip-path="url(#tattoo-band-layer-clip)" d="M 121.102820 113.830448 L 120.795042 113.673077 L 120.301246 113.419473 L 119.811610 113.166898 L 119.326063 112.915342 L 118.844541 112.664796 L 118.366977 112.415249 L 117.893309 112.166691 L 117.423473 111.919111 L 116.957408 111.672500 L 116.495053 111.426848 L 116.036351 111.182144 L 115.581242 110.938378 L 115.129671 110.695541 L 114.681581 110.453622 L 114.236918 110.212610 L 113.795627 109.972497 L 113.357658 109.733272 L 112.922957 109.494925 L 112.491474 109.257447 L 112.063160 109.020826 L 111.637966 108.785055 L 111.215843 108.550122 L 110.796745 108.316018 L 110.380625 108.082733 L 109.967438 107.850258 L 109.557140 107.618583 L 109.149686 107.387699 L 108.745034 107.157595 L 108.343141 106.928262 L 107.943966 106.699692 L 107.547469 106.471874 L 107.153608 106.244799 L 106.762345 106.018457 L 106.373641 105.792841 L 105.987457 105.567940 L 105.603757 105.343745 L 105.222504 105.120247 L 104.843661 104.897437 L 104.467194 104.675306 L 104.093066 104.453846 L 103.721244 104.233046 L 103.351693 104.012899 L 102.984381 103.793395 L 102.619275 103.574526 L 102.256343 103.356283 L 101.895553 103.138657 L 101.536873 102.921640 L 101.180273 102.705224 L 100.825724 102.489399 L 100.473194 102.274157 L 100.122656 102.059490 L 99.774080 101.845389 L 99.427437 101.631846 L 99.082700 101.418854 L 98.739842 101.206403 L 98.398835 100.994485 L 98.059653 100.783092 L 97.722270 100.572217 L 97.386659 100.361851 L 97.052795 100.151986 L 96.720653 99.942614 L 96.390208 99.733728 L 96.061437 99.525319 L 95.734314 99.317379 L 95.408817 99.109902 L 95.084921 98.902878 L 94.762604 98.696301 L 94.441844 98.490162 L 94.122618 98.284455 L 93.804903 98.079171 L 93.488679 97.874303 L 93.173923 97.669843 L 92.860615 97.465785 L 92.548734 97.262120 L 92.238259 97.058841 L 91.929170 96.855941 L 91.621447 96.653412 L 91.315070 96.451247 L 91.010020 96.249440 L 90.706277 96.047982 L 90.403822 95.846866 L 90.102638 95.646086 L 89.802704 95.445635 L 89.504004 95.245504 L 89.206519 95.045687 L 88.910230 94.846177 L 88.615122 94.646967 L 88.321175 94.448051 L 88.028374 94.249420 L 87.736701 94.051068 L 87.446140 93.852989 L 87.156673 93.655175 L 86.868285 93.457619 L 86.580960 93.260315 L 86.294681 93.063256 L 86.009432 92.866435 L 85.725200 92.669845 L 85.441966 92.473479 L 85.159718 92.277332 L 84.878439 92.081395 L 84.598114 91.885663 L 84.318730 91.690128 L 84.040271 91.494785 L 83.762723 91.299626 L 83.486072 91.104645 L 83.210304 90.909835 L 82.935404 90.715189 L 82.661359 90.520702 L 82.388156 90.326366 L 82.115780 90.132175 L 81.844219 89.938122 L 81.573459 89.744201 L 81.303487 89.550406 L 81.034291 89.356729 L 80.765856 89.163165 L 80.498171 88.969706 L 80.231224 88.776347 L 79.965001 88.583081 L 79.699490 88.389901 L 79.434679 88.196801 L 79.170555 88.003774 L 78.907108 87.810814 L 78.644324 87.617915 L 78.382193 87.425070 L 78.120702 87.232273 L 77.859839 87.039516 L 77.599594 86.846795 L 77.339955 86.654102 L 77.080910 86.461430 L 76.822449 86.268774 L 76.564560 86.076127 L 76.307232 85.883482 L 76.050454 85.690833 L 75.794216 85.498173 L 75.538506 85.305497 L 75.283314 85.112797 L 75.028630 84.920067 L 74.774442 84.727301 L 74.520740 84.534492 L 74.267514 84.341633 L 74.014754 84.148718 L 73.762449 83.955740 L 73.510589 83.762694 L 73.259165 83.569571 L 73.008165 83.376367 L 72.757580 83.183073 L 72.507400 82.989684 L 72.257615 82.796193 L 72.008216 82.602592 L 71.759192 82.408877 L 71.510534 82.215039 L 71.262233 82.021073 L 71.014278 81.826971 L 70.766661 81.632726 L 70.519371 81.438333 L 70.272399 81.243783 L 70.025737 81.049071 L 69.779374 80.854189 L 69.533301 80.659131 L 69.287510 80.463890 L 69.041990 80.268458 L 68.796732 80.072829 L 68.551729 79.876996 L 68.306970 79.680952 L 68.062446 79.484689 L 67.818148 79.288201 L 67.574068 79.091481 L 67.330197 78.894521 L 67.086524 78.697315 L 66.843043 78.499854 L 66.599743 78.302132 L 66.356616 78.104142 L 66.113653 77.905876 L 65.870846 77.707326 L 65.628185 77.508486 L 65.385662 77.309348 L 65.143268 77.109904 L 64.900994 76.910147 L 64.658832 76.710069 L 64.416773 76.509662 L 64.174809 76.308920 L 63.932930 76.107833 L 63.691128 75.906395 L 63.449395 75.704597 L 63.207722 75.502432 L 62.966100 75.299892 L 62.724521 75.096968 L 62.482977 74.893653 L 62.241457 74.689938 L 61.999956 74.485815 L 61.758462 74.281276 L 61.516969 74.076313 L 61.275467 73.870917 L 61.033948 73.665079 L 60.792403 73.458792 L 60.550824 73.252047 L 60.309203 73.044835 L 60.067530 72.837147 L 59.825798 72.628975 L 59.583997 72.420309 L 59.342119 72.211141 L 59.100156 72.001462 L 58.858098 71.791262 L 58.615938 71.580533 L 58.373666 71.369264 L 58.131275 71.157448 L 57.888755 70.945074 L 57.646098 70.732133 L 57.403295 70.518615 L 57.160338 70.304510 L 56.917217 70.089809 L 56.673924 69.874502 L 56.430451 69.658579 L 56.186788 69.442029 L 55.942927 69.224843 L 55.698859 69.007010 L 55.454575 68.788521 L 55.210066 68.569363 L 54.965324 68.349527 L 54.720339 68.129002 L 54.475102 67.907777 L 54.229606 67.685842 L 53.983839 67.463184 L 53.737794 67.239794 L 53.491462 67.015659 L 53.244832 66.790768 L 52.997897 66.565110 L 52.750647 66.338672 L 52.503072 66.111444 L 52.255164 65.883413 L 52.006913 65.654567 L 51.758309 65.424893 L 51.509344 65.194380 L 51.260008 64.963015 L 51.010291 64.730785 L 50.760184 64.497677 L 50.509677 64.263679 L 50.258761 64.028776 L 50.007425 63.792957 L 49.755660 63.556207 L 49.503457 63.318512 L 49.250805 63.079860 L 48.997694 62.840236 L 48.744115 62.599625 L 48.490057 62.358014 L 48.235511 62.115388 L 47.980465 61.871732 L 47.724910 61.627031 L 47.468836 61.381270 L 47.212232 61.134435 L 46.955087 60.886508 L 46.697391 60.637476 L 46.439134 60.387321 L 46.180305 60.136028 L 45.920892 59.883579 L 45.660886 59.629960 L 45.400275 59.375153 L 45.139048 59.119140 L 44.877194 58.861905 L 44.614702 58.603429 L 44.351561 58.343696 L 44.087760 58.082687 L 43.823286 57.820384 L 43.558128 57.556769 L 43.292275 57.291821 L 43.025715 57.025524 L 42.758436 56.757856 L 42.490427 56.488798 L 42.221674 56.218331 L 41.952167 55.946434 L 41.681893 55.673087 L 41.410838 55.398268 L 41.138992 55.121957 L 40.866342 54.844132 L 40.592874 54.564771 L 40.318576 54.283852 L 40.043435 54.001353 L 39.767439 53.717250 L 39.490573 53.431521 L 39.212824 53.144141 L 38.934180 52.855087 L 38.654627 52.564334 L 38.374150 52.271859 L 38.092737 51.977634 L 37.810372 51.681636 L 37.527043 51.383838 L 37.242735 51.084213 L 36.957434 50.782735 L 36.671124 50.479377 L 36.383792 50.174110 L 36.095423 49.866907 L 35.806001 49.557739 L 35.515512 49.246576 L 35.223940 48.933390 L 34.931270 48.618149 L 34.637486 48.300824 L 34.342573 47.981383 L 34.046515 47.659794 L 33.749295 47.336025 L 33.450898 47.010043 L 33.151306 46.681814 L 32.850504 46.351305 L 32.548474 46.018481 L 32.245200 45.683307 L 31.940664 45.345747 L 31.634849 45.005763 L 31.327737 44.663320 L 31.019311 44.318378 L 30.709553 43.970900 L 30.398445 43.620846 L 30.085968 43.268176 L 29.772103 42.912849 L 29.456833 42.554824 L 29.140138 42.194058 L 28.821998 41.830508 L 28.502395 41.464131 L 28.181309 41.094880 L 27.858720 40.722712 L 27.534608 40.347578 L 27.208952 39.969432 L 26.881732 39.588225 L 26.552928 39.203908 L 26.222518 38.816430 L 25.890481 38.425741 L 25.556796 38.031787 L 25.221440 37.634516 L 24.884392 37.233872 L 24.545630 36.829801 L 24.205130 36.422245 L 23.862871 36.011147 L 23.518829 35.596448 L 23.172980 35.178086 L 22.825302 34.756002 L 22.475771 34.330131 L 22.124361 33.900410 L 21.906015 33.632422" fill="none" id="tattoo-path-e12b18f019c4d525" stroke="#000000" stroke-linecap="round" stroke-linejoin="round" stroke-width="1.600000"/>
  <path clip-path="url(#tattoo-band-layer-clip)" d="M 135.554521 82.224577 L 135.088034 82.216845 L 134.534020 82.207071 L 133.984243 82.196792 L 133.438634 82.186018 L 132.897127 82.174762 L 132.359655 82.163035 L 131.826155 82.150847 L 131.296563 82.138210 L 130.770818 82.125133 L 130.248858 82.111627 L 129.730625 82.097701 L 129.216058 82.083364 L 128.705102 82.068626 L 128.197700 82.053496 L 127.693796 82.037982 L 127.193336 82.022093 L 126.696266 82.005836 L 126.202535 81.989219 L 125.712090 81.972251 L 125.224882 81.954938 L 124.740860 81.937288 L 124.259975 81.919307 L 123.782181 81.901003 L 123.307429 81.882382 L 122.835673 81.863450 L 122.366869 81.844214 L 121.900970 81.824679 L 121.437934 81.804852 L 120.977717 81.784738 L 120.520276 81.764343 L 120.065570 81.743671 L 119.613557 81.722729 L 119.164198 81.701521 L 118.717452 81.680052 L 118.273280 81.658327 L 117.831644 81.636350 L 117.392506 81.614126 L 116.955829 81.591659 L 116.521576 81.568954 L 116.089710 81.546015 L 115.660198 81.522845 L 115.233002 81.499448 L 114.808090 81.475829 L 114.385427 81.451990 L 113.964980 81.427935 L 113.546716 81.403668 L 113.130602 81.379192 L 112.716608 81.354510 L 112.304700 81.329626 L 111.894849 81.304541 L 111.487024 81.279260 L 111.081195 81.253785 L 110.677332 81.228119 L 110.275407 81.202264 L 109.875390 81.176223 L 109.477253 81.149998 L 109.080968 81.123592 L 108.686508 81.097008 L 108.293845 81.070247 L 107.902953 81.043311 L 107.513805 81.016204 L 107.126375 80.988926 L 106.740639 80.961479 L 106.356569 80.933867 L 105.974141 80.906090 L 105.593331 80.878150 L 105.214115 80.850049 L 104.836467 80.821788 L 104.460365 80.793370 L 104.085785 80.764796 L 103.712704 80.736066 L 103.341099 80.707184 L 102.970947 80.678149 L 102.602227 80.648963 L 102.234917 80.619628 L 101.868994 80.590145 L 101.504437 80.560514 L 101.141226 80.530737 L 100.779338 80.500816 L 100.418754 80.470750 L 100.059453 80.440541 L 99.701415 80.410190 L 99.344620 80.379698 L 98.989049 80.349065 L 98.634681 80.318293 L 98.281497 80.287382 L 97.929478 80.256333 L 97.578607 80.225146 L 97.228863 80.193822 L 96.880228 80.162361 L 96.532685 80.130765 L 96.186214 80.099034 L 95.840799 80.067167 L 95.496422 80.035166 L 95.153064 80.003032 L 94.810710 79.970763 L 94.469341 79.938361 L 94.128940 79.905826 L 93.789492 79.873158 L 93.450978 79.840358 L 93.113384 79.807425 L 92.776691 79.774360 L 92.440885 79.741162 L 92.105949 79.707833 L 91.771868 79.674371 L 91.438625 79.640778 L 91.106205 79.607053 L 90.774593 79.573195 L 90.443773 79.539206 L 90.113730 79.505085 L 89.784449 79.470831 L 89.455915 79.436445 L 89.128113 79.401926 L 88.801029 79.367274 L 88.474648 79.332490 L 88.148955 79.297572 L 87.823937 79.262521 L 87.499578 79.227336 L 87.175866 79.192016 L 86.852785 79.156562 L 86.530322 79.120973 L 86.208463 79.085249 L 85.887195 79.049389 L 85.566503 79.013393 L 85.246374 78.977259 L 84.926795 78.940989 L 84.607752 78.904581 L 84.289233 78.868034 L 83.971223 78.831348 L 83.653710 78.794523 L 83.336680 78.757558 L 83.020122 78.720451 L 82.704021 78.683203 L 82.388365 78.645813 L 82.073141 78.608279 L 81.758337 78.570602 L 81.443939 78.532780 L 81.129936 78.494813 L 80.816315 78.456699 L 80.503063 78.418438 L 80.190169 78.380029 L 79.877618 78.341471 L 79.565401 78.302764 L 79.253503 78.263905 L 78.941914 78.224895 L 78.630620 78.185731 L 78.319610 78.146414 L 78.008872 78.106942 L 77.698394 78.067314 L 77.388163 78.027529 L 77.078168 77.987585 L 76.768397 77.947483 L 76.458839 77.907219 L 76.149480 77.866794 L 75.840310 77.826206 L 75.531317 77.785453 L 75.222488 77.744535 L 74.913813 77.703450 L 74.605280 77.662197 L 74.296876 77.620774 L 73.988591 77.579180 L 73.680412 77.537414 L 73.372328 77.495474 L 73.064328 77.453359 L 72.756399 77.411067 L 72.448530 77.368597 L 72.140711 77.325947 L 71.832928 77.283116 L 71.525171 77.240102 L 71.217427 77.196903 L 70.909687 77.153518 L 70.601937 77.109945 L 70.294166 77.066182 L 69.986363 77.022228 L 69.678516 76.978080 L 69.370614 76.933738 L 69.062645 76.889199 L 68.754598 76.844462 L 68.446460 76.799523 L 68.138220 76.754383 L 67.829867 76.709038 L 67.521390 76.663487 L 67.212775 76.617727 L 66.904012 76.571757 L 66.595089 76.525574 L 66.285994 76.479177 L 65.976716 76.432563 L 65.667243 76.385730 L 65.357562 76.338676 L 65.047662 76.291399 L 64.737532 76.243896 L 64.427158 76.196165 L 64.116530 76.148203 L 63.805636 76.100009 L 63.494462 76.051580 L 63.182998 76.002914 L 62.871231 75.954007 L 62.559149 75.904858 L 62.246740 75.855463 L 61.933991 75.805821 L 61.620890 75.755928 L 61.307425 75.705782 L 60.993584 75.655380 L 60.679353 75.604720 L 60.364721 75.553798 L 60.049675 75.502612 L 59.734202 75.451158 L 59.418290 75.399435 L 59.101925 75.347438 L 58.785095 75.295165 L 58.467786 75.242612 L 58.149987 75.189778 L 57.831683 75.136657 L 57.512862 75.083248 L 57.193510 75.029546 L 56.873615 74.975550 L 56.553162 74.921254 L 56.232138 74.866656 L 55.910529 74.811752 L 55.588323 74.756539 L 55.265505 74.701012 L 54.942060 74.645170 L 54.617976 74.589007 L 54.293238 74.532520 L 53.967832 74.475705 L 53.641744 74.418558 L 53.314959 74.361076 L 52.987463 74.303254 L 52.659241 74.245088 L 52.330278 74.186574 L 52.000559 74.127709 L 51.670071 74.068486 L 51.338796 74.008903 L 51.006721 73.948955 L 50.673829 73.888638 L 50.340106 73.827946 L 50.005535 73.766876 L 49.670101 73.705422 L 49.333788 73.643580 L 48.996580 73.581345 L 48.658460 73.518711 L 48.319412 73.455675 L 47.979420 73.392231 L 47.638466 73.328374 L 47.296535 73.264098 L 46.953608 73.199399 L 46.609669 73.134270 L 46.264700 73.068707 L 45.918684 73.002703 L 45.571603 72.936253 L 45.223438 72.869352 L 44.874173 72.801992 L 44.523788 72.734170 L 44.172264 72.665877 L 43.819584 72.597108 L 43.465729 72.527857 L 43.110678 72.458118 L 42.754413 72.387883 L 42.396913 72.317147 L 42.038160 72.245902 L 41.678134 72.174141 L 41.316813 72.101859 L 40.954177 72.029046 L 40.590206 71.955698 L 40.224878 71.881805 L 39.858172 71.807361 L 39.490068 71.732358 L 39.120541 71.656787 L 38.749572 71.580643 L 38.377137 71.503915 L 38.003213 71.426597 L 37.627779 71.348680 L 37.250809 71.270155 L 36.872282 71.191014 L 36.492173 71.111248 L 36.110457 71.030848 L 35.727111 70.949805 L 35.342110 70.868110 L 34.955428 70.785754 L 34.567040 70.702726 L 34.176920 70.619017 L 33.785041 70.534617 L 33.391378 70.449516 L 32.995904 70.363704 L 32.598590 70.277169 L 32.199410 70.189902 L 31.798335 70.101892 L 31.395337 70.013127 L 30.990386 69.923595 L 30.583454 69.833286 L 30.174510 69.742187 L 29.763525 69.650287 L 29.350468 69.557573 L 28.935307 69.464033 L 28.518011 69.369653 L 28.098549 69.274422 L 27.676886 69.178325 L 27.252991 69.081350 L 26.826830 68.983481 L 26.398368 68.884706 L 25.967571 68.785010 L 25.534404 68.684378 L 25.098831 68.582796 L 24.660815 68.480247 L 24.220321 68.376717 L 23.777310 68.272189 L 23.331743 68.166647 L 22.883584 68.060076 L 22.432791 67.952457 L 21.979326 67.843773 L 21.523147 67.734008 L 21.064213 67.623142 L 20.602482 67.511157 L 20.137911 67.398036 L 19.670457 67.283757 L 19.200075 67.168302 L 18.726721 67.051651 L 18.250348 66.933784 L 17.770910 66.814678 L 17.288360 66.694313 L 16.802649 66.572668 L 16.313728 66.449718 L 15.821547 66.325443 L 15.326056 66.199817 L 14.827202 66.072818 L 14.324933 65.944421 L 13.819195 65.814600 L 13.309933 65.683331 L 12.797092 65.550587 L 12.280615 65.416340 L 11.760444 65.280565 L 11.236520 65.143231 L 10.708782 65.004312 L 10.177171 64.863777 L 9.641624 64.721596 L 9.190821 64.601400" fill="none" id="tattoo-path-5ad922fffb19b23b" stroke="#000000" stroke-linecap="round" stroke-linejoin="round" stroke-width="1.200000"/>
  <path clip-path="url(#tattoo-band-layer-clip)" d="M 107.018432 126.155548 L 106.971397 126.165539 L 106.423825 126.277667 L 105.876974 126.385486 L 105.330869 126.489026 L 104.785533 126.588318 L 104.240987 126.683390 L 103.697253 126.774273 L 103.154352 126.860996 L 102.612305 126.943589 L 102.071132 127.022079 L 101.530853 127.096497 L 100.991487 127.166871 L 100.453053 127.233228 L 99.915570 127.295599 L 99.379056 127.354010 L 98.843527 127.408490 L 98.309003 127.459067 L 97.775498 127.505767 L 97.243030 127.548619 L 96.711615 127.587650 L 96.181269 127.622885 L 95.652005 127.654353 L 95.123841 127.682079 L 94.596789 127.706090 L 94.070865 127.726413 L 93.546083 127.743072 L 93.022455 127.756093 L 92.499995 127.765503 L 91.978715 127.771325 L 91.458630 127.773586 L 90.939750 127.772310 L 90.422087 127.767521 L 89.905655 127.759244 L 89.390462 127.747503 L 88.876522 127.732322 L 88.363845 127.713725 L 87.852441 127.691734 L 87.342320 127.666374 L 86.833493 127.637667 L 86.325970 127.605637 L 85.819759 127.570305 L 85.314871 127.531694 L 84.811314 127.489826 L 84.309098 127.444723 L 83.808230 127.396407 L 83.308720 127.344899 L 82.810575 127.290221 L 82.313803 127.232393 L 81.818413 127.171437 L 81.324411 127.107372 L 80.831806 127.040220 L 80.340604 126.970000 L 79.850813 126.896732 L 79.362439 126.820436 L 78.875489 126.741132 L 78.389969 126.658838 L 77.905886 126.573575 L 77.423247 126.485360 L 76.942056 126.394212 L 76.462321 126.300150 L 75.984046 126.203191 L 75.507238 126.103355 L 75.031901 126.000658 L 74.558042 125.895118 L 74.085665 125.786753 L 73.614775 125.675580 L 73.145378 125.561615 L 72.677479 125.444876 L 72.211081 125.325378 L 71.746190 125.203139 L 71.282810 125.078174 L 70.820945 124.950499 L 70.360601 124.820130 L 69.901781 124.687083 L 69.444489 124.551372 L 68.988729 124.413014 L 68.534506 124.272022 L 68.081823 124.128412 L 67.630685 123.982198 L 67.181094 123.833394 L 66.733054 123.682015 L 66.286570 123.528075 L 65.841644 123.371587 L 65.398280 123.212565 L 64.956482 123.051022 L 64.516253 122.886972 L 64.077597 122.720427 L 63.640516 122.551401 L 63.205013 122.379906 L 62.771093 122.205955 L 62.338758 122.029559 L 61.908011 121.850732 L 61.478855 121.669485 L 61.051294 121.485829 L 60.625330 121.299777 L 60.200967 121.111340 L 59.778207 120.920529 L 59.357054 120.727355 L 58.937509 120.531829 L 58.519578 120.333963 L 58.103261 120.133766 L 57.688562 119.931249 L 57.275484 119.726422 L 56.864030 119.519296 L 56.454203 119.309880 L 56.046005 119.098184 L 55.639440 118.884218 L 55.234510 118.667992 L 54.831218 118.449514 L 54.429567 118.228795 L 54.029561 118.005842 L 53.631202 117.780665 L 53.234492 117.553272 L 52.839436 117.323673 L 52.446035 117.091875 L 52.054293 116.857888 L 51.664213 116.621718 L 51.275798 116.383375 L 50.889051 116.142865 L 50.503976 115.900198 L 50.120574 115.655380 L 49.738850 115.408418 L 49.358807 115.159321 L 48.980447 114.908095 L 48.603775 114.654748 L 48.228794 114.399287 L 47.855506 114.141717 L 47.483916 113.882047 L 47.114026 113.620282 L 46.745841 113.356430 L 46.379363 113.090496 L 46.014597 112.822486 L 45.651547 112.552407 L 45.290215 112.280265 L 44.930606 112.006065 L 44.572723 111.729813 L 44.216571 111.451516 L 43.862153 111.171177 L 43.509474 110.888804 L 43.158538 110.604401 L 42.809348 110.317973 L 42.461909 110.029525 L 42.116225 109.739063 L 41.772302 109.446591 L 41.430142 109.152114 L 41.089751 108.855637 L 40.751133 108.557164 L 40.414294 108.256699 L 40.079237 107.954248 L 39.745969 107.649815 L 39.414493 107.343403 L 39.084814 107.035017 L 38.756939 106.724660 L 38.430871 106.412337 L 38.106617 106.098052 L 37.784182 105.781808 L 37.463572 105.463609 L 37.144791 105.143459 L 36.827846 104.821361 L 36.512743 104.497318 L 36.199487 104.171334 L 35.888084 103.843412 L 35.578541 103.513556 L 35.270864 103.181768 L 34.965059 102.848051 L 34.661133 102.512409 L 34.359092 102.174845 L 34.058942 101.835361 L 33.760692 101.493960 L 33.464347 101.150645 L 33.169914 100.805418 L 32.877401 100.458283 L 32.586816 100.109241 L 32.298164 99.758296 L 32.011455 99.405449 L 31.726695 99.050703 L 31.443893 98.694061 L 31.163056 98.335525 L 30.884192 97.975096 L 30.607309 97.612778 L 30.332417 97.248572 L 30.059523 96.882480 L 29.788635 96.514505 L 29.519764 96.144649 L 29.252916 95.772913 L 28.988102 95.399300 L 28.725331 95.023812 L 28.464612 94.646450 L 28.205954 94.267216 L 27.949367 93.886113 L 27.694861 93.503141 L 27.442445 93.118304 L 27.192130 92.731602 L 26.943926 92.343038 L 26.697843 91.952613 L 26.453892 91.560330 L 26.212084 91.166189 L 25.972429 90.770193 L 25.734939 90.372343 L 25.499624 89.972641 L 25.266496 89.571088 L 25.035566 89.167688 L 24.806847 88.762441 L 24.580350 88.355348 L 24.356086 87.946413 L 24.134070 87.535636 L 23.914312 87.123020 L 23.696825 86.708565 L 23.481622 86.292275 L 23.268717 85.874151 L 23.058122 85.454194 L 22.849850 85.032407 L 22.643915 84.608791 L 22.440331 84.183349 L 22.239111 83.756083 L 22.040270 83.326994 L 21.843822 82.896085 L 21.649782 82.463357 L 21.458163 82.028814 L 21.268981 81.592456 L 21.082252 81.154288 L 20.897990 80.714310 L 20.716210 80.272525 L 20.536929 79.828936 L 20.360162 79.383545 L 20.185925 78.936355 L 20.014236 78.487369 L 19.845109 78.036589 L 19.678562 77.584018 L 19.514613 77.129659 L 19.353277 76.673515 L 19.194573 76.215589 L 19.038517 75.755885 L 18.885129 75.294405 L 18.734425 74.831154 L 18.586425 74.366134 L 18.441146 73.899349 L 18.298607 73.430804 L 18.158828 72.960501 L 18.021827 72.488445 L 17.887623 72.014640 L 17.756238 71.539091 L 17.627689 71.061801 L 17.501998 70.582776 L 17.379185 70.102019 L 17.259270 69.619536 L 17.142274 69.135332 L 17.028218 68.649411 L 16.917124 68.161780 L 16.809012 67.672444 L 16.703905 67.181408 L 16.601825 66.688678 L 16.502794 66.194261 L 16.406834 65.698162 L 16.313969 65.200388 L 16.224220 64.700946 L 16.137612 64.199842 L 16.054168 63.697084 L 15.973911 63.192678 L 15.896866 62.686633 L 15.823057 62.178956 L 15.752507 61.669654 L 15.685243 61.158737 L 15.621289 60.646213 L 15.560669 60.132090 L 15.503411 59.616377 L 15.449538 59.099084 L 15.399078 58.580221 L 15.352056 58.059796 L 15.308500 57.537820 L 15.268434 57.014304 L 15.231888 56.489257 L 15.198887 55.962693 L 15.169460 55.434620 L 15.143634 54.905052 L 15.121437 54.373999 L 15.102896 53.841476 L 15.088042 53.307493 L 15.076902 52.772064 L 15.069505 52.235203 L 15.065881 51.696923 L 15.066058 51.157238 L 15.070067 50.616163 L 15.077938 50.073713 L 15.089700 49.529903 L 15.105384 48.984748 L 15.125021 48.438266 L 15.148642 47.890471 L 15.176276 47.341382 L 15.207957 46.791016 L 15.243715 46.239391 L 15.283582 45.686524 L 15.327590 45.132436 L 15.375772 44.577144 L 15.428159 44.020669 L 15.433016 43.972831" fill="none" id="tattoo-path-cee0ee21f9fe6940" stroke="#000000" stroke-linecap="round" stroke-linejoin="round" stroke-width="1.000000"/>
  <path clip-path="url(#tattoo-band-layer-clip)" d="M 44.191646 129.675844 L 44.310214 129.268695 L 44.465971 128.736563 L 44.621266 128.208678 L 44.776101 127.684972 L 44.930479 127.165377 L 45.084403 126.649827 L 45.237875 126.138257 L 45.390899 125.630603 L 45.543478 125.126802 L 45.695614 124.626794 L 45.847312 124.130518 L 45.998574 123.637915 L 46.149404 123.148927 L 46.299805 122.663498 L 46.449781 122.181571 L 46.599335 121.703093 L 46.748471 121.228008 L 46.897192 120.756266 L 47.045503 120.287813 L 47.193407 119.822599 L 47.340907 119.360574 L 47.488008 118.901690 L 47.634714 118.445897 L 47.781028 117.993149 L 47.926954 117.543399 L 48.072496 117.096602 L 48.217659 116.652712 L 48.362446 116.211686 L 48.506862 115.773480 L 48.650909 115.338053 L 48.794594 114.905361 L 48.937918 114.475364 L 49.080888 114.048021 L 49.223506 113.623293 L 49.365777 113.201141 L 49.507705 112.781526 L 49.649295 112.364410 L 49.790549 111.949756 L 49.931473 111.537527 L 50.072071 111.127689 L 50.212347 110.720204 L 50.352305 110.315039 L 50.491950 109.912158 L 50.631284 109.511529 L 50.770314 109.113118 L 50.909042 108.716893 L 51.047474 108.322820 L 51.185613 107.930869 L 51.323463 107.541009 L 51.461029 107.153207 L 51.598316 106.767435 L 51.735326 106.383663 L 51.872064 106.001861 L 52.008536 105.622000 L 52.144744 105.244051 L 52.280692 104.867988 L 52.416386 104.493781 L 52.551830 104.121404 L 52.687027 103.750830 L 52.821981 103.382032 L 52.956697 103.014985 L 53.091180 102.649662 L 53.225432 102.286039 L 53.359459 101.924089 L 53.493264 101.563789 L 53.626852 101.205115 L 53.760227 100.848041 L 53.893393 100.492545 L 54.026353 100.138603 L 54.159113 99.786193 L 54.291676 99.435291 L 54.424047 99.085874 L 54.556229 98.737922 L 54.688227 98.391411 L 54.820044 98.046321 L 54.951685 97.702631 L 55.083154 97.360318 L 55.214455 97.019362 L 55.345592 96.679744 L 55.476569 96.341442 L 55.607391 96.004437 L 55.738060 95.668709 L 55.868582 95.334238 L 55.998961 95.001006 L 56.129199 94.668992 L 56.259302 94.338179 L 56.389274 94.008548 L 56.519118 93.680080 L 56.648839 93.352757 L 56.778440 93.026561 L 56.907926 92.701475 L 57.037300 92.377481 L 57.166568 92.054562 L 57.295731 91.732700 L 57.424796 91.411878 L 57.553765 91.092080 L 57.682643 90.773290 L 57.811434 90.455489 L 57.940141 90.138664 L 58.068769 89.822796 L 58.197322 89.507871 L 58.325804 89.193872 L 58.454218 88.880785 L 58.582569 88.568593 L 58.710861 88.257281 L 58.839098 87.946834 L 58.967283 87.637238 L 59.095422 87.328476 L 59.223517 87.020536 L 59.351573 86.713401 L 59.479594 86.407057 L 59.607583 86.101491 L 59.735546 85.796688 L 59.863485 85.492634 L 59.991406 85.189315 L 60.119312 84.886717 L 60.247206 84.584826 L 60.375094 84.283629 L 60.502979 83.983113 L 60.630865 83.683264 L 60.758756 83.384068 L 60.886657 83.085514 L 61.014571 82.787586 L 61.142502 82.490274 L 61.270455 82.193563 L 61.398434 81.897442 L 61.526443 81.601896 L 61.654486 81.306915 L 61.782566 81.012485 L 61.910689 80.718594 L 62.038858 80.425229 L 62.167078 80.132379 L 62.295352 79.840031 L 62.423685 79.548173 L 62.552082 79.256794 L 62.680545 78.965880 L 62.809080 78.675421 L 62.937691 78.385405 L 63.066382 78.095820 L 63.195157 77.806654 L 63.324020 77.517895 L 63.452976 77.229533 L 63.582030 76.941556 L 63.711184 76.653951 L 63.840445 76.366709 L 63.969816 76.079818 L 64.099301 75.793266 L 64.228905 75.507042 L 64.358633 75.221135 L 64.488488 74.935534 L 64.618476 74.650229 L 64.748600 74.365207 L 64.878865 74.080459 L 65.009277 73.795972 L 65.139838 73.511737 L 65.270555 73.227743 L 65.401431 72.943977 L 65.532471 72.660431 L 65.663679 72.377093 L 65.795061 72.093953 L 65.926622 71.810999 L 66.058365 71.528221 L 66.190295 71.245609 L 66.322418 70.963152 L 66.454738 70.680839 L 66.587261 70.398660 L 66.719989 70.116604 L 66.852930 69.834661 L 66.986088 69.552820 L 67.119467 69.271071 L 67.253073 68.989404 L 67.386910 68.707807 L 67.520984 68.426271 L 67.655300 68.144784 L 67.789863 67.863338 L 67.924678 67.581920 L 68.059751 67.300522 L 68.195086 67.019131 L 68.330690 66.737739 L 68.466566 66.456334 L 68.602721 66.174906 L 68.739160 65.893445 L 68.875889 65.611941 L 69.012913 65.330382 L 69.150237 65.048758 L 69.287867 64.767060 L 69.425810 64.485276 L 69.564069 64.203397 L 69.702652 63.921411 L 69.841564 63.639308 L 69.980811 63.357078 L 70.120399 63.074710 L 70.260333 62.792194 L 70.400620 62.509518 L 70.541266 62.226673 L 70.682276 61.943648 L 70.823658 61.660432 L 70.965416 61.377015 L 71.107559 61.093385 L 71.250091 60.809533 L 71.393019 60.525447 L 71.536350 60.241116 L 71.680090 59.956530 L 71.824246 59.671678 L 71.968825 59.386549 L 72.113832 59.101132 L 72.259276 58.815416 L 72.405163 58.529390 L 72.551499 58.243043 L 72.698292 57.956364 L 72.845550 57.669341 L 72.993278 57.381964 L 73.141484 57.094221 L 73.290177 56.806101 L 73.439362 56.517592 L 73.589048 56.228684 L 73.739241 55.939363 L 73.889951 55.649620 L 74.041184 55.359442 L 74.192948 55.068818 L 74.345252 54.777735 L 74.498102 54.486183 L 74.651508 54.194148 L 74.805478 53.901620 L 74.960019 53.608586 L 75.115141 53.315034 L 75.270851 53.020951 L 75.427159 52.726326 L 75.584072 52.431146 L 75.741601 52.135399 L 75.899753 51.839072 L 76.058538 51.542153 L 76.217964 51.244628 L 76.378042 50.946485 L 76.538781 50.647711 L 76.700189 50.348294 L 76.862277 50.048219 L 77.025055 49.747474 L 77.188532 49.446045 L 77.352718 49.143919 L 77.517624 48.841083 L 77.683259 48.537522 L 77.849634 48.233223 L 78.016760 47.928173 L 78.184648 47.622356 L 78.353307 47.315760 L 78.522750 47.008369 L 78.692987 46.700169 L 78.864030 46.391146 L 79.035890 46.081286 L 79.208578 45.770572 L 79.382107 45.458991 L 79.556489 45.146528 L 79.731735 44.833166 L 79.907858 44.518891 L 80.084870 44.203687 L 80.262784 43.887539 L 80.441613 43.570431 L 80.621370 43.252346 L 80.802068 42.933269 L 80.983720 42.613182 L 81.166341 42.292071 L 81.349943 41.969917 L 81.534542 41.646705 L 81.720151 41.322416 L 81.906784 40.997034 L 82.094457 40.670542 L 82.283185 40.342921 L 82.472982 40.014154 L 82.663864 39.684223 L 82.855846 39.353110 L 83.048945 39.020796 L 83.243177 38.687262 L 83.438557 38.352490 L 83.635103 38.016461 L 83.832832 37.679155 L 84.031761 37.340552 L 84.231907 37.000633 L 84.433288 36.659378 L 84.635923 36.316766 L 84.839829 35.972777 L 85.045025 35.627391 L 85.251530 35.280585 L 85.459365 34.932339 L 85.668547 34.582630 L 85.879098 34.231438 L 86.091037 33.878740 L 86.304385 33.524514 L 86.519164 33.168736 L 86.735395 32.811383 L 86.953099 32.452433 L 87.172299 32.091861 L 87.393017 31.729644 L 87.615276 31.365757 L 87.839100 31.000175 L 88.064513 30.632874 L 88.291538 30.263827 L 88.520200 29.893010 L 88.750525 29.520396 L 88.982538 29.145959 L 89.216265 28.769672 L 89.451733 28.391507 L 89.688968 28.011437 L 89.927998 27.629434 L 90.168852 27.245469 L 90.411558 26.859514 L 90.656145 26.471539 L 90.902643 26.081515 L 91.151081 25.689411 L 91.401492 25.295197 L 91.653906 24.898842 L 91.908355 24.500313 L 92.164873 24.099580 L 92.423492 23.696609 L 92.684247 23.291367 L 92.947172 22.883821 L 93.212302 22.473937 L 93.479674 22.061679 L 93.749326 21.647014 L 94.021293 21.229904 L 94.295615 20.810314 L 94.572330 20.388207 L 94.851480 19.963545 L 95.133103 19.536291 L 95.417244 19.106404 L 95.703943 18.673847 L 95.993244 18.238578 L 96.285191 17.800558 L 96.579831 17.359744 L 96.877209 16.916095 L 97.177372 16.469568 L 97.480370 16.020120 L 97.786250 15.567705 L 98.095064 15.112279 L 98.406864 14.653797 L 98.645815 14.303468" fill="none" id="tattoo-path-94aaa8ef9f48177a" stroke="#000000" stroke-linecap="round" stroke-linejoin="round" stroke-width="0.800000"/>
  <circle cx="72.500000" cy="72.500000" fill="none" id="tattoo-boundary-da45c61d325de3be" r="64.900000" stroke="#000000" stroke-width="2.200000"/>
</svg>
