<svg height="145.000000mm" version="1.1" viewBox="0 0 145.000000 145.000000" width="145.000000mm" xmlns="http://www.w3.org/2000/svg">
  <defs>
    <clipPath clipPathUnits="userSpaceOnUse" id="tattoo-band-layer-clip">
      <circle cx="72.500000" cy="72.500000" r="63.800000"/>
    </clipPath>
  </defs>
  <path clip-path="url(#tattoo-band-layer-clip)" d="M 136.015553 78.517852 L 135.531492 78.528180 L 134.977658 78.539496 L 134.428049 78.550232 L 133.882596 78.560401 L 133.341232 78.570016 L 132.803892 78.579088 L 132.270512 78.587629 L 131.741028 78.595649 L 131.215379 78.603161 L 130.693504 78.610175 L 130.175342 78.616700 L 129.660837 78.622747 L 129.149930 78.628327 L 128.642564 78.633447 L 128.138686 78.638119 L 127.638240 78.642349 L 127.141172 78.646149 L 126.647432 78.649525 L 126.156967 78.652486 L 125.669726 78.655041 L 125.185661 78.657197 L 124.704721 78.658962 L 124.226861 78.660343 L 123.752032 78.661348 L 123.280188 78.661984 L 122.811283 78.662256 L 122.345274 78.662174 L 121.882116 78.661741 L 121.421766 78.660966 L 120.964182 78.659855 L 120.509321 78.658412 L 120.057143 78.656645 L 119.607607 78.654559 L 119.160674 78.652159 L 118.716305 78.649450 L 118.274461 78.646439 L 117.835104 78.643131 L 117.398197 78.639529 L 116.963704 78.635640 L 116.531589 78.631467 L 116.101815 78.627016 L 115.674349 78.622291 L 115.249155 78.617297 L 114.826201 78.612037 L 114.405452 78.606516 L 113.986876 78.600738 L 113.570441 78.594707 L 113.156114 78.588426 L 112.743864 78.581900 L 112.333661 78.575132 L 111.925474 78.568125 L 111.519273 78.560884 L 111.115029 78.553411 L 110.712711 78.545710 L 110.312293 78.537784 L 109.913745 78.529636 L 109.517039 78.521269 L 109.122148 78.512686 L 108.729045 78.503890 L 108.337703 78.494884 L 107.948096 78.485670 L 107.560198 78.476251 L 107.173982 78.466630 L 106.789424 78.456809 L 106.406500 78.446791 L 106.025183 78.436578 L 105.645450 78.426171 L 105.267276 78.415575 L 104.890639 78.404790 L 104.515515 78.393819 L 104.141880 78.382664 L 103.769712 78.371327 L 103.398989 78.359809 L 103.029687 78.348114 L 102.661786 78.336241 L 102.295263 78.324195 L 101.930097 78.311975 L 101.566267 78.299584 L 101.203752 78.287024 L 100.842532 78.274295 L 100.482585 78.261400 L 100.123892 78.248340 L 99.766433 78.235117 L 99.410188 78.221731 L 99.055138 78.208185 L 98.701263 78.194478 L 98.348544 78.180614 L 97.996963 78.166593 L 97.646500 78.152416 L 97.297138 78.138084 L 96.948858 78.123599 L 96.601642 78.108961 L 96.255472 78.094171 L 95.910330 78.079231 L 95.566200 78.064142 L 95.223063 78.048904 L 94.880902 78.033518 L 94.539702 78.017985 L 94.199443 78.002306 L 93.860112 77.986481 L 93.521689 77.970512 L 93.184160 77.954399 L 92.847508 77.938143 L 92.511717 77.921745 L 92.176771 77.905204 L 91.842655 77.888522 L 91.509352 77.871699 L 91.176848 77.854735 L 90.845127 77.837632 L 90.514173 77.820390 L 90.183973 77.803008 L 89.854510 77.785488 L 89.525770 77.767830 L 89.197738 77.750034 L 88.870400 77.732101 L 88.543741 77.714030 L 88.217747 77.695822 L 87.892403 77.677478 L 87.567696 77.658997 L 87.243611 77.640380 L 86.920134 77.621627 L 86.597252 77.602737 L 86.274950 77.583712 L 85.953216 77.564551 L 85.632035 77.545254 L 85.311394 77.525821 L 84.991279 77.506253 L 84.671678 77.486549 L 84.352577 77.466709 L 84.033962 77.446734 L 83.715822 77.426622 L 83.398142 77.406374 L 83.080910 77.385991 L 82.764112 77.365471 L 82.447737 77.344814 L 82.131772 77.324021 L 81.816202 77.303090 L 81.501017 77.282023 L 81.186204 77.260818 L 80.871750 77.239476 L 80.557642 77.217995 L 80.243868 77.196376 L 79.930416 77.174618 L 79.617274 77.152721 L 79.304429 77.130684 L 78.991869 77.108508 L 78.679582 77.086191 L 78.367556 77.063733 L 78.055779 77.041134 L 77.744238 77.018393 L 77.432922 76.995509 L 77.121819 76.972482 L 76.810917 76.949312 L 76.500204 76.925998 L 76.189668 76.902538 L 75.879297 76.878933 L 75.569080 76.855182 L 75.259004 76.831284 L 74.949058 76.807239 L 74.639230 76.783045 L 74.329508 76.758702 L 74.019881 76.734210 L 73.710337 76.709566 L 73.400864 76.684771 L 73.091451 76.659824 L 72.782086 76.634723 L 72.472756 76.609469 L 72.163452 76.584059 L 71.854160 76.558493 L 71.544869 76.532770 L 71.235568 76.506889 L 70.926245 76.480849 L 70.616888 76.454649 L 70.307485 76.428288 L 69.998026 76.401765 L 69.688497 76.375078 L 69.378888 76.348227 L 69.069187 76.321210 L 68.759382 76.294027 L 68.449461 76.266675 L 68.139413 76.239154 L 67.829226 76.211463 L 67.518887 76.183599 L 67.208386 76.155562 L 66.897711 76.127351 L 66.586848 76.098964 L 66.275788 76.070400 L 65.964517 76.041656 L 65.653023 76.012733 L 65.341296 75.983628 L 65.029322 75.954339 L 64.717090 75.924866 L 64.404587 75.895207 L 64.091802 75.865359 L 63.778722 75.835322 L 63.465335 75.805094 L 63.151629 75.774673 L 62.837591 75.744057 L 62.523209 75.713245 L 62.208470 75.682234 L 61.893363 75.651024 L 61.577874 75.619611 L 61.261991 75.587995 L 60.945702 75.556173 L 60.628993 75.524144 L 60.311851 75.491905 L 59.994265 75.459454 L 59.676220 75.426790 L 59.357705 75.393910 L 59.038706 75.360811 L 58.719209 75.327493 L 58.399202 75.293953 L 58.078671 75.260188 L 57.757602 75.226196 L 57.435984 75.191975 L 57.113801 75.157522 L 56.791040 75.122836 L 56.467687 75.087913 L 56.143729 75.052752 L 55.819152 75.017349 L 55.493942 74.981702 L 55.168084 74.945809 L 54.841564 74.909666 L 54.514368 74.873272 L 54.186481 74.836623 L 53.857889 74.799716 L 53.528578 74.762549 L 53.198532 74.725119 L 52.867736 74.687423 L 52.536175 74.649458 L 52.203835 74.611220 L 51.870700 74.572707 L 51.536754 74.533916 L 51.201983 74.494843 L 50.866369 74.455486 L 50.529898 74.415840 L 50.192553 74.375903 L 49.854318 74.335670 L 49.515177 74.295139 L 49.175114 74.254306 L 48.834111 74.213168 L 48.492153 74.171720 L 48.149221 74.129959 L 47.805300 74.087881 L 47.460372 74.045483 L 47.114418 74.002760 L 46.767423 73.959708 L 46.419367 73.916323 L 46.070233 73.872602 L 45.720003 73.828539 L 45.368658 73.784131 L 45.016179 73.739374 L 44.662549 73.694262 L 44.307747 73.648791 L 43.951755 73.602957 L 43.594553 73.556756 L 43.236122 73.510181 L 42.876441 73.463229 L 42.515490 73.415894 L 42.153250 73.368171 L 41.789700 73.320056 L 41.424818 73.271543 L 41.058583 73.222626 L 40.690975 73.173301 L 40.321972 73.123562 L 39.951551 73.073403 L 39.579691 73.022819 L 39.206369 72.971803 L 38.831563 72.920350 L 38.455249 72.868454 L 38.077404 72.816108 L 37.698005 72.763307 L 37.317027 72.710043 L 36.934446 72.656312 L 36.550239 72.602105 L 36.164379 72.547416 L 35.776842 72.492238 L 35.387602 72.436565 L 34.996633 72.380389 L 34.603909 72.323703 L 34.209403 72.266499 L 33.813089 72.208770 L 33.414938 72.150508 L 33.014923 72.091706 L 32.613016 72.032355 L 32.209189 71.972447 L 31.803411 71.911974 L 31.395655 71.850927 L 30.985889 71.789298 L 30.574083 71.727078 L 30.160208 71.664257 L 29.744231 71.600828 L 29.326121 71.536779 L 28.905846 71.472103 L 28.483372 71.406788 L 28.058668 71.340825 L 27.631698 71.274205 L 27.202430 71.206915 L 26.770827 71.138947 L 26.336856 71.070289 L 25.900479 71.000930 L 25.461661 70.930859 L 25.020364 70.860064 L 24.576551 70.788533 L 24.130183 70.716256 L 23.681222 70.643218 L 23.229628 70.569409 L 22.775361 70.494815 L 22.318380 70.419422 L 21.858644 70.343219 L 21.396110 70.266190 L 20.930735 70.188323 L 20.462475 70.109603 L 19.991287 70.030015 L 19.517125 69.949545 L 19.039942 69.868177 L 18.559692 69.785895 L 18.076328 69.702685 L 17.589801 69.618530 L 17.100061 69.533412 L 16.607058 69.447316 L 16.110741 69.360223 L 15.611058 69.272116 L 15.107956 69.182977 L 14.601381 69.092787 L 14.091278 69.001528 L 13.577591 68.909178 L 13.060262 68.815719 L 12.539234 68.721131 L 12.014447 68.625391 L 11.485841 68.528480 L 10.953354 68.430374 L 10.416923 68.331052 L 9.876486 68.230490 L 9.331975 68.128665 L 8.856135 68.039236" fill="none" id="tattoo-path-db9a2ead77f9e5f8" stroke="#000000" stroke-linecap="round" stroke-linejoin="round" stroke-width="4.800000"/>
  <path clip-path="url(#tattoo-band-layer-clip)" d="M 130.972207 98.023343 L 130.899233 97.779807 L 130.736121 97.247060 L 130.570677 96.717961 L 130.402945 96.192482 L 130.232967 95.670598 L 130.060785 95.152279 L 129.886439 94.637501 L 129.709970 94.126237 L 129.531416 93.618459 L 129.350815 93.114141 L 129.168205 92.613257 L 128.983622 92.115780 L 128.797102 91.621683 L 128.608679 91.130942 L 128.418389 90.643529 L 128.226264 90.159419 L 128.032337 89.678586 L 127.836641 89.201004 L 127.639205 88.726648 L 127.440062 88.255491 L 127.239240 87.787510 L 127.036770 87.322678 L 126.832679 86.860970 L 126.626996 86.402363 L 126.419747 85.946830 L 126.210961 85.494347 L 126.000661 85.044891 L 125.788875 84.598436 L 125.575628 84.154959 L 125.360942 83.714435 L 125.144843 83.276842 L 124.927353 82.842155 L 124.708495 82.410351 L 124.488292 81.981407 L 124.266764 81.555299 L 124.043934 81.132005 L 123.819822 80.711503 L 123.594447 80.293769 L 123.367830 79.878781 L 123.139990 79.466518 L 122.910945 79.056957 L 122.680714 78.650076 L 122.449315 78.245854 L 122.216765 77.844270 L 121.983081 77.445301 L 121.748280 77.048928 L 121.512378 76.655129 L 121.275391 76.263884 L 121.037333 75.875172 L 120.798221 75.488973 L 120.558068 75.105267 L 120.316889 74.724033 L 120.074697 74.345253 L 119.831507 73.968906 L 119.587331 73.594974 L 119.342182 73.223437 L 119.096073 72.854276 L 118.849016 72.487472 L 118.601022 72.123008 L 118.352103 71.760863 L 118.102271 71.401021 L 117.851535 71.043463 L 117.599907 70.688171 L 117.347398 70.335128 L 117.094015 69.984316 L 116.839771 69.635718 L 116.584673 69.289316 L 116.328732 68.945095 L 116.071955 68.603036 L 115.814352 68.263124 L 115.555931 67.925342 L 115.296699 67.589674 L 115.036666 67.256103 L 114.775837 66.924615 L 114.514221 66.595192 L 114.251825 66.267821 L 113.988656 65.942485 L 113.724719 65.619169 L 113.460022 65.297859 L 113.194571 64.978539 L 112.928372 64.661195 L 112.661430 64.345812 L 112.393751 64.032376 L 112.125340 63.720874 L 111.856202 63.411290 L 111.586343 63.103612 L 111.315766 62.797825 L 111.044477 62.493917 L 110.772480 62.191873 L 110.499779 61.891681 L 110.226377 61.593328 L 109.952280 61.296801 L 109.677489 61.002088 L 109.402009 60.709175 L 109.125844 60.418051 L 108.848995 60.128703 L 108.571466 59.841119 L 108.293259 59.555289 L 108.014378 59.271199 L 107.734824 58.988838 L 107.454600 58.708196 L 107.173709 58.429261 L 106.892151 58.152021 L 106.609929 57.876466 L 106.327044 57.602585 L 106.043498 57.330368 L 105.759292 57.059803 L 105.474428 56.790882 L 105.188906 56.523593 L 104.902728 56.257926 L 104.615894 55.993873 L 104.328405 55.731422 L 104.040262 55.470565 L 103.751464 55.211292 L 103.462012 54.953594 L 103.171907 54.697461 L 102.881149 54.442886 L 102.589736 54.189858 L 102.297670 53.938369 L 102.004949 53.688410 L 101.711574 53.439974 L 101.417543 53.193052 L 101.122856 52.947636 L 100.827513 52.703718 L 100.531512 52.461289 L 100.234852 52.220343 L 99.937532 51.980871 L 99.639551 51.742867 L 99.340908 51.506323 L 99.041600 51.271231 L 98.741627 51.037586 L 98.440987 50.805379 L 98.139679 50.574605 L 97.837699 50.345256 L 97.535046 50.117326 L 97.231719 49.890809 L 96.927714 49.665698 L 96.623031 49.441988 L 96.317665 49.219673 L 96.011616 48.998746 L 95.704879 48.779202 L 95.397454 48.561036 L 95.089336 48.344242 L 94.780523 48.128815 L 94.471013 47.914750 L 94.160801 47.702041 L 93.849886 47.490685 L 93.538263 47.280675 L 93.225930 47.072008 L 92.912883 46.864680 L 92.599118 46.658684 L 92.284633 46.454019 L 91.969423 46.250679 L 91.653485 46.048661 L 91.336815 45.847960 L 91.019409 45.648574 L 90.701263 45.450498 L 90.382373 45.253729 L 90.062735 45.058264 L 89.742345 44.864100 L 89.421198 44.671233 L 89.099290 44.479662 L 88.776616 44.289382 L 88.453173 44.100392 L 88.128955 43.912689 L 87.803957 43.726271 L 87.478176 43.541136 L 87.151605 43.357281 L 86.824241 43.174704 L 86.496077 42.993405 L 86.167110 42.813380 L 85.837334 42.634629 L 85.506743 42.457151 L 85.175332 42.280943 L 84.843097 42.106006 L 84.510030 41.932337 L 84.176128 41.759937 L 83.841384 41.588804 L 83.505793 41.418937 L 83.169348 41.250338 L 82.832045 41.083005 L 82.493876 40.916938 L 82.154837 40.752137 L 81.814920 40.588603 L 81.474121 40.426335 L 81.132432 40.265335 L 80.789848 40.105602 L 80.446362 39.947139 L 80.101968 39.789944 L 79.756658 39.634021 L 79.410428 39.479369 L 79.063270 39.325991 L 78.715176 39.173887 L 78.366142 39.023060 L 78.016159 38.873511 L 77.665221 38.725242 L 77.313321 38.578256 L 76.960452 38.432554 L 76.606606 38.288140 L 76.251777 38.145016 L 75.895957 38.003184 L 75.539139 37.862648 L 75.181316 37.723411 L 74.822479 37.585476 L 74.462623 37.448846 L 74.101738 37.313526 L 73.739818 37.179518 L 73.376854 37.046828 L 73.012839 36.915459 L 72.647764 36.785415 L 72.281623 36.656701 L 71.914407 36.529322 L 71.546108 36.403283 L 71.176717 36.278588 L 70.806228 36.155244 L 70.434630 36.033254 L 70.061917 35.912626 L 69.688079 35.793364 L 69.313109 35.675476 L 68.936997 35.558966 L 68.559736 35.443842 L 68.181316 35.330110 L 67.801728 35.217776 L 67.420965 35.106849 L 67.039017 34.997335 L 66.655875 34.889241 L 66.271531 34.782576 L 65.885975 34.677347 L 65.499198 34.573562 L 65.111192 34.471230 L 64.721947 34.370358 L 64.331453 34.270957 L 63.939702 34.173034 L 63.546684 34.076599 L 63.152389 33.981662 L 62.756809 33.888232 L 62.359934 33.796319 L 61.961754 33.705933 L 61.562259 33.617085 L 61.161440 33.529785 L 60.759287 33.444045 L 60.355791 33.359875 L 59.950941 33.277287 L 59.544727 33.196293 L 59.137140 33.116904 L 58.728170 33.039133 L 58.317807 32.962992 L 57.906040 32.888495 L 57.492860 32.815654 L 57.078256 32.744483 L 56.662218 32.674995 L 56.244736 32.607204 L 55.825800 32.541125 L 55.405399 32.476772 L 54.983523 32.414159 L 54.560161 32.353303 L 54.135304 32.294219 L 53.708941 32.236922 L 53.281060 32.181428 L 52.851653 32.127755 L 52.420708 32.075918 L 51.988215 32.025935 L 51.554162 31.977824 L 51.118541 31.931602 L 50.681339 31.887288 L 50.242547 31.844899 L 49.802153 31.804456 L 49.360148 31.765977 L 48.916520 31.729482 L 48.471258 31.694990 L 48.024353 31.662523 L 47.575794 31.632102 L 47.125569 31.603747 L 46.673669 31.577480 L 46.220082 31.553323 L 45.764798 31.531298 L 45.307807 31.511429 L 44.849097 31.493739 L 44.388659 31.478252 L 43.926481 31.464991 L 43.462554 31.453981 L 42.996867 31.445248 L 42.529409 31.438817 L 42.060170 31.434714 L 41.589140 31.432966 L 41.116309 31.433599 L 40.641666 31.436642 L 40.165201 31.442121 L 39.686904 31.450066 L 39.206766 31.460506 L 38.724775 31.473469 L 38.240923 31.488987 L 37.755200 31.507090 L 37.267596 31.527808 L 36.778102 31.551175 L 36.286708 31.577221 L 35.793405 31.605980 L 35.298183 31.637485 L 34.801034 31.671770 L 34.301950 31.708870 L 33.800920 31.748820 L 33.297937 31.791656 L 32.792992 31.837414 L 32.286077 31.886131 L 31.777184 31.937846 L 31.266305 31.992596 L 30.753433 32.050421 L 30.238560 32.111360 L 29.721678 32.175453 L 29.202782 32.242743 L 28.681863 32.313269 L 28.158916 32.387076 L 27.633935 32.464207 L 27.106914 32.544704 L 26.577846 32.628613 L 26.046727 32.715980 L 25.513552 32.806850 L 24.978316 32.901271 L 24.441015 32.999290 L 23.901645 33.100956 L 23.360202 33.206318 L 22.816683 33.315427 L 22.271086 33.428333 L 22.022439 33.481340" fill="none" id="tattoo-path-0bbf78534a97e1ec" stroke="#000000" stroke-linecap="round" stroke-linejoin="round" stroke-width="4.200000"/>
  <path clip-path="url(#tattoo-band-layer-clip)" d="M 24.976761 115.067379 L 25.067999 115.099907 L 25.595287 115.283817 L 26.121850 115.463431 L 26.647670 115.638787 L 27.172727 115.809924 L 27.697003 115.976879 L 28.220479 116.139690 L 28.743137 116.298394 L 29.264962 116.453026 L 29.785937 116.603623 L 30.306046 116.750222 L 30.825273 116.892857 L 31.343605 117.031565 L 31.861026 117.166378 L 32.377523 117.297333 L 32.893083 117.424464 L 33.407693 117.547803 L 33.921340 117.667385 L 34.434013 117.783242 L 34.945700 117.895407 L 35.456390 118.003913 L 35.966072 118.108791 L 36.474736 118.210073 L 36.982372 118.307791 L 37.488971 118.401975 L 37.994523 118.492656 L 38.499020 118.579864 L 39.002453 118.663629 L 39.504814 118.743981 L 40.006096 118.820948 L 40.506291 118.894560 L 41.005393 118.964845 L 41.503393 119.031831 L 42.000286 119.095547 L 42.496066 119.156019 L 42.990726 119.213274 L 43.484262 119.267340 L 43.976667 119.318243 L 44.467937 119.366009 L 44.958067 119.410665 L 45.447052 119.452234 L 45.934888 119.490743 L 46.421572 119.526216 L 46.907098 119.558679 L 47.391464 119.588154 L 47.874666 119.614666 L 48.356701 119.638239 L 48.837566 119.658895 L 49.317258 119.676658 L 49.795775 119.691551 L 50.273114 119.703595 L 50.749273 119.712812 L 51.224250 119.719225 L 51.698043 119.722854 L 52.170650 119.723721 L 52.642070 119.721847 L 53.112302 119.717251 L 53.581344 119.709955 L 54.049195 119.699978 L 54.515854 119.687339 L 54.981321 119.672059 L 55.445594 119.654156 L 55.908674 119.633649 L 56.370560 119.610556 L 56.831251 119.584896 L 57.290747 119.556687 L 57.749049 119.525945 L 58.206156 119.492689 L 58.662069 119.456936 L 59.116787 119.418703 L 59.570311 119.378006 L 60.022642 119.334861 L 60.473780 119.289285 L 60.923726 119.241294 L 61.372479 119.190902 L 61.820042 119.138125 L 62.266415 119.082979 L 62.711599 119.025478 L 63.155594 118.965637 L 63.598403 118.903470 L 64.040025 118.838990 L 64.480462 118.772213 L 64.919716 118.703151 L 65.357788 118.631818 L 65.794678 118.558226 L 66.230389 118.482390 L 66.664921 118.404321 L 67.098277 118.324031 L 67.530457 118.241534 L 67.961464 118.156841 L 68.391298 118.069963 L 68.819962 117.980913 L 69.247457 117.889701 L 69.673784 117.796339 L 70.098946 117.700837 L 70.522944 117.603207 L 70.945780 117.503458 L 71.367455 117.401600 L 71.787971 117.297645 L 72.207331 117.191601 L 72.625535 117.083479 L 73.042586 116.973287 L 73.458485 116.861035 L 73.873234 116.746732 L 74.286835 116.630386 L 74.699290 116.512007 L 75.110600 116.391602 L 75.520768 116.269180 L 75.929795 116.144749 L 76.337682 116.018317 L 76.744432 115.889891 L 77.150047 115.759479 L 77.554527 115.627088 L 77.957876 115.492725 L 78.360094 115.356397 L 78.761183 115.218111 L 79.161145 115.077873 L 79.559982 114.935690 L 79.957694 114.791567 L 80.354285 114.645512 L 80.749755 114.497529 L 81.144105 114.347624 L 81.537338 114.195804 L 81.929455 114.042072 L 82.320458 113.886435 L 82.710347 113.728897 L 83.099124 113.569463 L 83.486790 113.408138 L 83.873347 113.244925 L 84.258796 113.079831 L 84.643139 112.912858 L 85.026376 112.744011 L 85.408508 112.573293 L 85.789537 112.400708 L 86.169463 112.226260 L 86.548288 112.049952 L 86.926013 111.871788 L 87.302638 111.691770 L 87.678164 111.509900 L 88.052592 111.326183 L 88.425923 111.140621 L 88.798158 110.953215 L 89.169296 110.763969 L 89.539339 110.572884 L 89.908287 110.379963 L 90.276140 110.185207 L 90.642899 109.988618 L 91.008564 109.790198 L 91.373135 109.589948 L 91.736613 109.387869 L 92.098997 109.183963 L 92.460287 108.978230 L 92.820484 108.770672 L 93.179587 108.561288 L 93.537596 108.350081 L 93.894511 108.137049 L 94.250331 107.922195 L 94.605055 107.705516 L 94.958684 107.487015 L 95.311217 107.266690 L 95.662652 107.044542 L 96.012990 106.820569 L 96.362228 106.594773 L 96.710367 106.367151 L 97.057405 106.137704 L 97.403341 105.906430 L 97.748174 105.673329 L 98.091902 105.438399 L 98.434524 105.201639 L 98.776039 104.963048 L 99.116444 104.722624 L 99.455738 104.480366 L 99.793919 104.236272 L 100.130986 103.990340 L 100.466935 103.742568 L 100.801766 103.492954 L 101.135475 103.241496 L 101.468060 102.988191 L 101.799519 102.733038 L 102.129849 102.476032 L 102.459048 102.217173 L 102.787112 101.956457 L 103.114038 101.693880 L 103.439824 101.429441 L 103.764466 101.163136 L 104.087961 100.894961 L 104.410306 100.624913 L 104.731496 100.352990 L 105.051529 100.079186 L 105.370399 99.803499 L 105.688104 99.525925 L 106.004639 99.246460 L 106.320000 98.965099 L 106.634182 98.681839 L 106.947181 98.396676 L 107.258993 98.109604 L 107.569611 97.820621 L 107.879032 97.529720 L 108.187251 97.236898 L 108.494261 96.942149 L 108.800057 96.645469 L 109.104635 96.346853 L 109.407988 96.046296 L 109.710110 95.743793 L 110.010995 95.439338 L 110.310637 95.132927 L 110.609029 94.824553 L 110.906166 94.514211 L 111.202040 94.201895 L 111.496643 93.887601 L 111.789971 93.571321 L 112.082013 93.253050 L 112.372765 92.932783 L 112.662217 92.610513 L 112.950362 92.286233 L 113.237192 91.959938 L 113.522699 91.631621 L 113.806874 91.301276 L 114.089708 90.968897 L 114.371194 90.634476 L 114.651321 90.298007 L 114.930082 89.959484 L 115.207465 89.618899 L 115.483462 89.276246 L 115.758063 88.931517 L 116.031258 88.584706 L 116.303036 88.235806 L 116.573387 87.884808 L 116.842301 87.531707 L 117.109766 87.176494 L 117.375770 86.819163 L 117.640304 86.459705 L 117.903355 86.098114 L 118.164911 85.734381 L 118.424960 85.368499 L 118.683490 85.000461 L 118.940487 84.630258 L 119.195940 84.257883 L 119.449835 83.883328 L 119.702159 83.506585 L 119.952897 83.127646 L 120.202036 82.746503 L 120.449563 82.363147 L 120.695461 81.977572 L 120.939717 81.589768 L 121.182316 81.199728 L 121.423241 80.807443 L 121.662479 80.412904 L 121.900011 80.016105 L 122.135824 79.617036 L 122.369899 79.215689 L 122.602220 78.812056 L 122.832770 78.406129 L 123.061532 77.997898 L 123.288487 77.587356 L 123.513618 77.174494 L 123.736907 76.759304 L 123.958334 76.341777 L 124.177880 75.921906 L 124.395526 75.499680 L 124.611253 75.075093 L 124.825040 74.648136 L 125.036866 74.218800 L 125.246712 73.787076 L 125.454555 73.352958 L 125.660374 72.916435 L 125.864148 72.477501 L 126.065854 72.036146 L 126.265469 71.592363 L 126.462970 71.146143 L 126.658334 70.697478 L 126.851538 70.246361 L 127.042556 69.792782 L 127.231364 69.336734 L 127.417937 68.878210 L 127.602250 68.417201 L 127.784277 67.953700 L 127.963992 67.487699 L 128.141367 67.019190 L 128.316376 66.548167 L 128.488991 66.074620 L 128.659184 65.598545 L 128.826926 65.119932 L 128.992189 64.638776 L 129.154944 64.155068 L 129.315159 63.668804 L 129.472806 63.179975 L 129.627853 62.688575 L 129.780269 62.194599 L 129.930021 61.698040 L 130.077079 61.198891 L 130.221409 60.697148 L 130.362978 60.192804 L 130.501752 59.685854 L 130.637697 59.176294 L 130.770778 58.664117 L 130.900960 58.149319 L 131.028207 57.631895 L 131.152483 57.111842 L 131.273750 56.589156 L 131.391971 56.063831 L 131.507109 55.535866 L 131.619125 55.005256 L 131.727979 54.471999 L 131.833632 53.936092 L 131.936044 53.397532 L 132.035174 52.856319 L 132.130981 52.312450 L 132.223423 51.765923 L 132.312456 51.216739 L 132.398039 50.664896 L 132.412224 50.569077" fill="none" id="tattoo-path-b3c5e091bfa084d9" stroke="#000000" stroke-linecap="round" stroke-linejoin="round" stroke-width="3.600000"/>
  <path clip-path="url(#tattoo-band-layer-clip)" d="M 62.428444 135.500030 L 62.403840 135.361391 L 62.307961 134.812957 L 62.214171 134.268296 L 62.122429 133.727353 L 62.032696 133.190074 L 61.944933 132.656409 L 61.859102 132.126305 L 61.775168 131.599711 L 61.693094 131.076579 L 61.612845 130.556858 L 61.534388 130.040501 L 61.457689 129.527460 L 61.382716 129.017688 L 61.309436 128.511140 L 61.237821 128.007770 L 61.167838 127.507533 L 61.099459 127.010385 L 61.032656 126.516284 L 60.967399 126.025186 L 60.903663 125.537050 L 60.841419 125.051833 L 60.780643 124.569496 L 60.721309 124.089999 L 60.663391 123.613301 L 60.606866 123.139364 L 60.551710 122.668149 L 60.497899 122.199619 L 60.445412 121.733736 L 60.394226 121.270464 L 60.344319 120.809766 L 60.295671 120.351607 L 60.248261 119.895952 L 60.202068 119.442766 L 60.157074 118.992015 L 60.113258 118.543665 L 60.070603 118.097682 L 60.029090 117.654036 L 59.988701 117.212692 L 59.949418 116.773619 L 59.911224 116.336787 L 59.874103 115.902163 L 59.838039 115.469718 L 59.803014 115.039420 L 59.769015 114.611242 L 59.736025 114.185153 L 59.704029 113.761124 L 59.673014 113.339127 L 59.642964 112.919133 L 59.613866 112.501116 L 59.585706 112.085047 L 59.558471 111.670900 L 59.532148 111.258647 L 59.506724 110.848263 L 59.482187 110.439721 L 59.458524 110.032997 L 59.435724 109.628063 L 59.413775 109.224896 L 59.392666 108.823471 L 59.372385 108.423763 L 59.352922 108.025749 L 59.334267 107.629403 L 59.316407 107.234704 L 59.299335 106.841627 L 59.283039 106.450150 L 59.267510 106.060250 L 59.252739 105.671905 L 59.238716 105.285092 L 59.225432 104.899790 L 59.212878 104.515977 L 59.201046 104.133631 L 59.189928 103.752733 L 59.179514 103.373259 L 59.169798 102.995191 L 59.160770 102.618508 L 59.152424 102.243189 L 59.144751 101.869214 L 59.137745 101.496564 L 59.131399 101.125220 L 59.125704 100.755161 L 59.120655 100.386370 L 59.116245 100.018826 L 59.112466 99.652512 L 59.109314 99.287408 L 59.106781 98.923497 L 59.104862 98.560761 L 59.103550 98.199181 L 59.102840 97.838740 L 59.102726 97.479420 L 59.103202 97.121203 L 59.104264 96.764074 L 59.105906 96.408014 L 59.108123 96.053007 L 59.110909 95.699035 L 59.114261 95.346084 L 59.118172 94.994135 L 59.122640 94.643173 L 59.127658 94.293182 L 59.133223 93.944145 L 59.139331 93.596048 L 59.145977 93.248874 L 59.153158 92.902608 L 59.160869 92.557234 L 59.169106 92.212737 L 59.177867 91.869102 L 59.187146 91.526315 L 59.196942 91.184360 L 59.207250 90.843222 L 59.218067 90.502887 L 59.229389 90.163340 L 59.241215 89.824568 L 59.253541 89.486555 L 59.266363 89.149288 L 59.279679 88.812752 L 59.293487 88.476934 L 59.307783 88.141819 L 59.322566 87.807395 L 59.337833 87.473647 L 59.353580 87.140561 L 59.369807 86.808125 L 59.386511 86.476325 L 59.403690 86.145148 L 59.421341 85.814580 L 59.439464 85.484609 L 59.458055 85.155221 L 59.477113 84.826404 L 59.496637 84.498144 L 59.516625 84.170430 L 59.537076 83.843247 L 59.557987 83.516585 L 59.579358 83.190429 L 59.601187 82.864768 L 59.623473 82.539590 L 59.646215 82.214881 L 59.669412 81.890630 L 59.693063 81.566824 L 59.717166 81.243452 L 59.741722 80.920501 L 59.766728 80.597959 L 59.792185 80.275815 L 59.818092 79.954055 L 59.844449 79.632670 L 59.871254 79.311646 L 59.898507 78.990972 L 59.926208 78.670636 L 59.954358 78.350626 L 59.982954 78.030932 L 60.011998 77.711541 L 60.041489 77.392442 L 60.071427 77.073623 L 60.101813 76.755074 L 60.132646 76.436781 L 60.163926 76.118735 L 60.195655 75.800924 L 60.227831 75.483336 L 60.260456 75.165960 L 60.293530 74.848785 L 60.327053 74.531800 L 60.361027 74.214994 L 60.395451 73.898354 L 60.430327 73.581871 L 60.465654 73.265533 L 60.501435 72.949329 L 60.537670 72.633248 L 60.574360 72.317278 L 60.611506 72.001409 L 60.649109 71.685630 L 60.687170 71.369930 L 60.725691 71.054297 L 60.764673 70.738720 L 60.804117 70.423190 L 60.844025 70.107693 L 60.884398 69.792221 L 60.925238 69.476761 L 60.966547 69.161302 L 61.008325 68.845835 L 61.050576 68.530347 L 61.093300 68.214827 L 61.136501 67.899266 L 61.180179 67.583651 L 61.224337 67.267971 L 61.268977 66.952217 L 61.314101 66.636376 L 61.359712 66.320437 L 61.405812 66.004390 L 61.452403 65.688224 L 61.499488 65.371927 L 61.547069 65.055489 L 61.595149 64.738898 L 61.643731 64.422143 L 61.692817 64.105213 L 61.742411 63.788097 L 61.792516 63.470783 L 61.843133 63.153261 L 61.894268 62.835519 L 61.945921 62.517546 L 61.998098 62.199331 L 62.050802 61.880862 L 62.104034 61.562128 L 62.157800 61.243117 L 62.212103 60.923819 L 62.266947 60.604221 L 62.322334 60.284312 L 62.378270 59.964081 L 62.434758 59.643515 L 62.491801 59.322604 L 62.549405 59.001336 L 62.607573 58.679699 L 62.666310 58.357680 L 62.725620 58.035269 L 62.785507 57.712454 L 62.845976 57.389222 L 62.907031 57.065561 L 62.968678 56.741460 L 63.030922 56.416906 L 63.093766 56.091887 L 63.157217 55.766391 L 63.221279 55.440406 L 63.285958 55.113919 L 63.351258 54.786918 L 63.417186 54.459391 L 63.483747 54.131324 L 63.550947 53.802705 L 63.618791 53.473521 L 63.687286 53.143761 L 63.756437 52.813410 L 63.826250 52.482455 L 63.896732 52.150885 L 63.967889 51.818685 L 64.039728 51.485843 L 64.112255 51.152345 L 64.185477 50.818177 L 64.259401 50.483327 L 64.334034 50.147780 L 64.409382 49.811524 L 64.485454 49.474544 L 64.562256 49.136826 L 64.639796 48.798357 L 64.718082 48.459121 L 64.797122 48.119107 L 64.876923 47.778298 L 64.957493 47.436680 L 65.038842 47.094239 L 65.120977 46.750961 L 65.203907 46.406830 L 65.287640 46.061832 L 65.372186 45.715951 L 65.457553 45.369173 L 65.543751 45.021482 L 65.630789 44.672863 L 65.718676 44.323300 L 65.807423 43.972778 L 65.897040 43.621280 L 65.987535 43.268792 L 66.078921 42.915296 L 66.171206 42.560777 L 66.264402 42.205218 L 66.358520 41.848603 L 66.453571 41.490914 L 66.549565 41.132136 L 66.646515 40.772250 L 66.744432 40.411240 L 66.843329 40.049089 L 66.943216 39.685778 L 67.044107 39.321291 L 67.146014 38.955609 L 67.248950 38.588715 L 67.352928 38.220589 L 67.457962 37.851214 L 67.564064 37.480570 L 67.671249 37.108640 L 67.779531 36.735404 L 67.888924 36.360842 L 67.999443 35.984936 L 68.111102 35.607665 L 68.223917 35.229011 L 68.337903 34.848952 L 68.453077 34.467468 L 68.569453 34.084540 L 68.687049 33.700146 L 68.805881 33.314264 L 68.925966 32.926875 L 69.047321 32.537956 L 69.169964 32.147486 L 69.293914 31.755443 L 69.419188 31.361804 L 69.545805 30.966548 L 69.673785 30.569650 L 69.803146 30.171089 L 69.933909 29.770841 L 70.066093 29.368883 L 70.199720 28.965190 L 70.334811 28.559738 L 70.471386 28.152503 L 70.609468 27.743461 L 70.749080 27.332586 L 70.890243 26.919853 L 71.032982 26.505236 L 71.177319 26.088709 L 71.323279 25.670246 L 71.470887 25.249820 L 71.620168 24.827405 L 71.771148 24.402973 L 71.923852 23.976496 L 72.078308 23.547946 L 72.234543 23.117296 L 72.392585 22.684515 L 72.552462 22.249576 L 72.714203 21.812448 L 72.877839 21.373101 L 73.043399 20.931507 L 73.210914 20.487632 L 73.380415 20.041448 L 73.551936 19.592921 L 73.725509 19.142021 L 73.901168 18.688715 L 74.078947 18.232969 L 74.258881 17.774752 L 74.441007 17.314029 L 74.625360 16.850765 L 74.811978 16.384928 L 75.000900 15.916480 L 75.192165 15.445388 L 75.385813 14.971614 L 75.581884 14.495123 L 75.780421 14.015876 L 75.981465 13.533838 L 76.185062 13.048969 L 76.391255 12.561231 L 76.600091 12.070585 L 76.811616 11.576992 L 77.025877 11.080410 L 77.242924 10.580800 L 77.462807 10.078119 L 77.685577 9.572326 L 77.911286 9.063379 L 77.968699 8.934810" fill="none" id="tattoo-path-7297ec1278c61173" stroke="#000000" stroke-linecap="round" stroke-linejoin="round" stroke-width="3.100000"/>
  <path clip-path="url(#tattoo-band-layer-clip)" d="M 106.243722 126.646110 L 105.983879 126.557226 L 105.458230 126.374508 L 104.936637 126.190320 L 104.419054 126.004698 L 103.905436 125.817676 L 103.395738 125.629289 L 102.889917 125.439568 L 102.387928 125.248546 L 101.889730 125.056254 L 101.395280 124.862723 L 100.904535 124.667981 L 100.417454 124.472057 L 99.933995 124.274980 L 99.454120 124.076775 L 98.977786 123.877470 L 98.504955 123.677090 L 98.035588 123.475660 L 97.569646 123.273203 L 97.107090 123.069743 L 96.647883 122.865304 L 96.191987 122.659907 L 95.739366 122.453573 L 95.289983 122.246324 L 94.843803 122.038180 L 94.400789 121.829160 L 93.960906 121.619284 L 93.524120 121.408570 L 93.090397 121.197036 L 92.659702 120.984700 L 92.232003 120.771579 L 91.807265 120.557689 L 91.385458 120.343046 L 90.966547 120.127665 L 90.550502 119.911562 L 90.137291 119.694752 L 89.726883 119.477247 L 89.319247 119.259063 L 88.914353 119.040212 L 88.512172 118.820707 L 88.112673 118.600560 L 87.715827 118.379784 L 87.321606 118.158391 L 86.929981 117.936390 L 86.540924 117.713794 L 86.154408 117.490614 L 85.770404 117.266858 L 85.388887 117.042537 L 85.009828 116.817661 L 84.633203 116.592238 L 84.258984 116.366278 L 83.887146 116.139789 L 83.517664 115.912779 L 83.150512 115.685257 L 82.785666 115.457230 L 82.423101 115.228705 L 82.062794 114.999689 L 81.704720 114.770190 L 81.348855 114.540214 L 80.995178 114.309766 L 80.643664 114.078854 L 80.294291 113.847482 L 79.947036 113.615658 L 79.601878 113.383384 L 79.258794 113.150668 L 78.917764 112.917513 L 78.578766 112.683925 L 78.241778 112.449907 L 77.906780 112.215465 L 77.573753 111.980601 L 77.242674 111.745320 L 76.913525 111.509625 L 76.586286 111.273519 L 76.260937 111.037006 L 75.937459 110.800089 L 75.615833 110.562771 L 75.296040 110.325054 L 74.978063 110.086940 L 74.661882 109.848433 L 74.347479 109.609533 L 74.034838 109.370243 L 73.723939 109.130565 L 73.414767 108.890501 L 73.107303 108.650051 L 72.801531 108.409217 L 72.497434 108.168000 L 72.194995 107.926402 L 71.894199 107.684423 L 71.595029 107.442063 L 71.297470 107.199324 L 71.001505 106.956206 L 70.707120 106.712708 L 70.414299 106.468832 L 70.123026 106.224577 L 69.833288 105.979943 L 69.545069 105.734930 L 69.258354 105.489537 L 68.973131 105.243765 L 68.689384 104.997612 L 68.407099 104.751077 L 68.126263 104.504161 L 67.846862 104.256861 L 67.568882 104.009177 L 67.292311 103.761108 L 67.017136 103.512652 L 66.743343 103.263808 L 66.470919 103.014575 L 66.199853 102.764950 L 65.930131 102.514932 L 65.661742 102.264520 L 65.394674 102.013710 L 65.128914 101.762503 L 64.864450 101.510894 L 64.601272 101.258882 L 64.339368 101.006465 L 64.078725 100.753640 L 63.819334 100.500404 L 63.561184 100.246756 L 63.304262 99.992692 L 63.048559 99.738210 L 62.794064 99.483306 L 62.540767 99.227978 L 62.288657 98.972222 L 62.037725 98.716036 L 61.787959 98.459417 L 61.539351 98.202360 L 61.291891 97.944862 L 61.045569 97.686921 L 60.800375 97.428532 L 60.556300 97.169691 L 60.313336 96.910396 L 60.071472 96.650642 L 59.830700 96.390425 L 59.591012 96.129741 L 59.352398 95.868586 L 59.114851 95.606957 L 58.878361 95.344848 L 58.642920 95.082255 L 58.408520 94.819175 L 58.175153 94.555602 L 57.942811 94.291532 L 57.711487 94.026960 L 57.481172 93.761882 L 57.251859 93.496292 L 57.023541 93.230187 L 56.796210 92.963560 L 56.569859 92.696408 L 56.344481 92.428724 L 56.120068 92.160504 L 55.896615 91.891742 L 55.674114 91.622434 L 55.452558 91.352572 L 55.231941 91.082153 L 55.012257 90.811171 L 54.793500 90.539619 L 54.575662 90.267493 L 54.358738 89.994786 L 54.142722 89.721492 L 53.927609 89.447606 L 53.713391 89.173121 L 53.500064 88.898031 L 53.287623 88.622331 L 53.076061 88.346013 L 52.865373 88.069072 L 52.655555 87.791501 L 52.446600 87.513293 L 52.238504 87.234443 L 52.031263 86.954943 L 51.824870 86.674786 L 51.619322 86.393966 L 51.414614 86.112475 L 51.210742 85.830308 L 51.007700 85.547456 L 50.805486 85.263913 L 50.604093 84.979671 L 50.403520 84.694723 L 50.203761 84.409061 L 50.004813 84.122679 L 49.806671 83.835568 L 49.609333 83.547721 L 49.412795 83.259130 L 49.217053 82.969788 L 49.022104 82.679686 L 48.827945 82.388816 L 48.634573 82.097170 L 48.441984 81.804741 L 48.250176 81.511520 L 48.059146 81.217498 L 47.868892 80.922667 L 47.679410 80.627018 L 47.490698 80.330544 L 47.302754 80.033235 L 47.115576 79.735082 L 46.929162 79.436077 L 46.743508 79.136210 L 46.558615 78.835472 L 46.374479 78.533855 L 46.191099 78.231349 L 46.008474 77.927944 L 45.826601 77.623631 L 45.645480 77.318401 L 45.465110 77.012244 L 45.285488 76.705149 L 45.106615 76.397108 L 44.928490 76.088110 L 44.751110 75.778145 L 44.574477 75.467203 L 44.398589 75.155274 L 44.223446 74.842347 L 44.049048 74.528411 L 43.875394 74.213457 L 43.702485 73.897473 L 43.530320 73.580448 L 43.358900 73.262373 L 43.188225 72.943234 L 43.018296 72.623022 L 42.849112 72.301725 L 42.680676 71.979331 L 42.512987 71.655830 L 42.346047 71.331209 L 42.179856 71.005456 L 42.014417 70.678561 L 41.849731 70.350510 L 41.685798 70.021292 L 41.522621 69.690894 L 41.360202 69.359304 L 41.198542 69.026509 L 41.037644 68.692498 L 40.877510 68.357256 L 40.718143 68.020772 L 40.559545 67.683031 L 40.401718 67.344022 L 40.244666 67.003730 L 40.088392 66.662142 L 39.932898 66.319245 L 39.778190 65.975024 L 39.624269 65.629467 L 39.471140 65.282558 L 39.318806 64.934284 L 39.167272 64.584631 L 39.016542 64.233584 L 38.866621 63.881128 L 38.717512 63.527248 L 38.569222 63.171931 L 38.421754 62.815160 L 38.275114 62.456920 L 38.129308 62.097197 L 37.984341 61.735974 L 37.840218 61.373236 L 37.696947 61.008967 L 37.554533 60.643150 L 37.412982 60.275771 L 37.272301 59.906812 L 37.132498 59.536256 L 36.993578 59.164088 L 36.855550 58.790290 L 36.718421 58.414845 L 36.582199 58.037736 L 36.446892 57.658946 L 36.312507 57.278456 L 36.179055 56.896250 L 36.046543 56.512309 L 35.914980 56.126615 L 35.784376 55.739149 L 35.654741 55.349894 L 35.526084 54.958831 L 35.398415 54.565939 L 35.271745 54.171202 L 35.146085 53.774598 L 35.021445 53.376109 L 34.897837 52.975715 L 34.775273 52.573396 L 34.653764 52.169132 L 34.533322 51.762902 L 34.413961 51.354687 L 34.295693 50.944465 L 34.178532 50.532215 L 34.062490 50.117916 L 33.947583 49.701547 L 33.833823 49.283087 L 33.721227 48.862512 L 33.609809 48.439802 L 33.499584 48.014934 L 33.390569 47.587886 L 33.282780 47.158634 L 33.176232 46.727157 L 33.070944 46.293430 L 32.966933 45.857430 L 32.864217 45.419134 L 32.762814 44.978517 L 32.662742 44.535557 L 32.564022 44.090227 L 32.466673 43.642504 L 32.370715 43.192363 L 32.276170 42.739779 L 32.183057 42.284726 L 32.091400 41.827180 L 32.001220 41.367113 L 31.912540 40.904500 L 31.825384 40.439315 L 31.739775 39.971530 L 31.655738 39.501121 L 31.573298 39.028058 L 31.492481 38.552315 L 31.413314 38.073865 L 31.335822 37.592679 L 31.260034 37.108730 L 31.185978 36.621989 L 31.113682 36.132428 L 31.043177 35.640017 L 30.974493 35.144728 L 30.907660 34.646531 L 30.842711 34.145397 L 30.779678 33.641296 L 30.718594 33.134198 L 30.659494 32.624072 L 30.602411 32.110888 L 30.547382 31.594615 L 30.494443 31.075223 L 30.443632 30.552679 L 30.394987 30.026952 L 30.348547 29.498010 L 30.304352 28.965822 L 30.262443 28.430355 L 30.222861 27.891576 L 30.185651 27.349453 L 30.150855 26.803954 L 30.118519 26.255043 L 30.088689 25.702690 L 30.061412 25.146859 L 30.049308 24.872500" fill="none" id="tattoo-path-b39fed751a848b2f" stroke="#000000" stroke-linecap="round" stroke-linejoin="round" stroke-width="2.500000"/>
  <path clip-path="url(#tattoo-band-layer-clip)" d="M 134.773431 86.372986 L 134.316073 86.057158 L 133.859418 85.743796 L 133.405113 85.433993 L 132.953130 85.127688 L 132.503443 84.824825 L 132.056025 84.525345 L 131.610851 84.229193 L 131.167894 83.936313 L 130.727128 83.646653 L 130.288528 83.360159 L 129.852069 83.076779 L 129.417725 82.796464 L 128.985472 82.519165 L 128.555284 82.244831 L 128.127138 81.973417 L 127.701009 81.704876 L 127.276872 81.439162 L 126.854705 81.176230 L 126.434484 80.916038 L 126.016185 80.658541 L 125.599784 80.403698 L 125.185260 80.151468 L 124.772589 79.901810 L 124.361749 79.654686 L 123.952718 79.410055 L 123.545472 79.167881 L 123.139991 78.928126 L 122.736253 78.690752 L 122.334236 78.455725 L 121.933919 78.223010 L 121.535280 77.992571 L 121.138299 77.764375 L 120.742956 77.538389 L 120.349228 77.314580 L 119.957098 77.092916 L 119.566543 76.873367 L 119.177544 76.655900 L 118.790082 76.440486 L 118.404136 76.227096 L 118.019688 76.015700 L 117.636717 75.806270 L 117.255206 75.598778 L 116.875135 75.393197 L 116.496486 75.189498 L 116.119239 74.987657 L 115.743377 74.787647 L 115.368881 74.589442 L 114.995734 74.393018 L 114.623917 74.198349 L 114.253413 74.005412 L 113.884205 73.814183 L 113.516274 73.624639 L 113.149604 73.436756 L 112.784177 73.250513 L 112.419977 73.065887 L 112.056987 72.882857 L 111.695190 72.701401 L 111.334570 72.521498 L 110.975110 72.343128 L 110.616795 72.166271 L 110.259607 71.990906 L 109.903532 71.817015 L 109.548553 71.644578 L 109.194655 71.473577 L 108.841822 71.303992 L 108.490039 71.135806 L 108.139291 70.969000 L 107.789562 70.803558 L 107.440838 70.639462 L 107.093103 70.476695 L 106.746343 70.315240 L 106.400543 70.155082 L 106.055688 69.996203 L 105.711764 69.838588 L 105.368758 69.682222 L 105.026654 69.527089 L 104.685438 69.373174 L 104.345097 69.220463 L 104.005616 69.068940 L 103.666983 68.918592 L 103.329182 68.769404 L 102.992201 68.621363 L 102.656026 68.474455 L 102.320643 68.328666 L 101.986040 68.183984 L 101.652204 68.040396 L 101.319120 67.897888 L 100.986776 67.756449 L 100.655159 67.616066 L 100.324257 67.476727 L 99.994056 67.338419 L 99.664544 67.201133 L 99.335708 67.064855 L 99.007536 66.929574 L 98.680015 66.795280 L 98.353133 66.661961 L 98.026877 66.529607 L 97.701236 66.398207 L 97.376197 66.267751 L 97.051749 66.138228 L 96.727878 66.009628 L 96.404574 65.881942 L 96.081824 65.755159 L 95.759616 65.629270 L 95.437940 65.504266 L 95.116782 65.380137 L 94.796132 65.256875 L 94.475978 65.134469 L 94.156308 65.012912 L 93.837111 64.892194 L 93.518376 64.772308 L 93.200091 64.653244 L 92.882245 64.534995 L 92.564827 64.417551 L 92.247825 64.300906 L 91.931228 64.185052 L 91.615026 64.069980 L 91.299207 63.955683 L 90.983760 63.842154 L 90.668674 63.729385 L 90.353939 63.617368 L 90.039543 63.506098 L 89.725475 63.395566 L 89.411725 63.285767 L 89.098283 63.176692 L 88.785136 63.068336 L 88.472275 62.960692 L 88.159689 62.853754 L 87.847366 62.747515 L 87.535298 62.641969 L 87.223472 62.537110 L 86.911879 62.432931 L 86.600507 62.329428 L 86.289347 62.226594 L 85.978387 62.124424 L 85.667618 62.022912 L 85.357029 61.922052 L 85.046609 61.821839 L 84.736348 61.722268 L 84.426236 61.623334 L 84.116262 61.525032 L 83.806416 61.427355 L 83.496688 61.330301 L 83.187066 61.233863 L 82.877542 61.138037 L 82.568103 61.042819 L 82.258741 60.948204 L 81.949445 60.854187 L 81.640204 60.760764 L 81.331009 60.667930 L 81.021848 60.575683 L 80.712712 60.484017 L 80.403590 60.392928 L 80.094473 60.302412 L 79.785348 60.212466 L 79.476208 60.123086 L 79.167040 60.034268 L 78.857835 59.946009 L 78.548582 59.858304 L 78.239272 59.771151 L 77.929893 59.684545 L 77.620435 59.598485 L 77.310888 59.512966 L 77.001242 59.427986 L 76.691486 59.343540 L 76.381610 59.259628 L 76.071603 59.176244 L 75.761455 59.093387 L 75.451156 59.011054 L 75.140694 58.929242 L 74.830060 58.847948 L 74.519242 58.767171 L 74.208231 58.686906 L 73.897015 58.607153 L 73.585584 58.527909 L 73.273928 58.449171 L 72.962035 58.370937 L 72.649896 58.293206 L 72.337498 58.215975 L 72.024832 58.139242 L 71.711887 58.063005 L 71.398651 57.987263 L 71.085114 57.912014 L 70.771265 57.837256 L 70.457093 57.762988 L 70.142587 57.689207 L 69.827736 57.615913 L 69.512528 57.543105 L 69.196953 57.470780 L 68.880999 57.398939 L 68.564655 57.327578 L 68.247910 57.256699 L 67.930752 57.186298 L 67.613171 57.116377 L 67.295153 57.046933 L 66.976689 56.977966 L 66.657765 56.909475 L 66.338372 56.841460 L 66.018496 56.773920 L 65.698126 56.706854 L 65.377251 56.640263 L 65.055857 56.574145 L 64.733935 56.508501 L 64.411470 56.443331 L 64.088451 56.378633 L 63.764866 56.314409 L 63.440703 56.250659 L 63.115948 56.187382 L 62.790591 56.124579 L 62.464617 56.062249 L 62.138015 56.000394 L 61.810772 55.939014 L 61.482875 55.878110 L 61.154311 55.817681 L 60.825067 55.757730 L 60.495130 55.698256 L 60.164486 55.639260 L 59.833124 55.580744 L 59.501028 55.522708 L 59.168186 55.465154 L 58.834584 55.408083 L 58.500209 55.351496 L 58.165046 55.295395 L 57.829081 55.239781 L 57.492302 55.184655 L 57.154693 55.130021 L 56.816240 55.075878 L 56.476928 55.022230 L 56.136745 54.969078 L 55.795674 54.916424 L 55.453700 54.864270 L 55.110810 54.812620 L 54.766988 54.761474 L 54.422219 54.710836 L 54.076487 54.660709 L 53.729778 54.611095 L 53.382075 54.561996 L 53.033362 54.513416 L 52.683625 54.465358 L 52.332847 54.417826 L 51.981011 54.370821 L 51.628101 54.324349 L 51.274102 54.278412 L 50.918995 54.233013 L 50.562765 54.188158 L 50.205395 54.143849 L 49.846866 54.100092 L 49.487163 54.056889 L 49.126266 54.014245 L 48.764160 53.972165 L 48.400824 53.930653 L 48.036243 53.889715 L 47.670397 53.849354 L 47.303267 53.809576 L 46.934836 53.770386 L 46.565084 53.731790 L 46.193992 53.693793 L 45.821541 53.656401 L 45.447712 53.619618 L 45.072484 53.583453 L 44.695838 53.547909 L 44.317753 53.512995 L 43.938209 53.478716 L 43.557186 53.445079 L 43.174662 53.412091 L 42.790616 53.379758 L 42.405028 53.348089 L 42.017875 53.317090 L 41.629135 53.286770 L 41.238787 53.257136 L 40.846808 53.228195 L 40.453175 53.199957 L 40.057865 53.172430 L 39.660855 53.145622 L 39.262121 53.119543 L 38.861640 53.094201 L 38.459388 53.069606 L 38.055340 53.045767 L 37.649471 53.022695 L 37.241756 53.000400 L 36.832170 52.978891 L 36.420688 52.958179 L 36.007282 52.938277 L 35.591928 52.919193 L 35.174597 52.900941 L 34.755264 52.883532 L 34.333900 52.866977 L 33.910478 52.851290 L 33.484970 52.836483 L 33.057347 52.822569 L 32.627581 52.809561 L 32.195641 52.797473 L 31.761499 52.786318 L 31.325125 52.776112 L 30.886487 52.766869 L 30.445555 52.758604 L 30.002297 52.751333 L 29.556682 52.745071 L 29.108678 52.739834 L 28.658252 52.735639 L 28.205370 52.732504 L 27.750000 52.730445 L 27.292107 52.729481 L 26.831656 52.729630 L 26.368613 52.730911 L 25.902942 52.733343 L 25.434607 52.736946 L 24.963571 52.741740 L 24.489798 52.747746 L 24.013250 52.754985 L 23.533888 52.763480 L 23.051673 52.773252 L 22.566568 52.784325 L 22.078530 52.796721 L 21.587521 52.810466 L 21.093499 52.825584 L 20.596422 52.842101 L 20.096249 52.860042 L 19.592935 52.879434 L 19.086438 52.900305 L 18.576713 52.922683 L 18.063716 52.946596 L 17.547400 52.972074 L 17.027720 52.999148 L 16.504628 53.027849 L 15.978077 53.058208 L 15.448019 53.090258 L 14.914403 53.124033 L 14.377181 53.159567 L 13.836301 53.196897 L 13.291712 53.236057 L 12.743361 53.277086 L 12.191196 53.320021 L 11.637189 53.364739" fill="none" id="tattoo-path-1e560c1cd31607dc" stroke="#000000" stroke-linecap="round" stroke-linejoin="round" stroke-width="2.200000"/>
  <path clip-path="url(#tattoo-band-layer-clip)" d="M 19.540519 108.077147 L 19.574117 108.009085 L 19.822807 107.510192 L 20.071736 107.015619 L 20.320887 106.525305 L 20.570244 106.039188 L 20.819789 105.557212 L 21.069508 105.079317 L 21.319386 104.605448 L 21.569408 104.135547 L 21.819560 103.669561 L 22.069830 103.207434 L 22.320204 102.749114 L 22.570671 102.294547 L 22.821220 101.843683 L 23.071838 101.396471 L 23.322517 100.952861 L 23.573246 100.512804 L 23.824014 100.076251 L 24.074815 99.643155 L 24.325637 99.213469 L 24.576475 98.787147 L 24.827319 98.364144 L 25.078162 97.944415 L 25.328997 97.527916 L 25.579818 97.114604 L 25.830618 96.704437 L 26.081391 96.297372 L 26.332133 95.893370 L 26.582836 95.492388 L 26.833498 95.094387 L 27.084112 94.699329 L 27.334674 94.307173 L 27.585182 93.917883 L 27.835629 93.531421 L 28.086015 93.147749 L 28.336334 92.766832 L 28.586584 92.388634 L 28.836762 92.013119 L 29.086866 91.640253 L 29.336894 91.270002 L 29.586843 90.902332 L 29.836712 90.537210 L 30.086499 90.174604 L 30.336203 89.814481 L 30.585822 89.456809 L 30.835356 89.101558 L 31.084804 88.748697 L 31.334164 88.398196 L 31.583437 88.050024 L 31.832623 87.704153 L 32.081721 87.360554 L 32.330731 87.019198 L 32.579654 86.680057 L 32.828490 86.343103 L 33.077239 86.008310 L 33.325903 85.675650 L 33.574481 85.345097 L 33.822976 85.016626 L 34.071387 84.690209 L 34.319716 84.365823 L 34.567965 84.043441 L 34.816135 83.723040 L 35.064228 83.404596 L 35.312245 83.088083 L 35.560188 82.773480 L 35.808059 82.460763 L 36.055860 82.149908 L 36.303594 81.840893 L 36.551262 81.533697 L 36.798866 81.228297 L 37.046410 80.924671 L 37.293895 80.622799 L 37.541325 80.322659 L 37.788702 80.024230 L 38.036029 79.727493 L 38.283309 79.432427 L 38.530544 79.139012 L 38.777738 78.847228 L 39.024894 78.557057 L 39.272015 78.268479 L 39.519105 77.981476 L 39.766166 77.696029 L 40.013203 77.412119 L 40.260218 77.129729 L 40.507215 76.848841 L 40.754199 76.569437 L 41.001172 76.291501 L 41.248138 76.015014 L 41.495102 75.739961 L 41.742067 75.466324 L 41.989037 75.194088 L 42.236016 74.923235 L 42.483009 74.653751 L 42.730018 74.385618 L 42.977050 74.118823 L 43.224107 73.853349 L 43.471195 73.589182 L 43.718317 73.326305 L 43.965478 73.064706 L 44.212683 72.804368 L 44.459936 72.545279 L 44.707241 72.287423 L 44.954604 72.030787 L 45.202028 71.775356 L 45.449520 71.521118 L 45.697083 71.268059 L 45.944722 71.016165 L 46.192442 70.765423 L 46.440249 70.515822 L 46.688147 70.267346 L 46.936141 70.019985 L 47.184237 69.773726 L 47.432439 69.528556 L 47.680752 69.284464 L 47.929183 69.041436 L 48.177735 68.799463 L 48.426415 68.558531 L 48.675228 68.318629 L 48.924180 68.079747 L 49.173274 67.841872 L 49.422519 67.604994 L 49.671918 67.369101 L 49.921477 67.134184 L 50.171202 66.900230 L 50.421099 66.667231 L 50.671174 66.435174 L 50.921432 66.204051 L 51.171878 65.973850 L 51.422520 65.744562 L 51.673363 65.516177 L 51.924412 65.288685 L 52.175674 65.062077 L 52.427155 64.836342 L 52.678861 64.611472 L 52.930798 64.387457 L 53.182972 64.164289 L 53.435390 63.941957 L 53.688058 63.720453 L 53.940982 63.499768 L 54.194168 63.279894 L 54.447623 63.060822 L 54.701354 62.842542 L 54.955367 62.625048 L 55.209668 62.408331 L 55.464264 62.192381 L 55.719162 61.977192 L 55.974369 61.762755 L 56.229891 61.549063 L 56.485735 61.336107 L 56.741908 61.123880 L 56.998417 60.912375 L 57.255269 60.701583 L 57.512471 60.491498 L 57.770031 60.282111 L 58.027954 60.073417 L 58.286248 59.865407 L 58.544921 59.658074 L 58.803980 59.451413 L 59.063433 59.245415 L 59.323286 59.040075 L 59.583547 58.835385 L 59.844224 58.631338 L 60.105324 58.427929 L 60.366855 58.225151 L 60.628825 58.022998 L 60.891241 57.821462 L 61.154111 57.620539 L 61.417444 57.420222 L 61.681246 57.220505 L 61.945527 57.021382 L 62.210294 56.822847 L 62.475555 56.624895 L 62.741319 56.427520 L 63.007593 56.230716 L 63.274387 56.034478 L 63.541708 55.838800 L 63.809566 55.643677 L 64.077968 55.449104 L 64.346923 55.255075 L 64.616441 55.061585 L 64.886529 54.868630 L 65.157197 54.676204 L 65.428453 54.484303 L 65.700307 54.292921 L 65.972767 54.102054 L 66.245844 53.911697 L 66.519545 53.721846 L 66.793881 53.532496 L 67.068861 53.343643 L 67.344493 53.155281 L 67.620789 52.967408 L 67.897757 52.780019 L 68.175408 52.593109 L 68.453750 52.406675 L 68.732795 52.220712 L 69.012552 52.035217 L 69.293031 51.850186 L 69.574242 51.665615 L 69.856196 51.481501 L 70.138902 51.297839 L 70.422373 51.114626 L 70.706617 50.931859 L 70.991647 50.749534 L 71.277472 50.567649 L 71.564104 50.386199 L 71.851553 50.205182 L 72.139830 50.024594 L 72.428948 49.844433 L 72.718917 49.664696 L 73.009748 49.485379 L 73.301454 49.306480 L 73.594046 49.127997 L 73.887535 48.949926 L 74.181934 48.772266 L 74.477254 48.595013 L 74.773508 48.418165 L 75.070708 48.241721 L 75.368867 48.065677 L 75.667997 47.890032 L 75.968110 47.714784 L 76.269219 47.539930 L 76.571338 47.365469 L 76.874480 47.191399 L 77.178657 47.017719 L 77.483883 46.844426 L 77.790171 46.671519 L 78.097535 46.498997 L 78.405989 46.326858 L 78.715547 46.155102 L 79.026223 45.983726 L 79.338031 45.812731 L 79.650985 45.642114 L 79.965101 45.471875 L 80.280392 45.302014 L 80.596873 45.132529 L 80.914561 44.963420 L 81.233469 44.794687 L 81.553613 44.626329 L 81.875009 44.458346 L 82.197672 44.290737 L 82.521619 44.123503 L 82.846866 43.956644 L 83.173428 43.790160 L 83.501322 43.624051 L 83.830565 43.458317 L 84.161174 43.292960 L 84.493166 43.127979 L 84.826558 42.963375 L 85.161367 42.799150 L 85.497612 42.635305 L 85.835310 42.471839 L 86.174478 42.308756 L 86.515136 42.146055 L 86.857303 41.983739 L 87.200995 41.821809 L 87.546234 41.660268 L 87.893037 41.499116 L 88.241425 41.338356 L 88.591417 41.177991 L 88.943033 41.018023 L 89.296293 40.858453 L 89.651217 40.699286 L 90.007827 40.540524 L 90.366143 40.382169 L 90.726186 40.224226 L 91.087978 40.066696 L 91.451541 39.909585 L 91.816896 39.752896 L 92.184066 39.596632 L 92.553074 39.440798 L 92.923942 39.285398 L 93.296694 39.130436 L 93.671353 38.975918 L 94.047942 38.821847 L 94.426487 38.668230 L 94.807010 38.515070 L 95.189538 38.362375 L 95.574094 38.210150 L 95.960705 38.058400 L 96.349396 37.907132 L 96.740194 37.756353 L 97.133123 37.606068 L 97.528213 37.456286 L 97.925488 37.307012 L 98.324977 37.158256 L 98.726708 37.010023 L 99.130709 36.862323 L 99.537008 36.715164 L 99.945635 36.568554 L 100.356619 36.422503 L 100.769989 36.277019 L 101.185776 36.132111 L 101.604011 35.987791 L 102.024724 35.844068 L 102.447946 35.700952 L 102.873711 35.558454 L 103.302050 35.416586 L 103.732995 35.275359 L 104.166581 35.134785 L 104.602840 34.994876 L 105.041807 34.855646 L 105.483517 34.717106 L 105.928005 34.579272 L 106.375306 34.442156 L 106.825456 34.305774 L 107.278492 34.170140 L 107.734452 34.035269 L 108.193373 33.901177 L 108.655292 33.767881 L 109.120250 33.635397 L 109.588285 33.503743 L 110.059437 33.372936 L 110.533747 33.242995 L 111.011256 33.113939 L 111.492004 32.985787 L 111.976035 32.858559 L 112.463392 32.732277 L 112.954117 32.606961 L 113.448255 32.482633 L 113.945850 32.359317 L 114.446949 32.237034 L 114.951596 32.115811 L 115.459840 31.995670 L 115.971726 31.876637 L 116.487303 31.758740 L 117.006620 31.642004 L 117.529726 31.526458 L 118.056672 31.412130 L 118.587508 31.299049 L 119.122287 31.187247 L 119.661059 31.076754 L 120.203880 30.967602 L 120.750802 30.859824 L 120.825330 30.845439" fill="none" id="tattoo-path-b53cbfa31c1abfe4" stroke="#000000" stroke-linecap="round" stroke-linejoin="round" stroke-width="1.900000"/>
  <path clip-path="url(#tattoo-band-layer-clip)" d="M 105.901605 126.857822 L 105.631598 126.403482 L 105.348737 125.927638 L 105.067997 125.455486 L 104.789344 124.986966 L 104.512744 124.522017 L 104.238164 124.060581 L 103.965572 123.602602 L 103.694936 123.148024 L 103.426224 122.696791 L 103.159407 122.248850 L 102.894454 121.804149 L 102.631336 121.362634 L 102.370024 120.924257 L 102.110490 120.488966 L 101.852705 120.056714 L 101.596642 119.627451 L 101.342275 119.201131 L 101.089578 118.777708 L 100.838523 118.357136 L 100.589087 117.939371 L 100.341243 117.524369 L 100.094968 117.112087 L 99.850237 116.702483 L 99.607026 116.295516 L 99.365313 115.891144 L 99.125074 115.489328 L 98.886287 115.090028 L 98.648929 114.693206 L 98.412980 114.298824 L 98.178417 113.906845 L 97.945220 113.517231 L 97.713368 113.129947 L 97.482840 112.744957 L 97.253617 112.362228 L 97.025678 111.981723 L 96.799005 111.603410 L 96.573579 111.227255 L 96.349380 110.853226 L 96.126390 110.481290 L 95.904592 110.111417 L 95.683966 109.743575 L 95.464497 109.377733 L 95.246165 109.013862 L 95.028954 108.651932 L 94.812848 108.291913 L 94.597830 107.933777 L 94.383883 107.577496 L 94.170991 107.223041 L 93.959140 106.870386 L 93.748312 106.519504 L 93.538492 106.170367 L 93.329666 105.822950 L 93.121819 105.477227 L 92.914935 105.133172 L 92.709001 104.790761 L 92.504002 104.449969 L 92.299924 104.110771 L 92.096752 103.773143 L 91.894474 103.437062 L 91.693076 103.102505 L 91.492544 102.769448 L 91.292866 102.437868 L 91.094028 102.107745 L 90.896017 101.779054 L 90.698821 101.451776 L 90.502428 101.125887 L 90.306825 100.801368 L 90.111999 100.478196 L 89.917940 100.156352 L 89.724634 99.835816 L 89.532071 99.516567 L 89.340239 99.198584 L 89.149126 98.881850 L 88.958721 98.566344 L 88.769014 98.252048 L 88.579992 97.938942 L 88.391645 97.627008 L 88.203963 97.316227 L 88.016935 97.006582 L 87.830549 96.698054 L 87.644797 96.390626 L 87.459668 96.084280 L 87.275151 95.779000 L 87.091236 95.474767 L 86.907915 95.171565 L 86.725176 94.869377 L 86.543010 94.568187 L 86.361407 94.267978 L 86.180359 93.968734 L 85.999855 93.670440 L 85.819887 93.373079 L 85.640445 93.076635 L 85.461520 92.781094 L 85.283103 92.486440 L 85.105185 92.192658 L 84.927757 91.899732 L 84.750811 91.607649 L 84.574338 91.316392 L 84.398329 91.025949 L 84.222776 90.736304 L 84.047671 90.447442 L 83.873004 90.159351 L 83.698768 89.872015 L 83.524955 89.585422 L 83.351556 89.299557 L 83.178564 89.014406 L 83.005970 88.729957 L 82.833766 88.446196 L 82.661945 88.163109 L 82.490499 87.880684 L 82.319420 87.598907 L 82.148701 87.317765 L 81.978333 87.037246 L 81.808310 86.757337 L 81.638623 86.478026 L 81.469266 86.199299 L 81.300231 85.921145 L 81.131510 85.643550 L 80.963097 85.366504 L 80.794984 85.089994 L 80.627164 84.814007 L 80.459629 84.538532 L 80.292374 84.263556 L 80.125390 83.989069 L 79.958671 83.715058 L 79.792209 83.441512 L 79.625998 83.168419 L 79.460032 82.895767 L 79.294302 82.623546 L 79.128803 82.351744 L 78.963527 82.080349 L 78.798468 81.809350 L 78.633619 81.538737 L 78.468973 81.268498 L 78.304525 80.998621 L 78.140266 80.729097 L 77.976191 80.459914 L 77.812294 80.191061 L 77.648566 79.922528 L 77.485003 79.654303 L 77.321598 79.386376 L 77.158344 79.118736 L 76.995234 78.851373 L 76.832263 78.584276 L 76.669424 78.317435 L 76.506711 78.050838 L 76.344117 77.784476 L 76.181636 77.518338 L 76.019262 77.252413 L 75.856988 76.986692 L 75.694809 76.721164 L 75.532717 76.455818 L 75.370707 76.190645 L 75.208773 75.925634 L 75.046908 75.660774 L 74.885106 75.396057 L 74.723361 75.131471 L 74.561666 74.867006 L 74.400016 74.602652 L 74.238405 74.338399 L 74.076826 74.074238 L 73.915272 73.810157 L 73.753739 73.546147 L 73.592219 73.282197 L 73.430707 73.018298 L 73.269197 72.754440 L 73.107682 72.490612 L 72.946155 72.226805 L 72.784612 71.963008 L 72.623046 71.699211 L 72.461451 71.435405 L 72.299820 71.171579 L 72.138147 70.907723 L 71.976427 70.643827 L 71.814652 70.379882 L 71.652818 70.115876 L 71.490917 69.851801 L 71.328944 69.587645 L 71.166891 69.323399 L 71.004754 69.059053 L 70.842526 68.794597 L 70.680200 68.530020 L 70.517770 68.265312 L 70.355230 68.000463 L 70.192574 67.735463 L 70.029796 67.470302 L 69.866888 67.204969 L 69.703844 66.939454 L 69.540659 66.673747 L 69.377326 66.407837 L 69.213839 66.141715 L 69.050190 65.875369 L 68.886374 65.608790 L 68.722383 65.341966 L 68.558212 65.074888 L 68.393854 64.807544 L 68.229303 64.539925 L 68.064551 64.272019 L 67.899592 64.003816 L 67.734419 63.735305 L 67.569026 63.466475 L 67.403406 63.197316 L 67.237552 62.927817 L 67.071458 62.657966 L 66.905116 62.387753 L 66.738519 62.117167 L 66.571661 61.846197 L 66.404535 61.574831 L 66.237133 61.303058 L 66.069449 61.030867 L 65.901475 60.758247 L 65.733204 60.485186 L 65.564630 60.211673 L 65.395744 59.937696 L 65.226540 59.663243 L 65.057010 59.388303 L 64.887147 59.112864 L 64.716943 58.836914 L 64.546390 58.560442 L 64.375482 58.283434 L 64.204210 58.005880 L 64.032568 57.727766 L 63.860546 57.449081 L 63.688137 57.169812 L 63.515334 56.889946 L 63.342128 56.609472 L 63.168512 56.328375 L 62.994476 56.046645 L 62.820014 55.764266 L 62.645117 55.481227 L 62.469776 55.197515 L 62.293984 54.913115 L 62.117731 54.628016 L 61.941009 54.342202 L 61.763810 54.055662 L 61.586125 53.768380 L 61.407945 53.480344 L 61.229261 53.191538 L 61.050064 52.901950 L 60.870345 52.611564 L 60.690095 52.320366 L 60.509305 52.028343 L 60.327966 51.735478 L 60.146067 51.441758 L 59.963600 51.147167 L 59.780554 50.851690 L 59.596921 50.555312 L 59.412690 50.258018 L 59.227851 49.959791 L 59.042394 49.660616 L 58.856308 49.360477 L 58.669585 49.059358 L 58.482213 48.757242 L 58.294181 48.454114 L 58.105479 48.149955 L 57.916096 47.844750 L 57.726022 47.538482 L 57.535245 47.231132 L 57.343753 46.922684 L 57.151536 46.613120 L 56.958583 46.302422 L 56.764880 45.990571 L 56.570418 45.677550 L 56.375183 45.363340 L 56.179164 45.047922 L 55.982348 44.731276 L 55.784723 44.413384 L 55.586277 44.094227 L 55.386996 43.773784 L 55.186869 43.452034 L 54.985881 43.128959 L 54.784019 42.804538 L 54.581271 42.478748 L 54.377622 42.151570 L 54.173059 41.822982 L 53.967567 41.492962 L 53.761133 41.161489 L 53.553742 40.828539 L 53.345379 40.494090 L 53.136030 40.158119 L 52.925679 39.820604 L 52.714311 39.481519 L 52.501912 39.140843 L 52.288464 38.798549 L 52.073953 38.454613 L 51.858361 38.109011 L 51.641673 37.761717 L 51.423872 37.412705 L 51.204940 37.061949 L 50.984861 36.709423 L 50.763617 36.355099 L 50.541191 35.998950 L 50.317564 35.640948 L 50.092718 35.281066 L 49.866634 34.919274 L 49.639294 34.555544 L 49.410678 34.189845 L 49.180767 33.822148 L 48.949541 33.452422 L 48.716979 33.080636 L 48.483062 32.706759 L 48.247768 32.330759 L 48.011076 31.952602 L 47.772964 31.572257 L 47.533411 31.189688 L 47.292394 30.804863 L 47.049891 30.417745 L 46.805878 30.028301 L 46.560332 29.636493 L 46.313229 29.242285 L 46.064544 28.845641 L 45.814254 28.446521 L 45.562332 28.044887 L 45.308753 27.640701 L 45.053491 27.233922 L 44.796519 26.824510 L 44.537810 26.412422 L 44.277337 25.997618 L 44.015071 25.580054 L 43.750984 25.159686 L 43.485046 24.736470 L 43.217229 24.310361 L 42.947500 23.881313 L 42.675831 23.449277 L 42.402188 23.014208 L 42.126541 22.576055 L 41.848856 22.134769 L 41.569099 21.690299 L 41.287238 21.242594 L 41.003238 20.791601 L 40.717062 20.337266 L 40.428675 19.879534 L 40.138040 19.418351 L 39.845119 18.953657 L 39.549875 18.485397 L 39.267940 18.038360" fill="none" id="tattoo-path-2154b2eb7ca8bfe9" stroke="#000000" stroke-linecap="round" stroke-linejoin="round" stroke-width="1.600000"/>
  <path clip-path="url(#tattoo-band-layer-clip)" d="M 32.266128 122.014397 L 32.601152 121.709794 L 33.010779 121.336482 L 33.416856 120.965540 L 33.819442 120.596933 L 34.218596 120.230625 L 34.614374 119.866584 L 35.006833 119.504776 L 35.396028 119.145169 L 35.782013 118.787730 L 36.164841 118.432429 L 36.544563 118.079232 L 36.921230 117.728111 L 37.294891 117.379035 L 37.665596 117.031974 L 38.033391 116.686899 L 38.398325 116.343782 L 38.760442 116.002593 L 39.119787 115.663305 L 39.476406 115.325890 L 39.830341 114.990322 L 40.181634 114.656574 L 40.530327 114.324619 L 40.876461 113.994432 L 41.220077 113.665986 L 41.561213 113.339258 L 41.899908 113.014222 L 42.236200 112.690853 L 42.570126 112.369128 L 42.901723 112.049023 L 43.231027 111.730515 L 43.558073 111.413580 L 43.882895 111.098197 L 44.205528 110.784341 L 44.526005 110.471992 L 44.844359 110.161128 L 45.160621 109.851727 L 45.474824 109.543768 L 45.786998 109.237230 L 46.097175 108.932092 L 46.405385 108.628334 L 46.711656 108.325937 L 47.016018 108.024880 L 47.318499 107.725143 L 47.619128 107.426708 L 47.917932 107.129555 L 48.214938 106.833666 L 48.510173 106.539022 L 48.803663 106.245605 L 49.095435 105.953396 L 49.385513 105.662378 L 49.673922 105.372534 L 49.960687 105.083845 L 50.245833 104.796295 L 50.529382 104.509866 L 50.811360 104.224542 L 51.091787 103.940307 L 51.370688 103.657143 L 51.648085 103.375035 L 51.924000 103.093966 L 52.198454 102.813922 L 52.471469 102.534886 L 52.743065 102.256842 L 53.013265 101.979776 L 53.282087 101.703672 L 53.549552 101.428516 L 53.815681 101.154293 L 54.080491 100.880987 L 54.344004 100.608586 L 54.606237 100.337073 L 54.867209 100.066436 L 55.126939 99.796660 L 55.385446 99.527732 L 55.642746 99.259637 L 55.898857 98.992362 L 56.153798 98.725894 L 56.407584 98.460219 L 56.660234 98.195325 L 56.911763 97.931198 L 57.162189 97.667825 L 57.411527 97.405193 L 57.659794 97.143291 L 57.907005 96.882105 L 58.153176 96.621623 L 58.398323 96.361833 L 58.642460 96.102722 L 58.885603 95.844278 L 59.127766 95.586490 L 59.368964 95.329345 L 59.609212 95.072833 L 59.848524 94.816940 L 60.086914 94.561656 L 60.324396 94.306969 L 60.560983 94.052868 L 60.796690 93.799341 L 61.031529 93.546378 L 61.265515 93.293967 L 61.498659 93.042096 L 61.730976 92.790757 L 61.962477 92.539936 L 62.193176 92.289624 L 62.423085 92.039810 L 62.652216 91.790483 L 62.880582 91.541633 L 63.108195 91.293249 L 63.335066 91.045321 L 63.561208 90.797839 L 63.786632 90.550792 L 64.011350 90.304170 L 64.235373 90.057963 L 64.458713 89.812161 L 64.681381 89.566754 L 64.903388 89.321732 L 65.124745 89.077085 L 65.345462 88.832803 L 65.565552 88.588877 L 65.785023 88.345296 L 66.003888 88.102052 L 66.222156 87.859134 L 66.439838 87.616533 L 66.656943 87.374239 L 66.873483 87.132243 L 67.089467 86.890535 L 67.304905 86.649107 L 67.519808 86.407948 L 67.734184 86.167049 L 67.948044 85.926401 L 68.161398 85.685996 L 68.374254 85.445823 L 68.586623 85.205873 L 68.798513 84.966137 L 69.009935 84.726607 L 69.220897 84.487273 L 69.431408 84.248126 L 69.641478 84.009157 L 69.851116 83.770357 L 70.060330 83.531717 L 70.269130 83.293228 L 70.477524 83.054881 L 70.685522 82.816667 L 70.893131 82.578578 L 71.100361 82.340604 L 71.307220 82.102737 L 71.513716 81.864967 L 71.719859 81.627286 L 71.925656 81.389686 L 72.131116 81.152157 L 72.336247 80.914690 L 72.541058 80.677277 L 72.745556 80.439909 L 72.949750 80.202577 L 73.153649 79.965272 L 73.357259 79.727986 L 73.560589 79.490710 L 73.763648 79.253435 L 73.966442 79.016152 L 74.168981 78.778852 L 74.371271 78.541528 L 74.573321 78.304169 L 74.775138 78.066768 L 74.976731 77.829314 L 75.178106 77.591801 L 75.379273 77.354218 L 75.580237 77.116558 L 75.781007 76.878810 L 75.981591 76.640967 L 76.181996 76.403019 L 76.382230 76.164958 L 76.582300 75.926774 L 76.782213 75.688459 L 76.981978 75.450004 L 77.181601 75.211400 L 77.381091 74.972638 L 77.580453 74.733709 L 77.779697 74.494604 L 77.978829 74.255314 L 78.177856 74.015829 L 78.376786 73.776141 L 78.575627 73.536241 L 78.774385 73.296119 L 78.973068 73.055766 L 79.171683 72.815173 L 79.370237 72.574331 L 79.568738 72.333230 L 79.767193 72.091862 L 79.965609 71.850215 L 80.163994 71.608283 L 80.362354 71.366053 L 80.560697 71.123518 L 80.759031 70.880668 L 80.957361 70.637493 L 81.155696 70.393983 L 81.354043 70.150128 L 81.552409 69.905920 L 81.750801 69.661347 L 81.949227 69.416401 L 82.147693 69.171071 L 82.346208 68.925347 L 82.544777 68.679220 L 82.743409 68.432678 L 82.942111 68.185712 L 83.140890 67.938312 L 83.339752 67.690468 L 83.538707 67.442168 L 83.737760 67.193402 L 83.936920 66.944161 L 84.136192 66.694433 L 84.335586 66.444207 L 84.535108 66.193474 L 84.734766 65.942221 L 84.934566 65.690439 L 85.134517 65.438115 L 85.334625 65.185240 L 85.534899 64.931801 L 85.735346 64.677788 L 85.935972 64.423190 L 86.136787 64.167993 L 86.337797 63.912188 L 86.539009 63.655763 L 86.740433 63.398705 L 86.942074 63.141003 L 87.143941 62.882644 L 87.346041 62.623618 L 87.548383 62.363911 L 87.750974 62.103511 L 87.953822 61.842406 L 88.156934 61.580584 L 88.360318 61.318031 L 88.563983 61.054734 L 88.767937 60.790682 L 88.972186 60.525861 L 89.176740 60.260257 L 89.381607 59.993858 L 89.586794 59.726650 L 89.792309 59.458619 L 89.998162 59.189751 L 90.204360 58.920033 L 90.410911 58.649451 L 90.617824 58.377991 L 90.825107 58.105638 L 91.032769 57.832377 L 91.240819 57.558195 L 91.449264 57.283075 L 91.658114 57.007004 L 91.867376 56.729966 L 92.077061 56.451945 L 92.287176 56.172927 L 92.497732 55.892895 L 92.708735 55.611834 L 92.920196 55.329728 L 93.132124 55.046559 L 93.344528 54.762312 L 93.557416 54.476971 L 93.770799 54.190517 L 93.984686 53.902935 L 94.199085 53.614206 L 94.414008 53.324314 L 94.629462 53.033240 L 94.845458 52.740966 L 95.062007 52.447475 L 95.279116 52.152747 L 95.496797 51.856765 L 95.715060 51.559508 L 95.933914 51.260959 L 96.153370 50.961097 L 96.373438 50.659902 L 96.594128 50.357355 L 96.815451 50.053436 L 97.037418 49.748123 L 97.260039 49.441396 L 97.483325 49.133234 L 97.707287 48.823615 L 97.931936 48.512518 L 98.157283 48.199920 L 98.383339 47.885800 L 98.610116 47.570133 L 98.837625 47.252898 L 99.065877 46.934071 L 99.294885 46.613628 L 99.524660 46.291545 L 99.755214 45.967797 L 99.986558 45.642360 L 100.218707 45.315209 L 100.451671 44.986318 L 100.685463 44.655660 L 100.920095 44.323210 L 101.155581 43.988940 L 101.391934 43.652824 L 101.629166 43.314834 L 101.867290 42.974941 L 102.106320 42.633117 L 102.346270 42.289334 L 102.587152 41.943560 L 102.828982 41.595768 L 103.071772 41.245925 L 103.315537 40.894001 L 103.560291 40.539965 L 103.806049 40.183784 L 104.052825 39.825427 L 104.300634 39.464859 L 104.549491 39.102047 L 104.799412 38.736957 L 105.050411 38.369554 L 105.302504 37.999803 L 105.555708 37.627667 L 105.810037 37.253110 L 106.065509 36.876094 L 106.322139 36.496582 L 106.579945 36.114534 L 106.838942 35.729912 L 107.099148 35.342675 L 107.360580 34.952783 L 107.623256 34.560193 L 107.887193 34.164864 L 108.152409 33.766752 L 108.418923 33.365814 L 108.686753 32.962005 L 108.955917 32.555278 L 109.226434 32.145589 L 109.498324 31.732888 L 109.771606 31.317129 L 110.046300 30.898262 L 110.322425 30.476237 L 110.600002 30.051003 L 110.879052 29.622508 L 111.159595 29.190698 L 111.441652 28.755520 L 111.725245 28.316918 L 112.010395 27.874837 L 112.297125 27.429218 L 112.585456 26.980003 L 112.875412 26.527132 L 113.167015 26.070544 L 113.460289 25.610178 L 113.755257 25.145968 L 114.051943 24.677851 L 114.293887 24.295115" fill="none" id="tattoo-path-938498c9688441f6" stroke="#000000" stroke-linecap="round" stroke-linejoin="round" stroke-width="1.200000"/>
  <path clip-path="url(#tattoo-band-layer-clip)" d="M 77.164631 136.129248 L 77.243173 135.999093 L 77.528845 135.520814 L 77.810569 135.044293 L 78.088404 134.569521 L 78.362409 134.096489 L 78.632641 133.625189 L 78.899157 133.155611 L 79.162013 132.687746 L 79.421261 132.221583 L 79.676956 131.757114 L 79.929151 131.294328 L 80.177896 130.833214 L 80.423242 130.373761 L 80.665238 129.915960 L 80.903933 129.459800 L 81.139374 129.005269 L 81.371609 128.552356 L 81.600683 128.101050 L 81.826641 127.651339 L 82.049528 127.203212 L 82.269387 126.756658 L 82.486260 126.311664 L 82.700189 125.868219 L 82.911216 125.426311 L 83.119381 124.985927 L 83.324722 124.547057 L 83.527280 124.109687 L 83.727092 123.673805 L 83.924196 123.239400 L 84.118628 122.806459 L 84.310424 122.374969 L 84.499620 121.944919 L 84.686251 121.516296 L 84.870351 121.089087 L 85.051953 120.663279 L 85.231090 120.238862 L 85.407795 119.815821 L 85.582099 119.394145 L 85.754034 118.973821 L 85.923629 118.554837 L 86.090915 118.137179 L 86.255922 117.720836 L 86.418679 117.305794 L 86.579213 116.892042 L 86.737553 116.479567 L 86.893726 116.068357 L 87.047760 115.658398 L 87.199679 115.249678 L 87.349512 114.842186 L 87.497282 114.435908 L 87.643016 114.030832 L 87.786737 113.626946 L 87.928470 113.224238 L 88.068238 112.822694 L 88.206065 112.422304 L 88.341973 112.023053 L 88.475986 111.624931 L 88.608124 111.227925 L 88.738410 110.832023 L 88.866865 110.437212 L 88.993510 110.043482 L 89.118365 109.650818 L 89.241451 109.259210 L 89.362786 108.868645 L 89.482391 108.479112 L 89.600284 108.090599 L 89.716485 107.703093 L 89.831012 107.316583 L 89.943881 106.931057 L 90.055113 106.546503 L 90.164723 106.162910 L 90.272728 105.780265 L 90.379146 105.398558 L 90.483993 105.017777 L 90.587285 104.637909 L 90.689038 104.258944 L 90.789267 103.880870 L 90.887988 103.503676 L 90.985215 103.127351 L 91.080964 102.751882 L 91.175249 102.377259 L 91.268083 102.003470 L 91.359481 101.630504 L 91.449457 101.258351 L 91.538023 100.886998 L 91.625194 100.516436 L 91.710981 100.146652 L 91.795397 99.777636 L 91.878455 99.409377 L 91.960168 99.041864 L 92.040546 98.675087 L 92.119601 98.309033 L 92.197345 97.943693 L 92.273790 97.579056 L 92.348946 97.215111 L 92.422824 96.851848 L 92.495434 96.489255 L 92.566787 96.127323 L 92.636894 95.766041 L 92.705763 95.405398 L 92.773405 95.045383 L 92.839829 94.685987 L 92.905046 94.327200 L 92.969063 93.969010 L 93.031889 93.611407 L 93.093535 93.254381 L 93.154007 92.897923 L 93.213315 92.542021 L 93.271467 92.186666 L 93.328471 91.831847 L 93.384334 91.477554 L 93.439064 91.123778 L 93.492670 90.770509 L 93.545158 90.417735 L 93.596535 90.065448 L 93.646808 89.713637 L 93.695985 89.362293 L 93.744072 89.011406 L 93.791075 88.660966 L 93.837001 88.310962 L 93.881856 87.961386 L 93.925646 87.612228 L 93.968377 87.263478 L 94.010054 86.915125 L 94.050684 86.567162 L 94.090271 86.219577 L 94.128821 85.872361 L 94.166339 85.525505 L 94.202831 85.179000 L 94.238300 84.832835 L 94.272751 84.487001 L 94.306190 84.141489 L 94.338620 83.796289 L 94.370046 83.451392 L 94.400473 83.106788 L 94.429902 82.762468 L 94.458340 82.418423 L 94.485789 82.074642 L 94.512254 81.731118 L 94.537737 81.387840 L 94.562241 81.044800 L 94.585771 80.701987 L 94.608329 80.359393 L 94.629918 80.017009 L 94.650541 79.674824 L 94.670200 79.332831 L 94.688899 78.991019 L 94.706639 78.649380 L 94.723422 78.307904 L 94.739252 77.966582 L 94.754129 77.625406 L 94.768056 77.284365 L 94.781035 76.943450 L 94.793067 76.602653 L 94.804154 76.261965 L 94.814298 75.921376 L 94.823498 75.580877 L 94.831758 75.240459 L 94.839077 74.900113 L 94.845457 74.559830 L 94.850898 74.219600 L 94.855401 73.879415 L 94.858968 73.539266 L 94.861597 73.199143 L 94.863289 72.859037 L 94.864045 72.518940 L 94.863865 72.178842 L 94.862749 71.838734 L 94.860696 71.498608 L 94.857706 71.158453 L 94.853779 70.818261 L 94.848914 70.478022 L 94.843110 70.137729 L 94.836368 69.797371 L 94.828685 69.456939 L 94.820061 69.116425 L 94.810494 68.775819 L 94.799985 68.435113 L 94.788530 68.094296 L 94.776128 67.753360 L 94.762779 67.412296 L 94.748479 67.071095 L 94.733228 66.729747 L 94.717023 66.388243 L 94.699861 66.046574 L 94.681742 65.704731 L 94.662662 65.362705 L 94.642619 65.020486 L 94.621610 64.678065 L 94.599632 64.335434 L 94.576683 63.992582 L 94.552759 63.649500 L 94.527858 63.306180 L 94.501976 62.962611 L 94.475109 62.618785 L 94.447254 62.274692 L 94.418407 61.930323 L 94.388565 61.585668 L 94.357723 61.240718 L 94.325877 60.895463 L 94.293024 60.549895 L 94.259158 60.204003 L 94.224275 59.857779 L 94.188371 59.511212 L 94.151440 59.164293 L 94.113478 58.817013 L 94.074480 58.469361 L 94.034440 58.121329 L 93.993352 57.772907 L 93.951212 57.424085 L 93.908014 57.074853 L 93.863751 56.725201 L 93.818418 56.375121 L 93.772009 56.024601 L 93.724516 55.673633 L 93.675935 55.322206 L 93.626257 54.970311 L 93.575477 54.617937 L 93.523587 54.265075 L 93.470580 53.911715 L 93.416448 53.557847 L 93.361185 53.203460 L 93.304783 52.848546 L 93.247233 52.493092 L 93.188528 52.137091 L 93.128659 51.780530 L 93.067619 51.423401 L 93.005398 51.065692 L 92.941988 50.707394 L 92.877379 50.348496 L 92.811564 49.988988 L 92.744531 49.628860 L 92.676273 49.268101 L 92.606779 48.906700 L 92.536039 48.544648 L 92.464043 48.181933 L 92.390780 47.818545 L 92.316241 47.454473 L 92.240414 47.089707 L 92.163289 46.724236 L 92.084853 46.358049 L 92.005097 45.991136 L 91.924007 45.623485 L 91.841573 45.255086 L 91.757781 44.885927 L 91.672621 44.515999 L 91.586078 44.145289 L 91.498141 43.773787 L 91.408796 43.401482 L 91.318030 43.028362 L 91.225828 42.654417 L 91.132179 42.279634 L 91.037066 41.904004 L 90.940476 41.527514 L 90.842394 41.150153 L 90.742805 40.771910 L 90.641695 40.392773 L 90.539046 40.012732 L 90.434845 39.631773 L 90.329073 39.249886 L 90.221716 38.867059 L 90.112756 38.483281 L 90.002176 38.098539 L 89.889959 37.712823 L 89.776088 37.326119 L 89.660544 36.938417 L 89.543309 36.549704 L 89.424364 36.159969 L 89.303690 35.769200 L 89.181268 35.377384 L 89.057078 34.984509 L 88.931100 34.590564 L 88.803314 34.195537 L 88.673699 33.799414 L 88.542233 33.402185 L 88.408895 33.003837 L 88.273663 32.604357 L 88.136515 32.203733 L 87.997427 31.801953 L 87.856376 31.399005 L 87.713340 30.994877 L 87.568292 30.589555 L 87.421210 30.183027 L 87.272068 29.775281 L 87.120841 29.366305 L 86.967502 28.956086 L 86.812026 28.544612 L 86.654385 28.131869 L 86.494551 27.717846 L 86.332498 27.302529 L 86.168197 26.885907 L 86.001618 26.467967 L 85.832733 26.048695 L 85.661510 25.628081 L 85.487921 25.206110 L 85.311933 24.782771 L 85.133515 24.358050 L 84.952634 23.931936 L 84.769258 23.504416 L 84.583354 23.075477 L 84.394886 22.645107 L 84.203821 22.213293 L 84.010122 21.780023 L 83.813755 21.345285 L 83.614681 20.909065 L 83.412865 20.471353 L 83.208267 20.032135 L 83.000848 19.591400 L 82.790570 19.149135 L 82.577392 18.705328 L 82.361273 18.259967 L 82.142171 17.813041 L 81.920044 17.364538 L 81.694848 16.914445 L 81.466539 16.462752 L 81.235071 16.009446 L 81.000400 15.554516 L 80.762478 15.097952 L 80.521258 14.639742 L 80.276690 14.179875 L 80.028727 13.718340 L 79.777317 13.255127 L 79.522408 12.790226 L 79.263950 12.323625 L 79.001888 11.855315 L 78.736167 11.385286 L 78.466734 10.913529 L 78.193530 10.440034 L 77.916500 9.964792 L 77.635584 9.487794 L 77.350722 9.009032 L 77.272401 8.878744" fill="none" id="tattoo-path-c9535473b6c2ccbb" stroke="#000000" stroke-linecap="round" stroke-linejoin="round" stroke-width="1.000000"/>
  <path clip-path="url(#tattoo-band-layer-clip)" d="M 27.108796 117.333900 L 26.953505 117.041090 L 26.695552 116.545747 L 26.441887 116.049593 L 26.192495 115.552660 L 25.947360 115.054979 L 25.706469 114.556582 L 25.469804 114.057498 L 25.237352 113.557759 L 25.009097 113.057394 L 24.785023 112.556431 L 24.565114 112.054901 L 24.349356 111.552832 L 24.137733 111.050252 L 23.930229 110.547189 L 23.726829 110.043670 L 23.527516 109.539721 L 23.332276 109.035371 L 23.141093 108.530645 L 22.953951 108.025570 L 22.770834 107.520169 L 22.591727 107.014470 L 22.416614 106.508497 L 22.245479 106.002274 L 22.078308 105.495825 L 21.915083 104.989175 L 21.755791 104.482347 L 21.600414 103.975364 L 21.448938 103.468249 L 21.301347 102.961024 L 21.157625 102.453713 L 21.017758 101.946336 L 20.881729 101.438915 L 20.749524 100.931473 L 20.621128 100.424029 L 20.496524 99.916604 L 20.375698 99.409220 L 20.258634 98.901896 L 20.145318 98.394652 L 20.035735 97.887508 L 19.929869 97.380483 L 19.827706 96.873596 L 19.729231 96.366867 L 19.634429 95.860313 L 19.543286 95.353953 L 19.455786 94.847805 L 19.371916 94.341887 L 19.291661 93.836217 L 19.215007 93.330811 L 19.141938 92.825688 L 19.072443 92.320863 L 19.006505 91.816355 L 18.944111 91.312178 L 18.885247 90.808350 L 18.829900 90.304886 L 18.778055 89.801802 L 18.729700 89.299114 L 18.684819 88.796838 L 18.643400 88.294988 L 18.605430 87.793580 L 18.570896 87.292628 L 18.539783 86.792147 L 18.512079 86.292152 L 18.487772 85.792656 L 18.466848 85.293675 L 18.449294 84.795221 L 18.435098 84.297310 L 18.424247 83.799953 L 18.416729 83.303166 L 18.412532 82.806961 L 18.411643 82.311351 L 18.414050 81.816349 L 18.419741 81.321969 L 18.428704 80.828222 L 18.440928 80.335122 L 18.456400 79.842682 L 18.475110 79.350912 L 18.497045 78.859826 L 18.522195 78.369435 L 18.550548 77.879752 L 18.582093 77.390789 L 18.616818 76.902556 L 18.654714 76.415066 L 18.695769 75.928330 L 18.739973 75.442359 L 18.787314 74.957166 L 18.837784 74.472760 L 18.891370 73.989153 L 18.948063 73.506356 L 19.007853 73.024380 L 19.070730 72.543236 L 19.136684 72.062933 L 19.205705 71.583484 L 19.277783 71.104899 L 19.352910 70.627187 L 19.431074 70.150360 L 19.512268 69.674428 L 19.596482 69.199400 L 19.683707 68.725288 L 19.773933 68.252101 L 19.867153 67.779850 L 19.963356 67.308544 L 20.062535 66.838193 L 20.164681 66.368807 L 20.269785 65.900397 L 20.377840 65.432971 L 20.488836 64.966540 L 20.602766 64.501114 L 20.719622 64.036702 L 20.839396 63.573313 L 20.962080 63.110957 L 21.087666 62.649645 L 21.216147 62.189385 L 21.347515 61.730187 L 21.481763 61.272060 L 21.618884 60.815015 L 21.758870 60.359060 L 21.901715 59.904204 L 22.047411 59.450458 L 22.195952 58.997831 L 22.347331 58.546332 L 22.501541 58.095970 L 22.658575 57.646756 L 22.818428 57.198697 L 22.981093 56.751804 L 23.146563 56.306087 L 23.314832 55.861554 L 23.485895 55.418215 L 23.659745 54.976079 L 23.836377 54.535156 L 24.015785 54.095455 L 24.197962 53.656986 L 24.382904 53.219758 L 24.570605 52.783780 L 24.761059 52.349063 L 24.954262 51.915616 L 25.150207 51.483447 L 25.348891 51.052568 L 25.550306 50.622987 L 25.754450 50.194715 L 25.961317 49.767760 L 26.170901 49.342133 L 26.383199 48.917844 L 26.598206 48.494901 L 26.815917 48.073316 L 27.036327 47.653098 L 27.259432 47.234257 L 27.485229 46.816803 L 27.713712 46.400746 L 27.944877 45.986096 L 28.178721 45.572864 L 28.415239 45.161059 L 28.654428 44.750693 L 28.896282 44.341774 L 29.140800 43.934315 L 29.387976 43.528324 L 29.637808 43.123814 L 29.890291 42.720794 L 30.145422 42.319275 L 30.403197 41.919268 L 30.663613 41.520784 L 30.926668 41.123834 L 31.192356 40.728428 L 31.460676 40.334579 L 31.731623 39.942296 L 32.005195 39.551592 L 32.281388 39.162478 L 32.560201 38.774965 L 32.841628 38.389065 L 33.125668 38.004789 L 33.412318 37.622150 L 33.701575 37.241158 L 33.993435 36.861827 L 34.287897 36.484167 L 34.584957 36.108192 L 34.884613 35.733914 L 35.186861 35.361344 L 35.491700 34.990496 L 35.799127 34.621382 L 36.109139 34.254014 L 36.421734 33.888407 L 36.736909 33.524571 L 37.054661 33.162521 L 37.374989 32.802270 L 37.697889 32.443831 L 38.023360 32.087218 L 38.351398 31.732444 L 38.682002 31.379523 L 39.015168 31.028468 L 39.350896 30.679294 L 39.689182 30.332015 L 40.030023 29.986645 L 40.373418 29.643198 L 40.719364 29.301690 L 41.067859 28.962134 L 41.418901 28.624545 L 41.772486 28.288939 L 42.128614 27.955330 L 42.487280 27.623735 L 42.848484 27.294167 L 43.212221 26.966643 L 43.578491 26.641179 L 43.947291 26.317790 L 44.318617 25.996493 L 44.692468 25.677303 L 45.068842 25.360238 L 45.447734 25.045313 L 45.829144 24.732545 L 46.213068 24.421951 L 46.599503 24.113549 L 46.988447 23.807355 L 47.379897 23.503387 L 47.773851 23.201662 L 48.170305 22.902198 L 48.569256 22.605013 L 48.970702 22.310126 L 49.374640 22.017554 L 49.781066 21.727315 L 50.189977 21.439429 L 50.601370 21.153915 L 51.015241 20.870790 L 51.431588 20.590076 L 51.850407 20.311790 L 52.271694 20.035953 L 52.695445 19.762584 L 53.121658 19.491703 L 53.550327 19.223331 L 53.981449 18.957487 L 54.415021 18.694194 L 54.851037 18.433470 L 55.289494 18.175337 L 55.730387 17.919817 L 56.173712 17.666930 L 56.619464 17.416699 L 57.067638 17.169145 L 57.518230 16.924290 L 57.971235 16.682156 L 58.426646 16.442766 L 58.884460 16.206142 L 59.344671 15.972307 L 59.807272 15.741285 L 60.272259 15.513098 L 60.739625 15.287770 L 61.209364 15.065324 L 61.681470 14.845786 L 62.155937 14.629177 L 62.632758 14.415524 L 63.111925 14.204851 L 63.593433 13.997182 L 64.077274 13.792542 L 64.563440 13.590957 L 65.051924 13.392452 L 65.542718 13.197052 L 66.035814 13.004784 L 66.531204 12.815674 L 67.028879 12.629748 L 67.528830 12.447032 L 68.031049 12.267553 L 68.535527 12.091339 L 69.042253 11.918416 L 69.551218 11.748812 L 70.062412 11.582554 L 70.575825 11.419671 L 71.091446 11.260190 L 71.609265 11.104139 L 72.129269 10.951548 L 72.651449 10.802445 L 73.175792 10.656859 L 73.702286 10.514819 L 74.230918 10.376354 L 74.761677 10.241494 L 75.294549 10.110269 L 75.829520 9.982708 L 76.366578 9.858843 L 76.905707 9.738703 L 77.446894 9.622319 L 77.990124 9.509722 L 78.535382 9.400943 L 79.082652 9.296013 L 79.631918 9.194964 L 79.958330 9.137445" fill="none" id="tattoo-path-ef7210c65b4fd23b" stroke="#000000" stroke-linecap="round" stroke-linejoin="round" stroke-width="0.800000"/>
  <circle cx="72.500000" cy="72.500000" fill="none" id="tattoo-boundary-da45c61d325de3be" r="64.900000" stroke="#000000" stroke-width="2.200000"/>
</svg>
