<svg height="145.000000mm" version="1.1" viewBox="0 0 145.000000 145.000000" width="145.000000mm" xmlns="http://www.w3.org/2000/svg">
  <defs>
    <clipPath clipPathUnits="userSpaceOnUse" id="tattoo-band-layer-clip">
      <circle cx="72.500000" cy="72.500000" r="63.800000"/>
    </clipPath>
  </defs>
  <path clip-path="url(#tattoo-band-layer-clip)" d="M 43.150085 129.148235 L 43.054757 129.006152 L 42.746974 128.540528 L 42.443529 128.074563 L 42.144390 127.608285 L 41.849523 127.141721 L 41.558898 126.674899 L 41.272482 126.207845 L 40.990244 125.740584 L 40.712151 125.273142 L 40.438173 124.805544 L 40.168279 124.337813 L 39.902437 123.869973 L 39.640617 123.402046 L 39.382789 122.934055 L 39.128923 122.466021 L 38.878988 121.997966 L 38.632954 121.529909 L 38.390793 121.061872 L 38.152475 120.593873 L 37.917972 120.125931 L 37.687253 119.658065 L 37.460291 119.190293 L 37.237058 118.722633 L 37.017525 118.255101 L 36.801664 117.787715 L 36.589449 117.320489 L 36.380852 116.853442 L 36.175846 116.386586 L 35.974404 115.919938 L 35.776500 115.453512 L 35.582107 114.987322 L 35.391200 114.521381 L 35.203752 114.055703 L 35.019739 113.590302 L 34.839134 113.125188 L 34.661914 112.660376 L 34.488053 112.195875 L 34.317527 111.731699 L 34.150313 111.267858 L 33.986385 110.804363 L 33.825720 110.341224 L 33.668295 109.878452 L 33.514087 109.416057 L 33.363073 108.954048 L 33.215230 108.492434 L 33.070537 108.031225 L 32.928970 107.570429 L 32.790508 107.110054 L 32.655129 106.650109 L 32.522812 106.190602 L 32.393537 105.731540 L 32.267282 105.272931 L 32.144026 104.814782 L 32.023750 104.357099 L 31.906433 103.899890 L 31.792055 103.443161 L 31.680597 102.986918 L 31.572040 102.531167 L 31.466364 102.075914 L 31.363551 101.621164 L 31.263582 101.166923 L 31.166439 100.713197 L 31.072103 100.259989 L 30.980557 99.807305 L 30.891784 99.355150 L 30.805765 98.903527 L 30.722484 98.452442 L 30.641924 98.001898 L 30.564068 97.551899 L 30.488900 97.102449 L 30.416404 96.653551 L 30.346563 96.205210 L 30.279362 95.757427 L 30.214786 95.310208 L 30.152819 94.863554 L 30.093446 94.417468 L 30.036652 93.971953 L 29.982423 93.527013 L 29.930745 93.082648 L 29.881603 92.638862 L 29.834983 92.195657 L 29.790873 91.753036 L 29.749257 91.310999 L 29.710123 90.869549 L 29.673459 90.428688 L 29.639251 89.988418 L 29.607486 89.548739 L 29.578152 89.109655 L 29.551238 88.671165 L 29.526730 88.233272 L 29.504618 87.795976 L 29.484889 87.359280 L 29.467533 86.923183 L 29.452538 86.487687 L 29.439893 86.052794 L 29.429588 85.618502 L 29.421612 85.184815 L 29.415955 84.751731 L 29.412606 84.319253 L 29.411556 83.887380 L 29.412795 83.456113 L 29.416314 83.025452 L 29.422102 82.595398 L 29.430151 82.165952 L 29.440453 81.737113 L 29.452997 81.308882 L 29.467776 80.881259 L 29.484781 80.454244 L 29.504005 80.027838 L 29.525438 79.602040 L 29.549074 79.176850 L 29.574904 78.752270 L 29.602921 78.328297 L 29.633118 77.904934 L 29.665488 77.482179 L 29.700023 77.060032 L 29.736718 76.638493 L 29.775565 76.217563 L 29.816559 75.797240 L 29.859692 75.377526 L 29.904960 74.958419 L 29.952356 74.539919 L 30.001874 74.122026 L 30.053509 73.704741 L 30.107256 73.288062 L 30.163109 72.871989 L 30.221064 72.456523 L 30.281115 72.041663 L 30.343259 71.627408 L 30.407490 71.213759 L 30.473804 70.800714 L 30.542198 70.388275 L 30.612667 69.976440 L 30.685207 69.565210 L 30.759815 69.154584 L 30.836487 68.744562 L 30.915220 68.335143 L 30.996011 67.926328 L 31.078857 67.518117 L 31.163755 67.110508 L 31.250702 66.703503 L 31.339696 66.297100 L 31.430735 65.891300 L 31.523815 65.486103 L 31.618936 65.081508 L 31.716096 64.677516 L 31.815292 64.274126 L 31.916523 63.871339 L 32.019787 63.469154 L 32.125084 63.067572 L 32.232413 62.666593 L 32.341772 62.266217 L 32.453160 61.866444 L 32.566577 61.467274 L 32.682023 61.068708 L 32.799497 60.670745 L 32.918998 60.273387 L 33.040528 59.876634 L 33.164086 59.480485 L 33.289671 59.084942 L 33.417286 58.690006 L 33.546930 58.295676 L 33.678604 57.901953 L 33.812308 57.508838 L 33.948044 57.116332 L 34.085814 56.724436 L 34.225617 56.333150 L 34.367457 55.942476 L 34.511333 55.552414 L 34.657249 55.162965 L 34.805206 54.774131 L 34.955205 54.385913 L 35.107250 53.998312 L 35.261342 53.611329 L 35.417484 53.224965 L 35.575679 52.839223 L 35.735929 52.454104 L 35.898237 52.069609 L 36.062606 51.685741 L 36.229040 51.302500 L 36.397541 50.919889 L 36.568114 50.537910 L 36.740761 50.156564 L 36.915487 49.775855 L 37.092295 49.395784 L 37.271190 49.016353 L 37.452175 48.637565 L 37.635255 48.259423 L 37.820435 47.881928 L 38.007718 47.505085 L 38.197110 47.128894 L 38.388616 46.753361 L 38.582240 46.378487 L 38.777987 46.004275 L 38.975864 45.630729 L 39.175875 45.257853 L 39.378026 44.885649 L 39.582322 44.514122 L 39.788770 44.143274 L 39.997376 43.773110 L 40.208145 43.403634 L 40.421083 43.034850 L 40.636198 42.666762 L 40.853496 42.299374 L 41.072982 41.932692 L 41.294665 41.566718 L 41.518551 41.201459 L 41.744647 40.836919 L 41.972960 40.473102 L 42.203498 40.110015 L 42.436267 39.747663 L 42.671276 39.386051 L 42.908533 39.025184 L 43.148045 38.665069 L 43.389820 38.305711 L 43.633866 37.947116 L 43.880192 37.589291 L 44.128806 37.232243 L 44.379716 36.875977 L 44.632931 36.520500 L 44.888460 36.165820 L 45.146312 35.811943 L 45.406495 35.458877 L 45.669020 35.106630 L 45.933894 34.755208 L 46.201129 34.404620 L 46.470732 34.054874 L 46.742715 33.705978 L 47.017086 33.357941 L 47.293855 33.010771 L 47.573033 32.664477 L 47.854630 32.319068 L 48.138656 31.974554 L 48.425121 31.630943 L 48.714036 31.288247 L 49.005412 30.946473 L 49.299259 30.605634 L 49.595588 30.265739 L 49.894410 29.926798 L 50.195737 29.588823 L 50.499580 29.251825 L 50.805949 28.915816 L 51.114856 28.580806 L 51.426314 28.246808 L 51.740333 27.913833 L 52.056925 27.581895 L 52.376103 27.251006 L 52.697878 26.921178 L 53.022262 26.592426 L 53.349268 26.264762 L 53.678908 25.938200 L 54.011194 25.612755 L 54.346139 25.288441 L 54.683755 24.965272 L 55.024055 24.643264 L 55.367053 24.322431 L 55.712759 24.002790 L 56.061189 23.684356 L 56.412354 23.367145 L 56.766269 23.051174 L 57.122945 22.736461 L 57.482397 22.423021 L 57.844637 22.110874 L 58.209680 21.800035 L 58.577539 21.490525 L 58.948227 21.182362 L 59.321758 20.875564 L 59.698146 20.570151 L 60.077404 20.266143 L 60.459547 19.963560 L 60.844588 19.662423 L 61.232541 19.362752 L 61.623420 19.064568 L 62.017240 18.767894 L 62.414014 18.472752 L 62.813757 18.179164 L 63.216482 17.887153 L 63.622204 17.596743 L 64.030937 17.307957 L 64.442695 17.020820 L 64.857492 16.735357 L 65.275343 16.451593 L 65.696262 16.169552 L 66.120264 15.889263 L 66.547361 15.610751 L 66.977570 15.334043 L 67.410903 15.059167 L 67.847375 14.786151 L 68.287001 14.515023 L 68.729793 14.245814 L 69.175768 13.978552 L 69.624938 13.713267 L 70.077317 13.449990 L 70.532920 13.188754 L 70.991760 12.929588 L 71.453852 12.672526 L 71.919208 12.417600 L 72.387842 12.164844 L 72.859769 11.914293 L 73.335001 11.665980 L 73.813552 11.419941 L 74.295435 11.176211 L 74.780663 10.934827 L 75.269248 10.695827 L 75.761205 10.459247 L 76.256544 10.225127 L 76.755280 9.993504 L 77.257423 9.764419 L 77.762987 9.537912 L 78.271982 9.314024 L 78.784421 9.092795 L 78.941969 9.026060" fill="none" id="tattoo-path-55eca64f57755371" stroke="#000000" stroke-linecap="round" stroke-linejoin="round" stroke-width="4.800000"/>
  <path clip-path="url(#tattoo-band-layer-clip)" d="M 136.015553 78.517852 L 135.531492 78.528180 L 134.977658 78.539496 L 134.428049 78.550232 L 133.882596 78.560401 L 133.341232 78.570016 L 132.803892 78.579088 L 132.270512 78.587629 L 131.741028 78.595649 L 131.215379 78.603161 L 130.693504 78.610175 L 130.175342 78.616700 L 129.660837 78.622747 L 129.149930 78.628327 L 128.642564 78.633447 L 128.138686 78.638119 L 127.638240 78.642349 L 127.141172 78.646149 L 126.647432 78.649525 L 126.156967 78.652486 L 125.669726 78.655041 L 125.185661 78.657197 L 124.704721 78.658962 L 124.226861 78.660343 L 123.752032 78.661348 L 123.280188 78.661984 L 122.811283 78.662256 L 122.345274 78.662174 L 121.882116 78.661741 L 121.421766 78.660966 L 120.964182 78.659855 L 120.509321 78.658412 L 120.057143 78.656645 L 119.607607 78.654559 L 119.160674 78.652159 L 118.716305 78.649450 L 118.274461 78.646439 L 117.835104 78.643131 L 117.398197 78.639529 L 116.963704 78.635640 L 116.531589 78.631467 L 116.101815 78.627016 L 115.674349 78.622291 L 115.249155 78.617297 L 114.826201 78.612037 L 114.405452 78.606516 L 113.986876 78.600738 L 113.570441 78.594707 L 113.156114 78.588426 L 112.743864 78.581900 L 112.333661 78.575132 L 111.925474 78.568125 L 111.519273 78.560884 L 111.115029 78.553411 L 110.712711 78.545710 L 110.312293 78.537784 L 109.913745 78.529636 L 109.517039 78.521269 L 109.122148 78.512686 L 108.729045 78.503890 L 108.337703 78.494884 L 107.948096 78.485670 L 107.560198 78.476251 L 107.173982 78.466630 L 106.789424 78.456809 L 106.406500 78.446791 L 106.025183 78.436578 L 105.645450 78.426171 L 105.267276 78.415575 L 104.890639 78.404790 L 104.515515 78.393819 L 104.141880 78.382664 L 103.769712 78.371327 L 103.398989 78.359809 L 103.029687 78.348114 L 102.661786 78.336241 L 102.295263 78.324195 L 101.930097 78.311975 L 101.566267 78.299584 L 101.203752 78.287024 L 100.842532 78.274295 L 100.482585 78.261400 L 100.123892 78.248340 L 99.766433 78.235117 L 99.410188 78.221731 L 99.055138 78.208185 L 98.701263 78.194478 L 98.348544 78.180614 L 97.996963 78.166593 L 97.646500 78.152416 L 97.297138 78.138084 L 96.948858 78.123599 L 96.601642 78.108961 L 96.255472 78.094171 L 95.910330 78.079231 L 95.566200 78.064142 L 95.223063 78.048904 L 94.880902 78.033518 L 94.539702 78.017985 L 94.199443 78.002306 L 93.860112 77.986481 L 93.521689 77.970512 L 93.184160 77.954399 L 92.847508 77.938143 L 92.511717 77.921745 L 92.176771 77.905204 L 91.842655 77.888522 L 91.509352 77.871699 L 91.176848 77.854735 L 90.845127 77.837632 L 90.514173 77.820390 L 90.183973 77.803008 L 89.854510 77.785488 L 89.525770 77.767830 L 89.197738 77.750034 L 88.870400 77.732101 L 88.543741 77.714030 L 88.217747 77.695822 L 87.892403 77.677478 L 87.567696 77.658997 L 87.243611 77.640380 L 86.920134 77.621627 L 86.597252 77.602737 L 86.274950 77.583712 L 85.953216 77.564551 L 85.632035 77.545254 L 85.311394 77.525821 L 84.991279 77.506253 L 84.671678 77.486549 L 84.352577 77.466709 L 84.033962 77.446734 L 83.715822 77.426622 L 83.398142 77.406374 L 83.080910 77.385991 L 82.764112 77.365471 L 82.447737 77.344814 L 82.131772 77.324021 L 81.816202 77.303090 L 81.501017 77.282023 L 81.186204 77.260818 L 80.871750 77.239476 L 80.557642 77.217995 L 80.243868 77.196376 L 79.930416 77.174618 L 79.617274 77.152721 L 79.304429 77.130684 L 78.991869 77.108508 L 78.679582 77.086191 L 78.367556 77.063733 L 78.055779 77.041134 L 77.744238 77.018393 L 77.432922 76.995509 L 77.121819 76.972482 L 76.810917 76.949312 L 76.500204 76.925998 L 76.189668 76.902538 L 75.879297 76.878933 L 75.569080 76.855182 L 75.259004 76.831284 L 74.949058 76.807239 L 74.639230 76.783045 L 74.329508 76.758702 L 74.019881 76.734210 L 73.710337 76.709566 L 73.400864 76.684771 L 73.091451 76.659824 L 72.782086 76.634723 L 72.472756 76.609469 L 72.163452 76.584059 L 71.854160 76.558493 L 71.544869 76.532770 L 71.235568 76.506889 L 70.926245 76.480849 L 70.616888 76.454649 L 70.307485 76.428288 L 69.998026 76.401765 L 69.688497 76.375078 L 69.378888 76.348227 L 69.069187 76.321210 L 68.759382 76.294027 L 68.449461 76.266675 L 68.139413 76.239154 L 67.829226 76.211463 L 67.518887 76.183599 L 67.208386 76.155562 L 66.897711 76.127351 L 66.586848 76.098964 L 66.275788 76.070400 L 65.964517 76.041656 L 65.653023 76.012733 L 65.341296 75.983628 L 65.029322 75.954339 L 64.717090 75.924866 L 64.404587 75.895207 L 64.091802 75.865359 L 63.778722 75.835322 L 63.465335 75.805094 L 63.151629 75.774673 L 62.837591 75.744057 L 62.523209 75.713245 L 62.208470 75.682234 L 61.893363 75.651024 L 61.577874 75.619611 L 61.261991 75.587995 L 60.945702 75.556173 L 60.628993 75.524144 L 60.311851 75.491905 L 59.994265 75.459454 L 59.676220 75.426790 L 59.357705 75.393910 L 59.038706 75.360811 L 58.719209 75.327493 L 58.399202 75.293953 L 58.078671 75.260188 L 57.757602 75.226196 L 57.435984 75.191975 L 57.113801 75.157522 L 56.791040 75.122836 L 56.467687 75.087913 L 56.143729 75.052752 L 55.819152 75.017349 L 55.493942 74.981702 L 55.168084 74.945809 L 54.841564 74.909666 L 54.514368 74.873272 L 54.186481 74.836623 L 53.857889 74.799716 L 53.528578 74.762549 L 53.198532 74.725119 L 52.867736 74.687423 L 52.536175 74.649458 L 52.203835 74.611220 L 51.870700 74.572707 L 51.536754 74.533916 L 51.201983 74.494843 L 50.866369 74.455486 L 50.529898 74.415840 L 50.192553 74.375903 L 49.854318 74.335670 L 49.515177 74.295139 L 49.175114 74.254306 L 48.834111 74.213168 L 48.492153 74.171720 L 48.149221 74.129959 L 47.805300 74.087881 L 47.460372 74.045483 L 47.114418 74.002760 L 46.767423 73.959708 L 46.419367 73.916323 L 46.070233 73.872602 L 45.720003 73.828539 L 45.368658 73.784131 L 45.016179 73.739374 L 44.662549 73.694262 L 44.307747 73.648791 L 43.951755 73.602957 L 43.594553 73.556756 L 43.236122 73.510181 L 42.876441 73.463229 L 42.515490 73.415894 L 42.153250 73.368171 L 41.789700 73.320056 L 41.424818 73.271543 L 41.058583 73.222626 L 40.690975 73.173301 L 40.321972 73.123562 L 39.951551 73.073403 L 39.579691 73.022819 L 39.206369 72.971803 L 38.831563 72.920350 L 38.455249 72.868454 L 38.077404 72.816108 L 37.698005 72.763307 L 37.317027 72.710043 L 36.934446 72.656312 L 36.550239 72.602105 L 36.164379 72.547416 L 35.776842 72.492238 L 35.387602 72.436565 L 34.996633 72.380389 L 34.603909 72.323703 L 34.209403 72.266499 L 33.813089 72.208770 L 33.414938 72.150508 L 33.014923 72.091706 L 32.613016 72.032355 L 32.209189 71.972447 L 31.803411 71.911974 L 31.395655 71.850927 L 30.985889 71.789298 L 30.574083 71.727078 L 30.160208 71.664257 L 29.744231 71.600828 L 29.326121 71.536779 L 28.905846 71.472103 L 28.483372 71.406788 L 28.058668 71.340825 L 27.631698 71.274205 L 27.202430 71.206915 L 26.770827 71.138947 L 26.336856 71.070289 L 25.900479 71.000930 L 25.461661 70.930859 L 25.020364 70.860064 L 24.576551 70.788533 L 24.130183 70.716256 L 23.681222 70.643218 L 23.229628 70.569409 L 22.775361 70.494815 L 22.318380 70.419422 L 21.858644 70.343219 L 21.396110 70.266190 L 20.930735 70.188323 L 20.462475 70.109603 L 19.991287 70.030015 L 19.517125 69.949545 L 19.039942 69.868177 L 18.559692 69.785895 L 18.076328 69.702685 L 17.589801 69.618530 L 17.100061 69.533412 L 16.607058 69.447316 L 16.110741 69.360223 L 15.611058 69.272116 L 15.107956 69.182977 L 14.601381 69.092787 L 14.091278 69.001528 L 13.577591 68.909178 L 13.060262 68.815719 L 12.539234 68.721131 L 12.014447 68.625391 L 11.485841 68.528480 L 10.953354 68.430374 L 10.416923 68.331052 L 9.876486 68.230490 L 9.331975 68.128665 L 8.856135 68.039236" fill="none" id="tattoo-path-82f04ae17f923390" stroke="#000000" stroke-linecap="round" stroke-linejoin="round" stroke-width="4.200000"/>
  <path clip-path="url(#tattoo-band-layer-clip)" d="M 73.217048 136.295970 L 73.411055 135.822490 L 73.619610 135.309048 L 73.825143 134.798622 L 74.027706 134.291175 L 74.227352 133.786669 L 74.424131 133.285068 L 74.618093 132.786335 L 74.809286 132.290434 L 74.997759 131.797330 L 75.183558 131.306987 L 75.366727 130.819370 L 75.547313 130.334446 L 75.725358 129.852179 L 75.900904 129.372538 L 76.073995 128.895488 L 76.244669 128.420997 L 76.412968 127.949033 L 76.578929 127.479563 L 76.742592 127.012556 L 76.903994 126.547981 L 77.063171 126.085806 L 77.220159 125.626002 L 77.374993 125.168538 L 77.527707 124.713384 L 77.678335 124.260511 L 77.826910 123.809890 L 77.973464 123.361492 L 78.118029 122.915289 L 78.260634 122.471252 L 78.401312 122.029354 L 78.540090 121.589568 L 78.676999 121.151865 L 78.812066 120.716220 L 78.945319 120.282607 L 79.076786 119.850997 L 79.206492 119.421367 L 79.334466 118.993690 L 79.460731 118.567941 L 79.585313 118.144095 L 79.708236 117.722127 L 79.829526 117.302013 L 79.949204 116.883728 L 80.067295 116.467249 L 80.183821 116.052552 L 80.298804 115.639614 L 80.412266 115.228411 L 80.524228 114.818920 L 80.634711 114.411120 L 80.743736 114.004987 L 80.851323 113.600500 L 80.957491 113.197636 L 81.062260 112.796374 L 81.165649 112.396693 L 81.267676 111.998571 L 81.368359 111.601987 L 81.467717 111.206921 L 81.565766 110.813352 L 81.662524 110.421260 L 81.758007 110.030624 L 81.852233 109.641425 L 81.945217 109.253644 L 82.036975 108.867260 L 82.127523 108.482254 L 82.216876 108.098607 L 82.305048 107.716301 L 82.392055 107.335316 L 82.477911 106.955634 L 82.562630 106.577237 L 82.646225 106.200107 L 82.728711 105.824225 L 82.810100 105.449574 L 82.890406 105.076136 L 82.969641 104.703893 L 83.047818 104.332829 L 83.124950 103.962926 L 83.201047 103.594167 L 83.276123 103.226536 L 83.350188 102.860015 L 83.423254 102.494588 L 83.495333 102.130239 L 83.566434 101.766952 L 83.636569 101.404710 L 83.705749 101.043497 L 83.773983 100.683299 L 83.841282 100.324098 L 83.907656 99.965880 L 83.973114 99.608628 L 84.037666 99.252329 L 84.101321 98.896966 L 84.164088 98.542525 L 84.225977 98.188991 L 84.286996 97.836348 L 84.347154 97.484583 L 84.406458 97.133681 L 84.464919 96.783627 L 84.522543 96.434407 L 84.579339 96.086006 L 84.635314 95.738412 L 84.690476 95.391609 L 84.744832 95.045584 L 84.798390 94.700323 L 84.851158 94.355812 L 84.903141 94.012038 L 84.954348 93.668988 L 85.004784 93.326647 L 85.054456 92.985002 L 85.103371 92.644041 L 85.151535 92.303750 L 85.198955 91.964116 L 85.245636 91.625127 L 85.291584 91.286768 L 85.336805 90.949028 L 85.381305 90.611894 L 85.425089 90.275352 L 85.468163 89.939392 L 85.510532 89.603999 L 85.552202 89.269162 L 85.593176 88.934868 L 85.633461 88.601104 L 85.673061 88.267860 L 85.711981 87.935122 L 85.750225 87.602879 L 85.787798 87.271118 L 85.824705 86.939827 L 85.860949 86.608995 L 85.896534 86.278610 L 85.931466 85.948659 L 85.965747 85.619132 L 85.999382 85.290016 L 86.032375 84.961300 L 86.064728 84.632972 L 86.096446 84.305021 L 86.127532 83.977435 L 86.157989 83.650202 L 86.187821 83.323312 L 86.217031 82.996753 L 86.245622 82.670514 L 86.273597 82.344583 L 86.300958 82.018949 L 86.327709 81.693600 L 86.353852 81.368527 L 86.379390 81.043717 L 86.404326 80.719159 L 86.428661 80.394843 L 86.452398 80.070757 L 86.475539 79.746890 L 86.498087 79.423232 L 86.520044 79.099771 L 86.541410 78.776496 L 86.562190 78.453397 L 86.582383 78.130462 L 86.601993 77.807681 L 86.621020 77.485042 L 86.639466 77.162536 L 86.657333 76.840150 L 86.674622 76.517875 L 86.691334 76.195700 L 86.707471 75.873613 L 86.723033 75.551604 L 86.738022 75.229662 L 86.752438 74.907776 L 86.766284 74.585936 L 86.779558 74.264131 L 86.792263 73.942350 L 86.804398 73.620582 L 86.815964 73.298817 L 86.826963 72.977044 L 86.837393 72.655251 L 86.847256 72.333429 L 86.856552 72.011567 L 86.865280 71.689654 L 86.873442 71.367678 L 86.881036 71.045630 L 86.888063 70.723498 L 86.894523 70.401272 L 86.900415 70.078941 L 86.905740 69.756494 L 86.910496 69.433921 L 86.914683 69.111209 L 86.918301 68.788350 L 86.921349 68.465330 L 86.923826 68.142141 L 86.925731 67.818770 L 86.927064 67.495207 L 86.927823 67.171441 L 86.928008 66.847461 L 86.927616 66.523256 L 86.926648 66.198815 L 86.925102 65.874126 L 86.922975 65.549179 L 86.920268 65.223962 L 86.916977 64.898465 L 86.913102 64.572676 L 86.908641 64.246583 L 86.903591 63.920176 L 86.897952 63.593443 L 86.891720 63.266373 L 86.884894 62.938954 L 86.877472 62.611175 L 86.869450 62.283025 L 86.860828 61.954491 L 86.851602 61.625563 L 86.841769 61.296228 L 86.831328 60.966475 L 86.820275 60.636292 L 86.808607 60.305668 L 86.796322 59.974590 L 86.783416 59.643047 L 86.769887 59.311026 L 86.755730 58.978516 L 86.740943 58.645504 L 86.725522 58.311979 L 86.709463 57.977927 L 86.692763 57.643337 L 86.675418 57.308197 L 86.657425 56.972493 L 86.638778 56.636214 L 86.619474 56.299347 L 86.599510 55.961878 L 86.578879 55.623796 L 86.557579 55.285088 L 86.535603 54.945740 L 86.512949 54.605740 L 86.489610 54.265074 L 86.465582 53.923730 L 86.440860 53.581694 L 86.415439 53.238953 L 86.389313 52.895493 L 86.362477 52.551302 L 86.334925 52.206364 L 86.306652 51.860667 L 86.277651 51.514196 L 86.247918 51.166939 L 86.217445 50.818880 L 86.186226 50.470005 L 86.154256 50.120301 L 86.121527 49.769753 L 86.088032 49.418346 L 86.053766 49.066067 L 86.018721 48.712899 L 85.982889 48.358829 L 85.946264 48.003841 L 85.908838 47.647921 L 85.870604 47.291053 L 85.831553 46.933222 L 85.791677 46.574412 L 85.750970 46.214607 L 85.709421 45.853793 L 85.667023 45.491953 L 85.623767 45.129071 L 85.579645 44.765131 L 85.534646 44.400117 L 85.488763 44.034012 L 85.441984 43.666799 L 85.394302 43.298463 L 85.345706 42.928985 L 85.296186 42.558349 L 85.245731 42.186538 L 85.194332 41.813534 L 85.141978 41.439319 L 85.088657 41.063877 L 85.034359 40.687188 L 84.979072 40.309235 L 84.922785 39.930000 L 84.865486 39.549463 L 84.807162 39.167608 L 84.747802 38.784413 L 84.687393 38.399861 L 84.625922 38.013933 L 84.563376 37.626608 L 84.499741 37.237867 L 84.435004 36.847691 L 84.369152 36.456059 L 84.302169 36.062951 L 84.234041 35.668346 L 84.164754 35.272224 L 84.094293 34.874564 L 84.022641 34.475345 L 83.949783 34.074544 L 83.875704 33.672142 L 83.800386 33.268115 L 83.723813 32.862441 L 83.645968 32.455099 L 83.566834 32.046065 L 83.486392 31.635317 L 83.404624 31.222831 L 83.321512 30.808585 L 83.237037 30.392554 L 83.151180 29.974714 L 83.063920 29.555041 L 82.975238 29.133512 L 82.885113 28.710100 L 82.793524 28.284780 L 82.700450 27.857528 L 82.605868 27.428318 L 82.509756 26.997124 L 82.412091 26.563918 L 82.312851 26.128676 L 82.212010 25.691369 L 82.109545 25.251971 L 82.005431 24.810453 L 81.899643 24.366789 L 81.792153 23.920949 L 81.682937 23.472905 L 81.571966 23.022628 L 81.459214 22.570088 L 81.344651 22.115257 L 81.228249 21.658103 L 81.109978 21.198597 L 80.989809 20.736708 L 80.867710 20.272403 L 80.743649 19.805653 L 80.617595 19.336424 L 80.489515 18.864685 L 80.359374 18.390402 L 80.227139 17.913543 L 80.092774 17.434073 L 79.956244 16.951958 L 79.817510 16.467165 L 79.676537 15.979658 L 79.533285 15.489402 L 79.387715 14.996360 L 79.239786 14.500497 L 79.089458 14.001776 L 78.936689 13.500160 L 78.781435 12.995610 L 78.623652 12.488089 L 78.463296 11.977559 L 78.300319 11.463979 L 78.134676 10.947310 L 77.966317 10.427513 L 77.795193 9.904545 L 77.621253 9.378367 L 77.459172 8.893030" fill="none" id="tattoo-path-e115176ba5803d62" stroke="#000000" stroke-linecap="round" stroke-linejoin="round" stroke-width="3.600000"/>
  <path clip-path="url(#tattoo-band-layer-clip)" d="M 109.657882 124.362624 L 109.529108 124.270233 L 109.077670 123.944622 L 108.630350 123.620283 L 108.187081 123.297203 L 107.747798 122.975373 L 107.312436 122.654781 L 106.880933 122.335416 L 106.453228 122.017267 L 106.029259 121.700322 L 105.608968 121.384569 L 105.192296 121.069999 L 104.779188 120.756598 L 104.369587 120.444356 L 103.963438 120.133262 L 103.560687 119.823303 L 103.161283 119.514468 L 102.765173 119.206746 L 102.372306 118.900126 L 101.982634 118.594596 L 101.596106 118.290144 L 101.212676 117.986759 L 100.832296 117.684430 L 100.454919 117.383146 L 100.080501 117.082894 L 99.708997 116.783664 L 99.340364 116.485444 L 98.974558 116.188223 L 98.611537 115.891990 L 98.251261 115.596733 L 97.893688 115.302441 L 97.538778 115.009104 L 97.186492 114.716709 L 96.836792 114.425247 L 96.489640 114.134705 L 96.144998 113.845073 L 95.802830 113.556340 L 95.463101 113.268495 L 95.125774 112.981527 L 94.790816 112.695426 L 94.458192 112.410179 L 94.127868 112.125778 L 93.799812 111.842210 L 93.473991 111.559466 L 93.150374 111.277535 L 92.828928 110.996406 L 92.509624 110.716068 L 92.192430 110.436512 L 91.877318 110.157726 L 91.564257 109.879702 L 91.253220 109.602427 L 90.944177 109.325892 L 90.637101 109.050087 L 90.331964 108.775001 L 90.028739 108.500624 L 89.727400 108.226947 L 89.427920 107.953960 L 89.130274 107.681651 L 88.834436 107.410012 L 88.540382 107.139033 L 88.248087 106.868703 L 87.957526 106.599013 L 87.668676 106.329953 L 87.381514 106.061514 L 87.096016 105.793685 L 86.812160 105.526458 L 86.529922 105.259823 L 86.249282 104.993769 L 85.970218 104.728289 L 85.692707 104.463371 L 85.416730 104.199008 L 85.142264 103.935189 L 84.869291 103.671906 L 84.597789 103.409148 L 84.327738 103.146908 L 84.059120 102.885175 L 83.791915 102.623940 L 83.526104 102.363196 L 83.261667 102.102931 L 82.998587 101.843138 L 82.736846 101.583808 L 82.476425 101.324931 L 82.217307 101.066498 L 81.959474 100.808501 L 81.702909 100.550932 L 81.447595 100.293780 L 81.193516 100.037038 L 80.940654 99.780696 L 80.688994 99.524747 L 80.438519 99.269180 L 80.189214 99.013989 L 79.941063 98.759163 L 79.694050 98.504695 L 79.448161 98.250576 L 79.203379 97.996797 L 78.959692 97.743351 L 78.717083 97.490228 L 78.475538 97.237420 L 78.235043 96.984918 L 77.995584 96.732715 L 77.757148 96.480802 L 77.519720 96.229170 L 77.283286 95.977812 L 77.047834 95.726719 L 76.813350 95.475882 L 76.579822 95.225294 L 76.347235 94.974946 L 76.115579 94.724830 L 75.884839 94.474938 L 75.655004 94.225262 L 75.426061 93.975793 L 75.197998 93.726523 L 74.970803 93.477444 L 74.744465 93.228549 L 74.518972 92.979828 L 74.294311 92.731275 L 74.070472 92.482880 L 73.847444 92.234635 L 73.625215 91.986534 L 73.403774 91.738567 L 73.183110 91.490726 L 72.963213 91.243004 L 72.744071 90.995392 L 72.525675 90.747883 L 72.308014 90.500468 L 72.091077 90.253139 L 71.874855 90.005889 L 71.659337 89.758709 L 71.444513 89.511591 L 71.230373 89.264528 L 71.016908 89.017510 L 70.804108 88.770531 L 70.591963 88.523582 L 70.380465 88.276656 L 70.169603 88.029743 L 69.959368 87.782836 L 69.749751 87.535928 L 69.540743 87.289009 L 69.332335 87.042073 L 69.124519 86.795110 L 68.917284 86.548113 L 68.710623 86.301073 L 68.504528 86.053984 L 68.298988 85.806836 L 68.093996 85.559621 L 67.889544 85.312331 L 67.685623 85.064958 L 67.482226 84.817495 L 67.279342 84.569932 L 67.076966 84.322261 L 66.875088 84.074475 L 66.673701 83.826565 L 66.472797 83.578522 L 66.272368 83.330339 L 66.072406 83.082007 L 65.872904 82.833518 L 65.673854 82.584864 L 65.475249 82.336035 L 65.277080 82.087025 L 65.079342 81.837823 L 64.882026 81.588422 L 64.685125 81.338813 L 64.488632 81.088989 L 64.292539 80.838939 L 64.096841 80.588656 L 63.901528 80.338130 L 63.706596 80.087354 L 63.512036 79.836319 L 63.317842 79.585015 L 63.124007 79.333434 L 62.930524 79.081568 L 62.737387 78.829406 L 62.544588 78.576942 L 62.352122 78.324164 L 62.159982 78.071065 L 61.968160 77.817636 L 61.776651 77.563866 L 61.585449 77.309748 L 61.394546 77.055272 L 61.203937 76.800428 L 61.013615 76.545208 L 60.823574 76.289602 L 60.633808 76.033601 L 60.444311 75.777195 L 60.255076 75.520375 L 60.066097 75.263130 L 59.877369 75.005452 L 59.688885 74.747331 L 59.500640 74.488757 L 59.312627 74.229720 L 59.124841 73.970210 L 58.937275 73.710217 L 58.749925 73.449732 L 58.562783 73.188744 L 58.375846 72.927243 L 58.189105 72.665218 L 58.002557 72.402660 L 57.816195 72.139557 L 57.630014 71.875900 L 57.444008 71.611678 L 57.258172 71.346880 L 57.072500 71.081495 L 56.886987 70.815514 L 56.701627 70.548923 L 56.516415 70.281714 L 56.331345 70.013874 L 56.146412 69.745392 L 55.961610 69.476258 L 55.776936 69.206459 L 55.592382 68.935985 L 55.407944 68.664823 L 55.223617 68.392962 L 55.039395 68.120390 L 54.855273 67.847096 L 54.671247 67.573067 L 54.487310 67.298291 L 54.303459 67.022755 L 54.119687 66.746449 L 53.935990 66.469358 L 53.752363 66.191471 L 53.568800 65.912775 L 53.385297 65.633256 L 53.201849 65.352903 L 53.018451 65.071701 L 52.835098 64.789638 L 52.651785 64.506700 L 52.468508 64.222874 L 52.285261 63.938146 L 52.102039 63.652502 L 51.918838 63.365928 L 51.735654 63.078411 L 51.552480 62.789936 L 51.369314 62.500488 L 51.186149 62.210053 L 51.002981 61.918617 L 50.819806 61.626164 L 50.636619 61.332679 L 50.453416 61.038148 L 50.270191 60.742555 L 50.086940 60.445883 L 49.903659 60.148118 L 49.720343 59.849244 L 49.536988 59.549245 L 49.353589 59.248103 L 49.170142 58.945803 L 48.986642 58.642328 L 48.803085 58.337661 L 48.619467 58.031785 L 48.435783 57.724683 L 48.252028 57.416336 L 48.068200 57.106729 L 47.884292 56.795841 L 47.700302 56.483656 L 47.516224 56.170154 L 47.332056 55.855318 L 47.147791 55.539128 L 46.963427 55.221565 L 46.778959 54.902610 L 46.594383 54.582242 L 46.409696 54.260443 L 46.224892 53.937192 L 46.039968 53.612469 L 45.854921 53.286253 L 45.669745 52.958522 L 45.484438 52.629256 L 45.298995 52.298433 L 45.113413 51.966032 L 44.927687 51.632029 L 44.741815 51.296403 L 44.555791 50.959132 L 44.369614 50.620190 L 44.183278 50.279557 L 43.996780 49.937207 L 43.810118 49.593116 L 43.623286 49.247261 L 43.436282 48.899616 L 43.249103 48.550157 L 43.061745 48.198857 L 42.874204 47.845691 L 42.686478 47.490632 L 42.498562 47.133655 L 42.310455 46.774731 L 42.122153 46.413834 L 41.933652 46.050936 L 41.744950 45.686008 L 41.556044 45.319022 L 41.366931 44.949948 L 41.177608 44.578758 L 40.988073 44.205420 L 40.798323 43.829904 L 40.608354 43.452180 L 40.418165 43.072216 L 40.227754 42.689980 L 40.037117 42.305440 L 39.846253 41.918562 L 39.655160 41.529313 L 39.463835 41.137660 L 39.272276 40.743566 L 39.080482 40.346998 L 38.888450 39.947920 L 38.696180 39.546294 L 38.503669 39.142085 L 38.310916 38.735255 L 38.117919 38.325766 L 37.924678 37.913579 L 37.731192 37.498654 L 37.537458 37.080951 L 37.343478 36.660430 L 37.149249 36.237050 L 36.954772 35.810768 L 36.760045 35.381540 L 36.565070 34.949325 L 36.369845 34.514077 L 36.174371 34.075750 L 35.978648 33.634300 L 35.782677 33.189680 L 35.586459 32.741841 L 35.389994 32.290736 L 35.193283 31.836315 L 34.996328 31.378529 L 34.799130 30.917325 L 34.601691 30.452653 L 34.404013 29.984458 L 34.206098 29.512688 L 34.007950 29.037288 L 33.809570 28.558202 L 33.610962 28.075372 L 33.412129 27.588741 L 33.213074 27.098251 L 33.013803 26.603840 L 32.814319 26.105447 L 32.614627 25.603011 L 32.414731 25.096468 L 32.214639 24.585752 L 32.014354 24.070798 L 31.813884 23.551539 L 31.757174 23.403543" fill="none" id="tattoo-path-2845d69d4fb66c48" stroke="#000000" stroke-linecap="round" stroke-linejoin="round" stroke-width="3.100000"/>
  <path clip-path="url(#tattoo-band-layer-clip)" d="M 104.718320 127.567412 L 104.939860 127.306194 L 105.297777 126.877787 L 105.651609 126.447858 L 106.001370 126.016443 L 106.347072 125.583575 L 106.688728 125.149288 L 107.026350 124.713615 L 107.359952 124.276588 L 107.689547 123.838241 L 108.015148 123.398604 L 108.336768 122.957709 L 108.654421 122.515586 L 108.968120 122.072267 L 109.277879 121.627781 L 109.583711 121.182157 L 109.885630 120.735426 L 110.183650 120.287614 L 110.477785 119.838752 L 110.768047 119.388866 L 111.054452 118.937985 L 111.337013 118.486135 L 111.615743 118.033343 L 111.890657 117.579635 L 112.161769 117.125037 L 112.429092 116.669575 L 112.692641 116.213274 L 112.952429 115.756158 L 113.208470 115.298253 L 113.460779 114.839582 L 113.709368 114.380169 L 113.954253 113.920038 L 114.195446 113.459210 L 114.432962 112.997710 L 114.666814 112.535559 L 114.897016 112.072779 L 115.123583 111.609393 L 115.346527 111.145421 L 115.565862 110.680884 L 115.781602 110.215804 L 115.993760 109.750200 L 116.202350 109.284093 L 116.407386 108.817502 L 116.608880 108.350448 L 116.806847 107.882949 L 117.001299 107.415025 L 117.192249 106.946693 L 117.379711 106.477973 L 117.563698 106.008882 L 117.744222 105.539438 L 117.921298 105.069660 L 118.094936 104.599563 L 118.265151 104.129166 L 118.431955 103.658485 L 118.595360 103.187537 L 118.755380 102.716338 L 118.912025 102.244904 L 119.065310 101.773250 L 119.215246 101.301394 L 119.361844 100.829349 L 119.505118 100.357131 L 119.645080 99.884756 L 119.781740 99.412237 L 119.915111 98.939589 L 120.045204 98.466828 L 120.172032 97.993965 L 120.295605 97.521017 L 120.415935 97.047996 L 120.533033 96.574915 L 120.646910 96.101789 L 120.757577 95.628630 L 120.865046 95.155452 L 120.969327 94.682266 L 121.070430 94.209087 L 121.168367 93.735925 L 121.263147 93.262794 L 121.354782 92.789705 L 121.443281 92.316671 L 121.528655 91.843702 L 121.610913 91.370812 L 121.690066 90.898011 L 121.766123 90.425311 L 121.839094 89.952722 L 121.908989 89.480257 L 121.975817 89.007925 L 122.039587 88.535738 L 122.100308 88.063706 L 122.157990 87.591839 L 122.212642 87.120149 L 122.264272 86.648646 L 122.312889 86.177339 L 122.358502 85.706238 L 122.401119 85.235354 L 122.440748 84.764696 L 122.477399 84.294275 L 122.511078 83.824099 L 122.541794 83.354178 L 122.569555 82.884522 L 122.594368 82.415139 L 122.616242 81.946040 L 122.635183 81.477233 L 122.651199 81.008727 L 122.664297 80.540531 L 122.674484 80.072655 L 122.681768 79.605106 L 122.686155 79.137894 L 122.687652 78.671027 L 122.686266 78.204514 L 122.682002 77.738364 L 122.674868 77.272584 L 122.664870 76.807184 L 122.652013 76.342171 L 122.636305 75.877554 L 122.617750 75.413341 L 122.596354 74.949540 L 122.572124 74.486159 L 122.545065 74.023207 L 122.515181 73.560691 L 122.482479 73.098620 L 122.446963 72.637001 L 122.408638 72.175842 L 122.367510 71.715152 L 122.323583 71.254938 L 122.276862 70.795207 L 122.227351 70.335968 L 122.175055 69.877228 L 122.119978 69.418996 L 122.062125 68.961278 L 122.001498 68.504083 L 121.938103 68.047419 L 121.871942 67.591292 L 121.803021 67.135711 L 121.731342 66.680683 L 121.656908 66.226216 L 121.579724 65.772318 L 121.499792 65.318996 L 121.417115 64.866258 L 121.331696 64.414112 L 121.243539 63.962565 L 121.152646 63.511625 L 121.059020 63.061299 L 120.962663 62.611596 L 120.863577 62.162523 L 120.761766 61.714088 L 120.657230 61.266299 L 120.549973 60.819163 L 120.439995 60.372688 L 120.327300 59.926882 L 120.211888 59.481753 L 120.093762 59.037309 L 119.972922 58.593558 L 119.849371 58.150507 L 119.723109 57.708165 L 119.594138 57.266540 L 119.462459 56.825639 L 119.328072 56.385472 L 119.190980 55.946046 L 119.051181 55.507369 L 118.908678 55.069450 L 118.763470 54.632296 L 118.615558 54.195918 L 118.464943 53.760322 L 118.311624 53.325517 L 118.155602 52.891513 L 117.996876 52.458317 L 117.835448 52.025938 L 117.671316 51.594385 L 117.504480 51.163668 L 117.334941 50.733794 L 117.162697 50.304773 L 116.987747 49.876614 L 116.810093 49.449327 L 116.629731 49.022919 L 116.446663 48.597402 L 116.260886 48.172783 L 116.072400 47.749074 L 115.881204 47.326282 L 115.687297 46.904418 L 115.490676 46.483493 L 115.291342 46.063515 L 115.089292 45.644494 L 114.884525 45.226441 L 114.677039 44.809367 L 114.466833 44.393281 L 114.253904 43.978193 L 114.038252 43.564115 L 113.819873 43.151057 L 113.598766 42.739029 L 113.374929 42.328043 L 113.148360 41.918110 L 112.919056 41.509241 L 112.687016 41.101447 L 112.452236 40.694740 L 112.214714 40.289130 L 111.974448 39.884631 L 111.731435 39.481253 L 111.485672 39.079008 L 111.237157 38.677910 L 110.985887 38.277969 L 110.731859 37.879199 L 110.475070 37.481612 L 110.215518 37.085220 L 109.953198 36.690037 L 109.688108 36.296075 L 109.420246 35.903348 L 109.149607 35.511869 L 108.876188 35.121651 L 108.599987 34.732709 L 108.320999 34.345056 L 108.039222 33.958706 L 107.754652 33.573673 L 107.467286 33.189972 L 107.177119 32.807617 L 106.884149 32.426624 L 106.588372 32.047006 L 106.289785 31.668779 L 105.988383 31.291959 L 105.684163 30.916561 L 105.377122 30.542600 L 105.067255 30.170093 L 104.754560 29.799055 L 104.439031 29.429504 L 104.120666 29.061455 L 103.799461 28.694925 L 103.475412 28.329931 L 103.148515 27.966491 L 102.818766 27.604621 L 102.486162 27.244340 L 102.150698 26.885665 L 101.812371 26.528615 L 101.471178 26.173207 L 101.127114 25.819460 L 100.780175 25.467393 L 100.430359 25.117025 L 100.077660 24.768375 L 99.722076 24.421463 L 99.363603 24.076308 L 99.002237 23.732930 L 98.637975 23.391350 L 98.270812 23.051588 L 97.900746 22.713665 L 97.527772 22.377602 L 97.151888 22.043420 L 96.773090 21.711141 L 96.391375 21.380787 L 96.006739 21.052379 L 95.619179 20.725940 L 95.228693 20.401492 L 94.835276 20.079060 L 94.438926 19.758665 L 94.039640 19.440331 L 93.637415 19.124082 L 93.232248 18.809943 L 92.824138 18.497937 L 92.413080 18.188089 L 91.999073 17.880425 L 91.582114 17.574968 L 91.162201 17.271746 L 90.739333 16.970784 L 90.313506 16.672107 L 89.884719 16.375744 L 89.452971 16.081719 L 89.018259 15.790061 L 88.580583 15.500797 L 88.139940 15.213955 L 87.696331 14.929562 L 87.249753 14.647648 L 86.800206 14.368241 L 86.347690 14.091369 L 85.892204 13.817064 L 85.433747 13.545353 L 84.972320 13.276268 L 84.507923 13.009838 L 84.040556 12.746095 L 83.570219 12.485069 L 83.096914 12.226793 L 82.620641 11.971297 L 82.141402 11.718615 L 81.659199 11.468778 L 81.174032 11.221819 L 80.685904 10.977772 L 80.194817 10.736670 L 79.700773 10.498547 L 79.203777 10.263437 L 78.703830 10.031375 L 78.200935 9.802396 L 77.695098 9.576535 L 77.186322 9.353828 L 76.674610 9.134311 L 76.159968 8.918021 L 75.843236 8.787656" fill="none" id="tattoo-path-5c8badd2d2ed75b7" stroke="#000000" stroke-linecap="round" stroke-linejoin="round" stroke-width="2.500000"/>
  <path clip-path="url(#tattoo-band-layer-clip)" d="M 23.281135 113.094869 L 23.567878 112.765167 L 23.932202 112.347349 L 24.294288 111.933167 L 24.654167 111.522561 L 25.011871 111.115472 L 25.367431 110.711840 L 25.720879 110.311608 L 26.072244 109.914720 L 26.421556 109.521120 L 26.768845 109.130756 L 27.114139 108.743574 L 27.457467 108.359521 L 27.798857 107.978548 L 28.138337 107.600605 L 28.475935 107.225642 L 28.811676 106.853612 L 29.145587 106.484469 L 29.477694 106.118165 L 29.808024 105.754655 L 30.136601 105.393897 L 30.463450 105.035845 L 30.788596 104.680458 L 31.112064 104.327693 L 31.433876 103.977510 L 31.754057 103.629868 L 32.072630 103.284729 L 32.389617 102.942052 L 32.705042 102.601800 L 33.018926 102.263936 L 33.331292 101.928422 L 33.642162 101.595224 L 33.951555 101.264304 L 34.259495 100.935630 L 34.566001 100.609166 L 34.871094 100.284878 L 35.174795 99.962735 L 35.477123 99.642704 L 35.778097 99.324752 L 36.077739 99.008848 L 36.376066 98.694962 L 36.673098 98.383064 L 36.968853 98.073124 L 37.263350 97.765112 L 37.556607 97.459000 L 37.848643 97.154760 L 38.139474 96.852363 L 38.429120 96.551784 L 38.717596 96.252993 L 39.004920 95.955967 L 39.291109 95.660677 L 39.576181 95.367099 L 39.860150 95.075208 L 40.143034 94.784979 L 40.424850 94.496387 L 40.705612 94.209408 L 40.985336 93.924020 L 41.264039 93.640198 L 41.541736 93.357919 L 41.818442 93.077162 L 42.094171 92.797904 L 42.368940 92.520123 L 42.642762 92.243798 L 42.915652 91.968907 L 43.187625 91.695430 L 43.458695 91.423346 L 43.728876 91.152634 L 43.998182 90.883276 L 44.266627 90.615250 L 44.534225 90.348538 L 44.800989 90.083121 L 45.066932 89.818980 L 45.332067 89.556096 L 45.596409 89.294451 L 45.859970 89.034026 L 46.122762 88.774805 L 46.384799 88.516769 L 46.646093 88.259902 L 46.906657 88.004185 L 47.166502 87.749603 L 47.425643 87.496139 L 47.684089 87.243776 L 47.941854 86.992498 L 48.198950 86.742289 L 48.455388 86.493134 L 48.711180 86.245017 L 48.966338 85.997922 L 49.220873 85.751835 L 49.474796 85.506740 L 49.728120 85.262622 L 49.980855 85.019468 L 50.233012 84.777263 L 50.484603 84.535992 L 50.735639 84.295641 L 50.986130 84.056197 L 51.236087 83.817646 L 51.485521 83.579975 L 51.734443 83.343169 L 51.982862 83.107216 L 52.230791 82.872103 L 52.478239 82.637816 L 52.725216 82.404343 L 52.971733 82.171672 L 53.217800 81.939790 L 53.463427 81.708684 L 53.708624 81.478342 L 53.953402 81.248753 L 54.197769 81.019904 L 54.441737 80.791784 L 54.685315 80.564380 L 54.928512 80.337682 L 55.171339 80.111678 L 55.413805 79.886356 L 55.655920 79.661705 L 55.897693 79.437715 L 56.139134 79.214374 L 56.380252 78.991671 L 56.621057 78.769596 L 56.861558 78.548138 L 57.101764 78.327286 L 57.341686 78.107031 L 57.581331 77.887360 L 57.820709 77.668266 L 58.059830 77.449736 L 58.298702 77.231762 L 58.537335 77.014332 L 58.775737 76.797438 L 59.013918 76.581070 L 59.251887 76.365217 L 59.489653 76.149870 L 59.727224 75.935020 L 59.964610 75.720657 L 60.201819 75.506771 L 60.438860 75.293354 L 60.675743 75.080396 L 60.912475 74.867888 L 61.149067 74.655820 L 61.385526 74.444185 L 61.621861 74.232972 L 61.858081 74.022173 L 62.094195 73.811779 L 62.330212 73.601782 L 62.566140 73.392172 L 62.801987 73.182941 L 63.037764 72.974080 L 63.273477 72.765581 L 63.509137 72.557436 L 63.744751 72.349635 L 63.980328 72.142171 L 64.215877 71.935035 L 64.451407 71.728219 L 64.686926 71.521714 L 64.922442 71.315514 L 65.157965 71.109608 L 65.393504 70.903990 L 65.629065 70.698651 L 65.864660 70.493583 L 66.100295 70.288779 L 66.335980 70.084230 L 66.571723 69.879929 L 66.807534 69.675867 L 67.043420 69.472037 L 67.279390 69.268431 L 67.515454 69.065042 L 67.751620 68.861861 L 67.987896 68.658881 L 68.224292 68.456094 L 68.460815 68.253493 L 68.697476 68.051071 L 68.934282 67.848818 L 69.171244 67.646729 L 69.408368 67.444796 L 69.645665 67.243010 L 69.883143 67.041365 L 70.120812 66.839853 L 70.358680 66.638467 L 70.596755 66.437199 L 70.835049 66.236042 L 71.073568 66.034988 L 71.312323 65.834031 L 71.551322 65.633162 L 71.790575 65.432376 L 72.030091 65.231663 L 72.269879 65.031017 L 72.509949 64.830431 L 72.750309 64.629897 L 72.990970 64.429409 L 73.231940 64.228958 L 73.473229 64.028537 L 73.714846 63.828141 L 73.956802 63.627760 L 74.199106 63.427388 L 74.441767 63.227017 L 74.684795 63.026641 L 74.928200 62.826252 L 75.171992 62.625843 L 75.416180 62.425407 L 75.660776 62.224936 L 75.905787 62.024423 L 76.151226 61.823861 L 76.397102 61.623243 L 76.643424 61.422561 L 76.890204 61.221808 L 77.137452 61.020977 L 77.385178 60.820061 L 77.633393 60.619052 L 77.882107 60.417943 L 78.131331 60.216727 L 78.381076 60.015396 L 78.631353 59.813943 L 78.882172 59.612360 L 79.133544 59.410641 L 79.385481 59.208778 L 79.637994 59.006763 L 79.891094 58.804589 L 80.144792 58.602248 L 80.399100 58.399734 L 80.654030 58.197038 L 80.909592 57.994153 L 81.165800 57.791072 L 81.422665 57.587786 L 81.680198 57.384289 L 81.938412 57.180572 L 82.197319 56.976628 L 82.456931 56.772450 L 82.717261 56.568029 L 82.978322 56.363358 L 83.240126 56.158429 L 83.502686 55.953234 L 83.766014 55.747766 L 84.030124 55.542016 L 84.295030 55.335976 L 84.560744 55.129639 L 84.827280 54.922997 L 85.094651 54.716040 L 85.362872 54.508762 L 85.631956 54.301155 L 85.901918 54.093209 L 86.172770 53.884917 L 86.444529 53.676270 L 86.717209 53.467261 L 86.990823 53.257880 L 87.265388 53.048120 L 87.540917 52.837971 L 87.817427 52.627426 L 88.094933 52.416475 L 88.373450 52.205110 L 88.652994 51.993322 L 88.933581 51.781103 L 89.215228 51.568443 L 89.497950 51.355334 L 89.781764 51.141767 L 90.066686 50.927733 L 90.352735 50.713222 L 90.639927 50.498225 L 90.928279 50.282734 L 91.217809 50.066738 L 91.508535 49.850229 L 91.800474 49.633197 L 92.093647 49.415632 L 92.388070 49.197526 L 92.683762 48.978867 L 92.980743 48.759647 L 93.279033 48.539855 L 93.578650 48.319481 L 93.879614 48.098517 L 94.181946 47.876950 L 94.485666 47.654772 L 94.790795 47.431971 L 95.097354 47.208538 L 95.405363 46.984462 L 95.714845 46.759733 L 96.025821 46.534339 L 96.338314 46.308269 L 96.652347 46.081514 L 96.967941 45.854062 L 97.285120 45.625902 L 97.603909 45.397022 L 97.924330 45.167412 L 98.246408 44.937060 L 98.570168 44.705954 L 98.895634 44.474082 L 99.222832 44.241434 L 99.551788 44.007997 L 99.882528 43.773758 L 100.215078 43.538706 L 100.549467 43.302829 L 100.885720 43.066113 L 101.223865 42.828547 L 101.563932 42.590118 L 101.905949 42.350813 L 102.249945 42.110619 L 102.595950 41.869523 L 102.943994 41.627511 L 103.294108 41.384570 L 103.646323 41.140687 L 104.000671 40.895848 L 104.357183 40.650039 L 104.715893 40.403245 L 105.076835 40.155454 L 105.440041 39.906650 L 105.805547 39.656819 L 106.173388 39.405946 L 106.543599 39.154016 L 106.916217 38.901015 L 107.291278 38.646926 L 107.668821 38.391735 L 108.048884 38.135426 L 108.431505 37.877984 L 108.816724 37.619391 L 109.204582 37.359632 L 109.595120 37.098691 L 109.988380 36.836552 L 110.384404 36.573196 L 110.783236 36.308607 L 111.184920 36.042769 L 111.589501 35.775663 L 111.997025 35.507272 L 112.407539 35.237578 L 112.821091 34.966563 L 113.237729 34.694209 L 113.657502 34.420497 L 114.080462 34.145408 L 114.506659 33.868922 L 114.936146 33.591022 L 115.368977 33.311687 L 115.805206 33.030898 L 116.244888 32.748633 L 116.688081 32.464874 L 117.134843 32.179600 L 117.585231 31.892788 L 118.039308 31.604419 L 118.497133 31.314471 L 118.958771 31.022922 L 119.424284 30.729751 L 119.893739 30.434934 L 120.264070 30.203031" fill="none" id="tattoo-path-8c54b0c9a4b64f92" stroke="#000000" stroke-linecap="round" stroke-linejoin="round" stroke-width="2.200000"/>
  <path clip-path="url(#tattoo-band-layer-clip)" d="M 9.306225 81.274215 L 9.596790 80.929054 L 9.956840 80.505872 L 10.317011 80.086989 L 10.677284 79.672353 L 11.037638 79.261913 L 11.398055 78.855618 L 11.758516 78.453419 L 12.119004 78.055267 L 12.479501 77.661112 L 12.839992 77.270908 L 13.200461 76.884608 L 13.560893 76.502164 L 13.921273 76.123532 L 14.281588 75.748665 L 14.641825 75.377521 L 15.001971 75.010054 L 15.362014 74.646221 L 15.721943 74.285981 L 16.081746 73.929290 L 16.441412 73.576108 L 16.800933 73.226393 L 17.160298 72.880105 L 17.519498 72.537205 L 17.878525 72.197654 L 18.237370 71.861412 L 18.596025 71.528442 L 18.954484 71.198706 L 19.312739 70.872167 L 19.670783 70.548789 L 20.028610 70.228537 L 20.386215 69.911373 L 20.743591 69.597265 L 21.100734 69.286177 L 21.457638 68.978075 L 21.814300 68.672927 L 22.170715 68.370698 L 22.526879 68.071358 L 22.882788 67.774873 L 23.238439 67.481212 L 23.593829 67.190345 L 23.948956 66.902240 L 24.303816 66.616868 L 24.658408 66.334199 L 25.012729 66.054203 L 25.366778 65.776852 L 25.720552 65.502118 L 26.074052 65.229971 L 26.427276 64.960386 L 26.780222 64.693334 L 27.132890 64.428789 L 27.485281 64.166724 L 27.837392 63.907114 L 28.189226 63.649933 L 28.540781 63.395155 L 28.892057 63.142755 L 29.243056 62.892711 L 29.593778 62.644996 L 29.944224 62.399587 L 30.294395 62.156462 L 30.644292 61.915596 L 30.993916 61.676967 L 31.343268 61.440553 L 31.692351 61.206332 L 32.041166 60.974282 L 32.389715 60.744381 L 32.738000 60.516609 L 33.086023 60.290945 L 33.433786 60.067368 L 33.781292 59.845858 L 34.128543 59.626396 L 34.475542 59.408962 L 34.822292 59.193536 L 35.168794 58.980100 L 35.515054 58.768635 L 35.861072 58.559123 L 36.206853 58.351545 L 36.552400 58.145885 L 36.897717 57.942123 L 37.242805 57.740244 L 37.587670 57.540230 L 37.932315 57.342064 L 38.276743 57.145731 L 38.620959 56.951213 L 38.964965 56.758495 L 39.308767 56.567561 L 39.652368 56.378395 L 39.995773 56.190983 L 40.338984 56.005310 L 40.682008 55.821361 L 41.024848 55.639121 L 41.367508 55.458576 L 41.709993 55.279712 L 42.052308 55.102515 L 42.394456 54.926972 L 42.736444 54.753070 L 43.078275 54.580795 L 43.419954 54.410134 L 43.761487 54.241075 L 44.102877 54.073606 L 44.444131 53.907713 L 44.785252 53.743385 L 45.126247 53.580610 L 45.467120 53.419377 L 45.807876 53.259673 L 46.148521 53.101489 L 46.489059 52.944812 L 46.829497 52.789632 L 47.169839 52.635938 L 47.510092 52.483720 L 47.850260 52.332967 L 48.190348 52.183670 L 48.530364 52.035818 L 48.870311 51.889402 L 49.210196 51.744412 L 49.550025 51.600838 L 49.889802 51.458673 L 50.229535 51.317906 L 50.569228 51.178528 L 50.908888 51.040532 L 51.248520 50.903909 L 51.588131 50.768649 L 51.927726 50.634746 L 52.267311 50.502191 L 52.606892 50.370977 L 52.946476 50.241095 L 53.286069 50.112538 L 53.625676 49.985299 L 53.965303 49.859371 L 54.304958 49.734746 L 54.644646 49.611418 L 54.984374 49.489381 L 55.324147 49.368627 L 55.663973 49.249150 L 56.003857 49.130944 L 56.343807 49.014003 L 56.683827 48.898321 L 57.023926 48.783892 L 57.364109 48.670711 L 57.704383 48.558772 L 58.044755 48.448069 L 58.385231 48.338598 L 58.725817 48.230354 L 59.066521 48.123331 L 59.407350 48.017525 L 59.748309 47.912931 L 60.089406 47.809545 L 60.430647 47.707363 L 60.772039 47.606380 L 61.113590 47.506592 L 61.455306 47.407996 L 61.797194 47.310587 L 62.139261 47.214362 L 62.481514 47.119318 L 62.823959 47.025451 L 63.166605 46.932759 L 63.509458 46.841237 L 63.852525 46.750883 L 64.195813 46.661694 L 64.539330 46.573669 L 64.883082 46.486803 L 65.227078 46.401095 L 65.571324 46.316543 L 65.915827 46.233144 L 66.260595 46.150896 L 66.605636 46.069799 L 66.950956 45.989849 L 67.296563 45.911046 L 67.642465 45.833388 L 67.988668 45.756873 L 68.335182 45.681502 L 68.682012 45.607272 L 69.029167 45.534183 L 69.376655 45.462234 L 69.724482 45.391424 L 70.072658 45.321753 L 70.421189 45.253222 L 70.770083 45.185828 L 71.119348 45.119574 L 71.468992 45.054458 L 71.819022 44.990481 L 72.169448 44.927643 L 72.520276 44.865945 L 72.871514 44.805388 L 73.223171 44.745971 L 73.575255 44.687697 L 73.927773 44.630567 L 74.280735 44.574581 L 74.634147 44.519741 L 74.988018 44.466048 L 75.342357 44.413505 L 75.697172 44.362112 L 76.052470 44.311873 L 76.408261 44.262788 L 76.764553 44.214861 L 77.121353 44.168094 L 77.478672 44.122488 L 77.836516 44.078048 L 78.194895 44.034776 L 78.553817 43.992674 L 78.913292 43.951747 L 79.273326 43.911997 L 79.633930 43.873427 L 79.995112 43.836042 L 80.356880 43.799846 L 80.719244 43.764842 L 81.082212 43.731034 L 81.445793 43.698426 L 81.809997 43.667024 L 82.174832 43.636831 L 82.540307 43.607853 L 82.906431 43.580095 L 83.273214 43.553561 L 83.640664 43.528256 L 84.008791 43.504188 L 84.377604 43.481360 L 84.747112 43.459778 L 85.117324 43.439450 L 85.488251 43.420381 L 85.859901 43.402577 L 86.232283 43.386045 L 86.605408 43.370791 L 86.979284 43.356823 L 87.353922 43.344148 L 87.729331 43.332773 L 88.105521 43.322705 L 88.482501 43.313953 L 88.860281 43.306523 L 89.238870 43.300425 L 89.618280 43.295667 L 89.998520 43.292256 L 90.379598 43.290203 L 90.761527 43.289515 L 91.144315 43.290202 L 91.527973 43.292273 L 91.912510 43.295738 L 92.297937 43.300607 L 92.684265 43.306890 L 93.071503 43.314597 L 93.459661 43.323739 L 93.848750 43.334325 L 94.238781 43.346369 L 94.629763 43.359879 L 95.021708 43.374869 L 95.414625 43.391350 L 95.808525 43.409333 L 96.203419 43.428832 L 96.599318 43.449858 L 96.996231 43.472425 L 97.394171 43.496544 L 97.793147 43.522231 L 98.193170 43.549498 L 98.594251 43.578359 L 98.996401 43.608828 L 99.399631 43.640920 L 99.803951 43.674649 L 100.209374 43.710031 L 100.615909 43.747081 L 101.023568 43.785814 L 101.432361 43.826247 L 101.842301 43.868395 L 102.253397 43.912276 L 102.665662 43.957906 L 103.079106 44.005302 L 103.493741 44.054483 L 103.909577 44.105466 L 104.326627 44.158268 L 104.744901 44.212910 L 105.164410 44.269410 L 105.585167 44.327787 L 106.007182 44.388060 L 106.430467 44.450251 L 106.855033 44.514380 L 107.280891 44.580467 L 107.708053 44.648534 L 108.136531 44.718602 L 108.566335 44.790693 L 108.997477 44.864831 L 109.429970 44.941037 L 109.863823 45.019336 L 110.299048 45.099751 L 110.735658 45.182305 L 111.173662 45.267025 L 111.613074 45.353935 L 112.053903 45.443061 L 112.496162 45.534428 L 112.939862 45.628064 L 113.385014 45.723995 L 113.831629 45.822249 L 114.279719 45.922855 L 114.729295 46.025839 L 115.180368 46.131233 L 115.632949 46.239064 L 116.087050 46.349365 L 116.542681 46.462164 L 116.999853 46.577495 L 117.458578 46.695387 L 117.918865 46.815875 L 118.380727 46.938990 L 118.844173 47.064767 L 119.309214 47.193241 L 119.775861 47.324444 L 120.244124 47.458415 L 120.714014 47.595187 L 121.185540 47.734799 L 121.658713 47.877288 L 122.133542 48.022692 L 122.610038 48.171050 L 123.088210 48.322401 L 123.568067 48.476786 L 124.049620 48.634246 L 124.532876 48.794822 L 125.017846 48.958557 L 125.504538 49.125495 L 125.992960 49.295679 L 126.483121 49.469155 L 126.975030 49.645967 L 127.468693 49.826163 L 127.964119 50.009790 L 128.461316 50.196896 L 128.960290 50.387529 L 129.461048 50.581741 L 129.963597 50.779581 L 130.467943 50.981102 L 130.974092 51.186357 L 131.482050 51.395397 L 131.991822 51.608280 L 132.503413 51.825059 L 132.917910 52.003264" fill="none" id="tattoo-path-ed451d90866ea173" stroke="#000000" stroke-linecap="round" stroke-linejoin="round" stroke-width="1.900000"/>
  <path clip-path="url(#tattoo-band-layer-clip)" d="M 123.871264 110.334286 L 123.702712 110.390210 L 123.172191 110.562469 L 122.642975 110.730587 L 122.115073 110.894611 L 121.588495 111.054585 L 121.063250 111.210556 L 120.539346 111.362569 L 120.016792 111.510667 L 119.495595 111.654894 L 118.975763 111.795294 L 118.457302 111.931909 L 117.940217 112.064781 L 117.424515 112.193951 L 116.910201 112.319460 L 116.397279 112.441348 L 115.885755 112.559656 L 115.375631 112.674422 L 114.866912 112.785684 L 114.359601 112.893481 L 113.853700 112.997851 L 113.349212 113.098830 L 112.846139 113.196454 L 112.344484 113.290761 L 111.844246 113.381785 L 111.345429 113.469561 L 110.848031 113.554123 L 110.352055 113.635506 L 109.857500 113.713743 L 109.364366 113.788867 L 108.872653 113.860910 L 108.382361 113.929905 L 107.893489 113.995882 L 107.406035 114.058873 L 106.919999 114.118909 L 106.435379 114.176019 L 105.952173 114.230234 L 105.470379 114.281581 L 104.989997 114.330091 L 104.511022 114.375792 L 104.033453 114.418710 L 103.557287 114.458875 L 103.082521 114.496312 L 102.609153 114.531049 L 102.137179 114.563111 L 101.666596 114.592525 L 101.197400 114.619315 L 100.729588 114.643507 L 100.263156 114.665126 L 99.798100 114.684195 L 99.334417 114.700738 L 98.872102 114.714779 L 98.411150 114.726340 L 97.951559 114.735445 L 97.493323 114.742116 L 97.036437 114.746373 L 96.580898 114.748240 L 96.126699 114.747738 L 95.673838 114.744886 L 95.222308 114.739706 L 94.772105 114.732217 L 94.323223 114.722440 L 93.875658 114.710394 L 93.429404 114.696098 L 92.984456 114.679571 L 92.540809 114.660831 L 92.098458 114.639897 L 91.657396 114.616786 L 91.217619 114.591515 L 90.779121 114.564103 L 90.341896 114.534566 L 89.905938 114.502920 L 89.471243 114.469181 L 89.037804 114.433367 L 88.605616 114.395492 L 88.174673 114.355572 L 87.744969 114.313621 L 87.316498 114.269656 L 86.889255 114.223689 L 86.463233 114.175737 L 86.038427 114.125812 L 85.614831 114.073928 L 85.192438 114.020099 L 84.771244 113.964338 L 84.351242 113.906658 L 83.932426 113.847071 L 83.514790 113.785590 L 83.098329 113.722228 L 82.683035 113.656995 L 82.268905 113.589904 L 81.855930 113.520966 L 81.444106 113.450193 L 81.033427 113.377595 L 80.623886 113.303182 L 80.215478 113.226966 L 79.808197 113.148957 L 79.402037 113.069164 L 78.996991 112.987597 L 78.593055 112.904267 L 78.190222 112.819181 L 77.788487 112.732350 L 77.387843 112.643782 L 76.988285 112.553486 L 76.589808 112.461470 L 76.192404 112.367742 L 75.796069 112.272311 L 75.400797 112.175185 L 75.006583 112.076370 L 74.613419 111.975875 L 74.221302 111.873706 L 73.830225 111.769871 L 73.440183 111.664376 L 73.051171 111.557228 L 72.663182 111.448434 L 72.276211 111.337999 L 71.890253 111.225930 L 71.505303 111.112232 L 71.121355 110.996912 L 70.738404 110.879974 L 70.356445 110.761424 L 69.975472 110.641267 L 69.595480 110.519507 L 69.216464 110.396151 L 68.838419 110.271201 L 68.461340 110.144663 L 68.085222 110.016541 L 67.710060 109.886839 L 67.335849 109.755560 L 66.962584 109.622709 L 66.590260 109.488289 L 66.218873 109.352302 L 65.848417 109.214753 L 65.478889 109.075645 L 65.110283 108.934980 L 64.742595 108.792760 L 64.375821 108.648989 L 64.009955 108.503669 L 63.644994 108.356802 L 63.280934 108.208390 L 62.917769 108.058434 L 62.555496 107.906938 L 62.194110 107.753901 L 61.833608 107.599326 L 61.473985 107.443214 L 61.115237 107.285566 L 60.757361 107.126382 L 60.400352 106.965665 L 60.044207 106.803413 L 59.688922 106.639628 L 59.334493 106.474311 L 58.980916 106.307460 L 58.628189 106.139077 L 58.276307 105.969161 L 57.925268 105.797712 L 57.575067 105.624730 L 57.225702 105.450213 L 56.877169 105.274162 L 56.529465 105.096576 L 56.182588 104.917452 L 55.836533 104.736791 L 55.491299 104.554591 L 55.146882 104.370851 L 54.803280 104.185568 L 54.460490 103.998742 L 54.118509 103.810371 L 53.777334 103.620452 L 53.436964 103.428983 L 53.097396 103.235963 L 52.758627 103.041388 L 52.420656 102.845257 L 52.083480 102.647566 L 51.747097 102.448312 L 51.411506 102.247494 L 51.076704 102.045106 L 50.742689 101.841148 L 50.409460 101.635614 L 50.077016 101.428502 L 49.745354 101.219807 L 49.414474 101.009527 L 49.084373 100.797656 L 48.755052 100.584192 L 48.426508 100.369130 L 48.098740 100.152465 L 47.771748 99.934193 L 47.445531 99.714309 L 47.120088 99.492809 L 46.795418 99.269688 L 46.471520 99.044941 L 46.148395 98.818563 L 45.826043 98.590547 L 45.504461 98.360890 L 45.183652 98.129585 L 44.863614 97.896627 L 44.544347 97.662010 L 44.225853 97.425727 L 43.908131 97.187774 L 43.591181 96.948142 L 43.275005 96.706827 L 42.959603 96.463822 L 42.644975 96.219120 L 42.331123 95.972714 L 42.018047 95.724597 L 41.705749 95.474763 L 41.394230 95.223203 L 41.083492 94.969912 L 40.773536 94.714881 L 40.464363 94.458102 L 40.155976 94.199569 L 39.848377 93.939272 L 39.541567 93.677205 L 39.235549 93.413359 L 38.930325 93.147725 L 38.625898 92.880296 L 38.322270 92.611062 L 38.019445 92.340015 L 37.717424 92.067147 L 37.416212 91.792448 L 37.115811 91.515909 L 36.816226 91.237521 L 36.517459 90.957274 L 36.219514 90.675160 L 35.922396 90.391167 L 35.626108 90.105288 L 35.330654 89.817510 L 35.036040 89.527826 L 34.742269 89.236224 L 34.449347 88.942694 L 34.157278 88.647225 L 33.866067 88.349807 L 33.575721 88.050429 L 33.286244 87.749081 L 32.997642 87.445751 L 32.709922 87.140427 L 32.423088 86.833100 L 32.137148 86.523756 L 31.852108 86.212386 L 31.567975 85.898976 L 31.284756 85.583515 L 31.002457 85.265991 L 30.721087 84.946392 L 30.440652 84.624705 L 30.161162 84.300919 L 29.882623 83.975020 L 29.605044 83.646996 L 29.328434 83.316833 L 29.052801 82.984520 L 28.778155 82.650043 L 28.504504 82.313388 L 28.231859 81.974543 L 27.960228 81.633493 L 27.689623 81.290225 L 27.420053 80.944725 L 27.151529 80.596979 L 26.884061 80.246974 L 26.617662 79.894694 L 26.352342 79.540126 L 26.088113 79.183255 L 25.824987 78.824067 L 25.562977 78.462546 L 25.302094 78.098678 L 25.042352 77.732448 L 24.783765 77.363840 L 24.526345 76.992840 L 24.270107 76.619431 L 24.015065 76.243599 L 23.761233 75.865328 L 23.508627 75.484602 L 23.257261 75.101405 L 23.007151 74.715720 L 22.758313 74.327533 L 22.510764 73.936826 L 22.264520 73.543584 L 22.019598 73.147789 L 21.776015 72.749425 L 21.533791 72.348475 L 21.292942 71.944923 L 21.053487 71.538752 L 20.815446 71.129944 L 20.578838 70.718482 L 20.343683 70.304349 L 20.110002 69.887527 L 19.877814 69.468000 L 19.647142 69.045749 L 19.418007 68.620757 L 19.190432 68.193007 L 18.964438 67.762479 L 18.740049 67.329157 L 18.517289 66.893022 L 18.296182 66.454057 L 18.076753 66.012243 L 17.859025 65.567561 L 17.643026 65.119994 L 17.428782 64.669524 L 17.216318 64.216131 L 17.005663 63.759797 L 16.796845 63.300505 L 16.589891 62.838235 L 16.384830 62.372968 L 16.181693 61.904687 L 15.980509 61.433372 L 15.781310 60.959005 L 15.584126 60.481566 L 15.388989 60.001039 L 15.195933 59.517403 L 15.004991 59.030640 L 14.816196 58.540731 L 14.629583 58.047658 L 14.445188 57.551402 L 14.263046 57.051945 L 14.083195 56.549267 L 13.905671 56.043351 L 13.730513 55.534177 L 13.557760 55.021728 L 13.387451 54.505986 L 13.219627 53.986931 L 13.054329 53.464546 L 12.891598 52.938813 L 12.731478 52.409714 L 12.574013 51.877231 L 12.419246 51.341346 L 12.371064 51.170420" fill="none" id="tattoo-path-7f9ed089db56c95c" stroke="#000000" stroke-linecap="round" stroke-linejoin="round" stroke-width="1.600000"/>
  <path clip-path="url(#tattoo-band-layer-clip)" d="M 130.022593 100.096943 L 129.672288 100.017182 L 129.131354 99.893029 L 128.594701 99.768887 L 128.062261 99.644761 L 127.533968 99.520657 L 127.009756 99.396581 L 126.489560 99.272537 L 125.973317 99.148531 L 125.460964 99.024567 L 124.952442 98.900649 L 124.447689 98.776781 L 123.946648 98.652968 L 123.449260 98.529212 L 122.955470 98.405518 L 122.465221 98.281888 L 121.978459 98.158325 L 121.495131 98.034832 L 121.015184 97.911411 L 120.538566 97.788065 L 120.065226 97.664796 L 119.595116 97.541606 L 119.128185 97.418496 L 118.664387 97.295469 L 118.203672 97.172526 L 117.745996 97.049668 L 117.291313 96.926896 L 116.839577 96.804212 L 116.390744 96.681616 L 115.944772 96.559109 L 115.501618 96.436692 L 115.061239 96.314365 L 114.623595 96.192129 L 114.188646 96.069984 L 113.756350 95.947931 L 113.326669 95.825968 L 112.899565 95.704097 L 112.475000 95.582318 L 112.052936 95.460629 L 111.633337 95.339031 L 111.216166 95.217524 L 110.801388 95.096107 L 110.388968 94.974778 L 109.978872 94.853539 L 109.571065 94.732388 L 109.165515 94.611324 L 108.762188 94.490346 L 108.361052 94.369454 L 107.962076 94.248646 L 107.565227 94.127922 L 107.170476 94.007280 L 106.777791 93.886719 L 106.387142 93.766239 L 105.998501 93.645836 L 105.611838 93.525511 L 105.227124 93.405262 L 104.844331 93.285088 L 104.463431 93.164986 L 104.084397 93.044955 L 103.707202 92.924994 L 103.331819 92.805101 L 102.958222 92.685275 L 102.586384 92.565513 L 102.216281 92.445814 L 101.847887 92.326176 L 101.481177 92.206597 L 101.116126 92.087075 L 100.752711 91.967609 L 100.390908 91.848196 L 100.030693 91.728834 L 99.672043 91.609521 L 99.314934 91.490256 L 98.959345 91.371035 L 98.605253 91.251858 L 98.252636 91.132721 L 97.901473 91.013622 L 97.551740 90.894560 L 97.203419 90.775532 L 96.856487 90.656535 L 96.510924 90.537568 L 96.166709 90.418627 L 95.823823 90.299712 L 95.482245 90.180818 L 95.141956 90.061944 L 94.802936 89.943087 L 94.465166 89.824245 L 94.128627 89.705415 L 93.793300 89.586595 L 93.459167 89.467782 L 93.126210 89.348973 L 92.794410 89.230166 L 92.463749 89.111359 L 92.134210 88.992548 L 91.805775 88.873731 L 91.478426 88.754906 L 91.152148 88.636068 L 90.826922 88.517217 L 90.502732 88.398349 L 90.179561 88.279460 L 89.857394 88.160549 L 89.536213 88.041613 L 89.216002 87.922648 L 88.896746 87.803652 L 88.578429 87.684622 L 88.261036 87.565555 L 87.944550 87.446448 L 87.628957 87.327298 L 87.314241 87.208102 L 87.000388 87.088857 L 86.687382 86.969560 L 86.375210 86.850209 L 86.063855 86.730799 L 85.753305 86.611328 L 85.443543 86.491792 L 85.134558 86.372190 L 84.826333 86.252517 L 84.518856 86.132770 L 84.212112 86.012946 L 83.906088 85.893042 L 83.600771 85.773055 L 83.296146 85.652981 L 82.992200 85.532818 L 82.688921 85.412561 L 82.386294 85.292207 L 82.084307 85.171754 L 81.782948 85.051198 L 81.482202 84.930535 L 81.182058 84.809762 L 80.882502 84.688875 L 80.583522 84.567872 L 80.285106 84.446748 L 79.987241 84.325500 L 79.689915 84.204125 L 79.393116 84.082619 L 79.096831 83.960979 L 78.801049 83.839200 L 78.505756 83.717279 L 78.210943 83.595213 L 77.916596 83.472998 L 77.622704 83.350630 L 77.329255 83.228105 L 77.036237 83.105420 L 76.743640 82.982571 L 76.451451 82.859554 L 76.159658 82.736365 L 75.868252 82.613001 L 75.577219 82.489457 L 75.286550 82.365729 L 74.996232 82.241814 L 74.706255 82.117708 L 74.416607 81.993406 L 74.127277 81.868905 L 73.838255 81.744200 L 73.549529 81.619287 L 73.261088 81.494163 L 72.972922 81.368822 L 72.685019 81.243261 L 72.397369 81.117476 L 72.109961 80.991462 L 71.822785 80.865215 L 71.535829 80.738731 L 71.249083 80.612005 L 70.962536 80.485032 L 70.676177 80.357809 L 70.389997 80.230331 L 70.103984 80.102593 L 69.818128 79.974591 L 69.532418 79.846319 L 69.246845 79.717774 L 68.961396 79.588951 L 68.676063 79.459845 L 68.390834 79.330451 L 68.105699 79.200765 L 67.820648 79.070781 L 67.535671 78.940495 L 67.250756 78.809901 L 66.965893 78.678995 L 66.681073 78.547772 L 66.396285 78.416226 L 66.111518 78.284352 L 65.826762 78.152146 L 65.542007 78.019602 L 65.257243 77.886714 L 64.972458 77.753477 L 64.687644 77.619887 L 64.402788 77.485937 L 64.117882 77.351622 L 63.832914 77.216936 L 63.547875 77.081874 L 63.262753 76.946430 L 62.977539 76.810598 L 62.692222 76.674373 L 62.406792 76.537749 L 62.121238 76.400719 L 61.835549 76.263279 L 61.549717 76.125421 L 61.263729 75.987140 L 60.977575 75.848429 L 60.691245 75.709283 L 60.404728 75.569694 L 60.118014 75.429658 L 59.831093 75.289166 L 59.543952 75.148213 L 59.256582 75.006792 L 58.968973 74.864897 L 58.681113 74.722520 L 58.392991 74.579655 L 58.104597 74.436295 L 57.815920 74.292433 L 57.526949 74.148062 L 57.237673 74.003175 L 56.948082 73.857764 L 56.658163 73.711823 L 56.367907 73.565344 L 56.077302 73.418319 L 55.786336 73.270741 L 55.494999 73.122602 L 55.203280 72.973895 L 54.911167 72.824611 L 54.618648 72.674743 L 54.325713 72.524283 L 54.032349 72.373222 L 53.738546 72.221553 L 53.444291 72.069266 L 53.149573 71.916354 L 52.854381 71.762808 L 52.558702 71.608619 L 52.262524 71.453779 L 51.965836 71.298278 L 51.668626 71.142107 L 51.370881 70.985258 L 51.072590 70.827722 L 50.773739 70.669488 L 50.474317 70.510547 L 50.174311 70.350890 L 49.873709 70.190507 L 49.572498 70.029388 L 49.270665 69.867523 L 48.968198 69.704902 L 48.665084 69.541515 L 48.361310 69.377351 L 48.056862 69.212399 L 47.751727 69.046649 L 47.445893 68.880091 L 47.139346 68.712712 L 46.832072 68.544501 L 46.524057 68.375449 L 46.215289 68.205542 L 45.905752 68.034769 L 45.595434 67.863119 L 45.284320 67.690579 L 44.972395 67.517137 L 44.659646 67.342781 L 44.346058 67.167498 L 44.031617 66.991275 L 43.716307 66.814100 L 43.400114 66.635959 L 43.083023 66.456840 L 42.765019 66.276728 L 42.446086 66.095609 L 42.126209 65.913471 L 41.805372 65.730298 L 41.483561 65.546077 L 41.160757 65.360792 L 40.836947 65.174429 L 40.512112 64.986973 L 40.186238 64.798408 L 39.859307 64.608720 L 39.531303 64.417891 L 39.202209 64.225907 L 38.872007 64.032750 L 38.540681 63.838405 L 38.208213 63.642854 L 37.874585 63.446080 L 37.539779 63.248067 L 37.203778 63.048795 L 36.866562 62.848248 L 36.528114 62.646407 L 36.188415 62.443253 L 35.847446 62.238768 L 35.505188 62.032932 L 35.161621 61.825726 L 34.816727 61.617130 L 34.470484 61.407124 L 34.122874 61.195687 L 33.773875 60.982798 L 33.423467 60.768436 L 33.071631 60.552580 L 32.718343 60.335207 L 32.363584 60.116295 L 32.007331 59.895821 L 31.649563 59.673762 L 31.290257 59.450095 L 30.929392 59.224794 L 30.566944 58.997837 L 30.202891 58.769198 L 29.837210 58.538851 L 29.469875 58.306770 L 29.100865 58.072930 L 28.730155 57.837304 L 28.357719 57.599864 L 27.983534 57.360582 L 27.607574 57.119430 L 27.229813 56.876380 L 26.850226 56.631401 L 26.468787 56.384464 L 26.085468 56.135539 L 25.700243 55.884593 L 25.313085 55.631596 L 24.923966 55.376515 L 24.532857 55.119317 L 24.139730 54.859969 L 23.744557 54.598436 L 23.347308 54.334682 L 22.947953 54.068674 L 22.546462 53.800373 L 22.142805 53.529743 L 21.736950 53.256747 L 21.328866 52.981345 L 20.918521 52.703498 L 20.505882 52.423166 L 20.090917 52.140307 L 19.673592 51.854881 L 19.253874 51.566843 L 18.831727 51.276151 L 18.407117 50.982760 L 17.980008 50.686624 L 17.550364 50.387697 L 17.118150 50.085931 L 16.683327 49.781278 L 16.245858 49.473688 L 15.805704 49.163111 L 15.362827 48.849495 L 14.917187 48.532786 L 14.468745 48.212932 L 14.017459 47.889876 L 13.725688 47.680244" fill="none" id="tattoo-path-736a541c55400b89" stroke="#000000" stroke-linecap="round" stroke-linejoin="round" stroke-width="1.200000"/>
  <path clip-path="url(#tattoo-band-layer-clip)" d="M 10.680506 88.273082 L 11.192688 88.140023 L 11.728470 88.000852 L 12.260136 87.862770 L 12.787754 87.725758 L 13.311388 87.589799 L 13.831104 87.454876 L 14.346966 87.320971 L 14.859035 87.188069 L 15.367372 87.056153 L 15.872037 86.925207 L 16.373089 86.795216 L 16.870585 86.666163 L 17.364582 86.538035 L 17.855135 86.410817 L 18.342299 86.284494 L 18.826126 86.159052 L 19.306670 86.034476 L 19.783982 85.910754 L 20.258112 85.787872 L 20.729109 85.665817 L 21.197023 85.544576 L 21.661901 85.424136 L 22.123791 85.304485 L 22.582738 85.185610 L 23.038788 85.067500 L 23.491985 84.950142 L 23.942373 84.833526 L 24.389995 84.717639 L 24.834894 84.602471 L 25.277111 84.488011 L 25.716686 84.374247 L 26.153661 84.261169 L 26.588074 84.148767 L 27.019964 84.037030 L 27.449370 83.925949 L 27.876330 83.815513 L 28.300879 83.705712 L 28.723055 83.596537 L 29.142893 83.487979 L 29.560429 83.380027 L 29.975697 83.272674 L 30.388731 83.165910 L 30.799565 83.059726 L 31.208232 82.954113 L 31.614765 82.849064 L 32.019195 82.744568 L 32.421554 82.640619 L 32.821873 82.537207 L 33.220183 82.434325 L 33.616514 82.331965 L 34.010896 82.230119 L 34.403357 82.128780 L 34.793927 82.027939 L 35.182634 81.927589 L 35.569505 81.827723 L 35.954570 81.728334 L 36.337854 81.629414 L 36.719385 81.530956 L 37.099190 81.432954 L 37.477293 81.335401 L 37.853721 81.238289 L 38.228499 81.141612 L 38.601652 81.045364 L 38.973206 80.949538 L 39.343183 80.854128 L 39.711609 80.759127 L 40.078506 80.664529 L 40.443899 80.570328 L 40.807810 80.476518 L 41.170262 80.383093 L 41.531277 80.290048 L 41.890879 80.197375 L 42.249087 80.105070 L 42.605926 80.013127 L 42.961414 79.921540 L 43.315575 79.830303 L 43.668428 79.739412 L 44.019994 79.648861 L 44.370294 79.558644 L 44.719347 79.468757 L 45.067174 79.379193 L 45.413794 79.289949 L 45.759226 79.201018 L 46.103490 79.112396 L 46.446604 79.024078 L 46.788588 78.936058 L 47.129460 78.848333 L 47.469238 78.760897 L 47.807941 78.673746 L 48.145585 78.586875 L 48.482190 78.500278 L 48.817772 78.413953 L 49.152350 78.327893 L 49.485939 78.242096 L 49.818558 78.156555 L 50.150222 78.071267 L 50.480950 77.986227 L 50.810756 77.901432 L 51.139659 77.816876 L 51.467672 77.732556 L 51.794814 77.648468 L 52.121099 77.564607 L 52.446544 77.480969 L 52.771164 77.397550 L 53.094974 77.314346 L 53.417989 77.231354 L 53.740226 77.148568 L 54.061699 77.065986 L 54.382422 76.983603 L 54.702411 76.901416 L 55.021680 76.819421 L 55.340245 76.737613 L 55.658118 76.655990 L 55.975315 76.574547 L 56.291850 76.493281 L 56.607737 76.412188 L 56.922989 76.331265 L 57.237621 76.250507 L 57.551647 76.169912 L 57.865080 76.089476 L 58.177934 76.009195 L 58.490221 75.929066 L 58.801957 75.849085 L 59.113153 75.769248 L 59.423824 75.689554 L 59.733982 75.609997 L 60.043640 75.530575 L 60.352811 75.451284 L 60.661509 75.372121 L 60.969745 75.293083 L 61.277534 75.214166 L 61.584886 75.135367 L 61.891816 75.056683 L 62.198335 74.978111 L 62.504456 74.899646 L 62.810192 74.821287 L 63.115555 74.743030 L 63.420556 74.664872 L 63.725209 74.586809 L 64.029525 74.508839 L 64.333517 74.430958 L 64.637197 74.353164 L 64.940576 74.275452 L 65.243667 74.197821 L 65.546481 74.120266 L 65.849031 74.042786 L 66.151329 73.965376 L 66.453386 73.888034 L 66.755213 73.810757 L 67.056823 73.733542 L 67.358228 73.656386 L 67.659439 73.579285 L 67.960467 73.502237 L 68.261325 73.425239 L 68.562024 73.348287 L 68.862575 73.271380 L 69.162990 73.194513 L 69.463281 73.117684 L 69.763459 73.040890 L 70.063535 72.964128 L 70.363521 72.887396 L 70.663429 72.810689 L 70.963270 72.734006 L 71.263055 72.657343 L 71.562796 72.580697 L 71.862504 72.504066 L 72.162191 72.427446 L 72.461868 72.350835 L 72.761546 72.274229 L 73.061238 72.197627 L 73.360953 72.121024 L 73.660704 72.044418 L 73.960502 71.967806 L 74.260359 71.891185 L 74.560286 71.814553 L 74.860294 71.737905 L 75.160395 71.661240 L 75.460601 71.584554 L 75.760922 71.507845 L 76.061371 71.431110 L 76.361959 71.354345 L 76.662697 71.277547 L 76.963597 71.200715 L 77.264670 71.123844 L 77.565929 71.046932 L 77.867385 70.969976 L 78.169050 70.892972 L 78.470934 70.815919 L 78.773051 70.738812 L 79.075412 70.661650 L 79.378028 70.584428 L 79.680912 70.507145 L 79.984075 70.429796 L 80.287529 70.352379 L 80.591287 70.274891 L 80.895361 70.197328 L 81.199761 70.119689 L 81.504502 70.041969 L 81.809594 69.964165 L 82.115050 69.886275 L 82.420883 69.808295 L 82.727104 69.730223 L 83.033727 69.652054 L 83.340763 69.573787 L 83.648225 69.495417 L 83.956127 69.416941 L 84.264479 69.338357 L 84.573296 69.259661 L 84.882590 69.180850 L 85.192374 69.101921 L 85.502661 69.022870 L 85.813464 68.943694 L 86.124797 68.864389 L 86.436671 68.784953 L 86.749102 68.705382 L 87.062102 68.625673 L 87.375684 68.545821 L 87.689863 68.465825 L 88.004652 68.385680 L 88.320064 68.305383 L 88.636115 68.224930 L 88.952817 68.144318 L 89.270185 68.063543 L 89.588232 67.982602 L 89.906975 67.901491 L 90.226426 67.820207 L 90.546600 67.738745 L 90.867513 67.657103 L 91.189179 67.575276 L 91.511612 67.493261 L 91.834829 67.411053 L 92.158843 67.328650 L 92.483671 67.246046 L 92.809328 67.163239 L 93.135830 67.080225 L 93.463192 66.996999 L 93.791431 66.913557 L 94.120561 66.829896 L 94.450601 66.746011 L 94.781565 66.661899 L 95.113471 66.577554 L 95.446335 66.492974 L 95.780174 66.408153 L 96.115006 66.323088 L 96.450847 66.237773 L 96.787714 66.152206 L 97.125627 66.066381 L 97.464601 65.980294 L 97.804656 65.893940 L 98.145809 65.807315 L 98.488079 65.720415 L 98.831484 65.633234 L 99.176043 65.545768 L 99.521776 65.458012 L 99.868701 65.369962 L 100.216838 65.281612 L 100.566207 65.192958 L 100.916827 65.103995 L 101.268719 65.014717 L 101.621902 64.925120 L 101.976399 64.835198 L 102.332229 64.744946 L 102.689414 64.654360 L 103.047975 64.563433 L 103.407934 64.472160 L 103.769313 64.380536 L 104.132135 64.288555 L 104.496420 64.196212 L 104.862194 64.103500 L 105.229478 64.010415 L 105.598296 63.916950 L 105.968672 63.823100 L 106.340631 63.728858 L 106.714195 63.634218 L 107.089391 63.539174 L 107.466243 63.443721 L 107.844776 63.347851 L 108.225018 63.251558 L 108.606992 63.154836 L 108.990727 63.057679 L 109.376249 62.960079 L 109.763585 62.862029 L 110.152764 62.763524 L 110.543812 62.664555 L 110.936759 62.565116 L 111.331634 62.465200 L 111.728466 62.364799 L 112.127284 62.263906 L 112.528120 62.162514 L 112.931003 62.060615 L 113.335965 61.958201 L 113.743038 61.855264 L 114.152253 61.751797 L 114.563644 61.647790 L 114.977244 61.543237 L 115.393085 61.438129 L 115.811204 61.332457 L 116.231634 61.226213 L 116.654410 61.119388 L 117.079569 61.011973 L 117.507148 60.903958 L 117.937182 60.795336 L 118.369711 60.686096 L 118.804773 60.576230 L 119.242405 60.465727 L 119.682649 60.354577 L 120.125544 60.242771 L 120.571132 60.130299 L 121.019454 60.017150 L 121.470553 59.903314 L 121.924472 59.788780 L 122.381255 59.673538 L 122.840947 59.557576 L 123.303592 59.440883 L 123.769239 59.323447 L 124.237933 59.205258 L 124.709723 59.086303 L 125.184658 58.966570 L 125.662787 58.846047 L 126.144162 58.724722 L 126.628833 58.602581 L 127.116855 58.479612 L 127.608279 58.355802 L 128.103161 58.231137 L 128.601557 58.105603 L 129.103523 57.979188 L 129.609117 57.851875 L 130.118398 57.723652 L 130.631426 57.594502 L 131.148263 57.464412 L 131.668970 57.333366 L 132.193612 57.201348 L 132.722253 57.068342 L 133.254960 56.934333 L 133.791801 56.799302 L 134.305004 56.670236" fill="none" id="tattoo-path-7bd05396d7243e6f" stroke="#000000" stroke-linecap="round" stroke-linejoin="round" stroke-width="1.000000"/>
  <path clip-path="url(#tattoo-band-layer-clip)" d="M 84.199878 135.218042 L 84.245298 135.164181 L 84.602496 134.735345 L 84.955349 134.306491 L 85.303902 133.877641 L 85.648200 133.448817 L 85.988287 133.020041 L 86.324207 132.591332 L 86.656004 132.162712 L 86.983721 131.734198 L 87.307400 131.305810 L 87.627082 130.877565 L 87.942809 130.449480 L 88.254623 130.021572 L 88.562562 129.593857 L 88.866669 129.166350 L 89.166980 128.739066 L 89.463537 128.312020 L 89.756377 127.885224 L 90.045538 127.458692 L 90.331059 127.032436 L 90.612974 126.606470 L 90.891323 126.180804 L 91.166140 125.755449 L 91.437461 125.330416 L 91.705322 124.905716 L 91.969757 124.481358 L 92.230801 124.057352 L 92.488487 123.633706 L 92.742850 123.210429 L 92.993921 122.787530 L 93.241734 122.365015 L 93.486320 121.942893 L 93.727712 121.521170 L 93.965941 121.099853 L 94.201038 120.678948 L 94.433032 120.258462 L 94.661955 119.838400 L 94.887835 119.418766 L 95.110702 118.999567 L 95.330586 118.580807 L 95.547513 118.162491 L 95.761513 117.744622 L 95.972613 117.327204 L 96.180841 116.910241 L 96.386222 116.493736 L 96.588785 116.077692 L 96.788554 115.662113 L 96.985556 115.247000 L 97.179816 114.832356 L 97.371359 114.418183 L 97.560210 114.004483 L 97.746393 113.591258 L 97.929933 113.178508 L 98.110852 112.766236 L 98.289174 112.354442 L 98.464923 111.943127 L 98.638120 111.532291 L 98.808788 111.121936 L 98.976949 110.712061 L 99.142625 110.302667 L 99.305836 109.893753 L 99.466605 109.485320 L 99.624950 109.077366 L 99.780894 108.669892 L 99.934456 108.262896 L 100.085655 107.856378 L 100.234511 107.450337 L 100.381044 107.044771 L 100.525272 106.639680 L 100.667213 106.235062 L 100.806886 105.830916 L 100.944309 105.427239 L 101.079500 105.024030 L 101.212475 104.621288 L 101.343253 104.219010 L 101.471849 103.817194 L 101.598281 103.415838 L 101.722564 103.014939 L 101.844715 102.614496 L 101.964750 102.214505 L 102.082684 101.814965 L 102.198532 101.415872 L 102.312309 101.017224 L 102.424030 100.619017 L 102.533710 100.221250 L 102.641362 99.823918 L 102.747001 99.427019 L 102.850641 99.030549 L 102.952294 98.634505 L 103.051975 98.238885 L 103.149695 97.843684 L 103.245469 97.448899 L 103.339308 97.054527 L 103.431224 96.660563 L 103.521231 96.267005 L 103.609340 95.873848 L 103.695561 95.481089 L 103.779908 95.088724 L 103.862391 94.696749 L 103.943020 94.305161 L 104.021807 93.913954 L 104.098763 93.523126 L 104.173897 93.132671 L 104.247220 92.742587 L 104.318741 92.352868 L 104.388471 91.963511 L 104.456419 91.574511 L 104.522594 91.185864 L 104.587005 90.797566 L 104.649661 90.409612 L 104.710571 90.021998 L 104.769743 89.634720 L 104.827186 89.247772 L 104.882907 88.861151 L 104.936915 88.474853 L 104.989218 88.088871 L 105.039822 87.703203 L 105.088735 87.317843 L 105.135965 86.932787 L 105.181518 86.548029 L 105.225402 86.163566 L 105.267622 85.779393 L 105.308185 85.395504 L 105.347098 85.011896 L 105.384366 84.628563 L 105.419995 84.245501 L 105.453992 83.862704 L 105.486361 83.480169 L 105.517107 83.097890 L 105.546237 82.715862 L 105.573756 82.334081 L 105.599667 81.952541 L 105.623975 81.571238 L 105.646686 81.190168 L 105.667803 80.809324 L 105.687331 80.428702 L 105.705273 80.048297 L 105.721633 79.668105 L 105.736416 79.288119 L 105.749624 78.908337 L 105.761261 78.528751 L 105.771330 78.149358 L 105.779833 77.770153 L 105.786775 77.391130 L 105.792157 77.012285 L 105.795981 76.633612 L 105.798251 76.255107 L 105.798969 75.876764 L 105.798136 75.498580 L 105.795754 75.120548 L 105.791825 74.742664 L 105.786351 74.364922 L 105.779333 73.987319 L 105.770772 73.609848 L 105.760669 73.232506 L 105.749025 72.855286 L 105.735841 72.478185 L 105.721118 72.101196 L 105.704855 71.724316 L 105.687054 71.347539 L 105.667713 70.970860 L 105.646834 70.594275 L 105.624416 70.217778 L 105.600458 69.841364 L 105.574961 69.465030 L 105.547923 69.088769 L 105.519344 68.712577 L 105.489222 68.336449 L 105.457556 67.960381 L 105.424346 67.584367 L 105.389590 67.208402 L 105.353285 66.832482 L 105.315431 66.456603 L 105.276026 66.080758 L 105.235066 65.704944 L 105.192551 65.329156 L 105.148477 64.953389 L 105.102842 64.577638 L 105.055643 64.201899 L 105.006878 63.826167 L 104.956543 63.450437 L 104.904636 63.074705 L 104.851152 62.698966 L 104.796088 62.323215 L 104.739441 61.947448 L 104.681207 61.571661 L 104.621381 61.195849 L 104.559959 60.820007 L 104.496938 60.444131 L 104.432312 60.068217 L 104.366078 59.692260 L 104.298229 59.316256 L 104.228761 58.940200 L 104.157669 58.564088 L 104.084947 58.187916 L 104.010591 57.811679 L 103.934593 57.435374 L 103.856950 57.058997 L 103.777653 56.682542 L 103.696697 56.306006 L 103.614077 55.929385 L 103.529784 55.552675 L 103.443813 55.175872 L 103.356156 54.798971 L 103.266807 54.421970 L 103.175757 54.044864 L 103.083001 53.667649 L 102.988529 53.290321 L 102.892335 52.912878 L 102.794410 52.535314 L 102.694746 52.157627 L 102.593334 51.779813 L 102.490166 51.401868 L 102.385234 51.023789 L 102.278528 50.645572 L 102.170040 50.267214 L 102.059759 49.888713 L 101.947677 49.510063 L 101.833783 49.131263 L 101.718068 48.752309 L 101.600521 48.373199 L 101.481133 47.993928 L 101.359892 47.614494 L 101.236789 47.234895 L 101.111811 46.855128 L 100.984949 46.475189 L 100.856190 46.095076 L 100.725523 45.714787 L 100.592936 45.334318 L 100.458417 44.953669 L 100.321955 44.572836 L 100.183536 44.191817 L 100.043148 43.810609 L 99.900778 43.429212 L 99.756413 43.047623 L 99.610040 42.665839 L 99.461645 42.283860 L 99.311214 41.901683 L 99.158733 41.519307 L 99.004189 41.136730 L 98.847566 40.753952 L 98.688851 40.370970 L 98.528027 39.987784 L 98.365079 39.604392 L 98.199993 39.220795 L 98.032753 38.836989 L 97.863342 38.452976 L 97.691745 38.068755 L 97.517945 37.684325 L 97.341925 37.299686 L 97.163668 36.914837 L 96.983157 36.529779 L 96.800375 36.144512 L 96.615304 35.759036 L 96.427925 35.373352 L 96.238221 34.987460 L 96.046173 34.601360 L 95.851762 34.215055 L 95.654969 33.828544 L 95.455774 33.441829 L 95.254158 33.054912 L 95.050101 32.667794 L 94.843582 32.280478 L 94.634581 31.892964 L 94.423077 31.505255 L 94.209050 31.117353 L 93.992476 30.729262 L 93.773335 30.340983 L 93.551605 29.952521 L 93.327262 29.563877 L 93.100286 29.175056 L 92.870651 28.786061 L 92.638336 28.396897 L 92.403316 28.007567 L 92.165567 27.618075 L 91.925066 27.228427 L 91.681786 26.838628 L 91.435705 26.448682 L 91.186795 26.058595 L 90.935032 25.668373 L 90.680389 25.278022 L 90.422841 24.887548 L 90.162360 24.496959 L 89.898919 24.106260 L 89.632491 23.715460 L 89.363049 23.324565 L 89.090564 22.933585 L 88.815007 22.542527 L 88.536350 22.151399 L 88.254564 21.760212 L 87.969618 21.368974 L 87.681484 20.977696 L 87.390130 20.586387 L 87.095527 20.195057 L 86.797642 19.803719 L 86.496445 19.412383 L 86.191903 19.021062 L 85.883985 18.629767 L 85.572658 18.238512 L 85.257888 17.847309 L 84.939642 17.456173 L 84.617887 17.065117 L 84.292588 16.674157 L 83.963710 16.283307 L 83.631219 15.892583 L 83.295079 15.502002 L 82.955255 15.111580 L 82.611709 14.721335 L 82.264406 14.331284 L 81.913308 13.941447 L 81.558377 13.551843 L 81.199577 13.162491 L 80.836868 12.773412 L 80.470212 12.384627 L 80.099569 11.996158 L 79.724901 11.608026 L 79.346167 11.220257 L 78.963326 10.832873 L 78.576339 10.445898 L 78.185163 10.059359 L 77.789757 9.673282 L 77.390079 9.287693 L 76.986087 8.902621 L 76.934793 8.854320" fill="none" id="tattoo-path-15d13ebd8794d7e4" stroke="#000000" stroke-linecap="round" stroke-linejoin="round" stroke-width="0.800000"/>
  <circle cx="72.500000" cy="72.500000" fill="none" id="tattoo-boundary-da45c61d325de3be" r="64.900000" stroke="#000000" stroke-width="2.200000"/>
</svg>
