<svg height="145.000000mm" version="1.1" viewBox="0 0 145.000000 145.000000" width="145.000000mm" xmlns="http://www.w3.org/2000/svg">
  <defs>
    <clipPath clipPathUnits="userSpaceOnUse" id="tattoo-band-layer-clip">
      <circle cx="72.500000" cy="72.500000" r="63.800000"/>
    </clipPath>
  </defs>
  <path clip-path="url(#tattoo-band-layer-clip)" d="M 48.695761 131.692890 L 48.744336 131.359741 L 48.825449 130.810513 L 48.906949 130.265552 L 48.988825 129.724791 L 49.071063 129.188165 L 49.153652 128.655608 L 49.236580 128.127056 L 49.319837 127.602448 L 49.403411 127.081722 L 49.487293 126.564818 L 49.571473 126.051677 L 49.655941 125.542241 L 49.740688 125.036453 L 49.825705 124.534257 L 49.910984 124.035598 L 49.996517 123.540422 L 50.082295 123.048677 L 50.168311 122.560310 L 50.254559 122.075271 L 50.341030 121.593509 L 50.427718 121.114974 L 50.514617 120.639619 L 50.601721 120.167396 L 50.689023 119.698257 L 50.776518 119.232157 L 50.864200 118.769051 L 50.952064 118.308893 L 51.040104 117.851641 L 51.128317 117.397252 L 51.216697 116.945682 L 51.305240 116.496891 L 51.393941 116.050838 L 51.482797 115.607481 L 51.571803 115.166783 L 51.660956 114.728703 L 51.750252 114.293203 L 51.839688 113.860246 L 51.929260 113.429795 L 52.018966 113.001813 L 52.108801 112.576264 L 52.198765 112.153113 L 52.288853 111.732324 L 52.379064 111.313864 L 52.469394 110.897699 L 52.559842 110.483796 L 52.650405 110.072121 L 52.741082 109.662643 L 52.831870 109.255329 L 52.922768 108.850149 L 53.013774 108.447072 L 53.104886 108.046067 L 53.196103 107.647104 L 53.287423 107.250154 L 53.378846 106.855188 L 53.470370 106.462176 L 53.561993 106.071092 L 53.653716 105.681907 L 53.745536 105.294593 L 53.837453 104.909124 L 53.929467 104.525472 L 54.021577 104.143612 L 54.113782 103.763518 L 54.206082 103.385164 L 54.298476 103.008524 L 54.390963 102.633575 L 54.483545 102.260290 L 54.576220 101.888647 L 54.668988 101.518621 L 54.761849 101.150188 L 54.854804 100.783326 L 54.947852 100.418011 L 55.040993 100.054220 L 55.134228 99.691932 L 55.227557 99.331124 L 55.320980 98.971774 L 55.414498 98.613861 L 55.508111 98.257363 L 55.601819 97.902259 L 55.695623 97.548529 L 55.789523 97.196152 L 55.883521 96.845108 L 55.977617 96.495376 L 56.071812 96.146937 L 56.166106 95.799772 L 56.260500 95.453861 L 56.354995 95.109185 L 56.449593 94.765725 L 56.544293 94.423462 L 56.639098 94.082379 L 56.734008 93.742456 L 56.829024 93.403675 L 56.924148 93.066020 L 57.019380 92.729471 L 57.114723 92.394012 L 57.210176 92.059626 L 57.305742 91.726295 L 57.401422 91.394002 L 57.497217 91.062731 L 57.593129 90.732465 L 57.689159 90.403188 L 57.785309 90.074883 L 57.881580 89.747535 L 57.977974 89.421127 L 58.074492 89.095644 L 58.171136 88.771070 L 58.267909 88.447390 L 58.364811 88.124588 L 58.461844 87.802649 L 58.559010 87.481559 L 58.656312 87.161301 L 58.753750 86.841863 L 58.851327 86.523228 L 58.949045 86.205383 L 59.046906 85.888313 L 59.144911 85.572004 L 59.243064 85.256441 L 59.341365 84.941611 L 59.439817 84.627501 L 59.538422 84.314095 L 59.637182 84.001380 L 59.736100 83.689344 L 59.835178 83.377972 L 59.934418 83.067251 L 60.033822 82.757168 L 60.133393 82.447710 L 60.233133 82.138863 L 60.333045 81.830616 L 60.433130 81.522954 L 60.533392 81.215865 L 60.633833 80.909336 L 60.734455 80.603356 L 60.835262 80.297910 L 60.936255 79.992988 L 61.037437 79.688576 L 61.138812 79.384662 L 61.240381 79.081235 L 61.342147 78.778281 L 61.444114 78.475789 L 61.546284 78.173747 L 61.648660 77.872144 L 61.751244 77.570966 L 61.854041 77.270202 L 61.957052 76.969841 L 62.060280 76.669871 L 62.163729 76.370281 L 62.267402 76.071058 L 62.371302 75.772191 L 62.475431 75.473669 L 62.579794 75.175481 L 62.684393 74.877614 L 62.789232 74.580059 L 62.894313 74.282803 L 62.999640 73.985835 L 63.105217 73.689144 L 63.211047 73.392719 L 63.317133 73.096550 L 63.423479 72.800624 L 63.530088 72.504931 L 63.636965 72.209459 L 63.744111 71.914199 L 63.851531 71.619139 L 63.959230 71.324268 L 64.067209 71.029575 L 64.175474 70.735049 L 64.284028 70.440681 L 64.392875 70.146458 L 64.502018 69.852370 L 64.611462 69.558406 L 64.721211 69.264556 L 64.831268 68.970809 L 64.941638 68.677154 L 65.052325 68.383580 L 65.163332 68.090078 L 65.274665 67.796635 L 65.386328 67.503242 L 65.498324 67.209888 L 65.610658 66.916562 L 65.723334 66.623254 L 65.836358 66.329953 L 65.949733 66.036648 L 66.063464 65.743329 L 66.177556 65.449985 L 66.292013 65.156606 L 66.406840 64.863181 L 66.522042 64.569698 L 66.637623 64.276149 L 66.753589 63.982521 L 66.869945 63.688805 L 66.986695 63.394989 L 67.103844 63.101063 L 67.221399 62.807016 L 67.339363 62.512838 L 67.457742 62.218518 L 67.576542 61.924044 L 67.695767 61.629407 L 67.815424 61.334596 L 67.935517 61.039599 L 68.056053 60.744405 L 68.177037 60.449005 L 68.298475 60.153386 L 68.420373 59.857539 L 68.542735 59.561452 L 68.665569 59.265114 L 68.788881 58.968514 L 68.912676 58.671641 L 69.036960 58.374484 L 69.161741 58.077031 L 69.287023 57.779272 L 69.412814 57.481196 L 69.539121 57.182791 L 69.665948 56.884045 L 69.793305 56.584948 L 69.921196 56.285487 L 70.049629 55.985653 L 70.178611 55.685432 L 70.308149 55.384813 L 70.438249 55.083785 L 70.568920 54.782337 L 70.700168 54.480455 L 70.832001 54.178130 L 70.964427 53.875347 L 71.097452 53.572097 L 71.231084 53.268366 L 71.365333 52.964143 L 71.500204 52.659415 L 71.635707 52.354170 L 71.771849 52.048397 L 71.908639 51.742081 L 72.046084 51.435212 L 72.184195 51.127777 L 72.322978 50.819762 L 72.462443 50.511156 L 72.602599 50.201945 L 72.743454 49.892116 L 72.885018 49.581657 L 73.027300 49.270555 L 73.170309 48.958796 L 73.314055 48.646367 L 73.458547 48.333255 L 73.603795 48.019446 L 73.749809 47.704927 L 73.896599 47.389683 L 74.044175 47.073702 L 74.192547 46.756970 L 74.341727 46.439471 L 74.491725 46.121193 L 74.642550 45.802121 L 74.794216 45.482240 L 74.946732 45.161537 L 75.100110 44.839995 L 75.254361 44.517602 L 75.409497 44.194341 L 75.565531 43.870198 L 75.722473 43.545158 L 75.880336 43.219205 L 76.039133 42.892324 L 76.198876 42.564499 L 76.359578 42.235715 L 76.521252 41.905955 L 76.683911 41.575204 L 76.847568 41.243446 L 77.012238 40.910663 L 77.177933 40.576840 L 77.344669 40.241960 L 77.512458 39.906005 L 77.681317 39.568959 L 77.851259 39.230805 L 78.022300 38.891526 L 78.194455 38.551102 L 78.367739 38.209518 L 78.542168 37.866754 L 78.717758 37.522793 L 78.894526 37.177616 L 79.072487 36.831204 L 79.251660 36.483540 L 79.432060 36.134603 L 79.613706 35.784375 L 79.796615 35.432836 L 79.980805 35.079966 L 80.166295 34.725746 L 80.353102 34.370156 L 80.541247 34.013174 L 80.730748 33.654781 L 80.921625 33.294955 L 81.113899 32.933675 L 81.307589 32.570921 L 81.502716 32.206670 L 81.699301 31.840900 L 81.897366 31.473589 L 82.096932 31.104715 L 82.298023 30.734256 L 82.500660 30.362187 L 82.704866 29.988486 L 82.910666 29.613128 L 83.118083 29.236091 L 83.327141 28.857350 L 83.537866 28.476879 L 83.750282 28.094655 L 83.964415 27.710652 L 84.180292 27.324845 L 84.397940 26.937207 L 84.617385 26.547712 L 84.838656 26.156334 L 85.061780 25.763046 L 85.286788 25.367820 L 85.513707 24.970629 L 85.742569 24.571445 L 85.973403 24.170238 L 86.206242 23.766980 L 86.441117 23.361643 L 86.678060 22.954195 L 86.917104 22.544607 L 87.158284 22.132849 L 87.401634 21.718889 L 87.647188 21.302695 L 87.894984 20.884237 L 88.145057 20.463481 L 88.397445 20.040394 L 88.652186 19.614944 L 88.909319 19.187096 L 89.168884 18.756816 L 89.430921 18.324070 L 89.695472 17.888821 L 89.962579 17.451034 L 90.232286 17.010672 L 90.504637 16.567699 L 90.779676 16.122076 L 91.057450 15.673766 L 91.338005 15.222730 L 91.621391 14.768928 L 91.907657 14.312321 L 92.196851 13.852868 L 92.489027 13.390527 L 92.784236 12.925257 L 93.082532 12.457015 L 93.263946 12.173401" fill="none" id="tattoo-path-79141eef190d97b3" stroke="#000000" stroke-linecap="round" stroke-linejoin="round" stroke-width="4.800000"/>
  <path clip-path="url(#tattoo-band-layer-clip)" d="M 131.857643 95.890388 L 131.534470 95.916860 L 130.980542 95.960308 L 130.430311 96.001569 L 129.883727 96.040683 L 129.340743 96.077694 L 128.801313 96.112642 L 128.265391 96.145568 L 127.732930 96.176508 L 127.203887 96.205503 L 126.678217 96.232588 L 126.155875 96.257799 L 125.636821 96.281172 L 125.121009 96.302741 L 124.608400 96.322539 L 124.098951 96.340598 L 123.592622 96.356952 L 123.089372 96.371629 L 122.589162 96.384662 L 122.091952 96.396079 L 121.597704 96.405909 L 121.106380 96.414180 L 120.617942 96.420919 L 120.132353 96.426154 L 119.649576 96.429910 L 119.169575 96.432213 L 118.692315 96.433088 L 118.217760 96.432559 L 117.745875 96.430649 L 117.276627 96.427382 L 116.809981 96.422780 L 116.345904 96.416865 L 115.884362 96.409659 L 115.425325 96.401182 L 114.968758 96.391456 L 114.514631 96.380499 L 114.062912 96.368332 L 113.613571 96.354973 L 113.166576 96.340441 L 112.721899 96.324754 L 112.279508 96.307929 L 111.839375 96.289985 L 111.401471 96.270937 L 110.965766 96.250802 L 110.532234 96.229597 L 110.100845 96.207336 L 109.671573 96.184035 L 109.244390 96.159709 L 108.819269 96.134373 L 108.396184 96.108039 L 107.975109 96.080724 L 107.556017 96.052439 L 107.138883 96.023198 L 106.723681 95.993014 L 106.310388 95.961899 L 105.898977 95.929866 L 105.489426 95.896926 L 105.081709 95.863091 L 104.675803 95.828373 L 104.271684 95.792782 L 103.869329 95.756329 L 103.468716 95.719025 L 103.069821 95.680880 L 102.672622 95.641904 L 102.277097 95.602106 L 101.883223 95.561497 L 101.490981 95.520085 L 101.100347 95.477879 L 100.711300 95.434888 L 100.323821 95.391121 L 99.937888 95.346585 L 99.553480 95.301290 L 99.170577 95.255243 L 98.789160 95.208451 L 98.409209 95.160922 L 98.030703 95.112664 L 97.653625 95.063683 L 97.277953 95.013986 L 96.903670 94.963580 L 96.530757 94.912471 L 96.159196 94.860666 L 95.788967 94.808171 L 95.420053 94.754991 L 95.052435 94.701133 L 94.686097 94.646603 L 94.321020 94.591404 L 93.957187 94.535544 L 93.594580 94.479026 L 93.233184 94.421857 L 92.872980 94.364040 L 92.513952 94.305580 L 92.156083 94.246483 L 91.799358 94.186751 L 91.443760 94.126390 L 91.089272 94.065403 L 90.735879 94.003795 L 90.383565 93.941569 L 90.032315 93.878728 L 89.682112 93.815277 L 89.332942 93.751219 L 88.984790 93.686556 L 88.637640 93.621292 L 88.291478 93.555431 L 87.946288 93.488974 L 87.602056 93.421925 L 87.258768 93.354286 L 86.916409 93.286060 L 86.574964 93.217248 L 86.234421 93.147855 L 85.894764 93.077880 L 85.555980 93.007328 L 85.218055 92.936198 L 84.880976 92.864494 L 84.544728 92.792217 L 84.209299 92.719369 L 83.874674 92.645951 L 83.540842 92.571964 L 83.207788 92.497410 L 82.875500 92.422290 L 82.543964 92.346605 L 82.213169 92.270356 L 81.883100 92.193543 L 81.553747 92.116169 L 81.225095 92.038232 L 80.897133 91.959735 L 80.569848 91.880677 L 80.243228 91.801059 L 79.917260 91.720880 L 79.591934 91.640143 L 79.267236 91.558845 L 78.943155 91.476988 L 78.619678 91.394571 L 78.296795 91.311594 L 77.974494 91.228057 L 77.652762 91.143960 L 77.331588 91.059302 L 77.010961 90.974082 L 76.690870 90.888301 L 76.371302 90.801956 L 76.052248 90.715048 L 75.733695 90.627576 L 75.415632 90.539538 L 75.098049 90.450934 L 74.780934 90.361762 L 74.464277 90.272022 L 74.148066 90.181711 L 73.832291 90.090829 L 73.516940 89.999374 L 73.202004 89.907344 L 72.887472 89.814738 L 72.573332 89.721555 L 72.259574 89.627791 L 71.946189 89.533446 L 71.633165 89.438517 L 71.320491 89.343003 L 71.008159 89.246900 L 70.696156 89.150208 L 70.384474 89.052923 L 70.073101 88.955043 L 69.762027 88.856566 L 69.451243 88.757489 L 69.140738 88.657810 L 68.830502 88.557525 L 68.520526 88.456631 L 68.210798 88.355127 L 67.901309 88.253009 L 67.592050 88.150273 L 67.283009 88.046917 L 66.974178 87.942938 L 66.665546 87.838331 L 66.357104 87.733094 L 66.048842 87.627223 L 65.740749 87.520714 L 65.432817 87.413564 L 65.125036 87.305768 L 64.817395 87.197324 L 64.509885 87.088227 L 64.202497 86.978472 L 63.895221 86.868057 L 63.588046 86.756975 L 63.280965 86.645224 L 62.973966 86.532799 L 62.667041 86.419695 L 62.360180 86.305907 L 62.053373 86.191432 L 61.746610 86.076263 L 61.439883 85.960396 L 61.133182 85.843826 L 60.826497 85.726548 L 60.519818 85.608557 L 60.213137 85.489848 L 59.906444 85.370414 L 59.599729 85.250250 L 59.292982 85.129352 L 58.986195 85.007712 L 58.679358 84.885326 L 58.372461 84.762187 L 58.065495 84.638289 L 57.758451 84.513626 L 57.451319 84.388193 L 57.144089 84.261981 L 56.836752 84.134985 L 56.529299 84.007199 L 56.221720 83.878615 L 55.914006 83.749227 L 55.606147 83.619027 L 55.298133 83.488009 L 54.989956 83.356166 L 54.681605 83.223490 L 54.373071 83.089973 L 54.064345 82.955608 L 53.755417 82.820388 L 53.446277 82.684305 L 53.136917 82.547349 L 52.827325 82.409515 L 52.517494 82.270792 L 52.207412 82.131173 L 51.897071 81.990650 L 51.586460 81.849213 L 51.275571 81.706854 L 50.964393 81.563564 L 50.652917 81.419334 L 50.341133 81.274155 L 50.029031 81.128017 L 49.716601 80.980910 L 49.403834 80.832826 L 49.090720 80.683753 L 48.777248 80.533683 L 48.463410 80.382605 L 48.149195 80.230508 L 47.834593 80.077383 L 47.519594 79.923217 L 47.204189 79.768002 L 46.888366 79.611725 L 46.572117 79.454376 L 46.255431 79.295942 L 45.938297 79.136413 L 45.620707 78.975777 L 45.302649 78.814021 L 44.984113 78.651134 L 44.665090 78.487104 L 44.345568 78.321917 L 44.025537 78.155561 L 43.704988 77.988023 L 43.383909 77.819290 L 43.062290 77.649349 L 42.740121 77.478186 L 42.417392 77.305787 L 42.094090 77.132138 L 41.770207 76.957226 L 41.445731 76.781035 L 41.120651 76.603550 L 40.794957 76.424758 L 40.468639 76.244642 L 40.141684 76.063187 L 39.814082 75.880378 L 39.485823 75.696198 L 39.156895 75.510632 L 38.827288 75.323662 L 38.496990 75.135273 L 38.165989 74.945446 L 37.834276 74.754166 L 37.501838 74.561413 L 37.168664 74.367171 L 36.834744 74.171421 L 36.500065 73.974145 L 36.164616 73.775323 L 35.828386 73.574937 L 35.491363 73.372967 L 35.153536 73.169394 L 34.814893 72.964197 L 34.475421 72.757356 L 34.135110 72.548850 L 33.793948 72.338658 L 33.451922 72.126759 L 33.109022 71.913131 L 32.765234 71.697751 L 32.420546 71.480597 L 32.074948 71.261646 L 31.728426 71.040874 L 31.380968 70.818258 L 31.032563 70.593774 L 30.683197 70.367397 L 30.332858 70.139101 L 29.981535 69.908862 L 29.629214 69.676654 L 29.275883 69.442449 L 28.921530 69.206222 L 28.566141 68.967945 L 28.209704 68.727590 L 27.852207 68.485129 L 27.493637 68.240533 L 27.133980 67.993773 L 26.773224 67.744819 L 26.411356 67.493640 L 26.048363 67.240206 L 25.684232 66.984486 L 25.318949 66.726447 L 24.952503 66.466057 L 24.584879 66.203282 L 24.216065 65.938089 L 23.846047 65.670443 L 23.474812 65.400310 L 23.102346 65.127653 L 22.728637 64.852437 L 22.353671 64.574623 L 21.977434 64.294176 L 21.599914 64.011056 L 21.221096 63.725224 L 20.840968 63.436640 L 20.459515 63.145264 L 20.076725 62.851054 L 19.692584 62.553969 L 19.307078 62.253965 L 18.920194 61.950998 L 18.531919 61.645025 L 18.142238 61.336000 L 17.751139 61.023875 L 17.358608 60.708605 L 16.964631 60.390142 L 16.569196 60.068435 L 16.172288 59.743436 L 15.773895 59.415092 L 15.374002 59.083354 L 14.972598 58.748166 L 14.569669 58.409476 L 14.165201 58.067229 L 13.759182 57.721368 L 13.351598 57.371836 L 12.942438 57.018574 L 12.531687 56.661524 L 12.119334 56.300624 L 11.705365 55.935813 L 11.289769 55.567027 L 11.047979 55.350973" fill="none" id="tattoo-path-cdb9f1e47aabf882" stroke="#000000" stroke-linecap="round" stroke-linejoin="round" stroke-width="4.200000"/>
  <path clip-path="url(#tattoo-band-layer-clip)" d="M 128.975291 102.181333 L 128.997251 101.930858 L 129.041983 101.374404 L 129.082578 100.819316 L 129.119071 100.265611 L 129.151497 99.713306 L 129.179891 99.162416 L 129.204285 98.612959 L 129.224715 98.064948 L 129.241214 97.518400 L 129.253815 96.973327 L 129.262550 96.429744 L 129.267453 95.887665 L 129.268556 95.347102 L 129.265891 94.808069 L 129.259490 94.270576 L 129.249385 93.734637 L 129.235606 93.200263 L 129.218184 92.667465 L 129.197151 92.136253 L 129.172536 91.606638 L 129.144369 91.078631 L 129.112681 90.552240 L 129.077500 90.027475 L 129.038856 89.504345 L 128.996778 88.982858 L 128.951294 88.463024 L 128.902432 87.944851 L 128.850221 87.428345 L 128.794687 86.913515 L 128.735859 86.400368 L 128.673763 85.888911 L 128.608427 85.379150 L 128.539876 84.871093 L 128.468137 84.364745 L 128.393236 83.860111 L 128.315198 83.357199 L 128.234049 82.856014 L 128.149813 82.356559 L 128.062517 81.858842 L 127.972183 81.362866 L 127.878836 80.868636 L 127.782501 80.376157 L 127.683200 79.885433 L 127.580957 79.396467 L 127.475795 78.909265 L 127.367737 78.423828 L 127.256806 77.940162 L 127.143023 77.458268 L 127.026411 76.978151 L 126.906991 76.499813 L 126.784785 76.023258 L 126.659814 75.548488 L 126.532099 75.075505 L 126.401660 74.604311 L 126.268518 74.134911 L 126.132693 73.667304 L 125.994205 73.201494 L 125.853073 72.737483 L 125.709316 72.275271 L 125.562955 71.814862 L 125.414007 71.356256 L 125.262492 70.899454 L 125.108427 70.444460 L 124.951831 69.991273 L 124.792721 69.539894 L 124.631116 69.090326 L 124.467032 68.642569 L 124.300486 68.196624 L 124.131496 67.752491 L 123.960079 67.310173 L 123.786250 66.869669 L 123.610025 66.430979 L 123.431422 65.994106 L 123.250455 65.559049 L 123.067140 65.125809 L 122.881493 64.694386 L 122.693527 64.264780 L 122.503259 63.836993 L 122.310703 63.411024 L 122.115874 62.986874 L 121.918785 62.564543 L 121.719450 62.144031 L 121.517883 61.725338 L 121.314099 61.308464 L 121.108109 60.893411 L 120.899929 60.480177 L 120.689569 60.068763 L 120.477043 59.659168 L 120.262365 59.251394 L 120.045545 58.845440 L 119.826597 58.441306 L 119.605531 58.038992 L 119.382361 57.638498 L 119.157097 57.239825 L 118.929752 56.842972 L 118.700335 56.447939 L 118.468859 56.054727 L 118.235334 55.663335 L 117.999771 55.273763 L 117.762181 54.886013 L 117.522573 54.500083 L 117.280957 54.115974 L 117.037345 53.733686 L 116.791745 53.353219 L 116.544168 52.974574 L 116.294622 52.597750 L 116.043117 52.222748 L 115.789663 51.849568 L 115.534268 51.478210 L 115.276941 51.108676 L 115.017690 50.740964 L 114.756525 50.375077 L 114.493453 50.011013 L 114.228483 49.648774 L 113.961623 49.288359 L 113.692880 48.929771 L 113.422263 48.573009 L 113.149779 48.218074 L 112.875435 47.864966 L 112.599240 47.513687 L 112.321199 47.164238 L 112.041320 46.816618 L 111.759611 46.470830 L 111.476077 46.126875 L 111.190725 45.784752 L 110.903562 45.444464 L 110.614595 45.106012 L 110.323829 44.769396 L 110.031270 44.434619 L 109.736925 44.101682 L 109.440799 43.770586 L 109.142899 43.441332 L 108.843229 43.113923 L 108.541795 42.788360 L 108.238603 42.464645 L 107.933658 42.142779 L 107.626965 41.822765 L 107.318529 41.504604 L 107.008354 41.188300 L 106.696447 40.873853 L 106.382810 40.561266 L 106.067450 40.250542 L 105.750370 39.941683 L 105.431575 39.634692 L 105.111070 39.329570 L 104.788857 39.026322 L 104.464942 38.724949 L 104.139328 38.425455 L 103.812020 38.127842 L 103.483021 37.832114 L 103.152334 37.538274 L 102.819964 37.246326 L 102.485913 36.956272 L 102.150186 36.668116 L 101.812785 36.381862 L 101.473714 36.097514 L 101.132977 35.815075 L 100.790575 35.534549 L 100.446513 35.255941 L 100.100792 34.979254 L 99.753417 34.704493 L 99.404389 34.431663 L 99.053712 34.160767 L 98.701388 33.891811 L 98.347419 33.624799 L 97.991809 33.359736 L 97.634559 33.096628 L 97.275672 32.835478 L 96.915150 32.576293 L 96.552996 32.319079 L 96.189212 32.063839 L 95.823799 31.810581 L 95.456760 31.559310 L 95.088097 31.310031 L 94.717812 31.062752 L 94.345906 30.817477 L 93.972382 30.574214 L 93.597242 30.332969 L 93.220486 30.093748 L 92.842118 29.856559 L 92.462138 29.621407 L 92.080548 29.388301 L 91.697350 29.157247 L 91.312546 28.928253 L 90.926136 28.701325 L 90.538123 28.476473 L 90.148508 28.253703 L 89.757292 28.033024 L 89.364477 27.814443 L 88.970064 27.597969 L 88.574055 27.383610 L 88.176450 27.171376 L 87.777252 26.961273 L 87.376461 26.753313 L 86.974079 26.547502 L 86.570107 26.343852 L 86.164546 26.142370 L 85.757398 25.943067 L 85.348664 25.745953 L 84.938345 25.551037 L 84.526442 25.358329 L 84.112957 25.167840 L 83.697891 24.979580 L 83.281246 24.793560 L 82.863022 24.609790 L 82.443220 24.428282 L 82.021843 24.249046 L 81.598891 24.072095 L 81.174366 23.897438 L 80.748269 23.725089 L 80.320602 23.555059 L 79.891366 23.387360 L 79.460562 23.222005 L 79.028192 23.059005 L 78.594257 22.898374 L 78.158759 22.740125 L 77.721700 22.584270 L 77.283081 22.430823 L 76.842903 22.279797 L 76.401170 22.131206 L 75.957881 21.985064 L 75.513040 21.841385 L 75.066648 21.700184 L 74.618707 21.561473 L 74.169219 21.425270 L 73.718187 21.291588 L 73.265611 21.160442 L 72.811495 21.031848 L 72.355842 20.905822 L 71.898652 20.782378 L 71.439929 20.661535 L 70.979676 20.543306 L 70.517895 20.427710 L 70.054588 20.314762 L 69.589759 20.204480 L 69.123411 20.096881 L 68.655547 19.991981 L 68.186169 19.889800 L 67.715282 19.790354 L 67.242889 19.693661 L 66.768993 19.599741 L 66.293598 19.508611 L 65.816707 19.420290 L 65.338326 19.334797 L 64.858457 19.252152 L 64.377105 19.172374 L 63.894275 19.095483 L 63.409971 19.021499 L 62.924198 18.950441 L 62.436960 18.882331 L 61.948264 18.817189 L 61.458113 18.755036 L 60.966513 18.695894 L 60.473471 18.639783 L 59.978991 18.586726 L 59.483081 18.536745 L 58.985745 18.489861 L 58.486991 18.446098 L 57.986825 18.405478 L 57.485253 18.368024 L 56.982284 18.333759 L 56.477924 18.302707 L 55.972181 18.274892 L 55.465062 18.250337 L 54.956576 18.229067 L 54.446730 18.211107 L 53.935535 18.196480 L 53.422997 18.185214 L 52.909127 18.177332 L 52.393933 18.172860 L 51.877426 18.171824 L 51.359616 18.174251 L 50.840512 18.180167 L 50.320125 18.189597 L 49.798466 18.202570 L 49.275546 18.219112 L 48.751378 18.239251 L 48.225972 18.263015 L 47.699341 18.290431 L 47.171498 18.321527 L 46.642455 18.356333 L 46.112226 18.394876 L 45.580824 18.437186 L 45.048265 18.483292 L 44.514561 18.533224 L 43.979729 18.587010 L 43.443783 18.644682 L 42.906739 18.706269 L 42.368613 18.771802 L 41.829422 18.841312 L 41.289183 18.914829 L 40.747913 18.992385 L 40.205631 19.074011 L 39.662354 19.159739 L 39.118102 19.249600 L 38.572895 19.343628 L 38.026751 19.441854 L 37.479692 19.544310 L 36.931739 19.651031 L 36.685295 19.700882" fill="none" id="tattoo-path-fc7f87e6c7684651" stroke="#000000" stroke-linecap="round" stroke-linejoin="round" stroke-width="3.600000"/>
  <path clip-path="url(#tattoo-band-layer-clip)" d="M 23.549415 113.417970 L 23.831714 113.500384 L 24.367744 113.653094 L 24.902432 113.801682 L 25.435766 113.946192 L 25.967737 114.086669 L 26.498336 114.223158 L 27.027552 114.355703 L 27.555378 114.484345 L 28.081806 114.609129 L 28.606828 114.730095 L 29.130437 114.847285 L 29.652626 114.960741 L 30.173390 115.070501 L 30.692722 115.176607 L 31.210618 115.279097 L 31.727073 115.378011 L 32.242081 115.473386 L 32.755640 115.565260 L 33.267745 115.653670 L 33.778393 115.738653 L 34.287582 115.820245 L 34.795308 115.898482 L 35.301569 115.973399 L 35.806363 116.045031 L 36.309689 116.113411 L 36.811546 116.178574 L 37.311931 116.240553 L 37.810845 116.299380 L 38.308287 116.355088 L 38.804256 116.407709 L 39.298754 116.457274 L 39.791779 116.503814 L 40.283333 116.547359 L 40.773416 116.587939 L 41.262029 116.625585 L 41.749173 116.660324 L 42.234851 116.692186 L 42.719062 116.721200 L 43.201810 116.747392 L 43.683096 116.770790 L 44.162922 116.791421 L 44.641291 116.809313 L 45.118205 116.824490 L 45.593667 116.836979 L 46.067679 116.846805 L 46.540245 116.853994 L 47.011368 116.858568 L 47.481050 116.860554 L 47.949296 116.859975 L 48.416108 116.856853 L 48.881491 116.851213 L 49.345448 116.843077 L 49.807984 116.832467 L 50.269101 116.819405 L 50.728804 116.803913 L 51.187097 116.786012 L 51.643985 116.765723 L 52.099472 116.743066 L 52.553562 116.718063 L 53.006260 116.690731 L 53.457571 116.661092 L 53.907498 116.629164 L 54.356048 116.594967 L 54.803224 116.558518 L 55.249031 116.519836 L 55.693475 116.478940 L 56.136560 116.435846 L 56.578292 116.390571 L 57.018676 116.343134 L 57.457716 116.293550 L 57.895417 116.241836 L 58.331786 116.188009 L 58.766828 116.132083 L 59.200547 116.074075 L 59.632948 116.013999 L 60.064038 115.951871 L 60.493822 115.887705 L 60.922305 115.821515 L 61.349492 115.753317 L 61.775389 115.683123 L 62.200001 115.610948 L 62.623335 115.536804 L 63.045394 115.460704 L 63.466185 115.382662 L 63.885713 115.302690 L 64.303984 115.220800 L 64.721004 115.137005 L 65.136777 115.051315 L 65.551309 114.963744 L 65.964606 114.874301 L 66.376673 114.782998 L 66.787516 114.689846 L 67.197140 114.594855 L 67.605550 114.498036 L 68.012753 114.399400 L 68.418753 114.298954 L 68.823556 114.196711 L 69.227167 114.092678 L 69.629592 113.986866 L 70.030836 113.879283 L 70.430905 113.769938 L 70.829803 113.658839 L 71.227536 113.545995 L 71.624110 113.431415 L 72.019529 113.315106 L 72.413799 113.197075 L 72.806925 113.077331 L 73.198912 112.955881 L 73.589766 112.832731 L 73.979490 112.707890 L 74.368092 112.581363 L 74.755574 112.453157 L 75.141943 112.323278 L 75.527203 112.191734 L 75.911360 112.058529 L 76.294418 111.923669 L 76.676382 111.787161 L 77.057256 111.649009 L 77.437046 111.509219 L 77.815756 111.367796 L 78.193391 111.224744 L 78.569956 111.080069 L 78.945455 110.933775 L 79.319892 110.785866 L 79.693272 110.636346 L 80.065599 110.485221 L 80.436878 110.332492 L 80.807113 110.178164 L 81.176309 110.022241 L 81.544468 109.864726 L 81.911597 109.705622 L 82.277698 109.544932 L 82.642776 109.382659 L 83.006835 109.218805 L 83.369878 109.053373 L 83.731910 108.886366 L 84.092934 108.717786 L 84.452954 108.547634 L 84.811974 108.375912 L 85.169996 108.202623 L 85.527026 108.027768 L 85.883066 107.851348 L 86.238119 107.673365 L 86.592190 107.493819 L 86.945281 107.312712 L 87.297395 107.130045 L 87.648536 106.945818 L 87.998706 106.760031 L 88.347909 106.572685 L 88.696148 106.383781 L 89.043425 106.193318 L 89.389743 106.001297 L 89.735106 105.807716 L 90.079514 105.612577 L 90.422972 105.415877 L 90.765481 105.217618 L 91.107044 105.017797 L 91.447663 104.816414 L 91.787340 104.613468 L 92.126078 104.408958 L 92.463878 104.202882 L 92.800743 103.995239 L 93.136675 103.786028 L 93.471675 103.575246 L 93.805744 103.362892 L 94.138885 103.148964 L 94.471099 102.933459 L 94.802388 102.716375 L 95.132753 102.497711 L 95.462194 102.277462 L 95.790714 102.055627 L 96.118314 101.832204 L 96.444993 101.607188 L 96.770754 101.380576 L 97.095597 101.152367 L 97.419523 100.922555 L 97.742532 100.691139 L 98.064624 100.458113 L 98.385801 100.223475 L 98.706062 99.987221 L 99.025408 99.749346 L 99.343838 99.509847 L 99.661353 99.268718 L 99.977952 99.025957 L 100.293635 98.781558 L 100.608402 98.535517 L 100.922252 98.287828 L 101.235184 98.038488 L 101.547199 97.787490 L 101.858294 97.534831 L 102.168470 97.280504 L 102.477724 97.024504 L 102.786057 96.766826 L 103.093465 96.507464 L 103.399949 96.246412 L 103.705505 95.983665 L 104.010134 95.719216 L 104.313832 95.453059 L 104.616598 95.185188 L 104.918429 94.915597 L 105.219324 94.644278 L 105.519279 94.371226 L 105.818293 94.096433 L 106.116363 93.819893 L 106.413485 93.541599 L 106.709658 93.261543 L 107.004877 92.979718 L 107.299140 92.696118 L 107.592442 92.410733 L 107.884782 92.123557 L 108.176153 91.834582 L 108.466554 91.543800 L 108.755980 91.251204 L 109.044426 90.956784 L 109.331888 90.660532 L 109.618362 90.362441 L 109.903842 90.062502 L 110.188325 89.760706 L 110.471804 89.457045 L 110.754275 89.151508 L 111.035733 88.844089 L 111.316171 88.534777 L 111.595583 88.223564 L 111.873964 87.910439 L 112.151308 87.595394 L 112.427608 87.278419 L 112.702858 86.959504 L 112.977050 86.638640 L 113.250179 86.315816 L 113.522236 85.991022 L 113.793214 85.664249 L 114.063106 85.335486 L 114.331903 85.004723 L 114.599599 84.671948 L 114.866184 84.337152 L 115.131649 84.000324 L 115.395987 83.661453 L 115.659189 83.320528 L 115.921244 82.977538 L 116.182145 82.632471 L 116.441880 82.285317 L 116.700440 81.936064 L 116.957815 81.584700 L 117.213995 81.231214 L 117.468968 80.875594 L 117.722725 80.517828 L 117.975253 80.157904 L 118.226541 79.795811 L 118.476577 79.431536 L 118.725350 79.065066 L 118.972846 78.696390 L 119.219054 78.325494 L 119.463961 77.952367 L 119.707553 77.576996 L 119.949816 77.199368 L 120.190738 76.819469 L 120.430303 76.437288 L 120.668497 76.052810 L 120.905307 75.666024 L 121.140715 75.276915 L 121.374708 74.885470 L 121.607269 74.491676 L 121.838383 74.095520 L 122.068032 73.696987 L 122.296200 73.296064 L 122.522870 72.892738 L 122.748024 72.486994 L 122.971644 72.078819 L 123.193713 71.668199 L 123.414211 71.255119 L 123.633120 70.839566 L 123.850419 70.421524 L 124.066090 70.000982 L 124.280111 69.577922 L 124.492463 69.152333 L 124.703124 68.724198 L 124.912073 68.293504 L 125.119287 67.860236 L 125.324745 67.424380 L 125.528423 66.985920 L 125.730299 66.544843 L 125.930348 66.101134 L 126.128547 65.654778 L 126.324870 65.205760 L 126.519293 64.754065 L 126.711789 64.299680 L 126.902334 63.842588 L 127.090899 63.382776 L 127.277459 62.920228 L 127.461985 62.454931 L 127.644449 61.986868 L 127.824822 61.516026 L 128.003075 61.042389 L 128.179179 60.565943 L 128.353102 60.086674 L 128.524815 59.604566 L 128.694284 59.119606 L 128.861479 58.631778 L 129.026367 58.141068 L 129.188913 57.647463 L 129.349085 57.150946 L 129.506847 56.651505 L 129.662165 56.149126 L 129.815003 55.643793 L 129.965324 55.135494 L 130.113091 54.624214 L 130.258266 54.109939 L 130.400811 53.592657 L 130.540686 53.072354 L 130.677852 52.549016 L 130.812269 52.022631 L 130.943894 51.493185 L 131.072686 50.960666 L 131.198603 50.425061 L 131.321600 49.886359 L 131.441634 49.344546 L 131.558659 48.799611 L 131.618532 48.511688" fill="none" id="tattoo-path-4f0f3151e67cc727" stroke="#000000" stroke-linecap="round" stroke-linejoin="round" stroke-width="3.100000"/>
  <path clip-path="url(#tattoo-band-layer-clip)" d="M 12.744210 94.853646 L 12.917285 94.564001 L 13.204860 94.088038 L 13.492993 93.616345 L 13.781658 93.148870 L 14.070832 92.685562 L 14.360491 92.226369 L 14.650613 91.771241 L 14.941177 91.320128 L 15.232161 90.872982 L 15.523546 90.429754 L 15.815312 89.990397 L 16.107440 89.554863 L 16.399913 89.123106 L 16.692712 88.695081 L 16.985822 88.270742 L 17.279225 87.850045 L 17.572907 87.432947 L 17.866852 87.019403 L 18.161046 86.609373 L 18.455475 86.202812 L 18.750126 85.799681 L 19.044985 85.399938 L 19.340041 85.003544 L 19.635281 84.610457 L 19.930694 84.220640 L 20.226270 83.834054 L 20.521997 83.450660 L 20.817866 83.070422 L 21.113867 82.693301 L 21.409991 82.319263 L 21.706229 81.948270 L 22.002573 81.580288 L 22.299014 81.215281 L 22.595546 80.853215 L 22.892160 80.494057 L 23.188849 80.137771 L 23.485608 79.784327 L 23.782430 79.433691 L 24.079308 79.085831 L 24.376237 78.740715 L 24.673213 78.398312 L 24.970229 78.058592 L 25.267281 77.721525 L 25.564364 77.387080 L 25.861475 77.055227 L 26.158609 76.725939 L 26.455763 76.399186 L 26.752933 76.074940 L 27.050116 75.753173 L 27.347309 75.433859 L 27.644509 75.116969 L 27.941715 74.802477 L 28.238922 74.490358 L 28.536131 74.180584 L 28.833338 73.873131 L 29.130542 73.567974 L 29.427742 73.265087 L 29.724936 72.964446 L 30.022123 72.666027 L 30.319303 72.369806 L 30.616475 72.075760 L 30.913637 71.783866 L 31.210791 71.494101 L 31.507935 71.206442 L 31.805069 70.920868 L 32.102195 70.637356 L 32.399311 70.355885 L 32.696419 70.076434 L 32.993519 69.798982 L 33.290612 69.523509 L 33.587698 69.249993 L 33.884779 68.978415 L 34.181856 68.708756 L 34.478929 68.440995 L 34.776002 68.175114 L 35.073074 67.911093 L 35.370147 67.648915 L 35.667224 67.388560 L 35.964306 67.130010 L 36.261396 66.873249 L 36.558494 66.618258 L 36.855604 66.365019 L 37.152728 66.113516 L 37.449868 65.863732 L 37.747026 65.615650 L 38.044206 65.369254 L 38.341410 65.124527 L 38.638641 64.881455 L 38.935902 64.640020 L 39.233195 64.400208 L 39.530524 64.162004 L 39.827892 63.925392 L 40.125302 63.690358 L 40.422758 63.456887 L 40.720263 63.224964 L 41.017820 62.994577 L 41.315433 62.765710 L 41.613106 62.538350 L 41.910842 62.312483 L 42.208646 62.088096 L 42.506520 61.865177 L 42.804470 61.643711 L 43.102499 61.423686 L 43.400611 61.205091 L 43.698811 60.987911 L 43.997102 60.772136 L 44.295489 60.557753 L 44.593977 60.344750 L 44.892569 60.133116 L 45.191270 59.922840 L 45.490086 59.713909 L 45.789019 59.506313 L 46.088076 59.300041 L 46.387261 59.095082 L 46.686579 58.891426 L 46.986034 58.689061 L 47.285632 58.487979 L 47.585377 58.288168 L 47.885275 58.089619 L 48.185330 57.892323 L 48.485549 57.696268 L 48.785935 57.501447 L 49.086495 57.307849 L 49.387234 57.115465 L 49.688156 56.924287 L 49.989269 56.734305 L 50.290576 56.545512 L 50.592084 56.357897 L 50.893798 56.171454 L 51.195725 55.986173 L 51.497868 55.802046 L 51.800235 55.619066 L 52.102832 55.437225 L 52.405663 55.256514 L 52.708735 55.076927 L 53.012055 54.898456 L 53.315627 54.721093 L 53.619459 54.544832 L 53.923556 54.369665 L 54.227924 54.195586 L 54.532570 54.022588 L 54.837499 53.850664 L 55.142720 53.679807 L 55.448236 53.510012 L 55.754056 53.341272 L 56.060186 53.173581 L 56.366632 53.006933 L 56.673401 52.841323 L 56.980499 52.676743 L 57.287933 52.513190 L 57.595710 52.350657 L 57.903837 52.189139 L 58.212321 52.028631 L 58.521168 51.869127 L 58.830385 51.710624 L 59.139980 51.553115 L 59.449960 51.396596 L 59.760331 51.241063 L 60.071101 51.086511 L 60.382277 50.932936 L 60.693867 50.780333 L 61.005877 50.628699 L 61.318316 50.478028 L 61.631190 50.328319 L 61.944507 50.179566 L 62.258276 50.031766 L 62.572502 49.884915 L 62.887194 49.739011 L 63.202360 49.594049 L 63.518008 49.450027 L 63.834145 49.306941 L 64.150779 49.164789 L 64.467918 49.023568 L 64.785571 48.883275 L 65.103745 48.743907 L 65.422449 48.605462 L 65.741690 48.467938 L 66.061477 48.331333 L 66.381818 48.195644 L 66.702723 48.060869 L 67.024198 47.927006 L 67.346253 47.794055 L 67.668896 47.662012 L 67.992136 47.530877 L 68.315982 47.400648 L 68.640442 47.271324 L 68.965526 47.142904 L 69.291241 47.015386 L 69.617598 46.888771 L 69.944604 46.763056 L 70.272270 46.638242 L 70.600604 46.514327 L 70.929616 46.391312 L 71.259315 46.269196 L 71.589711 46.147979 L 71.920812 46.027661 L 72.252628 45.908242 L 72.585170 45.789722 L 72.918446 45.672102 L 73.252467 45.555382 L 73.587242 45.439563 L 73.922781 45.324644 L 74.259094 45.210629 L 74.596192 45.097516 L 74.934084 44.985308 L 75.272780 44.874006 L 75.612292 44.763610 L 75.952629 44.654124 L 76.293801 44.545547 L 76.635820 44.437883 L 76.978696 44.331133 L 77.322439 44.225299 L 77.667061 44.120384 L 78.012573 44.016390 L 78.358984 43.913319 L 78.706307 43.811174 L 79.054553 43.709959 L 79.403733 43.609675 L 79.753858 43.510327 L 80.104939 43.411917 L 80.456989 43.314449 L 80.810018 43.217926 L 81.164039 43.122353 L 81.519063 43.027734 L 81.875102 42.934071 L 82.232168 42.841371 L 82.590274 42.749636 L 82.949431 42.658873 L 83.309652 42.569085 L 83.670950 42.480277 L 84.033336 42.392455 L 84.396823 42.305625 L 84.761425 42.219790 L 85.127153 42.134959 L 85.494021 42.051135 L 85.862043 41.968325 L 86.231230 41.886536 L 86.601596 41.805774 L 86.973156 41.726045 L 87.345921 41.647357 L 87.719906 41.569717 L 88.095125 41.493131 L 88.471591 41.417607 L 88.849318 41.343154 L 89.228321 41.269779 L 89.608613 41.197489 L 89.990209 41.126294 L 90.373124 41.056202 L 90.757371 40.987222 L 91.142966 40.919363 L 91.529923 40.852634 L 91.918257 40.787045 L 92.307984 40.722606 L 92.699118 40.659326 L 93.091675 40.597216 L 93.485670 40.536286 L 93.881119 40.476548 L 94.278038 40.418013 L 94.676442 40.360691 L 95.076347 40.304594 L 95.477770 40.249735 L 95.880727 40.196125 L 96.285233 40.143778 L 96.691307 40.092705 L 97.098963 40.042920 L 97.508220 39.994437 L 97.919094 39.947269 L 98.331602 39.901430 L 98.745761 39.856935 L 99.161590 39.813798 L 99.579104 39.772035 L 99.998322 39.731660 L 100.419263 39.692691 L 100.841942 39.655141 L 101.266380 39.619029 L 101.692594 39.584371 L 102.120602 39.551185 L 102.550424 39.519487 L 102.982077 39.489296 L 103.415581 39.460631 L 103.850954 39.433509 L 104.288216 39.407952 L 104.727387 39.383977 L 105.168485 39.361605 L 105.611530 39.340858 L 106.056542 39.321755 L 106.503541 39.304318 L 106.952547 39.288570 L 107.403581 39.274532 L 107.856662 39.262227 L 108.311811 39.251680 L 108.769049 39.242913 L 109.228396 39.235951 L 109.689875 39.230820 L 110.153505 39.227544 L 110.619309 39.226150 L 111.087307 39.226665 L 111.557521 39.229115 L 112.029973 39.233528 L 112.504685 39.239933 L 112.981679 39.248358 L 113.460977 39.258834 L 113.942602 39.271390 L 114.426575 39.286058 L 114.912920 39.302869 L 115.401659 39.321854 L 115.892816 39.343048 L 116.386412 39.366484 L 116.882472 39.392195 L 117.381018 39.420218 L 117.882074 39.450588 L 118.385664 39.483341 L 118.891811 39.518515 L 119.400538 39.556148 L 119.911871 39.596280 L 120.425832 39.638949 L 120.942445 39.684197 L 121.461736 39.732065 L 121.983728 39.782596 L 122.508445 39.835833 L 123.035912 39.891820 L 123.566154 39.950603 L 124.099194 40.012227 L 124.635059 40.076740 L 125.173771 40.144190 L 125.715356 40.214626 L 126.259840 40.288099 L 126.807245 40.364660 L 127.357598 40.444361 L 127.691290 40.494353" fill="none" id="tattoo-path-e00dced263f71a81" stroke="#000000" stroke-linecap="round" stroke-linejoin="round" stroke-width="2.500000"/>
  <path clip-path="url(#tattoo-band-layer-clip)" d="M 100.013879 130.062370 L 99.758373 129.680768 L 99.450574 129.219948 L 99.145631 128.762299 L 98.843495 128.307773 L 98.544117 127.856322 L 98.247450 127.407898 L 97.953449 126.962457 L 97.662067 126.519952 L 97.373262 126.080339 L 97.086989 125.643574 L 96.803206 125.209614 L 96.521872 124.778417 L 96.242946 124.349942 L 95.966388 123.924146 L 95.692160 123.500991 L 95.420223 123.080437 L 95.150540 122.662444 L 94.883074 122.246976 L 94.617789 121.833993 L 94.354650 121.423459 L 94.093622 121.015338 L 93.834672 120.609593 L 93.577766 120.206191 L 93.322872 119.805095 L 93.069958 119.406272 L 92.818992 119.009689 L 92.569944 118.615312 L 92.322784 118.223108 L 92.077482 117.833046 L 91.834010 117.445095 L 91.592338 117.059223 L 91.352438 116.675399 L 91.114285 116.293594 L 90.877849 115.913777 L 90.643106 115.535921 L 90.410028 115.159995 L 90.178592 114.785971 L 89.948771 114.413823 L 89.720541 114.043521 L 89.493878 113.675039 L 89.268758 113.308351 L 89.045159 112.943429 L 88.823056 112.580248 L 88.602429 112.218782 L 88.383254 111.859007 L 88.165509 111.500896 L 87.949175 111.144426 L 87.734229 110.789572 L 87.520651 110.436311 L 87.308421 110.084619 L 87.097519 109.734472 L 86.887925 109.385849 L 86.679620 109.038725 L 86.472586 108.693079 L 86.266802 108.348889 L 86.062253 108.006133 L 85.858918 107.664789 L 85.656780 107.324837 L 85.455823 106.986255 L 85.256029 106.649023 L 85.057380 106.313120 L 84.859861 105.978527 L 84.663455 105.645223 L 84.468145 105.313189 L 84.273917 104.982405 L 84.080754 104.652852 L 83.888641 104.324511 L 83.697563 103.997364 L 83.507505 103.671392 L 83.318453 103.346577 L 83.130391 103.022900 L 82.943306 102.700344 L 82.757183 102.378891 L 82.572010 102.058523 L 82.387771 101.739224 L 82.204454 101.420976 L 82.022046 101.103763 L 81.840533 100.787567 L 81.659903 100.472372 L 81.480142 100.158162 L 81.301240 99.844921 L 81.123182 99.532632 L 80.945957 99.221280 L 80.769554 98.910848 L 80.593960 98.601323 L 80.419163 98.292687 L 80.245153 97.984927 L 80.071917 97.678026 L 79.899445 97.371970 L 79.727725 97.066744 L 79.556748 96.762334 L 79.386501 96.458725 L 79.216975 96.155902 L 79.048158 95.853852 L 78.880042 95.552559 L 78.712614 95.252011 L 78.545866 94.952194 L 78.379788 94.653093 L 78.214369 94.354694 L 78.049600 94.056986 L 77.885472 93.759953 L 77.721974 93.463583 L 77.559098 93.167863 L 77.396835 92.872779 L 77.235174 92.578318 L 77.074108 92.284468 L 76.913628 91.991216 L 76.753724 91.698549 L 76.594387 91.406454 L 76.435611 91.114919 L 76.277385 90.823932 L 76.119701 90.533480 L 75.962552 90.243551 L 75.805928 89.954133 L 75.649823 89.665214 L 75.494227 89.376781 L 75.339133 89.088823 L 75.184533 88.801328 L 75.030419 88.514284 L 74.876784 88.227679 L 74.723619 87.941502 L 74.570919 87.655741 L 74.418674 87.370384 L 74.266877 87.085421 L 74.115523 86.800839 L 73.964602 86.516628 L 73.814108 86.232776 L 73.664034 85.949271 L 73.514372 85.666103 L 73.365117 85.383261 L 73.216260 85.100733 L 73.067796 84.818508 L 72.919717 84.536576 L 72.772017 84.254925 L 72.624689 83.973545 L 72.477727 83.692424 L 72.331123 83.411553 L 72.184873 83.130919 L 72.038968 82.850512 L 71.893403 82.570322 L 71.748171 82.290338 L 71.603267 82.010549 L 71.458684 81.730945 L 71.314416 81.451514 L 71.170457 81.172247 L 71.026801 80.893133 L 70.883441 80.614161 L 70.740372 80.335321 L 70.597588 80.056602 L 70.455084 79.777994 L 70.312852 79.499486 L 70.170889 79.221069 L 70.029187 78.942730 L 69.887741 78.664461 L 69.746545 78.386250 L 69.605594 78.108088 L 69.464883 77.829964 L 69.324405 77.551867 L 69.184155 77.273787 L 69.044128 76.995713 L 68.904319 76.717637 L 68.764721 76.439546 L 68.625330 76.161430 L 68.486140 75.883280 L 68.347145 75.605085 L 68.208342 75.326834 L 68.069723 75.048516 L 67.931285 74.770123 L 67.793021 74.491642 L 67.654927 74.213065 L 67.516998 73.934379 L 67.379228 73.655575 L 67.241612 73.376642 L 67.104146 73.097571 L 66.966824 72.818349 L 66.829641 72.538967 L 66.692592 72.259414 L 66.555673 71.979679 L 66.418877 71.699753 L 66.282201 71.419623 L 66.145639 71.139280 L 66.009187 70.858712 L 65.872839 70.577910 L 65.736591 70.296862 L 65.600437 70.015557 L 65.464374 69.733985 L 65.328395 69.452134 L 65.192497 69.169994 L 65.056674 68.887553 L 64.920922 68.604801 L 64.785236 68.321727 L 64.649610 68.038319 L 64.514041 67.754566 L 64.378524 67.470457 L 64.243054 67.185980 L 64.107625 66.901125 L 63.972234 66.615880 L 63.836876 66.330233 L 63.701546 66.044173 L 63.566239 65.757688 L 63.430950 65.470767 L 63.295675 65.183398 L 63.160410 64.895568 L 63.025148 64.607267 L 62.889887 64.318482 L 62.754621 64.029202 L 62.619345 63.739413 L 62.484055 63.449105 L 62.348746 63.158264 L 62.213413 62.866878 L 62.078052 62.574935 L 61.942658 62.282423 L 61.807226 61.989328 L 61.671752 61.695639 L 61.536231 61.401341 L 61.400658 61.106423 L 61.265029 60.810871 L 61.129339 60.514673 L 60.993583 60.217814 L 60.857756 59.920283 L 60.721854 59.622064 L 60.585872 59.323146 L 60.449806 59.023513 L 60.313650 58.723153 L 60.177399 58.422051 L 60.041050 58.120194 L 59.904598 57.817566 L 59.768036 57.514155 L 59.631362 57.209946 L 59.494569 56.904923 L 59.357654 56.599073 L 59.220610 56.292381 L 59.083435 55.984831 L 58.946122 55.676409 L 58.808667 55.367099 L 58.671064 55.056886 L 58.533310 54.745754 L 58.395398 54.433688 L 58.257325 54.120671 L 58.119085 53.806689 L 57.980674 53.491723 L 57.842085 53.175759 L 57.703315 52.858779 L 57.564358 52.540766 L 57.425210 52.221705 L 57.285864 51.901577 L 57.146317 51.580366 L 57.006562 51.258053 L 56.866596 50.934621 L 56.726412 50.610053 L 56.586006 50.284329 L 56.445372 49.957433 L 56.304505 49.629344 L 56.163400 49.300045 L 56.022051 48.969516 L 55.880454 48.637738 L 55.738603 48.304691 L 55.596492 47.970357 L 55.454117 47.634714 L 55.311471 47.297743 L 55.168550 46.959423 L 55.025347 46.619734 L 54.881858 46.278654 L 54.738077 45.936162 L 54.593998 45.592237 L 54.449616 45.246856 L 54.304924 44.899998 L 54.159918 44.551641 L 54.014592 44.201760 L 53.868940 43.850334 L 53.722955 43.497339 L 53.576633 43.142751 L 53.429967 42.786547 L 53.282952 42.428701 L 53.135582 42.069190 L 52.987850 41.707988 L 52.839750 41.345069 L 52.691278 40.980409 L 52.542425 40.613980 L 52.393187 40.245756 L 52.243558 39.875711 L 52.093530 39.503817 L 51.943098 39.130046 L 51.792255 38.754371 L 51.640995 38.376762 L 51.489312 37.997190 L 51.337198 37.615627 L 51.184649 37.232041 L 51.031657 36.846404 L 50.878215 36.458684 L 50.724317 36.068849 L 50.569956 35.676868 L 50.415125 35.282709 L 50.259819 34.886338 L 50.104029 34.487723 L 49.947749 34.086829 L 49.790971 33.683622 L 49.633690 33.278067 L 49.475898 32.870128 L 49.317588 32.459770 L 49.158752 32.046955 L 48.999383 31.631645 L 48.839475 31.213804 L 48.679020 30.793391 L 48.518010 30.370369 L 48.356438 29.944696 L 48.194296 29.516332 L 48.031578 29.085236 L 47.868275 28.651366 L 47.704379 28.214678 L 47.539884 27.775128 L 47.374781 27.332674 L 47.209062 26.887268 L 47.042719 26.438866 L 46.875745 25.987421 L 46.708131 25.532883 L 46.539870 25.075206 L 46.370953 24.614340 L 46.201372 24.150233 L 46.031119 23.682836 L 45.860185 23.212094 L 45.688562 22.737956 L 45.516242 22.260367 L 45.343216 21.779271 L 45.169476 21.294613 L 44.995013 20.806334 L 44.819818 20.314376 L 44.643883 19.818679 L 44.467199 19.319183 L 44.289757 18.815825 L 44.111548 18.308541 L 43.932564 17.797269 L 43.752795 17.281940 L 43.572232 16.762488 L 43.390866 16.238845 L 43.241054 15.804726" fill="none" id="tattoo-path-bbb70eabe8413922" stroke="#000000" stroke-linecap="round" stroke-linejoin="round" stroke-width="2.200000"/>
  <path clip-path="url(#tattoo-band-layer-clip)" d="M 63.576355 135.672847 L 63.540002 135.629531 L 63.183722 135.199963 L 62.831782 134.770587 L 62.484132 134.341422 L 62.140725 133.912488 L 61.801512 133.483803 L 61.466447 133.055383 L 61.135483 132.627246 L 60.808574 132.199407 L 60.485675 131.771882 L 60.166741 131.344686 L 59.851729 130.917831 L 59.540594 130.491333 L 59.233294 130.065204 L 58.929787 129.639456 L 58.630030 129.214101 L 58.333982 128.789150 L 58.041603 128.364615 L 57.752852 127.940504 L 57.467690 127.516829 L 57.186078 127.093599 L 56.907977 126.670821 L 56.633350 126.248505 L 56.362157 125.826658 L 56.094364 125.405289 L 55.829933 124.984404 L 55.568827 124.564009 L 55.311013 124.144112 L 55.056454 123.724718 L 54.805117 123.305833 L 54.556967 122.887461 L 54.311970 122.469609 L 54.070095 122.052279 L 53.831307 121.635477 L 53.595575 121.219207 L 53.362868 120.803471 L 53.133154 120.388274 L 52.906402 119.973618 L 52.682582 119.559507 L 52.461664 119.145941 L 52.243619 118.732924 L 52.028417 118.320458 L 51.816031 117.908543 L 51.606431 117.497183 L 51.399591 117.086377 L 51.195482 116.676126 L 50.994078 116.266432 L 50.795353 115.857295 L 50.599279 115.448715 L 50.405832 115.040693 L 50.214986 114.633227 L 50.026715 114.226319 L 49.840996 113.819966 L 49.657804 113.414170 L 49.477115 113.008928 L 49.298906 112.604240 L 49.123153 112.200105 L 48.949833 111.796521 L 48.778925 111.393487 L 48.610406 110.991001 L 48.444254 110.589061 L 48.280448 110.187666 L 48.118966 109.786813 L 47.959789 109.386501 L 47.802894 108.986726 L 47.648263 108.587486 L 47.495876 108.188779 L 47.345713 107.790602 L 47.197754 107.392952 L 47.051982 106.995827 L 46.908376 106.599222 L 46.766920 106.203136 L 46.627595 105.807565 L 46.490383 105.412505 L 46.355267 105.017953 L 46.222230 104.623906 L 46.091255 104.230359 L 45.962326 103.837310 L 45.835426 103.444754 L 45.710538 103.052687 L 45.587649 102.661107 L 45.466741 102.270007 L 45.347801 101.879385 L 45.230812 101.489237 L 45.115760 101.099557 L 45.002631 100.710342 L 44.891410 100.321587 L 44.782085 99.933289 L 44.674640 99.545442 L 44.569062 99.158041 L 44.465339 98.771083 L 44.363458 98.384563 L 44.263405 97.998475 L 44.165168 97.612815 L 44.068735 97.227579 L 43.974095 96.842762 L 43.881234 96.458357 L 43.790142 96.074362 L 43.700807 95.690770 L 43.613218 95.307576 L 43.527364 94.924776 L 43.443235 94.542365 L 43.360820 94.160336 L 43.280109 93.778686 L 43.201091 93.397408 L 43.123757 93.016498 L 43.048097 92.635951 L 42.974103 92.255760 L 42.901763 91.875921 L 42.831070 91.496428 L 42.762015 91.117275 L 42.694589 90.738459 L 42.628784 90.359972 L 42.564590 89.981809 L 42.502001 89.603966 L 42.441009 89.226436 L 42.381605 88.849214 L 42.323782 88.472294 L 42.267534 88.095671 L 42.212852 87.719339 L 42.159730 87.343292 L 42.108161 86.967526 L 42.058138 86.592033 L 42.009656 86.216809 L 41.962708 85.841848 L 41.917287 85.467144 L 41.873389 85.092691 L 41.831006 84.718485 L 41.790135 84.344517 L 41.750769 83.970785 L 41.712903 83.597280 L 41.676533 83.223998 L 41.641652 82.850933 L 41.608258 82.478079 L 41.576344 82.105430 L 41.545908 81.732981 L 41.516944 81.360725 L 41.489449 80.988657 L 41.463419 80.616770 L 41.438850 80.245060 L 41.415738 79.873520 L 41.394081 79.502144 L 41.373875 79.130927 L 41.355117 78.759863 L 41.337804 78.388945 L 41.321933 78.018168 L 41.307502 77.647526 L 41.294509 77.277013 L 41.282951 76.906623 L 41.272826 76.536351 L 41.264132 76.166190 L 41.256867 75.796135 L 41.251030 75.426179 L 41.246620 75.056318 L 41.243634 74.686544 L 41.242073 74.316852 L 41.241934 73.947236 L 41.243216 73.577691 L 41.245921 73.208210 L 41.250045 72.838787 L 41.255591 72.469417 L 41.262556 72.100094 L 41.270941 71.730811 L 41.280746 71.361564 L 41.291972 70.992345 L 41.304618 70.623150 L 41.318685 70.253973 L 41.334174 69.884806 L 41.351086 69.515646 L 41.369421 69.146485 L 41.389182 68.777318 L 41.410368 68.408140 L 41.432982 68.038944 L 41.457025 67.669724 L 41.482499 67.300475 L 41.509406 66.931191 L 41.537748 66.561867 L 41.567527 66.192495 L 41.598745 65.823071 L 41.631406 65.453589 L 41.665511 65.084043 L 41.701064 64.714427 L 41.738067 64.344736 L 41.776524 63.974964 L 41.816438 63.605105 L 41.857813 63.235153 L 41.900652 62.865103 L 41.944959 62.494949 L 41.990738 62.124686 L 42.037994 61.754307 L 42.086729 61.383808 L 42.136950 61.013182 L 42.188660 60.642424 L 42.241864 60.271529 L 42.296568 59.900490 L 42.352776 59.529303 L 42.410494 59.157961 L 42.469726 58.786459 L 42.530480 58.414793 L 42.592760 58.042955 L 42.656573 57.670942 L 42.721924 57.298747 L 42.788820 56.926365 L 42.857268 56.553790 L 42.927274 56.181018 L 42.998844 55.808043 L 43.071987 55.434859 L 43.146709 55.061462 L 43.223018 54.687846 L 43.300921 54.314006 L 43.380426 53.939936 L 43.461541 53.565632 L 43.544273 53.191089 L 43.628633 52.816300 L 43.714627 52.441262 L 43.802264 52.065970 L 43.891554 51.690417 L 43.982506 51.314600 L 44.075128 50.938513 L 44.169431 50.562151 L 44.265423 50.185511 L 44.363116 49.808585 L 44.462519 49.431371 L 44.563642 49.053864 L 44.666495 48.676058 L 44.771091 48.297948 L 44.877438 47.919532 L 44.985550 47.540803 L 45.095436 47.161757 L 45.207109 46.782391 L 45.320580 46.402699 L 45.435861 46.022678 L 45.552965 45.642322 L 45.671905 45.261628 L 45.792692 44.880592 L 45.915339 44.499210 L 46.039861 44.117477 L 46.166269 43.735390 L 46.294579 43.352944 L 46.424804 42.970136 L 46.556957 42.586963 L 46.691054 42.203420 L 46.827108 41.819504 L 46.965135 41.435211 L 47.105151 41.050539 L 47.247169 40.665483 L 47.391207 40.280040 L 47.537279 39.894207 L 47.685403 39.507982 L 47.835594 39.121361 L 47.987869 38.734341 L 48.142245 38.346919 L 48.298740 37.959093 L 48.457370 37.570861 L 48.618155 37.182219 L 48.781111 36.793165 L 48.946258 36.403698 L 49.113614 36.013815 L 49.283198 35.623513 L 49.455030 35.232792 L 49.629128 34.841649 L 49.805513 34.450083 L 49.984206 34.058092 L 50.165226 33.665675 L 50.348595 33.272831 L 50.534333 32.879559 L 50.722463 32.485857 L 50.913006 32.091726 L 51.105984 31.697164 L 51.301420 31.302172 L 51.499336 30.906748 L 51.699757 30.510893 L 51.902705 30.114607 L 52.108204 29.717891 L 52.316278 29.320745 L 52.526953 28.923169 L 52.740254 28.525165 L 52.956204 28.126733 L 53.174831 27.727876 L 53.396161 27.328594 L 53.620219 26.928889 L 53.847033 26.528765 L 54.076630 26.128222 L 54.309038 25.727263 L 54.544285 25.325891 L 54.782399 24.924110 L 55.023409 24.521922 L 55.267345 24.119331 L 55.514236 23.716341 L 55.764112 23.312957 L 56.017005 22.909182 L 56.272944 22.505021 L 56.531962 22.100481 L 56.794090 21.695565 L 57.059361 21.290281 L 57.327807 20.884633 L 57.599462 20.478630 L 57.874359 20.072276 L 58.152533 19.665581 L 58.434018 19.258551 L 58.718849 18.851194 L 59.007063 18.443519 L 59.298694 18.035535 L 59.593780 17.627252 L 59.892358 17.218678 L 60.194464 16.809825 L 60.500138 16.400702 L 60.809418 15.991322 L 61.122343 15.581695 L 61.438953 15.171835 L 61.759287 14.761753 L 62.083387 14.351463 L 62.411293 13.940979 L 62.743048 13.530316 L 63.078692 13.119488 L 63.418271 12.708510 L 63.761826 12.297400 L 64.109401 11.886175 L 64.461042 11.474850 L 64.816792 11.063446 L 65.176699 10.651980 L 65.540807 10.240473 L 65.909163 9.828944 L 66.281815 9.417415 L 66.658811 9.005907 L 66.697252 8.964434" fill="none" id="tattoo-path-c1263f0a0af4eb58" stroke="#000000" stroke-linecap="round" stroke-linejoin="round" stroke-width="1.900000"/>
  <path clip-path="url(#tattoo-band-layer-clip)" d="M 33.233136 122.784723 L 33.598708 122.695370 L 34.138007 122.560779 L 34.673382 122.424423 L 35.204878 122.286339 L 35.732536 122.146565 L 36.256399 122.005139 L 36.776510 121.862097 L 37.292909 121.717472 L 37.805638 121.571300 L 38.314737 121.423613 L 38.820246 121.274444 L 39.322206 121.123824 L 39.820655 120.971784 L 40.315632 120.818353 L 40.807177 120.663561 L 41.295326 120.507435 L 41.780117 120.350004 L 42.261588 120.191294 L 42.739774 120.031331 L 43.214714 119.870141 L 43.686442 119.707748 L 44.154993 119.544176 L 44.620404 119.379448 L 45.082708 119.213588 L 45.541940 119.046618 L 45.998134 118.878558 L 46.451324 118.709431 L 46.901541 118.539256 L 47.348820 118.368053 L 47.793192 118.195842 L 48.234690 118.022642 L 48.673344 117.848469 L 49.109187 117.673344 L 49.542248 117.497281 L 49.972559 117.320299 L 50.400149 117.142414 L 50.825049 116.963641 L 51.247287 116.783996 L 51.666893 116.603493 L 52.083896 116.422148 L 52.498323 116.239974 L 52.910203 116.056985 L 53.319563 115.873194 L 53.726431 115.688615 L 54.130834 115.503259 L 54.532799 115.317139 L 54.932351 115.130267 L 55.329518 114.942653 L 55.724324 114.754310 L 56.116795 114.565247 L 56.506957 114.375476 L 56.894833 114.185005 L 57.280450 113.993846 L 57.663830 113.802007 L 58.044998 113.609498 L 58.423978 113.416327 L 58.800792 113.222502 L 59.175465 113.028033 L 59.548018 112.832927 L 59.918475 112.637192 L 60.286857 112.440834 L 60.653187 112.243863 L 61.017486 112.046283 L 61.379777 111.848102 L 61.740079 111.649327 L 62.098414 111.449963 L 62.454803 111.250017 L 62.809266 111.049493 L 63.161824 110.848399 L 63.512496 110.646738 L 63.861302 110.444516 L 64.208261 110.241737 L 64.553394 110.038407 L 64.896719 109.834530 L 65.238254 109.630110 L 65.578018 109.425150 L 65.916030 109.219655 L 66.252308 109.013629 L 66.586870 108.807075 L 66.919733 108.599995 L 67.250915 108.392394 L 67.580433 108.184274 L 67.908304 107.975637 L 68.234545 107.766487 L 68.559173 107.556826 L 68.882204 107.346656 L 69.203655 107.135978 L 69.523541 106.924796 L 69.841879 106.713110 L 70.158684 106.500923 L 70.473971 106.288236 L 70.787756 106.075049 L 71.100055 105.861365 L 71.410881 105.647185 L 71.720250 105.432508 L 72.028177 105.217336 L 72.334675 105.001670 L 72.639760 104.785510 L 72.943444 104.568856 L 73.245743 104.351709 L 73.546669 104.134068 L 73.846237 103.915934 L 74.144460 103.697307 L 74.441350 103.478186 L 74.736921 103.258570 L 75.031187 103.038459 L 75.324159 102.817854 L 75.615851 102.596751 L 75.906275 102.375152 L 76.195443 102.153055 L 76.483367 101.930459 L 76.770060 101.707362 L 77.055533 101.483764 L 77.339798 101.259662 L 77.622867 101.035056 L 77.904751 100.809943 L 78.185461 100.584323 L 78.465008 100.358192 L 78.743405 100.131550 L 79.020661 99.904394 L 79.296787 99.676722 L 79.571794 99.448531 L 79.845692 99.219820 L 80.118493 98.990586 L 80.390205 98.760826 L 80.660839 98.530538 L 80.930406 98.299719 L 81.198915 98.068366 L 81.466375 97.836477 L 81.732797 97.604047 L 81.998190 97.371075 L 82.262563 97.137557 L 82.525925 96.903489 L 82.788287 96.668868 L 83.049656 96.433692 L 83.310041 96.197955 L 83.569452 95.961655 L 83.827898 95.724788 L 84.085386 95.487350 L 84.341925 95.249337 L 84.597523 95.010745 L 84.852190 94.771570 L 85.105932 94.531808 L 85.358758 94.291454 L 85.610676 94.050505 L 85.861693 93.808955 L 86.111818 93.566800 L 86.361058 93.324036 L 86.609420 93.080658 L 86.856912 92.836661 L 87.103541 92.592040 L 87.349314 92.346790 L 87.594239 92.100907 L 87.838322 91.854385 L 88.081570 91.607218 L 88.323990 91.359402 L 88.565588 91.110931 L 88.806372 90.861800 L 89.046348 90.612003 L 89.285521 90.361534 L 89.523899 90.110388 L 89.761487 89.858559 L 89.998292 89.606041 L 90.234320 89.352828 L 90.469576 89.098913 L 90.704066 88.844292 L 90.937797 88.588957 L 91.170773 88.332902 L 91.403000 88.076120 L 91.634483 87.818606 L 91.865229 87.560352 L 92.095241 87.301351 L 92.324526 87.041598 L 92.553087 86.781085 L 92.780931 86.519805 L 93.008062 86.257750 L 93.234485 85.994915 L 93.460204 85.731291 L 93.685224 85.466871 L 93.909550 85.201648 L 94.133185 84.935614 L 94.356135 84.668762 L 94.578403 84.401083 L 94.799993 84.132571 L 95.020910 83.863216 L 95.241157 83.593012 L 95.460738 83.321949 L 95.679657 83.050020 L 95.897918 82.777216 L 96.115523 82.503529 L 96.332477 82.228950 L 96.548783 81.953471 L 96.764443 81.677082 L 96.979462 81.399776 L 97.193842 81.121543 L 97.407586 80.842374 L 97.620697 80.562260 L 97.833178 80.281191 L 98.045031 79.999159 L 98.256259 79.716154 L 98.466864 79.432165 L 98.676849 79.147184 L 98.886216 78.861201 L 99.094967 78.574205 L 99.303104 78.286186 L 99.510629 77.997135 L 99.717544 77.707042 L 99.923851 77.415894 L 100.129551 77.123683 L 100.334645 76.830398 L 100.539136 76.536027 L 100.743024 76.240560 L 100.946311 75.943985 L 101.148998 75.646292 L 101.351085 75.347470 L 101.552573 75.047506 L 101.753464 74.746390 L 101.953758 74.444109 L 102.153455 74.140653 L 102.352555 73.836008 L 102.551060 73.530163 L 102.748968 73.223105 L 102.946281 72.914823 L 103.142998 72.605303 L 103.339118 72.294534 L 103.534642 71.982502 L 103.729569 71.669194 L 103.923898 71.354598 L 104.117628 71.038699 L 104.310759 70.721486 L 104.503290 70.402943 L 104.695218 70.083058 L 104.886544 69.761817 L 105.077266 69.439205 L 105.267381 69.115208 L 105.456889 68.789813 L 105.645787 68.463004 L 105.834074 68.134767 L 106.021746 67.805088 L 106.208802 67.473950 L 106.395240 67.141340 L 106.581056 66.807241 L 106.766248 66.471638 L 106.950812 66.134516 L 107.134746 65.795858 L 107.318046 65.455649 L 107.500709 65.113872 L 107.682731 64.770511 L 107.864107 64.425549 L 108.044835 64.078970 L 108.224909 63.730756 L 108.404326 63.380890 L 108.583080 63.029356 L 108.761167 62.676134 L 108.938581 62.321208 L 109.115318 61.964560 L 109.291372 61.606171 L 109.466737 61.246023 L 109.641408 60.884097 L 109.815378 60.520375 L 109.988640 60.154837 L 110.161189 59.787464 L 110.333018 59.418237 L 110.504119 59.047136 L 110.674485 58.674141 L 110.844109 58.299231 L 111.012983 57.922387 L 111.181098 57.543588 L 111.348446 57.162812 L 111.515020 56.780039 L 111.680809 56.395248 L 111.845805 56.008416 L 112.009998 55.619523 L 112.173379 55.228545 L 112.335938 54.835460 L 112.497663 54.440246 L 112.658545 54.042881 L 112.818572 53.643339 L 112.977734 53.241600 L 113.136018 52.837637 L 113.293412 52.431429 L 113.449905 52.022950 L 113.605483 51.612176 L 113.760133 51.199082 L 113.913843 50.783643 L 114.066597 50.365833 L 114.218383 49.945628 L 114.369184 49.523001 L 114.518988 49.097926 L 114.667777 48.670376 L 114.815536 48.240324 L 114.962248 47.807744 L 115.107898 47.372607 L 115.252468 46.934887 L 115.395939 46.494555 L 115.538295 46.051582 L 115.679516 45.605940 L 115.819584 45.157600 L 115.958478 44.706532 L 116.096179 44.252707 L 116.232665 43.796095 L 116.367916 43.336665 L 116.501910 42.874387 L 116.634624 42.409229 L 116.766036 41.941161 L 116.896122 41.470150 L 117.024857 40.996165 L 117.152218 40.519173 L 117.278178 40.039141 L 117.402712 39.556037 L 117.525792 39.069826 L 117.647391 38.580475 L 117.767482 38.087949 L 117.886035 37.592215 L 118.003020 37.093237 L 118.118407 36.590980 L 118.232166 36.085409 L 118.344263 35.576486 L 118.454666 35.064177 L 118.563343 34.548444 L 118.670257 34.029249 L 118.775374 33.506557 L 118.878658 32.980328 L 118.980071 32.450525 L 119.079575 31.917108 L 119.177131 31.380040 L 119.272699 30.839280 L 119.366239 30.294789 L 119.457707 29.746527 L 119.517834 29.375028" fill="none" id="tattoo-path-458710a096894843" stroke="#000000" stroke-linecap="round" stroke-linejoin="round" stroke-width="1.600000"/>
  <path clip-path="url(#tattoo-band-layer-clip)" d="M 135.921453 79.439686 L 135.429925 79.438199 L 134.876043 79.436065 L 134.326401 79.433496 L 133.780932 79.430502 L 133.239567 79.427093 L 132.702241 79.423278 L 132.168889 79.419066 L 131.639447 79.414466 L 131.113854 79.409487 L 130.592048 79.404137 L 130.073968 79.398425 L 129.559557 79.392358 L 129.048757 79.385943 L 128.541510 79.379189 L 128.037761 79.372102 L 127.537456 79.364690 L 127.040540 79.356959 L 126.546962 79.348917 L 126.056670 79.340568 L 125.569612 79.331921 L 125.085739 79.322980 L 124.605001 79.313752 L 124.127352 79.304243 L 123.652743 79.294457 L 123.181127 79.284401 L 122.712460 79.274080 L 122.246696 79.263498 L 121.783791 79.252662 L 121.323702 79.241575 L 120.866386 79.230242 L 120.411802 79.218668 L 119.959907 79.206858 L 119.510661 79.194815 L 119.064025 79.182545 L 118.619960 79.170050 L 118.178426 79.157335 L 117.739385 79.144404 L 117.302801 79.131261 L 116.868637 79.117908 L 116.436856 79.104351 L 116.007422 79.090591 L 115.580302 79.076633 L 115.155459 79.062480 L 114.732861 79.048134 L 114.312473 79.033599 L 113.894264 79.018879 L 113.478200 79.003975 L 113.064249 78.988890 L 112.652380 78.973628 L 112.242562 78.958191 L 111.834764 78.942581 L 111.428957 78.926801 L 111.025111 78.910854 L 110.623196 78.894741 L 110.223183 78.878465 L 109.825045 78.862029 L 109.428753 78.845433 L 109.034280 78.828682 L 108.641599 78.811775 L 108.250681 78.794717 L 107.861503 78.777507 L 107.474036 78.760149 L 107.088255 78.742643 L 106.704136 78.724992 L 106.321652 78.707198 L 105.940780 78.689261 L 105.561494 78.671184 L 105.183772 78.652968 L 104.807588 78.634614 L 104.432920 78.616124 L 104.059744 78.597499 L 103.688037 78.578741 L 103.317778 78.559851 L 102.948944 78.540830 L 102.581512 78.521679 L 102.215461 78.502399 L 101.850769 78.482992 L 101.487416 78.463458 L 101.125380 78.443799 L 100.764641 78.424016 L 100.405178 78.404108 L 100.046971 78.384079 L 99.690000 78.363927 L 99.334245 78.343655 L 98.979687 78.323263 L 98.626306 78.302751 L 98.274083 78.282120 L 97.923000 78.261372 L 97.573038 78.240506 L 97.224177 78.219524 L 96.876401 78.198425 L 96.529690 78.177211 L 96.184028 78.155883 L 95.839395 78.134439 L 95.495776 78.112882 L 95.153152 78.091211 L 94.811506 78.069427 L 94.470821 78.047530 L 94.131081 78.025521 L 93.792268 78.003400 L 93.454366 77.981167 L 93.117359 77.958822 L 92.781231 77.936367 L 92.445966 77.913800 L 92.111547 77.891123 L 91.777959 77.868335 L 91.445186 77.845436 L 91.113213 77.822427 L 90.782024 77.799308 L 90.451605 77.776079 L 90.121940 77.752740 L 89.793014 77.729290 L 89.464812 77.705731 L 89.137319 77.682061 L 88.810522 77.658281 L 88.484405 77.634391 L 88.158954 77.610391 L 87.834155 77.586281 L 87.509994 77.562059 L 87.186456 77.537728 L 86.863528 77.513285 L 86.541195 77.488732 L 86.219445 77.464067 L 85.898262 77.439291 L 85.577635 77.414403 L 85.257548 77.389403 L 84.937989 77.364291 L 84.618945 77.339066 L 84.300402 77.313728 L 83.982347 77.288277 L 83.664766 77.262712 L 83.347648 77.237034 L 83.030978 77.211240 L 82.714745 77.185332 L 82.398934 77.159309 L 82.083535 77.133170 L 81.768533 77.106914 L 81.453916 77.080542 L 81.139672 77.054052 L 80.825788 77.027444 L 80.512251 77.000718 L 80.199050 76.973873 L 79.886172 76.946908 L 79.573605 76.919823 L 79.261336 76.892616 L 78.949353 76.865289 L 78.637644 76.837838 L 78.326197 76.810265 L 78.015000 76.782568 L 77.704041 76.754747 L 77.393308 76.726800 L 77.082789 76.698727 L 76.772471 76.670527 L 76.462344 76.642200 L 76.152395 76.613744 L 75.842612 76.585159 L 75.532983 76.556443 L 75.223498 76.527596 L 74.914143 76.498617 L 74.604907 76.469505 L 74.295779 76.440259 L 73.986747 76.410878 L 73.677799 76.381361 L 73.368922 76.351707 L 73.060107 76.321915 L 72.751341 76.291984 L 72.442611 76.261912 L 72.133908 76.231699 L 71.825218 76.201344 L 71.516531 76.170845 L 71.207835 76.140201 L 70.899117 76.109411 L 70.590367 76.078474 L 70.281572 76.047388 L 69.972722 76.016153 L 69.663804 75.984767 L 69.354806 75.953228 L 69.045718 75.921535 L 68.736526 75.889688 L 68.427221 75.857684 L 68.117789 75.825522 L 67.808219 75.793201 L 67.498499 75.760720 L 67.188617 75.728076 L 66.878562 75.695268 L 66.568322 75.662295 L 66.257885 75.629156 L 65.947238 75.595848 L 65.636371 75.562370 L 65.325270 75.528721 L 65.013924 75.494898 L 64.702322 75.460900 L 64.390450 75.426726 L 64.078296 75.392373 L 63.765850 75.357840 L 63.453097 75.323126 L 63.140026 75.288227 L 62.826625 75.253143 L 62.512882 75.217871 L 62.198783 75.182409 L 61.884316 75.146757 L 61.569470 75.110911 L 61.254230 75.074869 L 60.938585 75.038630 L 60.622523 75.002192 L 60.306029 74.965552 L 59.989091 74.928708 L 59.671697 74.891658 L 59.353833 74.854400 L 59.035487 74.816931 L 58.716644 74.779250 L 58.397293 74.741354 L 58.077419 74.703240 L 57.757009 74.664907 L 57.436050 74.626352 L 57.114528 74.587572 L 56.792430 74.548564 L 56.469742 74.509327 L 56.146450 74.469858 L 55.822539 74.430154 L 55.497997 74.390212 L 55.172809 74.350030 L 54.846961 74.309604 L 54.520437 74.268933 L 54.193225 74.228013 L 53.865309 74.186842 L 53.536675 74.145416 L 53.207308 74.103732 L 52.877192 74.061788 L 52.546314 74.019580 L 52.214657 73.977105 L 51.882207 73.934361 L 51.548948 73.891343 L 51.214864 73.848048 L 50.879940 73.804474 L 50.544160 73.760617 L 50.207507 73.716472 L 49.869967 73.672038 L 49.531522 73.627310 L 49.192156 73.582284 L 48.851853 73.536958 L 48.510595 73.491326 L 48.168366 73.445386 L 47.825148 73.399134 L 47.480925 73.352565 L 47.135679 73.305675 L 46.789392 73.258462 L 46.442047 73.210919 L 46.093625 73.163044 L 45.744108 73.114831 L 45.393478 73.066277 L 45.041717 73.017377 L 44.688805 72.968127 L 44.334723 72.918522 L 43.979453 72.868557 L 43.622974 72.818228 L 43.265268 72.767530 L 42.906314 72.716457 L 42.546092 72.665006 L 42.184582 72.613170 L 41.821763 72.560945 L 41.457614 72.508326 L 41.092115 72.455306 L 40.725244 72.401882 L 40.356978 72.348046 L 39.987298 72.293794 L 39.616179 72.239120 L 39.243601 72.184017 L 38.869539 72.128481 L 38.493972 72.072505 L 38.116875 72.016082 L 37.738225 71.959207 L 37.357999 71.901873 L 36.976171 71.844074 L 36.592718 71.785802 L 36.207615 71.727052 L 35.820835 71.667816 L 35.432355 71.608088 L 35.042147 71.547860 L 34.650185 71.487125 L 34.256443 71.425875 L 33.860894 71.364104 L 33.463510 71.301803 L 33.064264 71.238964 L 32.663127 71.175580 L 32.260071 71.111642 L 31.855066 71.047143 L 31.448083 70.982073 L 31.039093 70.916424 L 30.628065 70.850188 L 30.214967 70.783354 L 29.799770 70.715915 L 29.382441 70.647861 L 28.962947 70.579183 L 28.541257 70.509869 L 28.117337 70.439912 L 27.691153 70.369301 L 27.262671 70.298024 L 26.831856 70.226073 L 26.398673 70.153436 L 25.963086 70.080103 L 25.525059 70.006061 L 25.084553 69.931300 L 24.641532 69.855808 L 24.195958 69.779574 L 23.747790 69.702585 L 23.296991 69.624828 L 22.843519 69.546292 L 22.387333 69.466963 L 21.928393 69.386827 L 21.466655 69.305873 L 21.002077 69.224085 L 20.534614 69.141450 L 20.064223 69.057954 L 19.590858 68.973581 L 19.114472 68.888318 L 18.635019 68.802147 L 18.152452 68.715055 L 17.666721 68.627024 L 17.177777 68.538039 L 16.685570 68.448082 L 16.190048 68.357137 L 15.691159 68.265186 L 15.188850 68.172211 L 14.683067 68.078194 L 14.173755 67.983116 L 13.660857 67.886958 L 13.144317 67.789700 L 12.624075 67.691322 L 12.100073 67.591804 L 11.572250 67.491124 L 11.040543 67.389262 L 10.504891 67.286194 L 9.965230 67.181899 L 9.421492 67.076353 L 8.939046 66.982289" fill="none" id="tattoo-path-793986af4ba56a26" stroke="#000000" stroke-linecap="round" stroke-linejoin="round" stroke-width="1.200000"/>
  <path clip-path="url(#tattoo-band-layer-clip)" d="M 42.616596 128.868628 L 42.886952 128.501882 L 43.215281 128.055419 L 43.540603 127.611984 L 43.862968 127.171531 L 44.182428 126.734016 L 44.499032 126.299393 L 44.812828 125.867619 L 45.123863 125.438651 L 45.432185 125.012447 L 45.737838 124.588964 L 46.040866 124.168163 L 46.341314 123.750002 L 46.639223 123.334444 L 46.934637 122.921447 L 47.227594 122.510976 L 47.518137 122.102991 L 47.806303 121.697456 L 48.092132 121.294335 L 48.375662 120.893592 L 48.656928 120.495192 L 48.935968 120.099099 L 49.212817 119.705281 L 49.487511 119.313703 L 49.760082 118.924333 L 50.030565 118.537138 L 50.298993 118.152086 L 50.565398 117.769145 L 50.829812 117.388285 L 51.092265 117.009475 L 51.352789 116.632685 L 51.611413 116.257886 L 51.868166 115.885047 L 52.123078 115.514142 L 52.376177 115.145140 L 52.627490 114.778015 L 52.877045 114.412738 L 53.124869 114.049284 L 53.370988 113.687625 L 53.615428 113.327734 L 53.858214 112.969586 L 54.099371 112.613156 L 54.338924 112.258418 L 54.576897 111.905348 L 54.813314 111.553920 L 55.048197 111.204111 L 55.281570 110.855897 L 55.513455 110.509255 L 55.743875 110.164160 L 55.972850 109.820592 L 56.200403 109.478526 L 56.426554 109.137940 L 56.651324 108.798814 L 56.874733 108.461124 L 57.096802 108.124850 L 57.317550 107.789971 L 57.536995 107.456465 L 57.755159 107.124312 L 57.972058 106.793493 L 58.187712 106.463986 L 58.402138 106.135772 L 58.615355 105.808831 L 58.827379 105.483144 L 59.038230 105.158693 L 59.247922 104.835457 L 59.456473 104.513419 L 59.663900 104.192560 L 59.870219 103.872862 L 60.075445 103.554307 L 60.279595 103.236878 L 60.482685 102.920555 L 60.684728 102.605323 L 60.885741 102.291164 L 61.085739 101.978062 L 61.284735 101.665998 L 61.482744 101.354957 L 61.679782 101.044923 L 61.875860 100.735878 L 62.070994 100.427807 L 62.265197 100.120695 L 62.458483 99.814525 L 62.650864 99.509281 L 62.842354 99.204949 L 63.032965 98.901513 L 63.222710 98.598957 L 63.411603 98.297268 L 63.599654 97.996430 L 63.786876 97.696429 L 63.973282 97.397249 L 64.158883 97.098877 L 64.343691 96.801298 L 64.527717 96.504499 L 64.710973 96.208465 L 64.893469 95.913182 L 65.075218 95.618637 L 65.256230 95.324816 L 65.436516 95.031705 L 65.616087 94.739291 L 65.794952 94.447561 L 65.973123 94.156502 L 66.150610 93.866101 L 66.327423 93.576344 L 66.503573 93.287219 L 66.679068 92.998713 L 66.853919 92.710813 L 67.028135 92.423507 L 67.201726 92.136783 L 67.374702 91.850628 L 67.547072 91.565029 L 67.718845 91.279975 L 67.890030 90.995454 L 68.060637 90.711453 L 68.230674 90.427960 L 68.400150 90.144965 L 68.569074 89.862454 L 68.737454 89.580416 L 68.905300 89.298839 L 69.072618 89.017713 L 69.239419 88.737025 L 69.405710 88.456764 L 69.571500 88.176919 L 69.736796 87.897478 L 69.901606 87.618431 L 70.065939 87.339765 L 70.229803 87.061470 L 70.393204 86.783535 L 70.556152 86.505949 L 70.718653 86.228700 L 70.880715 85.951779 L 71.042345 85.675173 L 71.203552 85.398873 L 71.364342 85.122867 L 71.524723 84.847145 L 71.684702 84.571695 L 71.844286 84.296509 L 72.003482 84.021574 L 72.162298 83.746880 L 72.320740 83.472417 L 72.478815 83.198175 L 72.636529 82.924142 L 72.793891 82.650308 L 72.950906 82.376664 L 73.107582 82.103198 L 73.263925 81.829900 L 73.419941 81.556760 L 73.575637 81.283768 L 73.731019 81.010913 L 73.886095 80.738185 L 74.040870 80.465574 L 74.195351 80.193070 L 74.349544 79.920662 L 74.503455 79.648341 L 74.657091 79.376095 L 74.810457 79.103915 L 74.963560 78.831791 L 75.116406 78.559713 L 75.269001 78.287670 L 75.421352 78.015652 L 75.573463 77.743649 L 75.725341 77.471651 L 75.876991 77.199649 L 76.028421 76.927631 L 76.179635 76.655587 L 76.330639 76.383508 L 76.481440 76.111384 L 76.632042 75.839203 L 76.782452 75.566957 L 76.932675 75.294634 L 77.082717 75.022225 L 77.232584 74.749719 L 77.382281 74.477107 L 77.531814 74.204378 L 77.681187 73.931521 L 77.830408 73.658527 L 77.979481 73.385385 L 78.128412 73.112085 L 78.277206 72.838616 L 78.425869 72.564969 L 78.574406 72.291132 L 78.722822 72.017096 L 78.871123 71.742850 L 79.019315 71.468383 L 79.167402 71.193686 L 79.315390 70.918747 L 79.463285 70.643555 L 79.611091 70.368101 L 79.758814 70.092373 L 79.906459 69.816362 L 80.054031 69.540055 L 80.201536 69.263443 L 80.348979 68.986514 L 80.496365 68.709258 L 80.643699 68.431664 L 80.790987 68.153720 L 80.938234 67.875416 L 81.085445 67.596741 L 81.232624 67.317683 L 81.379778 67.038232 L 81.526912 66.758375 L 81.674030 66.478102 L 81.821138 66.197401 L 81.968241 65.916261 L 82.115344 65.634671 L 82.262452 65.352617 L 82.409570 65.070090 L 82.556705 64.787078 L 82.703860 64.503567 L 82.851041 64.219547 L 82.998253 63.935006 L 83.145501 63.649931 L 83.292790 63.364310 L 83.440126 63.078132 L 83.587514 62.791383 L 83.734959 62.504052 L 83.882466 62.216125 L 84.030039 61.927591 L 84.177686 61.638436 L 84.325410 61.348648 L 84.473216 61.058214 L 84.621111 60.767121 L 84.769099 60.475355 L 84.917186 60.182904 L 85.065376 59.889754 L 85.213675 59.595891 L 85.362088 59.301303 L 85.510621 59.005975 L 85.659279 58.709894 L 85.808066 58.413045 L 85.956990 58.115415 L 86.106053 57.816990 L 86.255263 57.517754 L 86.404625 57.217694 L 86.554143 56.916795 L 86.703824 56.615043 L 86.853672 56.312421 L 87.003693 56.008916 L 87.153893 55.704512 L 87.304277 55.399193 L 87.454851 55.092945 L 87.605619 54.785751 L 87.756588 54.477596 L 87.907763 54.168464 L 88.059151 53.858337 L 88.210755 53.547201 L 88.362582 53.235039 L 88.514639 52.921833 L 88.666929 52.607567 L 88.819460 52.292224 L 88.972237 51.975786 L 89.125265 51.658236 L 89.278551 51.339557 L 89.432100 51.019730 L 89.585918 50.698736 L 89.740011 50.376559 L 89.894386 50.053179 L 90.049047 49.728577 L 90.204001 49.402735 L 90.359255 49.075633 L 90.514814 48.747251 L 90.670684 48.417570 L 90.826871 48.086571 L 90.983382 47.754231 L 91.140223 47.420532 L 91.297400 47.085452 L 91.454919 46.748970 L 91.612787 46.411066 L 91.771011 46.071716 L 91.929596 45.730900 L 92.088549 45.388595 L 92.247877 45.044778 L 92.407586 44.699427 L 92.567683 44.352519 L 92.728175 44.004030 L 92.889068 43.653937 L 93.050369 43.302214 L 93.212085 42.948839 L 93.374222 42.593785 L 93.536789 42.237029 L 93.699790 41.878543 L 93.863235 41.518303 L 94.027129 41.156282 L 94.191481 40.792453 L 94.356296 40.426790 L 94.521583 40.059265 L 94.687348 39.689849 L 94.853600 39.318515 L 95.020345 38.945234 L 95.187591 38.569977 L 95.355345 38.192713 L 95.523616 37.813414 L 95.692410 37.432048 L 95.861736 37.048584 L 96.031602 36.662990 L 96.202015 36.275236 L 96.372983 35.885287 L 96.544514 35.493112 L 96.716617 35.098675 L 96.889299 34.701944 L 97.062569 34.302883 L 97.236435 33.901458 L 97.410906 33.497631 L 97.585989 33.091367 L 97.761694 32.682629 L 97.938028 32.271378 L 98.115002 31.857577 L 98.292622 31.441185 L 98.470899 31.022165 L 98.649842 30.600474 L 98.829458 30.176072 L 99.009757 29.748918 L 99.190749 29.318968 L 99.372443 28.886179 L 99.554847 28.450507 L 99.737972 28.011907 L 99.921826 27.570334 L 100.106420 27.125740 L 100.291763 26.678079 L 100.477865 26.227302 L 100.664735 25.773360 L 100.852384 25.316203 L 101.040821 24.855780 L 101.230057 24.392038 L 101.420102 23.924925 L 101.610966 23.454388 L 101.802660 22.980370 L 101.995193 22.502816 L 102.188577 22.021669 L 102.382822 21.536870 L 102.577939 21.048360 L 102.773938 20.556079 L 102.970831 20.059964 L 103.168629 19.559953 L 103.367342 19.055982 L 103.566983 18.547984 L 103.767561 18.035893 L 103.969089 17.519642 L 104.134285 17.095018" fill="none" id="tattoo-path-7d5c3b672dcae3ae" stroke="#000000" stroke-linecap="round" stroke-linejoin="round" stroke-width="1.000000"/>
  <path clip-path="url(#tattoo-band-layer-clip)" d="M 122.013036 112.735547 L 121.883171 112.450963 L 121.650710 111.946205 L 121.418129 111.445742 L 121.185442 110.949511 L 120.952664 110.457451 L 120.719807 109.969500 L 120.486884 109.485599 L 120.253907 109.005691 L 120.020886 108.529716 L 119.787834 108.057620 L 119.554760 107.589345 L 119.321674 107.124838 L 119.088586 106.664045 L 118.855505 106.206913 L 118.622438 105.753389 L 118.389394 105.303424 L 118.156381 104.856967 L 117.923406 104.413968 L 117.690475 103.974378 L 117.457595 103.538152 L 117.224773 103.105240 L 116.992013 102.675597 L 116.759322 102.249178 L 116.526704 101.825938 L 116.294164 101.405833 L 116.061707 100.988820 L 115.829336 100.574856 L 115.597056 100.163899 L 115.364870 99.755909 L 115.132781 99.350844 L 114.900793 98.948666 L 114.668907 98.549334 L 114.437128 98.152810 L 114.205456 97.759056 L 113.973895 97.368035 L 113.742445 96.979710 L 113.511109 96.594045 L 113.279888 96.211003 L 113.048783 95.830551 L 112.817796 95.452653 L 112.586926 95.077276 L 112.356175 94.704385 L 112.125543 94.333949 L 111.895030 93.965934 L 111.664637 93.600308 L 111.434364 93.237041 L 111.204209 92.876101 L 110.974174 92.517457 L 110.744257 92.161080 L 110.514458 91.806939 L 110.284776 91.455007 L 110.055210 91.105253 L 109.825759 90.757650 L 109.596422 90.412169 L 109.367198 90.068784 L 109.138085 89.727468 L 108.909081 89.388192 L 108.680185 89.050932 L 108.451396 88.715661 L 108.222711 88.382355 L 107.994128 88.050986 L 107.765646 87.721532 L 107.537262 87.393967 L 107.308973 87.068267 L 107.080778 86.744409 L 106.852674 86.422370 L 106.624659 86.102125 L 106.396730 85.783653 L 106.168883 85.466930 L 105.941118 85.151936 L 105.713429 84.838648 L 105.485815 84.527044 L 105.258273 84.217103 L 105.030800 83.908805 L 104.803391 83.602128 L 104.576045 83.297053 L 104.348757 82.993560 L 104.121525 82.691628 L 103.894344 82.391238 L 103.667212 82.092371 L 103.440125 81.795008 L 103.213079 81.499129 L 102.986071 81.204718 L 102.759097 80.911754 L 102.532152 80.620221 L 102.305234 80.330101 L 102.078338 80.041375 L 101.851460 79.754027 L 101.624596 79.468040 L 101.397742 79.183397 L 101.170895 78.900080 L 100.944049 78.618075 L 100.717201 78.337363 L 100.490346 78.057931 L 100.263481 77.779760 L 100.036600 77.502837 L 99.809699 77.227146 L 99.582774 76.952671 L 99.355820 76.679398 L 99.128833 76.407311 L 98.901808 76.136396 L 98.674740 75.866638 L 98.447625 75.598024 L 98.220458 75.330538 L 97.993235 75.064168 L 97.765949 74.798899 L 97.538598 74.534718 L 97.311175 74.271611 L 97.083675 74.009566 L 96.856095 73.748568 L 96.628428 73.488605 L 96.400669 73.229664 L 96.172814 72.971733 L 95.944858 72.714799 L 95.716795 72.458849 L 95.488619 72.203872 L 95.260326 71.949855 L 95.031911 71.696787 L 94.803368 71.444655 L 94.574691 71.193448 L 94.345875 70.943155 L 94.116915 70.693764 L 93.887806 70.445264 L 93.658540 70.197643 L 93.429114 69.950891 L 93.199522 69.704997 L 92.969757 69.459950 L 92.739814 69.215739 L 92.509687 68.972354 L 92.279371 68.729785 L 92.048859 68.488021 L 91.818146 68.247052 L 91.587226 68.006868 L 91.356092 67.767458 L 91.124739 67.528814 L 90.893162 67.290926 L 90.661352 67.053783 L 90.429306 66.817377 L 90.197015 66.581697 L 89.964475 66.346735 L 89.731678 66.112481 L 89.498619 65.878926 L 89.265292 65.646061 L 89.031688 65.413878 L 88.797804 65.182367 L 88.563631 64.951519 L 88.329163 64.721327 L 88.094393 64.491780 L 87.859316 64.262872 L 87.623924 64.034593 L 87.388211 63.806935 L 87.152169 63.579890 L 86.915792 63.353450 L 86.679074 63.127607 L 86.442006 62.902352 L 86.204582 62.677679 L 85.966796 62.453578 L 85.728639 62.230043 L 85.490105 62.007065 L 85.251186 61.784637 L 85.011876 61.562752 L 84.772167 61.341402 L 84.532051 61.120580 L 84.291521 60.900279 L 84.050570 60.680490 L 83.809190 60.461208 L 83.567373 60.242425 L 83.325112 60.024134 L 83.082399 59.806328 L 82.839226 59.589000 L 82.595585 59.372144 L 82.351469 59.155753 L 82.106869 58.939819 L 81.861777 58.724338 L 81.616186 58.509301 L 81.370086 58.294702 L 81.123470 58.080536 L 80.876329 57.866795 L 80.628655 57.653474 L 80.380440 57.440566 L 80.131674 57.228065 L 79.882350 57.015965 L 79.632458 56.804260 L 79.381989 56.592944 L 79.130936 56.382011 L 78.879288 56.171455 L 78.627037 55.961271 L 78.374174 55.751452 L 78.120689 55.541993 L 77.866574 55.332888 L 77.611818 55.124132 L 77.356412 54.915719 L 77.100348 54.707644 L 76.843615 54.499901 L 76.586203 54.292485 L 76.328103 54.085391 L 76.069304 53.878613 L 75.809798 53.672146 L 75.549573 53.465985 L 75.288619 53.260126 L 75.026927 53.054562 L 74.764485 52.849289 L 74.501283 52.644302 L 74.237311 52.439597 L 73.972558 52.235168 L 73.707013 52.031010 L 73.440665 51.827119 L 73.173503 51.623491 L 72.905516 51.420120 L 72.636693 51.217002 L 72.367022 51.014133 L 72.096491 50.811508 L 71.825090 50.609122 L 71.552806 50.406972 L 71.279627 50.205053 L 71.005542 50.003361 L 70.730538 49.801892 L 70.454602 49.600641 L 70.177724 49.399604 L 69.899889 49.198778 L 69.621086 48.998159 L 69.341302 48.797742 L 69.060523 48.597524 L 68.778736 48.397501 L 68.495929 48.197669 L 68.212087 47.998025 L 67.927198 47.798564 L 67.641247 47.599284 L 67.354221 47.400181 L 67.066105 47.201251 L 66.776886 47.002491 L 66.486549 46.803898 L 66.195079 46.605468 L 65.902463 46.407198 L 65.608684 46.209085 L 65.313729 46.011126 L 65.017581 45.813319 L 64.720226 45.615659 L 64.421647 45.418144 L 64.121829 45.220771 L 63.820757 45.023538 L 63.518413 44.826441 L 63.214781 44.629479 L 62.909846 44.432648 L 62.603590 44.235946 L 62.295996 44.039371 L 61.987047 43.842920 L 61.676725 43.646592 L 61.365014 43.450383 L 61.051895 43.254292 L 60.737349 43.058317 L 60.421360 42.862456 L 60.103908 42.666706 L 59.784974 42.471067 L 59.464540 42.275536 L 59.142585 42.080112 L 58.819092 41.884793 L 58.494039 41.689579 L 58.167408 41.494466 L 57.839176 41.299455 L 57.509325 41.104544 L 57.177833 40.909732 L 56.844679 40.715019 L 56.509842 40.520402 L 56.173299 40.325882 L 55.835030 40.131458 L 55.495011 39.937130 L 55.153220 39.742896 L 54.809635 39.548757 L 54.464231 39.354713 L 54.116986 39.160763 L 53.767875 38.966907 L 53.416875 38.773146 L 53.063961 38.579480 L 52.709108 38.385910 L 52.352290 38.192436 L 51.993483 37.999058 L 51.632659 37.805779 L 51.269794 37.612598 L 50.904860 37.419517 L 50.537830 37.226537 L 50.168677 37.033660 L 49.797373 36.840888 L 49.423889 36.648221 L 49.048197 36.455663 L 48.670268 36.263216 L 48.290072 36.070881 L 47.907579 35.878662 L 47.522759 35.686561 L 47.135581 35.494582 L 46.746014 35.302726 L 46.354026 35.110999 L 45.959584 34.919402 L 45.562656 34.727941 L 45.163209 34.536619 L 44.761209 34.345440 L 44.356622 34.154409 L 43.949412 33.963531 L 43.539545 33.772811 L 43.126984 33.582254 L 42.711694 33.391866 L 42.293637 33.201652 L 41.872776 33.011618 L 41.449072 32.821772 L 41.022488 32.632120 L 40.592982 32.442669 L 40.160517 32.253426 L 39.725050 32.064399 L 39.286541 31.875597 L 38.844948 31.687027 L 38.400229 31.498698 L 37.952339 31.310620 L 37.501236 31.122802 L 37.046874 30.935255 L 36.589208 30.747988 L 36.128192 30.561012 L 35.663780 30.374339 L 35.195923 30.187981 L 34.724574 30.001949 L 34.249682 29.816256 L 33.771199 29.630916 L 33.289074 29.445943 L 32.803254 29.261349 L 32.313687 29.077151 L 31.820320 28.893364 L 31.323099 28.710003 L 30.821969 28.527085 L 30.316873 28.344627 L 29.807754 28.162648 L 29.294555 27.981165 L 28.777216 27.800198 L 28.255679 27.619766 L 27.729881 27.439891 L 27.433556 27.339668" fill="none" id="tattoo-path-23bbf3f97de5db8d" stroke="#000000" stroke-linecap="round" stroke-linejoin="round" stroke-width="0.800000"/>
  <circle cx="72.500000" cy="72.500000" fill="none" id="tattoo-boundary-da45c61d325de3be" r="64.900000" stroke="#000000" stroke-width="2.200000"/>
</svg>
