<svg height="145.000000mm" version="1.1" viewBox="0 0 145.000000 145.000000" width="145.000000mm" xmlns="http://www.w3.org/2000/svg">
  <defs>
    <clipPath clipPathUnits="userSpaceOnUse" id="tattoo-band-layer-clip">
      <circle cx="72.500000" cy="72.500000" r="63.800000"/>
    </clipPath>
  </defs>
  <path clip-path="url(#tattoo-band-layer-clip)" d="M 135.739181 80.940736 L 135.453120 80.603710 L 135.091317 80.181953 L 134.729404 79.764495 L 134.367402 79.351285 L 134.005331 78.942273 L 133.643210 78.537407 L 133.281057 78.136638 L 132.918889 77.739916 L 132.556724 77.347194 L 132.194577 76.958424 L 131.832463 76.573558 L 131.470399 76.192550 L 131.108397 75.815355 L 130.746472 75.441927 L 130.384636 75.072222 L 130.022903 74.706195 L 129.661283 74.343804 L 129.299789 73.985006 L 128.938432 73.629759 L 128.577221 73.278021 L 128.216168 72.929752 L 127.855280 72.584911 L 127.494568 72.243458 L 127.134040 71.905355 L 126.773703 71.570563 L 126.413567 71.239044 L 126.053638 70.910759 L 125.693922 70.585674 L 125.334427 70.263749 L 124.975159 69.944951 L 124.616123 69.629244 L 124.257325 69.316592 L 123.898771 69.006961 L 123.540464 68.700318 L 123.182409 68.396629 L 122.824611 68.095861 L 122.467074 67.797982 L 122.109800 67.502959 L 121.752793 67.210762 L 121.396056 66.921359 L 121.039592 66.634720 L 120.683403 66.350814 L 120.327492 66.069612 L 119.971860 65.791084 L 119.616509 65.515203 L 119.261440 65.241938 L 118.906656 64.971263 L 118.552156 64.703150 L 118.197941 64.437571 L 117.844013 64.174500 L 117.490372 63.913910 L 117.137017 63.655776 L 116.783949 63.400072 L 116.431167 63.146772 L 116.078672 62.895852 L 115.726462 62.647288 L 115.374537 62.401054 L 115.022896 62.157128 L 114.671539 61.915486 L 114.320463 61.676105 L 113.969667 61.438962 L 113.619151 61.204035 L 113.268911 60.971301 L 112.918948 60.740740 L 112.569257 60.512330 L 112.219839 60.286049 L 111.870689 60.061877 L 111.521807 59.839794 L 111.173189 59.619779 L 110.824834 59.401813 L 110.476737 59.185875 L 110.128898 58.971948 L 109.781312 58.760012 L 109.433976 58.550048 L 109.086888 58.342038 L 108.740045 58.135964 L 108.393443 57.931808 L 108.047078 57.729552 L 107.700948 57.529181 L 107.355048 57.330675 L 107.009375 57.134020 L 106.663925 56.939198 L 106.318695 56.746193 L 105.973680 56.554989 L 105.628876 56.365570 L 105.284280 56.177922 L 104.939887 55.992029 L 104.595693 55.807876 L 104.251693 55.625448 L 103.907884 55.444732 L 103.564261 55.265711 L 103.220819 55.088374 L 102.877553 54.912705 L 102.534460 54.738692 L 102.191534 54.566321 L 101.848771 54.395579 L 101.506166 54.226452 L 101.163714 54.058930 L 100.821409 53.892998 L 100.479248 53.728645 L 100.137225 53.565858 L 99.795334 53.404627 L 99.453572 53.244938 L 99.111931 53.086782 L 98.770409 52.930146 L 98.428998 52.775020 L 98.087694 52.621392 L 97.746491 52.469253 L 97.405383 52.318591 L 97.064366 52.169397 L 96.723434 52.021660 L 96.382581 51.875370 L 96.041802 51.730518 L 95.701091 51.587095 L 95.360442 51.445090 L 95.019849 51.304495 L 94.679307 51.165301 L 94.338810 51.027499 L 93.998352 50.891080 L 93.657927 50.756036 L 93.317529 50.622359 L 92.977152 50.490040 L 92.636791 50.359072 L 92.296438 50.229446 L 91.956089 50.101155 L 91.615737 49.974192 L 91.275375 49.848549 L 90.934998 49.724220 L 90.594600 49.601196 L 90.254173 49.479472 L 89.913713 49.359041 L 89.573212 49.239896 L 89.232663 49.122030 L 88.892062 49.005439 L 88.551401 48.890115 L 88.210674 48.776052 L 87.869874 48.663246 L 87.528995 48.551690 L 87.188031 48.441378 L 86.846974 48.332307 L 86.505818 48.224469 L 86.164557 48.117862 L 85.823183 48.012479 L 85.481690 47.908315 L 85.140072 47.805367 L 84.798322 47.703630 L 84.456432 47.603100 L 84.114396 47.503772 L 83.772207 47.405642 L 83.429858 47.308707 L 83.087342 47.212963 L 82.744653 47.118406 L 82.401783 47.025033 L 82.058725 46.932841 L 81.715473 46.841826 L 81.372018 46.751986 L 81.028355 46.663317 L 80.684475 46.575817 L 80.340372 46.489483 L 79.996039 46.404313 L 79.651468 46.320305 L 79.306652 46.237455 L 78.961584 46.155763 L 78.616256 46.075226 L 78.270661 45.995843 L 77.924791 45.917611 L 77.578640 45.840530 L 77.232200 45.764597 L 76.885463 45.689813 L 76.538421 45.616175 L 76.191068 45.543683 L 75.843396 45.472336 L 75.495396 45.402133 L 75.147061 45.333073 L 74.798385 45.265157 L 74.449358 45.198384 L 74.099973 45.132754 L 73.750223 45.068267 L 73.400099 45.004923 L 73.049594 44.942722 L 72.698700 44.881665 L 72.347409 44.821752 L 71.995712 44.762985 L 71.643603 44.705363 L 71.291073 44.648889 L 70.938113 44.593562 L 70.584716 44.539385 L 70.230874 44.486358 L 69.876578 44.434484 L 69.521820 44.383764 L 69.166593 44.334200 L 68.810887 44.285794 L 68.454695 44.238548 L 68.098007 44.192464 L 67.740817 44.147546 L 67.383114 44.103795 L 67.024891 44.061214 L 66.666140 44.019806 L 66.306851 43.979575 L 65.947017 43.940523 L 65.586628 43.902654 L 65.225676 43.865971 L 64.864152 43.830478 L 64.502047 43.796180 L 64.139353 43.763079 L 63.776061 43.731180 L 63.412162 43.700488 L 63.047647 43.671007 L 62.682507 43.642741 L 62.316733 43.615696 L 61.950317 43.589877 L 61.583249 43.565288 L 61.215519 43.541935 L 60.847119 43.519824 L 60.478041 43.498960 L 60.108273 43.479349 L 59.737808 43.460998 L 59.366635 43.443912 L 58.994746 43.428097 L 58.622132 43.413562 L 58.248781 43.400311 L 57.874687 43.388353 L 57.499837 43.377694 L 57.124224 43.368343 L 56.747838 43.360305 L 56.370668 43.353590 L 55.992705 43.348205 L 55.613940 43.344159 L 55.234363 43.341459 L 54.853963 43.340114 L 54.472732 43.340134 L 54.090658 43.341526 L 53.707733 43.344301 L 53.323946 43.348468 L 52.939287 43.354037 L 52.553746 43.361016 L 52.167313 43.369418 L 51.779978 43.379251 L 51.391730 43.390526 L 51.002560 43.403255 L 50.612457 43.417448 L 50.221410 43.433117 L 49.829410 43.450273 L 49.436446 43.468929 L 49.042508 43.489095 L 48.647584 43.510785 L 48.251665 43.534010 L 47.854740 43.558785 L 47.456799 43.585121 L 47.057830 43.613033 L 46.657823 43.642534 L 46.256768 43.673637 L 45.854653 43.706358 L 45.451469 43.740711 L 45.047203 43.776710 L 44.641845 43.814370 L 44.235385 43.853708 L 43.827811 43.894739 L 43.419113 43.937478 L 43.009279 43.981942 L 42.598299 44.028148 L 42.186161 44.076113 L 41.772854 44.125854 L 41.358368 44.177389 L 40.942691 44.230736 L 40.525813 44.285913 L 40.107721 44.342938 L 39.688405 44.401832 L 39.267854 44.462613 L 38.846056 44.525301 L 38.423000 44.589917 L 37.998676 44.656480 L 37.573071 44.725013 L 37.146175 44.795535 L 36.717976 44.868070 L 36.288463 44.942639 L 35.857625 45.019264 L 35.425451 45.097969 L 34.991929 45.178778 L 34.557047 45.261713 L 34.120796 45.346800 L 33.683163 45.434063 L 33.244138 45.523527 L 32.803709 45.615218 L 32.361865 45.709162 L 31.918595 45.805387 L 31.473888 45.903918 L 31.027732 46.004783 L 30.580117 46.108012 L 30.131032 46.213632 L 29.680465 46.321672 L 29.228406 46.432163 L 28.774845 46.545134 L 28.319769 46.660617 L 27.863169 46.778642 L 27.405033 46.899242 L 26.945352 47.022450 L 26.484114 47.148298 L 26.021309 47.276819 L 25.556928 47.408050 L 25.090959 47.542024 L 24.623392 47.678776 L 24.154218 47.818344 L 23.683427 47.960764 L 23.211008 48.106074 L 22.736953 48.254312 L 22.261251 48.405517 L 21.783894 48.559728 L 21.304871 48.716986 L 20.824175 48.877332 L 20.341796 49.040808 L 19.857726 49.207457 L 19.371955 49.377321 L 18.884477 49.550445 L 18.395282 49.726873 L 17.904364 49.906652 L 17.411714 50.089828 L 16.917324 50.276449 L 16.421189 50.466562 L 15.923302 50.660217 L 15.423655 50.857463 L 14.922242 51.058352 L 14.419059 51.262936 L 13.914098 51.471266 L 13.407356 51.683397 L 12.898826 51.899382 L 12.388506 52.119279 L 11.983455 52.296341" fill="none" id="tattoo-path-adbd062472334dfc" stroke="#000000" stroke-linecap="round" stroke-linejoin="round" stroke-width="4.800000"/>
  <path clip-path="url(#tattoo-band-layer-clip)" d="M 91.470101 133.414491 L 91.441043 133.378015 L 91.094926 132.941001 L 90.752535 132.506182 L 90.413807 132.073533 L 90.078681 131.643029 L 89.747098 131.214647 L 89.418999 130.788362 L 89.094328 130.364151 L 88.773027 129.941989 L 88.455042 129.521852 L 88.140319 129.103718 L 87.828806 128.687564 L 87.520450 128.273365 L 87.215202 127.861100 L 86.913012 127.450746 L 86.613830 127.042279 L 86.317610 126.635679 L 86.024305 126.230922 L 85.733869 125.827987 L 85.446258 125.426852 L 85.161426 125.027496 L 84.879332 124.629897 L 84.599933 124.234034 L 84.323187 123.839886 L 84.049054 123.447433 L 83.777494 123.056653 L 83.508469 122.667526 L 83.241938 122.280032 L 82.977866 121.894151 L 82.716215 121.509862 L 82.456949 121.127147 L 82.200033 120.745986 L 81.945431 120.366359 L 81.693109 119.988246 L 81.443034 119.611630 L 81.195174 119.236491 L 80.949494 118.862810 L 80.705965 118.490569 L 80.464555 118.119750 L 80.225233 117.750334 L 79.987969 117.382303 L 79.752733 117.015640 L 79.519498 116.650326 L 79.288234 116.286344 L 79.058913 115.923677 L 78.831509 115.562308 L 78.605994 115.202218 L 78.382341 114.843392 L 78.160526 114.485813 L 77.940521 114.129463 L 77.722303 113.774327 L 77.505847 113.420387 L 77.291128 113.067629 L 77.078123 112.716034 L 76.866808 112.365589 L 76.657161 112.016276 L 76.449158 111.668080 L 76.242778 111.320986 L 76.037999 110.974978 L 75.834800 110.630041 L 75.633159 110.286159 L 75.433056 109.943318 L 75.234471 109.601502 L 75.037383 109.260698 L 74.841772 108.920889 L 74.647621 108.582062 L 74.454909 108.244202 L 74.263617 107.907294 L 74.073729 107.571326 L 73.885224 107.236281 L 73.698086 106.902147 L 73.512298 106.568909 L 73.327841 106.236554 L 73.144700 105.905068 L 72.962856 105.574437 L 72.782295 105.244648 L 72.603000 104.915688 L 72.424955 104.587543 L 72.248145 104.260199 L 72.072553 103.933645 L 71.898166 103.607866 L 71.724969 103.282851 L 71.552946 102.958585 L 71.382083 102.635057 L 71.212366 102.312253 L 71.043782 101.990161 L 70.876316 101.668769 L 70.709956 101.348064 L 70.544687 101.028034 L 70.380497 100.708667 L 70.217373 100.389950 L 70.055302 100.071871 L 69.894272 99.754419 L 69.734270 99.437581 L 69.575285 99.121345 L 69.417305 98.805700 L 69.260317 98.490634 L 69.104311 98.176135 L 68.949275 97.862191 L 68.795198 97.548792 L 68.642068 97.235924 L 68.489876 96.923579 L 68.338610 96.611742 L 68.188259 96.300405 L 68.038815 95.989554 L 67.890265 95.679179 L 67.742601 95.369269 L 67.595813 95.059813 L 67.449890 94.750799 L 67.304823 94.442217 L 67.160603 94.134056 L 67.017220 93.826304 L 66.874666 93.518952 L 66.732931 93.211988 L 66.592007 92.905401 L 66.451884 92.599180 L 66.312554 92.293316 L 66.174009 91.987797 L 66.036240 91.682613 L 65.899239 91.377753 L 65.762998 91.073206 L 65.627508 90.768963 L 65.492763 90.465013 L 65.358755 90.161344 L 65.225475 89.857948 L 65.092916 89.554813 L 64.961071 89.251929 L 64.829933 88.949285 L 64.699494 88.646873 L 64.569747 88.344680 L 64.440686 88.042698 L 64.312303 87.740915 L 64.184592 87.439322 L 64.057547 87.137909 L 63.931160 86.836664 L 63.805425 86.535579 L 63.680335 86.234643 L 63.555886 85.933845 L 63.432070 85.633176 L 63.308881 85.332626 L 63.186314 85.032184 L 63.064362 84.731841 L 62.943020 84.431586 L 62.822282 84.131409 L 62.702143 83.831301 L 62.582596 83.531251 L 62.463638 83.231250 L 62.345261 82.931286 L 62.227462 82.631351 L 62.110234 82.331433 L 61.993573 82.031524 L 61.877474 81.731613 L 61.761932 81.431689 L 61.646942 81.131744 L 61.532499 80.831767 L 61.418599 80.531747 L 61.305237 80.231675 L 61.192408 79.931540 L 61.080109 79.631334 L 60.968334 79.331044 L 60.857079 79.030662 L 60.746341 78.730177 L 60.636115 78.429579 L 60.526397 78.128858 L 60.417182 77.828004 L 60.308468 77.527006 L 60.200250 77.225854 L 60.092525 76.924539 L 59.985288 76.623049 L 59.878537 76.321374 L 59.772267 76.019505 L 59.666475 75.717430 L 59.561158 75.415139 L 59.456312 75.112623 L 59.351934 74.809870 L 59.248021 74.506870 L 59.144569 74.203612 L 59.041576 73.900087 L 58.939039 73.596282 L 58.836954 73.292189 L 58.735318 72.987795 L 58.634130 72.683091 L 58.533386 72.378066 L 58.433083 72.072708 L 58.333219 71.767007 L 58.233792 71.460953 L 58.134798 71.154533 L 58.036236 70.847738 L 57.938102 70.540555 L 57.840396 70.232975 L 57.743114 69.924986 L 57.646254 69.616576 L 57.549814 69.307735 L 57.453793 68.998450 L 57.358188 68.688712 L 57.262997 68.378508 L 57.168219 68.067826 L 57.073852 67.756656 L 56.979893 67.444985 L 56.886343 67.132802 L 56.793197 66.820095 L 56.700457 66.506852 L 56.608119 66.193061 L 56.516183 65.878711 L 56.424647 65.563788 L 56.333510 65.248282 L 56.242771 64.932180 L 56.152429 64.615468 L 56.062482 64.298136 L 55.972930 63.980170 L 55.883773 63.661558 L 55.795008 63.342288 L 55.706635 63.022345 L 55.618654 62.701719 L 55.531064 62.380394 L 55.443865 62.058360 L 55.357055 61.735601 L 55.270635 61.412106 L 55.184605 61.087860 L 55.098963 60.762850 L 55.013711 60.437063 L 54.928847 60.110484 L 54.844372 59.783101 L 54.760286 59.454899 L 54.676588 59.125863 L 54.593280 58.795981 L 54.510361 58.465237 L 54.427833 58.133617 L 54.345694 57.801106 L 54.263946 57.467690 L 54.182590 57.133354 L 54.101626 56.798083 L 54.021055 56.461862 L 53.940878 56.124675 L 53.861095 55.786507 L 53.781709 55.447343 L 53.702720 55.107167 L 53.624128 54.765963 L 53.545937 54.423715 L 53.468146 54.080407 L 53.390758 53.736022 L 53.313775 53.390545 L 53.237197 53.043958 L 53.161027 52.696244 L 53.085267 52.347387 L 53.009918 51.997369 L 52.934983 51.646172 L 52.860465 51.293781 L 52.786365 50.940176 L 52.712685 50.585339 L 52.639430 50.229253 L 52.566600 49.871899 L 52.494200 49.513259 L 52.422231 49.153313 L 52.350698 48.792044 L 52.279603 48.429431 L 52.208949 48.065456 L 52.138741 47.700098 L 52.068981 47.333338 L 51.999673 46.965156 L 51.930821 46.595531 L 51.862430 46.224443 L 51.794502 45.851871 L 51.727043 45.477794 L 51.660058 45.102191 L 51.593549 44.725040 L 51.527523 44.346320 L 51.461984 43.966007 L 51.396937 43.584081 L 51.332388 43.200518 L 51.268341 42.815295 L 51.204803 42.428389 L 51.141779 42.039777 L 51.079275 41.649434 L 51.017297 41.257337 L 50.955852 40.863461 L 50.894945 40.467782 L 50.834584 40.070274 L 50.774776 39.670912 L 50.715527 39.269671 L 50.656845 38.866523 L 50.598738 38.461443 L 50.541212 38.054405 L 50.484277 37.645380 L 50.427940 37.234341 L 50.372211 36.821261 L 50.317096 36.406111 L 50.262606 35.988863 L 50.208750 35.569487 L 50.155536 35.147955 L 50.102976 34.724235 L 50.051078 34.298299 L 49.999854 33.870114 L 49.949313 33.439651 L 49.899467 33.006877 L 49.850327 32.571761 L 49.801904 32.134270 L 49.754210 31.694371 L 49.707257 31.252030 L 49.661058 30.807215 L 49.615626 30.359889 L 49.570973 29.910019 L 49.527114 29.457568 L 49.484062 29.002502 L 49.441831 28.544783 L 49.400437 28.084374 L 49.359894 27.621238 L 49.320218 27.155336 L 49.281426 26.686630 L 49.243532 26.215081 L 49.206555 25.740648 L 49.170511 25.263292 L 49.135418 24.782970 L 49.101295 24.299640 L 49.068161 23.813262 L 49.036034 23.323790 L 49.004934 22.831183 L 48.974883 22.335394 L 48.945901 21.836379 L 48.918009 21.334092 L 48.891230 20.828486 L 48.865586 20.319515 L 48.841101 19.807128 L 48.817799 19.291279 L 48.795705 18.771917 L 48.774843 18.248992 L 48.755241 17.722451 L 48.736924 17.192244 L 48.719921 16.658317 L 48.704260 16.120616 L 48.689970 15.579086 L 48.677081 15.033673 L 48.665624 14.484318 L 48.655630 13.930965 L 48.647133 13.373555 L 48.646554 13.326922" fill="none" id="tattoo-path-5eb0fdc0eb7ae84e" stroke="#000000" stroke-linecap="round" stroke-linejoin="round" stroke-width="4.200000"/>
  <path clip-path="url(#tattoo-band-layer-clip)" d="M 65.143038 135.874404 L 65.330498 135.692905 L 65.728447 135.303770 L 66.122098 134.915022 L 66.511507 134.526674 L 66.896731 134.138740 L 67.277823 133.751231 L 67.654837 133.364158 L 68.027827 132.977532 L 68.396843 132.591362 L 68.761938 132.205659 L 69.123162 131.820431 L 69.480565 131.435686 L 69.834195 131.051433 L 70.184101 130.667678 L 70.530329 130.284429 L 70.872928 129.901691 L 71.211942 129.519471 L 71.547418 129.137774 L 71.879398 128.756606 L 72.207929 128.375971 L 72.533051 127.995872 L 72.854809 127.616315 L 73.173243 127.237303 L 73.488396 126.858838 L 73.800307 126.480924 L 74.109016 126.103562 L 74.414563 125.726756 L 74.716986 125.350507 L 75.016324 124.974816 L 75.312614 124.599685 L 75.605892 124.225115 L 75.896196 123.851106 L 76.183560 123.477659 L 76.468021 123.104774 L 76.749612 122.732450 L 77.028367 122.360688 L 77.304321 121.989487 L 77.577507 121.618845 L 77.847956 121.248763 L 78.115701 120.879239 L 78.380773 120.510271 L 78.643204 120.141857 L 78.903023 119.773997 L 79.160262 119.406687 L 79.414949 119.039926 L 79.667114 118.673712 L 79.916785 118.308041 L 80.163990 117.942911 L 80.408758 117.578320 L 80.651116 117.214264 L 80.891090 116.850740 L 81.128707 116.487745 L 81.363993 116.125276 L 81.596974 115.763328 L 81.827675 115.401899 L 82.056121 115.040984 L 82.282336 114.680580 L 82.506345 114.320682 L 82.728171 113.961287 L 82.947838 113.602390 L 83.165368 113.243987 L 83.380784 112.886072 L 83.594109 112.528643 L 83.805363 112.171694 L 84.014570 111.815220 L 84.221750 111.459217 L 84.426923 111.103680 L 84.630111 110.748603 L 84.831334 110.393982 L 85.030611 110.039811 L 85.227963 109.686086 L 85.423407 109.332800 L 85.616965 108.979949 L 85.808653 108.627528 L 85.998491 108.275530 L 86.186496 107.923950 L 86.372686 107.572783 L 86.557080 107.222022 L 86.739693 106.871663 L 86.920543 106.521699 L 87.099647 106.172125 L 87.277020 105.822934 L 87.452680 105.474121 L 87.626642 105.125680 L 87.798921 104.777604 L 87.969533 104.429888 L 88.138493 104.082525 L 88.305816 103.735510 L 88.471516 103.388835 L 88.635608 103.042496 L 88.798106 102.696485 L 88.959024 102.350796 L 89.118375 102.005423 L 89.276173 101.660360 L 89.432431 101.315599 L 89.587162 100.971135 L 89.740379 100.626961 L 89.892094 100.283071 L 90.042319 99.939457 L 90.191068 99.596114 L 90.338350 99.253035 L 90.484180 98.910212 L 90.628566 98.567640 L 90.771522 98.225312 L 90.913058 97.883221 L 91.053185 97.541360 L 91.191914 97.199722 L 91.329255 96.858301 L 91.465218 96.517089 L 91.599813 96.176080 L 91.733052 95.835268 L 91.864942 95.494644 L 91.995494 95.154203 L 92.124717 94.813936 L 92.252621 94.473838 L 92.379214 94.133901 L 92.504505 93.794119 L 92.628503 93.454483 L 92.751217 93.114988 L 92.872654 92.775625 L 92.992823 92.436388 L 93.111731 92.097270 L 93.229388 91.758264 L 93.345800 91.419362 L 93.460974 91.080557 L 93.574919 90.741843 L 93.687641 90.403211 L 93.799148 90.064655 L 93.909445 89.726166 L 94.018541 89.387739 L 94.126442 89.049366 L 94.233153 88.711039 L 94.338681 88.372751 L 94.443033 88.034495 L 94.546214 87.696262 L 94.648230 87.358047 L 94.749087 87.019841 L 94.848791 86.681637 L 94.947345 86.343428 L 95.044757 86.005206 L 95.141031 85.666963 L 95.236171 85.328692 L 95.330184 84.990385 L 95.423072 84.652036 L 95.514842 84.313635 L 95.605497 83.975177 L 95.695041 83.636652 L 95.783479 83.298054 L 95.870815 82.959374 L 95.957052 82.620606 L 96.042194 82.281740 L 96.126245 81.942771 L 96.209208 81.603689 L 96.291086 81.264487 L 96.371883 80.925157 L 96.451602 80.585692 L 96.530246 80.246083 L 96.607816 79.906323 L 96.684317 79.566403 L 96.759750 79.226316 L 96.834117 78.886054 L 96.907422 78.545609 L 96.979666 78.204973 L 97.050851 77.864138 L 97.120979 77.523095 L 97.190052 77.181837 L 97.258071 76.840356 L 97.325038 76.498643 L 97.390953 76.156691 L 97.455820 75.814490 L 97.519637 75.472034 L 97.582407 75.129313 L 97.644129 74.786320 L 97.704806 74.443045 L 97.764437 74.099482 L 97.823022 73.755620 L 97.880562 73.411453 L 97.937058 73.066971 L 97.992508 72.722166 L 98.046914 72.377030 L 98.100274 72.031554 L 98.152589 71.685730 L 98.203858 71.339549 L 98.254080 70.993002 L 98.303254 70.646080 L 98.351380 70.298776 L 98.398456 69.951080 L 98.444481 69.602983 L 98.489455 69.254477 L 98.533375 68.905553 L 98.576240 68.556202 L 98.618048 68.206416 L 98.658797 67.856184 L 98.698485 67.505499 L 98.737111 67.154351 L 98.774671 66.802731 L 98.811164 66.450630 L 98.846586 66.098039 L 98.880936 65.744949 L 98.914210 65.391351 L 98.946404 65.037235 L 98.977517 64.682591 L 99.007544 64.327412 L 99.036483 63.971687 L 99.064329 63.615406 L 99.091078 63.258562 L 99.116728 62.901143 L 99.141273 62.543140 L 99.164709 62.184544 L 99.187033 61.825345 L 99.208239 61.465534 L 99.228323 61.105100 L 99.247280 60.744035 L 99.265105 60.382327 L 99.281792 60.019967 L 99.297337 59.656946 L 99.311733 59.293253 L 99.324975 58.928879 L 99.337058 58.563812 L 99.347974 58.198044 L 99.357718 57.831563 L 99.366283 57.464360 L 99.373663 57.096425 L 99.379851 56.727747 L 99.384840 56.358315 L 99.388622 55.988120 L 99.391191 55.617150 L 99.392539 55.245396 L 99.392658 54.872846 L 99.391540 54.499490 L 99.389177 54.125318 L 99.385561 53.750318 L 99.380682 53.374480 L 99.374534 52.997793 L 99.367105 52.620246 L 99.358388 52.241827 L 99.348372 51.862527 L 99.337049 51.482334 L 99.324408 51.101236 L 99.310439 50.719223 L 99.295132 50.336283 L 99.278477 49.952405 L 99.260462 49.567577 L 99.241078 49.181789 L 99.220311 48.795029 L 99.198152 48.407284 L 99.174587 48.018544 L 99.149607 47.628797 L 99.123197 47.238031 L 99.095345 46.846234 L 99.066039 46.453395 L 99.035266 46.059501 L 99.003013 45.664541 L 98.969265 45.268503 L 98.934009 44.871374 L 98.897230 44.473143 L 98.858915 44.073796 L 98.819049 43.673323 L 98.777616 43.271711 L 98.734601 42.868947 L 98.689989 42.465018 L 98.643763 42.059914 L 98.595908 41.653620 L 98.546406 41.246124 L 98.495240 40.837414 L 98.442395 40.427477 L 98.387850 40.016301 L 98.331590 39.603871 L 98.273595 39.190177 L 98.213847 38.775204 L 98.152326 38.358940 L 98.089014 37.941372 L 98.023890 37.522486 L 97.956934 37.102270 L 97.888126 36.680710 L 97.817445 36.257794 L 97.744869 35.833508 L 97.670376 35.407838 L 97.593945 34.980772 L 97.515552 34.552296 L 97.435175 34.122397 L 97.352790 33.691061 L 97.268373 33.258274 L 97.181899 32.824024 L 97.093344 32.388297 L 97.002682 31.951079 L 96.909888 31.512357 L 96.814934 31.072117 L 96.717795 30.630345 L 96.618442 30.187028 L 96.516849 29.742153 L 96.412986 29.295704 L 96.306824 28.847670 L 96.198334 28.398036 L 96.087487 27.946788 L 95.974250 27.493913 L 95.858594 27.039397 L 95.740485 26.583226 L 95.619893 26.125388 L 95.496783 25.665867 L 95.371122 25.204651 L 95.242876 24.741726 L 95.112010 24.277079 L 94.978487 23.810695 L 94.842273 23.342562 L 94.703330 22.872666 L 94.561620 22.400993 L 94.417105 21.927531 L 94.269745 21.452266 L 94.119502 20.975185 L 93.966333 20.496275 L 93.810199 20.015523 L 93.651056 19.532916 L 93.488862 19.048441 L 93.323573 18.562086 L 93.155144 18.073837 L 92.983531 17.583684 L 92.808686 17.091613 L 92.630562 16.597612 L 92.449112 16.101669 L 92.264286 15.603772 L 92.076035 15.103911 L 91.884307 14.602073 L 91.689051 14.098247 L 91.490214 13.592423 L 91.287743 13.084589 L 91.081581 12.574735 L 90.871674 12.062851 L 90.657965 11.548927 L 90.556585 11.308499" fill="none" id="tattoo-path-9fa263bb24f0e515" stroke="#000000" stroke-linecap="round" stroke-linejoin="round" stroke-width="3.600000"/>
  <path clip-path="url(#tattoo-band-layer-clip)" d="M 128.399412 103.252166 L 128.234715 103.285020 L 127.687761 103.391260 L 127.143533 103.494142 L 126.602011 103.593720 L 126.063175 103.690046 L 125.527004 103.783173 L 124.993479 103.873151 L 124.462579 103.960030 L 123.934284 104.043858 L 123.408574 104.124684 L 122.885428 104.202555 L 122.364827 104.277515 L 121.846749 104.349610 L 121.331174 104.418884 L 120.818082 104.485381 L 120.307453 104.549142 L 119.799266 104.610208 L 119.293502 104.668622 L 118.790138 104.724421 L 118.289157 104.777646 L 117.790536 104.828334 L 117.294257 104.876523 L 116.800299 104.922250 L 116.308641 104.965550 L 115.819265 105.006459 L 115.332149 105.045011 L 114.847275 105.081240 L 114.364622 105.115180 L 113.884171 105.146862 L 113.405902 105.176318 L 112.929796 105.203580 L 112.455832 105.228677 L 111.983993 105.251641 L 111.514257 105.272500 L 111.046607 105.291283 L 110.581024 105.308018 L 110.117487 105.322733 L 109.655978 105.335454 L 109.196479 105.346209 L 108.738971 105.355022 L 108.283435 105.361919 L 107.829853 105.366926 L 107.378206 105.370067 L 106.928476 105.371364 L 106.480645 105.370842 L 106.034695 105.368524 L 105.590608 105.364432 L 105.148366 105.358588 L 104.707951 105.351013 L 104.269347 105.341729 L 103.832534 105.330755 L 103.397497 105.318113 L 102.964217 105.303822 L 102.532678 105.287901 L 102.102863 105.270369 L 101.674755 105.251245 L 101.248336 105.230546 L 100.823590 105.208291 L 100.400502 105.184498 L 99.979053 105.159182 L 99.559229 105.132361 L 99.141012 105.104050 L 98.724387 105.074267 L 98.309338 105.043026 L 97.895849 105.010342 L 97.483903 104.976231 L 97.073486 104.940707 L 96.664583 104.903785 L 96.257176 104.865478 L 95.851253 104.825800 L 95.446796 104.784764 L 95.043791 104.742384 L 94.642224 104.698671 L 94.242079 104.653640 L 93.843341 104.607301 L 93.445997 104.559666 L 93.050031 104.510748 L 92.655429 104.460557 L 92.262177 104.409105 L 91.870261 104.356402 L 91.479667 104.302459 L 91.090380 104.247286 L 90.702387 104.190893 L 90.315674 104.133291 L 89.930228 104.074488 L 89.546035 104.014494 L 89.163081 103.953317 L 88.781353 103.890968 L 88.400839 103.827454 L 88.021524 103.762784 L 87.643397 103.696966 L 87.266443 103.630008 L 86.890650 103.561917 L 86.516006 103.492702 L 86.142498 103.422369 L 85.770113 103.350925 L 85.398839 103.278378 L 85.028663 103.204735 L 84.659574 103.130001 L 84.291558 103.054183 L 83.924605 102.977287 L 83.558703 102.899320 L 83.193838 102.820286 L 82.830000 102.740191 L 82.467177 102.659042 L 82.105357 102.576842 L 81.744529 102.493597 L 81.384682 102.409312 L 81.025803 102.323992 L 80.667882 102.237640 L 80.310908 102.150262 L 79.954869 102.061861 L 79.599755 101.972442 L 79.245555 101.882008 L 78.892257 101.790563 L 78.539852 101.698110 L 78.188328 101.604653 L 77.837674 101.510195 L 77.487882 101.414739 L 77.138939 101.318288 L 76.790836 101.220845 L 76.443562 101.122412 L 76.097107 101.022992 L 75.751462 100.922586 L 75.406615 100.821198 L 75.062558 100.718828 L 74.719280 100.615480 L 74.376771 100.511154 L 74.035021 100.405852 L 73.694022 100.299576 L 73.353763 100.192327 L 73.014235 100.084106 L 72.675429 99.974914 L 72.337334 99.864751 L 71.999942 99.753620 L 71.663243 99.641519 L 71.327229 99.528450 L 70.991890 99.414413 L 70.657217 99.299409 L 70.323201 99.183437 L 69.989833 99.066496 L 69.657105 98.948588 L 69.325007 98.829712 L 68.993531 98.709867 L 68.662669 98.589052 L 68.332411 98.467268 L 68.002749 98.344512 L 67.673674 98.220785 L 67.345179 98.096085 L 67.017255 97.970411 L 66.689893 97.843761 L 66.363085 97.716134 L 66.036824 97.587529 L 65.711101 97.457943 L 65.385907 97.327375 L 65.061236 97.195824 L 64.737078 97.063286 L 64.413427 96.929759 L 64.090275 96.795242 L 63.767612 96.659732 L 63.445433 96.523226 L 63.123729 96.385722 L 62.802493 96.247216 L 62.481716 96.107707 L 62.161393 95.967189 L 61.841514 95.825662 L 61.522074 95.683120 L 61.203063 95.539561 L 60.884476 95.394982 L 60.566305 95.249378 L 60.248543 95.102745 L 59.931183 94.955080 L 59.614217 94.806379 L 59.297639 94.656637 L 58.981442 94.505851 L 58.665618 94.354015 L 58.350162 94.201125 L 58.035066 94.047176 L 57.720323 93.892164 L 57.405927 93.736084 L 57.091871 93.578930 L 56.778148 93.420698 L 56.464753 93.261381 L 56.151678 93.100975 L 55.838918 92.939474 L 55.526465 92.776872 L 55.214313 92.613163 L 54.902457 92.448342 L 54.590889 92.282402 L 54.279604 92.115336 L 53.968596 91.947140 L 53.657859 91.777805 L 53.347386 91.607325 L 53.037171 91.435694 L 52.727210 91.262905 L 52.417495 91.088950 L 52.108021 90.913822 L 51.798783 90.737514 L 51.489774 90.560019 L 51.180989 90.381328 L 50.872422 90.201434 L 50.564069 90.020329 L 50.255922 89.838005 L 49.947978 89.654454 L 49.640230 89.469666 L 49.332674 89.283635 L 49.025303 89.096350 L 48.718114 88.907804 L 48.411100 88.717987 L 48.104256 88.526890 L 47.797579 88.334503 L 47.491061 88.140818 L 47.184700 87.945824 L 46.878489 87.749512 L 46.572425 87.551872 L 46.266502 87.352893 L 45.960715 87.152566 L 45.655061 86.950880 L 45.349534 86.747825 L 45.044130 86.543388 L 44.738845 86.337561 L 44.433675 86.130331 L 44.128614 85.921686 L 43.823660 85.711617 L 43.518807 85.500110 L 43.214052 85.287154 L 42.909390 85.072737 L 42.604819 84.856847 L 42.300333 84.639471 L 41.995929 84.420597 L 41.691604 84.200211 L 41.387354 83.978302 L 41.083175 83.754855 L 40.779065 83.529857 L 40.475018 83.303294 L 40.171033 83.075153 L 39.867106 82.845420 L 39.563234 82.614080 L 39.259413 82.381120 L 38.955642 82.146523 L 38.651916 81.910276 L 38.348234 81.672363 L 38.044593 81.432769 L 37.740990 81.191479 L 37.437422 80.948476 L 37.133888 80.703744 L 36.830384 80.457268 L 36.526910 80.209031 L 36.223462 79.959015 L 35.920039 79.707205 L 35.616639 79.453582 L 35.313261 79.198130 L 35.009902 78.940830 L 34.706562 78.681665 L 34.403238 78.420616 L 34.099930 78.157665 L 33.796637 77.892793 L 33.493358 77.625981 L 33.190091 77.357210 L 32.886836 77.086459 L 32.583594 76.813710 L 32.280362 76.538941 L 31.977141 76.262133 L 31.673931 75.983264 L 31.370732 75.702314 L 31.067545 75.419261 L 30.764368 75.134084 L 30.461204 74.846760 L 30.158053 74.557268 L 29.854915 74.265584 L 29.551793 73.971685 L 29.248686 73.675550 L 28.945596 73.377153 L 28.642526 73.076470 L 28.339477 72.773479 L 28.036451 72.468153 L 27.733450 72.160468 L 27.430477 71.850399 L 27.127535 71.537920 L 26.824626 71.223005 L 26.521753 70.905628 L 26.218921 70.585761 L 25.916132 70.263377 L 25.613391 69.938450 L 25.310701 69.610950 L 25.008068 69.280851 L 24.705495 68.948122 L 24.402989 68.612735 L 24.100553 68.274660 L 23.798194 67.933867 L 23.495917 67.590326 L 23.193730 67.244006 L 22.891637 66.894876 L 22.589646 66.542904 L 22.287765 66.188057 L 21.986000 65.830304 L 21.684360 65.469611 L 21.382852 65.105945 L 21.081486 64.739271 L 20.780270 64.369555 L 20.479214 63.996763 L 20.178328 63.620858 L 19.877621 63.241805 L 19.577105 62.859568 L 19.276790 62.474109 L 18.976688 62.085391 L 18.676811 61.693375 L 18.377172 61.298025 L 18.077784 60.899299 L 17.778659 60.497160 L 17.479813 60.091566 L 17.181259 59.682477 L 16.883013 59.269852 L 16.585090 58.853649 L 16.287507 58.433826 L 15.990280 58.010339 L 15.693427 57.583145 L 15.396967 57.152200 L 15.100917 56.717459 L 14.805297 56.278877 L 14.510128 55.836408 L 14.215429 55.390005 L 13.921224 54.939621 L 13.627533 54.485208 L 13.334380 54.026718 L 13.041790 53.564101 L 12.749785 53.097309 L 12.458393 52.626289 L 12.167639 52.150992 L 12.080725 52.007290" fill="none" id="tattoo-path-b24aaad133e0cc84" stroke="#000000" stroke-linecap="round" stroke-linejoin="round" stroke-width="3.100000"/>
  <path clip-path="url(#tattoo-band-layer-clip)" d="M 36.094019 124.893173 L 36.347952 124.454831 L 36.625840 123.975848 L 36.901900 123.500713 L 37.176160 123.029364 L 37.448647 122.561737 L 37.719388 122.097771 L 37.988409 121.637407 L 38.255736 121.180586 L 38.521395 120.727250 L 38.785410 120.277343 L 39.047806 119.830809 L 39.308608 119.387594 L 39.567839 118.947645 L 39.825522 118.510910 L 40.081681 118.077337 L 40.336338 117.646876 L 40.589516 117.219478 L 40.841236 116.795095 L 41.091520 116.373678 L 41.340390 115.955182 L 41.587866 115.539560 L 41.833968 115.126768 L 42.078718 114.716761 L 42.322134 114.309497 L 42.564238 113.904932 L 42.805047 113.503025 L 43.044581 113.103735 L 43.282859 112.707022 L 43.519899 112.312846 L 43.755720 111.921167 L 43.990339 111.531949 L 44.223775 111.145153 L 44.456043 110.760743 L 44.687162 110.378681 L 44.917149 109.998933 L 45.146020 109.621464 L 45.373792 109.246238 L 45.600480 108.873222 L 45.826101 108.502383 L 46.050671 108.133688 L 46.274204 107.767104 L 46.496717 107.402600 L 46.718224 107.040145 L 46.938741 106.679707 L 47.158282 106.321257 L 47.376861 105.964765 L 47.594492 105.610201 L 47.811191 105.257537 L 48.026970 104.906745 L 48.241844 104.557795 L 48.455826 104.210662 L 48.668930 103.865318 L 48.881168 103.521735 L 49.092554 103.179889 L 49.303100 102.839752 L 49.512820 102.501300 L 49.721725 102.164507 L 49.929829 101.829348 L 50.137143 101.495800 L 50.343680 101.163838 L 50.549452 100.833438 L 50.754470 100.504577 L 50.958746 100.177233 L 51.162291 99.851381 L 51.365118 99.527001 L 51.567237 99.204069 L 51.768659 98.882565 L 51.969396 98.562466 L 52.169458 98.243751 L 52.368857 97.926400 L 52.567602 97.610392 L 52.765704 97.295707 L 52.963174 96.982324 L 53.160023 96.670224 L 53.356259 96.359387 L 53.551894 96.049793 L 53.746938 95.741425 L 53.941399 95.434262 L 54.135289 95.128287 L 54.328616 94.823481 L 54.521391 94.519826 L 54.713623 94.217304 L 54.905320 93.915898 L 55.096494 93.615589 L 55.287152 93.316361 L 55.477304 93.018196 L 55.666959 92.721079 L 55.856127 92.424991 L 56.044815 92.129917 L 56.233033 91.835840 L 56.420789 91.542745 L 56.608092 91.250615 L 56.794951 90.959435 L 56.981374 90.669189 L 57.167370 90.379861 L 57.352947 90.091437 L 57.538113 89.803901 L 57.722877 89.517239 L 57.907247 89.231436 L 58.091230 88.946476 L 58.274836 88.662347 L 58.458071 88.379033 L 58.640944 88.096520 L 58.823463 87.814794 L 59.005635 87.533842 L 59.187469 87.253650 L 59.368972 86.974203 L 59.550151 86.695489 L 59.731015 86.417494 L 59.911571 86.140205 L 60.091825 85.863609 L 60.271787 85.587693 L 60.451463 85.312443 L 60.630861 85.037848 L 60.809987 84.763894 L 60.988850 84.490570 L 61.167456 84.217861 L 61.345813 83.945757 L 61.523928 83.674245 L 61.701808 83.403312 L 61.879460 83.132947 L 62.056891 82.863138 L 62.234109 82.593872 L 62.411119 82.325139 L 62.587930 82.056926 L 62.764548 81.789222 L 62.940980 81.522015 L 63.117233 81.255293 L 63.293313 80.989046 L 63.469229 80.723262 L 63.644985 80.457930 L 63.820590 80.193039 L 63.996050 79.928577 L 64.171371 79.664534 L 64.346561 79.400899 L 64.521626 79.137660 L 64.696573 78.874807 L 64.871408 78.612330 L 65.046138 78.350217 L 65.220770 78.088458 L 65.395310 77.827042 L 65.569765 77.565958 L 65.744142 77.305198 L 65.918447 77.044748 L 66.092686 76.784601 L 66.266867 76.524744 L 66.440995 76.265168 L 66.615078 76.005863 L 66.789121 75.746818 L 66.963132 75.488023 L 67.137117 75.229469 L 67.311082 74.971144 L 67.485034 74.713039 L 67.658980 74.455144 L 67.832925 74.197449 L 68.006877 73.939944 L 68.180842 73.682619 L 68.354827 73.425464 L 68.528838 73.168469 L 68.702881 72.911624 L 68.876963 72.654920 L 69.051091 72.398347 L 69.225271 72.141894 L 69.399510 71.885553 L 69.573814 71.629313 L 69.748190 71.373165 L 69.922644 71.117099 L 70.097183 70.861105 L 70.271814 70.605173 L 70.446544 70.349294 L 70.621378 70.093459 L 70.796324 69.837657 L 70.971388 69.581878 L 71.146577 69.326114 L 71.321897 69.070354 L 71.497356 68.814589 L 71.672960 68.558809 L 71.848716 68.303005 L 72.024630 68.047166 L 72.200710 67.791283 L 72.376963 67.535347 L 72.553394 67.279347 L 72.730012 67.023275 L 72.906822 66.767120 L 73.083833 66.510872 L 73.261050 66.254522 L 73.438481 65.998061 L 73.616134 65.741477 L 73.794014 65.484762 L 73.972130 65.227906 L 74.150488 64.970899 L 74.329096 64.713731 L 74.507960 64.456391 L 74.687088 64.198872 L 74.866488 63.941161 L 75.046167 63.683250 L 75.226131 63.425128 L 75.406390 63.166785 L 75.586949 62.908212 L 75.767817 62.649398 L 75.949001 62.390333 L 76.130509 62.131007 L 76.312348 61.871410 L 76.494527 61.611531 L 76.677052 61.351360 L 76.859933 61.090887 L 77.043176 60.830101 L 77.226790 60.568993 L 77.410783 60.307551 L 77.595163 60.045765 L 77.779938 59.783624 L 77.965116 59.521118 L 78.150706 59.258236 L 78.336715 58.994968 L 78.523153 58.731301 L 78.710027 58.467227 L 78.897347 58.202733 L 79.085121 57.937809 L 79.273358 57.672443 L 79.462065 57.406625 L 79.651254 57.140343 L 79.840931 56.873586 L 80.031107 56.606342 L 80.221790 56.338600 L 80.412990 56.070349 L 80.604716 55.801577 L 80.796977 55.532272 L 80.989783 55.262423 L 81.183143 54.992017 L 81.377068 54.721043 L 81.571566 54.449488 L 81.766647 54.177341 L 81.962322 53.904589 L 82.158601 53.631219 L 82.355493 53.357221 L 82.553010 53.082580 L 82.751161 52.807284 L 82.949957 52.531320 L 83.149409 52.254676 L 83.349527 51.977339 L 83.550323 51.699295 L 83.751806 51.420531 L 83.953989 51.141034 L 84.156883 50.860791 L 84.360498 50.579787 L 84.564847 50.298009 L 84.769941 50.015443 L 84.975792 49.732076 L 85.182412 49.447892 L 85.389813 49.162878 L 85.598007 48.877019 L 85.807007 48.590301 L 86.016824 48.302709 L 86.227473 48.014228 L 86.438965 47.724843 L 86.651313 47.434539 L 86.864532 47.143300 L 87.078633 46.851111 L 87.293632 46.557956 L 87.509541 46.263819 L 87.726374 45.968685 L 87.944145 45.672536 L 88.162870 45.375357 L 88.382562 45.077131 L 88.603235 44.777841 L 88.824905 44.477469 L 89.047588 44.176000 L 89.271297 43.873414 L 89.496049 43.569695 L 89.721860 43.264825 L 89.948745 42.958786 L 90.176720 42.651559 L 90.405803 42.343126 L 90.636009 42.033467 L 90.867356 41.722565 L 91.099861 41.410399 L 91.333541 41.096951 L 91.568414 40.782199 L 91.804498 40.466125 L 92.041811 40.148708 L 92.280372 39.829928 L 92.520199 39.509763 L 92.761312 39.188192 L 93.003730 38.865195 L 93.247472 38.540748 L 93.492560 38.214831 L 93.739012 37.887421 L 93.986850 37.558494 L 94.236095 37.228029 L 94.486768 36.896002 L 94.738891 36.562389 L 94.992485 36.227167 L 95.247574 35.890310 L 95.504180 35.551794 L 95.762326 35.211595 L 96.022036 34.869686 L 96.283333 34.526042 L 96.546243 34.180636 L 96.810790 33.833442 L 97.076999 33.484434 L 97.344895 33.133582 L 97.614506 32.780861 L 97.885857 32.426240 L 98.158976 32.069693 L 98.433890 31.711188 L 98.710627 31.350697 L 98.989215 30.988190 L 99.269684 30.623635 L 99.552064 30.257002 L 99.836384 29.888259 L 100.122674 29.517374 L 100.410968 29.144315 L 100.701295 28.769047 L 100.993689 28.391537 L 101.288182 28.011751 L 101.584809 27.629653 L 101.883603 27.245209 L 102.184600 26.858382 L 102.487834 26.469135 L 102.793344 26.077431 L 103.101165 25.683232 L 103.411335 25.286498 L 103.723893 24.887192 L 104.038878 24.485271 L 104.356330 24.080696 L 104.676291 23.673425 L 104.998801 23.263416 L 105.323904 22.850625 L 105.651642 22.435009 L 105.982061 22.016523 L 106.315205 21.595121 L 106.651120 21.170757 L 106.989855 20.743383 L 107.331456 20.312952 L 107.675973 19.879415 L 107.991396 19.483014" fill="none" id="tattoo-path-a4448941c890d3ed" stroke="#000000" stroke-linecap="round" stroke-linejoin="round" stroke-width="2.500000"/>
  <path clip-path="url(#tattoo-band-layer-clip)" d="M 122.769111 111.786848 L 122.358583 111.540160 L 121.883999 111.254364 L 121.413310 110.970306 L 120.946451 110.687960 L 120.483359 110.407302 L 120.023971 110.128307 L 119.568228 109.850952 L 119.116069 109.575213 L 118.667436 109.301066 L 118.222273 109.028489 L 117.780522 108.757460 L 117.342128 108.487955 L 116.907039 108.219954 L 116.475201 107.953434 L 116.046561 107.688375 L 115.621070 107.424755 L 115.198677 107.162554 L 114.779334 106.901752 L 114.362991 106.642328 L 113.949602 106.384263 L 113.539121 106.127538 L 113.131503 105.872132 L 112.726701 105.618028 L 112.324674 105.365207 L 111.925377 105.113650 L 111.528769 104.863339 L 111.134808 104.614257 L 110.743454 104.366386 L 110.354665 104.119708 L 109.968404 103.874206 L 109.584631 103.629864 L 109.203308 103.386664 L 108.824399 103.144591 L 108.447866 102.903627 L 108.073673 102.663758 L 107.701785 102.424968 L 107.332168 102.187240 L 106.964786 101.950559 L 106.599607 101.714910 L 106.236597 101.480279 L 105.875724 101.246650 L 105.516956 101.014008 L 105.160260 100.782341 L 104.805607 100.551632 L 104.452965 100.321868 L 104.102305 100.093035 L 103.753598 99.865120 L 103.406813 99.638108 L 103.061923 99.411988 L 102.718900 99.186744 L 102.377715 98.962364 L 102.038342 98.738836 L 101.700753 98.516146 L 101.364922 98.294283 L 101.030824 98.073232 L 100.698431 97.852983 L 100.367720 97.633523 L 100.038666 97.414839 L 99.711243 97.196920 L 99.385428 96.979755 L 99.061196 96.763331 L 98.738525 96.547637 L 98.417391 96.332662 L 98.097771 96.118394 L 97.779643 95.904823 L 97.462985 95.691936 L 97.147775 95.479724 L 96.833992 95.268175 L 96.521613 95.057279 L 96.210619 94.847025 L 95.900988 94.637402 L 95.592701 94.428401 L 95.285736 94.220011 L 94.980075 94.012222 L 94.675697 93.805023 L 94.372584 93.598405 L 94.070716 93.392358 L 93.770074 93.186873 L 93.470640 92.981938 L 93.172396 92.777545 L 92.875323 92.573685 L 92.579403 92.370347 L 92.284619 92.167523 L 91.990954 91.965203 L 91.698390 91.763377 L 91.406910 91.562038 L 91.116497 91.361175 L 90.827135 91.160780 L 90.538807 90.960844 L 90.251498 90.761359 L 89.965190 90.562314 L 89.679868 90.363702 L 89.395518 90.165514 L 89.112122 89.967742 L 88.829665 89.770376 L 88.548134 89.573409 L 88.267512 89.376832 L 87.987784 89.180637 L 87.708937 88.984816 L 87.430955 88.789359 L 87.153825 88.594261 L 86.877531 88.399511 L 86.602061 88.205102 L 86.327400 88.011027 L 86.053534 87.817276 L 85.780449 87.623843 L 85.508133 87.430720 L 85.236572 87.237898 L 84.965752 87.045370 L 84.695661 86.853128 L 84.426285 86.661165 L 84.157612 86.469472 L 83.889629 86.278043 L 83.622323 86.086870 L 83.355682 85.895945 L 83.089693 85.705261 L 82.824344 85.514810 L 82.559623 85.324586 L 82.295518 85.134579 L 82.032017 84.944785 L 81.769108 84.755194 L 81.506779 84.565799 L 81.245018 84.376594 L 80.983814 84.187572 L 80.723156 83.998724 L 80.463031 83.810044 L 80.203429 83.621525 L 79.944339 83.433159 L 79.685748 83.244940 L 79.427647 83.056860 L 79.170024 82.868912 L 78.912868 82.681090 L 78.656168 82.493386 L 78.399914 82.305793 L 78.144095 82.118304 L 77.888699 81.930913 L 77.633718 81.743612 L 77.379139 81.556394 L 77.124953 81.369252 L 76.871149 81.182180 L 76.617717 80.995170 L 76.364647 80.808216 L 76.111928 80.621311 L 75.859550 80.434447 L 75.607504 80.247619 L 75.355778 80.060818 L 75.104364 79.874038 L 74.853250 79.687273 L 74.602428 79.500515 L 74.351887 79.313757 L 74.101617 79.126993 L 73.851609 78.940216 L 73.601854 78.753418 L 73.352340 78.566593 L 73.103059 78.379734 L 72.854000 78.192834 L 72.605155 78.005887 L 72.356514 77.818885 L 72.108067 77.631820 L 71.859804 77.444688 L 71.611717 77.257480 L 71.363796 77.070189 L 71.116030 76.882809 L 70.868412 76.695332 L 70.620931 76.507752 L 70.373579 76.320061 L 70.126345 76.132253 L 69.879220 75.944320 L 69.632196 75.756256 L 69.385263 75.568053 L 69.138411 75.379704 L 68.891632 75.191202 L 68.644915 75.002540 L 68.398253 74.813710 L 68.151635 74.624707 L 67.905052 74.435521 L 67.658495 74.246146 L 67.411956 74.056575 L 67.165424 73.866801 L 66.918890 73.676816 L 66.672346 73.486612 L 66.425782 73.296182 L 66.179188 73.105520 L 65.932556 72.914616 L 65.685877 72.723465 L 65.439140 72.532057 L 65.192337 72.340387 L 64.945459 72.148445 L 64.698496 71.956225 L 64.451439 71.763718 L 64.204279 71.570917 L 63.957007 71.377814 L 63.709612 71.184402 L 63.462086 70.990671 L 63.214420 70.796615 L 62.966603 70.602226 L 62.718628 70.407494 L 62.470483 70.212413 L 62.222160 70.016974 L 61.973649 69.821168 L 61.724941 69.624988 L 61.476027 69.428425 L 61.226895 69.231471 L 60.977538 69.034117 L 60.727946 68.836354 L 60.478108 68.638175 L 60.228015 68.439571 L 59.977657 68.240532 L 59.727025 68.041050 L 59.476108 67.841116 L 59.224897 67.640722 L 58.973382 67.439857 L 58.721553 67.238514 L 58.469400 67.036682 L 58.216913 66.834353 L 57.964082 66.631518 L 57.710896 66.428166 L 57.457345 66.224289 L 57.203420 66.019876 L 56.949109 65.814919 L 56.694403 65.609406 L 56.439291 65.403330 L 56.183762 65.196679 L 55.927806 64.989443 L 55.671413 64.781612 L 55.414570 64.573177 L 55.157269 64.364126 L 54.899498 64.154450 L 54.641245 63.944137 L 54.382501 63.733177 L 54.123253 63.521559 L 53.863491 63.309273 L 53.603204 63.096306 L 53.342380 62.882649 L 53.081007 62.668289 L 52.819075 62.453216 L 52.556572 62.237418 L 52.293486 62.020883 L 52.029805 61.803599 L 51.765517 61.585555 L 51.500611 61.366738 L 51.235074 61.147136 L 50.968895 60.926737 L 50.702060 60.705529 L 50.434558 60.483498 L 50.166376 60.260632 L 49.897502 60.036918 L 49.627922 59.812342 L 49.357624 59.586893 L 49.086595 59.360555 L 48.814823 59.133316 L 48.542292 58.905161 L 48.268991 58.676078 L 47.994906 58.446050 L 47.720024 58.215065 L 47.444330 57.983108 L 47.167810 57.750163 L 46.890451 57.516217 L 46.612239 57.281253 L 46.333159 57.045257 L 46.053197 56.808213 L 45.772338 56.570106 L 45.490567 56.330919 L 45.207870 56.090636 L 44.924231 55.849241 L 44.639635 55.606717 L 44.354067 55.363047 L 44.067510 55.118214 L 43.779950 54.872201 L 43.491371 54.624991 L 43.201755 54.376564 L 42.911087 54.126904 L 42.619350 53.875991 L 42.326528 53.623808 L 42.032603 53.370335 L 41.737559 53.115552 L 41.441377 52.859441 L 41.144041 52.601981 L 40.845533 52.343152 L 40.545834 52.082934 L 40.244927 51.821307 L 39.942792 51.558248 L 39.639412 51.293737 L 39.334767 51.027752 L 39.028838 50.760270 L 38.721605 50.491269 L 38.413049 50.220727 L 38.103150 49.948619 L 37.791888 49.674924 L 37.479241 49.399615 L 37.165190 49.122670 L 36.849713 48.844063 L 36.532789 48.563770 L 36.214396 48.281763 L 35.894512 47.998019 L 35.573115 47.712509 L 35.250182 47.425207 L 34.925690 47.136086 L 34.599616 46.845117 L 34.271937 46.552273 L 33.942628 46.257524 L 33.611665 45.960841 L 33.279023 45.662194 L 32.944678 45.361552 L 32.608604 45.058885 L 32.270775 44.754162 L 31.931165 44.447349 L 31.589748 44.138414 L 31.246496 43.827324 L 30.901382 43.514045 L 30.554379 43.198542 L 30.205457 42.880781 L 29.854589 42.560725 L 29.501745 42.238337 L 29.146895 41.913581 L 28.790009 41.586418 L 28.431058 41.256810 L 28.070009 40.924717 L 27.706831 40.590100 L 27.341492 40.252917 L 26.973959 39.913125 L 26.604200 39.570684 L 26.232180 39.225549 L 25.857865 38.877675 L 25.481221 38.527019 L 25.102211 38.173532 L 24.720801 37.817169 L 24.336952 37.457881 L 23.950628 37.095620 L 23.561790 36.730334 L 23.170401 36.361974 L 22.776421 35.990487 L 22.379809 35.615819 L 21.980526 35.237916 L 21.578530 34.856723 L 21.231306 34.526838" fill="none" id="tattoo-path-bf318eca1d1ff34d" stroke="#000000" stroke-linecap="round" stroke-linejoin="round" stroke-width="2.200000"/>
  <path clip-path="url(#tattoo-band-layer-clip)" d="M 84.391641 135.181966 L 84.500232 134.665900 L 84.612686 134.123374 L 84.722731 133.584371 L 84.830411 133.048844 L 84.935771 132.516746 L 85.038854 131.988032 L 85.139702 131.462657 L 85.238356 130.940576 L 85.334856 130.421744 L 85.429242 129.906120 L 85.521550 129.393659 L 85.611820 128.884321 L 85.700087 128.378062 L 85.786386 127.874844 L 85.870753 127.374624 L 85.953222 126.877363 L 86.033825 126.383023 L 86.112594 125.891563 L 86.189563 125.402946 L 86.264761 124.917135 L 86.338218 124.434091 L 86.409965 123.953779 L 86.480029 123.476162 L 86.548440 123.001205 L 86.615224 122.528872 L 86.680409 122.059128 L 86.744020 121.591939 L 86.806084 121.127272 L 86.866625 120.665093 L 86.925668 120.205369 L 86.983237 119.748068 L 87.039356 119.293157 L 87.094046 118.840605 L 87.147332 118.390380 L 87.199234 117.942453 L 87.249774 117.496792 L 87.298973 117.053367 L 87.346852 116.612148 L 87.393429 116.173108 L 87.438726 115.736215 L 87.482761 115.301443 L 87.525552 114.868763 L 87.567119 114.438146 L 87.607479 114.009566 L 87.646649 113.582996 L 87.684646 113.158408 L 87.721488 112.735777 L 87.757190 112.315075 L 87.791769 111.896278 L 87.825240 111.479360 L 87.857619 111.064295 L 87.888921 110.651059 L 87.919159 110.239627 L 87.948349 109.829975 L 87.976504 109.422079 L 88.003639 109.015915 L 88.029766 108.611460 L 88.054899 108.208690 L 88.079050 107.807583 L 88.102232 107.408117 L 88.124457 107.010268 L 88.145738 106.614015 L 88.166085 106.219335 L 88.185511 105.826208 L 88.204026 105.434612 L 88.221642 105.044525 L 88.238369 104.655928 L 88.254218 104.268799 L 88.269198 103.883117 L 88.283321 103.498863 L 88.296595 103.116017 L 88.309031 102.734559 L 88.320637 102.354469 L 88.331423 101.975728 L 88.341398 101.598317 L 88.350570 101.222217 L 88.358948 100.847409 L 88.366540 100.473875 L 88.373355 100.101596 L 88.379400 99.730555 L 88.384683 99.360732 L 88.389212 98.992111 L 88.392995 98.624674 L 88.396037 98.258403 L 88.398347 97.893281 L 88.399932 97.529291 L 88.400797 97.166416 L 88.400951 96.804639 L 88.400398 96.443944 L 88.399146 96.084313 L 88.397200 95.725732 L 88.394566 95.368184 L 88.391251 95.011652 L 88.387260 94.656121 L 88.382598 94.301575 L 88.377270 93.947998 L 88.371283 93.595376 L 88.364641 93.243692 L 88.357349 92.892932 L 88.349412 92.543080 L 88.340834 92.194122 L 88.331620 91.846043 L 88.321775 91.498828 L 88.311303 91.152462 L 88.300208 90.806932 L 88.288495 90.462223 L 88.276166 90.118320 L 88.263227 89.775209 L 88.249680 89.432878 L 88.235529 89.091311 L 88.220779 88.750495 L 88.205431 88.410416 L 88.189490 88.071061 L 88.172959 87.732416 L 88.155840 87.394468 L 88.138137 87.057204 L 88.119853 86.720610 L 88.100990 86.384673 L 88.081551 86.049381 L 88.061538 85.714719 L 88.040955 85.380677 L 88.019802 85.047240 L 87.998083 84.714397 L 87.975800 84.382134 L 87.952955 84.050439 L 87.929549 83.719299 L 87.905585 83.388703 L 87.881065 83.058638 L 87.855989 82.729091 L 87.830360 82.400051 L 87.804180 82.071506 L 87.777449 81.743443 L 87.750169 81.415850 L 87.722341 81.088716 L 87.693966 80.762029 L 87.665046 80.435776 L 87.635581 80.109947 L 87.605573 79.784530 L 87.575022 79.459513 L 87.543928 79.134884 L 87.512294 78.810632 L 87.480118 78.486745 L 87.447402 78.163213 L 87.414146 77.840023 L 87.380350 77.517164 L 87.346014 77.194626 L 87.311140 76.872397 L 87.275726 76.550465 L 87.239773 76.228820 L 87.203280 75.907450 L 87.166248 75.586345 L 87.128677 75.265493 L 87.090565 74.944883 L 87.051913 74.624504 L 87.012720 74.304346 L 86.972986 73.984397 L 86.932709 73.664647 L 86.891890 73.345085 L 86.850527 73.025699 L 86.808619 72.706479 L 86.766166 72.387415 L 86.723167 72.068495 L 86.679620 71.749709 L 86.635524 71.431045 L 86.590878 71.112494 L 86.545681 70.794045 L 86.499931 70.475686 L 86.453627 70.157407 L 86.406766 69.839198 L 86.359349 69.521048 L 86.311372 69.202945 L 86.262833 68.884881 L 86.213732 68.566843 L 86.164066 68.248822 L 86.113833 67.930806 L 86.063030 67.612785 L 86.011656 67.294749 L 85.959709 66.976686 L 85.907185 66.658587 L 85.854082 66.340440 L 85.800399 66.022235 L 85.746131 65.703961 L 85.691277 65.385608 L 85.635834 65.067165 L 85.579798 64.748621 L 85.523167 64.429965 L 85.465938 64.111188 L 85.408107 63.792278 L 85.349672 63.473224 L 85.290629 63.154017 L 85.230974 62.834644 L 85.170704 62.515096 L 85.109815 62.195361 L 85.048305 61.875429 L 84.986168 61.555289 L 84.923401 61.234929 L 84.860000 60.914340 L 84.795962 60.593510 L 84.731281 60.272429 L 84.665954 59.951085 L 84.599975 59.629467 L 84.533342 59.307565 L 84.466049 58.985367 L 84.398091 58.662862 L 84.329464 58.340039 L 84.260163 58.016888 L 84.190183 57.693395 L 84.119518 57.369552 L 84.048165 57.045346 L 83.976116 56.720765 L 83.903367 56.395799 L 83.829913 56.070436 L 83.755748 55.744665 L 83.680865 55.418474 L 83.605260 55.091851 L 83.528925 54.764785 L 83.451856 54.437265 L 83.374046 54.109278 L 83.295488 53.780813 L 83.216176 53.451858 L 83.136103 53.122401 L 83.055263 52.792430 L 82.973649 52.461933 L 82.891253 52.130898 L 82.808070 51.799313 L 82.724091 51.467165 L 82.639308 51.134443 L 82.553716 50.801134 L 82.467305 50.467225 L 82.380068 50.132704 L 82.291998 49.797559 L 82.203085 49.461777 L 82.113322 49.125345 L 82.022700 48.788250 L 81.931211 48.450479 L 81.838845 48.112020 L 81.745595 47.772860 L 81.651451 47.432984 L 81.556404 47.092381 L 81.460444 46.751036 L 81.363561 46.408936 L 81.265747 46.066068 L 81.166991 45.722419 L 81.067283 45.377973 L 80.966613 45.032719 L 80.864970 44.686640 L 80.762344 44.339725 L 80.658723 43.991958 L 80.554097 43.643325 L 80.448455 43.293813 L 80.341784 42.943406 L 80.234074 42.592090 L 80.125313 42.239850 L 80.015487 41.886671 L 79.904586 41.532539 L 79.792596 41.177439 L 79.679505 40.821355 L 79.565300 40.464272 L 79.449966 40.106175 L 79.333492 39.747048 L 79.215864 39.386875 L 79.097066 39.025641 L 78.977085 38.663329 L 78.855907 38.299924 L 78.733517 37.935409 L 78.609899 37.569768 L 78.485038 37.202985 L 78.358920 36.835042 L 78.231527 36.465923 L 78.102844 36.095611 L 77.972854 35.724089 L 77.841540 35.351339 L 77.708886 34.977343 L 77.574874 34.602086 L 77.439485 34.225547 L 77.302703 33.847711 L 77.164509 33.468557 L 77.024883 33.088069 L 76.883807 32.706228 L 76.741262 32.323014 L 76.597227 31.938409 L 76.451682 31.552395 L 76.304606 31.164951 L 76.155980 30.776059 L 76.005780 30.385698 L 75.853986 29.993849 L 75.700576 29.600493 L 75.545525 29.205608 L 75.388812 28.809174 L 75.230414 28.411171 L 75.070305 28.011578 L 74.908461 27.610373 L 74.744858 27.207536 L 74.579471 26.803045 L 74.412272 26.396879 L 74.243237 25.989015 L 74.072337 25.579431 L 73.899545 25.168104 L 73.724834 24.755013 L 73.548175 24.340134 L 73.369538 23.923445 L 73.188895 23.504921 L 73.006214 23.084539 L 72.821464 22.662275 L 72.634615 22.238106 L 72.445633 21.812007 L 72.254487 21.383952 L 72.061142 20.953918 L 71.865565 20.521879 L 71.667720 20.087810 L 71.467572 19.651685 L 71.265084 19.213477 L 71.060219 18.773162 L 70.852941 18.330711 L 70.643208 17.886099 L 70.430984 17.439298 L 70.216226 16.990281 L 69.998894 16.539020 L 69.778946 16.085487 L 69.556339 15.629654 L 69.331029 15.171492 L 69.102972 14.710973 L 68.872121 14.248067 L 68.638430 13.782744 L 68.401851 13.314975 L 68.162336 12.844730 L 67.919834 12.371978 L 67.674295 11.896688 L 67.425668 11.418830 L 67.173897 10.938371 L 66.918930 10.455281 L 66.660711 9.969527 L 66.399183 9.481076 L 66.148856 9.016908" fill="none" id="tattoo-path-baac69213dd33bb3" stroke="#000000" stroke-linecap="round" stroke-linejoin="round" stroke-width="1.900000"/>
  <path clip-path="url(#tattoo-band-layer-clip)" d="M 11.206448 90.207074 L 11.297973 90.140805 L 11.749966 89.815361 L 12.199512 89.493471 L 12.646641 89.175076 L 13.091382 88.860115 L 13.533764 88.548531 L 13.973816 88.240268 L 14.411567 87.935269 L 14.847045 87.633482 L 15.280278 87.334853 L 15.711295 87.039329 L 16.140121 86.746860 L 16.566786 86.457397 L 16.991315 86.170890 L 17.413735 85.887291 L 17.834073 85.606553 L 18.252355 85.328632 L 18.668605 85.053481 L 19.082851 84.781056 L 19.495117 84.511315 L 19.905428 84.244216 L 20.313808 83.979715 L 20.720283 83.717774 L 21.124876 83.458352 L 21.527611 83.201410 L 21.928512 82.946910 L 22.327603 82.694813 L 22.724906 82.445085 L 23.120445 82.197687 L 23.514242 81.952585 L 23.906319 81.709745 L 24.296699 81.469131 L 24.685404 81.230711 L 25.072456 80.994452 L 25.457875 80.760321 L 25.841684 80.528288 L 26.223903 80.298321 L 26.604553 80.070389 L 26.983656 79.844463 L 27.361230 79.620514 L 27.737297 79.398513 L 28.111877 79.178431 L 28.484989 78.960242 L 28.856652 78.743917 L 29.226887 78.529431 L 29.595713 78.316756 L 29.963148 78.105868 L 30.329211 77.896741 L 30.693921 77.689350 L 31.057297 77.483671 L 31.419357 77.279679 L 31.780118 77.077352 L 32.139599 76.876667 L 32.497817 76.677600 L 32.854791 76.480130 L 33.210536 76.284234 L 33.565072 76.089891 L 33.918414 75.897080 L 34.270580 75.705780 L 34.621586 75.515970 L 34.971449 75.327632 L 35.320185 75.140744 L 35.667812 74.955288 L 36.014344 74.771244 L 36.359798 74.588595 L 36.704189 74.407320 L 37.047534 74.227403 L 37.389848 74.048826 L 37.731147 73.871571 L 38.071445 73.695620 L 38.410758 73.520958 L 38.749101 73.347567 L 39.086488 73.175431 L 39.422936 73.004534 L 39.758457 72.834860 L 40.093068 72.666393 L 40.426782 72.499119 L 40.759613 72.333023 L 41.091576 72.168088 L 41.422685 72.004302 L 41.752953 71.841649 L 42.082395 71.680116 L 42.411025 71.519688 L 42.738855 71.360352 L 43.065900 71.202095 L 43.392173 71.044903 L 43.717688 70.888763 L 44.042457 70.733663 L 44.366494 70.579590 L 44.689811 70.426532 L 45.012422 70.274476 L 45.334340 70.123410 L 45.655577 69.973323 L 45.976147 69.824203 L 46.296061 69.676039 L 46.615332 69.528819 L 46.933973 69.382532 L 47.251996 69.237167 L 47.569413 69.092714 L 47.886237 68.949162 L 48.202479 68.806500 L 48.518153 68.664719 L 48.833269 68.523807 L 49.147839 68.383756 L 49.461877 68.244556 L 49.775392 68.106196 L 50.088398 67.968668 L 50.400905 67.831962 L 50.712926 67.696068 L 51.024472 67.560978 L 51.335554 67.426683 L 51.646183 67.293174 L 51.956372 67.160443 L 52.266132 67.028480 L 52.575473 66.897278 L 52.884407 66.766828 L 53.192945 66.637122 L 53.501098 66.508152 L 53.808878 66.379911 L 54.116295 66.252390 L 54.423361 66.125581 L 54.730086 65.999478 L 55.036480 65.874073 L 55.342556 65.749358 L 55.648324 65.625326 L 55.953795 65.501971 L 56.258978 65.379284 L 56.563886 65.257260 L 56.868529 65.135892 L 57.172917 65.015173 L 57.477062 64.895096 L 57.780972 64.775655 L 58.084661 64.656843 L 58.388137 64.538654 L 58.691411 64.421083 L 58.994494 64.304123 L 59.297396 64.187767 L 59.600128 64.072011 L 59.902700 63.956848 L 60.205123 63.842272 L 60.507406 63.728279 L 60.809561 63.614862 L 61.111598 63.502016 L 61.413527 63.389736 L 61.715358 63.278016 L 62.017102 63.166851 L 62.318769 63.056236 L 62.620370 62.946166 L 62.921914 62.836636 L 63.223412 62.727642 L 63.524875 62.619178 L 63.826312 62.511239 L 64.127734 62.403822 L 64.429152 62.296921 L 64.730575 62.190532 L 65.032014 62.084651 L 65.333479 61.979273 L 65.634981 61.874394 L 65.936529 61.770009 L 66.238135 61.666116 L 66.539808 61.562709 L 66.841559 61.459785 L 67.143399 61.357340 L 67.445337 61.255369 L 67.747384 61.153870 L 68.049550 61.052838 L 68.351847 60.952270 L 68.654283 60.852163 L 68.956871 60.752512 L 69.259620 60.653315 L 69.562541 60.554567 L 69.865644 60.456267 L 70.168940 60.358410 L 70.472440 60.260993 L 70.776153 60.164013 L 71.080092 60.067468 L 71.384266 59.971353 L 71.688686 59.875667 L 71.993364 59.780407 L 72.298309 59.685569 L 72.603533 59.591151 L 72.909046 59.497150 L 73.214860 59.403564 L 73.520984 59.310390 L 73.827432 59.217626 L 74.134212 59.125269 L 74.441338 59.033317 L 74.748818 58.941768 L 75.056666 58.850619 L 75.364891 58.759868 L 75.673506 58.669513 L 75.982522 58.579553 L 76.291949 58.489984 L 76.601800 58.400806 L 76.912086 58.312016 L 77.222819 58.223613 L 77.534009 58.135594 L 77.845670 58.047958 L 78.157812 57.960704 L 78.470448 57.873830 L 78.783590 57.787334 L 79.097249 57.701215 L 79.411437 57.615472 L 79.726167 57.530104 L 80.041450 57.445108 L 80.357300 57.360484 L 80.673728 57.276231 L 80.990747 57.192348 L 81.308370 57.108834 L 81.626608 57.025688 L 81.945476 56.942908 L 82.264984 56.860495 L 82.585147 56.778447 L 82.905978 56.696764 L 83.227489 56.615445 L 83.549694 56.534490 L 83.872605 56.453899 L 84.196237 56.373670 L 84.520603 56.293803 L 84.845716 56.214299 L 85.171590 56.135157 L 85.498240 56.056377 L 85.825678 55.977959 L 86.153918 55.899903 L 86.482976 55.822209 L 86.812866 55.744877 L 87.143600 55.667908 L 87.475196 55.591302 L 87.807666 55.515058 L 88.141026 55.439179 L 88.475291 55.363664 L 88.810475 55.288514 L 89.146595 55.213729 L 89.483664 55.139311 L 89.821700 55.065260 L 90.160717 54.991577 L 90.500731 54.918264 L 90.841759 54.845321 L 91.183816 54.772750 L 91.526918 54.700552 L 91.871083 54.628729 L 92.216326 54.557281 L 92.562665 54.486211 L 92.910116 54.415520 L 93.258697 54.345210 L 93.608424 54.275283 L 93.959316 54.205740 L 94.311389 54.136585 L 94.664662 54.067819 L 95.019154 53.999444 L 95.374881 53.931462 L 95.731863 53.863877 L 96.090118 53.796691 L 96.449665 53.729906 L 96.810524 53.663526 L 97.172713 53.597553 L 97.536252 53.531991 L 97.901161 53.466842 L 98.267459 53.402110 L 98.635167 53.337799 L 99.004306 53.273911 L 99.374896 53.210451 L 99.746958 53.147423 L 100.120513 53.084830 L 100.495583 53.022677 L 100.872189 52.960967 L 101.250354 52.899706 L 101.630099 52.838897 L 102.011447 52.778546 L 102.394421 52.718657 L 102.779044 52.659236 L 103.165340 52.600287 L 103.553332 52.541816 L 103.943044 52.483828 L 104.334500 52.426330 L 104.727726 52.369326 L 105.122745 52.312823 L 105.519584 52.256828 L 105.918267 52.201346 L 106.318821 52.146384 L 106.721273 52.091949 L 107.125648 52.038048 L 107.531974 51.984689 L 107.940278 51.931878 L 108.350588 51.879624 L 108.762932 51.827933 L 109.177339 51.776816 L 109.593837 51.726278 L 110.012456 51.676330 L 110.433225 51.626980 L 110.856175 51.578238 L 111.281337 51.530112 L 111.708741 51.482612 L 112.138418 51.435747 L 112.570402 51.389530 L 113.004723 51.343968 L 113.441415 51.299074 L 113.880512 51.254859 L 114.322047 51.211333 L 114.766054 51.168509 L 115.212569 51.126398 L 115.661626 51.085013 L 116.113262 51.044366 L 116.567513 51.004471 L 117.024417 50.965341 L 117.484009 50.926989 L 117.946330 50.889430 L 118.411416 50.852679 L 118.879309 50.816750 L 119.350047 50.781658 L 119.823671 50.747420 L 120.300223 50.714052 L 120.779744 50.681570 L 121.262277 50.649991 L 121.747864 50.619334 L 122.236550 50.589616 L 122.728379 50.560856 L 123.223397 50.533072 L 123.721649 50.506286 L 124.223183 50.480516 L 124.728045 50.455784 L 125.236284 50.432111 L 125.747949 50.409519 L 126.263089 50.388031 L 126.781757 50.367670 L 127.304002 50.348459 L 127.829878 50.330423 L 128.359437 50.313588 L 128.892735 50.297979 L 129.429825 50.283624 L 129.970764 50.270549 L 130.515610 50.258782 L 131.064418 50.248354 L 131.617250 50.239293 L 132.174164 50.231630 L 132.287154 50.230375" fill="none" id="tattoo-path-0d67651e957d33e3" stroke="#000000" stroke-linecap="round" stroke-linejoin="round" stroke-width="1.600000"/>
  <path clip-path="url(#tattoo-band-layer-clip)" d="M 22.419451 112.026935 L 22.843883 111.724113 L 23.294441 111.402394 L 23.741417 111.082978 L 24.184870 110.765830 L 24.624859 110.450913 L 25.061441 110.138192 L 25.494670 109.827633 L 25.924602 109.519202 L 26.351291 109.212866 L 26.774788 108.908592 L 27.195146 108.606347 L 27.612414 108.306101 L 28.026643 108.007823 L 28.437881 107.711482 L 28.846175 107.417048 L 29.251573 107.124492 L 29.654120 106.833786 L 30.053861 106.544901 L 30.450841 106.257808 L 30.845102 105.972482 L 31.236688 105.688894 L 31.625640 105.407019 L 32.012000 105.126831 L 32.395807 104.848304 L 32.777101 104.571412 L 33.155921 104.296132 L 33.532306 104.022438 L 33.906292 103.750308 L 34.277917 103.479717 L 34.647217 103.210643 L 35.014227 102.943062 L 35.378983 102.676952 L 35.741518 102.412292 L 36.101868 102.149059 L 36.460064 101.887232 L 36.816140 101.626791 L 37.170127 101.367713 L 37.522058 101.109980 L 37.871964 100.853571 L 38.219874 100.598466 L 38.565819 100.344645 L 38.909829 100.092091 L 39.251933 99.840782 L 39.592160 99.590702 L 39.930537 99.341832 L 40.267092 99.094153 L 40.601853 98.847648 L 40.934847 98.602299 L 41.266100 98.358089 L 41.595638 98.115001 L 41.923487 97.873017 L 42.249672 97.632123 L 42.574218 97.392300 L 42.897149 97.153533 L 43.218491 96.915807 L 43.538266 96.679104 L 43.856497 96.443411 L 44.173209 96.208711 L 44.488424 95.974989 L 44.802165 95.742231 L 45.114452 95.510422 L 45.425309 95.279548 L 45.734757 95.049593 L 46.042817 94.820545 L 46.349510 94.592388 L 46.654856 94.365110 L 46.958877 94.138696 L 47.261591 93.913134 L 47.563019 93.688409 L 47.863181 93.464510 L 48.162095 93.241422 L 48.459781 93.019133 L 48.756257 92.797631 L 49.051543 92.576903 L 49.345655 92.356936 L 49.638613 92.137719 L 49.930434 91.919239 L 50.221136 91.701485 L 50.510736 91.484444 L 50.799252 91.268104 L 51.086699 91.052456 L 51.373096 90.837486 L 51.658459 90.623184 L 51.942803 90.409538 L 52.226146 90.196538 L 52.508502 89.984172 L 52.789889 89.772430 L 53.070321 89.561301 L 53.349814 89.350774 L 53.628384 89.140839 L 53.906044 88.931485 L 54.182811 88.722703 L 54.458700 88.514481 L 54.733723 88.306810 L 55.007897 88.099680 L 55.281235 87.893081 L 55.553751 87.687002 L 55.825461 87.481436 L 56.096376 87.276370 L 56.366511 87.071797 L 56.635880 86.867706 L 56.904496 86.664089 L 57.172373 86.460935 L 57.439523 86.258236 L 57.705959 86.055983 L 57.971695 85.854165 L 58.236744 85.652775 L 58.501117 85.451804 L 58.764828 85.251242 L 59.027889 85.051080 L 59.290313 84.851310 L 59.552110 84.651924 L 59.813295 84.452912 L 60.073879 84.254266 L 60.333873 84.055977 L 60.593290 83.858038 L 60.852141 83.660439 L 61.110438 83.463172 L 61.368192 83.266230 L 61.625416 83.069603 L 61.882120 82.873284 L 62.138315 82.677264 L 62.394013 82.481535 L 62.649225 82.286090 L 62.903963 82.090920 L 63.158236 81.896017 L 63.412056 81.701374 L 63.665433 81.506982 L 63.918379 81.312834 L 64.170904 81.118922 L 64.423019 80.925237 L 64.674734 80.731774 L 64.926060 80.538523 L 65.177007 80.345477 L 65.427585 80.152628 L 65.677806 79.959969 L 65.927678 79.767492 L 66.177213 79.575191 L 66.426420 79.383056 L 66.675310 79.191081 L 66.923892 78.999258 L 67.172176 78.807580 L 67.420174 78.616039 L 67.667893 78.424629 L 67.915345 78.233341 L 68.162539 78.042168 L 68.409484 77.851103 L 68.656191 77.660138 L 68.902670 77.469267 L 69.148929 77.278482 L 69.394979 77.087775 L 69.640829 76.897140 L 69.886489 76.706569 L 70.131968 76.516055 L 70.377275 76.325591 L 70.622421 76.135169 L 70.867415 75.944782 L 71.112266 75.754423 L 71.356983 75.564085 L 71.601576 75.373760 L 71.846055 75.183442 L 72.090428 74.993122 L 72.334705 74.802795 L 72.578896 74.612452 L 72.823009 74.422087 L 73.067054 74.231692 L 73.311041 74.041260 L 73.554978 73.850784 L 73.798875 73.660256 L 74.042741 73.469669 L 74.286585 73.279017 L 74.530417 73.088291 L 74.774245 72.897485 L 75.018080 72.706591 L 75.261930 72.515602 L 75.505805 72.324511 L 75.749714 72.133310 L 75.993666 71.941991 L 76.237670 71.750549 L 76.481736 71.558974 L 76.725873 71.367260 L 76.970091 71.175400 L 77.214398 70.983385 L 77.458804 70.791209 L 77.703318 70.598864 L 77.947950 70.406342 L 78.192709 70.213636 L 78.437605 70.020738 L 78.682647 69.827641 L 78.927843 69.634337 L 79.173205 69.440818 L 79.418741 69.247077 L 79.664461 69.053106 L 79.910374 68.858897 L 80.156490 68.664442 L 80.402818 68.469734 L 80.649369 68.274764 L 80.896151 68.079525 L 81.143176 67.884009 L 81.390451 67.688207 L 81.637988 67.492112 L 81.885795 67.295715 L 82.133883 67.099009 L 82.382262 66.901984 L 82.630942 66.704634 L 82.879932 66.506949 L 83.129243 66.308922 L 83.378885 66.110543 L 83.628867 65.911804 L 83.879201 65.712697 L 84.129897 65.513214 L 84.380964 65.313345 L 84.632413 65.113081 L 84.884255 64.912415 L 85.136500 64.711337 L 85.389158 64.509838 L 85.642241 64.307910 L 85.895759 64.105543 L 86.149723 63.902728 L 86.404143 63.699456 L 86.659031 63.495717 L 86.914397 63.291503 L 87.170253 63.086804 L 87.426609 62.881610 L 87.683478 62.675912 L 87.940870 62.469700 L 88.198796 62.262964 L 88.457269 62.055694 L 88.716299 61.847882 L 88.975899 61.639515 L 89.236079 61.430585 L 89.496853 61.221081 L 89.758232 61.010993 L 90.020228 60.800310 L 90.282853 60.589022 L 90.546120 60.377118 L 90.810040 60.164587 L 91.074627 59.951418 L 91.339893 59.737602 L 91.605851 59.523125 L 91.872513 59.307978 L 92.139892 59.092149 L 92.408002 58.875626 L 92.676856 58.658398 L 92.946467 58.440453 L 93.216849 58.221779 L 93.488014 58.002364 L 93.759978 57.782197 L 94.032754 57.561264 L 94.306355 57.339554 L 94.580797 57.117053 L 94.856093 56.893750 L 95.132257 56.669632 L 95.409306 56.444684 L 95.687253 56.218895 L 95.966113 55.992251 L 96.245901 55.764738 L 96.526633 55.536343 L 96.808325 55.307051 L 97.090991 55.076850 L 97.374648 54.845724 L 97.659312 54.613659 L 97.944999 54.380641 L 98.231725 54.146655 L 98.519508 53.911686 L 98.808363 53.675719 L 99.098308 53.438738 L 99.389360 53.200728 L 99.681537 52.961674 L 99.974856 52.721558 L 100.269335 52.480365 L 100.564993 52.238079 L 100.861847 51.994683 L 101.159916 51.750159 L 101.459219 51.504491 L 101.759776 51.257662 L 102.061605 51.009653 L 102.364726 50.760447 L 102.669159 50.510025 L 102.974924 50.258369 L 103.282042 50.005461 L 103.590533 49.751281 L 103.900419 49.495810 L 104.211720 49.239029 L 104.524458 48.980917 L 104.838655 48.721454 L 105.154334 48.460621 L 105.471516 48.198395 L 105.790225 47.934756 L 106.110484 47.669683 L 106.432317 47.403153 L 106.755747 47.135145 L 107.080799 46.865635 L 107.407497 46.594601 L 107.735866 46.322019 L 108.065932 46.047867 L 108.397720 45.772119 L 108.731257 45.494752 L 109.066569 45.215740 L 109.403683 44.935059 L 109.742627 44.652682 L 110.083429 44.368583 L 110.426116 44.082736 L 110.770718 43.795113 L 111.117264 43.505688 L 111.465783 43.214432 L 111.816307 42.921316 L 112.168864 42.626312 L 112.523488 42.329389 L 112.880208 42.030519 L 113.239059 41.729669 L 113.600072 41.426810 L 113.963281 41.121909 L 114.328720 40.814934 L 114.696423 40.505852 L 115.066426 40.194630 L 115.438764 39.881233 L 115.813474 39.565627 L 116.190592 39.247775 L 116.570157 38.927643 L 116.952207 38.605193 L 117.336781 38.280387 L 117.723918 37.953188 L 118.113659 37.623556 L 118.506046 37.291452 L 118.901120 36.956835 L 119.298924 36.619663 L 119.699502 36.279894 L 120.102898 35.937486 L 120.509157 35.592395 L 120.918325 35.244575 L 121.330450 34.893981 L 121.745579 34.540566 L 122.163761 34.184283 L 122.585046 33.825083 L 122.981667 33.486653" fill="none" id="tattoo-path-6d3ef71814d4a7f8" stroke="#000000" stroke-linecap="round" stroke-linejoin="round" stroke-width="1.200000"/>
  <path clip-path="url(#tattoo-band-layer-clip)" d="M 24.506108 114.536013 L 24.384523 114.198700 L 24.199133 113.672356 L 24.018094 113.146168 L 23.841378 112.620162 L 23.668960 112.094366 L 23.500811 111.568803 L 23.336906 111.043500 L 23.177217 110.518480 L 23.021718 109.993769 L 22.870383 109.469388 L 22.723185 108.945362 L 22.580098 108.421713 L 22.441095 107.898462 L 22.306152 107.375632 L 22.175242 106.853244 L 22.048340 106.331319 L 21.925420 105.809877 L 21.806457 105.288937 L 21.691426 104.768520 L 21.580301 104.248644 L 21.473058 103.729328 L 21.369673 103.210591 L 21.270120 102.692450 L 21.174376 102.174922 L 21.082415 101.658026 L 20.994216 101.141777 L 20.909752 100.626193 L 20.829002 100.111289 L 20.751940 99.597080 L 20.678545 99.083583 L 20.608793 98.570813 L 20.542661 98.058783 L 20.480126 97.547509 L 20.421166 97.037005 L 20.365759 96.527284 L 20.313882 96.018360 L 20.265513 95.510246 L 20.220631 95.002955 L 20.179214 94.496499 L 20.141240 93.990891 L 20.106689 93.486144 L 20.075540 92.982268 L 20.047771 92.479275 L 20.023362 91.977177 L 20.002293 91.475985 L 19.984543 90.975709 L 19.970093 90.476360 L 19.958922 89.977948 L 19.951011 89.480484 L 19.946340 88.983977 L 19.944891 88.488437 L 19.946644 87.993873 L 19.951581 87.500295 L 19.959682 87.007712 L 19.970929 86.516132 L 19.985305 86.025564 L 20.002791 85.536017 L 20.023369 85.047498 L 20.047021 84.560017 L 20.073731 84.073580 L 20.103481 83.588196 L 20.136253 83.103872 L 20.172031 82.620615 L 20.210799 82.138434 L 20.252539 81.657334 L 20.297236 81.177324 L 20.344873 80.698409 L 20.395434 80.220596 L 20.448905 79.743893 L 20.505269 79.268305 L 20.564510 78.793838 L 20.626615 78.320499 L 20.691567 77.848295 L 20.759353 77.377229 L 20.829957 76.907310 L 20.903365 76.438541 L 20.979563 75.970930 L 21.058537 75.504480 L 21.140274 75.039199 L 21.224759 74.575090 L 21.311979 74.112160 L 21.401920 73.650412 L 21.494571 73.189853 L 21.589917 72.730488 L 21.687946 72.272320 L 21.788646 71.815355 L 21.892004 71.359598 L 21.998008 70.905052 L 22.106645 70.451724 L 22.217905 69.999617 L 22.331775 69.548735 L 22.448244 69.099084 L 22.567301 68.650667 L 22.688934 68.203489 L 22.813132 67.757553 L 22.939885 67.312865 L 23.069182 66.869428 L 23.201013 66.427246 L 23.335366 65.986324 L 23.472233 65.546665 L 23.611602 65.108273 L 23.753465 64.671153 L 23.897811 64.235308 L 24.044631 63.800742 L 24.193916 63.367459 L 24.345656 62.935464 L 24.499843 62.504759 L 24.656467 62.075348 L 24.815520 61.647236 L 24.976994 61.220426 L 25.140879 60.794922 L 25.307168 60.370728 L 25.475852 59.947848 L 25.646924 59.526285 L 25.820375 59.106043 L 25.996199 58.687126 L 26.174387 58.269538 L 26.354932 57.853282 L 26.537827 57.438363 L 26.723065 57.024783 L 26.910638 56.612548 L 27.100541 56.201661 L 27.292766 55.792125 L 27.487307 55.383945 L 27.684158 54.977125 L 27.883312 54.571668 L 28.084762 54.167578 L 28.288504 53.764860 L 28.494531 53.363518 L 28.702838 52.963555 L 28.913419 52.564976 L 29.126267 52.167784 L 29.341380 51.771984 L 29.558750 51.377581 L 29.778372 50.984578 L 30.000243 50.592979 L 30.224357 50.202790 L 30.450709 49.814014 L 30.679294 49.426657 L 30.910109 49.040721 L 31.143149 48.656213 L 31.378409 48.273136 L 31.615886 47.891495 L 31.855575 47.511296 L 32.097473 47.132542 L 32.341575 46.755238 L 32.587879 46.379391 L 32.836380 46.005004 L 33.087075 45.632082 L 33.339961 45.260632 L 33.595035 44.890657 L 33.852292 44.522163 L 34.111731 44.155157 L 34.373349 43.789642 L 34.637142 43.425624 L 34.903108 43.063110 L 35.171243 42.702105 L 35.441547 42.342614 L 35.714016 41.984644 L 35.988647 41.628201 L 36.265439 41.273289 L 36.544390 40.919917 L 36.825496 40.568089 L 37.108758 40.217812 L 37.394171 39.869093 L 37.681735 39.521939 L 37.971449 39.176354 L 38.263309 38.832348 L 38.557315 38.489926 L 38.853465 38.149095 L 39.151759 37.809862 L 39.452193 37.472235 L 39.754768 37.136221 L 40.059482 36.801827 L 40.366334 36.469061 L 40.675323 36.137931 L 40.986448 35.808443 L 41.299709 35.480607 L 41.615103 35.154429 L 41.932631 34.829919 L 42.252292 34.507085 L 42.574085 34.185934 L 42.898010 33.866475 L 43.224066 33.548718 L 43.552253 33.232671 L 43.882570 32.918342 L 44.215018 32.605742 L 44.549595 32.294878 L 44.886301 31.985761 L 45.225137 31.678400 L 45.566102 31.372805 L 45.909196 31.068986 L 46.254419 30.766951 L 46.601771 30.466713 L 46.951252 30.168280 L 47.302862 29.871664 L 47.656601 29.576874 L 48.012470 29.283922 L 48.370469 28.992819 L 48.730597 28.703575 L 49.092855 28.416203 L 49.457243 28.130712 L 49.823762 27.847116 L 50.192412 27.565425 L 50.563193 27.285652 L 50.936105 27.007809 L 51.311150 26.731908 L 51.688326 26.457961 L 52.067635 26.185982 L 52.449077 25.915983 L 52.832652 25.647977 L 53.218362 25.381977 L 53.606205 25.117997 L 53.996183 24.856050 L 54.388295 24.596151 L 54.782543 24.338313 L 55.178927 24.082550 L 55.577447 23.828877 L 55.978103 23.577309 L 56.380896 23.327860 L 56.785825 23.080546 L 57.192892 22.835381 L 57.602097 22.592381 L 58.013439 22.351562 L 58.426919 22.112939 L 58.842538 21.876530 L 59.260294 21.642349 L 59.680189 21.410414 L 60.102222 21.180742 L 60.526393 20.953349 L 60.952702 20.728252 L 61.381149 20.505470 L 61.811735 20.285020 L 62.244457 20.066919 L 62.679317 19.851187 L 63.116314 19.637841 L 63.555447 19.426900 L 63.996717 19.218383 L 64.440121 19.012309 L 64.885660 18.808698 L 65.333332 18.607569 L 65.783137 18.408943 L 66.235075 18.212838 L 66.689142 18.019276 L 67.145340 17.828278 L 67.603665 17.639864 L 68.064117 17.454055 L 68.526694 17.270873 L 68.991395 17.090340 L 69.458218 16.912478 L 69.927160 16.737309 L 70.398220 16.564855 L 70.871395 16.395139 L 71.346683 16.228185 L 71.824082 16.064015 L 72.303588 15.902654 L 72.785200 15.744126 L 73.268913 15.588453 L 73.754726 15.435662 L 74.242633 15.285776 L 74.732632 15.138821 L 75.224720 14.994822 L 75.718891 14.853805 L 76.215142 14.715796 L 76.713468 14.580821 L 77.213866 14.448906 L 77.716329 14.320078 L 78.220853 14.194364 L 78.727433 14.071792 L 79.236063 13.952390 L 79.746737 13.836184 L 80.259450 13.723205 L 80.774194 13.613479 L 81.290964 13.507037 L 81.809752 13.403907 L 82.330552 13.304118 L 82.853355 13.207702 L 83.378155 13.114687 L 83.904942 13.025104 L 84.433709 12.938983 L 84.964448 12.856357 L 85.497148 12.777255 L 86.031801 12.701711 L 86.568396 12.629754 L 87.106925 12.561419 L 87.647376 12.496737 L 88.189738 12.435741 L 88.734000 12.378465 L 89.280152 12.324941 L 89.828180 12.275204 L 90.378072 12.229287 L 90.929816 12.187225 L 91.483397 12.149053 L 92.038804 12.114805 L 92.596020 12.084516 L 92.954181 12.067670" fill="none" id="tattoo-path-e607785e959518dc" stroke="#000000" stroke-linecap="round" stroke-linejoin="round" stroke-width="1.000000"/>
  <path clip-path="url(#tattoo-band-layer-clip)" d="M 110.605351 123.670521 L 110.244226 123.534734 L 109.725109 123.337029 L 109.210195 123.138442 L 108.699430 122.939000 L 108.192759 122.738730 L 107.690129 122.537658 L 107.191488 122.335807 L 106.696784 122.133201 L 106.205966 121.929864 L 105.718983 121.725818 L 105.235788 121.521085 L 104.756329 121.315685 L 104.280560 121.109639 L 103.808434 120.902965 L 103.339902 120.695684 L 102.874921 120.487813 L 102.413443 120.279370 L 101.955426 120.070372 L 101.500823 119.860835 L 101.049593 119.650776 L 100.601693 119.440209 L 100.157079 119.229150 L 99.715712 119.017613 L 99.277549 118.805612 L 98.842551 118.593160 L 98.410677 118.380269 L 97.981890 118.166953 L 97.556149 117.953224 L 97.133417 117.739092 L 96.713657 117.524569 L 96.296831 117.309666 L 95.882903 117.094392 L 95.471838 116.878759 L 95.063599 116.662775 L 94.658152 116.446449 L 94.255462 116.229791 L 93.855496 116.012809 L 93.458220 115.795510 L 93.063601 115.577904 L 92.671606 115.359996 L 92.282204 115.141795 L 91.895363 114.923307 L 91.511052 114.704538 L 91.129240 114.485496 L 90.749897 114.266186 L 90.372993 114.046613 L 89.998498 113.826783 L 89.626384 113.606701 L 89.256621 113.386373 L 88.889183 113.165803 L 88.524040 112.944995 L 88.161166 112.723953 L 87.800533 112.502682 L 87.442114 112.281185 L 87.085884 112.059465 L 86.731817 111.837527 L 86.379886 111.615373 L 86.030066 111.393006 L 85.682333 111.170429 L 85.336662 110.947644 L 84.993029 110.724653 L 84.651409 110.501460 L 84.311780 110.278065 L 83.974118 110.054471 L 83.638400 109.830679 L 83.304603 109.606690 L 82.972705 109.382507 L 82.642685 109.158129 L 82.314519 108.933559 L 81.988187 108.708796 L 81.663668 108.483842 L 81.340941 108.258697 L 81.019985 108.033362 L 80.700779 107.807836 L 80.383304 107.582120 L 80.067540 107.356214 L 79.753467 107.130117 L 79.441067 106.903830 L 79.130319 106.677352 L 78.821206 106.450683 L 78.513708 106.223821 L 78.207808 105.996766 L 77.903487 105.769518 L 77.600727 105.542075 L 77.299511 105.314436 L 76.999822 105.086600 L 76.701642 104.858565 L 76.404955 104.630331 L 76.109743 104.401896 L 75.815990 104.173257 L 75.523681 103.944414 L 75.232798 103.715365 L 74.943326 103.486107 L 74.655250 103.256639 L 74.368553 103.026958 L 74.083221 102.797063 L 73.799239 102.566951 L 73.516591 102.336619 L 73.235263 102.106066 L 72.955240 101.875289 L 72.676508 101.644284 L 72.399053 101.413050 L 72.122861 101.181584 L 71.847919 100.949882 L 71.574211 100.717942 L 71.301726 100.485761 L 71.030449 100.253336 L 70.760368 100.020663 L 70.491469 99.787739 L 70.223741 99.554561 L 69.957169 99.321126 L 69.691742 99.087429 L 69.427447 98.853468 L 69.164273 98.619239 L 68.902207 98.384738 L 68.641237 98.149962 L 68.381351 97.914905 L 68.122538 97.679566 L 67.864787 97.443939 L 67.608086 97.208020 L 67.352423 96.971807 L 67.097789 96.735293 L 66.844172 96.498475 L 66.591560 96.261349 L 66.339945 96.023911 L 66.089314 95.786155 L 65.839659 95.548078 L 65.590968 95.309674 L 65.343231 95.070940 L 65.096438 94.831870 L 64.850580 94.592459 L 64.605647 94.352703 L 64.361629 94.112598 L 64.118516 93.872137 L 63.876300 93.631316 L 63.634970 93.390130 L 63.394518 93.148573 L 63.154935 92.906641 L 62.916211 92.664327 L 62.678339 92.421628 L 62.441308 92.178537 L 62.205111 91.935048 L 61.969739 91.691157 L 61.735184 91.446858 L 61.501436 91.202144 L 61.268489 90.957011 L 61.036334 90.711451 L 60.804963 90.465461 L 60.574368 90.219033 L 60.344542 89.972161 L 60.115475 89.724840 L 59.887162 89.477064 L 59.659595 89.228825 L 59.432765 88.980118 L 59.206667 88.730937 L 58.981292 88.481275 L 58.756633 88.231125 L 58.532684 87.980481 L 58.309437 87.729337 L 58.086886 87.477686 L 57.865024 87.225520 L 57.643844 86.972834 L 57.423340 86.719619 L 57.203505 86.465870 L 56.984333 86.211580 L 56.765817 85.956740 L 56.547951 85.701344 L 56.330730 85.445385 L 56.114146 85.188855 L 55.898195 84.931747 L 55.682869 84.674053 L 55.468165 84.415767 L 55.254074 84.156879 L 55.040593 83.897383 L 54.827715 83.637270 L 54.615436 83.376533 L 54.403749 83.115164 L 54.192649 82.853155 L 53.982132 82.590498 L 53.772191 82.327183 L 53.562822 82.063204 L 53.354021 81.798552 L 53.145781 81.533218 L 52.938099 81.267194 L 52.730969 81.000471 L 52.524387 80.733040 L 52.318348 80.464893 L 52.112849 80.196021 L 51.907883 79.926414 L 51.703448 79.656064 L 51.499538 79.384962 L 51.296151 79.113098 L 51.093280 78.840462 L 50.890924 78.567046 L 50.689077 78.292839 L 50.487736 78.017833 L 50.286896 77.742017 L 50.086556 77.465382 L 49.886710 77.187917 L 49.687355 76.909612 L 49.488488 76.630458 L 49.290106 76.350444 L 49.092204 76.069560 L 48.894781 75.787794 L 48.697832 75.505137 L 48.501356 75.221578 L 48.305348 74.937106 L 48.109807 74.651710 L 47.914729 74.365379 L 47.720111 74.078101 L 47.525951 73.789866 L 47.332247 73.500662 L 47.138996 73.210478 L 46.946196 72.919301 L 46.753844 72.627120 L 46.561939 72.333924 L 46.370478 72.039699 L 46.179460 71.744434 L 45.988881 71.448117 L 45.798742 71.150734 L 45.609039 70.852274 L 45.419772 70.552724 L 45.230939 70.252070 L 45.042538 69.950300 L 44.854568 69.647401 L 44.667028 69.343359 L 44.479918 69.038161 L 44.293235 68.731793 L 44.106978 68.424242 L 43.921148 68.115493 L 43.735744 67.805532 L 43.550764 67.494346 L 43.366209 67.181919 L 43.182078 66.868238 L 42.998370 66.553287 L 42.815086 66.237052 L 42.632226 65.919517 L 42.449789 65.600668 L 42.267777 65.280488 L 42.086188 64.958962 L 41.905024 64.636075 L 41.724286 64.311811 L 41.543973 63.986152 L 41.364087 63.659084 L 41.184629 63.330589 L 41.005600 63.000650 L 40.827001 62.669251 L 40.648833 62.336375 L 40.471098 62.002004 L 40.293798 61.666120 L 40.116934 61.328707 L 39.940508 60.989745 L 39.764523 60.649217 L 39.588980 60.307104 L 39.413883 59.963388 L 39.239233 59.618049 L 39.065033 59.271069 L 38.891287 58.922429 L 38.717997 58.572108 L 38.545166 58.220087 L 38.372798 57.866346 L 38.200897 57.510865 L 38.029466 57.153623 L 37.858510 56.794599 L 37.688031 56.433772 L 37.518036 56.071121 L 37.348527 55.706624 L 37.179511 55.340259 L 37.010991 54.972005 L 36.842974 54.601838 L 36.675464 54.229736 L 36.508467 53.855677 L 36.341990 53.479636 L 36.176037 53.101590 L 36.010615 52.721516 L 35.845732 52.339389 L 35.681393 51.955184 L 35.517605 51.568877 L 35.354377 51.180443 L 35.191715 50.789856 L 35.029627 50.397090 L 34.868122 50.002120 L 34.707208 49.604918 L 34.546894 49.205459 L 34.387188 48.803714 L 34.228100 48.399656 L 34.069640 47.993258 L 33.911817 47.584492 L 33.754641 47.173328 L 33.598124 46.759737 L 33.442277 46.343691 L 33.287109 45.925159 L 33.132634 45.504112 L 32.978864 45.080518 L 32.825810 44.654348 L 32.673485 44.225568 L 32.521903 43.794149 L 32.371078 43.360057 L 32.221022 42.923260 L 32.071752 42.483725 L 31.923281 42.041419 L 31.775625 41.596306 L 31.628800 41.148354 L 31.482823 40.697527 L 31.337709 40.243790 L 31.193476 39.787107 L 31.050143 39.327441 L 30.907727 38.864756 L 30.766247 38.399016 L 30.625723 37.930181 L 30.486174 37.458213 L 30.347622 36.983075 L 30.210087 36.504726 L 30.073592 36.023126 L 29.938159 35.538236 L 29.803810 35.050015 L 29.670570 34.558420 L 29.538463 34.063410 L 29.407515 33.564943 L 29.277750 33.062974 L 29.149197 32.557461 L 29.021881 32.048359 L 28.895832 31.535623 L 28.771079 31.019208 L 28.647650 30.499067 L 28.525578 29.975154 L 28.404893 29.447420 L 28.285628 28.915820 L 28.167816 28.380303 L 28.051492 27.840820 L 27.936691 27.297321 L 27.858555 26.919507" fill="none" id="tattoo-path-9876261cc2e28d46" stroke="#000000" stroke-linecap="round" stroke-linejoin="round" stroke-width="0.800000"/>
  <circle cx="72.500000" cy="72.500000" fill="none" id="tattoo-boundary-da45c61d325de3be" r="64.900000" stroke="#000000" stroke-width="2.200000"/>
</svg>
