<svg height="145.000000mm" version="1.1" viewBox="0 0 145.000000 145.000000" width="145.000000mm" xmlns="http://www.w3.org/2000/svg">
  <defs>
    <clipPath clipPathUnits="userSpaceOnUse" id="tattoo-band-layer-clip">
      <circle cx="72.500000" cy="72.500000" r="63.800000"/>
    </clipPath>
  </defs>
  <path clip-path="url(#tattoo-band-layer-clip)" d="M 114.258865 120.735228 L 113.942773 120.324627 L 113.604840 119.886064 L 113.269309 119.451018 L 112.936141 119.019432 L 112.605299 118.591248 L 112.276747 118.166410 L 111.950448 117.744864 L 111.626368 117.326555 L 111.304472 116.911431 L 110.984727 116.499440 L 110.667098 116.090532 L 110.351554 115.684656 L 110.038061 115.281765 L 109.726589 114.881810 L 109.417107 114.484744 L 109.109583 114.090522 L 108.803989 113.699098 L 108.500294 113.310428 L 108.198470 112.924469 L 107.898488 112.541177 L 107.600321 112.160511 L 107.303940 111.782431 L 107.009320 111.406895 L 106.716432 111.033863 L 106.425252 110.663298 L 106.135753 110.295161 L 105.847910 109.929414 L 105.561698 109.566020 L 105.277093 109.204943 L 104.994071 108.846148 L 104.712608 108.489600 L 104.432680 108.135264 L 104.154265 107.783106 L 103.877340 107.433094 L 103.601883 107.085194 L 103.327872 106.739374 L 103.055285 106.395604 L 102.784101 106.053852 L 102.514300 105.714087 L 102.245860 105.376279 L 101.978761 105.040400 L 101.712983 104.706419 L 101.448508 104.374309 L 101.185314 104.044040 L 100.923383 103.715587 L 100.662697 103.388920 L 100.403236 103.064014 L 100.144982 102.740842 L 99.887917 102.419379 L 99.632024 102.099598 L 99.377285 101.781474 L 99.123682 101.464983 L 98.871199 101.150100 L 98.619818 100.836802 L 98.369523 100.525063 L 98.120298 100.214863 L 97.872126 99.906176 L 97.624992 99.598980 L 97.378879 99.293254 L 97.133772 98.988976 L 96.889657 98.686122 L 96.646517 98.384673 L 96.404337 98.084607 L 96.163104 97.785903 L 95.922802 97.488541 L 95.683417 97.192501 L 95.444935 96.897762 L 95.207342 96.604306 L 94.970623 96.312112 L 94.734766 96.021161 L 94.499756 95.731436 L 94.265580 95.442916 L 94.032226 95.155584 L 93.799679 94.869422 L 93.567928 94.584412 L 93.336958 94.300535 L 93.106759 94.017775 L 92.877316 93.736114 L 92.648618 93.455536 L 92.420653 93.176024 L 92.193408 92.897560 L 91.966872 92.620129 L 91.741032 92.343714 L 91.515878 92.068300 L 91.291397 91.793871 L 91.067578 91.520410 L 90.844409 91.247903 L 90.621880 90.976335 L 90.399980 90.705690 L 90.178696 90.435953 L 89.958019 90.167110 L 89.737938 89.899146 L 89.518441 89.632046 L 89.299519 89.365798 L 89.081161 89.100385 L 88.863356 88.835795 L 88.646094 88.572013 L 88.429365 88.309027 L 88.213159 88.046822 L 87.997466 87.785385 L 87.782275 87.524703 L 87.567578 87.264762 L 87.353364 87.005551 L 87.139623 86.747055 L 86.926346 86.489263 L 86.713523 86.232161 L 86.501145 85.975738 L 86.289203 85.719980 L 86.077687 85.464876 L 85.866587 85.210413 L 85.655895 84.956579 L 85.445602 84.703364 L 85.235698 84.450753 L 85.026175 84.198737 L 84.817024 83.947303 L 84.608235 83.696440 L 84.399799 83.446137 L 84.191709 83.196381 L 83.983956 82.947162 L 83.776530 82.698469 L 83.569423 82.450291 L 83.362627 82.202617 L 83.156132 81.955435 L 82.949932 81.708735 L 82.744017 81.462507 L 82.538378 81.216739 L 82.333008 80.971421 L 82.127898 80.726542 L 81.923041 80.482093 L 81.718427 80.238062 L 81.514048 79.994440 L 81.309897 79.751216 L 81.105966 79.508380 L 80.902246 79.265922 L 80.698729 79.023831 L 80.495408 78.782099 L 80.292274 78.540714 L 80.089319 78.299668 L 79.886536 78.058949 L 79.683917 77.818549 L 79.481453 77.578458 L 79.279137 77.338665 L 79.076962 77.099162 L 78.874919 76.859939 L 78.673000 76.620986 L 78.471198 76.382294 L 78.269506 76.143853 L 78.067914 75.905654 L 77.866417 75.667687 L 77.665005 75.429944 L 77.463672 75.192414 L 77.262409 74.955089 L 77.061210 74.717959 L 76.860066 74.481015 L 76.658969 74.244248 L 76.457913 74.007649 L 76.256889 73.771208 L 76.055890 73.534917 L 75.854908 73.298766 L 75.653936 73.062746 L 75.452966 72.826848 L 75.251991 72.591064 L 75.051002 72.355384 L 74.849992 72.119799 L 74.648955 71.884300 L 74.447881 71.648879 L 74.246763 71.413525 L 74.045594 71.178231 L 73.844367 70.942988 L 73.643072 70.707786 L 73.441704 70.472616 L 73.240254 70.237470 L 73.038714 70.002339 L 72.837077 69.767213 L 72.635334 69.532084 L 72.433480 69.296943 L 72.231504 69.061782 L 72.029401 68.826590 L 71.827162 68.591359 L 71.624779 68.356081 L 71.422244 68.120746 L 71.219550 67.885345 L 71.016688 67.649870 L 70.813652 67.414311 L 70.610432 67.178659 L 70.407021 66.942906 L 70.203411 66.707043 L 69.999594 66.471060 L 69.795562 66.234948 L 69.591307 65.998699 L 69.386820 65.762302 L 69.182094 65.525750 L 68.977121 65.289033 L 68.771891 65.052142 L 68.566397 64.815067 L 68.360631 64.577800 L 68.154585 64.340331 L 67.948249 64.102651 L 67.741615 63.864751 L 67.534675 63.626621 L 67.327421 63.388251 L 67.119844 63.149634 L 66.911934 62.910758 L 66.703685 62.671615 L 66.495086 62.432195 L 66.286129 62.192488 L 66.076805 61.952485 L 65.867105 61.712177 L 65.657020 61.471553 L 65.446542 61.230603 L 65.235661 60.989319 L 65.024368 60.747690 L 64.812653 60.505705 L 64.600508 60.263356 L 64.387923 60.020632 L 64.174888 59.777523 L 63.961395 59.534019 L 63.747433 59.290110 L 63.532993 59.045784 L 63.318065 58.801033 L 63.102639 58.555846 L 62.886706 58.310212 L 62.670255 58.064120 L 62.453276 57.817560 L 62.235759 57.570522 L 62.017695 57.322994 L 61.799071 57.074965 L 61.579879 56.826426 L 61.360107 56.577363 L 61.139745 56.327768 L 60.918782 56.077628 L 60.697207 55.826931 L 60.475010 55.575668 L 60.252179 55.323825 L 60.028702 55.071392 L 59.804570 54.818357 L 59.579770 54.564708 L 59.354290 54.310434 L 59.128120 54.055521 L 58.901247 53.799959 L 58.673660 53.543735 L 58.445346 53.286836 L 58.216293 53.029251 L 57.986489 52.770966 L 57.755922 52.511970 L 57.524578 52.252248 L 57.292446 51.991789 L 57.059513 51.730579 L 56.825764 51.468605 L 56.591188 51.205854 L 56.355771 50.942312 L 56.119499 50.677966 L 55.882359 50.412801 L 55.644337 50.146805 L 55.405419 49.879963 L 55.165591 49.612260 L 54.924839 49.343683 L 54.683147 49.074217 L 54.440502 48.803847 L 54.196888 48.532559 L 53.952290 48.260337 L 53.706694 47.987166 L 53.460083 47.713032 L 53.212442 47.437917 L 52.963755 47.161807 L 52.714006 46.884686 L 52.463179 46.606538 L 52.211257 46.327346 L 51.958224 46.047093 L 51.704061 45.765764 L 51.448753 45.483341 L 51.192282 45.199807 L 50.934629 44.915145 L 50.675778 44.629336 L 50.415709 44.342364 L 50.154405 44.054211 L 49.891846 43.764857 L 49.628013 43.474284 L 49.362888 43.182475 L 49.096450 42.889409 L 48.828680 42.595067 L 48.559557 42.299431 L 48.289061 42.002479 L 48.017171 41.704192 L 47.743866 41.404550 L 47.469125 41.103532 L 47.192925 40.801117 L 46.915245 40.497283 L 46.636062 40.192010 L 46.355354 39.885274 L 46.073096 39.577055 L 45.789265 39.267330 L 45.503839 38.956075 L 45.216791 38.643268 L 44.928097 38.328884 L 44.637733 38.012901 L 44.345672 37.695294 L 44.051889 37.376038 L 43.756357 37.055108 L 43.459049 36.732478 L 43.159938 36.408124 L 42.858996 36.082018 L 42.556195 35.754135 L 42.251506 35.424447 L 41.944899 35.092926 L 41.636345 34.759545 L 41.325814 34.424275 L 41.013274 34.087088 L 40.698695 33.747954 L 40.382044 33.406843 L 40.063288 33.063725 L 39.742395 32.718570 L 39.419331 32.371345 L 39.094061 32.022020 L 38.766551 31.670561 L 38.436764 31.316936 L 38.104665 30.961111 L 37.770216 30.603052 L 37.433379 30.242724 L 37.094117 29.880092 L 36.752389 29.515121 L 36.408157 29.147773 L 36.061379 28.778011 L 35.712013 28.405797 L 35.360019 28.031094 L 35.005351 27.653860 L 34.647967 27.274058 L 34.287821 26.891644 L 33.924868 26.506579 L 33.559061 26.118820 L 33.190352 25.728324 L 32.818693 25.335046 L 32.444033 24.938943 L 32.066323 24.539968 L 31.685510 24.138075 L 31.328932 23.762097" fill="none" id="tattoo-path-a19cc34afce349f7" stroke="#000000" stroke-linecap="round" stroke-linejoin="round" stroke-width="4.800000"/>
  <path clip-path="url(#tattoo-band-layer-clip)" d="M 21.456463 110.775283 L 21.738796 110.660082 L 22.252661 110.449221 L 22.762274 110.238933 L 23.267705 110.029215 L 23.769019 109.820065 L 24.266284 109.611482 L 24.759563 109.403462 L 25.248919 109.196002 L 25.734415 108.989101 L 26.216111 108.782754 L 26.694067 108.576960 L 27.168341 108.371713 L 27.638991 108.167012 L 28.106073 107.962852 L 28.569642 107.759229 L 29.029753 107.556141 L 29.486459 107.353583 L 29.939812 107.151552 L 30.389864 106.950042 L 30.836665 106.749051 L 31.280264 106.548573 L 31.720711 106.348605 L 32.158052 106.149142 L 32.592335 105.950180 L 33.023607 105.751715 L 33.451911 105.553740 L 33.877293 105.356254 L 34.299796 105.159249 L 34.719464 104.962723 L 35.136338 104.766669 L 35.550460 104.571083 L 35.961871 104.375961 L 36.370611 104.181297 L 36.776719 103.987087 L 37.180235 103.793325 L 37.581195 103.600007 L 37.979638 103.407128 L 38.375601 103.214681 L 38.769119 103.022664 L 39.160229 102.831069 L 39.548965 102.639893 L 39.935362 102.449130 L 40.319454 102.258774 L 40.701275 102.068821 L 41.080856 101.879266 L 41.458232 101.690103 L 41.833432 101.501327 L 42.206490 101.312933 L 42.577435 101.124916 L 42.946298 100.937269 L 43.313109 100.749989 L 43.677898 100.563069 L 44.040693 100.376505 L 44.401522 100.190291 L 44.760415 100.004422 L 45.117399 99.818893 L 45.472501 99.633698 L 45.825748 99.448831 L 46.177166 99.264289 L 46.526782 99.080064 L 46.874621 98.896153 L 47.220709 98.712549 L 47.565071 98.529248 L 47.907731 98.346243 L 48.248714 98.163531 L 48.588043 97.981104 L 48.925742 97.798959 L 49.261835 97.617090 L 49.596344 97.435491 L 49.929292 97.254157 L 50.260702 97.073083 L 50.590595 96.892263 L 50.918993 96.711693 L 51.245917 96.531366 L 51.571390 96.351278 L 51.895430 96.171423 L 52.218060 95.991796 L 52.539299 95.812392 L 52.859168 95.633205 L 53.177686 95.454230 L 53.494873 95.275462 L 53.810747 95.096895 L 54.125329 94.918524 L 54.438637 94.740345 L 54.750689 94.562350 L 55.061505 94.384536 L 55.371101 94.206898 L 55.679496 94.029428 L 55.986707 93.852124 L 56.292753 93.674978 L 56.597649 93.497986 L 56.901414 93.321143 L 57.204064 93.144443 L 57.505616 92.967881 L 57.806086 92.791452 L 58.105490 92.615150 L 58.403845 92.438971 L 58.701167 92.262908 L 58.997471 92.086957 L 59.292772 91.911113 L 59.587087 91.735369 L 59.880430 91.559721 L 60.172816 91.384164 L 60.464260 91.208692 L 60.754778 91.033299 L 61.044383 90.857982 L 61.333089 90.682734 L 61.620912 90.507549 L 61.907866 90.332423 L 62.193963 90.157351 L 62.479219 89.982327 L 62.763647 89.807345 L 63.047260 89.632401 L 63.330071 89.457489 L 63.612095 89.282604 L 63.893344 89.107740 L 64.173832 88.932892 L 64.453570 88.758055 L 64.732573 88.583222 L 65.010853 88.408390 L 65.288421 88.233552 L 65.565292 88.058704 L 65.841476 87.883839 L 66.116987 87.708952 L 66.391837 87.534038 L 66.666037 87.359092 L 66.939600 87.184107 L 67.212536 87.009079 L 67.484859 86.834001 L 67.756580 86.658870 L 68.027710 86.483678 L 68.298260 86.308420 L 68.568242 86.133091 L 68.837668 85.957686 L 69.106549 85.782198 L 69.374895 85.606623 L 69.642718 85.430954 L 69.910028 85.255185 L 70.176837 85.079312 L 70.443155 84.903329 L 70.708993 84.727229 L 70.974363 84.551007 L 71.239273 84.374658 L 71.503735 84.198176 L 71.767759 84.021554 L 72.031357 83.844787 L 72.294537 83.667870 L 72.557310 83.490796 L 72.819687 83.313559 L 73.081677 83.136154 L 73.343291 82.958575 L 73.604539 82.780815 L 73.865430 82.602869 L 74.125975 82.424731 L 74.386183 82.246394 L 74.646065 82.067853 L 74.905630 81.889101 L 75.164887 81.710133 L 75.423847 81.530941 L 75.682519 81.351521 L 75.940913 81.171865 L 76.199038 80.991968 L 76.456904 80.811822 L 76.714520 80.631423 L 76.971896 80.450762 L 77.229041 80.269835 L 77.485964 80.088634 L 77.742675 79.907152 L 77.999183 79.725385 L 78.255498 79.543323 L 78.511628 79.360962 L 78.767583 79.178295 L 79.023372 78.995314 L 79.279004 78.812013 L 79.534489 78.628385 L 79.789835 78.444423 L 80.045051 78.260120 L 80.300148 78.075470 L 80.555133 77.890465 L 80.810015 77.705098 L 81.064805 77.519363 L 81.319510 77.333251 L 81.574140 77.146756 L 81.828704 76.959870 L 82.083211 76.772586 L 82.337669 76.584897 L 82.592089 76.396795 L 82.846477 76.208273 L 83.100845 76.019322 L 83.355199 75.829936 L 83.609551 75.640106 L 83.863907 75.449825 L 84.118278 75.259085 L 84.372672 75.067878 L 84.627099 74.876196 L 84.881566 74.684031 L 85.136084 74.491375 L 85.390660 74.298219 L 85.645304 74.104555 L 85.900025 73.910375 L 86.154832 73.715671 L 86.409734 73.520433 L 86.664740 73.324654 L 86.919858 73.128324 L 87.175098 72.931435 L 87.430468 72.733977 L 87.685979 72.535943 L 87.941638 72.337322 L 88.197455 72.138106 L 88.453439 71.938285 L 88.709599 71.737851 L 88.965944 71.536793 L 89.222483 71.335102 L 89.479226 71.132769 L 89.736182 70.929783 L 89.993359 70.726135 L 90.250768 70.521815 L 90.508416 70.316813 L 90.766315 70.111119 L 91.024472 69.904722 L 91.282898 69.697611 L 91.541602 69.489778 L 91.800592 69.281210 L 92.059880 69.071897 L 92.319473 68.861829 L 92.579382 68.650993 L 92.839616 68.439380 L 93.100186 68.226977 L 93.361099 68.013773 L 93.622367 67.799758 L 93.883999 67.584918 L 94.146004 67.369242 L 94.408393 67.152719 L 94.671176 66.935336 L 94.934362 66.717081 L 95.197961 66.497941 L 95.461984 66.277904 L 95.726440 66.056957 L 95.991340 65.835088 L 96.256694 65.612282 L 96.522512 65.388528 L 96.788805 65.163811 L 97.055582 64.938117 L 97.322855 64.711434 L 97.590633 64.483747 L 97.858928 64.255043 L 98.127750 64.025305 L 98.397110 63.794522 L 98.667018 63.562676 L 98.937486 63.329754 L 99.208524 63.095741 L 99.480143 62.860621 L 99.752355 62.624378 L 100.025171 62.386998 L 100.298601 62.148463 L 100.572657 61.908758 L 100.847351 61.667866 L 101.122694 61.425771 L 101.398698 61.182455 L 101.675374 60.937902 L 101.952734 60.692094 L 102.230790 60.445014 L 102.509554 60.196643 L 102.789038 59.946964 L 103.069253 59.695957 L 103.350213 59.443605 L 103.631930 59.189888 L 103.914416 58.934787 L 104.197683 58.678283 L 104.481744 58.420355 L 104.766612 58.160983 L 105.052301 57.900147 L 105.338822 57.637826 L 105.626189 57.373999 L 105.914415 57.108645 L 106.203513 56.841741 L 106.493497 56.573265 L 106.784381 56.303196 L 107.076178 56.031510 L 107.368902 55.758183 L 107.662567 55.483193 L 107.957187 55.206515 L 108.252776 54.928126 L 108.549348 54.647999 L 108.846919 54.366110 L 109.145502 54.082434 L 109.445113 53.796944 L 109.745766 53.509614 L 110.047477 53.220417 L 110.350261 52.929326 L 110.654132 52.636312 L 110.959107 52.341348 L 111.265201 52.044405 L 111.572430 51.745453 L 111.880810 51.444463 L 112.190358 51.141405 L 112.501089 50.836246 L 112.813020 50.528957 L 113.126167 50.219506 L 113.440549 49.907859 L 113.756181 49.593983 L 114.073080 49.277846 L 114.391265 48.959412 L 114.710752 48.638647 L 115.031560 48.315516 L 115.353706 47.989981 L 115.677209 47.662007 L 116.002086 47.331555 L 116.328357 46.998588 L 116.656040 46.663066 L 116.985154 46.324951 L 117.315718 45.984200 L 117.647752 45.640774 L 117.981275 45.294631 L 118.316307 44.945727 L 118.652867 44.594018 L 118.990977 44.239462 L 119.330656 43.882011 L 119.671925 43.521621 L 120.014805 43.158243 L 120.359318 42.791831 L 120.705483 42.422334 L 121.053324 42.049703 L 121.402862 41.673888 L 121.754119 41.294835 L 122.107117 40.912493 L 122.461879 40.526807 L 122.818428 40.137722 L 123.176786 39.745181 L 123.536977 39.349127 L 123.899025 38.949502 L 124.262953 38.546245 L 124.628786 38.139295 L 124.996548 37.728590 L 125.366263 37.314067 L 125.568781 37.086097" fill="none" id="tattoo-path-052062e0aded0408" stroke="#000000" stroke-linecap="round" stroke-linejoin="round" stroke-width="4.200000"/>
  <path clip-path="url(#tattoo-band-layer-clip)" d="M 30.146640 120.214074 L 29.927495 119.917587 L 29.598799 119.465668 L 29.274097 119.011969 L 28.953386 118.556522 L 28.636665 118.099360 L 28.323933 117.640514 L 28.015186 117.180019 L 27.710422 116.717903 L 27.409639 116.254201 L 27.112835 115.788942 L 26.820005 115.322158 L 26.531148 114.853879 L 26.246260 114.384136 L 25.965337 113.912959 L 25.688377 113.440378 L 25.415376 112.966424 L 25.146329 112.491124 L 24.881234 112.014509 L 24.620085 111.536608 L 24.362880 111.057450 L 24.109613 110.577062 L 23.860281 110.095473 L 23.614878 109.612711 L 23.373401 109.128805 L 23.135845 108.643781 L 22.902205 108.157668 L 22.672476 107.670491 L 22.446654 107.182279 L 22.224732 106.693057 L 22.006707 106.202852 L 21.792573 105.711691 L 21.582325 105.219599 L 21.375957 104.726603 L 21.173464 104.232727 L 20.974841 103.737998 L 20.780082 103.242440 L 20.589182 102.746078 L 20.402134 102.248938 L 20.218934 101.751043 L 20.039575 101.252418 L 19.864052 100.753088 L 19.692359 100.253076 L 19.524490 99.752406 L 19.360439 99.251101 L 19.200200 98.749186 L 19.043768 98.246683 L 18.891136 97.743615 L 18.742298 97.240005 L 18.597248 96.735876 L 18.455981 96.231250 L 18.318489 95.726150 L 18.184767 95.220598 L 18.054809 94.714616 L 17.928609 94.208225 L 17.806159 93.701448 L 17.687456 93.194305 L 17.572491 92.686819 L 17.461259 92.179010 L 17.353753 91.670899 L 17.249968 91.162508 L 17.149897 90.653857 L 17.053535 90.144966 L 16.960874 89.635856 L 16.871908 89.126548 L 16.786632 88.617061 L 16.705040 88.107416 L 16.627124 87.597632 L 16.552879 87.087729 L 16.482299 86.577728 L 16.415377 86.067646 L 16.352108 85.557505 L 16.292485 85.047322 L 16.236502 84.537118 L 16.184154 84.026911 L 16.135433 83.516720 L 16.090334 83.006563 L 16.048852 82.496461 L 16.010979 81.986431 L 15.976710 81.476491 L 15.946039 80.966660 L 15.918961 80.456957 L 15.895468 79.947400 L 15.875555 79.438006 L 15.859218 78.928793 L 15.846448 78.419781 L 15.837241 77.910985 L 15.831592 77.402425 L 15.829493 76.894118 L 15.830940 76.386080 L 15.835927 75.878331 L 15.844449 75.370887 L 15.856499 74.863766 L 15.872071 74.356984 L 15.891162 73.850560 L 15.913764 73.344510 L 15.939873 72.838851 L 15.969483 72.333601 L 16.002588 71.828776 L 16.039184 71.324393 L 16.079264 70.820469 L 16.122824 70.317021 L 16.169859 69.814066 L 16.220363 69.311620 L 16.274330 68.809700 L 16.331757 68.308322 L 16.392637 67.807504 L 16.456965 67.307262 L 16.524737 66.807612 L 16.595948 66.308570 L 16.670592 65.810154 L 16.748664 65.312379 L 16.830161 64.815262 L 16.915076 64.318819 L 17.003405 63.823067 L 17.095143 63.328022 L 17.190286 62.833700 L 17.288829 62.340118 L 17.390766 61.847291 L 17.496094 61.355237 L 17.604808 60.863971 L 17.716902 60.373509 L 17.832374 59.883868 L 17.951218 59.395064 L 18.073429 58.907113 L 18.199003 58.420032 L 18.327937 57.933836 L 18.460224 57.448542 L 18.595862 56.964167 L 18.734845 56.480726 L 18.877170 55.998236 L 19.022832 55.516713 L 19.171827 55.036173 L 19.324150 54.556633 L 19.479798 54.078108 L 19.638767 53.600617 L 19.801052 53.124174 L 19.966648 52.648796 L 20.135553 52.174500 L 20.307762 51.701302 L 20.483271 51.229219 L 20.662076 50.758267 L 20.844173 50.288463 L 21.029557 49.819823 L 21.218226 49.352365 L 21.410175 48.886104 L 21.605400 48.421058 L 21.803897 47.957243 L 22.005663 47.494677 L 22.210693 47.033376 L 22.418984 46.573357 L 22.630531 46.114637 L 22.845331 45.657233 L 23.063381 45.201163 L 23.284675 44.746443 L 23.509211 44.293091 L 23.736985 43.841124 L 23.967992 43.390560 L 24.202229 42.941416 L 24.439692 42.493709 L 24.680377 42.047458 L 24.924281 41.602679 L 25.171400 41.159390 L 25.421729 40.717610 L 25.675265 40.277357 L 25.932004 39.838647 L 26.191942 39.401500 L 26.455075 38.965933 L 26.721400 38.531965 L 26.990912 38.099614 L 27.263607 37.668899 L 27.539483 37.239837 L 27.818533 36.812449 L 28.100755 36.386751 L 28.386145 35.962763 L 28.674698 35.540505 L 28.966411 35.119994 L 29.261278 34.701250 L 29.559297 34.284293 L 29.860463 33.869141 L 30.164771 33.455815 L 30.472218 33.044332 L 30.782798 32.634714 L 31.096509 32.226980 L 31.413344 31.821149 L 31.733301 31.417242 L 32.056373 31.015279 L 32.382558 30.615279 L 32.711849 30.217264 L 33.044243 29.821254 L 33.379734 29.427269 L 33.718319 29.035330 L 34.059991 28.645457 L 34.404746 28.257673 L 34.752579 27.871997 L 35.103485 27.488450 L 35.457458 27.107056 L 35.814494 26.727833 L 36.174587 26.350805 L 36.537732 25.975993 L 36.903922 25.603419 L 37.273153 25.233104 L 37.645419 24.865071 L 38.020714 24.499342 L 38.399031 24.135940 L 38.780366 23.774887 L 39.164711 23.416205 L 39.552061 23.059918 L 39.942409 22.706048 L 40.335749 22.354619 L 40.732074 22.005653 L 41.131378 21.659175 L 41.533653 21.315207 L 41.938892 20.973773 L 42.347089 20.634897 L 42.758236 20.298604 L 43.172326 19.964916 L 43.589351 19.633859 L 44.009304 19.305456 L 44.432176 18.979733 L 44.857960 18.656714 L 45.286647 18.336424 L 45.718229 18.018887 L 46.152698 17.704130 L 46.590045 17.392177 L 47.030261 17.083053 L 47.473337 16.776785 L 47.919264 16.473398 L 48.368031 16.172918 L 48.819631 15.875371 L 49.274053 15.580783 L 49.731286 15.289181 L 50.191321 15.000590 L 50.654147 14.715039 L 51.119754 14.432553 L 51.588130 14.153159 L 52.059265 13.876885 L 52.533147 13.603757 L 53.009765 13.333804 L 53.489107 13.067052 L 53.971161 12.803530 L 54.455914 12.543265 L 54.943354 12.286285 L 55.433469 12.032619 L 55.926244 11.782293 L 56.421668 11.535338 L 56.919725 11.291782 L 57.420403 11.051652 L 57.923687 10.814978 L 58.429563 10.581790 L 58.938016 10.352115 L 59.449030 10.125983 L 59.787316 9.979382" fill="none" id="tattoo-path-005d2672a3c61127" stroke="#000000" stroke-linecap="round" stroke-linejoin="round" stroke-width="3.600000"/>
  <path clip-path="url(#tattoo-band-layer-clip)" d="M 136.250623 75.009604 L 135.863648 74.916516 L 135.324156 74.787613 L 134.788549 74.660496 L 134.256768 74.535134 L 133.728752 74.411492 L 133.204445 74.289539 L 132.683789 74.169243 L 132.166728 74.050574 L 131.653207 73.933502 L 131.143174 73.817998 L 130.636573 73.704034 L 130.133354 73.591581 L 129.633466 73.480613 L 129.136857 73.371104 L 128.643480 73.263026 L 128.153284 73.156356 L 127.666223 73.051068 L 127.182249 72.947139 L 126.701317 72.844544 L 126.223381 72.743261 L 125.748396 72.643266 L 125.276319 72.544539 L 124.807106 72.447057 L 124.340716 72.350800 L 123.877105 72.255747 L 123.416234 72.161877 L 122.958061 72.069172 L 122.502547 71.977611 L 122.049654 71.887176 L 121.599341 71.797849 L 121.151573 71.709611 L 120.706310 71.622444 L 120.263516 71.536333 L 119.823156 71.451259 L 119.385194 71.367206 L 118.949594 71.284158 L 118.516323 71.202099 L 118.085345 71.121014 L 117.656628 71.040887 L 117.230139 70.961704 L 116.805844 70.883449 L 116.383713 70.806109 L 115.963714 70.729670 L 115.545814 70.654118 L 115.129985 70.579440 L 114.716195 70.505622 L 114.304415 70.432652 L 113.894616 70.360517 L 113.486768 70.289205 L 113.080844 70.218703 L 112.676814 70.149001 L 112.274651 70.080085 L 111.874329 70.011946 L 111.475819 69.944571 L 111.079096 69.877950 L 110.684132 69.812072 L 110.290903 69.746927 L 109.899382 69.682504 L 109.509545 69.618793 L 109.121366 69.555785 L 108.734822 69.493469 L 108.349887 69.431837 L 107.966537 69.370879 L 107.584750 69.310585 L 107.204502 69.250947 L 106.825770 69.191956 L 106.448530 69.133604 L 106.072762 69.075882 L 105.698441 69.018781 L 105.325548 68.962294 L 104.954059 68.906412 L 104.583953 68.851129 L 104.215210 68.796435 L 103.847809 68.742324 L 103.481728 68.688788 L 103.116948 68.635820 L 102.753448 68.583414 L 102.391209 68.531561 L 102.030210 68.480255 L 101.670432 68.429490 L 101.311856 68.379258 L 100.954463 68.329554 L 100.598234 68.280371 L 100.243150 68.231703 L 99.889193 68.183544 L 99.536345 68.135887 L 99.184587 68.088728 L 98.833902 68.042059 L 98.484272 67.995876 L 98.135679 67.950173 L 97.788107 67.904945 L 97.441537 67.860186 L 97.095954 67.815891 L 96.751340 67.772055 L 96.407678 67.728672 L 96.064952 67.685739 L 95.723146 67.643250 L 95.382244 67.601199 L 95.042229 67.559584 L 94.703085 67.518398 L 94.364797 67.477639 L 94.027350 67.437300 L 93.690727 67.397378 L 93.354913 67.357869 L 93.019893 67.318768 L 92.685653 67.280071 L 92.352176 67.241775 L 92.019449 67.203875 L 91.687456 67.166368 L 91.356183 67.129250 L 91.025616 67.092516 L 90.695739 67.056165 L 90.366539 67.020191 L 90.038002 66.984591 L 89.710113 66.949363 L 89.382859 66.914502 L 89.056226 66.880006 L 88.730199 66.845870 L 88.404766 66.812093 L 88.079912 66.778671 L 87.755625 66.745600 L 87.431890 66.712879 L 87.108695 66.680504 L 86.786026 66.648471 L 86.463870 66.616779 L 86.142214 66.585425 L 85.821045 66.554406 L 85.500350 66.523719 L 85.180117 66.493362 L 84.860332 66.463332 L 84.540982 66.433628 L 84.222056 66.404245 L 83.903540 66.375183 L 83.585422 66.346439 L 83.267689 66.318010 L 82.950330 66.289895 L 82.633331 66.262091 L 82.316681 66.234597 L 82.000367 66.207409 L 81.684377 66.180527 L 81.368699 66.153948 L 81.053320 66.127671 L 80.738229 66.101693 L 80.423414 66.076013 L 80.108862 66.050629 L 79.794563 66.025539 L 79.480503 66.000742 L 79.166671 65.976236 L 78.853055 65.952020 L 78.539643 65.928092 L 78.226424 65.904450 L 77.913386 65.881094 L 77.600517 65.858021 L 77.287806 65.835230 L 76.975240 65.812721 L 76.662808 65.790492 L 76.350499 65.768541 L 76.038300 65.746868 L 75.726201 65.725471 L 75.414190 65.704349 L 75.102255 65.683502 L 74.790384 65.662928 L 74.478566 65.642626 L 74.166790 65.622596 L 73.855044 65.602836 L 73.543316 65.583346 L 73.231595 65.564124 L 72.919870 65.545171 L 72.608128 65.526485 L 72.296359 65.508066 L 71.984550 65.489912 L 71.672691 65.472025 L 71.360769 65.454402 L 71.048774 65.437044 L 70.736693 65.419949 L 70.424515 65.403118 L 70.112229 65.386550 L 69.799823 65.370245 L 69.487284 65.354202 L 69.174603 65.338422 L 68.861766 65.322903 L 68.548762 65.307646 L 68.235580 65.292651 L 67.922207 65.277917 L 67.608633 65.263444 L 67.294845 65.249233 L 66.980831 65.235283 L 66.666579 65.221594 L 66.352078 65.208167 L 66.037316 65.195001 L 65.722281 65.182097 L 65.406960 65.169455 L 65.091342 65.157076 L 64.775414 65.144958 L 64.459165 65.133104 L 64.142582 65.121512 L 63.825653 65.110185 L 63.508365 65.099121 L 63.190707 65.088322 L 62.872666 65.077788 L 62.554229 65.067519 L 62.235384 65.057517 L 61.916119 65.047782 L 61.596420 65.038314 L 61.276275 65.029115 L 60.955671 65.020186 L 60.634596 65.011526 L 60.313036 65.003137 L 59.990979 64.995021 L 59.668410 64.987177 L 59.345319 64.979607 L 59.021690 64.972312 L 58.697511 64.965294 L 58.372768 64.958553 L 58.047448 64.952090 L 57.721537 64.945907 L 57.395022 64.940006 L 57.067889 64.934387 L 56.740124 64.929052 L 56.411712 64.924003 L 56.082641 64.919241 L 55.752896 64.914767 L 55.422462 64.910584 L 55.091325 64.906693 L 54.759471 64.903095 L 54.426885 64.899793 L 54.093553 64.896789 L 53.759459 64.894084 L 53.424589 64.891680 L 53.088927 64.889580 L 52.752459 64.887785 L 52.415169 64.886298 L 52.077041 64.885121 L 51.738060 64.884256 L 51.398210 64.883705 L 51.057476 64.883472 L 50.715841 64.883558 L 50.373289 64.883967 L 50.029803 64.884700 L 49.685368 64.885760 L 49.339966 64.887151 L 48.993582 64.888874 L 48.646197 64.890934 L 48.297794 64.893332 L 47.948357 64.896073 L 47.597868 64.899158 L 47.246309 64.902592 L 46.893662 64.906378 L 46.539910 64.910519 L 46.185033 64.915019 L 45.829015 64.919880 L 45.471835 64.925107 L 45.113475 64.930704 L 44.753916 64.936675 L 44.393139 64.943022 L 44.031124 64.949751 L 43.667852 64.956865 L 43.303303 64.964369 L 42.937456 64.972266 L 42.570292 64.980562 L 42.201788 64.989261 L 41.831926 64.998367 L 41.460683 65.007885 L 41.088039 65.017821 L 40.713970 65.028178 L 40.338457 65.038962 L 39.961476 65.050179 L 39.583005 65.061833 L 39.203021 65.073930 L 38.821502 65.086475 L 38.438423 65.099475 L 38.053762 65.112934 L 37.667494 65.126860 L 37.279596 65.141257 L 36.890042 65.156133 L 36.498808 65.171493 L 36.105868 65.187344 L 35.711197 65.203694 L 35.314770 65.220547 L 34.916560 65.237913 L 34.516539 65.255797 L 34.114683 65.274207 L 33.710962 65.293150 L 33.305349 65.312634 L 32.897817 65.332668 L 32.488336 65.353258 L 32.076878 65.374413 L 31.663413 65.396142 L 31.247912 65.418453 L 30.830344 65.441355 L 30.410679 65.464856 L 29.988886 65.488966 L 29.564933 65.513695 L 29.138788 65.539051 L 28.710418 65.565046 L 28.279791 65.591688 L 27.846873 65.618988 L 27.411630 65.646957 L 26.974028 65.675605 L 26.534031 65.704944 L 26.091604 65.734985 L 25.646711 65.765739 L 25.199314 65.797218 L 24.749377 65.829435 L 24.296862 65.862401 L 23.841730 65.896130 L 23.383942 65.930634 L 22.923458 65.965928 L 22.460237 66.002024 L 21.994240 66.038936 L 21.525423 66.076680 L 21.053744 66.115269 L 20.579160 66.154719 L 20.101628 66.195045 L 19.621102 66.236262 L 19.137538 66.278388 L 18.650888 66.321438 L 18.161106 66.365430 L 17.668144 66.410381 L 17.171954 66.456309 L 16.672486 66.503233 L 16.169690 66.551170 L 15.663514 66.600141 L 15.153906 66.650164 L 14.640814 66.701261 L 14.124182 66.753452 L 13.603957 66.806758 L 13.080082 66.861201 L 12.552500 66.916804 L 12.021153 66.973590 L 11.485983 67.031581 L 10.946927 67.090803 L 10.403927 67.151280 L 9.856918 67.213038 L 9.305837 67.276103 L 8.910473 67.321960" fill="none" id="tattoo-path-bddc30a8fcad1298" stroke="#000000" stroke-linecap="round" stroke-linejoin="round" stroke-width="3.100000"/>
  <path clip-path="url(#tattoo-band-layer-clip)" d="M 78.073647 136.056073 L 77.800725 135.692741 L 77.469233 135.247613 L 77.141732 134.804050 L 76.818160 134.362043 L 76.498458 133.921586 L 76.182567 133.482669 L 75.870429 133.045284 L 75.561989 132.609422 L 75.257191 132.175073 L 74.955980 131.742229 L 74.658303 131.310881 L 74.364108 130.881017 L 74.073343 130.452629 L 73.785958 130.025707 L 73.501904 129.600240 L 73.221131 129.176219 L 72.943592 128.753631 L 72.669241 128.332469 L 72.398032 127.912719 L 72.129918 127.494373 L 71.864857 127.077418 L 71.602805 126.661844 L 71.343718 126.247640 L 71.087556 125.834795 L 70.834276 125.423297 L 70.583839 125.013136 L 70.336206 124.604299 L 70.091336 124.196776 L 69.849192 123.790555 L 69.609737 123.385625 L 69.372933 122.981974 L 69.138745 122.579591 L 68.907136 122.178463 L 68.678073 121.778580 L 68.451520 121.379930 L 68.227444 120.982500 L 68.005812 120.586280 L 67.786592 120.191258 L 67.569751 119.797422 L 67.355259 119.404760 L 67.143084 119.013260 L 66.933197 118.622912 L 66.725567 118.233702 L 66.520166 117.845620 L 66.316965 117.458653 L 66.115936 117.072791 L 65.917050 116.688021 L 65.720282 116.304331 L 65.525604 115.921711 L 65.332990 115.540147 L 65.142414 115.159630 L 64.953851 114.780146 L 64.767277 114.401685 L 64.582666 114.024234 L 64.399995 113.647783 L 64.219240 113.272320 L 64.040378 112.897833 L 63.863386 112.524311 L 63.688242 112.151742 L 63.514924 111.780116 L 63.343410 111.409420 L 63.173679 111.039643 L 63.005710 110.670773 L 62.839483 110.302801 L 62.674977 109.935714 L 62.512173 109.569501 L 62.351052 109.204150 L 62.191593 108.839652 L 62.033779 108.475994 L 61.877590 108.113165 L 61.723010 107.751155 L 61.570019 107.389952 L 61.418600 107.029546 L 61.268737 106.669925 L 61.120412 106.311078 L 60.973608 105.952995 L 60.828310 105.595665 L 60.684501 105.239077 L 60.542165 104.883220 L 60.401287 104.528083 L 60.261852 104.173656 L 60.123844 103.819928 L 59.987250 103.466888 L 59.852054 103.114526 L 59.718242 102.762831 L 59.585801 102.411793 L 59.454716 102.061401 L 59.324975 101.711644 L 59.196563 101.362513 L 59.069469 101.013996 L 58.943678 100.666084 L 58.819179 100.318766 L 58.695960 99.972032 L 58.574008 99.625871 L 58.453310 99.280273 L 58.333857 98.935229 L 58.215636 98.590727 L 58.098635 98.246758 L 57.982845 97.903312 L 57.868253 97.560378 L 57.754850 97.217946 L 57.642624 96.876008 L 57.531566 96.534551 L 57.421665 96.193567 L 57.312912 95.853045 L 57.205297 95.512976 L 57.098810 95.173350 L 56.993442 94.834157 L 56.889184 94.495386 L 56.786026 94.157029 L 56.683961 93.819075 L 56.582978 93.481515 L 56.483070 93.144338 L 56.384229 92.807536 L 56.286446 92.471098 L 56.189713 92.135015 L 56.094022 91.799277 L 55.999366 91.463874 L 55.905737 91.128798 L 55.813128 90.794037 L 55.721531 90.459583 L 55.630940 90.125427 L 55.541347 89.791558 L 55.452746 89.457966 L 55.365129 89.124644 L 55.278492 88.791580 L 55.192826 88.458766 L 55.108126 88.126192 L 55.024386 87.793848 L 54.941600 87.461726 L 54.859762 87.129815 L 54.778867 86.798107 L 54.698908 86.466592 L 54.619880 86.135259 L 54.541779 85.804101 L 54.464599 85.473108 L 54.388335 85.142270 L 54.312981 84.811578 L 54.238535 84.481022 L 54.164989 84.150593 L 54.092341 83.820283 L 54.020586 83.490081 L 53.949719 83.159977 L 53.879737 82.829964 L 53.810635 82.500031 L 53.742409 82.170169 L 53.675056 81.840369 L 53.608572 81.510621 L 53.542953 81.180916 L 53.478196 80.851245 L 53.414298 80.521598 L 53.351255 80.191966 L 53.289065 79.862339 L 53.227724 79.532709 L 53.167229 79.203065 L 53.107578 78.873399 L 53.048768 78.543701 L 52.990797 78.213962 L 52.933662 77.884171 L 52.877361 77.554321 L 52.821892 77.224401 L 52.767252 76.894402 L 52.713440 76.564314 L 52.660454 76.234129 L 52.608292 75.903835 L 52.556952 75.573425 L 52.506433 75.242888 L 52.456734 74.912216 L 52.407853 74.581397 L 52.359788 74.250424 L 52.312540 73.919286 L 52.266107 73.587973 L 52.220488 73.256476 L 52.175682 72.924786 L 52.131689 72.592893 L 52.088508 72.260786 L 52.046138 71.928457 L 52.004580 71.595895 L 51.963834 71.263091 L 51.923898 70.930035 L 51.884774 70.596716 L 51.846460 70.263127 L 51.808958 69.929255 L 51.772268 69.595092 L 51.736391 69.260627 L 51.701326 68.925851 L 51.667075 68.590753 L 51.633638 68.255324 L 51.601016 67.919553 L 51.569211 67.583430 L 51.538223 67.246945 L 51.508053 66.910088 L 51.478704 66.572848 L 51.450177 66.235216 L 51.422472 65.897181 L 51.395592 65.558732 L 51.369539 65.219859 L 51.344315 64.880552 L 51.319922 64.540801 L 51.296361 64.200594 L 51.273636 63.859920 L 51.251749 63.518771 L 51.230702 63.177134 L 51.210498 62.834999 L 51.191140 62.492355 L 51.172630 62.149191 L 51.154973 61.805497 L 51.138171 61.461261 L 51.122227 61.116473 L 51.107145 60.771121 L 51.092928 60.425194 L 51.079581 60.078681 L 51.067107 59.731571 L 51.055511 59.383852 L 51.044795 59.035514 L 51.034965 58.686544 L 51.026026 58.336931 L 51.017981 57.986663 L 51.010835 57.635730 L 51.004594 57.284118 L 50.999262 56.931817 L 50.994844 56.578815 L 50.991346 56.225099 L 50.988773 55.870658 L 50.987132 55.515479 L 50.986427 55.159551 L 50.986664 54.802861 L 50.987850 54.445396 L 50.989992 54.087145 L 50.993095 53.728096 L 50.997166 53.368234 L 51.002212 53.007549 L 51.008240 52.646026 L 51.015257 52.283654 L 51.023270 51.920419 L 51.032287 51.556309 L 51.042315 51.191310 L 51.053363 50.825409 L 51.065439 50.458593 L 51.078550 50.090849 L 51.092705 49.722163 L 51.107914 49.352521 L 51.124183 48.981911 L 51.141524 48.610317 L 51.159945 48.237727 L 51.179455 47.864127 L 51.200064 47.489502 L 51.221782 47.113838 L 51.244620 46.737122 L 51.268587 46.359338 L 51.293694 45.980472 L 51.319953 45.600510 L 51.347373 45.219437 L 51.375967 44.837238 L 51.405746 44.453898 L 51.436721 44.069402 L 51.468905 43.683735 L 51.502311 43.296882 L 51.536950 42.908828 L 51.572835 42.519556 L 51.609980 42.129051 L 51.648399 41.737298 L 51.688104 41.344280 L 51.729109 40.949982 L 51.771430 40.554387 L 51.815080 40.157480 L 51.860074 39.759243 L 51.906428 39.359660 L 51.954158 38.958714 L 52.003278 38.556390 L 52.053805 38.152669 L 52.105755 37.747534 L 52.159146 37.340969 L 52.213995 36.932957 L 52.270318 36.523478 L 52.328135 36.112517 L 52.387463 35.700054 L 52.448320 35.286073 L 52.510726 34.870555 L 52.574701 34.453482 L 52.640264 34.034835 L 52.707435 33.614596 L 52.776235 33.192746 L 52.846685 32.769266 L 52.918806 32.344138 L 52.992621 31.917342 L 53.068151 31.488859 L 53.145421 31.058669 L 53.224452 30.626753 L 53.305268 30.193091 L 53.387895 29.757663 L 53.472357 29.320449 L 53.558678 28.881428 L 53.646886 28.440581 L 53.737005 27.997886 L 53.829064 27.553323 L 53.923089 27.106872 L 54.019109 26.658509 L 54.117152 26.208216 L 54.217247 25.755970 L 54.319424 25.301749 L 54.423713 24.845532 L 54.530146 24.387297 L 54.638754 23.927022 L 54.749569 23.464684 L 54.862625 23.000262 L 54.977955 22.533732 L 55.095593 22.065072 L 55.215575 21.594259 L 55.337936 21.121270 L 55.462713 20.646082 L 55.589944 20.168671 L 55.719665 19.689014 L 55.851918 19.207087 L 55.986740 18.722867 L 56.124173 18.236328 L 56.264258 17.747448 L 56.407038 17.256202 L 56.552556 16.762565 L 56.700855 16.266513 L 56.851981 15.768021 L 57.005980 15.267064 L 57.162900 14.763618 L 57.322787 14.257657 L 57.485691 13.749156 L 57.651662 13.238089 L 57.820752 12.724432 L 57.993012 12.208158 L 58.168496 11.689242 L 58.347259 11.167658 L 58.529356 10.643381 L 58.680226 10.214738" fill="none" id="tattoo-path-00f8c35389d6497e" stroke="#000000" stroke-linecap="round" stroke-linejoin="round" stroke-width="2.500000"/>
  <path clip-path="url(#tattoo-band-layer-clip)" d="M 127.078284 105.540142 L 126.888396 105.530349 L 126.332623 105.499621 L 125.780760 105.467074 L 125.232754 105.432745 L 124.688557 105.396672 L 124.148117 105.358892 L 123.611388 105.319439 L 123.078320 105.278349 L 122.548866 105.235655 L 122.022980 105.191391 L 121.500615 105.145587 L 120.981725 105.098276 L 120.466267 105.049487 L 119.954195 104.999250 L 119.445466 104.947594 L 118.940037 104.894546 L 118.437866 104.840135 L 117.938910 104.784385 L 117.443128 104.727324 L 116.950481 104.668976 L 116.460926 104.609366 L 115.974426 104.548518 L 115.490940 104.486454 L 115.010431 104.423198 L 114.532860 104.358771 L 114.058189 104.293195 L 113.586382 104.226491 L 113.117403 104.158679 L 112.651214 104.089779 L 112.187782 104.019809 L 111.727069 103.948790 L 111.269043 103.876739 L 110.813669 103.803673 L 110.360913 103.729610 L 109.910742 103.654568 L 109.463123 103.578562 L 109.018025 103.501608 L 108.575414 103.423721 L 108.135260 103.344918 L 107.697531 103.265212 L 107.262197 103.184618 L 106.829228 103.103150 L 106.398593 103.020821 L 105.970263 102.937645 L 105.544210 102.853634 L 105.120404 102.768801 L 104.698816 102.683158 L 104.279420 102.596716 L 103.862187 102.509488 L 103.447090 102.421484 L 103.034102 102.332715 L 102.623197 102.243191 L 102.214348 102.152924 L 101.807530 102.061922 L 101.402716 101.970196 L 100.999881 101.877754 L 100.599001 101.784606 L 100.200051 101.690761 L 99.803006 101.596228 L 99.407843 101.501013 L 99.014537 101.405127 L 98.623066 101.308576 L 98.233405 101.211369 L 97.845533 101.113511 L 97.459426 101.015012 L 97.075062 100.915877 L 96.692420 100.816113 L 96.311476 100.715726 L 95.932210 100.614724 L 95.554601 100.513112 L 95.178626 100.410896 L 94.804267 100.308081 L 94.431501 100.204673 L 94.060309 100.100678 L 93.690670 99.996100 L 93.322565 99.890944 L 92.955974 99.785215 L 92.590877 99.678918 L 92.227256 99.572058 L 91.865091 99.464637 L 91.504365 99.356661 L 91.145057 99.248133 L 90.787150 99.139057 L 90.430626 99.029437 L 90.075466 98.919275 L 89.721653 98.808576 L 89.369170 98.697343 L 89.017999 98.585578 L 88.668123 98.473284 L 88.319525 98.360464 L 87.972188 98.247121 L 87.626096 98.133257 L 87.281232 98.018875 L 86.937579 97.903976 L 86.595122 97.788562 L 86.253845 97.672636 L 85.913732 97.556199 L 85.574768 97.439254 L 85.236936 97.321801 L 84.900222 97.203842 L 84.564610 97.085378 L 84.230086 96.966410 L 83.896635 96.846941 L 83.564242 96.726970 L 83.232892 96.606498 L 82.902571 96.485526 L 82.573265 96.364056 L 82.244960 96.242086 L 81.917641 96.119619 L 81.591296 95.996653 L 81.265909 95.873190 L 80.941468 95.749230 L 80.617959 95.624772 L 80.295368 95.499816 L 79.973683 95.374363 L 79.652890 95.248412 L 79.332977 95.121962 L 79.013930 94.995013 L 78.695737 94.867565 L 78.378385 94.739618 L 78.061862 94.611169 L 77.746154 94.482218 L 77.431251 94.352766 L 77.117139 94.222809 L 76.803807 94.092348 L 76.491242 93.961381 L 76.179433 93.829907 L 75.868368 93.697924 L 75.558034 93.565432 L 75.248422 93.432428 L 74.939518 93.298911 L 74.631312 93.164878 L 74.323792 93.030330 L 74.016947 92.895262 L 73.710765 92.759674 L 73.405237 92.623564 L 73.100350 92.486928 L 72.796094 92.349766 L 72.492458 92.212075 L 72.189432 92.073851 L 71.887004 91.935094 L 71.585164 91.795800 L 71.283901 91.655967 L 70.983206 91.515591 L 70.683067 91.374671 L 70.383475 91.233203 L 70.084419 91.091184 L 69.785888 90.948612 L 69.487874 90.805482 L 69.190366 90.661793 L 68.893354 90.517540 L 68.596827 90.372720 L 68.300777 90.227330 L 68.005194 90.081366 L 67.710067 89.934825 L 67.415388 89.787702 L 67.121146 89.639995 L 66.827332 89.491698 L 66.533936 89.342809 L 66.240950 89.193324 L 65.948364 89.043237 L 65.656168 88.892545 L 65.364353 88.741243 L 65.072910 88.589328 L 64.781830 88.436794 L 64.491104 88.283638 L 64.200723 88.129854 L 63.910677 87.975438 L 63.620958 87.820385 L 63.331557 87.664689 L 63.042465 87.508347 L 62.753673 87.351353 L 62.465173 87.193702 L 62.176955 87.035388 L 61.889011 86.876406 L 61.601332 86.716751 L 61.313910 86.556418 L 61.026735 86.395399 L 60.739801 86.233691 L 60.453097 86.071287 L 60.166616 85.908181 L 59.880349 85.744367 L 59.594287 85.579840 L 59.308423 85.414592 L 59.022747 85.248617 L 58.737253 85.081910 L 58.451930 84.914464 L 58.166772 84.746271 L 57.881770 84.577326 L 57.596915 84.407621 L 57.312200 84.237150 L 57.027617 84.065906 L 56.743156 83.893881 L 56.458811 83.721069 L 56.174573 83.547461 L 55.890435 83.373051 L 55.606387 83.197830 L 55.322423 83.021792 L 55.038534 82.844929 L 54.754712 82.667232 L 54.470950 82.488693 L 54.187239 82.309305 L 53.903572 82.129059 L 53.619940 81.947947 L 53.336337 81.765960 L 53.052754 81.583090 L 52.769183 81.399327 L 52.485617 81.214664 L 52.202048 81.029090 L 51.918467 80.842597 L 51.634869 80.655176 L 51.351244 80.466817 L 51.067585 80.277511 L 50.783884 80.087247 L 50.500135 79.896017 L 50.216328 79.703810 L 49.932457 79.510616 L 49.648514 79.316424 L 49.364491 79.121225 L 49.080380 78.925008 L 48.796175 78.727762 L 48.511868 78.529476 L 48.227451 78.330140 L 47.942916 78.129741 L 47.658256 77.928269 L 47.373464 77.725713 L 47.088531 77.522060 L 46.803452 77.317299 L 46.518217 77.111417 L 46.232820 76.904404 L 45.947254 76.696245 L 45.661510 76.486929 L 45.375581 76.276443 L 45.089460 76.064774 L 44.803140 75.851909 L 44.516613 75.637835 L 44.229872 75.422538 L 43.942910 75.206004 L 43.655718 74.988220 L 43.368290 74.769172 L 43.080619 74.548845 L 42.792696 74.327225 L 42.504515 74.104297 L 42.216069 73.880047 L 41.927350 73.654458 L 41.638351 73.427516 L 41.349064 73.199205 L 41.059483 72.969510 L 40.769600 72.738414 L 40.479408 72.505901 L 40.188900 72.271954 L 39.898068 72.036557 L 39.606905 71.799692 L 39.315405 71.561343 L 39.023560 71.321492 L 38.731362 71.080120 L 38.438806 70.837211 L 38.145883 70.592745 L 37.852586 70.346704 L 37.558909 70.099069 L 37.264845 69.849820 L 36.970385 69.598939 L 36.675525 69.346405 L 36.380256 69.092199 L 36.084571 68.836299 L 35.788464 68.578686 L 35.491927 68.319338 L 35.194954 68.058234 L 34.897538 67.795351 L 34.599673 67.530669 L 34.301350 67.264165 L 34.002564 66.995815 L 33.703308 66.725597 L 33.403575 66.453488 L 33.103358 66.179463 L 32.802651 65.903498 L 32.501447 65.625569 L 32.199740 65.345651 L 31.897523 65.063718 L 31.594790 64.779745 L 31.291535 64.493706 L 30.987750 64.205573 L 30.683430 63.915320 L 30.378568 63.622919 L 30.073159 63.328342 L 29.767196 63.031562 L 29.460673 62.732548 L 29.153584 62.431273 L 28.845923 62.127705 L 28.537685 61.821815 L 28.228863 61.513572 L 27.919452 61.202945 L 27.609447 60.889902 L 27.298841 60.574410 L 26.987630 60.256437 L 26.675807 59.935949 L 26.363368 59.612913 L 26.050308 59.287293 L 25.736622 58.959055 L 25.422304 58.628162 L 25.107351 58.294580 L 24.791756 57.958270 L 24.475517 57.619195 L 24.158627 57.277317 L 23.841084 56.932596 L 23.522883 56.584995 L 23.204020 56.234471 L 22.884491 55.880985 L 22.564293 55.524494 L 22.243422 55.164957 L 21.921875 54.802331 L 21.599649 54.436570 L 21.276741 54.067632 L 20.953148 53.695470 L 20.628868 53.320038 L 20.303899 52.941290 L 19.978239 52.559178 L 19.651885 52.173652 L 19.324837 51.784664 L 18.997093 51.392162 L 18.668652 50.996096 L 18.339515 50.596414 L 18.009679 50.193062 L 17.679145 49.785986 L 17.347914 49.375131 L 17.015987 48.960440 L 16.683363 48.541858 L 16.350045 48.119325 L 16.016034 47.692782 L 15.681332 47.262170 L 15.345943 46.827426 L 15.009868 46.388488 L 14.673112 45.945292 L 14.558638 45.793473" fill="none" id="tattoo-path-284e6cddbd7b8981" stroke="#000000" stroke-linecap="round" stroke-linejoin="round" stroke-width="2.200000"/>
  <path clip-path="url(#tattoo-band-layer-clip)" d="M 50.389406 132.346150 L 50.908069 132.229262 L 51.450060 132.103368 L 51.988945 131.974470 L 52.524733 131.842615 L 53.057436 131.707844 L 53.587066 131.570202 L 54.113633 131.429730 L 54.637149 131.286469 L 55.157627 131.140460 L 55.675078 130.991744 L 56.189515 130.840358 L 56.700950 130.686343 L 57.209395 130.529735 L 57.714865 130.370573 L 58.217370 130.208892 L 58.716925 130.044730 L 59.213543 129.878120 L 59.707236 129.709099 L 60.198019 129.537699 L 60.685903 129.363956 L 61.170905 129.187901 L 61.653035 129.009567 L 62.132309 128.828985 L 62.608740 128.646188 L 63.082342 128.461206 L 63.553129 128.274068 L 64.021114 128.084805 L 64.486311 127.893445 L 64.948735 127.700017 L 65.408399 127.504549 L 65.865318 127.307068 L 66.319505 127.107602 L 66.770974 126.906177 L 67.219740 126.702818 L 67.665816 126.497551 L 68.109216 126.290402 L 68.549955 126.081394 L 68.988046 125.870553 L 69.423503 125.657900 L 69.856341 125.443461 L 70.286572 125.227256 L 70.714212 125.009310 L 71.139274 124.789643 L 71.561771 124.568276 L 71.981718 124.345232 L 72.399127 124.120530 L 72.814014 123.894191 L 73.226391 123.666234 L 73.636272 123.436680 L 74.043670 123.205546 L 74.448600 122.972852 L 74.851074 122.738616 L 75.251105 122.502856 L 75.648707 122.265588 L 76.043893 122.026832 L 76.436676 121.786603 L 76.827070 121.544917 L 77.215086 121.301791 L 77.600739 121.057241 L 77.984040 120.811283 L 78.365003 120.563930 L 78.743639 120.315199 L 79.119963 120.065103 L 79.493985 119.813657 L 79.865719 119.560875 L 80.235177 119.306770 L 80.602370 119.051356 L 80.967311 118.794645 L 81.330012 118.536650 L 81.690485 118.277384 L 82.048742 118.016859 L 82.404794 117.755086 L 82.758653 117.492078 L 83.110330 117.227845 L 83.459837 116.962399 L 83.807184 116.695751 L 84.152384 116.427910 L 84.495448 116.158887 L 84.836385 115.888693 L 85.175208 115.617337 L 85.511926 115.344828 L 85.846551 115.071177 L 86.179093 114.796391 L 86.509562 114.520480 L 86.837969 114.243453 L 87.164324 113.965318 L 87.488636 113.686083 L 87.810917 113.405756 L 88.131176 113.124344 L 88.449422 112.841856 L 88.765665 112.558299 L 89.079915 112.273680 L 89.392182 111.988005 L 89.702473 111.701282 L 90.010799 111.413517 L 90.317169 111.124717 L 90.621591 110.834887 L 90.924075 110.544033 L 91.224628 110.252162 L 91.523260 109.959279 L 91.819979 109.665389 L 92.114794 109.370498 L 92.407712 109.074610 L 92.698742 108.777731 L 92.987892 108.479866 L 93.275169 108.181018 L 93.560581 107.881193 L 93.844136 107.580394 L 94.125842 107.278625 L 94.405705 106.975892 L 94.683733 106.672196 L 94.959934 106.367543 L 95.234313 106.061935 L 95.506879 105.755376 L 95.777637 105.447869 L 96.046595 105.139417 L 96.313758 104.830022 L 96.579134 104.519688 L 96.842729 104.208418 L 97.104548 103.896213 L 97.364597 103.583076 L 97.622883 103.269010 L 97.879412 102.954016 L 98.134188 102.638096 L 98.387218 102.321252 L 98.638507 102.003486 L 98.888060 101.684799 L 99.135882 101.365193 L 99.381979 101.044669 L 99.626354 100.723229 L 99.869013 100.400873 L 100.109961 100.077602 L 100.349202 99.753418 L 100.586740 99.428321 L 100.822580 99.102311 L 101.056725 98.775390 L 101.289180 98.447557 L 101.519948 98.118813 L 101.749034 97.789158 L 101.976440 97.458593 L 102.202171 97.127116 L 102.426229 96.794729 L 102.648618 96.461431 L 102.869341 96.127221 L 103.088400 95.792099 L 103.305799 95.456066 L 103.521540 95.119119 L 103.735626 94.781259 L 103.948059 94.442484 L 104.158841 94.102795 L 104.367975 93.762189 L 104.575462 93.420666 L 104.781304 93.078225 L 104.985503 92.734864 L 105.188061 92.390582 L 105.388979 92.045378 L 105.588259 91.699250 L 105.785900 91.352198 L 105.981906 91.004218 L 106.176275 90.655309 L 106.369010 90.305471 L 106.560110 89.954700 L 106.749577 89.602995 L 106.937409 89.250353 L 107.123609 88.896773 L 107.308175 88.542253 L 107.491108 88.186790 L 107.672407 87.830383 L 107.852071 87.473027 L 108.030101 87.114722 L 108.206496 86.755465 L 108.381254 86.395252 L 108.554375 86.034082 L 108.725857 85.671952 L 108.895700 85.308858 L 109.063901 84.944799 L 109.230459 84.579771 L 109.395373 84.213771 L 109.558640 83.846796 L 109.720259 83.478843 L 109.880226 83.109910 L 110.038540 82.739992 L 110.195198 82.369086 L 110.350198 81.997190 L 110.503536 81.624300 L 110.655210 81.250412 L 110.805216 80.875524 L 110.953550 80.499630 L 111.100210 80.122729 L 111.245192 79.744816 L 111.388491 79.365888 L 111.530104 78.985940 L 111.670026 78.604970 L 111.808254 78.222974 L 111.944782 77.839947 L 112.079605 77.455885 L 112.212720 77.070786 L 112.344120 76.684644 L 112.473801 76.297457 L 112.601756 75.909219 L 112.727982 75.519927 L 112.852470 75.129577 L 112.975216 74.738164 L 113.096214 74.345685 L 113.215456 73.952135 L 113.332937 73.557510 L 113.448649 73.161806 L 113.562586 72.765018 L 113.674740 72.367142 L 113.785104 71.968175 L 113.893671 71.568111 L 114.000433 71.166946 L 114.105382 70.764675 L 114.208509 70.361296 L 114.309806 69.956802 L 114.409265 69.551189 L 114.506878 69.144454 L 114.602634 68.736591 L 114.696524 68.327597 L 114.788540 67.917466 L 114.878672 67.506194 L 114.966909 67.093777 L 115.053242 66.680210 L 115.137660 66.265489 L 115.220154 65.849609 L 115.300711 65.432566 L 115.379321 65.014355 L 115.455972 64.594971 L 115.530654 64.174411 L 115.603355 63.752670 L 115.674062 63.329743 L 115.742763 62.905626 L 115.809447 62.480314 L 115.874099 62.053804 L 115.936708 61.626090 L 115.997260 61.197169 L 116.055741 60.767035 L 116.112139 60.335685 L 116.166438 59.903115 L 116.218625 59.469320 L 116.268685 59.034296 L 116.316603 58.598038 L 116.362365 58.160544 L 116.405954 57.721808 L 116.447356 57.281826 L 116.486554 56.840595 L 116.523533 56.398111 L 116.558275 55.954370 L 116.590764 55.509367 L 116.620984 55.063100 L 116.648916 54.615565 L 116.674542 54.166757 L 116.697846 53.716674 L 116.718809 53.265312 L 116.737412 52.812668 L 116.753636 52.358738 L 116.767462 51.903519 L 116.778871 51.447008 L 116.787842 50.989201 L 116.794356 50.530097 L 116.798392 50.069693 L 116.799930 49.607985 L 116.798947 49.144970 L 116.795423 48.680648 L 116.789336 48.215014 L 116.780664 47.748068 L 116.769383 47.279806 L 116.755472 46.810227 L 116.738906 46.339329 L 116.719662 45.867111 L 116.697717 45.393571 L 116.673046 44.918708 L 116.645624 44.442520 L 116.615426 43.965006 L 116.582426 43.486166 L 116.546599 43.006000 L 116.507919 42.524506 L 116.466359 42.041684 L 116.421891 41.557535 L 116.374489 41.072058 L 116.324124 40.585254 L 116.270769 40.097123 L 116.214394 39.607667 L 116.154971 39.116887 L 116.092470 38.624783 L 116.026861 38.131357 L 115.958114 37.636612 L 115.886198 37.140549 L 115.811083 36.643171 L 115.732735 36.144481 L 115.651124 35.644481 L 115.566217 35.143174 L 115.477981 34.640565 L 115.386382 34.136658 L 115.291387 33.631456 L 115.192961 33.124964 L 115.091070 32.617188 L 114.985678 32.108132 L 114.876750 31.597803 L 114.764249 31.086206 L 114.648139 30.573348 L 114.528384 30.059236 L 114.404944 29.543878 L 114.277783 29.027280 L 114.146861 28.509452 L 114.012140 27.990402 L 113.873580 27.470139 L 113.731141 26.948673 L 113.584783 26.426014 L 113.434465 25.902173 L 113.280144 25.377161 L 113.121780 24.850990 L 112.959329 24.323671 L 112.792749 23.795218 L 112.621996 23.265645 L 112.455515 22.760712" fill="none" id="tattoo-path-45e85494acf53de0" stroke="#000000" stroke-linecap="round" stroke-linejoin="round" stroke-width="1.900000"/>
  <path clip-path="url(#tattoo-band-layer-clip)" d="M 135.937785 79.288773 L 135.411545 79.232431 L 134.861129 79.173500 L 134.314947 79.115023 L 133.772929 79.056991 L 133.235006 78.999399 L 132.701114 78.942238 L 132.171186 78.885502 L 131.645158 78.829183 L 131.122969 78.773276 L 130.604555 78.717773 L 130.089858 78.662669 L 129.578817 78.607955 L 129.071375 78.553628 L 128.567475 78.499680 L 128.067060 78.446105 L 127.570076 78.392897 L 127.076469 78.340052 L 126.586186 78.287562 L 126.099175 78.235423 L 125.615386 78.183629 L 125.134767 78.132174 L 124.657270 78.081054 L 124.182846 78.030263 L 123.711449 77.979797 L 123.243030 77.929649 L 122.777546 77.879816 L 122.314950 77.830292 L 121.855198 77.781072 L 121.398246 77.732153 L 120.944053 77.683529 L 120.492576 77.635196 L 120.043773 77.587149 L 119.597605 77.539385 L 119.154030 77.491898 L 118.713010 77.444685 L 118.274506 77.397742 L 117.838480 77.351064 L 117.404895 77.304647 L 116.973714 77.258488 L 116.544900 77.212582 L 116.118419 77.166926 L 115.694234 77.121517 L 115.272311 77.076349 L 114.852617 77.031420 L 114.435118 76.986727 L 114.019781 76.942265 L 113.606573 76.898030 L 113.195463 76.854021 L 112.786419 76.810233 L 112.379410 76.766663 L 111.974405 76.723308 L 111.571376 76.680164 L 111.170291 76.637228 L 110.771121 76.594498 L 110.373839 76.551970 L 109.978415 76.509640 L 109.584821 76.467507 L 109.193031 76.425567 L 108.803016 76.383817 L 108.414750 76.342255 L 108.028207 76.300877 L 107.643361 76.259681 L 107.260185 76.218663 L 106.878655 76.177822 L 106.498745 76.137155 L 106.120431 76.096658 L 105.743688 76.056330 L 105.368493 76.016167 L 104.994821 75.976168 L 104.622650 75.936329 L 104.251955 75.896649 L 103.882716 75.857124 L 103.514908 75.817753 L 103.148509 75.778533 L 102.783499 75.739461 L 102.419854 75.700536 L 102.057554 75.661755 L 101.696577 75.623115 L 101.336902 75.584615 L 100.978510 75.546252 L 100.621379 75.508025 L 100.265489 75.469930 L 99.910820 75.431966 L 99.557353 75.394131 L 99.205068 75.356423 L 98.853946 75.318839 L 98.503967 75.281377 L 98.155114 75.244036 L 97.807366 75.206814 L 97.460707 75.169708 L 97.115117 75.132717 L 96.770579 75.095838 L 96.427074 75.059070 L 96.084586 75.022411 L 95.743096 74.985859 L 95.402588 74.949412 L 95.063043 74.913068 L 94.724446 74.876826 L 94.386779 74.840683 L 94.050026 74.804638 L 93.714170 74.768690 L 93.379195 74.732836 L 93.045084 74.697074 L 92.711823 74.661403 L 92.379394 74.625822 L 92.047783 74.590328 L 91.716973 74.554920 L 91.386949 74.519596 L 91.057696 74.484355 L 90.729199 74.449195 L 90.401442 74.414114 L 90.074410 74.379111 L 89.748090 74.344184 L 89.422466 74.309331 L 89.097523 74.274552 L 88.773247 74.239844 L 88.449624 74.205206 L 88.126639 74.170636 L 87.804278 74.136134 L 87.482528 74.101696 L 87.161374 74.067323 L 86.840802 74.033012 L 86.520799 73.998762 L 86.201351 73.964571 L 85.882444 73.930439 L 85.564065 73.896363 L 85.246201 73.862342 L 84.928838 73.828375 L 84.611963 73.794460 L 84.295563 73.760596 L 83.979624 73.726781 L 83.664134 73.693015 L 83.349080 73.659295 L 83.034449 73.625621 L 82.720228 73.591991 L 82.406404 73.558403 L 82.092965 73.524856 L 81.779898 73.491350 L 81.467190 73.457882 L 81.154830 73.424451 L 80.842803 73.391056 L 80.531099 73.357695 L 80.219705 73.324368 L 79.908608 73.291073 L 79.597796 73.257808 L 79.287258 73.224572 L 78.976980 73.191365 L 78.666951 73.158184 L 78.357158 73.125029 L 78.047590 73.091897 L 77.738235 73.058789 L 77.429080 73.025702 L 77.120113 72.992635 L 76.811324 72.959588 L 76.502699 72.926558 L 76.194227 72.893544 L 75.885896 72.860546 L 75.577694 72.827561 L 75.269610 72.794589 L 74.961631 72.761629 L 74.653746 72.728678 L 74.345943 72.695737 L 74.038211 72.662803 L 73.730537 72.629875 L 73.422910 72.596953 L 73.115318 72.564034 L 72.807749 72.531118 L 72.500192 72.498203 L 72.192635 72.465288 L 71.885067 72.432372 L 71.577475 72.399454 L 71.269848 72.366532 L 70.962174 72.333605 L 70.654441 72.300672 L 70.346638 72.267731 L 70.038753 72.234782 L 69.730774 72.201823 L 69.422690 72.168852 L 69.114488 72.135869 L 68.806157 72.102872 L 68.497685 72.069860 L 68.189059 72.036832 L 67.880270 72.003786 L 67.571303 71.970722 L 67.262148 71.937637 L 66.952792 71.904531 L 66.643224 71.871402 L 66.333431 71.838250 L 66.023402 71.805072 L 65.713123 71.771867 L 65.402584 71.738635 L 65.091772 71.705373 L 64.780675 71.672081 L 64.469280 71.638758 L 64.157576 71.605401 L 63.845549 71.572010 L 63.533188 71.538583 L 63.220480 71.505119 L 62.907412 71.471616 L 62.593973 71.438074 L 62.280149 71.404491 L 61.965927 71.370865 L 61.651295 71.337196 L 61.336240 71.303481 L 61.020750 71.269720 L 60.704811 71.235911 L 60.388410 71.202053 L 60.071534 71.168143 L 59.754171 71.134182 L 59.436306 71.100167 L 59.117927 71.066097 L 58.799019 71.031971 L 58.479571 70.997787 L 58.159567 70.963543 L 57.838994 70.929239 L 57.517840 70.894872 L 57.196088 70.860442 L 56.873727 70.825946 L 56.550741 70.791384 L 56.227117 70.756754 L 55.902841 70.722054 L 55.577897 70.687282 L 55.252272 70.652438 L 54.925950 70.617519 L 54.598918 70.582524 L 54.271160 70.547452 L 53.942662 70.512300 L 53.613408 70.477068 L 53.283383 70.441753 L 52.952572 70.406355 L 52.620960 70.370870 L 52.288530 70.335298 L 51.955268 70.299637 L 51.621156 70.263886 L 51.286180 70.228042 L 50.950323 70.192104 L 50.613569 70.156070 L 50.275901 70.119938 L 49.937302 70.083706 L 49.597756 70.047374 L 49.257247 70.010938 L 48.915756 69.974398 L 48.573266 69.937750 L 48.229760 69.900994 L 47.885221 69.864128 L 47.539629 69.827149 L 47.192969 69.790056 L 46.845220 69.752846 L 46.496365 69.715518 L 46.146385 69.678070 L 45.795261 69.640499 L 45.442975 69.602805 L 45.089506 69.564983 L 44.734836 69.527034 L 44.378945 69.488953 L 44.021812 69.450740 L 43.663418 69.412393 L 43.303742 69.373908 L 42.942763 69.335283 L 42.580461 69.296518 L 42.216815 69.257608 L 41.851803 69.218553 L 41.485402 69.179349 L 41.117593 69.139994 L 40.748351 69.100486 L 40.377655 69.060823 L 40.005482 69.021002 L 39.631808 68.981020 L 39.256611 68.940876 L 38.879866 68.900566 L 38.501550 68.860088 L 38.121638 68.819439 L 37.740106 68.778617 L 37.356928 68.737619 L 36.972080 68.696442 L 36.585534 68.655084 L 36.197266 68.613542 L 35.807250 68.571813 L 35.415457 68.529894 L 35.021861 68.487782 L 34.626435 68.445474 L 34.229150 68.402968 L 33.829978 68.360260 L 33.428891 68.317347 L 33.025859 68.274226 L 32.620852 68.230894 L 32.213840 68.187347 L 31.804794 68.143583 L 31.393681 68.099598 L 30.980471 68.055389 L 30.565131 68.010952 L 30.147629 67.966283 L 29.727932 67.921380 L 29.306006 67.876239 L 28.881819 67.830856 L 28.455334 67.785227 L 28.026518 67.739349 L 27.595333 67.693218 L 27.161745 67.646830 L 26.725716 67.600180 L 26.287209 67.553266 L 25.846186 67.506083 L 25.402608 67.458626 L 24.956436 67.410892 L 24.507630 67.362877 L 24.056150 67.314575 L 23.601953 67.265983 L 23.144998 67.217096 L 22.685243 67.167910 L 22.222643 67.118419 L 21.757155 67.068620 L 21.288733 67.018507 L 20.817332 66.968075 L 20.342904 66.917320 L 19.865403 66.866236 L 19.384781 66.814818 L 18.900987 66.763061 L 18.413972 66.710960 L 17.923685 66.658509 L 17.430074 66.605703 L 16.933086 66.552535 L 16.432667 66.499000 L 15.928762 66.445093 L 15.421315 66.390807 L 14.910270 66.336137 L 14.395568 66.281075 L 13.877150 66.225616 L 13.354955 66.169753 L 12.828923 66.113480 L 12.298990 66.056790 L 11.765093 65.999676 L 11.227165 65.942131 L 10.685142 65.884148 L 10.138954 65.825719 L 9.588533 65.766838 L 9.062288 65.710544" fill="none" id="tattoo-path-2a11a823c8fb99da" stroke="#000000" stroke-linecap="round" stroke-linejoin="round" stroke-width="1.600000"/>
  <path clip-path="url(#tattoo-band-layer-clip)" d="M 8.725792 70.686047 L 9.153593 70.441065 L 9.636094 70.167368 L 10.116520 69.897417 L 10.594888 69.631152 L 11.071214 69.368515 L 11.545514 69.109449 L 12.017804 68.853898 L 12.488102 68.601807 L 12.956424 68.353122 L 13.422786 68.107790 L 13.887205 67.865760 L 14.349698 67.626981 L 14.810281 67.391404 L 15.268972 67.158979 L 15.725786 66.929660 L 16.180741 66.703398 L 16.633854 66.480149 L 17.085142 66.259867 L 17.534620 66.042508 L 17.982306 65.828029 L 18.428218 65.616387 L 18.872370 65.407541 L 19.314781 65.201449 L 19.755467 64.998072 L 20.194444 64.797371 L 20.631729 64.599306 L 21.067339 64.403841 L 21.501291 64.210937 L 21.933600 64.020559 L 22.364283 63.832671 L 22.793357 63.647238 L 23.220837 63.464225 L 23.646741 63.283599 L 24.071084 63.105326 L 24.493883 62.929375 L 24.915153 62.755713 L 25.334911 62.584310 L 25.753173 62.415134 L 26.169954 62.248155 L 26.585270 62.083345 L 26.999137 61.920673 L 27.411570 61.760112 L 27.822586 61.601633 L 28.232200 61.445210 L 28.640427 61.290815 L 29.047282 61.138422 L 29.452782 60.988005 L 29.856940 60.839539 L 30.259772 60.692999 L 30.661294 60.548360 L 31.061520 60.405598 L 31.460465 60.264690 L 31.858144 60.125613 L 32.254571 59.988344 L 32.649762 59.852860 L 33.043730 59.719139 L 33.436491 59.587161 L 33.828059 59.456904 L 34.218447 59.328348 L 34.607671 59.201471 L 34.995745 59.076255 L 35.382682 58.952679 L 35.768496 58.830724 L 36.153202 58.710372 L 36.536813 58.591604 L 36.919343 58.474402 L 37.300806 58.358748 L 37.681216 58.244624 L 38.060585 58.132013 L 38.438928 58.020898 L 38.816257 57.911264 L 39.192586 57.803093 L 39.567929 57.696369 L 39.942298 57.591077 L 40.315706 57.487202 L 40.688167 57.384728 L 41.059694 57.283640 L 41.430298 57.183925 L 41.799994 57.085568 L 42.168793 56.988554 L 42.536709 56.892870 L 42.903753 56.798503 L 43.269939 56.705439 L 43.635279 56.613666 L 43.999786 56.523170 L 44.363470 56.433939 L 44.726346 56.345961 L 45.088424 56.259223 L 45.449717 56.173715 L 45.810238 56.089424 L 46.169997 56.006339 L 46.529008 55.924450 L 46.887281 55.843744 L 47.244829 55.764211 L 47.601663 55.685841 L 47.957795 55.608624 L 48.313236 55.532549 L 48.667999 55.457607 L 49.022094 55.383788 L 49.375533 55.311081 L 49.728328 55.239479 L 50.080489 55.168972 L 50.432029 55.099550 L 50.782957 55.031206 L 51.133287 54.963931 L 51.483027 54.897715 L 51.832191 54.832552 L 52.180788 54.768432 L 52.528829 54.705348 L 52.876326 54.643293 L 53.223290 54.582259 L 53.569730 54.522238 L 53.915659 54.463223 L 54.261087 54.405207 L 54.606024 54.348183 L 54.950481 54.292145 L 55.294469 54.237085 L 55.637999 54.182998 L 55.981080 54.129877 L 56.323724 54.077716 L 56.665941 54.026509 L 57.007741 53.976249 L 57.349135 53.926933 L 57.690132 53.878553 L 58.030745 53.831104 L 58.370982 53.784582 L 58.710854 53.738980 L 59.050371 53.694294 L 59.389543 53.650520 L 59.728381 53.607651 L 60.066895 53.565684 L 60.405095 53.524615 L 60.742990 53.484438 L 61.080591 53.445150 L 61.417909 53.406746 L 61.754952 53.369223 L 62.091732 53.332576 L 62.428258 53.296802 L 62.764539 53.261898 L 63.100586 53.227859 L 63.436409 53.194683 L 63.772018 53.162366 L 64.107422 53.130906 L 64.442632 53.100298 L 64.777657 53.070541 L 65.112507 53.041631 L 65.447191 53.013566 L 65.781720 52.986344 L 66.116104 52.959961 L 66.450352 52.934416 L 66.784474 52.909707 L 67.118479 52.885830 L 67.452378 52.862786 L 67.786180 52.840570 L 68.119895 52.819183 L 68.453532 52.798622 L 68.787102 52.778885 L 69.120614 52.759972 L 69.454077 52.741881 L 69.787502 52.724611 L 70.120898 52.708160 L 70.454274 52.692529 L 70.787642 52.677715 L 71.121009 52.663719 L 71.454386 52.650539 L 71.787783 52.638176 L 72.121209 52.626628 L 72.454673 52.615895 L 72.788187 52.605978 L 73.121759 52.596876 L 73.455399 52.588590 L 73.789117 52.581118 L 74.122922 52.574463 L 74.456825 52.568623 L 74.790835 52.563600 L 75.124961 52.559394 L 75.459214 52.556005 L 75.793604 52.553435 L 76.128140 52.551685 L 76.462832 52.550755 L 76.797690 52.550647 L 77.132723 52.551361 L 77.467942 52.552900 L 77.803357 52.555265 L 78.138976 52.558457 L 78.474812 52.562478 L 78.810872 52.567329 L 79.147168 52.573014 L 79.483709 52.579534 L 79.820505 52.586890 L 80.157566 52.595086 L 80.494903 52.604123 L 80.832525 52.614005 L 81.170443 52.624733 L 81.508667 52.636312 L 81.847206 52.648742 L 82.186071 52.662028 L 82.525273 52.676173 L 82.864822 52.691180 L 83.204727 52.707052 L 83.545000 52.723792 L 83.885650 52.741405 L 84.226688 52.759894 L 84.568125 52.779263 L 84.909970 52.799516 L 85.252236 52.820657 L 85.594931 52.842691 L 85.938067 52.865621 L 86.281654 52.889453 L 86.625703 52.914191 L 86.970225 52.939839 L 87.315231 52.966403 L 87.660731 52.993889 L 88.006736 53.022300 L 88.353257 53.051643 L 88.700305 53.081923 L 89.047891 53.113145 L 89.396027 53.145317 L 89.744723 53.178442 L 90.093990 53.212528 L 90.443840 53.247582 L 90.794284 53.283608 L 91.145333 53.320614 L 91.496999 53.358607 L 91.849294 53.397594 L 92.202227 53.437581 L 92.555813 53.478576 L 92.910061 53.520587 L 93.264983 53.563620 L 93.620592 53.607684 L 93.976899 53.652787 L 94.333916 53.698936 L 94.691655 53.746141 L 95.050128 53.794408 L 95.409348 53.843748 L 95.769325 53.894169 L 96.130073 53.945680 L 96.491604 53.998290 L 96.853930 54.052009 L 97.217063 54.106846 L 97.581017 54.162812 L 97.945803 54.219915 L 98.311435 54.278167 L 98.677925 54.337578 L 99.045286 54.398159 L 99.413531 54.459920 L 99.782673 54.522873 L 100.152725 54.587029 L 100.523699 54.652399 L 100.895611 54.718996 L 101.268472 54.786831 L 101.642296 54.855917 L 102.017097 54.926266 L 102.392887 54.997892 L 102.769682 55.070806 L 103.147495 55.145023 L 103.526339 55.220556 L 103.906228 55.297419 L 104.287177 55.375627 L 104.669200 55.455192 L 105.052311 55.536131 L 105.436523 55.618458 L 105.821853 55.702188 L 106.208314 55.787337 L 106.595920 55.873921 L 106.984687 55.961956 L 107.374629 56.051459 L 107.765762 56.142446 L 108.158100 56.234934 L 108.551659 56.328941 L 108.946453 56.424485 L 109.342498 56.521584 L 109.739810 56.620257 L 110.138404 56.720521 L 110.538295 56.822398 L 110.939500 56.925905 L 111.342035 57.031064 L 111.745914 57.137895 L 112.151156 57.246417 L 112.557775 57.356654 L 112.965787 57.468625 L 113.375211 57.582354 L 113.786061 57.697863 L 114.198355 57.815174 L 114.612109 57.934310 L 115.027340 58.055297 L 115.444066 58.178157 L 115.862303 58.302916 L 116.282068 58.429599 L 116.703380 58.558232 L 117.126254 58.688840 L 117.550710 58.821451 L 117.976764 58.956091 L 118.404434 59.092789 L 118.833738 59.231572 L 119.264695 59.372470 L 119.697322 59.515512 L 120.131637 59.660728 L 120.567659 59.808149 L 121.005407 59.957806 L 121.444898 60.109731 L 121.886151 60.263955 L 122.329186 60.420513 L 122.774020 60.579438 L 123.220674 60.740764 L 123.669165 60.904527 L 124.119514 61.070762 L 124.571739 61.239507 L 125.025860 61.410797 L 125.481896 61.584672 L 125.939866 61.761169 L 126.399791 61.940329 L 126.861690 62.122192 L 127.325582 62.306798 L 127.791488 62.494191 L 128.259427 62.684413 L 128.729420 62.877507 L 129.201486 63.073518 L 129.675646 63.272492 L 130.151920 63.474475 L 130.630327 63.679514 L 131.110889 63.887658 L 131.593625 64.098957 L 132.078556 64.313459 L 132.565702 64.531218 L 133.055084 64.752285 L 133.546721 64.976714 L 134.040635 65.204560 L 134.536846 65.435877 L 135.035373 65.670725 L 135.536238 65.909159 L 135.980487 66.122870" fill="none" id="tattoo-path-db0bf11a1b3d5e5c" stroke="#000000" stroke-linecap="round" stroke-linejoin="round" stroke-width="1.200000"/>
  <path clip-path="url(#tattoo-band-layer-clip)" d="M 91.234909 133.487238 L 91.228010 133.482193 L 90.779077 133.150725 L 90.334483 132.819250 L 89.894169 132.487787 L 89.458080 132.156351 L 89.026160 131.824959 L 88.598355 131.493626 L 88.174610 131.162367 L 87.754872 130.831195 L 87.339090 130.500123 L 86.927211 130.169165 L 86.519186 129.838333 L 86.114965 129.507637 L 85.714498 129.177089 L 85.317737 128.846700 L 84.924635 128.516479 L 84.535144 128.186435 L 84.149220 127.856578 L 83.766815 127.526915 L 83.387887 127.197456 L 83.012390 126.868207 L 82.640281 126.539175 L 82.271517 126.210368 L 81.906058 125.881791 L 81.543860 125.553450 L 81.184884 125.225352 L 80.829089 124.897500 L 80.476436 124.569900 L 80.126885 124.242557 L 79.780400 123.915473 L 79.436941 123.588654 L 79.096472 123.262103 L 78.758956 122.935822 L 78.424357 122.609815 L 78.092639 122.284084 L 77.763769 121.958632 L 77.437711 121.633460 L 77.114431 121.308571 L 76.793896 120.983966 L 76.476073 120.659645 L 76.160930 120.335611 L 75.848436 120.011864 L 75.538557 119.688405 L 75.231265 119.365234 L 74.926528 119.042351 L 74.624316 118.719756 L 74.324600 118.397448 L 74.027350 118.075429 L 73.732539 117.753696 L 73.440138 117.432249 L 73.150118 117.111087 L 72.862454 116.790210 L 72.577117 116.469614 L 72.294082 116.149301 L 72.013321 115.829266 L 71.734810 115.509510 L 71.458524 115.190029 L 71.184436 114.870822 L 70.912522 114.551887 L 70.642759 114.233221 L 70.375123 113.914822 L 70.109589 113.596688 L 69.846135 113.278814 L 69.584738 112.961200 L 69.325375 112.643841 L 69.068025 112.326736 L 68.812665 112.009880 L 68.559275 111.693270 L 68.307832 111.376903 L 68.058316 111.060776 L 67.810707 110.744884 L 67.564985 110.429225 L 67.321129 110.113795 L 67.079120 109.798589 L 66.838938 109.483604 L 66.600565 109.168835 L 66.363982 108.854280 L 66.129170 108.539933 L 65.896111 108.225790 L 65.664788 107.911847 L 65.435182 107.598100 L 65.207277 107.284543 L 64.981054 106.971173 L 64.756499 106.657985 L 64.533592 106.344974 L 64.312320 106.032136 L 64.092664 105.719465 L 63.874610 105.406957 L 63.658142 105.094607 L 63.443244 104.782410 L 63.229901 104.470360 L 63.018099 104.158453 L 62.807823 103.846684 L 62.599058 103.535047 L 62.391789 103.223537 L 62.186004 102.912148 L 61.981688 102.600876 L 61.778828 102.289715 L 61.577409 101.978659 L 61.377420 101.667703 L 61.178846 101.356842 L 60.981676 101.046069 L 60.785897 100.735379 L 60.591496 100.424766 L 60.398460 100.114225 L 60.206779 99.803750 L 60.016441 99.493334 L 59.827432 99.182973 L 59.639744 98.872659 L 59.453363 98.562388 L 59.268279 98.252153 L 59.084481 97.941948 L 58.901958 97.631767 L 58.720700 97.321603 L 58.540696 97.011451 L 58.361936 96.701305 L 58.184411 96.391158 L 58.008110 96.081004 L 57.833023 95.770836 L 57.659141 95.460649 L 57.486455 95.150436 L 57.314955 94.840189 L 57.144632 94.529904 L 56.975478 94.219573 L 56.807483 93.909191 L 56.640640 93.598749 L 56.474938 93.288242 L 56.310371 92.977663 L 56.146930 92.667005 L 55.984607 92.356262 L 55.823395 92.045427 L 55.663284 91.734493 L 55.504269 91.423453 L 55.346341 91.112300 L 55.189492 90.801028 L 55.033717 90.489629 L 54.879008 90.178097 L 54.725357 89.866424 L 54.572759 89.554603 L 54.421207 89.242628 L 54.270693 88.930491 L 54.121212 88.618185 L 53.972758 88.305703 L 53.825324 87.993038 L 53.678905 87.680182 L 53.533494 87.367127 L 53.389086 87.053868 L 53.245675 86.740396 L 53.103257 86.426703 L 52.961824 86.112783 L 52.821373 85.798628 L 52.681898 85.484230 L 52.543394 85.169582 L 52.405857 84.854676 L 52.269281 84.539504 L 52.133663 84.224059 L 51.998997 83.908334 L 51.865279 83.592319 L 51.732505 83.276008 L 51.600671 82.959392 L 51.469772 82.642463 L 51.339806 82.325215 L 51.210768 82.007638 L 51.082655 81.689724 L 50.955462 81.371466 L 50.829187 81.052856 L 50.703826 80.733884 L 50.579377 80.414544 L 50.455835 80.094826 L 50.333199 79.774722 L 50.211465 79.454224 L 50.090630 79.133324 L 49.970693 78.812013 L 49.851650 78.490283 L 49.733499 78.168124 L 49.616238 77.845529 L 49.499864 77.522489 L 49.384376 77.198994 L 49.269773 76.875037 L 49.156051 76.550608 L 49.043209 76.225699 L 48.931247 75.900300 L 48.820161 75.574403 L 48.709952 75.247998 L 48.600617 74.921077 L 48.492157 74.593630 L 48.384569 74.265648 L 48.277853 73.937122 L 48.172008 73.608043 L 48.067034 73.278400 L 47.962930 72.948186 L 47.859696 72.617389 L 47.757331 72.286001 L 47.655836 71.954011 L 47.555210 71.621411 L 47.455454 71.288190 L 47.356567 70.954339 L 47.258550 70.619848 L 47.161405 70.284706 L 47.065130 69.948904 L 46.969727 69.612431 L 46.875197 69.275278 L 46.781541 68.937434 L 46.688760 68.598889 L 46.596856 68.259633 L 46.505829 67.919654 L 46.415681 67.578942 L 46.326414 67.237488 L 46.238029 66.895280 L 46.150529 66.552307 L 46.063916 66.208558 L 45.978192 65.864023 L 45.893359 65.518691 L 45.809419 65.172550 L 45.726376 64.825590 L 45.644232 64.477798 L 45.562989 64.129165 L 45.482652 63.779677 L 45.403224 63.429325 L 45.324706 63.078096 L 45.247104 62.725978 L 45.170421 62.372960 L 45.094661 62.019030 L 45.019827 61.664176 L 44.945924 61.308386 L 44.872956 60.951647 L 44.800927 60.593948 L 44.729843 60.235277 L 44.659708 59.875620 L 44.590527 59.514965 L 44.522305 59.153300 L 44.455047 58.790612 L 44.388759 58.426888 L 44.323447 58.062114 L 44.259116 57.696279 L 44.195773 57.329369 L 44.133424 56.961371 L 44.072074 56.592271 L 44.011732 56.222056 L 43.952403 55.850712 L 43.894094 55.478225 L 43.836814 55.104582 L 43.780568 54.729770 L 43.725365 54.353773 L 43.671213 53.976577 L 43.618119 53.598169 L 43.566092 53.218534 L 43.515141 52.837658 L 43.465273 52.455525 L 43.416499 52.072122 L 43.368827 51.687432 L 43.322266 51.301442 L 43.276826 50.914136 L 43.232517 50.525499 L 43.189350 50.135516 L 43.147334 49.744170 L 43.106480 49.351446 L 43.066799 48.957329 L 43.028302 48.561803 L 42.991001 48.164851 L 42.954907 47.766457 L 42.920033 47.366606 L 42.886390 46.965280 L 42.853991 46.562462 L 42.822849 46.158137 L 42.792977 45.752287 L 42.764389 45.344896 L 42.737098 44.935945 L 42.711118 44.525418 L 42.686464 44.113297 L 42.663151 43.699565 L 42.641193 43.284204 L 42.620606 42.867195 L 42.601406 42.448521 L 42.583609 42.028164 L 42.567231 41.606104 L 42.552289 41.182325 L 42.538801 40.756806 L 42.526783 40.329529 L 42.516255 39.900475 L 42.507234 39.469624 L 42.499738 39.036958 L 42.493789 38.602457 L 42.489404 38.166101 L 42.486604 37.727871 L 42.485410 37.287745 L 42.485842 36.845705 L 42.487922 36.401730 L 42.491671 35.955799 L 42.497113 35.507892 L 42.504269 35.057988 L 42.513164 34.606065 L 42.523821 34.152104 L 42.536264 33.696081 L 42.550519 33.237977 L 42.566610 32.777768 L 42.584563 32.315434 L 42.604406 31.850953 L 42.626165 31.384301 L 42.649868 30.915458 L 42.675544 30.444399 L 42.703220 29.971104 L 42.732927 29.495548 L 42.764694 29.017709 L 42.798553 28.537564 L 42.834535 28.055089 L 42.872672 27.570261 L 42.912997 27.083056 L 42.955544 26.593451 L 43.000346 26.101421 L 43.047439 25.606942 L 43.096858 25.109991 L 43.148640 24.610542 L 43.202822 24.108571 L 43.259443 23.604054 L 43.318541 23.096965 L 43.380156 22.587280 L 43.444328 22.074973 L 43.511100 21.560020 L 43.580513 21.042394 L 43.652611 20.522070 L 43.727437 19.999024 L 43.805039 19.473228 L 43.885460 18.944657 L 43.968749 18.413285 L 44.054955 17.879087 L 44.144125 17.342036 L 44.236310 16.802105 L 44.331562 16.259269 L 44.429934 15.713501 L 44.531478 15.164775 L 44.533073 15.156378" fill="none" id="tattoo-path-a52d395ef661e0e2" stroke="#000000" stroke-linecap="round" stroke-linejoin="round" stroke-width="1.000000"/>
  <path clip-path="url(#tattoo-band-layer-clip)" d="M 34.124493 123.468230 L 34.143820 123.401765 L 34.300912 122.867061 L 34.458326 122.336665 L 34.616048 121.810514 L 34.774061 121.288542 L 34.932354 120.770686 L 35.090912 120.256885 L 35.249723 119.747078 L 35.408774 119.241205 L 35.568054 118.739207 L 35.727551 118.241026 L 35.887255 117.746606 L 36.047154 117.255892 L 36.207240 116.768828 L 36.367503 116.285361 L 36.527933 115.805437 L 36.688522 115.329006 L 36.849261 114.856016 L 37.010143 114.386417 L 37.171160 113.920159 L 37.332304 113.457195 L 37.493569 112.997476 L 37.654948 112.540955 L 37.816434 112.087587 L 37.978023 111.637326 L 38.139707 111.190128 L 38.301482 110.745949 L 38.463343 110.304745 L 38.625283 109.866475 L 38.787300 109.431097 L 38.949388 108.998569 L 39.111544 108.568851 L 39.273763 108.141904 L 39.436042 107.717688 L 39.598377 107.296165 L 39.760765 106.877297 L 39.923203 106.461047 L 40.085688 106.047378 L 40.248218 105.636255 L 40.410789 105.227641 L 40.573401 104.821501 L 40.736050 104.417802 L 40.898734 104.016509 L 41.061453 103.617589 L 41.224204 103.221009 L 41.386985 102.826736 L 41.549797 102.434739 L 41.712636 102.044986 L 41.875504 101.657447 L 42.038397 101.272090 L 42.201317 100.888887 L 42.364261 100.507806 L 42.527231 100.128820 L 42.690224 99.751899 L 42.853242 99.377015 L 43.016284 99.004140 L 43.179350 98.633247 L 43.342441 98.264308 L 43.505555 97.897297 L 43.668695 97.532188 L 43.831859 97.168954 L 43.995049 96.807570 L 44.158266 96.448010 L 44.321509 96.090251 L 44.484781 95.734266 L 44.648081 95.380033 L 44.811411 95.027526 L 44.974772 94.676723 L 45.138165 94.327601 L 45.301591 93.980136 L 45.465052 93.634305 L 45.628549 93.290087 L 45.792083 92.947460 L 45.955656 92.606401 L 46.119270 92.266889 L 46.282926 91.928903 L 46.446626 91.592423 L 46.610373 91.257427 L 46.774167 90.923895 L 46.938011 90.591808 L 47.101907 90.261144 L 47.265856 89.931886 L 47.429862 89.604012 L 47.593926 89.277505 L 47.758051 88.952345 L 47.922238 88.628514 L 48.086491 88.305993 L 48.250811 87.984764 L 48.415202 87.664809 L 48.579665 87.346111 L 48.744204 87.028651 L 48.908821 86.712413 L 49.073518 86.397379 L 49.238299 86.083532 L 49.403167 85.770856 L 49.568123 85.459335 L 49.733171 85.148951 L 49.898315 84.839688 L 50.063556 84.531531 L 50.228898 84.224464 L 50.394345 83.918471 L 50.559898 83.613537 L 50.725562 83.309646 L 50.891340 83.006783 L 51.057235 82.704934 L 51.223250 82.404083 L 51.389388 82.104216 L 51.555653 81.805318 L 51.722049 81.507376 L 51.888579 81.210374 L 52.055246 80.914299 L 52.222055 80.619137 L 52.389007 80.324874 L 52.556109 80.031497 L 52.723362 79.738991 L 52.890771 79.447345 L 53.058339 79.156543 L 53.226071 78.866575 L 53.393969 78.577425 L 53.562039 78.289082 L 53.730284 78.001533 L 53.898708 77.714765 L 54.067315 77.428766 L 54.236109 77.143524 L 54.405094 76.859025 L 54.574275 76.575258 L 54.743655 76.292212 L 54.913239 76.009873 L 55.083031 75.728230 L 55.253035 75.447272 L 55.423256 75.166987 L 55.593698 74.887363 L 55.764366 74.608388 L 55.935264 74.330052 L 56.106396 74.052344 L 56.277767 73.775251 L 56.449382 73.498764 L 56.621246 73.222870 L 56.793362 72.947560 L 56.965737 72.672822 L 57.138374 72.398646 L 57.311278 72.125020 L 57.484455 71.851935 L 57.657909 71.579380 L 57.831645 71.307344 L 58.005668 71.035817 L 58.179984 70.764790 L 58.354597 70.494250 L 58.529512 70.224190 L 58.704735 69.954598 L 58.880271 69.685464 L 59.056126 69.416779 L 59.232304 69.148532 L 59.408811 68.880714 L 59.585652 68.613315 L 59.762833 68.346326 L 59.940360 68.079737 L 60.118238 67.813537 L 60.296472 67.547719 L 60.475069 67.282271 L 60.654034 67.017186 L 60.833373 66.752452 L 61.013092 66.488062 L 61.193197 66.224006 L 61.373693 65.960275 L 61.554587 65.696859 L 61.735885 65.433749 L 61.917593 65.170937 L 62.099718 64.908413 L 62.282264 64.646168 L 62.465240 64.384194 L 62.648651 64.122481 L 62.832504 63.861021 L 63.016805 63.599804 L 63.201560 63.338822 L 63.386777 63.078066 L 63.572463 62.817528 L 63.758623 62.557199 L 63.945265 62.297069 L 64.132396 62.037131 L 64.320022 61.777376 L 64.508151 61.517795 L 64.696791 61.258380 L 64.885947 60.999122 L 65.075628 60.740012 L 65.265840 60.481043 L 65.456592 60.222205 L 65.647891 59.963491 L 65.839743 59.704892 L 66.032158 59.446399 L 66.225143 59.188004 L 66.418705 58.929699 L 66.612853 58.671476 L 66.807594 58.413326 L 67.002937 58.155240 L 67.198889 57.897212 L 67.395460 57.639231 L 67.592657 57.381291 L 67.790489 57.123383 L 67.988964 56.865498 L 68.188092 56.607628 L 68.387880 56.349766 L 68.588338 56.091903 L 68.789475 55.834031 L 68.991299 55.576141 L 69.193820 55.318225 L 69.397047 55.060276 L 69.600989 54.802285 L 69.805657 54.544244 L 70.011058 54.286145 L 70.217204 54.027979 L 70.424104 53.769739 L 70.631767 53.511416 L 70.840204 53.253002 L 71.049426 52.994490 L 71.259441 52.735870 L 71.470262 52.477135 L 71.681897 52.218276 L 71.894358 51.959285 L 72.107656 51.700155 L 72.321802 51.440877 L 72.536806 51.181443 L 72.752680 50.921844 L 72.969435 50.662072 L 73.187082 50.402120 L 73.405634 50.141979 L 73.625102 49.881640 L 73.845497 49.621096 L 74.066833 49.360338 L 74.289120 49.099359 L 74.512372 48.838149 L 74.736601 48.576700 L 74.961820 48.315004 L 75.188041 48.053053 L 75.415278 47.790839 L 75.643544 47.528353 L 75.872851 47.265586 L 76.103215 47.002531 L 76.334648 46.739179 L 76.567164 46.475521 L 76.800777 46.211549 L 77.035503 45.947255 L 77.271354 45.682630 L 77.508347 45.417665 L 77.746495 45.152352 L 77.985814 44.886683 L 78.226319 44.620649 L 78.468026 44.354241 L 78.710950 44.087451 L 78.955108 43.820270 L 79.200515 43.552689 L 79.447188 43.284700 L 79.695144 43.016293 L 79.944399 42.747461 L 80.194970 42.478194 L 80.446876 42.208483 L 80.700133 41.938321 L 80.954759 41.667697 L 81.210773 41.396603 L 81.468192 41.125029 L 81.727037 40.852968 L 81.987324 40.580410 L 82.249075 40.307346 L 82.512307 40.033766 L 82.777042 39.759663 L 83.043299 39.485026 L 83.311098 39.209846 L 83.580460 38.934115 L 83.851407 38.657823 L 84.123959 38.380960 L 84.398139 38.103519 L 84.673967 37.825488 L 84.951468 37.546859 L 85.230662 37.267623 L 85.511574 36.987769 L 85.794227 36.707289 L 86.078644 36.426174 L 86.364850 36.144412 L 86.652869 35.861996 L 86.942727 35.578914 L 87.234448 35.295159 L 87.528058 35.010719 L 87.823584 34.725586 L 88.121051 34.439749 L 88.420488 34.153199 L 88.721921 33.865925 L 89.025378 33.577919 L 89.330889 33.289170 L 89.638480 32.999669 L 89.948183 32.709405 L 90.260027 32.418368 L 90.574041 32.126548 L 90.890258 31.833936 L 91.208707 31.540521 L 91.529422 31.246293 L 91.852434 30.951243 L 92.177777 30.655359 L 92.505483 30.358632 L 92.835588 30.061052 L 93.168126 29.762608 L 93.503132 29.463291 L 93.840642 29.163089 L 94.180693 28.861993 L 94.523322 28.559992 L 94.868567 28.257077 L 95.216466 27.953236 L 95.567059 27.648459 L 95.920385 27.342737 L 96.276486 27.036059 L 96.635402 26.728414 L 96.997176 26.419792 L 97.361851 26.110183 L 97.729471 25.799576 L 98.100079 25.487962 L 98.473722 25.175330 L 98.850446 24.861669 L 99.230297 24.546970 L 99.613324 24.231221 L 99.999575 23.914414 L 100.389100 23.596538 L 100.781950 23.277582 L 101.178177 22.957536 L 101.577832 22.636391 L 101.980971 22.314137 L 102.387647 21.990763 L 102.797916 21.666260 L 103.211836 21.340618 L 103.629464 21.013827 L 104.050858 20.685878 L 104.476081 20.356760 L 104.905192 20.026466 L 105.338255 19.694984 L 105.775333 19.362307 L 106.216491 19.028425 L 106.661797 18.693329 L 106.717220 18.651863" fill="none" id="tattoo-path-1da66f7e12b40245" stroke="#000000" stroke-linecap="round" stroke-linejoin="round" stroke-width="0.800000"/>
  <circle cx="72.500000" cy="72.500000" fill="none" id="tattoo-boundary-da45c61d325de3be" r="64.900000" stroke="#000000" stroke-width="2.200000"/>
</svg>
